<?xml version="1.0"?>
<svg xmlns="http://www.w3.org/2000/svg" xmlns:xlink="http://www.w3.org/1999/xlink" xmlns:svgjs="http://svgjs.com/svgjs" version="1.1" width="512" height="512" x="0" y="0" viewBox="0 0 512 512" style="enable-background:new 0 0 512 512" xml:space="preserve" class=""><g><g xmlns="http://www.w3.org/2000/svg"><path d="m222.104 121.648c3.44 0 6.545-2.395 7.327-5.885.012-.05 1.104-4.801 4.465-9.452 2.841 8.549 8.762 11.615 13.283 12.677 4.032.945 8.068-1.555 9.016-5.588.946-4.033-1.556-8.069-5.588-9.016-.739-.173-1.75-.41-2.564-3.079-1.601-5.249-5.984-9.115-11.442-10.09-5.476-.977-10.955 1.143-14.288 5.534-5.659 7.454-7.373 15.039-7.55 15.879-.849 4.035 1.725 7.973 5.753 8.848.533.116 1.064.172 1.588.172z" fill="#ffffff" data-original="#000000" style="" class=""/><path d="m326.881 149.9c3.44 0 6.545-2.395 7.327-5.885.012-.05 1.104-4.801 4.465-9.453 2.842 8.55 8.762 11.616 13.283 12.678 4.033.938 8.069-1.554 9.016-5.588.946-4.033-1.556-8.069-5.588-9.016-.738-.173-1.75-.41-2.564-3.08-1.601-5.249-5.985-9.114-11.442-10.089-5.482-.974-10.955 1.144-14.288 5.534-5.659 7.454-7.373 15.039-7.55 15.879-.849 4.035 1.725 7.973 5.753 8.848.532.116 1.063.172 1.588.172z" fill="#ffffff" data-original="#000000" style="" class=""/><path d="m504.5 167.42h-33.494c-4.143 0-7.5 3.357-7.5 7.5s3.357 7.5 7.5 7.5h25.994v31.945h-482v-31.945h426.019c4.143 0 7.5-3.357 7.5-7.5s-3.357-7.5-7.5-7.5h-28.794c1.057-4.547 1.952-8.862 2.7-13.024 5.201-28.959-8.448-58.181-33.963-72.714-9.989-5.688-14.911-11.74-15.96-19.624-.467-3.507-3.321-6.211-6.849-6.488-13.951-1.09-25.948 2.057-35.65 9.361-.268.2-.576.252-.916.15-.346-.103-.58-.319-.696-.642-4.379-12.173-5.589-22.958-3.701-32.972.438-2.319-.242-4.708-1.835-6.45s-3.917-2.636-6.26-2.404c-18.943 1.838-33.777 12.712-46.681 34.219-.079.133-.247.506-.894.48-.431-.006-.754-.192-.959-.556-5.879-10.387-10.028-24.48-12.685-43.087-.4-2.8-2.342-5.138-5.021-6.044-2.68-.907-5.641-.227-7.66 1.755-23.857 23.443-39.127 50.917-45.384 81.657-.041.202-.137.675-.814.829-.699.161-1.008-.253-1.125-.406l-10.774-14.191c-1.645-2.166-4.338-3.27-7.025-2.891-2.692.381-4.968 2.19-5.946 4.728-2.924 7.585-11.486 14.436-25.45 20.361-5.86 2.488-11.37 5.771-16.375 9.76-3.239 2.581-3.773 7.3-1.191 10.539 2.58 3.239 7.3 3.774 10.539 1.191 3.942-3.141 8.278-5.726 12.889-7.682 12.293-5.218 21.305-11.234 27.232-18.219l4.156 5.475c3.874 5.101 10.159 7.384 16.407 5.96 6.236-1.423 10.902-6.198 12.178-12.462 4.725-23.212 15.188-44.409 31.17-63.191 2.876 13.412 6.781 24.393 11.827 33.308 2.853 5.039 8.02 8.091 13.823 8.164 5.759.07 10.984-2.828 13.945-7.761 7.997-13.329 16.282-21.333 26.057-24.934-.173 9.432 1.632 19.304 5.442 29.899 1.741 4.841 5.576 8.463 10.521 9.939 4.942 1.475 10.128.547 14.229-2.542 5.555-4.183 12.141-6.342 20.02-6.543 3.112 9.715 10.36 17.722 21.992 24.346 20.004 11.394 30.702 34.312 26.623 57.029-.885 4.929-1.99 10.097-3.354 15.675h-285.686c-.63-8.633.838-17.295 4.328-25.341 1.648-3.8-.096-8.217-3.896-9.865-3.797-1.647-8.217.096-9.865 3.896-4.311 9.94-6.198 20.621-5.588 31.31h-88.6c-4.143 0-7.5 3.357-7.5 7.5v46.945c0 4.143 3.357 7.5 7.5 7.5h20.486v267.907c0 4.143 3.357 7.5 7.5 7.5h230.745c4.143 0 7.5-3.357 7.5-7.5s-3.357-7.5-7.5-7.5h-31.485v-53.852h91.396v53.852h-29.924c-4.143 0-7.5 3.357-7.5 7.5s3.357 7.5 7.5 7.5h180.296c4.143 0 7.5-3.357 7.5-7.5v-267.905h20.486c4.143 0 7.5-3.357 7.5-7.5v-46.945c0-4.143-3.357-7.5-7.5-7.5zm-35.485 130.796v53.852h-21.475v-53.852zm-50.766 122.703v-53.851h50.766v53.851zm-106.397 0v-53.851h91.397v53.851zm-106.397 0v-53.851h91.396v53.851zm-106.397 0v-53.851h91.397v53.851zm-56.072 0v-53.851h41.071v53.851zm191.76-68.851v-53.852h91.396v53.852zm-106.397 0v-53.852h91.397v53.852zm77.106-68.852v-53.852h91.396v53.852zm-15 0h-91.397v-53.852h91.397zm-77.106 15v53.852h-70.363v-53.852zm319.191 53.852h-91.397v-53.852h91.397zm-120.688-68.852v-53.852h91.397v53.852zm-227.794-53.851v53.852h-41.072v-53.852zm-41.072 206.554h70.362v53.852h-70.362zm176.76 53.851h-91.397v-53.852h91.397zm121.397-53.851h91.397v53.852h-91.397zm106.397 53.851v-53.852h21.475v53.852zm21.475-206.554h-50.766v-53.852h50.766z" fill="#ffffff" data-original="#000000" style="" class=""/></g></g></svg>
