<?xml version="1.0"?>
<svg xmlns="http://www.w3.org/2000/svg" xmlns:xlink="http://www.w3.org/1999/xlink" xmlns:svgjs="http://svgjs.com/svgjs" version="1.1" width="512" height="512" x="0" y="0" viewBox="0 0 512 512" style="enable-background:new 0 0 512 512" xml:space="preserve" class=""><g><g xmlns="http://www.w3.org/2000/svg"><path d="m189.559 207.785c.738-2.116.492-4.452-.673-6.368-6.212-10.219-9.45-28.295-9.625-53.727-.196-28.528-20.514-51.737-45.291-51.737h-29.062c-24.778 0-45.096 23.209-45.291 51.737-.176 25.433-3.414 43.509-9.626 53.727-1.165 1.916-1.411 4.252-.673 6.368.739 2.116 2.386 3.792 4.489 4.566 6.286 2.315 13.02 4.258 20.113 5.842-9.7 8.722-15.557 21.301-15.557 34.997v45.013c0 8.09 6.582 14.672 14.672 14.672h16.415c4.143 0 7.5-3.357 7.5-7.5s-3.357-7.5-7.5-7.5h-16.086v-44.685c0-12.579 7.254-23.76 18.399-28.997 7.602 6.061 17.219 9.697 27.675 9.697s20.073-3.635 27.675-9.697c11.145 5.237 18.399 16.418 18.399 28.997v44.685h-46.074c-4.143 0-7.5 3.357-7.5 7.5s3.357 7.5 7.5 7.5h46.403c8.09 0 14.671-6.582 14.671-14.672v-45.013c0-13.696-5.856-26.275-15.557-34.997 7.091-1.584 13.825-3.527 20.112-5.842 2.106-.774 3.752-2.449 4.492-4.566zm-99.601-18.376v-24.634c10.306.229 27.925-.485 40.251-6.908 4.395 3.158 10.435 6.228 18.71 6.762v24.78c0 16.256-13.225 29.481-29.48 29.481s-29.481-13.225-29.481-29.481zm71.631 14.176c1.503-4.456 2.33-9.22 2.33-14.176v-30.614c0-2.572-1.087-5.046-2.981-6.786-1.899-1.746-4.474-2.625-7.041-2.402-6.809.579-11.802-1.086-17.244-5.749-3.186-2.729-7.816-2.961-11.26-.561-7.179 5.001-23.096 7.449-40.56 6.237-2.543-.183-5.08.722-6.946 2.463-1.861 1.737-2.929 4.193-2.929 6.74v30.672c0 4.956.827 9.72 2.33 14.176-3.573-.795-7.043-1.686-10.386-2.683 5.022-12.601 7.557-30.104 7.716-53.108.139-20.314 13.728-36.841 30.291-36.841h29.062c16.562 0 30.151 16.526 30.291 36.841.158 23.005 2.69 40.507 7.715 53.108-3.345.997-6.815 1.888-10.388 2.683z" fill="#ffffff" data-original="#000000" style=""/><path d="m227.83 102.177v204.475c0 4.143 3.357 7.5 7.5 7.5s7.5-3.357 7.5-7.5v-204.475c0-4.143-3.357-7.5-7.5-7.5s-7.5 3.357-7.5 7.5z" fill="#ffffff" data-original="#000000" style=""/><path d="m429.755 102.271c0-6.993-5.689-12.683-12.683-12.683h-129.43c-6.993 0-12.683 5.689-12.683 12.683v30.599c0 6.994 5.689 12.684 12.683 12.684h129.43c6.993 0 12.683-5.689 12.683-12.684zm-15 28.282h-124.795v-25.965h124.795z" fill="#ffffff" data-original="#000000" style=""/><path d="m309.251 171.102h-21.138c-4.143 0-7.5 3.357-7.5 7.5s3.357 7.5 7.5 7.5h21.138c4.143 0 7.5-3.357 7.5-7.5s-3.357-7.5-7.5-7.5z" fill="#ffffff" data-original="#000000" style=""/><path d="m419.357 171.102h-81.137c-4.143 0-7.5 3.357-7.5 7.5s3.357 7.5 7.5 7.5h81.138c4.143 0 7.5-3.357 7.5-7.5s-3.358-7.5-7.501-7.5z" fill="#ffffff" data-original="#000000" style=""/><path d="m309.251 211.649h-21.138c-4.143 0-7.5 3.357-7.5 7.5s3.357 7.5 7.5 7.5h21.138c4.143 0 7.5-3.357 7.5-7.5s-3.357-7.5-7.5-7.5z" fill="#ffffff" data-original="#000000" style=""/><path d="m419.357 211.649h-81.137c-4.143 0-7.5 3.357-7.5 7.5s3.357 7.5 7.5 7.5h81.138c4.143 0 7.5-3.357 7.5-7.5s-3.358-7.5-7.501-7.5z" fill="#ffffff" data-original="#000000" style=""/><path d="m309.251 252.198h-21.138c-4.143 0-7.5 3.357-7.5 7.5s3.357 7.5 7.5 7.5h21.138c4.143 0 7.5-3.357 7.5-7.5s-3.357-7.5-7.5-7.5z" fill="#ffffff" data-original="#000000" style=""/><path d="m419.357 252.198h-81.137c-4.143 0-7.5 3.357-7.5 7.5s3.357 7.5 7.5 7.5h81.138c4.143 0 7.5-3.357 7.5-7.5s-3.358-7.5-7.501-7.5z" fill="#ffffff" data-original="#000000" style=""/><path d="m486.558 348.374c-4.878-4.164-10.232-7.599-15.898-10.299v-277.333c0-13.548-11.022-24.57-24.57-24.57h-92.876c-4.143 0-7.5 3.357-7.5 7.5s3.357 7.5 7.5 7.5h92.876c5.277 0 9.57 4.293 9.57 9.57v272.113c-7.042-1.606-14.335-2.17-21.652-1.604-13.422-27.709-41.226-45.31-72.352-45.31-19.179 0-37.763 6.889-52.33 19.396-12.831 11.018-21.853 25.759-25.813 42.003-10.697.94-20.829 4.487-29.671 10.315h-229.271c-5.277 0-9.571-4.294-9.571-9.571v-287.342c0-5.277 4.294-9.57 9.571-9.57h298.654c4.143 0 7.5-3.357 7.5-7.5s-3.357-7.5-7.5-7.5h-298.654c-13.549 0-24.571 11.022-24.571 24.57v287.343c0 13.549 11.022 24.571 24.571 24.571h213.251c-8.455 11.132-13.038 24.616-13.038 38.802 0 35.494 28.876 64.37 64.37 64.37h115.209c4.143 0 7.5-3.357 7.5-7.5s-3.357-7.5-7.5-7.5h-115.209c-27.223 0-49.37-22.147-49.37-49.37 0-13.226 5.191-25.669 14.618-35.035 9.312-9.252 21.696-14.335 34.908-14.335.126.001.255.002.377.001 3.674 0 6.81-2.663 7.401-6.294 2.465-15.129 10.281-29.007 22.008-39.076 11.849-10.174 26.963-15.777 42.559-15.777 26.9 0 50.753 16.167 60.768 41.188 1.301 3.251 4.682 5.168 8.139 4.62 16.609-2.637 33.467 2.113 46.257 13.032 12.826 10.949 20.181 26.861 20.181 43.653 0 31.646-25.747 57.394-57.395 57.394h-5.255c-4.143 0-7.5 3.357-7.5 7.5s3.357 7.5 7.5 7.5h5.255c39.919 0 72.395-32.476 72.395-72.394 0-21.188-9.273-41.257-25.442-55.061z" fill="#ffffff" data-original="#000000" style=""/></g></g></svg>
