<?xml version="1.0"?>
<svg xmlns="http://www.w3.org/2000/svg" xmlns:xlink="http://www.w3.org/1999/xlink" xmlns:svgjs="http://svgjs.com/svgjs" version="1.1" width="512" height="512" x="0" y="0" viewBox="0 0 64 64" style="enable-background:new 0 0 512 512" xml:space="preserve"><g><g xmlns="http://www.w3.org/2000/svg" id="Migration"><path d="m53 32a9 9 0 0 0 0-18h-2.06a8.977 8.977 0 0 0 -14.18-6.3 14.982 14.982 0 0 0 -26.45 6.34 8.993 8.993 0 0 0 .69 17.96h17v4h-5a5 5 0 0 0 -5 5v13a3.009 3.009 0 0 1 -3 3h-5.14a4 4 0 1 0 0 2h5.14a5 5 0 0 0 5-5v-13a3.009 3.009 0 0 1 3-3h5v6c0 1.33 1.21 2.3 3 2.96v13.04h-3v2h4a1 1 0 0 0 1-1v-13.48a24.214 24.214 0 0 0 4 .46v10.02a1 1 0 0 0 1 1h9.14a4 4 0 1 0 0-2h-8.14v-9.02c4.51-.16 9-1.42 9-3.98v-2h3a1 1 0 0 1 1 1v8a1 1 0 0 0 1 1h5v-2h-4v-7a3.009 3.009 0 0 0 -3-3h-3v-8zm-47 28a2 2 0 1 1 2-2 2.006 2.006 0 0 1 -2 2zm45-4a2 2 0 1 1 -2 2 2.006 2.006 0 0 1 2-2zm-5-12c0 .51-2.75 2-8 2s-8-1.49-8-2v-3.48a18.866 18.866 0 0 0 8 1.48 18.866 18.866 0 0 0 8-1.48zm0-6c0 .51-2.75 2-8 2s-8-1.49-8-2v-3.48a18.866 18.866 0 0 0 8 1.48 18.866 18.866 0 0 0 8-1.48zm0-6c0 .51-2.75 2-8 2s-8-1.49-8-2v-3.48a18.866 18.866 0 0 0 8 1.48 18.866 18.866 0 0 0 8-1.48zm-8-4c-5.25 0-8-1.49-8-2s2.75-2 8-2 8 1.49 8 2-2.75 2-8 2zm1-5.98v-2.02a3.009 3.009 0 0 0 -3-3h-5.14a4 4 0 1 0 0 2h5.14a1 1 0 0 1 1 1v2.02c-4.51.16-9 1.42-9 3.98v4h-17a7 7 0 0 1 0-14h.12a7.042 7.042 0 0 1 6.88 7h2a9.049 9.049 0 0 0 -7.67-8.89 13 13 0 0 1 25.37.11l1.95-.44a14.9 14.9 0 0 0 -1.77-4.43 7 7 0 0 1 9.59 10.03l1.56 1.25a9.093 9.093 0 0 0 1.91-4.63h2.06a7 7 0 1 1 0 14h-5v-2h3a1 1 0 0 0 1-1v-4h1v-2h-2a1 1 0 0 0 -1 1v4h-2c0-2.56-4.49-3.82-9-3.98zm-10-4.02a2 2 0 1 1 -2-2 2.006 2.006 0 0 1 2 2z" fill="#ffffff" data-original="#000000" style=""/><path d="m60 50h2v2h-2z" fill="#ffffff" data-original="#000000" style=""/><path d="m24 60h2v2h-2z" fill="#ffffff" data-original="#000000" style=""/><path d="m8 23a3 3 0 0 1 3-3v-2a5 5 0 0 0 0 10h8v-2h-8a3 3 0 0 1 -3-3z" fill="#ffffff" data-original="#000000" style=""/><path d="m55 21h2v2h-2z" fill="#ffffff" data-original="#000000" style=""/></g></g></svg>
