<?xml version="1.0"?>
<svg xmlns="http://www.w3.org/2000/svg" xmlns:xlink="http://www.w3.org/1999/xlink" xmlns:svgjs="http://svgjs.com/svgjs" version="1.1" width="512" height="512" x="0" y="0" viewBox="0 0 512.001 512.001" style="enable-background:new 0 0 512 512" xml:space="preserve" class=""><g><g xmlns="http://www.w3.org/2000/svg"><path d="m214.78 241.468c-4.143 0-7.5 3.357-7.5 7.5s3.357 7.5 7.5 7.5h82.442c4.143 0 7.5-3.357 7.5-7.5s-3.357-7.5-7.5-7.5z" fill="#ffffff" data-original="#000000" style=""/><path d="m475.111 451.892-18.496-12.693c-3.846-2.639-9.015-2.64-12.862.001l-21.222 14.564h-19.21v-103.538c26.376-3.93 50.941-16.126 70.58-35.313 24.349-23.786 37.879-55.191 38.099-88.43.285-43.337-21.394-83.282-57.989-106.854-3.481-2.241-8.122-1.238-10.367 2.244-2.242 3.482-1.238 8.124 2.244 10.367 32.257 20.776 51.364 55.97 51.112 94.144-.192 29.203-12.118 56.833-33.58 77.8-21.406 20.913-49.402 32.43-78.829 32.43h-272.07c-25.435 0-49.549-9.682-67.902-27.262-18.398-17.624-28.904-41.224-29.583-66.452-.707-26.308 9.082-51.185 27.563-70.05 18.272-18.651 42.758-28.897 69.014-28.897.214 0 .43 0 .644.002h.049c3.674 0 6.81-2.663 7.401-6.294 4.734-29.061 19.742-55.713 42.259-75.047 22.755-19.539 51.782-30.3 81.735-30.3 25.57 0 50.191 7.668 71.202 22.175 20.534 14.179 36.266 33.859 45.494 56.915 1.301 3.25 4.674 5.164 8.139 4.62 17.675-2.805 35.147-1.435 51.927 4.078 3.939 1.297 8.174-.85 9.466-4.784 1.293-3.936-.849-8.173-4.784-9.466-17.215-5.655-35.059-7.479-53.119-5.437-10.545-23.472-27.254-43.531-48.6-58.27-23.528-16.245-51.096-24.832-79.725-24.832-33.536 0-66.034 12.046-91.508 33.919-23.595 20.261-39.823 47.717-46.144 77.853-28.204 1.358-54.344 13.035-74.165 33.268-21.352 21.795-32.661 50.543-31.843 80.949.785 29.204 12.932 56.508 34.201 76.882 20.233 19.381 46.54 30.428 74.439 31.358v102.223h-19.21l-21.223-14.565c-3.846-2.639-9.015-2.64-12.862.001l-18.494 12.692c-3.09 2.12-4.935 5.624-4.935 9.371 0 3.748 1.845 7.252 4.935 9.372l18.494 12.693c.001 0 .001.001.002.001 1.923 1.319 4.176 1.979 6.43 1.979s4.509-.66 6.433-1.979l21.222-14.564h26.711c4.143 0 7.5-3.357 7.5-7.5v-109.654h42.698v85.561l-14.565 21.225c-2.639 3.846-2.639 9.015 0 12.86 0 .001 0 .001.001.002l12.692 18.494c2.121 3.09 5.624 4.935 9.372 4.935h.002c3.748-.001 7.251-1.846 9.369-4.935l12.694-18.496c2.639-3.846 2.639-9.015-.001-12.862l-14.564-21.223v-85.561h67.12v35.562l-14.562 21.22c-2.643 3.848-2.643 9.019 0 12.866l12.691 18.493c2.12 3.09 5.624 4.935 9.371 4.935 3.748 0 7.252-1.845 9.372-4.935l12.691-18.493c2.643-3.848 2.643-9.019.001-12.865l-14.566-21.222v-35.561h67.121v85.561l-14.565 21.225c-2.639 3.846-2.639 9.015 0 12.86 0 .001 0 .001.001.002l12.692 18.494c2.12 3.09 5.624 4.935 9.371 4.935 3.748 0 7.252-1.845 9.372-4.935l12.694-18.496c2.639-3.846 2.639-9.015-.001-12.862l-14.564-21.223v-85.561h38.968c1.246 0 2.489-.024 3.73-.061v109.712c0 4.143 3.357 7.5 7.5 7.5h26.71l21.224 14.565c1.923 1.319 4.177 1.979 6.43 1.979 2.254 0 4.508-.659 6.431-1.979.001 0 .001-.001.002-.001l18.494-12.693c3.09-2.12 4.935-5.624 4.935-9.372 0-3.746-1.844-7.25-4.934-9.37zm-413.293 17.658-12.073-8.286 12.072-8.286 12.074 8.286zm112.062 7.351-8.286-12.073 8.286-12.073 8.286 12.073zm82.121-50-8.286-12.073 8.285-12.074 8.286 12.073zm82.121 50-8.286-12.073 8.286-12.073 8.286 12.073zm112.062-7.351-12.073-8.286 12.073-8.286 12.073 8.286z" fill="#ffffff" data-original="#000000" style=""/></g></g></svg>
