<?xml version="1.0"?>
<svg xmlns="http://www.w3.org/2000/svg" xmlns:xlink="http://www.w3.org/1999/xlink" xmlns:svgjs="http://svgjs.com/svgjs" version="1.1" width="512" height="512" x="0" y="0" viewBox="0 0 512 512" style="enable-background:new 0 0 512 512" xml:space="preserve"><g><g xmlns="http://www.w3.org/2000/svg"><path d="m138.414 135.349c-4.143 0-7.5 3.357-7.5 7.5s3.357 7.5 7.5 7.5h46.913c4.143 0 7.5-3.357 7.5-7.5s-3.357-7.5-7.5-7.5z" fill="#ffffff" data-original="#000000" style=""/><path d="m323.735 132.246c0-23.734-10.389-46.216-28.501-61.68-16.586-14.16-38.002-20.978-59.564-19.125-2.713-5.671-6.031-11.071-9.906-16.112-2.522-3.283-7.231-3.9-10.517-1.376-3.284 2.524-3.9 7.232-1.376 10.517 4.233 5.508 7.669 11.521 10.212 17.875 1.301 3.251 4.682 5.168 8.139 4.62 19.121-3.037 38.542 2.433 53.272 15.01 14.771 12.609 23.241 30.933 23.241 50.271 0 36.446-29.651 66.098-66.099 66.098h-170.631c-31.43 0-56.999-25.569-56.999-56.998 0-15.27 5.993-29.634 16.876-40.447 10.75-10.682 25.048-16.55 40.301-16.55.143 0 .288 0 .427.001 3.674 0 6.81-2.663 7.401-6.294 2.833-17.392 11.817-33.345 25.297-44.919 13.62-11.696 30.994-18.137 48.922-18.137 13.844 0 27.395 3.823 39.185 11.056 3.529 2.164 8.148 1.059 10.315-2.472 2.165-3.531 1.059-8.149-2.472-10.315-14.152-8.681-30.414-13.269-47.028-13.269-21.511 0-42.355 7.727-58.693 21.756-14.579 12.517-24.772 29.318-29.123 47.816-17.059 1.329-32.89 8.549-45.104 20.687-13.737 13.65-21.303 31.793-21.303 51.087 0 39.7 32.299 71.998 71.999 71.998h170.631c44.717 0 81.098-36.38 81.098-81.098z" fill="#ffffff" data-original="#000000" style=""/><path d="m357.062 151.485h16.5c4.143 0 7.5-3.357 7.5-7.5s-3.357-7.5-7.5-7.5h-16.5c-4.143 0-7.5 3.357-7.5 7.5s3.357 7.5 7.5 7.5z" fill="#ffffff" data-original="#000000" style=""/><path d="m400.989 151.485h9v9c0 4.143 3.357 7.5 7.5 7.5s7.5-3.357 7.5-7.5v-16.5c0-4.143-3.357-7.5-7.5-7.5h-16.5c-4.143 0-7.5 3.357-7.5 7.5s3.357 7.5 7.5 7.5z" fill="#ffffff" data-original="#000000" style=""/><path d="m424.989 192.495c0-4.143-3.357-7.5-7.5-7.5s-7.5 3.357-7.5 7.5v32.01c0 4.143 3.357 7.5 7.5 7.5s7.5-3.357 7.5-7.5z" fill="#ffffff" data-original="#000000" style=""/><path d="m417.489 249.016c-4.143 0-7.5 3.357-7.5 7.5v16.5c0 4.143 3.357 7.5 7.5 7.5s7.5-3.357 7.5-7.5v-16.5c0-4.143-3.358-7.5-7.5-7.5z" fill="#ffffff" data-original="#000000" style=""/><path d="m198.841 365.205h-16.5c-4.143 0-7.5 3.357-7.5 7.5s3.357 7.5 7.5 7.5h16.5c4.143 0 7.5-3.357 7.5-7.5s-3.357-7.5-7.5-7.5z" fill="#ffffff" data-original="#000000" style=""/><path d="m154.914 365.205h-9v-9c0-4.143-3.357-7.5-7.5-7.5s-7.5 3.357-7.5 7.5v16.5c0 4.143 3.357 7.5 7.5 7.5h16.5c4.143 0 7.5-3.357 7.5-7.5s-3.358-7.5-7.5-7.5z" fill="#ffffff" data-original="#000000" style=""/><path d="m138.414 284.686c-4.143 0-7.5 3.357-7.5 7.5v32.01c0 4.143 3.357 7.5 7.5 7.5s7.5-3.357 7.5-7.5v-32.01c0-4.143-3.358-7.5-7.5-7.5z" fill="#ffffff" data-original="#000000" style=""/><path d="m145.914 243.676c0-4.143-3.357-7.5-7.5-7.5s-7.5 3.357-7.5 7.5v16.5c0 4.143 3.357 7.5 7.5 7.5s7.5-3.357 7.5-7.5z" fill="#ffffff" data-original="#000000" style=""/><path d="m486.349 405.319c-2.985-3.65-7.402-5.743-12.117-5.743h-2.549v-12.048h2.549c4.714 0 9.13-2.093 12.116-5.741l22.118-27.031c4.703-5.745 4.703-14.086.001-19.83l-22.118-27.03c-2.985-3.65-7.402-5.743-12.117-5.743h-158.897c-4.143 0-7.5 3.357-7.5 7.5s3.357 7.5 7.5 7.5h158.896c.197 0 .382.087.507.24l22.12 27.034c.196.239.196.588-.001.828l-22.118 27.032c-.126.153-.311.241-.508.241h-14.913v-8.42c0-4.143-3.357-7.5-7.5-7.5s-7.5 3.357-7.5 7.5v8.42h-12.043v-8.42c0-4.143-3.357-7.5-7.5-7.5s-7.5 3.357-7.5 7.5v8.42h-12.043v-8.42c0-4.143-3.357-7.5-7.5-7.5s-7.5 3.357-7.5 7.5v8.42h-119.141c-.197 0-.382-.088-.507-.241l-22.12-27.032c-.197-.24-.197-.589 0-.829l22.121-27.034c.124-.152.309-.239.506-.239h14.257c4.143 0 7.5-3.357 7.5-7.5s-3.357-7.5-7.5-7.5h-14.257c-4.715 0-9.132 2.093-12.116 5.741l-22.12 27.032c-4.7 5.745-4.7 14.084 0 19.829l22.121 27.032c2.985 3.648 7.401 5.741 12.115 5.741h2.548v12.048h-2.548c-4.715 0-9.132 2.093-12.116 5.741l-22.12 27.032c-4.7 5.745-4.7 14.084 0 19.829l22.121 27.032c2.985 3.648 7.401 5.741 12.115 5.741h2.548v19.549c0 4.143 3.357 7.5 7.5 7.5h116.815c4.143 0 7.5-3.357 7.5-7.5s-3.357-7.5-7.5-7.5h-109.315v-12.048h168.044v12.048h-28.741c-4.143 0-7.5 3.357-7.5 7.5s3.357 7.5 7.5 7.5h36.241c4.143 0 7.5-3.357 7.5-7.5v-19.548h2.549c4.714 0 9.13-2.093 12.116-5.741l22.118-27.031c4.703-5.745 4.703-14.086.001-19.83zm-197.71-17.791h168.044v12.048h-168.044zm208.219 55.151-22.118 27.032c-.126.153-.311.241-.508.241h-14.913v-8.42c0-4.143-3.357-7.5-7.5-7.5s-7.5 3.357-7.5 7.5v8.42h-12.043v-8.42c0-4.143-3.357-7.5-7.5-7.5s-7.5 3.357-7.5 7.5v8.42h-12.043v-8.42c0-4.143-3.357-7.5-7.5-7.5s-7.5 3.357-7.5 7.5v8.42h-119.142c-.197 0-.382-.088-.507-.241l-22.12-27.032c-.197-.24-.197-.589 0-.829l22.121-27.034c.124-.152.309-.239.506-.239h203.141c.197 0 .382.087.507.24l22.12 27.034c.196.239.196.587-.001.828z" fill="#ffffff" data-original="#000000" style=""/><path d="m286.004 344.84c0 4.143 3.357 7.5 7.5 7.5h6.838c4.143 0 7.5-3.357 7.5-7.5s-3.357-7.5-7.5-7.5h-6.838c-4.142 0-7.5 3.357-7.5 7.5z" fill="#ffffff" data-original="#000000" style=""/><path d="m332.027 352.34c4.143 0 7.5-3.357 7.5-7.5s-3.357-7.5-7.5-7.5h-6.838c-4.143 0-7.5 3.357-7.5 7.5s3.357 7.5 7.5 7.5z" fill="#ffffff" data-original="#000000" style=""/><path d="m363.711 352.34c4.143 0 7.5-3.357 7.5-7.5s-3.357-7.5-7.5-7.5h-6.838c-4.143 0-7.5 3.357-7.5 7.5s3.357 7.5 7.5 7.5z" fill="#ffffff" data-original="#000000" style=""/><path d="m300.342 434.764h-6.838c-4.143 0-7.5 3.357-7.5 7.5s3.357 7.5 7.5 7.5h6.838c4.143 0 7.5-3.357 7.5-7.5s-3.357-7.5-7.5-7.5z" fill="#ffffff" data-original="#000000" style=""/><path d="m332.027 434.764h-6.838c-4.143 0-7.5 3.357-7.5 7.5s3.357 7.5 7.5 7.5h6.838c4.143 0 7.5-3.357 7.5-7.5s-3.358-7.5-7.5-7.5z" fill="#ffffff" data-original="#000000" style=""/><path d="m363.711 434.764h-6.838c-4.143 0-7.5 3.357-7.5 7.5s3.357 7.5 7.5 7.5h6.838c4.143 0 7.5-3.357 7.5-7.5s-3.357-7.5-7.5-7.5z" fill="#ffffff" data-original="#000000" style=""/></g></g></svg>
