<?xml version="1.0"?>
<svg xmlns="http://www.w3.org/2000/svg" xmlns:xlink="http://www.w3.org/1999/xlink" xmlns:svgjs="http://svgjs.com/svgjs" version="1.1" width="512" height="512" x="0" y="0" viewBox="0 0 64 64" style="enable-background:new 0 0 512 512" xml:space="preserve" class=""><g><g xmlns="http://www.w3.org/2000/svg" id="Computer_room" data-name="Computer room"><path d="m29 48h-3v-2h2a1 1 0 0 0 1-1v-8a1 1 0 0 0 -1-1h-10a1 1 0 0 0 -1 1v8a1 1 0 0 0 1 1h2v2h-8v-2h2a1 1 0 0 0 1-1v-8a1 1 0 0 0 -1-1h-10a1 1 0 0 0 -1 1v8a1 1 0 0 0 1 1h2v2h-3a1 1 0 0 0 -1 1v4a1 1 0 0 0 1 1h1v7a1 1 0 0 0 1 1h4a1 1 0 0 0 1-1v-7h12v7a1 1 0 0 0 1 1h4a1 1 0 0 0 1-1v-7h1a1 1 0 0 0 1-1v-4a1 1 0 0 0 -1-1zm-10-10h8v6h-8zm3 8h2v2h-2zm-17-8h8v6h-8zm3 8h2v2h-2zm0 14h-2v-6h2zm18 0h-2v-6h2zm2-8h-24v-2h24z" fill="#ffffff" data-original="#000000" style="" class=""/><path d="m61 48h-3v-2h2a1 1 0 0 0 1-1v-8a1 1 0 0 0 -1-1h-10a1 1 0 0 0 -1 1v8a1 1 0 0 0 1 1h2v2h-8v-2h2a1 1 0 0 0 1-1v-8a1 1 0 0 0 -1-1h-10a1 1 0 0 0 -1 1v8a1 1 0 0 0 1 1h2v2h-3a1 1 0 0 0 -1 1v4a1 1 0 0 0 1 1h1v7a1 1 0 0 0 1 1h4a1 1 0 0 0 1-1v-7h12v7a1 1 0 0 0 1 1h4a1 1 0 0 0 1-1v-7h1a1 1 0 0 0 1-1v-4a1 1 0 0 0 -1-1zm-10-10h8v6h-8zm3 8h2v2h-2zm-17-8h8v6h-8zm3 8h2v2h-2zm0 14h-2v-6h2zm18 0h-2v-6h2zm2-8h-24v-2h24z" fill="#ffffff" data-original="#000000" style="" class=""/><path d="m61 28h-3v-2h2a1 1 0 0 0 1-1v-8a1 1 0 0 0 -1-1h-4v-13a1 1 0 0 0 -1-1h-46a1 1 0 0 0 -1 1v13h-4a1 1 0 0 0 -1 1v8a1 1 0 0 0 1 1h2v2h-3a1 1 0 0 0 -1 1v4a1 1 0 0 0 1 1h58a1 1 0 0 0 1-1v-4a1 1 0 0 0 -1-1zm-5 0h-2v-2h2zm3-4h-8v-6h8zm-49-20h44v12h-2v-9a1 1 0 0 0 -1-1h-38a1 1 0 0 0 -1 1v9h-2zm-5 14h8v6h-8zm3 8h2v2h-2zm20 6h-24v-2h24zm-9-8v-6h8v6zm5 2v2h-2v-2zm6 4h4v2h-4zm-4-2v-2h2a1 1 0 0 0 1-1v-8a1 1 0 0 0 -1-1h-10a1 1 0 0 0 -1 1v8a1 1 0 0 0 1 1h2v2h-8v-2h2a1 1 0 0 0 1-1v-8a1 1 0 0 0 -1-1v-8h36v8a1 1 0 0 0 -1 1v8a1 1 0 0 0 1 1h2v2h-8v-2h2a1 1 0 0 0 1-1v-8a1 1 0 0 0 -1-1h-10a1 1 0 0 0 -1 1v8a1 1 0 0 0 1 1h2v2zm11-4v-6h8v6zm5 2v2h-2v-2zm18 6h-24v-2h24z" fill="#ffffff" data-original="#000000" style="" class=""/><path d="m18 10h4v2h-4z" fill="#ffffff" data-original="#000000" style="" class=""/><path d="m24 10h22v2h-22z" fill="#ffffff" data-original="#000000" style="" class=""/><path d="m30 16h4v2h-4z" fill="#ffffff" data-original="#000000" style="" class=""/><path d="m30 22h4v2h-4z" fill="#ffffff" data-original="#000000" style="" class=""/></g></g></svg>
