<svg height="512" viewBox="0 0 48 48" width="512" xmlns="http://www.w3.org/2000/svg"><g id="Cloud_Computing" data-name="Cloud Computing"><g fill="#76b543"><path d="m33 43h-6a1 1 0 0 1 -1-1v-17a1 1 0 0 1 2 0v16h5a1 1 0 0 1 0 2z"/><path d="m39 34h-6a1 1 0 0 1 -1-1v-8a1 1 0 0 1 2 0v7h5a1 1 0 0 1 0 2z"/><path d="m14 41v-5a1 1 0 0 1 1-1h5v-10a1 1 0 0 1 2 0v11a1 1 0 0 1 -1 1h-5v4a1 1 0 0 1 -2 0z"/><path d="m15 32h-6a1 1 0 0 1 0-2h5v-5a1 1 0 0 1 2 0v6a1 1 0 0 1 -1 1z"/></g><path d="m41.4 17.8a7.2 7.2 0 0 1 -7.2 7.2h-22.2a5.4 5.4 0 0 1 -2.92-9.94 4.8 4.8 0 0 1 3.64-5.54 7.2 7.2 0 0 1 13.14-5.2 7.22 7.22 0 0 1 10.74 6.28 2.75 2.75 0 0 1 0 .41 7.19 7.19 0 0 1 4.8 6.79z" fill="#223f97"/><path d="m41.4 17.8a7.2 7.2 0 0 1 -7.2 7.2c-22.85 0-22.2 0-22.34 0a5.39 5.39 0 0 1 .22-8.93 4.79 4.79 0 0 1 3.64-5.54 7.21 7.21 0 0 1 7.81-8.53 7.25 7.25 0 0 1 2.33 2.28c5.36-3 11.46 1.86 10.72 6.69a7.19 7.19 0 0 1 4.82 6.83z" fill="#223f97
"/><circle cx="36" cy="42" fill="#216733" r="3"/><circle cx="42" cy="33" fill="#216733" r="3"/><circle cx="15" cy="44" fill="#216733" r="3"/><path d="m9 31a3 3 0 1 1 -5-2.24 3 3 0 0 1 5 2.24z" fill="#216733"/><path d="m9 31a1 1 0 0 1 0 .24 3 3 0 0 1 -5-2.24 1 1 0 0 1 0-.24 3 3 0 0 1 5 2.24z" fill="#216733"/><path d="m18 44a1 1 0 0 1 0 .24 3 3 0 0 1 -5-2.24 1 1 0 0 1 0-.24 3 3 0 0 1 5 2.24z" fill="#216733"/><path d="m39 42a1 1 0 0 1 0 .24 3 3 0 0 1 -5-2.24 1 1 0 0 1 0-.24 3 3 0 0 1 5 2.24z" fill="#216733"/><path d="m45 33a1 1 0 0 1 0 .24 3 3 0 0 1 -5-2.24 1 1 0 0 1 0-.24 3 3 0 0 1 5 2.24z" fill="#216733"/></g></svg>