<?xml version="1.0" encoding="UTF-8"?>
<svg xmlns="http://www.w3.org/2000/svg" xmlns:xlink="http://www.w3.org/1999/xlink" version="1.1" id="Capa_1" x="0px" y="0px" viewBox="0 0 511.999 511.999" style="enable-background:new 0 0 511.999 511.999;" xml:space="preserve" width="512" height="512">
<g>
	
		<path style="fill-rule:evenodd;clip-rule:evenodd;fill:none;stroke:#223f97;stroke-width:20.0001;stroke-linecap:round;stroke-linejoin:round;stroke-miterlimit:22.9256;" d="&#10;&#9;&#9;M191.242,255.989l-82.518-204.84c-6.136-15.308,1.171-32.745,16.32-38.945c9.422-3.856,19.675-2.483,27.545,2.807l320.738,216.067&#10;&#9;&#9;c13.614,9.172,17.294,27.761,8.217,41.518c-2.349,3.559-5.322,6.444-8.673,8.61L152.588,496.968&#10;&#9;&#9;c-13.615,9.172-32.01,5.454-41.087-8.303c-5.947-9.014-6.417-20.103-2.205-29.257L191.242,255.989z"/>
	
		<polygon style="fill-rule:evenodd;clip-rule:evenodd;fill:none;stroke:#223f97;stroke-width:20.0001;stroke-linecap:round;stroke-linejoin:round;stroke-miterlimit:22.9256;" points="&#10;&#9;&#9;201.182,391.888 402.914,255.989 201.181,120.09 255.927,255.989 &#9;"/>
	
		<path style="fill-rule:evenodd;clip-rule:evenodd;fill:none;stroke:#76b543;stroke-width:20.0001;stroke-linecap:round;stroke-linejoin:round;stroke-miterlimit:22.9256;" d="&#10;&#9;&#9;M117.941,436.963L66.673,471.5c-12.175,8.202-28.627,4.877-36.744-7.426c-5.319-8.062-5.739-17.978-1.972-26.165l73.284-181.918&#10;&#9;&#9;L27.444,72.8c-5.488-13.69,1.047-29.284,14.595-34.829c8.426-3.449,17.596-2.221,24.634,2.511l51.549,34.726"/>
</g>















</svg>
