<svg height="512" viewBox="0 0 512 512" width="512" xmlns="http://www.w3.org/2000/svg"><g id="Out_line" data-name="Out line" style="fill: #223f97;"><path d="m493.65674 258.34326-64-64a7.99877 7.99877 0 0 0 -5.65674-2.34326h-144a7.99977 7.99977 0 0 0 -8 8v288a7.99977 7.99977 0 0 0 8 8h208a7.99977 7.99977 0 0 0 8-8v-224a7.99877 7.99877 0 0 0 -2.34326-5.65674zm-61.65674-39.02978 36.68652 36.68652h-36.68652zm-144 260.68652v-272h128v56a7.99977 7.99977 0 0 0 8 8h56v208z"/><path d="m304 224h32v16h-32z"/><path d="m304 256h32v16h-32z"/><path d="m320 288h48v16h-48z"/><path d="m384 288h80v16h-80z"/><path d="m304 320h48v16h-48z"/><path d="m368 320h48v16h-48z"/><path d="m432 320h32v16h-32z"/><path d="m304 352h96v16h-96z"/><path d="m416 352h48v16h-48z"/><path d="m416 416h32v16h-32z"/><path d="m416 448h32v16h-32z"/><path d="m304 384h64v16h-64z"/><path d="m32 160h288v16h16v-24a7.99977 7.99977 0 0 0 -8-8h-16v-16h-16v16h-16v-16h16v-16h-264v-80h296v-16h-304a7.99977 7.99977 0 0 0 -8 8v96a7.99977 7.99977 0 0 0 8 8h16v16h-16a7.99977 7.99977 0 0 0 -8 8v96a7.99977 7.99977 0 0 0 8 8h16v16h-16a7.99977 7.99977 0 0 0 -8 8v96a7.99977 7.99977 0 0 0 8 8h232v-16h-224v-80h224v-16h-168v-16h168v-16h-224zm232-16h-176v-16h176zm-208-16h16v16h-16zm16 144h-16v-16h16z"/><path d="m56 176a7.99977 7.99977 0 0 0 -8 8v32a7.99977 7.99977 0 0 0 8 8h64a7.99977 7.99977 0 0 0 8-8v-32a7.99977 7.99977 0 0 0 -8-8zm56 32h-48v-16h48z"/><path d="m136 200a24 24 0 1 0 24-24 24.02687 24.02687 0 0 0 -24 24zm32 0a8 8 0 1 1 -8-8 8.00917 8.00917 0 0 1 8 8z"/><path d="m192 200a24 24 0 1 0 24-24 24.02687 24.02687 0 0 0 -24 24zm32 0a8 8 0 1 1 -8-8 8.00917 8.00917 0 0 1 8 8z"/><path d="m56 304a7.99977 7.99977 0 0 0 -8 8v32a7.99977 7.99977 0 0 0 8 8h64a7.99977 7.99977 0 0 0 8-8v-32a7.99977 7.99977 0 0 0 -8-8zm56 32h-48v-16h48z"/><path d="m136 328a24 24 0 1 0 24-24 24.02687 24.02687 0 0 0 -24 24zm32 0a8 8 0 1 1 -8-8 8.00917 8.00917 0 0 1 8 8z"/><path d="m192 328a24 24 0 1 0 24-24 24.02687 24.02687 0 0 0 -24 24zm32 0a8 8 0 1 1 -8-8 8.00917 8.00917 0 0 1 8 8z"/><path d="m56 48a7.99977 7.99977 0 0 0 -8 8v32a7.99977 7.99977 0 0 0 8 8h64a7.99977 7.99977 0 0 0 8-8v-32a7.99977 7.99977 0 0 0 -8-8zm56 32h-48v-16h48z"/><path d="m136 72a24 24 0 1 0 24-24 24.02687 24.02687 0 0 0 -24 24zm32 0a8 8 0 1 1 -8-8 8.00917 8.00917 0 0 1 8 8z"/><path d="m192 72a24 24 0 1 0 24-24 24.02687 24.02687 0 0 0 -24 24zm32 0a8 8 0 1 1 -8-8 8.00917 8.00917 0 0 1 8 8z"/><path d="m298.34326 93.65674 64 64a7.99981 7.99981 0 0 0 13.65674-5.65674v-32h16v56h16v-64a7.99977 7.99977 0 0 0 -8-8h-32a7.99977 7.99977 0 0 0 -8 8v20.686l-44.686-44.686 44.686-44.686v20.686a7.99977 7.99977 0 0 0 8 8h72v112h16v-120a7.99977 7.99977 0 0 0 -8-8h-72v-32a7.99981 7.99981 0 0 0 -13.65674-5.65674l-64 64a7.99915 7.99915 0 0 0 0 11.31348z"/></g></svg>