<svg id="Capa_1" enable-background="new 0 0 512 512" height="512" viewBox="0 0 512 512" width="512" xmlns="http://www.w3.org/2000/svg"><g><g  style="fill: #223f97;"><path d="m305.97 143.941c-1.593 4.903-.29 10.184 3.402 13.783l15.236 14.852-3.597 20.971c-.872 5.081 1.178 10.12 5.349 13.15 2.356 1.712 5.114 2.582 7.89 2.582 2.137 0 4.285-.515 6.27-1.559l18.833-9.901 18.833 9.901c4.562 2.399 9.988 2.007 14.158-1.022 4.171-3.03 6.221-8.068 5.35-13.15l-3.597-20.971 15.237-14.852c3.691-3.599 4.995-8.88 3.402-13.783s-5.752-8.409-10.853-9.15l-21.057-3.06-9.417-19.08c-2.282-4.623-6.901-7.495-12.057-7.495-5.155 0-9.774 2.872-12.056 7.495l-9.417 19.08-21.056 3.06c-5.101.741-9.26 4.247-10.853 9.149zm34.875 2.517c4.38-.636 8.165-3.386 10.124-7.355l8.384-16.988 8.384 16.989c1.959 3.969 5.744 6.718 10.123 7.354l18.747 2.724-13.564 13.223c-3.17 3.089-4.616 7.538-3.868 11.901l3.203 18.671-16.769-8.816c-3.917-2.059-8.594-2.058-12.512 0l-16.768 8.815 3.202-18.67c.749-4.362-.696-8.811-3.867-11.901l-13.565-13.223z"/><path d="m264.045 53.094-2.531 14.757c-.775 4.519 1.048 9.001 4.758 11.696 2.096 1.523 4.548 2.296 7.017 2.296 1.901 0 3.811-.458 5.577-1.386l13.252-6.967 13.252 6.967c4.06 2.133 8.884 1.786 12.594-.91 3.71-2.695 5.533-7.177 4.758-11.696l-2.531-14.757 10.721-10.451c3.284-3.201 4.443-7.898 3.026-12.259s-5.116-7.479-9.653-8.139l-14.817-2.153-6.626-13.426c-2.03-4.112-6.139-6.666-10.724-6.666s-8.694 2.554-10.724 6.666l-6.626 13.427-14.816 2.153c-4.538.659-8.237 3.777-9.654 8.138s-.258 9.058 3.026 12.259zm25.345-39.789.005.01c-.001-.004-.003-.007-.005-.01zm-10.881 21.402c3.895-.567 7.26-3.013 9.002-6.542l4.606-9.334 4.606 9.334c1.742 3.529 5.107 5.975 9.004 6.542l10.3 1.497-7.453 7.265c-2.819 2.748-4.105 6.705-3.44 10.585l1.759 10.259-9.212-4.844c-3.485-1.832-7.646-1.832-11.13 0l-9.213 4.844 1.759-10.259c.666-3.88-.621-7.838-3.439-10.584l-7.454-7.265z"/><path d="m313.4 288.626-37.768 37.768-27.152-27.152c-2.929-2.929-7.678-2.929-10.606 0-2.929 2.929-2.929 7.678 0 10.606l32.456 32.455c1.464 1.464 3.384 2.197 5.303 2.197s3.839-.732 5.303-2.197l43.071-43.071c2.929-2.929 2.929-7.678 0-10.606-2.93-2.929-7.679-2.929-10.607 0z"/><path d="m456.568 384.768c-.302-.302-.612-.592-.924-.879.036-7.868-3.027-15.483-8.712-21.168-5.629-5.629-13.113-8.729-21.074-8.729-6.13 0-11.974 1.845-16.909 5.261-4.758-3.065-10.296-4.714-16.091-4.714-7.961 0-15.445 3.1-21.074 8.729l-63.289 63.288c-1.836 1.835-4.073 3.117-6.509 3.79h-66.947c.334-.616.753-1.191 1.259-1.704 1.421-1.441 3.317-2.234 5.341-2.234h42.477c16.216 0 29.841-12.915 30.372-28.789.055-1.647-.028-3.275-.233-4.874 23.883-10.068 42.656-30.671 49.705-56.79 1.08-3.999-1.288-8.116-5.287-9.195-4-1.081-8.116 1.287-9.195 5.287-5.801 21.491-21.216 38.463-40.843 46.804-.768-1.03-1.6-2.023-2.51-2.964-5.667-5.859-13.276-9.086-21.426-9.086h-50.599c-14.8-13.021-24.161-32.084-24.161-53.3 0-39.149 31.851-71 71-71 34.161 0 63.502 24.341 69.769 57.877.761 4.072 4.68 6.756 8.75 5.995 4.072-.761 6.756-4.678 5.995-8.75-7.592-40.632-43.135-70.123-84.514-70.123-47.42 0-86 38.58-86 86 0 20.121 6.965 38.634 18.584 53.3h-64.906v-12.285c0-7.7-6.265-13.965-13.965-13.965h-73.97c-7.7 0-13.965 6.265-13.965 13.965v143.13c0 7.7 6.265 13.965 13.965 13.965h73.972c7.7 0 13.965-6.265 13.965-13.965v-4.256l19.238 7.689c18.132 7.247 37.228 10.922 56.755 10.922h125.313c13.904 0 26.975-5.415 36.805-15.246l24.39-24.39c2.929-2.929 2.929-7.678 0-10.606-2.928-2.929-7.677-2.929-10.606 0l-24.39 24.39c-6.998 6.998-16.302 10.852-26.199 10.852h-125.313c-17.611 0-34.834-3.314-51.188-9.851l-24.805-9.914v-95.435h136.081c4.048 0 7.828 1.603 10.644 4.514 2.813 2.909 4.288 6.746 4.152 10.804-.264 7.879-7.163 14.29-15.38 14.29h-42.477c-6.07 0-11.76 2.38-16.022 6.703s-6.562 10.046-6.476 16.115l.155 10.985c.173 12.231 10.265 22.183 22.498 22.183h98.87c7.961 0 15.445-3.101 21.074-8.73l63.289-63.288c5.772-5.772 15.165-5.771 20.936 0 5.771 5.772 5.771 15.164 0 20.936l-20.699 20.699c-2.929 2.929-2.929 7.678 0 10.606 2.928 2.929 7.677 2.929 10.606 0l20.699-20.699c11.619-11.622 11.619-30.53-.001-42.15zm-322.95 111.841h-71.901v-141.059h71.901zm292.239-127.617c3.954 0 7.671 1.54 10.468 4.336.878.878 1.63 1.849 2.249 2.888-8.623-.888-17.562 1.959-24.155 8.552l-63.289 63.288c-2.796 2.796-6.513 4.336-10.467 4.336h-98.87c-3.96 0-7.238-3.131-7.477-7.047h96.71c7.96 0 15.445-3.1 21.075-8.729l63.289-63.288c2.796-2.796 6.513-4.336 10.467-4.336zm-43.468 4.883c2.796-2.796 6.514-4.335 10.468-4.335 1.526 0 3.015.235 4.431.677l-55.794 55.793c-2.797 2.796-6.515 4.336-10.469 4.336h-5.108z"/><path d="m61.932 170.69h17.678c1.098 3.201 2.407 6.354 3.908 9.406l-12.508 12.508c-2.455 2.454-3.806 5.716-3.806 9.188 0 3.471 1.352 6.733 3.806 9.187l18.576 18.577c5.066 5.065 13.308 5.066 18.374 0l12.509-12.508c3.052 1.5 6.205 2.811 9.406 3.908v17.678c0 7.164 5.829 12.993 12.993 12.993h26.271c7.164 0 12.993-5.829 12.993-12.993v-17.678c3.201-1.097 6.354-2.407 9.406-3.908l12.509 12.508c5.065 5.066 13.309 5.065 18.374 0l18.575-18.576c2.455-2.454 3.806-5.716 3.806-9.187s-1.352-6.734-3.806-9.187l-12.508-12.508c1.5-3.052 2.811-6.205 3.908-9.406h17.678c7.164 0 12.993-5.829 12.993-12.993v-26.271c0-7.164-5.829-12.993-12.993-12.993h-17.677c-1.098-3.202-2.408-6.356-3.908-9.406l12.508-12.508c5.066-5.066 5.066-13.308 0-18.374l-18.576-18.576c-5.065-5.066-13.308-5.066-18.374 0l-12.509 12.508c-3.051-1.5-6.204-2.81-9.406-3.908v-17.678c0-7.164-5.829-12.993-12.993-12.993h-26.271c-7.164 0-12.993 5.829-12.993 12.993v17.677c-3.202 1.098-6.355 2.408-9.406 3.908l-12.509-12.508c-5.065-5.066-13.309-5.065-18.374 0l-18.577 18.576c-5.066 5.066-5.066 13.308 0 18.374l12.508 12.508c-1.5 3.051-2.811 6.205-3.908 9.406h-17.677c-7.164 0-12.993 5.829-12.993 12.993v26.271c.001 7.163 5.829 12.992 12.993 12.992zm2.008-37.256h17.124c5.653 0 10.625-3.637 12.375-9.051 1.077-3.337 2.442-6.621 4.056-9.762 2.604-5.07 1.664-11.167-2.34-15.17l-12.12-12.118 15.737-15.737 12.119 12.118c4.004 4.004 10.101 4.944 15.171 2.34 3.141-1.614 6.425-2.979 9.76-4.056 5.414-1.748 9.052-6.72 9.052-12.375v-17.123h22.256v17.124c0 5.654 3.638 10.627 9.05 12.374 3.336 1.078 6.62 2.442 9.762 4.056 5.071 2.604 11.167 1.665 15.17-2.34l12.119-12.118 15.737 15.737-12.118 12.118c-4.004 4.004-4.944 10.1-2.34 15.172 1.613 3.14 2.978 6.424 4.056 9.761 1.749 5.413 6.721 9.05 12.374 9.05h17.124v22.256h-17.125c-5.653 0-10.625 3.637-12.375 9.051-1.077 3.335-2.441 6.619-4.055 9.762-2.604 5.07-1.664 11.167 2.34 15.17l12.118 12.118-15.736 15.737-12.118-12.118c-4.004-4.005-10.1-4.946-15.172-2.341-3.142 1.614-6.425 2.979-9.761 4.056-5.413 1.749-9.05 6.721-9.05 12.374v17.125h-22.256v-17.124c0-5.653-3.637-10.625-9.051-12.375-3.335-1.077-6.619-2.441-9.76-4.055-5.072-2.605-11.169-1.665-15.172 2.34l-12.119 12.118-15.736-15.737 12.118-12.118c4.004-4.004 4.944-10.1 2.34-15.171-1.614-3.142-2.979-6.425-4.056-9.761-1.749-5.413-6.721-9.05-12.374-9.05h-17.124z"/><path d="m156.002 195.259c20.061 0 38.266-11.865 46.38-30.227 1.674-3.789-.04-8.217-3.828-9.892-3.788-1.673-8.217.04-9.892 3.828-5.716 12.934-18.536 21.291-32.661 21.291-19.684 0-35.697-16.014-35.697-35.697s16.014-35.697 35.697-35.697c14.075 0 26.877 8.317 32.614 21.188 1.686 3.784 6.119 5.483 9.904 3.797 3.783-1.687 5.483-6.121 3.797-9.904-8.145-18.274-26.325-30.082-46.315-30.082-27.955 0-50.697 22.743-50.697 50.697s22.743 50.698 50.698 50.698z"/><path d="m133.913 144.562c0 12.18 9.909 22.088 22.088 22.088s22.088-9.909 22.088-22.088-9.909-22.088-22.088-22.088-22.088 9.908-22.088 22.088zm29.177 0c0 3.909-3.18 7.088-7.088 7.088s-7.088-3.18-7.088-7.088 3.18-7.088 7.088-7.088 7.088 3.179 7.088 7.088z"/></g></g></svg>