<svg clip-rule="evenodd" fill-rule="evenodd" height="173.397mm" image-rendering="optimizeQuality" shape-rendering="geometricPrecision" text-rendering="geometricPrecision" viewBox="0 0 173.397 173.397" width="173.397mm" xmlns="http://www.w3.org/2000/svg"><g id="Layer_x0020_1" style="fill: #223f97;"><g id="_315917880"><path id="_316007528" d="m11.4807 105.574c1.345-1.749 2.9864-3.2555 4.8514-4.4365-.2773-2.5534-.4178-5.1752-.4178-7.8111 0-18.3022 6.9597-35.6607 19.5967-48.8795l.0767-.0808c-.6914-.4069-1.3425-.9069-1.935-1.4996-.7245-.7165-1.3222-1.5398-1.7788-2.4332-13.8074 14.2617-21.3753 32.9433-21.3753 52.9294 0 4.0773.3296 8.1674.9821 12.2113z"/><path id="_316007816" d="m24.661 132.289v-30.3463c-1.9233.2325-3.7898.8301-5.4796 1.7615l-.0101.0055-.02.011c-2.9978 1.6295-5.3717 4.255-6.7289 7.4253-.045.2217-.1307.4316-.2508.6198-.6295 1.6563-.9474 3.4586-.9474 5.3681 0 7.7978 5.8786 14.2486 13.4368 15.1551z"/><path id="_316007456" d="m33.9658 94.1746c-3.1141 0-5.6476 2.5337-5.6476 5.6479v.1813 34.2239.2179c0 3.1137 2.5335 5.6473 5.6476 5.6473l5.1174-.0005c.2244 0 .4212-.1964.4212-.4208v-45.112c0-.1564-.073-.2508-.1164-.293-.067-.0656-.1524-.0937-.2528-.0924-.017.0004-.0349.001-.0521.001z"/><path id="_318814008" d="m157.065 101.139c1.8612 1.189 3.5014 2.6948 4.8447 4.4404.6569-4.0573.9886-8.1614.9886-12.2531.0001-19.9852-7.5667-38.6649-21.3719-52.9264-.4556.904-1.0541 1.7387-1.7819 2.4665-.5941.5942-1.2473 1.0953-1.9407 1.5028 5.8394 6.0857 10.4931 13.0726 13.8521 20.8053 3.8667 8.8988 5.8268 18.3712 5.8268 28.1518.0001 2.6361-.1403 5.2589-.4177 7.8127z"/><path id="_318814536" d="m148.737 101.942v30.3112c7.5581-.9068 13.4363-7.3569 13.4363-15.155 0-1.9433-.3657-3.8026-1.0307-5.5135-.0527-.1021-.0958-.2094-.1288-.3202-1.3216-3.184-3.6912-5.8268-6.6757-7.4971-.0762-.0355-.1495-.0758-.2193-.1209-1.6383-.882-3.4555-1.4733-5.3818-1.7045z"/><g><path id="_318188192" d="m133.856 139.67c.0131.1936.1438.3872.3489.3872h5.3717c3.0341 0 5.5021-2.468 5.5021-5.5024v-.3627-.0001-.0001l.0001-34.1798-.0001-.0078.0001-.0078v-.3917c0-3.0337-2.4681-5.5022-5.5022-5.5022l-5.3713.0003c-.1893 0-.3493.1598-.3493.3486z"/><path id="_315917784" d="m93.6667 159.646h-8.2381c-3.5498 0-6.4383-2.8877-6.4383-6.4375 0-3.5504 2.8885-6.4377 6.4383-6.4377l8.2381-.0001c3.5501 0 6.4378 2.8883 6.4378 6.4381 0 3.5491-2.8878 6.4376-6.4378 6.4372z"/></g><path id="_318240616" d="m86.6988 25.6624c15.4578 0 30.5602 5.3395 42.5248 15.0341 1.3768 1.1177 3.1073 1.5241 4.7389 1.2436.1295-.0423.2629-.0699.3974-.0825 1.0269-.25 1.9987-.7778 2.7986-1.5776 1.1894-1.1895 1.8226-2.8409 1.7376-4.5309-.0853-1.6905-.8474-3.2043-2.1452-4.2641-14.0659-11.4352-31.8421-17.7338-50.0524-17.7338-18.2099-.0004-35.9863 6.2988-50.0549 17.7362-1.2902 1.0534-2.0777 2.62-2.1575 4.2955-.0799 1.6774.5563 3.3138 1.7455 4.4901.8045.8044 1.7811 1.3346 2.8121 1.585.1306.0127.2599.0394.3858.0801 1.634.2834 3.3658-.1224 4.7432-1.2407 12.1791-9.8367 26.8833-15.0344 42.5261-15.035z"/><path id="_319532744" d="m104.975 64.1755c.3468-1.3028 1.5161-2.2821 2.9319-2.3244 1.7294-.0517 3.1723 1.3045 3.2258 3.0339l.1657 5.3633c.1827.9809-.1053 2.0325-.864 2.7912-.0048.0048-.0095.0095-.0143.0143-.5664.5774-1.3353.9144-2.1453.9379l-6.2424.1811c-.0613.0018-.0281.0021-.1068.0012-1.6847-.0194-3.0654-1.3507-3.1148-3.0404-.0305-1.0457.4567-1.9874 1.229-2.5789-4.0477-2.232-8.6254-3.3953-13.3728-3.5259-.0011 0-.0023 0-.0034 0-7.2855.0025-14.1252 2.8484-19.2685 8.0073-5.1527 5.1683-7.996 12.0268-8.0003 19.3254-.0043 7.2917 2.8294 14.1397 7.9937 19.2883 10.6558 10.6231 27.9713 10.6654 38.614.006 4.0575-4.0638 6.7173-9.305 7.6334-14.9714.8663-5.3587.128-10.8677-2.1594-15.794-.7271-1.5661-.0447-3.4313 1.5208-4.1594 1.566-.7283 3.4327-.0457 4.1605 1.5203 2.8197 6.067 3.7292 12.8543 2.6567 19.4543-1.1299 6.9546-4.399 13.3874-9.3794 18.3757-6.3043 6.3141-14.7909 9.8171-23.7084 9.8174-8.9313.0004-17.4339-3.5054-23.7608-9.8131-13.1162-13.0766-13.0669-34.3715-.0066-47.4722 6.3319-6.3515 14.7542-9.6132 23.6668-9.848.0212-.0006.0403-.0006.0615-.0004 6.5917-.0002 12.8923 1.8913 18.2874 5.4105zm-28.312 37.0151h5.3901c1.7294 0 3.1321 1.403 3.1321 3.1323s-1.4029 3.1315-3.1321 3.1315h-11.8672c-1.2013 0-2.2973-.6869-2.8199-1.7686-.5227-1.0816-.3811-2.3662.3649-3.3078l10.5246-13.2837c.474-.5982.7022-1.3219.7022-2.0831 0-1.0946-.476-2.1086-1.3482-2.7751-1.5268-1.1666-3.7296-.8858-4.8974.6456-1.0486 1.3752-3.0142 1.6399-4.3893.5912-1.375-1.0485-1.6399-3.014-.5916-4.3891 3.2638-4.2811 9.4075-5.0905 13.6816-1.8244 2.4311 1.8575 3.8087 4.6953 3.8087 7.7518 0 2.1813-.6976 4.2586-2.0534 5.9697zm19.6788.3841h-9.5344c-1.168 0-2.239-.6498-2.7781-1.6861-.5379-1.0341-.4554-2.288.2136-3.2427l12.666-18.0739c.7808-1.114 2.2098-1.5982 3.507-1.1892 1.3033.4109 2.1897 1.6204 2.1897 2.9868v14.9413h.57c1.7294 0 3.1316 1.4033 3.1316 3.1325 0 1.729-1.4027 3.1319-3.1318 3.1316l-.5698-.0001v2.7476c0 1.7293-1.4026 3.1319-3.1319 3.1319-1.7292 0-3.1319-1.4021-3.1319-3.1315zm-3.5149-6.2638h3.5149v-5.0152zm41.6689 61.0294h-31.24c.3227-.9862.4979-2.0386.4979-3.1315 0-1.0932-.1753-2.1459-.4981-3.1322l31.2402-.0002c1.0737 0 1.9492-.8747 1.9492-1.9486v-4.422h3.1319c1.0996 0 2.1544-.1948 3.1318-.5516v4.9731c0 4.5295-3.6834 8.213-8.2129 8.213z"/></g></g></svg>