<svg id="Layer_1" height="512" viewBox="0 0 512 512" width="512" xmlns="http://www.w3.org/2000/svg" data-name="Layer 1" style="fill:#fff;"><path d="m186.06 274.572a6.383 6.383 0 0 1 8.349-3.425c2.01.841 4.191 1.65 6.482 2.405a6.382 6.382 0 1 1 -4 12.122c-2.6-.858-5.1-1.784-7.41-2.752a6.381 6.381 0 0 1 -3.421-8.35zm3.425 58.93c2.314.968 4.807 1.894 7.41 2.752a6.382 6.382 0 0 0 4-12.122c-2.291-.755-4.472-1.564-6.482-2.405a6.382 6.382 0 0 0 -4.924 11.775zm11.406 41.21c-2.288-.754-4.47-1.563-6.484-2.4a6.382 6.382 0 0 0 -4.92 11.777c2.316.968 4.809 1.893 7.408 2.75a6.382 6.382 0 0 0 4-12.122zm55.109 45.707c-23.219 0-45.141-3.266-61.727-9.194-19.506-6.973-26.429-15.6-28.315-22.743a6.344 6.344 0 0 1 -.6-2.681v-117.789h-8.869a53.007 53.007 0 0 1 -12.75-104.459 78.906 78.906 0 0 1 146.734-33.168 61.754 61.754 0 0 1 60.3 31.605h4.731a53.011 53.011 0 1 1 0 106.022h-8.868v115.9c0 7.743-5.016 18.766-28.912 27.308-16.583 5.933-38.505 9.199-61.724 9.199zm77.872-188.249c-.08-9.677-30.4-23.7-77.872-23.7s-77.792 14.023-77.872 23.7c.08 9.678 30.4 23.7 77.872 23.7s77.792-14.022 77.872-23.7zm-168.51 23.079v-23.073-.044c.033-7.724 5.1-18.685 28.957-27.213 16.617-5.94 38.522-9.212 61.68-9.212s45.063 3.272 61.68 9.212c23.856 8.528 28.924 19.489 28.957 27.213v.044 23.073h8.868a40.248 40.248 0 1 0 0-80.5h-8.639a6.381 6.381 0 0 1 -5.781-3.68 49.02 49.02 0 0 0 -52.979-27.483 6.377 6.377 0 0 1 -6.8-3.383 66.139 66.139 0 0 0 -125.065 28.759 6.381 6.381 0 0 1 -5.471 6.2 40.246 40.246 0 0 0 5.723 80.084zm12.762 27.507c0 9.679 30.338 23.74 77.876 23.74s77.876-14.061 77.876-23.74v-31.016a74.168 74.168 0 0 1 -16.149 7.777c-16.586 5.929-38.508 9.194-61.727 9.194s-45.141-3.265-61.727-9.194a74.191 74.191 0 0 1 -16.149-7.777zm0 50.58c0 9.68 30.338 23.74 77.876 23.74s77.876-14.06 77.876-23.74v-31.049a74.168 74.168 0 0 1 -16.149 7.777c-16.586 5.929-38.508 9.195-61.727 9.195s-45.141-3.266-61.727-9.195a74.191 74.191 0 0 1 -16.149-7.777zm77.876 74.32c47.538 0 77.876-14.059 77.876-23.739v-31.049a74.216 74.216 0 0 1 -16.149 7.776c-16.586 5.929-38.508 9.195-61.727 9.195s-45.141-3.266-61.727-9.195a74.239 74.239 0 0 1 -16.149-7.776v31.049c0 9.683 30.338 23.739 77.876 23.739zm215.647-151.788a215.672 215.672 0 0 1 -188.162 213.9v19.612a6.381 6.381 0 0 1 -9.572 5.527l-42.207-24.368a6.382 6.382 0 0 1 0-11.054l42.207-24.369a6.382 6.382 0 0 1 9.572 5.527v16.257a202.932 202.932 0 0 0 50.315-388.465 6.381 6.381 0 1 1 4.9-11.785 215.712 215.712 0 0 1 132.947 199.218zm-200.925 222.46v-26.628l-23.063 13.316zm-89.08-26.685a6.376 6.376 0 0 1 -8.341 3.444 215.692 215.692 0 0 1 55.214-413.122v-19.345a6.382 6.382 0 0 1 9.572-5.527l42.207 24.369a6.381 6.381 0 0 1 0 11.053l-42.207 24.369a6.382 6.382 0 0 1 -9.572-5.527v-16.517a202.932 202.932 0 0 0 -50.315 388.46 6.382 6.382 0 0 1 3.442 8.343zm59.636-417.971v26.628l23.063-13.316z"/></svg>