<svg id="Layer_1" height="512" viewBox="0 0 64 64" width="512" xmlns="http://www.w3.org/2000/svg" data-name="Layer 1" style="fill:#fff;"><path d="m26.53 13.34a1 1 0 0 1 -1.19 1.19 1 1 0 0 0 -1 .43 9.14 9.14 0 0 0 -1.34 3.18 1 1 0 0 0 .4 1 1 1 0 0 1 0 1.68 1 1 0 0 0 -.4 1 9.14 9.14 0 0 0 1.34 3.18 1 1 0 0 0 1 .43 1 1 0 0 1 1.19 1.19 1 1 0 0 0 .43 1 9.14 9.14 0 0 0 3.18 1.38 1 1 0 0 0 1-.4 1.06 1.06 0 0 1 1.68 0 1 1 0 0 0 .81.42h.21a9.14 9.14 0 0 0 3.16-1.36 1 1 0 0 0 .43-1 1 1 0 0 1 1.19-1.19 1 1 0 0 0 1-.43 9.14 9.14 0 0 0 1.38-3.18 1 1 0 0 0 -.4-1 1 1 0 0 1 0-1.68 1 1 0 0 0 .4-1 9.14 9.14 0 0 0 -1.34-3.18 1 1 0 0 0 -1-.43 1 1 0 0 1 -1.19-1.19 1 1 0 0 0 -.43-1 9.14 9.14 0 0 0 -3.18-1.38 1 1 0 0 0 -1 .4 1.06 1.06 0 0 1 -1.68 0 1 1 0 0 0 -1-.4 9.14 9.14 0 0 0 -3.18 1.34 1 1 0 0 0 -.47 1zm2 .39a7.21 7.21 0 0 1 1.47-.62 3.11 3.11 0 0 0 4 0 7.21 7.21 0 0 1 1.49.62 3 3 0 0 0 2.8 2.8 7.21 7.21 0 0 1 .6 1.47 3 3 0 0 0 0 4 7.21 7.21 0 0 1 -.62 1.49 3 3 0 0 0 -2.8 2.8 7.21 7.21 0 0 1 -1.49.62 3 3 0 0 0 -4 0 7.21 7.21 0 0 1 -1.49-.62 3 3 0 0 0 -2.8-2.8 7.21 7.21 0 0 1 -.58-1.49 3 3 0 0 0 0-4 7.21 7.21 0 0 1 .62-1.49 3 3 0 0 0 2.8-2.8z"/><path d="m32 24a4 4 0 1 0 -4-4 4 4 0 0 0 4 4zm0-6a2 2 0 1 1 -2 2 2 2 0 0 1 2-2z"/><path d="m17 35h14v4h-5a4 4 0 0 0 -3.86 3h-7.14a1 1 0 0 0 -1 1v6h2v-5h6.14a4 4 0 0 0 3.86 3h12a4 4 0 0 0 3.86-3h6.14v5h2v-6a1 1 0 0 0 -1-1h-7.14a4 4 0 0 0 -3.86-3h-5v-4h14a11 11 0 0 0 2.64-21.67 10 10 0 0 0 -9.64-7.33 9.85 9.85 0 0 0 -2.52.33 13 13 0 0 0 -23.48 7.08 11 11 0 0 0 3 21.59zm21 6a2 2 0 0 1 0 4h-12a2 2 0 0 1 0-4zm-22.79-25.82a1 1 0 0 0 .8-1s-.01-.18-.01-.18a11 11 0 0 1 20.24-6 1 1 0 0 0 1.16.4 8 8 0 0 1 10.43 5.93 1 1 0 0 0 .8.79 9 9 0 0 1 -1.63 17.88h-30a9 9 0 0 1 -1.79-17.82z"/><path d="m27 7v-2a9 9 0 0 0 -9 9h2a7 7 0 0 1 7-7z"/><path d="m2 63h27a1 1 0 0 0 1-1v-10a1 1 0 0 0 -1-1h-27a1 1 0 0 0 -1 1v10a1 1 0 0 0 1 1zm1-10h25v8h-25z"/><path d="m5 56h2v2h-2z"/><path d="m9 56h2v2h-2z"/><path d="m13 56h12v2h-12z"/><path d="m62 51h-27a1 1 0 0 0 -1 1v10a1 1 0 0 0 1 1h27a1 1 0 0 0 1-1v-10a1 1 0 0 0 -1-1zm-1 10h-25v-8h25z"/><path d="m57 56h2v2h-2z"/><path d="m53 56h2v2h-2z"/><path d="m39 56h12v2h-12z"/><path d="m27 42h2v2h-2z"/><path d="m31 42h2v2h-2z"/><path d="m35 42h2v2h-2z"/></svg>