<?xml version="1.0" encoding="UTF-8"?>
<svg xmlns="http://www.w3.org/2000/svg" xmlns:xlink="http://www.w3.org/1999/xlink" version="1.1" id="Capa_1" x="0px" y="0px" viewBox="0 0 512 512" style="enable-background:new 0 0 512 512;" xml:space="preserve" width="512" height="512">
<g>
	<path style="fill:none;stroke:#76b543;stroke-width:15;stroke-linecap:round;stroke-linejoin:round;stroke-miterlimit:10;" d="&#10;&#9;&#9;M372.57,118.657l80.263,45.659c3.75,2.133,6.066,6.116,6.066,10.43v150.211"/>
	
		<line style="fill:none;stroke:#76b543;stroke-width:15;stroke-linecap:round;stroke-linejoin:round;stroke-miterlimit:10;" x1="372.57" y1="353.577" x2="372.57" y2="185.657"/>
	<path style="fill:none;stroke:#76b543;stroke-width:15;stroke-linecap:round;stroke-linejoin:round;stroke-miterlimit:10;" d="&#10;&#9;&#9;M262.51,287.227V78.657c0-5.52,4.48-10,10-10h90.06c5.52,0,10,4.48,10,10v72"/>
	<path style="fill:none;stroke:#76b543;stroke-width:15;stroke-linecap:round;stroke-linejoin:round;stroke-miterlimit:10;" d="&#10;&#9;&#9;M187.06,274.407v-131.21c0-4.41,3.58-8,8-8h67.45v152.03"/>
	<path style="fill:none;stroke:#223f97;stroke-width:15;stroke-linecap:round;stroke-linejoin:round;stroke-miterlimit:10;" d="&#10;&#9;&#9;M365.07,356.067c0.68,5.78-0.32,11.82-3.25,17.35l-0.11,0.2c-7.67,14.51-25.66,20.04-40.17,12.36l-80.32-42.51"/>
	<path style="fill:none;stroke:#223f97;stroke-width:15;stroke-linecap:round;stroke-linejoin:round;stroke-miterlimit:10;" d="&#10;&#9;&#9;M134.32,274.407h93.37c6.95,0,13.8,1.7,19.95,4.95l101.81,53.89c8.98,4.75,14.52,13.45,15.62,22.82l100.35-33.27&#10;&#9;&#9;c15.9-5.27,33.02,3.64,37.82,19.69c0.85,2.84,1.26,5.71,1.26,8.54c0,12.43-7.87,23.98-20.23,28.14l-181.9,61.31&#10;&#9;&#9;c-14.18,4.77-29.7,3.55-42.95-3.4l-82.81-43.39c-5.24-2.75-11.06-4.18-16.97-4.18h-25.32"/>
	<path style="fill:none;stroke:#223f97;stroke-width:15;stroke-linecap:round;stroke-linejoin:round;stroke-miterlimit:10;" d="&#10;&#9;&#9;M7.5,317.657v83.91c0,6.63,5.37,12,12,12h102.82c6.63,0,12-5.37,12-12v-139.22c0-6.62-5.37-12-12-12H19.5c-6.63,0-12,5.38-12,12&#10;&#9;&#9;v20.31"/>
	
		<line style="fill:none;stroke:#223f97;stroke-width:15;stroke-linecap:round;stroke-linejoin:round;stroke-miterlimit:10;" x1="297.512" y1="275.655" x2="337.567" y2="275.655"/>
	
		<line style="fill:none;stroke:#223f97;stroke-width:15;stroke-linecap:round;stroke-linejoin:round;stroke-miterlimit:10;" x1="297.512" y1="240.655" x2="337.567" y2="240.655"/>
	
		<line style="fill:none;stroke:#223f97;stroke-width:15;stroke-linecap:round;stroke-linejoin:round;stroke-miterlimit:10;" x1="297.512" y1="205.655" x2="337.567" y2="205.655"/>
	
		<line style="fill:none;stroke:#223f97;stroke-width:15;stroke-linecap:round;stroke-linejoin:round;stroke-miterlimit:10;" x1="297.512" y1="170.655" x2="337.567" y2="170.655"/>
	
		<line style="fill:none;stroke:#223f97;stroke-width:15;stroke-linecap:round;stroke-linejoin:round;stroke-miterlimit:10;" x1="297.512" y1="135.655" x2="337.567" y2="135.655"/>
	
		<line style="fill:none;stroke:#223f97;stroke-width:15;stroke-linecap:round;stroke-linejoin:round;stroke-miterlimit:10;" x1="297.512" y1="100.655" x2="337.567" y2="100.655"/>
	
		<line style="fill:none;stroke:#223f97;stroke-width:15;stroke-linecap:round;stroke-linejoin:round;stroke-miterlimit:10;" x1="407.567" y1="294.827" x2="458.9" y2="294.827"/>
	
		<line style="fill:none;stroke:#223f97;stroke-width:15;stroke-linecap:round;stroke-linejoin:round;stroke-miterlimit:10;" x1="407.567" y1="259.827" x2="458.9" y2="259.827"/>
	
		<line style="fill:none;stroke:#223f97;stroke-width:15;stroke-linecap:round;stroke-linejoin:round;stroke-miterlimit:10;" x1="407.567" y1="224.827" x2="458.9" y2="224.827"/>
	
		<line style="fill:none;stroke:#223f97;stroke-width:15;stroke-linecap:round;stroke-linejoin:round;stroke-miterlimit:10;" x1="407.567" y1="189.827" x2="458.9" y2="189.827"/>
	
		<line style="fill:none;stroke:#223f97;stroke-width:15;stroke-linecap:round;stroke-linejoin:round;stroke-miterlimit:10;" x1="187.058" y1="240.201" x2="227.512" y2="240.201"/>
	
		<line style="fill:none;stroke:#223f97;stroke-width:15;stroke-linecap:round;stroke-linejoin:round;stroke-miterlimit:10;" x1="187.058" y1="205.201" x2="227.512" y2="205.201"/>
	
		<line style="fill:none;stroke:#223f97;stroke-width:15;stroke-linecap:round;stroke-linejoin:round;stroke-miterlimit:10;" x1="187.058" y1="170.201" x2="227.512" y2="170.201"/>
</g>















</svg>
