<svg id="Layer_1" enable-background="new 0 0 66 66" height="512" viewBox="0 0 66 66" width="512" xmlns="http://www.w3.org/2000/svg"><g style="fill: #223f97;"><path d="m55 45.13h-.81c-.48 0-.88.39-.88.88s.39.88.88.88h.81c5.45 0 9.88-4.43 9.88-9.88 0-3.99-2.4-7.56-6.03-9.09.02-.31.03-.62.03-.91 0-7.65-6.22-13.88-13.88-13.88-4.66 0-8.92 2.29-11.51 6.15-.5-.1-1-.15-1.49-.15-4.34 0-7.88 3.53-7.88 7.88v.16c-5.04.44-9 4.69-9 9.84 0 5.45 4.43 9.88 9.88 9.88h14.13v3.25h-15.13c-.48 0-.88.39-.88.88v4.13h-3.12c-.48 0-.88.39-.88.88v8c0 .48.39.88.88.88h8c.48 0 .88-.39.88-.88v-8c0-.48-.39-.88-.88-.88h-3.13v-3.25h14.25v3.25h-3.12c-.48 0-.88.39-.88.88v8c0 .48.39.88.88.88h8c.48 0 .88-.39.88-.88v-8c0-.48-.39-.88-.88-.88h-3.13v-3.25h14.25v3.25h-3.12c-.48 0-.88.39-.88.88v8c0 .48.39.88.88.88h8c.48 0 .88-.39.88-.88v-8c0-.48-.39-.88-.88-.88h-3.13v-4.15c0-.48-.39-.88-.88-.88h-15.11v-3.25h9.84c.48 0 .88-.39.88-.88s-.39-.88-.88-.88h-25.72c-4.48 0-8.13-3.65-8.13-8.13s3.64-8.13 8.1-8.13c.28.02.58-.09.76-.3.17-.19.24-.45.21-.7-.05-.34-.07-.62-.07-.88 0-3.38 2.75-6.13 6.13-6.13.55 0 1.11.08 1.66.23.38.11.78-.05.98-.39 2.22-3.66 6.1-5.85 10.36-5.85 6.69 0 12.13 5.44 12.13 12.13 0 .43-.03.89-.08 1.39-.05.41.2.79.59.93 3.29 1.12 5.5 4.21 5.5 7.68-.01 4.52-3.66 8.17-8.14 8.17zm-27.87 18h-6.25v-6.25h6.25zm16 0h-6.25v-6.25h6.25zm16 0h-6.25v-6.25h6.25z"/><path d="m50.21 34.85c.39-.1.66-.45.66-.85v-4c0-.4-.27-.75-.66-.85l-2-.5c-.01-.03-.02-.06-.04-.09l1.06-1.77c.21-.34.15-.79-.13-1.07l-2.83-2.83c-.29-.28-.73-.34-1.07-.13l-1.77 1.06c-.03-.01-.06-.03-.09-.04l-.5-2c-.1-.39-.45-.66-.85-.66h-4c-.4 0-.75.27-.85.66l-.5 2c-.03.01-.06.02-.09.04l-1.77-1.06c-.34-.2-.78-.15-1.07.13l-2.83 2.83c-.28.28-.34.72-.13 1.07l1.06 1.77c-.01.03-.03.06-.04.09l-2 .5c-.39.1-.66.45-.66.85v4c0 .4.27.75.66.85l2 .5c.01.03.03.06.04.09l-1.06 1.77c-.21.34-.15.79.13 1.07l2.83 2.83c.29.28.73.34 1.07.13l1.77-1.06c.03.01.06.02.09.04l.5 2c.1.39.45.66.85.66h4c.4 0 .75-.27.85-.66l.5-2c.03-.01.06-.02.09-.04l1.77 1.06c.34.21.78.15 1.07-.13l2.83-2.83c.28-.28.34-.72.13-1.07l-1.06-1.77c.01-.03.03-.06.04-.09zm-3.77 1.09.95 1.58-1.86 1.86-1.58-.95c-.25-.15-.57-.17-.83-.04-.25.12-.52.23-.79.33-.28.1-.49.33-.56.61l-.45 1.78h-2.63l-.45-1.78c-.07-.29-.28-.52-.56-.62-.27-.09-.53-.2-.79-.33-.27-.13-.58-.12-.83.04l-1.58.95-1.86-1.86.95-1.58c.15-.25.17-.57.04-.83-.12-.25-.23-.51-.33-.78-.1-.28-.33-.49-.62-.56l-1.78-.44v-2.63l1.78-.45c.29-.07.52-.28.62-.56.09-.27.2-.53.33-.78.13-.27.12-.58-.04-.83l-.95-1.58 1.86-1.86 1.58.95c.25.15.57.17.83.04.25-.12.52-.23.79-.33.28-.1.49-.33.56-.62l.45-1.78h2.63l.45 1.78c.07.29.28.52.56.61.27.09.53.2.79.33.27.13.58.11.83-.04l1.58-.95 1.86 1.86-.95 1.58c-.15.25-.17.57-.04.83.12.25.23.52.33.79.1.28.33.49.62.56l1.78.45v2.63l-1.78.44c-.29.07-.52.28-.62.56-.09.27-.2.53-.33.79-.13.27-.11.58.04.83z"/><path d="m40 27.13c-2.69 0-4.88 2.19-4.88 4.88s2.19 4.88 4.88 4.88 4.88-2.19 4.88-4.88-2.19-4.88-4.88-4.88zm0 8c-1.72 0-3.13-1.4-3.13-3.13s1.4-3.13 3.13-3.13 3.13 1.4 3.13 3.13-1.41 3.13-3.13 3.13z"/><path d="m15.1 31.23c-.56-1.23-1.01-2.66-1.37-4.23 1.64-.72 3.42-1.13 5.27-1.13.99 0 1.98.11 2.95.33.46.1.94-.19 1.05-.66s-.19-.94-.66-1.05c-.81-.18-1.63-.28-2.46-.33v-4.3h6.01c.5.07.99-.35.99-.88 0-2.51-.22-4.88-.61-7.02 1.73-.96 3.28-2.28 4.52-3.91 1.68 1.81 2.97 4 3.68 6.47.11.38.46.63.84.63.08 0 .16-.01.24-.03.46-.13.73-.62.6-1.08-.88-3.04-2.54-5.71-4.72-7.82-.06-.1-.15-.19-.25-.26-.01-.01-.02-.01-.04-.01-3.23-3-7.54-4.81-12.14-4.81-6.45 0-12.43 3.5-15.59 9.13-.24.42-.09.95.33 1.19s.96.09 1.19-.33c.63-1.13 1.4-2.15 2.26-3.08 1.25 1.62 2.81 2.95 4.55 3.93-.35 1.9-.57 3.96-.61 6.15h-8.22c.09-1.65.41-3.27.99-4.82.17-.45-.06-.96-.51-1.13s-.96.06-1.13.51c-.75 2.02-1.13 4.14-1.13 6.31 0 7.47 4.72 14.22 11.75 16.78.1.04.2.05.3.05.36 0 .69-.22.82-.58.17-.45-.07-.96-.52-1.12-1.86-.68-3.54-1.69-4.99-2.94 1.01-1.36 2.24-2.48 3.64-3.35.37 1.51.83 2.9 1.38 4.1.15.32.46.51.8.51.12 0 .24-.02.36-.08.43-.19.63-.7.43-1.14zm3.03-7.08c-1.65.1-3.25.47-4.74 1.08-.28-1.69-.46-3.5-.5-5.35h5.24zm6.99-6.02h-5.24v-4.28c1.65-.1 3.25-.47 4.74-1.08.27 1.64.45 3.43.5 5.36zm-.85-7.13c-1.38.61-2.86.97-4.39 1.07v-8.98c1.71.75 3.4 3.63 4.39 7.91zm-6.14-7.91v8.99c-1.54-.1-3.02-.47-4.39-1.07.97-4.29 2.67-7.17 4.39-7.92zm7.74 7.06c-.71-2.86-1.75-5.22-3.01-6.8 2.47.62 4.75 1.82 6.65 3.46-1.01 1.36-2.24 2.48-3.64 3.34zm-17.39-3.36c1.92-1.65 4.2-2.83 6.67-3.44-1.27 1.58-2.31 3.93-3.02 6.8-1.4-.86-2.64-1.99-3.65-3.36zm9.65 7.06v4.28h-5.24c.04-1.93.22-3.72.5-5.36 1.49.61 3.08.98 4.74 1.08zm-10.93 16.11c-2.52-2.72-4.08-6.27-4.29-10.08h8.22c.04 2.13.26 4.21.61 6.14-1.74.98-3.29 2.31-4.54 3.94z"/></g></svg>