<svg height="512" viewBox="0 0 512 512" width="512" xmlns="http://www.w3.org/2000/svg"><g id="Outline" style="fill: #223f97;"><g id="website-web-management"><path d="m273.5 224.645-21.544 2.855a97.279 97.279 0 0 0 -15.456-15.457l2.852-21.544-39.189-16.241-13.215 17.242a96.353 96.353 0 0 0 -21.9 0l-13.218-17.24-39.185 16.24 2.852 21.544a97.327 97.327 0 0 0 -15.454 15.456l-21.543-2.854-16.242 39.188 17.242 13.218a96.2 96.2 0 0 0 0 21.9l-17.242 13.214 16.242 39.189 21.546-2.853a97.321 97.321 0 0 0 15.454 15.455l-2.855 21.543 39.189 16.241 13.218-17.24a96.353 96.353 0 0 0 21.9 0l13.218 17.24 39.185-16.241-2.855-21.543a97.327 97.327 0 0 0 15.457-15.457l21.544 2.852 16.241-39.188-17.242-13.216a96.2 96.2 0 0 0 0-21.9l17.239-13.218zm-17.455 50.178a80.852 80.852 0 0 1 0 26.354l-.772 4.725 14.983 11.487-6.835 16.492-18.729-2.48-2.8 3.89a81.412 81.412 0 0 1 -18.601 18.609l-3.89 2.8 2.48 18.729-16.492 6.835-11.489-14.989-4.724.771a81.092 81.092 0 0 1 -26.354 0l-4.724-.771-11.488 14.983-16.492-6.835 2.48-18.729-3.89-2.8a81.408 81.408 0 0 1 -18.608-18.603l-2.8-3.89-18.731 2.48-6.834-16.492 14.989-11.489-.771-4.725a80.852 80.852 0 0 1 0-26.354l.772-4.725-14.983-11.485 6.835-16.492 18.729 2.48 2.8-3.89a81.412 81.412 0 0 1 18.603-18.609l3.89-2.8-2.48-18.729 16.492-6.835 11.489 14.989 4.724-.771a81.092 81.092 0 0 1 26.354 0l4.724.771 11.488-14.983 16.492 6.835-2.48 18.729 3.89 2.8a81.428 81.428 0 0 1 18.608 18.603l2.8 3.89 18.731-2.48 6.834 16.492-14.989 11.489z"/><path d="m176 240a48 48 0 1 0 48 48 48.054 48.054 0 0 0 -48-48zm0 80a32 32 0 1 1 32-32 32.036 32.036 0 0 1 -32 32z"/><path d="m456 80h-400a40.045 40.045 0 0 0 -40 40v272a40.045 40.045 0 0 0 40 40h400a40.045 40.045 0 0 0 40-40v-272a40.045 40.045 0 0 0 -40-40zm-400 16h400a24.028 24.028 0 0 1 24 24v24h-448v-24a24.028 24.028 0 0 1 24-24zm400 320h-400a24.028 24.028 0 0 1 -24-24v-232h448v232a24.028 24.028 0 0 1 -24 24z"/><path d="m64 112h16v16h-16z"/><path d="m96 112h16v16h-16z"/><path d="m128 112h16v16h-16z"/><path d="m256 112h192v16h-192z"/><path d="m416 184a8 8 0 0 0 -8-8h-32a8 8 0 0 0 -8 8v16h-64v16h64v16a8 8 0 0 0 8 8h32a8 8 0 0 0 8-8v-16h32v-16h-32zm-16 40h-16v-32h16z"/><path d="m368 264a8 8 0 0 0 -8-8h-32a8 8 0 0 0 -8 8v16h-16v16h16v16a8 8 0 0 0 8 8h32a8 8 0 0 0 8-8v-16h80v-16h-80zm-16 40h-16v-32h16z"/><path d="m400 344a8 8 0 0 0 -8-8h-32a8 8 0 0 0 -8 8v16h-48v16h48v16a8 8 0 0 0 8 8h32a8 8 0 0 0 8-8v-16h48v-16h-48zm-16 40h-16v-32h16z"/></g></g></svg>