<?xml version="1.0" encoding="iso-8859-1"?>
<!-- Generator: Adobe Illustrator 19.0.0, SVG Export Plug-In . SVG Version: 6.00 Build 0)  -->
<svg version="1.1" id="Capa_1" xmlns="http://www.w3.org/2000/svg" xmlns:xlink="http://www.w3.org/1999/xlink" x="0px" y="0px"
	 viewBox="0 0 512.003 512.003" style="enable-background:new 0 0 512.003 512.003;" xml:space="preserve">
<g>
	<g style="fill: #223f97;">
		<rect x="42.668" y="288" width="426.67" height="21.333"/>
	</g>
</g>
<g>
	<g style="fill: #223f97;">
		<path d="M341.249,457.344l-10.667-85.333c-0.667-5.337-5.203-9.342-10.581-9.344h-128c-5.378,0.002-9.914,4.007-10.581,9.344
			l-10.667,85.333c-0.055,0.438-0.082,0.879-0.082,1.32c-0.002,5.891,4.773,10.668,10.664,10.67h149.333
			c0.441,0,0.882-0.028,1.32-0.082C337.833,468.521,341.98,463.19,341.249,457.344z M193.42,448l8-64h109.163l8,64H193.42z"/>
	</g>
</g>
<g>
	<g style="fill: #223f97;">
		<path d="M362.668,448H149.334c-5.891,0-10.667,4.776-10.667,10.667v32c0,11.782,9.551,21.333,21.333,21.333h192
			c11.782,0,21.333-9.551,21.333-21.333v-32C373.334,452.776,368.559,448,362.668,448z M352.001,490.667h-192v-21.333h192V490.667z"
			/>
	</g>
</g>
<g>
	<g style="fill: #223f97;">
		<path d="M490.668,234.667V352c0,5.891-4.776,10.667-10.667,10.667h-448c-5.891,0-10.667-4.776-10.667-10.667V32
			c0-5.891,4.776-10.667,10.667-10.667h245.333V0H32.001c-17.673,0-32,14.327-32,32v320c0,17.673,14.327,32,32,32h448
			c17.673,0,32-14.327,32-32V234.667H490.668z"/>
	</g>
</g>
<g>
	<g style="fill: #223f97;">
		<rect x="117.331" y="490.67" width="277.33" height="21.333"/>
	</g>
</g>
<g>
	<g style="fill: #223f97;">
		<path d="M64.001,53.333c-5.891,0-10.667,4.776-10.667,10.667v202.667h21.333v-192h170.667V53.333H64.001z"/>
	</g>
</g>
<g>
	<g style="fill: #223f97;">
		<path d="M501.334,96h-26.901c-1.129-3.169-2.421-6.277-3.872-9.312l19.04-19.029c4.164-4.165,4.164-10.917,0-15.083L459.425,22.4
			c-4.165-4.164-10.917-4.164-15.083,0l-19.029,19.029c-3.036-1.445-6.144-2.733-9.312-3.861V10.667
			C416.001,4.776,411.225,0,405.334,0h-42.667c-5.89,0-10.666,4.776-10.666,10.667v26.901c-3.167,1.124-6.276,2.41-9.312,3.851
			L323.66,22.4c-4.165-4.164-10.917-4.164-15.083,0l-30.176,30.176c-4.164,4.165-4.164,10.917,0,15.083l19.04,19.029
			c-1.451,3.035-2.743,6.143-3.872,9.312h-26.901c-5.891,0-10.667,4.776-10.667,10.667v42.667c0,5.891,4.776,10.667,10.667,10.667
			h26.901c1.125,3.169,2.414,6.277,3.861,9.312l-19.029,19.028c-4.164,4.165-4.164,10.917,0,15.083l30.176,30.176
			c4.165,4.164,10.917,4.164,15.083,0l19.029-19.029c3.036,1.445,6.144,2.733,9.312,3.861v26.901
			c0,5.891,4.776,10.667,10.667,10.667h42.667c5.891,0,10.667-4.776,10.667-10.667v-26.891c3.168-1.128,6.276-2.417,9.312-3.861
			l19.029,19.019c4.165,4.164,10.917,4.164,15.083,0l30.176-30.176c4.164-4.165,4.164-10.917,0-15.083l-19.04-19.029
			c1.451-3.035,2.743-6.143,3.872-9.312h26.901c5.891,0,10.667-4.776,10.667-10.667v-42.667C512.001,100.776,507.225,96,501.334,96z
			 M490.668,138.656h-24.117c-4.859,0.006-9.1,3.295-10.315,8c-1.748,6.74-4.43,13.203-7.968,19.2
			c-2.474,4.194-1.794,9.531,1.653,12.971l17.067,17.067l-15.083,15.083l-17.067-17.067c-3.442-3.444-8.779-4.12-12.971-1.643
			c-5.998,3.531-12.461,6.206-19.2,7.947c-4.709,1.216-7.999,5.462-8,10.325v24.128h-21.333l0.011-24.096
			c-0.001-4.863-3.291-9.11-8-10.325c-6.739-1.741-13.202-4.416-19.2-7.947c-4.192-2.477-9.529-1.801-12.971,1.643l-17.067,17.067
			l-15.083-15.083l17.067-17.067c3.447-3.439,4.128-8.777,1.653-12.971c-3.538-5.997-6.22-12.46-7.968-19.2
			c-1.215-4.705-5.456-7.994-10.315-8h-24.128v-21.333h24.139c4.859-0.006,9.1-3.295,10.315-8c1.748-6.74,4.43-13.203,7.968-19.2
			c2.474-4.194,1.794-9.531-1.653-12.971l-17.067-17.067l15.061-15.093l17.067,17.067c3.442,3.444,8.779,4.12,12.971,1.643
			c5.998-3.531,12.461-6.206,19.2-7.947c4.709-1.216,7.999-5.462,8-10.325V21.333h21.333v24.128
			c-0.006,4.861,3.275,9.111,7.979,10.336c6.739,1.741,13.202,4.416,19.2,7.947c4.192,2.477,9.529,1.801,12.971-1.643l17.067-17.067
			l15.093,15.061L449.91,77.162c-3.447,3.439-4.128,8.777-1.653,12.971c3.538,5.997,6.22,12.46,7.968,19.2
			c1.215,4.705,5.456,7.994,10.315,8h24.128V138.656z"/>
	</g>
</g>
<g>
	<g style="fill: #223f97;">
		<path d="M384.001,85.333c-23.564,0-42.667,19.103-42.667,42.667c0,23.564,19.102,42.667,42.667,42.667
			c23.564,0,42.667-19.103,42.667-42.667C426.668,104.436,407.565,85.333,384.001,85.333z M384.001,149.333
			c-11.782,0-21.333-9.551-21.333-21.333s9.551-21.333,21.333-21.333c11.782,0,21.333,9.551,21.333,21.333
			S395.783,149.333,384.001,149.333z"/>
	</g>
</g>
<g>
	<g style="fill: #223f97;">
		<path d="M213.334,96H106.668c-5.891,0-10.667,4.776-10.667,10.667v42.667c0,5.891,4.776,10.667,10.667,10.667h106.667
			c5.891,0,10.667-4.776,10.667-10.667v-42.667C224.001,100.776,219.225,96,213.334,96z M202.668,138.667h-85.333v-21.333h85.333
			V138.667z"/>
	</g>
</g>
<g>
	<g style="fill: #223f97;">
		<rect x="96.001" y="181.33" width="21.333" height="21.333"/>
	</g>
</g>
<g>
	<g style="fill: #223f97;">
		<rect x="138.671" y="181.33" width="21.333" height="21.333"/>
	</g>
</g>
<g>
	<g style="fill: #223f97;">
		<rect x="96.001" y="224" width="128" height="21.333"/>
	</g>
</g>
<g>
</g>
<g>
</g>
<g>
</g>
<g>
</g>
<g>
</g>
<g>
</g>
<g>
</g>
<g>
</g>
<g>
</g>
<g>
</g>
<g>
</g>
<g>
</g>
<g>
</g>
<g>
</g>
<g>
</g>
</svg>
