<svg id="Layer_1" enable-background="new 0 0 68 68" height="512" viewBox="0 0 68 68" width="512" xmlns="http://www.w3.org/2000/svg"><g id="Premium_Service"><g><path d="m59.7 46.4-15.9 5-.1-.6c-.4-4-4.1-7-8.1-6.5l-6.5.7-1.3-1c-2.9-2.1-6.5-3.1-10.1-2.7l-1.2.1c-.2-1.1-1.1-2-2.3-2h-9.9c-1.3 0-2.3 1-2.3 2.3v21.3c0 1.3 1 2.3 2.3 2.3h9.8c1.1 0 2.1-.8 2.2-1.9l6.6 1.3c9 1.8 18.5.4 26.7-4l13.1-7c1.3-.7 2.1-2.1 2.1-3.6 0-.4-.1-.9-.2-1.3-.5-1.9-2.8-3.1-4.9-2.4zm2.2 5.6-13.1 7c-7.8 4.2-16.8 5.5-25.4 3.8l-7-1.4v-17.9l1.4-.1c3.1-.3 6.2.5 8.7 2.3l1.7 1.2c.2.2.5.2.7.2l6.9-.9c2.9-.3 5.6 1.8 5.9 4.7l.1.7c0 .1-.1.3-.1.3l-7.3 1.7c-.5.1-.9.7-.8 1.2.1.6.7.9 1.2.8 11.7-2.8 3.2-.5 25.5-7.4 1-.3 2.2.3 2.5 1.3s-.1 2-.9 2.5zm-52.2 7.9c0-1.2 1.2-2 2.4-1.5.6.3 1 .8 1 1.5 0 .9-.8 1.7-1.7 1.7-1-.1-1.7-.8-1.7-1.7z" fill="#76b543"/><path d="m23.7 17 5.3 17.1c0 .1.1.2.1.2v5.7c0 .6.5 1 1 1h25.4c.6 0 1-.5 1-1v-5.6c.1-.1.2-.2.2-.4l5.3-17c2.1 0 3.9-1.8 3.9-3.9s-1.8-3.9-3.9-3.9-3.9 1.8-3.9 3.9c0 .5.1 1 .3 1.5l-2 1.2c-3.9 2.3-8.9.6-10.5-3.6l-.6-1.6c1.2-.8 2.1-2.2 2.1-3.8 0-2.5-2-4.5-4.5-4.5s-4.5 2-4.5 4.5c0 1.6.8 3 2.1 3.8l-.6 1.6c-1.6 4.2-6.7 5.9-10.5 3.6l-1.7-1c.2-.5.4-1.1.4-1.7 0-2.1-1.8-3.9-3.9-3.9s-3.9 1.8-3.9 3.9 1.5 3.7 3.4 3.9zm30.8 22h-23.4v-3.8h23.4zm-11.6-19.3c1.8 0 3.3 1.5 3.3 3.3s-1.5 3.3-3.3 3.3-3.3-1.5-3.3-3.3 1.5-3.3 3.3-3.3z" fill="#223f97"/></g></g></svg>