<svg height="512" viewBox="0 0 512 512" width="512" xmlns="http://www.w3.org/2000/svg"><g id="Outline" style="fill: #223f97;"><path d="m432 72a64.007 64.007 0 0 0 -119.835-31.3 48.008 48.008 0 0 0 -53.927 32.8 64 64 0 0 0 13.762 126.5h48v-16h-48a47.994 47.994 0 0 1 -6.254-95.579 8 8 0 0 0 6.828-6.44 32 32 0 0 1 41.426-24.381 8 8 0 0 0 9.852-4.455 48.006 48.006 0 0 1 92.148 18.855 48.469 48.469 0 0 1 -.576 7.441 8 8 0 0 0 9.135 9.135 48 48 0 1 1 7.441 95.424h-40v16h40a64 64 0 0 0 0-128z"/><path d="m144 224h16v16h-16z"/><path d="m176 224h16v16h-16z"/><path d="m112 224h16v16h-16z"/><path d="m144 288h16v16h-16z"/><path d="m176 288h16v16h-16z"/><path d="m112 288h16v16h-16z"/><path d="m144 352h16v16h-16z"/><path d="m176 352h16v16h-16z"/><path d="m112 352h16v16h-16z"/><path d="m48 448.018v9.982c0 8.352 5.853 20.137 33.731 28.849 18.884 5.901 43.839 9.151 70.269 9.151s51.385-3.25 70.269-9.151c27.878-8.712 33.731-20.497 33.731-28.849v-10.013c26.113-10.463 32-22.913 32-31.987h24a8 8 0 0 0 8-8v-8.679a48.071 48.071 0 0 0 40-47.321v-156.686l29.657-29.657a8 8 0 0 0 2.343-5.657v-24h-16v20.687l-16 16v-76.687h-16v60.686l-16-16v-20.686h-16v24a8 8 0 0 0 2.343 5.657l29.657 29.657v172.686a32.057 32.057 0 0 1 -24 30.987v-6.987a8 8 0 0 0 -8-8h-24v-152h-16v8c0 11.168-41.214 32-120 32s-120-20.832-120-32v-40.136c6.4 4.208 15.162 8.324 27.1 12.056 24.931 7.79 57.922 12.08 92.9 12.08a375.09 375.09 0 0 0 65.423-5.479l-2.846-15.745a358.891 358.891 0 0 1 -62.577 5.224c-78.786 0-120-20.832-120-32s41.214-32 120-32a385.2 385.2 0 0 1 39.183 1.95l1.634-15.916a401.371 401.371 0 0 0 -40.817-2.034c-34.978 0-67.969 4.29-92.9 12.08-35.621 11.133-43.1 25.678-43.1 35.92v256c0 13.447 12.464 24.156 32 32.018zm104 31.982c-58.06 0-88-15.421-88-22v-4.591c24.846 7.01 56.512 10.591 88 10.591 32.735 0 63.727-3.759 88-10.626v4.626c0 6.579-29.94 22-88 22zm120-64c0 11.168-41.214 32-120 32s-120-20.832-120-32v-40.132c24.18 15.916 72.3 24.132 120 24.132 34.978 0 67.969-4.29 92.9-12.08 11.942-3.732 20.709-7.848 27.1-12.056zm32-32v16h-16v-16zm-272-136.132c24.18 15.916 72.3 24.132 120 24.132 34.978 0 67.969-4.29 92.9-12.08 11.942-3.732 20.709-7.848 27.1-12.056v40.136c0 11.168-41.214 32-120 32s-120-20.832-120-32zm0 64c24.18 15.916 72.3 24.132 120 24.132 34.978 0 67.969-4.29 92.9-12.08 11.942-3.732 20.709-7.848 27.1-12.056v40.136c0 11.168-41.214 32-120 32s-120-20.832-120-32z"/><path d="m144 416h16v16h-16z"/><path d="m176 416h16v16h-16z"/><path d="m112 416h16v16h-16z"/><path d="m344 64h16v16h-16z"/><path d="m312 88h16v16h-16z"/><path d="m376 104h16v16h-16z"/></g></svg>