<?xml version="1.0"?>
<svg xmlns="http://www.w3.org/2000/svg" xmlns:xlink="http://www.w3.org/1999/xlink" xmlns:svgjs="http://svgjs.com/svgjs" version="1.1" width="512" height="512" x="0" y="0" viewBox="0 0 64 64" style="enable-background:new 0 0 512 512" xml:space="preserve"><g><g xmlns="http://www.w3.org/2000/svg" id="data_central" data-name="data central"><path d="M5,10H7v2H4v2h8V12H9V10h2a3,3,0,0,0,3-3V5a3,3,0,0,0-3-3H5A3,3,0,0,0,2,5V7A3,3,0,0,0,5,10ZM4,5A1,1,0,0,1,5,4h6a1,1,0,0,1,1,1V7a1,1,0,0,1-1,1H5A1,1,0,0,1,4,7Z" fill="#322fac" data-original="#000000" style=""/><path d="M59,2H53a3,3,0,0,0-3,3V7a3,3,0,0,0,3,3h2v2H52v2h8V12H57V10h2a3,3,0,0,0,3-3V5A3,3,0,0,0,59,2Zm1,5a1,1,0,0,1-1,1H53a1,1,0,0,1-1-1V5a1,1,0,0,1,1-1h6a1,1,0,0,1,1,1Z" fill="#322fac" data-original="#000000" style=""/><path d="M11,50H5a3,3,0,0,0-3,3v2a3,3,0,0,0,3,3H7v2H4v2h8V60H9V58h2a3,3,0,0,0,3-3V53A3,3,0,0,0,11,50Zm1,5a1,1,0,0,1-1,1H5a1,1,0,0,1-1-1V53a1,1,0,0,1,1-1h6a1,1,0,0,1,1,1Z" fill="#322fac" data-original="#000000" style=""/><path d="M59,50H53a3,3,0,0,0-3,3v2a3,3,0,0,0,3,3h2v2H52v2h8V60H57V58h2a3,3,0,0,0,3-3V53A3,3,0,0,0,59,50Zm1,5a1,1,0,0,1-1,1H53a1,1,0,0,1-1-1V53a1,1,0,0,1,1-1h6a1,1,0,0,1,1,1Z" fill="#322fac" data-original="#000000" style=""/><path d="M8.643,47.448a28.02,28.02,0,0,1,0-30.9l-1.667-1.1a30.017,30.017,0,0,0,0,33.1Z" fill="#322fac" data-original="#000000" style=""/><path d="M32,60a27.871,27.871,0,0,1-15.448-4.643l-1.1,1.667a30.017,30.017,0,0,0,33.1,0l-1.1-1.667A27.871,27.871,0,0,1,32,60Z" fill="#322fac" data-original="#000000" style=""/><path d="M55.357,16.552a28.02,28.02,0,0,1,0,30.9l1.667,1.1a30.017,30.017,0,0,0,0-33.1Z" fill="#322fac" data-original="#000000" style=""/><path d="M51.339,20.1a2.516,2.516,0,0,0-.379-3.078L46.981,13.04a2.514,2.514,0,0,0-3.078-.379l-4.512,2.707a.567.567,0,0,1-.518.013.554.554,0,0,1-.339-.368l-1.276-5.1A2.516,2.516,0,0,0,34.813,8H29.187a2.516,2.516,0,0,0-2.445,1.909l-1.276,5.1a.565.565,0,0,1-.359.374.552.552,0,0,1-.5-.02L20.1,12.661a2.518,2.518,0,0,0-3.078.379L13.04,17.019a2.516,2.516,0,0,0-.379,3.078l2.707,4.512a.564.564,0,0,1,.013.518.554.554,0,0,1-.368.339l-5.1,1.276A2.516,2.516,0,0,0,8,29.187v5.626a2.516,2.516,0,0,0,1.909,2.445l5.1,1.276a.565.565,0,0,1,.374.359.546.546,0,0,1-.02.5L12.661,43.9a2.516,2.516,0,0,0,.379,3.078l3.978,3.978a2.515,2.515,0,0,0,3.079.38l4.512-2.707a.561.561,0,0,1,.518-.013.554.554,0,0,1,.339.368l1.276,5.1A2.516,2.516,0,0,0,29.187,56h5.626a2.516,2.516,0,0,0,2.445-1.909l1.276-5.105a.565.565,0,0,1,.359-.374.547.547,0,0,1,.5.02L43.9,51.339a2.511,2.511,0,0,0,3.078-.38l3.979-3.978a2.516,2.516,0,0,0,.379-3.078l-2.707-4.512a.564.564,0,0,1-.013-.518.554.554,0,0,1,.368-.339l5.1-1.276A2.516,2.516,0,0,0,56,34.813V29.187a2.516,2.516,0,0,0-1.909-2.445l-5.105-1.276a.565.565,0,0,1-.374-.359.546.546,0,0,1,.02-.5Zm-4.568,5.795a2.564,2.564,0,0,0,1.73,1.514l5.105,1.277a.519.519,0,0,1,.394.5v5.626a.519.519,0,0,1-.394.5l-5.1,1.277a2.613,2.613,0,0,0-1.585,3.826l2.707,4.512a.519.519,0,0,1-.078.635l-3.979,3.979a.519.519,0,0,1-.635.078L40.42,46.917A2.612,2.612,0,0,0,36.594,48.5l-1.277,5.105a.519.519,0,0,1-.5.394H29.187a.519.519,0,0,1-.5-.394l-1.277-5.1a2.572,2.572,0,0,0-1.532-1.738,2.62,2.62,0,0,0-1-.2,2.507,2.507,0,0,0-1.291.353l-4.512,2.707a.517.517,0,0,1-.635-.079l-3.978-3.977a.519.519,0,0,1-.079-.636l2.707-4.512A2.612,2.612,0,0,0,15.5,36.594l-5.105-1.277a.519.519,0,0,1-.394-.5V29.187a.519.519,0,0,1,.394-.5l5.1-1.277a2.613,2.613,0,0,0,1.585-3.826l-2.707-4.512a.519.519,0,0,1,.078-.635l3.979-3.979a.52.52,0,0,1,.635-.078l4.512,2.707A2.612,2.612,0,0,0,27.406,15.5l1.277-5.105a.519.519,0,0,1,.5-.394h5.626a.519.519,0,0,1,.5.394l1.277,5.1a2.613,2.613,0,0,0,3.826,1.585l4.512-2.707a.522.522,0,0,1,.635.078l3.979,3.979a.519.519,0,0,1,.078.635L46.917,23.58A2.576,2.576,0,0,0,46.771,25.892Z" fill="#322fac" data-original="#000000" style=""/><path d="M32,21A11,11,0,1,0,43,32,11.013,11.013,0,0,0,32,21Zm6.305,10a17.529,17.529,0,0,0-.7-4.21,10.864,10.864,0,0,0,1.119-.756A8.955,8.955,0,0,1,40.941,31ZM33,23.29a5.526,5.526,0,0,1,2.067,2.5A8.9,8.9,0,0,1,33,26.273Zm3.521.941c.232.135.458.279.676.434-.109.078-.217.157-.329.23C36.758,24.666,36.643,24.443,36.521,24.231ZM31,23.29v2.983a8.9,8.9,0,0,1-2.067-.485A5.526,5.526,0,0,1,31,23.29ZM27.132,24.9c-.112-.073-.22-.152-.329-.23.218-.155.444-.3.676-.434C27.357,24.443,27.242,24.666,27.132,24.9ZM31,28.287V31H27.7a15.649,15.649,0,0,1,.538-3.339A10.921,10.921,0,0,0,31,28.287ZM31,33v2.713a10.921,10.921,0,0,0-2.767.626A15.649,15.649,0,0,1,27.7,33Zm0,4.727V40.71a5.526,5.526,0,0,1-2.067-2.5A8.9,8.9,0,0,1,31,37.727Zm-3.521,2.042c-.232-.135-.458-.279-.676-.434.109-.078.217-.157.329-.23C27.242,39.334,27.357,39.557,27.479,39.769ZM33,40.71V37.727a8.9,8.9,0,0,1,2.067.485A5.526,5.526,0,0,1,33,40.71ZM36.868,39.1c.112.073.22.152.329.23-.218.155-.444.3-.676.434C36.643,39.557,36.758,39.334,36.868,39.1ZM33,35.713V33h3.305a15.649,15.649,0,0,1-.538,3.339A10.921,10.921,0,0,0,33,35.713ZM33,31V28.287a10.921,10.921,0,0,0,2.767-.626A15.649,15.649,0,0,1,36.305,31Zm-7.719-4.966a10.864,10.864,0,0,0,1.119.756A17.529,17.529,0,0,0,25.7,31H23.059A8.955,8.955,0,0,1,25.281,26.034ZM23.059,33H25.7a17.529,17.529,0,0,0,.7,4.21,10.864,10.864,0,0,0-1.119.756A8.955,8.955,0,0,1,23.059,33Zm15.66,4.966A10.864,10.864,0,0,0,37.6,37.21a17.529,17.529,0,0,0,.7-4.21h2.636A8.955,8.955,0,0,1,38.719,37.966Z" fill="#322fac" data-original="#000000" style=""/><path d="M32,4A27.871,27.871,0,0,1,47.448,8.643l1.1-1.667a30.017,30.017,0,0,0-33.1,0l1.1,1.667A27.871,27.871,0,0,1,32,4Z" fill="#322fac" data-original="#000000" style=""/></g></g></svg>
