<svg xmlns="http://www.w3.org/2000/svg" width="40" height="40" viewBox="0 0 40 40">
  <g id="Group_7283" data-name="Group 7283" transform="translate(-187 -1642)">
    <circle id="Ellipse_6153" data-name="Ellipse 6153" cx="20" cy="20" r="20" transform="translate(187 1642)" fill="#ecffdc" opacity="0.52"/>
    <path id="Path_8036" data-name="Path 8036" d="M17.766-14.016,7.734-3.984H3.984v-3.75L14.016-17.766Zm2.953-2.953L18.75-15,15-18.75l1.969-1.969a.954.954,0,0,1,.7-.281.954.954,0,0,1,.7.281l2.344,2.344a.954.954,0,0,1,.281.7A.954.954,0,0,1,20.719-16.969ZM0-.984H24V3H0Z" transform="translate(195 1670)" fill="#7bbc42"/>
  </g>
</svg>
