<svg xmlns="http://www.w3.org/2000/svg" xmlns:xlink="http://www.w3.org/1999/xlink" viewBox="0 0 578.026 674.806">
  <defs>
    <style>
      .cls-1 {
        fill: #d32e2e;
      }

      .cls-2 {
        fill: #c62828;
      }

      .cls-3 {
        fill: #fff;
      }

      .cls-4 {
        filter: url(#Path_91);
      }

      .cls-5 {
        filter: url(#Path_88);
      }

      .cls-6 {
        filter: url(#Rectangle_621);
      }
    </style>
    <filter id="Rectangle_621" x="0" y="133.788" width="414.535" height="485.719" filterUnits="userSpaceOnUse">
      <feOffset dx="2" input="SourceAlpha"/>
      <feGaussianBlur stdDeviation="3" result="blur"/>
      <feFlood flood-opacity="0.431"/>
      <feComposite operator="in" in2="blur"/>
      <feComposite in="SourceGraphic"/>
    </filter>
    <filter id="Path_88" x="7.89" y="0" width="546.636" height="174.243" filterUnits="userSpaceOnUse">
      <feOffset dx="2" dy="3" input="SourceAlpha"/>
      <feGaussianBlur stdDeviation="1.5" result="blur-2"/>
      <feFlood flood-opacity="0.431"/>
      <feComposite operator="in" in2="blur-2"/>
      <feComposite in="SourceGraphic"/>
    </filter>
    <filter id="Path_91" x="3.042" y="491.776" width="555.636" height="183.03" filterUnits="userSpaceOnUse">
      <feOffset dx="1" dy="-3" input="SourceAlpha"/>
      <feGaussianBlur stdDeviation="3" result="blur-3"/>
      <feFlood flood-opacity="0.431"/>
      <feComposite operator="in" in2="blur-3"/>
      <feComposite in="SourceGraphic"/>
    </filter>
  </defs>
  <g id="Group_151" data-name="Group 151" transform="translate(7 1.429)">
    <g class="cls-6" transform="matrix(1, 0, 0, 1, -7, -1.43)">
      <rect id="Rectangle_621-2" data-name="Rectangle 621" class="cls-1" width="396.535" height="467.719" transform="translate(7 142.79)"/>
    </g>
    <g class="cls-5" transform="matrix(1, 0, 0, 1, -7, -1.43)">
      <path id="Path_88-2" data-name="Path 88" class="cls-1" d="M15.6,165.543V.3H553.237L408.072,165.543Z" transform="translate(-5.21 1.2)"/>
    </g>
    <path id="Path_89" data-name="Path 89" class="cls-2" d="M2162.827,0l30.522,59.511H2111Z" transform="translate(-1622.323)"/>
    <g class="cls-4" transform="matrix(1, 0, 0, 1, -7, -1.43)">
      <path id="Path_91-2" data-name="Path 91" class="cls-1" d="M18.6,2118v165.03H556.237L411.072,2118Z" transform="translate(-7.56 -1614.22)"/>
    </g>
    <path id="Path_92" data-name="Path 92" class="cls-2" d="M2164.616,2477.532l29.809-58.032H2114Z" transform="translate(-1623.671 -1810.107)"/>
    <rect id="Rectangle_3226" data-name="Rectangle 3226" class="cls-3" width="393" height="6" transform="translate(3 165.425)"/>
    <rect id="Rectangle_3227" data-name="Rectangle 3227" class="cls-3" width="393" height="6" transform="translate(3 496.425)"/>
  </g>
</svg>
