<?xml version="1.0" encoding="UTF-8"?><svg id="Layer_1" xmlns="http://www.w3.org/2000/svg" xmlns:xlink="http://www.w3.org/1999/xlink" viewBox="0 0 910.19 1234.21"><defs><style>.cls-1,.cls-2,.cls-3,.cls-4,.cls-5,.cls-6,.cls-7{font-style:italic;}.cls-1,.cls-2,.cls-3,.cls-5,.cls-6,.cls-7{font-family:Roboto-MediumItalic, Roboto;}.cls-1,.cls-8,.cls-9,.cls-10,.cls-5,.cls-6{font-weight:500;}.cls-1,.cls-11,.cls-5,.cls-6{fill:#fff;}.cls-12{fill:url(#linear-gradient-3);filter:url(#drop-shadow-3);}.cls-12,.cls-13,.cls-14,.cls-15,.cls-16,.cls-17,.cls-18,.cls-19,.cls-20,.cls-21,.cls-22,.cls-23,.cls-24,.cls-25,.cls-26,.cls-27,.cls-11,.cls-28,.cls-29,.cls-30,.cls-31,.cls-32,.cls-33,.cls-34,.cls-35,.cls-36,.cls-37,.cls-38,.cls-39,.cls-40,.cls-41,.cls-42,.cls-43,.cls-44,.cls-45,.cls-46,.cls-47{stroke-width:0px;}.cls-13{fill:url(#linear-gradient-9);}.cls-13,.cls-18,.cls-19,.cls-20,.cls-23,.cls-25,.cls-41,.cls-47{opacity:.3;}.cls-14{fill:url(#linear-gradient-2);filter:url(#drop-shadow-2);}.cls-15{fill:url(#linear-gradient-13);filter:url(#drop-shadow-5);}.cls-16{fill:url(#linear-gradient-21);filter:url(#drop-shadow-9);}.cls-48,.cls-2,.cls-49,.cls-50,.cls-51,.cls-52,.cls-53,.cls-54,.cls-55,.cls-56{fill:#206a37;}.cls-48,.cls-57,.cls-58,.cls-59,.cls-51,.cls-60,.cls-61,.cls-62,.cls-9,.cls-53,.cls-63,.cls-10,.cls-64,.cls-65{font-family:Roboto-Medium, Roboto;}.cls-17{fill:url(#linear-gradient);filter:url(#drop-shadow-1);}.cls-18{fill:url(#linear-gradient-10);}.cls-66,.cls-57,.cls-58,.cls-59,.cls-60,.cls-61,.cls-3,.cls-67,.cls-68,.cls-69{fill:#231f20;}.cls-66,.cls-67,.cls-68{font-size:26.57px;}.cls-70{letter-spacing:0em;}.cls-57{letter-spacing:0em;}.cls-19{fill:url(#linear-gradient-6);}.cls-49{letter-spacing:0em;}.cls-49,.cls-8,.cls-10,.cls-54,.cls-55{font-size:31.34px;}.cls-71{letter-spacing:-.01em;}.cls-20{fill:url(#linear-gradient-12);}.cls-59{letter-spacing:-.02em;}.cls-21{fill:url(#linear-gradient-35);filter:url(#drop-shadow-17);}.cls-22{fill:url(#linear-gradient-15);filter:url(#drop-shadow-6);}.cls-72{font-size:91.64px;}.cls-23{fill:url(#linear-gradient-4);}.cls-24,.cls-73{fill:none;}.cls-51,.cls-74,.cls-65{letter-spacing:0em;}.cls-52{letter-spacing:-.01em;}.cls-60{letter-spacing:-.03em;}.cls-25{fill:url(#linear-gradient-5);}.cls-61{letter-spacing:0em;}.cls-62,.cls-4{fill:#204295;}.cls-53{letter-spacing:-.02em;}.cls-63,.cls-74,.cls-64,.cls-75,.cls-65,.cls-7{fill:#1d4794;}.cls-26{fill:url(#linear-gradient-16);}.cls-27{fill:url(#linear-gradient-22);}.cls-28{fill:url(#linear-gradient-32);}.cls-29{fill:url(#linear-gradient-20);}.cls-30{fill:url(#linear-gradient-14);}.cls-31{fill:url(#linear-gradient-34);filter:url(#drop-shadow-16);}.cls-32{fill:url(#linear-gradient-8);filter:url(#drop-shadow-4);}.cls-76{font-size:53.67px;}.cls-33{fill:url(#linear-gradient-17);filter:url(#drop-shadow-7);}.cls-34{fill:url(#linear-gradient-27);filter:url(#drop-shadow-12);}.cls-4{font-family:Raleway-SemiBoldItalic, Raleway;font-size:79.29px;font-weight:600;}.cls-35{fill:url(#linear-gradient-33);filter:url(#drop-shadow-15);}.cls-73{stroke:#fff;stroke-miterlimit:10;stroke-width:6px;}.cls-36{fill:url(#linear-gradient-25);filter:url(#drop-shadow-11);}.cls-5{font-size:194.55px;}.cls-37{fill:url(#linear-gradient-24);}.cls-38{fill:url(#linear-gradient-26);}.cls-39{fill:url(#linear-gradient-18);}.cls-64{letter-spacing:-.01em;}.cls-40{fill:url(#linear-gradient-30);}.cls-67{letter-spacing:-.02em;}.cls-41{fill:url(#linear-gradient-7);}.cls-55{letter-spacing:-.01em;}.cls-42{fill:url(#linear-gradient-29);filter:url(#drop-shadow-13);}.cls-68{letter-spacing:0em;}.cls-43{fill:url(#linear-gradient-28);}.cls-44{fill:url(#linear-gradient-19);filter:url(#drop-shadow-8);}.cls-45{fill:url(#linear-gradient-23);filter:url(#drop-shadow-10);}.cls-46{fill:url(#linear-gradient-31);filter:url(#drop-shadow-14);}.cls-6{font-size:69px;}.cls-47{fill:url(#linear-gradient-11);}.cls-56{letter-spacing:-.04em;}</style><linearGradient id="linear-gradient" x1="243.17" y1="161.81" x2="243.17" y2="1032.47" gradientUnits="userSpaceOnUse"><stop offset="0" stop-color="#4766b0"/><stop offset="1" stop-color="#204295"/></linearGradient><filter id="drop-shadow-1" filterUnits="userSpaceOnUse"><feOffset dx="-9" dy="0"/><feGaussianBlur result="blur" stdDeviation="13"/><feFlood flood-color="#231f20" flood-opacity=".36"/><feComposite in2="blur" operator="in"/><feComposite in="SourceGraphic"/></filter><linearGradient id="linear-gradient-2" x1="635.42" y1="-5.06" x2="635.42" y2="1193.07" gradientUnits="userSpaceOnUse"><stop offset=".04" stop-color="#fff"/><stop offset="1" stop-color="#f0efef"/></linearGradient><filter id="drop-shadow-2" filterUnits="userSpaceOnUse"><feOffset dx="-4" dy="2"/><feGaussianBlur result="blur-2" stdDeviation="9"/><feFlood flood-color="#010101" flood-opacity=".3"/><feComposite in2="blur-2" operator="in"/><feComposite in="SourceGraphic"/></filter><linearGradient id="linear-gradient-3" x1="366.25" y1="232.29" x2="912.79" y2="232.29" xlink:href="#linear-gradient"/><filter id="drop-shadow-3" filterUnits="userSpaceOnUse"><feOffset dx="0" dy="1"/><feGaussianBlur result="blur-3" stdDeviation="3"/><feFlood flood-color="#010101" flood-opacity=".3"/><feComposite in2="blur-3" operator="in"/><feComposite in="SourceGraphic"/></filter><linearGradient id="linear-gradient-4" x1="592.19" y1="204.68" x2="781.61" y2="-10" gradientUnits="userSpaceOnUse"><stop offset="0" stop-color="#fff" stop-opacity=".3"/><stop offset="1" stop-color="#fff" stop-opacity="0"/></linearGradient><linearGradient id="linear-gradient-5" x1="745.76" y1="214.06" x2="895.69" y2="214.06" xlink:href="#linear-gradient-4"/><linearGradient id="linear-gradient-6" x1="443.47" y1="234.46" x2="615.32" y2="234.46" xlink:href="#linear-gradient-4"/><linearGradient id="linear-gradient-7" x1="694.89" y1="210.54" x2="854.4" y2="210.54" xlink:href="#linear-gradient-4"/><linearGradient id="linear-gradient-8" x1="363.76" y1="230.63" x2="910.3" y2="230.63" xlink:href="#linear-gradient"/><filter id="drop-shadow-4" filterUnits="userSpaceOnUse"><feOffset dx="0" dy="1"/><feGaussianBlur result="blur-4" stdDeviation="3"/><feFlood flood-color="#010101" flood-opacity=".3"/><feComposite in2="blur-4" operator="in"/><feComposite in="SourceGraphic"/></filter><linearGradient id="linear-gradient-9" x1="589.7" y1="203.02" x2="779.12" y2="-11.66" xlink:href="#linear-gradient-4"/><linearGradient id="linear-gradient-10" x1="743.27" y1="212.4" x2="893.2" y2="212.4" xlink:href="#linear-gradient-4"/><linearGradient id="linear-gradient-11" x1="440.98" y1="232.8" x2="612.83" y2="232.8" xlink:href="#linear-gradient-4"/><linearGradient id="linear-gradient-12" x1="692.4" y1="208.88" x2="851.91" y2="208.88" xlink:href="#linear-gradient-4"/><linearGradient id="linear-gradient-13" x1="448.6" y1="567.17" x2="416.63" y2="590.45" xlink:href="#linear-gradient-2"/><filter id="drop-shadow-5" filterUnits="userSpaceOnUse"><feOffset dx="0" dy="0"/><feGaussianBlur result="blur-5" stdDeviation=".88"/><feFlood flood-color="#010101" flood-opacity=".2"/><feComposite in2="blur-5" operator="in"/><feComposite in="SourceGraphic"/></filter><linearGradient id="linear-gradient-14" x1="438.13" y1="574.79" x2="402.19" y2="600.97" xlink:href="#linear-gradient"/><linearGradient id="linear-gradient-15" x1="448.6" y1="625.03" x2="416.63" y2="648.31" xlink:href="#linear-gradient-2"/><filter id="drop-shadow-6" filterUnits="userSpaceOnUse"><feOffset dx="0" dy="0"/><feGaussianBlur result="blur-6" stdDeviation=".88"/><feFlood flood-color="#010101" flood-opacity=".2"/><feComposite in2="blur-6" operator="in"/><feComposite in="SourceGraphic"/></filter><linearGradient id="linear-gradient-16" x1="420.57" y1="640.36" x2="434.53" y2="640.36" gradientUnits="userSpaceOnUse"><stop offset="0" stop-color="#2db24a"/><stop offset="1" stop-color="#226834"/></linearGradient><linearGradient id="linear-gradient-17" x1="448.6" y1="682.89" x2="416.63" y2="706.17" xlink:href="#linear-gradient-2"/><filter id="drop-shadow-7" filterUnits="userSpaceOnUse"><feOffset dx="0" dy="0"/><feGaussianBlur result="blur-7" stdDeviation=".88"/><feFlood flood-color="#010101" flood-opacity=".2"/><feComposite in2="blur-7" operator="in"/><feComposite in="SourceGraphic"/></filter><linearGradient id="linear-gradient-18" x1="438.13" y1="690.52" x2="408.45" y2="712.13" xlink:href="#linear-gradient"/><linearGradient id="linear-gradient-19" x1="448.6" y1="740.75" x2="416.63" y2="764.03" xlink:href="#linear-gradient-2"/><filter id="drop-shadow-8" filterUnits="userSpaceOnUse"><feOffset dx="0" dy="0"/><feGaussianBlur result="blur-8" stdDeviation=".88"/><feFlood flood-color="#010101" flood-opacity=".2"/><feComposite in2="blur-8" operator="in"/><feComposite in="SourceGraphic"/></filter><linearGradient id="linear-gradient-20" y1="756.08" x2="434.53" y2="756.08" xlink:href="#linear-gradient-16"/><linearGradient id="linear-gradient-21" x1="448.6" y1="798.61" x2="416.63" y2="821.89" xlink:href="#linear-gradient-2"/><filter id="drop-shadow-9" filterUnits="userSpaceOnUse"><feOffset dx="0" dy="0"/><feGaussianBlur result="blur-9" stdDeviation=".88"/><feFlood flood-color="#010101" flood-opacity=".2"/><feComposite in2="blur-9" operator="in"/><feComposite in="SourceGraphic"/></filter><linearGradient id="linear-gradient-22" x1="420.57" y1="813.94" x2="434.53" y2="813.94" xlink:href="#linear-gradient"/><linearGradient id="linear-gradient-23" x1="448.6" y1="853.49" x2="416.63" y2="876.77" xlink:href="#linear-gradient-2"/><filter id="drop-shadow-10" filterUnits="userSpaceOnUse"><feOffset dx="0" dy="0"/><feGaussianBlur result="blur-10" stdDeviation=".88"/><feFlood flood-color="#010101" flood-opacity=".2"/><feComposite in2="blur-10" operator="in"/><feComposite in="SourceGraphic"/></filter><linearGradient id="linear-gradient-24" y1="868.82" y2="868.82" xlink:href="#linear-gradient-16"/><linearGradient id="linear-gradient-25" x1="448.6" y1="911.35" x2="416.63" y2="934.63" xlink:href="#linear-gradient-2"/><filter id="drop-shadow-11" filterUnits="userSpaceOnUse"><feOffset dx="0" dy="0"/><feGaussianBlur result="blur-11" stdDeviation=".88"/><feFlood flood-color="#010101" flood-opacity=".2"/><feComposite in2="blur-11" operator="in"/><feComposite in="SourceGraphic"/></filter><linearGradient id="linear-gradient-26" x1="438.13" y1="918.98" x2="408.45" y2="940.59" xlink:href="#linear-gradient"/><linearGradient id="linear-gradient-27" x1="448.6" y1="969.21" x2="416.63" y2="992.49" xlink:href="#linear-gradient-2"/><filter id="drop-shadow-12" filterUnits="userSpaceOnUse"><feOffset dx="0" dy="0"/><feGaussianBlur result="blur-12" stdDeviation=".88"/><feFlood flood-color="#010101" flood-opacity=".2"/><feComposite in2="blur-12" operator="in"/><feComposite in="SourceGraphic"/></filter><linearGradient id="linear-gradient-28" y1="984.54" x2="434.53" y2="984.54" xlink:href="#linear-gradient-16"/><linearGradient id="linear-gradient-29" x1="448.6" y1="1027.07" x2="416.63" y2="1050.35" xlink:href="#linear-gradient-2"/><filter id="drop-shadow-13" filterUnits="userSpaceOnUse"><feOffset dx="0" dy="0"/><feGaussianBlur result="blur-13" stdDeviation=".88"/><feFlood flood-color="#010101" flood-opacity=".2"/><feComposite in2="blur-13" operator="in"/><feComposite in="SourceGraphic"/></filter><linearGradient id="linear-gradient-30" x1="420.57" y1="1042.4" x2="434.53" y2="1042.4" xlink:href="#linear-gradient"/><linearGradient id="linear-gradient-31" x1="448.6" y1="1084.93" x2="416.63" y2="1108.21" xlink:href="#linear-gradient-2"/><filter id="drop-shadow-14" filterUnits="userSpaceOnUse"><feOffset dx="0" dy="0"/><feGaussianBlur result="blur-14" stdDeviation=".88"/><feFlood flood-color="#010101" flood-opacity=".2"/><feComposite in2="blur-14" operator="in"/><feComposite in="SourceGraphic"/></filter><linearGradient id="linear-gradient-32" y1="1100.26" x2="434.53" y2="1100.26" xlink:href="#linear-gradient-16"/><linearGradient id="linear-gradient-33" x1="364.33" y1="481.81" x2="905.22" y2="481.81" xlink:href="#linear-gradient"/><filter id="drop-shadow-15" filterUnits="userSpaceOnUse"><feOffset dx="0" dy="2"/><feGaussianBlur result="blur-15" stdDeviation="2"/><feFlood flood-color="#010101" flood-opacity=".3"/><feComposite in2="blur-15" operator="in"/><feComposite in="SourceGraphic"/></filter><linearGradient id="linear-gradient-34" x1="565.63" y1="437.36" x2="842.1" y2="437.36" gradientTransform="translate(113.7 -121.04) rotate(11.4)" xlink:href="#linear-gradient"/><filter id="drop-shadow-16" filterUnits="userSpaceOnUse"><feOffset dx="0" dy="2"/><feGaussianBlur result="blur-16" stdDeviation="2"/><feFlood flood-color="#010101" flood-opacity=".3"/><feComposite in2="blur-16" operator="in"/><feComposite in="SourceGraphic"/></filter><linearGradient id="linear-gradient-35" x1="481.46" y1="498.12" x2="633.32" y2="498.12" gradientTransform="translate(113.7 -121.04) rotate(11.4)" xlink:href="#linear-gradient"/><filter id="drop-shadow-17" filterUnits="userSpaceOnUse"><feOffset dx="0" dy="2"/><feGaussianBlur result="blur-17" stdDeviation="2"/><feFlood flood-color="#010101" flood-opacity=".3"/><feComposite in2="blur-17" operator="in"/><feComposite in="SourceGraphic"/></filter></defs><polygon class="cls-17" points="372.96 166.3 108.38 270 108.38 926.56 377.95 1033.64 372.96 166.3"/><text class="cls-1" transform="translate(223.21 853.65) rotate(-90)"><tspan class="cls-76" x="0" y="0">MRC :</tspan><tspan class="cls-72" x="140.16" y="0" xml:space="preserve"> ₹ 15,000</tspan></text><text class="cls-6" transform="translate(324.21 515.73) rotate(-90)"><tspan x="0" y="0" xml:space="preserve"> ₹ 18,000</tspan></text><line class="cls-73" x1="294.59" y1="517.95" x2="294.59" y2="229.71"/><path class="cls-14" d="m822.63,1.12h-458.77v1113.51c0,44.21,37.76,80.05,84.35,80.05h458.77V81.17c0-44.21-37.77-80.05-84.35-80.05Z"/><path class="cls-12" d="m827.91,2.21h-461.66v391.82c136.74,187.27,276.59-86.43,546.54,64.82V87.2c0-46.94-38-84.99-84.88-84.99Z"/><path class="cls-23" d="m366.25,131.46c52.25,80.85,144.82,148.16,260.18,179.14,101.13,27.16,201.04,21.31,281.91-10.04V90.75c0-46.5-37.7-84.19-84.19-84.19h-457.9v124.9Z"/><path class="cls-25" d="m799.74,417.66l95.95-371.13c-10.51-16.96-26.8-29.94-46.19-36.06l-103.74,401.27c17.32.39,35.3,2.21,53.98,5.92Z"/><path class="cls-19" d="m559.81,6.56l-116.34,450.01c17.57,5.66,35.56,6.78,54.2,5.06L615.32,6.56h-55.51Z"/><path class="cls-41" d="m824.15,6.56h-23.79l-105.47,407.96c17.98-2.31,36.67-3.41,56.2-2.64L854.4,12.25c-9.4-3.63-19.57-5.69-30.25-5.69Z"/><path class="cls-32" d="m825.42.55h-461.66v391.82c136.74,187.27,276.59-86.43,546.54,64.82V85.54c0-46.94-38-84.99-84.88-84.99Z"/><path class="cls-13" d="m363.76,129.8c52.25,80.85,144.82,148.16,260.18,179.14,101.13,27.16,201.04,21.31,281.91-10.04V89.09c0-46.5-37.7-84.19-84.19-84.19h-457.9v124.9Z"/><path class="cls-18" d="m797.25,416l95.95-371.13c-10.51-16.96-26.8-29.94-46.19-36.06l-103.74,401.27c17.32.39,35.3,2.21,53.98,5.92Z"/><path class="cls-47" d="m557.32,4.9l-116.34,450.01c17.57,5.66,35.56,6.78,54.2,5.06L612.83,4.9h-55.51Z"/><path class="cls-20" d="m821.66,4.9h-23.79l-105.47,407.96c17.98-2.31,36.67-3.41,56.2-2.64L851.91,10.59c-9.4-3.63-19.57-5.69-30.25-5.69Z"/><path class="cls-15" d="m441.45,582.5c0,7.68-6.22,13.9-13.9,13.9h0c-7.68,0-13.9-6.22-13.9-13.9h0c0-7.68,6.22-13.9,13.9-13.9h0c7.68,0,13.9,6.22,13.9,13.9h0Z"/><path class="cls-30" d="m434.53,582.5c0,3.86-3.13,6.99-6.98,6.99h0c-3.86,0-6.98-3.13-6.98-6.99h0c0-3.86,3.13-6.99,6.98-6.99h0c3.86,0,6.98,3.13,6.98,6.99h0Z"/><path class="cls-22" d="m441.45,640.36c0,7.68-6.22,13.9-13.9,13.9h0c-7.68,0-13.9-6.22-13.9-13.9h0c0-7.68,6.22-13.9,13.9-13.9h0c7.68,0,13.9,6.22,13.9,13.9h0Z"/><path class="cls-26" d="m434.53,640.36c0,3.86-3.13,6.99-6.98,6.99h0c-3.86,0-6.98-3.13-6.98-6.99h0c0-3.86,3.13-6.99,6.98-6.99h0c3.86,0,6.98,3.13,6.98,6.99h0Z"/><path class="cls-33" d="m441.45,698.22c0,7.68-6.22,13.9-13.9,13.9h0c-7.68,0-13.9-6.22-13.9-13.9h0c0-7.68,6.22-13.9,13.9-13.9h0c7.68,0,13.9,6.22,13.9,13.9h0Z"/><path class="cls-39" d="m434.53,698.22c0,3.86-3.13,6.98-6.98,6.98h0c-3.86,0-6.98-3.13-6.98-6.98h0c0-3.86,3.13-6.99,6.98-6.99h0c3.86,0,6.98,3.13,6.98,6.99h0Z"/><path class="cls-44" d="m441.45,756.08c0,7.68-6.22,13.9-13.9,13.9h0c-7.68,0-13.9-6.22-13.9-13.9h0c0-7.68,6.22-13.9,13.9-13.9h0c7.68,0,13.9,6.22,13.9,13.9h0Z"/><path class="cls-29" d="m434.53,756.08c0,3.86-3.13,6.99-6.98,6.99h0c-3.86,0-6.98-3.13-6.98-6.99h0c0-3.86,3.13-6.99,6.98-6.99h0c3.86,0,6.98,3.13,6.98,6.99h0Z"/><path class="cls-16" d="m441.45,813.94c0,7.68-6.22,13.9-13.9,13.9h0c-7.68,0-13.9-6.22-13.9-13.9h0c0-7.68,6.22-13.9,13.9-13.9h0c7.68,0,13.9,6.22,13.9,13.9h0Z"/><path class="cls-27" d="m434.53,813.94c0,3.86-3.13,6.99-6.98,6.99h0c-3.86,0-6.98-3.13-6.98-6.99h0c0-3.86,3.13-6.99,6.98-6.99h0c3.86,0,6.98,3.13,6.98,6.99h0Z"/><path class="cls-45" d="m441.45,868.82c0,7.68-6.22,13.9-13.9,13.9h0c-7.68,0-13.9-6.22-13.9-13.9h0c0-7.68,6.22-13.9,13.9-13.9h0c7.68,0,13.9,6.22,13.9,13.9h0Z"/><path class="cls-37" d="m434.53,868.82c0,3.86-3.13,6.99-6.98,6.99h0c-3.86,0-6.98-3.13-6.98-6.99h0c0-3.86,3.13-6.99,6.98-6.99h0c3.86,0,6.98,3.13,6.98,6.99h0Z"/><path class="cls-36" d="m441.45,926.68c0,7.68-6.22,13.9-13.9,13.9h0c-7.68,0-13.9-6.22-13.9-13.9h0c0-7.68,6.22-13.9,13.9-13.9h0c7.68,0,13.9,6.22,13.9,13.9h0Z"/><path class="cls-38" d="m434.53,926.68c0,3.86-3.13,6.98-6.98,6.98h0c-3.86,0-6.98-3.13-6.98-6.98h0c0-3.86,3.13-6.99,6.98-6.99h0c3.86,0,6.98,3.13,6.98,6.99h0Z"/><path class="cls-34" d="m441.45,984.54c0,7.68-6.22,13.9-13.9,13.9h0c-7.68,0-13.9-6.22-13.9-13.9h0c0-7.68,6.22-13.9,13.9-13.9h0c7.68,0,13.9,6.22,13.9,13.9h0Z"/><path class="cls-43" d="m434.53,984.54c0,3.86-3.13,6.99-6.98,6.99h0c-3.86,0-6.98-3.13-6.98-6.99h0c0-3.86,3.13-6.99,6.98-6.99h0c3.86,0,6.98,3.13,6.98,6.99h0Z"/><path class="cls-42" d="m441.45,1042.4c0,7.68-6.22,13.9-13.9,13.9h0c-7.68,0-13.9-6.22-13.9-13.9h0c0-7.68,6.22-13.9,13.9-13.9h0c7.68,0,13.9,6.22,13.9,13.9h0Z"/><path class="cls-40" d="m434.53,1042.4c0,3.86-3.13,6.99-6.98,6.99h0c-3.86,0-6.98-3.13-6.98-6.99h0c0-3.86,3.13-6.99,6.98-6.99h0c3.86,0,6.98,3.13,6.98,6.99h0Z"/><path class="cls-46" d="m441.45,1100.26c0,7.68-6.22,13.9-13.9,13.9h0c-7.68,0-13.9-6.22-13.9-13.9h0c0-7.68,6.22-13.9,13.9-13.9h0c7.68,0,13.9,6.22,13.9,13.9h0Z"/><path class="cls-28" d="m434.53,1100.26c0,3.86-3.13,6.99-6.98,6.99h0c-3.86,0-6.98-3.13-6.98-6.99h0c0-3.86,3.13-6.99,6.98-6.99h0c3.86,0,6.98,3.13,6.98,6.99h0Z"/><path class="cls-35" d="m597.24,492.93c5.15,18.53,27.25,28.58,49.37,22.44,22.12-6.14,35.88-26.15,30.74-44.68-5.15-18.53-27.25-28.58-49.37-22.44-22.12,6.14-35.88,26.15-30.74,44.68Z"/><path class="cls-31" d="m697.34,448.58c.71,9.81,10.77,17.07,22.47,16.23,11.7-.84,20.62-9.48,19.91-19.28-.71-9.81-10.77-17.07-22.47-16.23-11.7.84-20.62,9.48-19.91,19.28Z"/><path class="cls-21" d="m550.73,478.39c.39,5.39,5.91,9.38,12.34,8.91,6.43-.46,11.33-5.21,10.94-10.59-.39-5.39-5.91-9.38-12.34-8.91-6.43.46-11.33,5.21-10.94,10.59Z"/><text class="cls-5" transform="translate(413.27 217.85)"><tspan x="0" y="0">1/4</tspan></text><path class="cls-24" d="m824.15,6.56h-457.9v1074.47c0,46.49,37.69,84.19,84.19,84.19h457.9V90.75c0-46.5-37.7-84.19-84.19-84.19Z"/><path class="cls-11" d="m365.65,278.65h329.43c24.1,0,43.67,19.57,43.67,43.67h0c0,24.1-19.57,43.67-43.67,43.67h-329.43v-87.34h0Z"/><text class="cls-4" transform="translate(444.64 348.13)"><tspan class="cls-71" x="0" y="0">R</tspan><tspan class="cls-70" x="49.4" y="0">a</tspan><tspan x="98.08" y="0">ck</tspan></text><text class="cls-8" transform="translate(470.79 591.66)"><tspan class="cls-62" x="0" y="0">Rack Space :</tspan><tspan class="cls-3" x="179.95" y="0"> </tspan><tspan class="cls-58" x="187.68" y="0">10U</tspan></text><text class="cls-8" transform="translate(470.79 649.52)"><tspan class="cls-51" x="0" y="0">P</tspan><tspan class="cls-48" x="19.83" y="0">ower :</tspan><tspan class="cls-2" x="104.93" y="0"> </tspan><tspan class="cls-57" x="112.66" y="0">1 </tspan><tspan class="cls-59" x="138.28" y="0">K</tspan><tspan class="cls-61" x="157.42" y="0">v</tspan><tspan class="cls-58" x="172.7" y="0">a</tspan></text><text class="cls-8" transform="translate(470.79 707.38)"><tspan class="cls-65" x="0" y="0">P</tspan><tspan class="cls-63" x="19.83" y="0">ower Billing Mode :</tspan><tspan class="cls-7" x="287.33" y="0"> </tspan><tspan class="cls-58" x="295.06" y="0">Bundled</tspan></text><text class="cls-8" transform="translate(470.79 765.24)"><tspan class="cls-48" x="0" y="0">C</tspan><tspan class="cls-53" x="20.46" y="0">r</tspan><tspan class="cls-48" x="30.93" y="0">oss Connects :</tspan><tspan class="cls-2" x="238.05" y="0"> </tspan><tspan class="cls-57" x="245.78" y="0">1</tspan></text><text class="cls-10" transform="translate(470.79 823.1)"><tspan class="cls-75" x="0" y="0">IP </tspan><tspan class="cls-74" x="36.69" y="0">P</tspan><tspan class="cls-75" x="56.52" y="0">ool : </tspan><tspan class="cls-69" x="124.14" y="0">/30</tspan></text><text class="cls-8" transform="translate(470.79 880.96)"><tspan class="cls-48" x="0" y="0">Internet Bandwidth :</tspan><tspan class="cls-3" x="281.81" y="0"> </tspan><tspan class="cls-57" x="289.54" y="0">50 Mbps</tspan></text><text class="cls-8" transform="translate(470.79 938.82)"><tspan class="cls-63" x="0" y="0">RHES :</tspan><tspan class="cls-3" x="94.58" y="0"> </tspan><tspan class="cls-58" x="102.31" y="0">6 Hours/ Month</tspan></text><text class="cls-8" transform="translate(470.79 1050.79)"><tspan class="cls-63" x="0" y="0">Cont</tspan><tspan class="cls-64" x="66.16" y="0">r</tspan><tspan class="cls-63" x="76.72" y="0">act </tspan><tspan class="cls-65" x="128.32" y="0">P</tspan><tspan class="cls-63" x="148.15" y="0">eriod :</tspan><tspan class="cls-3" x="235.65" y="0"> </tspan><tspan class="cls-57" x="243.38" y="0">3 </tspan><tspan class="cls-60" x="269" y="0">Y</tspan><tspan class="cls-58" x="287.1" y="0">ears</tspan></text><text class="cls-9" transform="translate(470.79 1110.42)"><tspan class="cls-54" x="0" y="0">Of</tspan><tspan class="cls-55" x="32.75" y="0">f</tspan><tspan class="cls-49" x="43.5" y="0">er : </tspan><tspan class="cls-66" x="95.26" y="0">No Upf</tspan><tspan class="cls-67" x="177.56" y="0">r</tspan><tspan class="cls-66" x="186.43" y="0">ont In</tspan><tspan class="cls-68" x="254.06" y="0">v</tspan><tspan class="cls-66" x="267.04" y="0">estment</tspan></text><text class="cls-10" transform="translate(470.79 996.68)"><tspan class="cls-56" x="0" y="0">O</tspan><tspan class="cls-52" x="20.34" y="0">T</tspan><tspan class="cls-50" x="38.94" y="0">C : </tspan><tspan class="cls-69" x="83.32" y="0">0</tspan></text></svg>