<?xml version="1.0" encoding="UTF-8"?><svg id="Layer_1" xmlns="http://www.w3.org/2000/svg" xmlns:xlink="http://www.w3.org/1999/xlink" viewBox="0 0 910.19 1231.77"><defs><style>.cls-1{fill:url(#linear-gradient-25);filter:url(#drop-shadow-15);}.cls-1,.cls-2,.cls-3,.cls-4,.cls-5,.cls-6,.cls-7,.cls-8,.cls-9,.cls-10,.cls-11,.cls-12,.cls-13,.cls-14,.cls-15,.cls-16,.cls-17,.cls-18,.cls-19,.cls-20,.cls-21,.cls-22,.cls-23,.cls-24,.cls-25,.cls-26,.cls-27,.cls-28,.cls-29,.cls-30,.cls-31,.cls-32,.cls-33,.cls-34,.cls-35,.cls-36,.cls-37{stroke-width:0px;}.cls-2{fill:url(#linear-gradient-33);filter:url(#drop-shadow-20);}.cls-3{fill:url(#linear-gradient-19);filter:url(#drop-shadow-12);}.cls-38,.cls-39,.cls-40,.cls-41,.cls-42,.cls-43{font-weight:500;}.cls-38,.cls-44,.cls-40,.cls-45,.cls-46,.cls-43{font-style:italic;}.cls-38,.cls-44,.cls-40,.cls-45,.cls-43{font-family:Roboto-MediumItalic, Roboto;}.cls-38,.cls-40,.cls-21,.cls-43{fill:#fff;}.cls-4{fill:url(#linear-gradient-9);}.cls-4,.cls-8,.cls-10,.cls-13,.cls-15,.cls-18,.cls-32,.cls-36{opacity:.3;}.cls-5{fill:url(#linear-gradient-34);filter:url(#drop-shadow-21);}.cls-47,.cls-48,.cls-49,.cls-50,.cls-51,.cls-52,.cls-53,.cls-54,.cls-55{fill:#206a37;}.cls-47,.cls-49,.cls-50,.cls-39,.cls-56,.cls-57,.cls-58,.cls-41,.cls-59,.cls-54,.cls-60,.cls-61,.cls-62{font-family:Roboto-Medium, Roboto;}.cls-47,.cls-63,.cls-62{letter-spacing:0em;}.cls-48,.cls-64,.cls-60{letter-spacing:0em;}.cls-6{fill:url(#linear-gradient-3);filter:url(#drop-shadow-7);}.cls-50{letter-spacing:-.04em;}.cls-7{fill:url(#linear-gradient);filter:url(#drop-shadow-5);}.cls-8{fill:url(#linear-gradient-10);}.cls-65{letter-spacing:0em;}.cls-65,.cls-44,.cls-56,.cls-66,.cls-67,.cls-68,.cls-45,.cls-63,.cls-69,.cls-70,.cls-61,.cls-71,.cls-72,.cls-62{fill:#231f20;}.cls-65,.cls-67,.cls-69,.cls-71{font-size:26.78px;}.cls-9{fill:url(#linear-gradient-13);filter:url(#drop-shadow-9);}.cls-39,.cls-53,.cls-42,.cls-55{font-size:31.59px;}.cls-10{fill:url(#linear-gradient-6);}.cls-44,.cls-57,.cls-73,.cls-68{letter-spacing:0em;}.cls-11{fill:url(#linear-gradient-27);filter:url(#drop-shadow-16);}.cls-12{fill:url(#linear-gradient-2);filter:url(#drop-shadow-6);}.cls-51{letter-spacing:-.02em;}.cls-13{fill:url(#linear-gradient-12);}.cls-40{font-size:196.1px;}.cls-74{font-size:54.1px;}.cls-14{fill:url(#linear-gradient-31);filter:url(#drop-shadow-18);}.cls-15{fill:url(#linear-gradient-4);}.cls-66{letter-spacing:0em;}.cls-16,.cls-75{fill:none;}.cls-76{letter-spacing:-.01em;}.cls-17{fill:url(#linear-gradient-21);filter:url(#drop-shadow-13);}.cls-67{letter-spacing:0em;}.cls-18{fill:url(#linear-gradient-5);}.cls-57,.cls-73,.cls-58,.cls-77,.cls-64,.cls-59,.cls-46,.cls-60{fill:#204295;}.cls-19{fill:url(#linear-gradient-16);}.cls-20{fill:url(#linear-gradient-22);}.cls-22{fill:url(#linear-gradient-35);}.cls-23{fill:url(#linear-gradient-17);filter:url(#drop-shadow-11);}.cls-24{fill:url(#linear-gradient-20);}.cls-78{letter-spacing:0em;}.cls-25{fill:url(#linear-gradient-14);}.cls-79{font-size:92.37px;}.cls-26{fill:url(#linear-gradient-23);filter:url(#drop-shadow-14);}.cls-59{letter-spacing:-.01em;}.cls-27{fill:url(#linear-gradient-15);filter:url(#drop-shadow-10);}.cls-46{font-family:Raleway-SemiBoldItalic, Raleway;font-size:79.92px;font-weight:600;}.cls-54{letter-spacing:-.01em;}.cls-75{stroke:#fff;stroke-miterlimit:10;stroke-width:6px;}.cls-28{fill:url(#linear-gradient-24);}.cls-29{fill:url(#linear-gradient-26);}.cls-30{fill:url(#linear-gradient-18);}.cls-31{fill:url(#linear-gradient-30);}.cls-32{fill:url(#linear-gradient-7);}.cls-33{fill:url(#linear-gradient-32);filter:url(#drop-shadow-19);}.cls-34{fill:url(#linear-gradient-28);}.cls-55{letter-spacing:-.01em;}.cls-70{letter-spacing:-.02em;}.cls-61{letter-spacing:-.03em;}.cls-43{font-size:69px;}.cls-35{fill:url(#linear-gradient-29);filter:url(#drop-shadow-17);}.cls-71{letter-spacing:-.02em;}.cls-36{fill:url(#linear-gradient-11);}.cls-37{fill:url(#linear-gradient-8);filter:url(#drop-shadow-8);}</style><linearGradient id="linear-gradient" x1="242.29" y1="162.55" x2="242.29" y2="1040.15" gradientUnits="userSpaceOnUse"><stop offset="0" stop-color="#4766b0"/><stop offset="1" stop-color="#204295"/></linearGradient><filter id="drop-shadow-5" filterUnits="userSpaceOnUse"><feOffset dx="-9" dy="0"/><feGaussianBlur result="blur" stdDeviation="13"/><feFlood flood-color="#231f20" flood-opacity=".36"/><feComposite in2="blur" operator="in"/><feComposite in="SourceGraphic"/></filter><linearGradient id="linear-gradient-2" x1="638.32" y1="-.54" x2="638.32" y2="1205.35" gradientUnits="userSpaceOnUse"><stop offset=".04" stop-color="#fff"/><stop offset="1" stop-color="#f0efef"/></linearGradient><filter id="drop-shadow-6" filterUnits="userSpaceOnUse"><feOffset dx="-4" dy="2"/><feGaussianBlur result="blur-2" stdDeviation="9"/><feFlood flood-color="#010101" flood-opacity=".3"/><feComposite in2="blur-2" operator="in"/><feComposite in="SourceGraphic"/></filter><linearGradient id="linear-gradient-3" x1="365.33" y1="233.59" x2="916.23" y2="233.59" xlink:href="#linear-gradient"/><filter id="drop-shadow-7" filterUnits="userSpaceOnUse"><feOffset dx="0" dy="1"/><feGaussianBlur result="blur-3" stdDeviation="3"/><feFlood flood-color="#010101" flood-opacity=".3"/><feComposite in2="blur-3" operator="in"/><feComposite in="SourceGraphic"/></filter><linearGradient id="linear-gradient-4" x1="593.07" y1="205.76" x2="784" y2="-10.63" gradientUnits="userSpaceOnUse"><stop offset="0" stop-color="#fff" stop-opacity=".3"/><stop offset="1" stop-color="#fff" stop-opacity="0"/></linearGradient><linearGradient id="linear-gradient-5" x1="747.87" y1="215.21" x2="898.99" y2="215.21" xlink:href="#linear-gradient-4"/><linearGradient id="linear-gradient-6" x1="443.17" y1="235.78" x2="616.39" y2="235.78" xlink:href="#linear-gradient-4"/><linearGradient id="linear-gradient-7" x1="696.6" y1="211.66" x2="857.38" y2="211.66" xlink:href="#linear-gradient-4"/><linearGradient id="linear-gradient-8" x1="362.82" y1="231.92" x2="913.72" y2="231.92" xlink:href="#linear-gradient"/><filter id="drop-shadow-8" filterUnits="userSpaceOnUse"><feOffset dx="0" dy="1"/><feGaussianBlur result="blur-4" stdDeviation="3"/><feFlood flood-color="#010101" flood-opacity=".3"/><feComposite in2="blur-4" operator="in"/><feComposite in="SourceGraphic"/></filter><linearGradient id="linear-gradient-9" x1="590.56" y1="204.08" x2="781.49" y2="-12.31" xlink:href="#linear-gradient-4"/><linearGradient id="linear-gradient-10" x1="745.36" y1="213.54" x2="896.48" y2="213.54" xlink:href="#linear-gradient-4"/><linearGradient id="linear-gradient-11" x1="440.66" y1="234.1" x2="613.88" y2="234.1" xlink:href="#linear-gradient-4"/><linearGradient id="linear-gradient-12" x1="694.09" y1="209.99" x2="854.87" y2="209.99" xlink:href="#linear-gradient-4"/><linearGradient id="linear-gradient-13" x1="448.34" y1="571.13" x2="416.12" y2="594.6" xlink:href="#linear-gradient-2"/><filter id="drop-shadow-9" filterUnits="userSpaceOnUse"><feOffset dx="0" dy="0"/><feGaussianBlur result="blur-5" stdDeviation=".88"/><feFlood flood-color="#010101" flood-opacity=".2"/><feComposite in2="blur-5" operator="in"/><feComposite in="SourceGraphic"/></filter><linearGradient id="linear-gradient-14" x1="437.78" y1="578.82" x2="401.56" y2="605.2" xlink:href="#linear-gradient"/><linearGradient id="linear-gradient-15" x1="448.34" y1="629.45" x2="416.12" y2="652.92" xlink:href="#linear-gradient-2"/><filter id="drop-shadow-10" filterUnits="userSpaceOnUse"><feOffset dx="0" dy="0"/><feGaussianBlur result="blur-6" stdDeviation=".88"/><feFlood flood-color="#010101" flood-opacity=".2"/><feComposite in2="blur-6" operator="in"/><feComposite in="SourceGraphic"/></filter><linearGradient id="linear-gradient-16" x1="420.08" y1="644.91" x2="434.16" y2="644.91" gradientUnits="userSpaceOnUse"><stop offset="0" stop-color="#2db24a"/><stop offset="1" stop-color="#226834"/></linearGradient><linearGradient id="linear-gradient-17" x1="448.34" y1="687.77" x2="416.12" y2="711.24" xlink:href="#linear-gradient-2"/><filter id="drop-shadow-11" filterUnits="userSpaceOnUse"><feOffset dx="0" dy="0"/><feGaussianBlur result="blur-7" stdDeviation=".88"/><feFlood flood-color="#010101" flood-opacity=".2"/><feComposite in2="blur-7" operator="in"/><feComposite in="SourceGraphic"/></filter><linearGradient id="linear-gradient-18" x1="437.78" y1="695.46" x2="407.87" y2="717.25" xlink:href="#linear-gradient"/><linearGradient id="linear-gradient-19" x1="448.34" y1="746.1" x2="416.12" y2="769.57" xlink:href="#linear-gradient-2"/><filter id="drop-shadow-12" filterUnits="userSpaceOnUse"><feOffset dx="0" dy="0"/><feGaussianBlur result="blur-8" stdDeviation=".88"/><feFlood flood-color="#010101" flood-opacity=".2"/><feComposite in2="blur-8" operator="in"/><feComposite in="SourceGraphic"/></filter><linearGradient id="linear-gradient-20" y1="761.55" y2="761.55" xlink:href="#linear-gradient-16"/><linearGradient id="linear-gradient-21" x1="448.34" y1="804.42" x2="416.12" y2="827.89" xlink:href="#linear-gradient-2"/><filter id="drop-shadow-13" filterUnits="userSpaceOnUse"><feOffset dx="0" dy="0"/><feGaussianBlur result="blur-9" stdDeviation=".88"/><feFlood flood-color="#010101" flood-opacity=".2"/><feComposite in2="blur-9" operator="in"/><feComposite in="SourceGraphic"/></filter><linearGradient id="linear-gradient-22" x1="420.08" y1="819.87" x2="434.16" y2="819.87" xlink:href="#linear-gradient"/><linearGradient id="linear-gradient-23" x1="448.34" y1="859.74" x2="416.12" y2="883.2" xlink:href="#linear-gradient-2"/><filter id="drop-shadow-14" filterUnits="userSpaceOnUse"><feOffset dx="0" dy="0"/><feGaussianBlur result="blur-10" stdDeviation=".88"/><feFlood flood-color="#010101" flood-opacity=".2"/><feComposite in2="blur-10" operator="in"/><feComposite in="SourceGraphic"/></filter><linearGradient id="linear-gradient-24" y1="875.19" y2="875.19" xlink:href="#linear-gradient-16"/><linearGradient id="linear-gradient-25" x1="448.34" y1="918.06" x2="416.12" y2="941.53" xlink:href="#linear-gradient-2"/><filter id="drop-shadow-15" filterUnits="userSpaceOnUse"><feOffset dx="0" dy="0"/><feGaussianBlur result="blur-11" stdDeviation=".88"/><feFlood flood-color="#010101" flood-opacity=".2"/><feComposite in2="blur-11" operator="in"/><feComposite in="SourceGraphic"/></filter><linearGradient id="linear-gradient-26" x1="437.78" y1="925.75" x2="407.87" y2="947.53" xlink:href="#linear-gradient"/><linearGradient id="linear-gradient-27" x1="448.34" y1="976.38" x2="416.12" y2="999.85" xlink:href="#linear-gradient-2"/><filter id="drop-shadow-16" filterUnits="userSpaceOnUse"><feOffset dx="0" dy="0"/><feGaussianBlur result="blur-12" stdDeviation=".88"/><feFlood flood-color="#010101" flood-opacity=".2"/><feComposite in2="blur-12" operator="in"/><feComposite in="SourceGraphic"/></filter><linearGradient id="linear-gradient-28" y1="991.84" y2="991.84" xlink:href="#linear-gradient-16"/><linearGradient id="linear-gradient-29" x1="448.34" y1="1034.7" x2="416.12" y2="1058.17" xlink:href="#linear-gradient-2"/><filter id="drop-shadow-17" filterUnits="userSpaceOnUse"><feOffset dx="0" dy="0"/><feGaussianBlur result="blur-13" stdDeviation=".88"/><feFlood flood-color="#010101" flood-opacity=".2"/><feComposite in2="blur-13" operator="in"/><feComposite in="SourceGraphic"/></filter><linearGradient id="linear-gradient-30" x1="420.08" y1="1050.15" x2="434.16" y2="1050.15" xlink:href="#linear-gradient"/><linearGradient id="linear-gradient-31" x1="363.4" y1="485.09" x2="908.6" y2="485.09" xlink:href="#linear-gradient"/><filter id="drop-shadow-18" filterUnits="userSpaceOnUse"><feOffset dx="0" dy="2"/><feGaussianBlur result="blur-14" stdDeviation="2"/><feFlood flood-color="#010101" flood-opacity=".3"/><feComposite in2="blur-14" operator="in"/><feComposite in="SourceGraphic"/></filter><linearGradient id="linear-gradient-32" x1="545.47" y1="224.68" x2="824.15" y2="224.68" gradientTransform="translate(92.23 94.23) rotate(11.4)" xlink:href="#linear-gradient"/><filter id="drop-shadow-19" filterUnits="userSpaceOnUse"><feOffset dx="0" dy="2"/><feGaussianBlur result="blur-15" stdDeviation="2"/><feFlood flood-color="#010101" flood-opacity=".3"/><feComposite in2="blur-15" operator="in"/><feComposite in="SourceGraphic"/></filter><linearGradient id="linear-gradient-33" x1="460.63" y1="285.92" x2="613.7" y2="285.92" gradientTransform="translate(92.23 94.23) rotate(11.4)" xlink:href="#linear-gradient"/><filter id="drop-shadow-20" filterUnits="userSpaceOnUse"><feOffset dx="0" dy="2"/><feGaussianBlur result="blur-16" stdDeviation="2"/><feFlood flood-color="#010101" flood-opacity=".3"/><feComposite in2="blur-16" operator="in"/><feComposite in="SourceGraphic"/></filter><linearGradient id="linear-gradient-34" x1="447.57" y1="1093.02" x2="415.34" y2="1116.49" xlink:href="#linear-gradient-2"/><filter id="drop-shadow-21" filterUnits="userSpaceOnUse"><feOffset dx="0" dy="0"/><feGaussianBlur result="blur-17" stdDeviation=".88"/><feFlood flood-color="#010101" flood-opacity=".2"/><feComposite in2="blur-17" operator="in"/><feComposite in="SourceGraphic"/></filter><linearGradient id="linear-gradient-35" x1="419.31" y1="1108.47" x2="433.38" y2="1108.47" xlink:href="#linear-gradient-16"/></defs><polygon class="cls-7" points="372.14 167.07 107.45 271.6 107.45 933.39 377.13 1041.32 372.14 167.07"/><text class="cls-38" transform="translate(221.46 859.9) rotate(-90)"><tspan class="cls-74" x="0" y="0">MRC :</tspan><tspan class="cls-79" x="141.28" y="0" xml:space="preserve"> ₹ 22,500</tspan></text><text class="cls-43" transform="translate(326.63 517.44) rotate(-90)"><tspan x="0" y="0" xml:space="preserve"> ₹ 27,000</tspan></text><line class="cls-75" x1="304.83" y1="524.89" x2="304.83" y2="222.26"/><path class="cls-12" d="m825.35,5.68h-462.43v1120.99c0,44.34,38.06,80.3,85.02,80.3h465.77V85.98c0-44.35-41.42-80.3-88.37-80.3Z"/><path class="cls-6" d="m830.68,1.67h-465.34v394.94c137.83,188.76,278.79-87.12,550.9,65.34V87.34c0-47.31-38.31-85.67-85.56-85.67Z"/><path class="cls-15" d="m365.33,131.95c52.66,81.49,145.97,149.34,262.25,180.57,101.93,27.37,202.64,21.48,284.16-10.12V90.92c0-46.87-38-84.86-84.86-84.86h-461.55v125.89Z"/><path class="cls-18" d="m802.28,420.43l96.71-374.09c-10.59-17.09-27.01-30.18-46.56-36.35l-104.57,404.47c17.46.39,35.58,2.23,54.41,5.97Z"/><path class="cls-10" d="m560.44,6.06l-117.27,453.59c17.71,5.7,35.85,6.83,54.64,5.1L616.39,6.06h-55.96Z"/><path class="cls-32" d="m826.89,6.06h-23.98l-106.31,411.21c18.12-2.33,36.97-3.44,56.65-2.66L857.38,11.8c-9.47-3.65-19.73-5.74-30.49-5.74Z"/><path class="cls-37" d="m828.17,0h-465.34v394.94c137.83,188.76,278.79-87.12,550.9,65.34V85.67c0-47.31-38.31-85.67-85.56-85.67Z"/><path class="cls-4" d="m362.82,130.28c52.66,81.49,145.97,149.34,262.25,180.57,101.93,27.37,202.64,21.48,284.16-10.12V89.24c0-46.87-38-84.86-84.86-84.86h-461.55v125.89Z"/><path class="cls-8" d="m799.77,418.76l96.71-374.09c-10.59-17.09-27.01-30.18-46.56-36.35l-104.57,404.47c17.46.39,35.58,2.23,54.41,5.97Z"/><path class="cls-36" d="m557.92,4.38l-117.27,453.59c17.71,5.7,35.85,6.83,54.64,5.1L613.88,4.38h-55.96Z"/><path class="cls-13" d="m824.38,4.38h-23.98l-106.31,411.21c18.12-2.33,36.97-3.44,56.65-2.66L854.87,10.12c-9.47-3.65-19.73-5.74-30.49-5.74Z"/><path class="cls-9" d="m441.13,586.58c0,7.74-6.27,14.01-14.01,14.01h0c-7.74,0-14.01-6.27-14.01-14.01h0c0-7.74,6.27-14.01,14.01-14.01h0c7.74,0,14.01,6.27,14.01,14.01h0Z"/><path class="cls-25" d="m434.16,586.58c0,3.89-3.15,7.04-7.04,7.04h0c-3.89,0-7.04-3.15-7.04-7.04h0c0-3.89,3.15-7.04,7.04-7.04h0c3.89,0,7.04,3.15,7.04,7.04h0Z"/><path class="cls-27" d="m441.13,644.91c0,7.74-6.27,14.01-14.01,14.01h0c-7.74,0-14.01-6.27-14.01-14.01h0c0-7.74,6.27-14.01,14.01-14.01h0c7.74,0,14.01,6.27,14.01,14.01h0Z"/><path class="cls-19" d="m434.16,644.91c0,3.89-3.15,7.04-7.04,7.04h0c-3.89,0-7.04-3.15-7.04-7.04h0c0-3.89,3.15-7.04,7.04-7.04h0c3.89,0,7.04,3.15,7.04,7.04h0Z"/><path class="cls-23" d="m441.13,703.23c0,7.74-6.27,14.01-14.01,14.01h0c-7.74,0-14.01-6.27-14.01-14.01h0c0-7.74,6.27-14.01,14.01-14.01h0c7.74,0,14.01,6.27,14.01,14.01h0Z"/><path class="cls-30" d="m434.16,703.23c0,3.89-3.15,7.04-7.04,7.04h0c-3.89,0-7.04-3.15-7.04-7.04h0c0-3.89,3.15-7.04,7.04-7.04h0c3.89,0,7.04,3.15,7.04,7.04h0Z"/><path class="cls-3" d="m441.13,761.55c0,7.74-6.27,14.01-14.01,14.01h0c-7.74,0-14.01-6.27-14.01-14.01h0c0-7.74,6.27-14.01,14.01-14.01h0c7.74,0,14.01,6.27,14.01,14.01h0Z"/><path class="cls-24" d="m434.16,761.55c0,3.89-3.15,7.04-7.04,7.04h0c-3.89,0-7.04-3.15-7.04-7.04h0c0-3.89,3.15-7.04,7.04-7.04h0c3.89,0,7.04,3.15,7.04,7.04h0Z"/><path class="cls-17" d="m441.13,819.87c0,7.74-6.27,14.01-14.01,14.01h0c-7.74,0-14.01-6.27-14.01-14.01h0c0-7.74,6.27-14.01,14.01-14.01h0c7.74,0,14.01,6.27,14.01,14.01h0Z"/><path class="cls-20" d="m434.16,819.87c0,3.89-3.15,7.04-7.04,7.04h0c-3.89,0-7.04-3.15-7.04-7.04h0c0-3.89,3.15-7.04,7.04-7.04h0c3.89,0,7.04,3.15,7.04,7.04h0Z"/><path class="cls-26" d="m441.13,875.19c0,7.74-6.27,14.01-14.01,14.01h0c-7.74,0-14.01-6.27-14.01-14.01h0c0-7.74,6.27-14.01,14.01-14.01h0c7.74,0,14.01,6.27,14.01,14.01h0Z"/><path class="cls-28" d="m434.16,875.19c0,3.89-3.15,7.04-7.04,7.04h0c-3.89,0-7.04-3.15-7.04-7.04h0c0-3.89,3.15-7.04,7.04-7.04h0c3.89,0,7.04,3.15,7.04,7.04h0Z"/><path class="cls-1" d="m441.13,933.51c0,7.74-6.27,14.01-14.01,14.01h0c-7.74,0-14.01-6.27-14.01-14.01h0c0-7.74,6.27-14.01,14.01-14.01h0c7.74,0,14.01,6.27,14.01,14.01h0Z"/><path class="cls-29" d="m434.16,933.51c0,3.89-3.15,7.04-7.04,7.04h0c-3.89,0-7.04-3.15-7.04-7.04h0c0-3.89,3.15-7.04,7.04-7.04h0c3.89,0,7.04,3.15,7.04,7.04h0Z"/><path class="cls-11" d="m441.13,991.84c0,7.74-6.27,14.01-14.01,14.01h0c-7.74,0-14.01-6.27-14.01-14.01h0c0-7.74,6.27-14.01,14.01-14.01h0c7.74,0,14.01,6.27,14.01,14.01h0Z"/><path class="cls-34" d="m434.16,991.84c0,3.89-3.15,7.04-7.04,7.04h0c-3.89,0-7.04-3.15-7.04-7.04h0c0-3.89,3.15-7.04,7.04-7.04h0c3.89,0,7.04,3.15,7.04,7.04h0Z"/><path class="cls-35" d="m441.13,1050.15c0,7.74-6.27,14.01-14.01,14.01h0c-7.74,0-14.01-6.27-14.01-14.01h0c0-7.74,6.27-14.01,14.01-14.01h0c7.74,0,14.01,6.27,14.01,14.01h0Z"/><path class="cls-31" d="m434.16,1050.15c0,3.89-3.15,7.04-7.04,7.04h0c-3.89,0-7.04-3.15-7.04-7.04h0c0-3.89,3.15-7.04,7.04-7.04h0c3.89,0,7.04,3.15,7.04,7.04h0Z"/><path class="cls-14" d="m598.17,496.3c5.19,18.68,27.47,28.81,49.76,22.62,22.3-6.19,36.17-26.35,30.98-45.04-5.19-18.68-27.47-28.81-49.76-22.62-22.3,6.19-36.17,26.35-30.98,45.04Z"/><path class="cls-33" d="m699.07,451.6c.71,9.88,10.85,17.21,22.65,16.36,11.8-.85,20.78-9.55,20.07-19.44-.71-9.88-10.85-17.21-22.65-16.36-11.8.85-20.78,9.55-20.07,19.44Z"/><path class="cls-2" d="m551.29,481.65c.39,5.43,5.96,9.45,12.44,8.99,6.48-.47,11.42-5.25,11.03-10.68-.39-5.43-5.96-9.45-12.44-8.99-6.48.47-11.42,5.25-11.03,10.68Z"/><text class="cls-40" transform="translate(412.74 219.03)"><tspan x="0" y="0">1/2</tspan></text><path class="cls-16" d="m826.89,6.06h-461.55v1083.03c0,46.86,37.99,84.86,84.86,84.86h461.55V90.92c0-46.87-38-84.86-84.86-84.86Z"/><path class="cls-21" d="m364.73,280.31h332.06c24.29,0,44.02,19.72,44.02,44.02h0c0,24.29-19.72,44.02-44.02,44.02h-332.06v-88.04h0Z"/><text class="cls-46" transform="translate(444.36 350.35)"><tspan class="cls-76" x="0" y="0">R</tspan><tspan class="cls-78" x="49.79" y="0">a</tspan><tspan x="98.87" y="0">ck</tspan></text><text class="cls-39" transform="translate(470.72 595.82)"><tspan class="cls-77" x="0" y="0">Rack Space : </tspan><tspan class="cls-63" x="189.26" y="0">21U</tspan></text><text class="cls-39" transform="translate(470.72 654.14)"><tspan class="cls-48" x="0" y="0">P</tspan><tspan class="cls-52" x="19.99" y="0">ower : </tspan><tspan class="cls-72" x="113.63" y="0">2 </tspan><tspan class="cls-70" x="139.46" y="0">K</tspan><tspan class="cls-66" x="158.76" y="0">v</tspan><tspan class="cls-68" x="174.15" y="0">a</tspan></text><text class="cls-42" transform="translate(470.72 712.46)"><tspan class="cls-60" x="0" y="0">P</tspan><tspan class="cls-58" x="19.99" y="0">ower Billing Mode :</tspan><tspan class="cls-44" x="289.62" y="0"> </tspan><tspan class="cls-62" x="297.41" y="0">Bundled</tspan></text><text class="cls-39" transform="translate(470.72 770.78)"><tspan class="cls-52" x="0" y="0">C</tspan><tspan class="cls-51" x="20.63" y="0">r</tspan><tspan class="cls-52" x="31.18" y="0">oss Connects : </tspan><tspan class="cls-72" x="247.82" y="0">1</tspan></text><text class="cls-39" transform="translate(470.72 829.11)"><tspan class="cls-77" x="0" y="0">IP </tspan><tspan class="cls-64" x="36.98" y="0">P</tspan><tspan class="cls-73" x="56.97" y="0">ool : </tspan><tspan class="cls-63" x="125.13" y="0">/30</tspan></text><text class="cls-42" transform="translate(470.72 887.43)"><tspan class="cls-49" x="0" y="0">Internet Bandwidth :</tspan><tspan class="cls-44" x="284.05" y="0"> </tspan><tspan class="cls-56" x="291.84" y="0">50 Mbps</tspan></text><text class="cls-39" transform="translate(470.72 945.75)"><tspan class="cls-77" x="0" y="0">RHES : </tspan><tspan class="cls-72" x="103.21" y="0">6 Hours/ Month</tspan></text><text class="cls-42" transform="translate(470.72 1004.07)"><tspan class="cls-50" x="0" y="0">O</tspan><tspan class="cls-54" x="20.5" y="0">T</tspan><tspan class="cls-47" x="39.25" y="0">C :</tspan><tspan class="cls-44" x="76.12" y="0"> </tspan><tspan class="cls-56" x="83.91" y="0">0</tspan></text><text class="cls-41" transform="translate(469.93 1119.55)"><tspan class="cls-53" x="0" y="0">Of</tspan><tspan class="cls-55" x="33.01" y="0">f</tspan><tspan class="cls-53" x="43.84" y="0">er : </tspan><tspan class="cls-67" x="96.02" y="0">No Upf</tspan><tspan class="cls-71" x="178.97" y="0">r</tspan><tspan class="cls-69" x="187.92" y="0">ont In</tspan><tspan class="cls-65" x="256.09" y="0">v</tspan><tspan class="cls-69" x="269.16" y="0">estment</tspan></text><path class="cls-5" d="m440.36,1108.47c0,7.74-6.27,14.01-14.01,14.01h0c-7.74,0-14.01-6.27-14.01-14.01h0c0-7.74,6.27-14.01,14.01-14.01h0c7.74,0,14.01,6.27,14.01,14.01h0Z"/><path class="cls-22" d="m433.38,1108.47c0,3.89-3.15,7.04-7.04,7.04h0c-3.89,0-7.04-3.15-7.04-7.04h0c0-3.89,3.15-7.04,7.04-7.04h0c3.89,0,7.04,3.15,7.04,7.04h0Z"/><text class="cls-42" transform="translate(469.93 1057.77)"><tspan class="cls-58" x="0" y="0">Cont</tspan><tspan class="cls-59" x="66.69" y="0">r</tspan><tspan class="cls-57" x="77.33" y="0">act </tspan><tspan class="cls-60" x="129.34" y="0">P</tspan><tspan class="cls-58" x="149.33" y="0">eriod :</tspan><tspan class="cls-45" x="237.53" y="0"> </tspan><tspan class="cls-56" x="245.32" y="0">3 </tspan><tspan class="cls-61" x="271.14" y="0">Y</tspan><tspan class="cls-56" x="289.39" y="0">ears</tspan></text></svg>