<?xml version="1.0" encoding="UTF-8"?><svg id="Layer_1" xmlns="http://www.w3.org/2000/svg" xmlns:xlink="http://www.w3.org/1999/xlink" viewBox="0 0 910.19 1231.77"><defs><style>.cls-1{fill:url(#linear-gradient-25);filter:url(#drop-shadow-15);}.cls-1,.cls-2,.cls-3,.cls-4,.cls-5,.cls-6,.cls-7,.cls-8,.cls-9,.cls-10,.cls-11,.cls-12,.cls-13,.cls-14,.cls-15,.cls-16,.cls-17,.cls-18,.cls-19,.cls-20,.cls-21,.cls-22,.cls-23,.cls-24,.cls-25,.cls-26,.cls-27,.cls-28,.cls-29,.cls-30,.cls-31,.cls-32,.cls-33,.cls-34,.cls-35,.cls-36,.cls-37,.cls-38,.cls-39,.cls-40{stroke-width:0px;}.cls-2{fill:url(#linear-gradient-33);filter:url(#drop-shadow-20);}.cls-3{fill:url(#linear-gradient-19);filter:url(#drop-shadow-12);}.cls-4{fill:url(#linear-gradient-9);}.cls-4,.cls-8,.cls-10,.cls-14,.cls-16,.cls-19,.cls-35,.cls-39{opacity:.3;}.cls-5{fill:url(#linear-gradient-34);filter:url(#drop-shadow-21);}.cls-6{fill:url(#linear-gradient-3);filter:url(#drop-shadow-7);}.cls-7{fill:url(#linear-gradient);filter:url(#drop-shadow-5);}.cls-8{fill:url(#linear-gradient-10);}.cls-9{fill:url(#linear-gradient-13);filter:url(#drop-shadow-9);}.cls-10{fill:url(#linear-gradient-6);}.cls-11{fill:url(#linear-gradient-27);filter:url(#drop-shadow-16);}.cls-12{fill:url(#linear-gradient-2);filter:url(#drop-shadow-6);}.cls-13{fill:#206a37;}.cls-14{fill:url(#linear-gradient-12);}.cls-15{fill:url(#linear-gradient-31);filter:url(#drop-shadow-18);}.cls-16{fill:url(#linear-gradient-4);}.cls-17,.cls-41{fill:none;}.cls-18{fill:url(#linear-gradient-21);filter:url(#drop-shadow-13);}.cls-19{fill:url(#linear-gradient-5);}.cls-20{fill:#204295;}.cls-21{fill:url(#linear-gradient-16);}.cls-22{fill:url(#linear-gradient-22);}.cls-23{fill:#fff;}.cls-24{fill:url(#linear-gradient-35);}.cls-25{fill:url(#linear-gradient-17);filter:url(#drop-shadow-11);}.cls-26{fill:url(#linear-gradient-20);}.cls-27{fill:url(#linear-gradient-14);}.cls-28{fill:url(#linear-gradient-23);filter:url(#drop-shadow-14);}.cls-29{fill:#231f20;}.cls-30{fill:url(#linear-gradient-15);filter:url(#drop-shadow-10);}.cls-41{stroke:#fff;stroke-miterlimit:10;stroke-width:6px;}.cls-31{fill:url(#linear-gradient-24);}.cls-32{fill:url(#linear-gradient-26);}.cls-33{fill:url(#linear-gradient-18);}.cls-34{fill:url(#linear-gradient-30);}.cls-35{fill:url(#linear-gradient-7);}.cls-36{fill:url(#linear-gradient-32);filter:url(#drop-shadow-19);}.cls-37{fill:url(#linear-gradient-28);}.cls-38{fill:url(#linear-gradient-29);filter:url(#drop-shadow-17);}.cls-39{fill:url(#linear-gradient-11);}.cls-40{fill:url(#linear-gradient-8);filter:url(#drop-shadow-8);}</style><linearGradient id="linear-gradient" x1="242.29" y1="162.55" x2="242.29" y2="1040.15" gradientUnits="userSpaceOnUse"><stop offset="0" stop-color="#4766b0"/><stop offset="1" stop-color="#204295"/></linearGradient><filter id="drop-shadow-5" filterUnits="userSpaceOnUse"><feOffset dx="-9" dy="0"/><feGaussianBlur result="blur" stdDeviation="13"/><feFlood flood-color="#231f20" flood-opacity=".36"/><feComposite in2="blur" operator="in"/><feComposite in="SourceGraphic"/></filter><linearGradient id="linear-gradient-2" x1="638.32" y1="-.54" x2="638.32" y2="1205.35" gradientUnits="userSpaceOnUse"><stop offset=".04" stop-color="#fff"/><stop offset="1" stop-color="#f0efef"/></linearGradient><filter id="drop-shadow-6" filterUnits="userSpaceOnUse"><feOffset dx="-4" dy="2"/><feGaussianBlur result="blur-2" stdDeviation="9"/><feFlood flood-color="#010101" flood-opacity=".3"/><feComposite in2="blur-2" operator="in"/><feComposite in="SourceGraphic"/></filter><linearGradient id="linear-gradient-3" x1="365.33" y1="233.59" x2="916.23" y2="233.59" xlink:href="#linear-gradient"/><filter id="drop-shadow-7" filterUnits="userSpaceOnUse"><feOffset dx="0" dy="1"/><feGaussianBlur result="blur-3" stdDeviation="3"/><feFlood flood-color="#010101" flood-opacity=".3"/><feComposite in2="blur-3" operator="in"/><feComposite in="SourceGraphic"/></filter><linearGradient id="linear-gradient-4" x1="593.07" y1="205.76" x2="784" y2="-10.63" gradientUnits="userSpaceOnUse"><stop offset="0" stop-color="#fff" stop-opacity=".3"/><stop offset="1" stop-color="#fff" stop-opacity="0"/></linearGradient><linearGradient id="linear-gradient-5" x1="747.87" y1="215.21" x2="898.99" y2="215.21" xlink:href="#linear-gradient-4"/><linearGradient id="linear-gradient-6" x1="443.17" y1="235.78" x2="616.39" y2="235.78" xlink:href="#linear-gradient-4"/><linearGradient id="linear-gradient-7" x1="696.6" y1="211.66" x2="857.38" y2="211.66" xlink:href="#linear-gradient-4"/><linearGradient id="linear-gradient-8" x1="362.82" y1="231.92" x2="913.72" y2="231.92" xlink:href="#linear-gradient"/><filter id="drop-shadow-8" filterUnits="userSpaceOnUse"><feOffset dx="0" dy="1"/><feGaussianBlur result="blur-4" stdDeviation="3"/><feFlood flood-color="#010101" flood-opacity=".3"/><feComposite in2="blur-4" operator="in"/><feComposite in="SourceGraphic"/></filter><linearGradient id="linear-gradient-9" x1="590.56" y1="204.08" x2="781.49" y2="-12.31" xlink:href="#linear-gradient-4"/><linearGradient id="linear-gradient-10" x1="745.36" y1="213.54" x2="896.48" y2="213.54" xlink:href="#linear-gradient-4"/><linearGradient id="linear-gradient-11" x1="440.66" y1="234.1" x2="613.88" y2="234.1" xlink:href="#linear-gradient-4"/><linearGradient id="linear-gradient-12" x1="694.09" y1="209.99" x2="854.87" y2="209.99" xlink:href="#linear-gradient-4"/><linearGradient id="linear-gradient-13" x1="448.34" y1="571.13" x2="416.12" y2="594.6" xlink:href="#linear-gradient-2"/><filter id="drop-shadow-9" filterUnits="userSpaceOnUse"><feOffset dx="0" dy="0"/><feGaussianBlur result="blur-5" stdDeviation=".88"/><feFlood flood-color="#010101" flood-opacity=".2"/><feComposite in2="blur-5" operator="in"/><feComposite in="SourceGraphic"/></filter><linearGradient id="linear-gradient-14" x1="437.78" y1="578.82" x2="401.56" y2="605.2" xlink:href="#linear-gradient"/><linearGradient id="linear-gradient-15" x1="448.34" y1="629.45" x2="416.12" y2="652.92" xlink:href="#linear-gradient-2"/><filter id="drop-shadow-10" filterUnits="userSpaceOnUse"><feOffset dx="0" dy="0"/><feGaussianBlur result="blur-6" stdDeviation=".88"/><feFlood flood-color="#010101" flood-opacity=".2"/><feComposite in2="blur-6" operator="in"/><feComposite in="SourceGraphic"/></filter><linearGradient id="linear-gradient-16" x1="420.08" y1="644.91" x2="434.16" y2="644.91" gradientUnits="userSpaceOnUse"><stop offset="0" stop-color="#2db24a"/><stop offset="1" stop-color="#226834"/></linearGradient><linearGradient id="linear-gradient-17" x1="448.34" y1="687.77" x2="416.12" y2="711.24" xlink:href="#linear-gradient-2"/><filter id="drop-shadow-11" filterUnits="userSpaceOnUse"><feOffset dx="0" dy="0"/><feGaussianBlur result="blur-7" stdDeviation=".88"/><feFlood flood-color="#010101" flood-opacity=".2"/><feComposite in2="blur-7" operator="in"/><feComposite in="SourceGraphic"/></filter><linearGradient id="linear-gradient-18" x1="437.78" y1="695.46" x2="407.87" y2="717.25" xlink:href="#linear-gradient"/><linearGradient id="linear-gradient-19" x1="448.34" y1="746.1" x2="416.12" y2="769.57" xlink:href="#linear-gradient-2"/><filter id="drop-shadow-12" filterUnits="userSpaceOnUse"><feOffset dx="0" dy="0"/><feGaussianBlur result="blur-8" stdDeviation=".88"/><feFlood flood-color="#010101" flood-opacity=".2"/><feComposite in2="blur-8" operator="in"/><feComposite in="SourceGraphic"/></filter><linearGradient id="linear-gradient-20" y1="761.55" y2="761.55" xlink:href="#linear-gradient-16"/><linearGradient id="linear-gradient-21" x1="448.34" y1="804.42" x2="416.12" y2="827.89" xlink:href="#linear-gradient-2"/><filter id="drop-shadow-13" filterUnits="userSpaceOnUse"><feOffset dx="0" dy="0"/><feGaussianBlur result="blur-9" stdDeviation=".88"/><feFlood flood-color="#010101" flood-opacity=".2"/><feComposite in2="blur-9" operator="in"/><feComposite in="SourceGraphic"/></filter><linearGradient id="linear-gradient-22" x1="420.08" y1="819.87" x2="434.16" y2="819.87" xlink:href="#linear-gradient"/><linearGradient id="linear-gradient-23" x1="448.34" y1="859.74" x2="416.12" y2="883.2" xlink:href="#linear-gradient-2"/><filter id="drop-shadow-14" filterUnits="userSpaceOnUse"><feOffset dx="0" dy="0"/><feGaussianBlur result="blur-10" stdDeviation=".88"/><feFlood flood-color="#010101" flood-opacity=".2"/><feComposite in2="blur-10" operator="in"/><feComposite in="SourceGraphic"/></filter><linearGradient id="linear-gradient-24" y1="875.19" y2="875.19" xlink:href="#linear-gradient-16"/><linearGradient id="linear-gradient-25" x1="448.34" y1="918.06" x2="416.12" y2="941.53" xlink:href="#linear-gradient-2"/><filter id="drop-shadow-15" filterUnits="userSpaceOnUse"><feOffset dx="0" dy="0"/><feGaussianBlur result="blur-11" stdDeviation=".88"/><feFlood flood-color="#010101" flood-opacity=".2"/><feComposite in2="blur-11" operator="in"/><feComposite in="SourceGraphic"/></filter><linearGradient id="linear-gradient-26" x1="437.78" y1="925.75" x2="407.87" y2="947.53" xlink:href="#linear-gradient"/><linearGradient id="linear-gradient-27" x1="448.34" y1="976.38" x2="416.12" y2="999.85" xlink:href="#linear-gradient-2"/><filter id="drop-shadow-16" filterUnits="userSpaceOnUse"><feOffset dx="0" dy="0"/><feGaussianBlur result="blur-12" stdDeviation=".88"/><feFlood flood-color="#010101" flood-opacity=".2"/><feComposite in2="blur-12" operator="in"/><feComposite in="SourceGraphic"/></filter><linearGradient id="linear-gradient-28" y1="991.84" y2="991.84" xlink:href="#linear-gradient-16"/><linearGradient id="linear-gradient-29" x1="448.34" y1="1034.7" x2="416.12" y2="1058.17" xlink:href="#linear-gradient-2"/><filter id="drop-shadow-17" filterUnits="userSpaceOnUse"><feOffset dx="0" dy="0"/><feGaussianBlur result="blur-13" stdDeviation=".88"/><feFlood flood-color="#010101" flood-opacity=".2"/><feComposite in2="blur-13" operator="in"/><feComposite in="SourceGraphic"/></filter><linearGradient id="linear-gradient-30" x1="420.08" y1="1050.15" x2="434.16" y2="1050.15" xlink:href="#linear-gradient"/><linearGradient id="linear-gradient-31" x1="363.4" y1="485.09" x2="908.6" y2="485.09" xlink:href="#linear-gradient"/><filter id="drop-shadow-18" filterUnits="userSpaceOnUse"><feOffset dx="0" dy="2"/><feGaussianBlur result="blur-14" stdDeviation="2"/><feFlood flood-color="#010101" flood-opacity=".3"/><feComposite in2="blur-14" operator="in"/><feComposite in="SourceGraphic"/></filter><linearGradient id="linear-gradient-32" x1="545.47" y1="224.68" x2="824.15" y2="224.68" gradientTransform="translate(92.23 94.23) rotate(11.4)" xlink:href="#linear-gradient"/><filter id="drop-shadow-19" filterUnits="userSpaceOnUse"><feOffset dx="0" dy="2"/><feGaussianBlur result="blur-15" stdDeviation="2"/><feFlood flood-color="#010101" flood-opacity=".3"/><feComposite in2="blur-15" operator="in"/><feComposite in="SourceGraphic"/></filter><linearGradient id="linear-gradient-33" x1="460.63" y1="285.92" x2="613.7" y2="285.92" gradientTransform="translate(92.23 94.23) rotate(11.4)" xlink:href="#linear-gradient"/><filter id="drop-shadow-20" filterUnits="userSpaceOnUse"><feOffset dx="0" dy="2"/><feGaussianBlur result="blur-16" stdDeviation="2"/><feFlood flood-color="#010101" flood-opacity=".3"/><feComposite in2="blur-16" operator="in"/><feComposite in="SourceGraphic"/></filter><linearGradient id="linear-gradient-34" x1="447.57" y1="1093.02" x2="415.34" y2="1116.49" xlink:href="#linear-gradient-2"/><filter id="drop-shadow-21" filterUnits="userSpaceOnUse"><feOffset dx="0" dy="0"/><feGaussianBlur result="blur-17" stdDeviation=".88"/><feFlood flood-color="#010101" flood-opacity=".2"/><feComposite in2="blur-17" operator="in"/><feComposite in="SourceGraphic"/></filter><linearGradient id="linear-gradient-35" x1="419.31" y1="1108.47" x2="433.38" y2="1108.47" xlink:href="#linear-gradient-16"/></defs><polygon class="cls-7" points="372.14 167.07 107.45 271.6 107.45 933.39 377.13 1041.32 372.14 167.07"/><path class="cls-23" d="m183,843.89l29.43-5.63-29.43-15.82v-8.56l38.46,6.66v6.5l-13.02-2.25-16.04-3.41,29.06,15.85v4.7l-29.93,5.89,17.59,2.4,12.34,2.14v6.5l-38.46-6.68v-8.29Z"/><path class="cls-23" d="m206.67,796.21v7.34l14.79,2.59v6.53l-38.46-6.68.03-12.12c0-4.17,1-7.37,3.01-9.59,2.01-2.22,4.8-3.18,8.38-2.88,2.49.19,4.64,1.02,6.46,2.48,1.82,1.46,3.26,3.51,4.3,6.15l15.88-5.68.4.03v6.92l-14.79,4.91Zm-5.39,6.45l.05-6.31c0-2.27-.59-4.17-1.78-5.69-1.19-1.52-2.8-2.42-4.85-2.68-1.99-.26-3.52.09-4.58,1.06-1.07.97-1.63,2.44-1.7,4.41l-.03,6.97,12.89,2.25Z"/><path class="cls-23" d="m208.91,749.14c4.02.65,7.22,2.46,9.6,5.42,2.39,2.96,3.54,6.56,3.47,10.8-.05,2.45-.63,4.59-1.74,6.43-1.11,1.84-2.73,3.28-4.85,4.32s-4.52,1.62-7.2,1.74c-2.01.11-4.74-.14-8.2-.74-3.46-.6-6.56-1.75-9.31-3.45-2.75-1.7-4.82-3.79-6.21-6.26s-2.06-5.23-2.01-8.25c.07-3.82,1.27-6.85,3.61-9.07,2.33-2.23,5.55-3.41,9.66-3.55v6.47c-2.75.09-4.73.67-5.96,1.73-1.22,1.07-1.86,2.65-1.92,4.74-.09,2.87.94,5.27,3.09,7.21,2.15,1.94,5.27,3.24,9.37,3.91l3.51.53,2.69.24c1.81.14,3.51.01,5.11-.38,1.59-.4,2.81-1.1,3.64-2.1s1.28-2.28,1.33-3.83c.19-4.91-2.35-8.07-7.63-9.46l-.05-6.45Z"/><path class="cls-23" d="m195.94,727.82c-1.07,0-1.95-.34-2.63-1.02-.68-.68-1.03-1.55-1.07-2.6-.04-1.04.28-1.91.94-2.6.66-.7,1.51-1.04,2.55-1.04s1.87.33,2.55,1c.68.67,1.04,1.54,1.07,2.62.04,1.04-.27,1.91-.92,2.6-.65.7-1.48,1.04-2.48,1.04Zm22.43,3.86c-1.07,0-1.95-.34-2.63-1.02-.68-.68-1.04-1.54-1.07-2.6-.04-1.04.28-1.91.94-2.6.66-.7,1.51-1.04,2.55-1.04s1.87.33,2.55,1,1.03,1.54,1.07,2.62c.04,1.04-.27,1.91-.92,2.6-.65.7-1.48,1.04-2.48,1.04Z"/><path class="cls-23" d="m164.04,647.31v9.61c2.59-.81,5.25-1.16,7.98-1.04l-.04-9.43,8.21,3.61v6.36c5.05,1.65,8.86,4.26,11.43,7.83,2.57,3.56,4.16,8.47,4.76,14.73l24.4-16.15h.68v12.36l-27.24,18-6.41-1.08.09-10.51c0-6.1-2.6-10.67-7.8-13.71l.09,23.95-8.21-3.65v-21.11c-4.48.42-6.8,3.55-6.95,9.38l-.04,12.76-9.2-4.01v-41.63l8.25,3.74Z"/><path class="cls-23" d="m221.46,582.14v42.89l-7.98-1.26-26.21-27.29c-4.96-5.08-9.46-7.88-13.49-8.39-2.86-.39-5.24.09-7.15,1.44-1.91,1.35-2.92,3.38-3.04,6.09-.12,3.34.92,6.15,3.13,8.43s5.22,3.67,9.04,4.15l.05,10.64c-4.03-.3-7.65-1.53-10.87-3.68-3.22-2.15-5.72-5.01-7.51-8.57-1.79-3.56-2.64-7.42-2.55-11.57.12-5.71,1.77-10.23,4.96-13.55,3.19-3.32,7.46-4.79,12.81-4.4,6.13.51,12.61,4.19,19.44,11.05l2.75,2.8,17.86,18.99v-29.18l8.75,1.4Z"/><path class="cls-23" d="m221.46,530.76v42.9l-7.98-1.26-26.21-27.29c-4.96-5.08-9.46-7.88-13.49-8.39-2.86-.39-5.24.09-7.15,1.44-1.91,1.35-2.92,3.38-3.04,6.09-.12,3.34.92,6.15,3.13,8.43s5.22,3.67,9.04,4.15l.05,10.64c-4.03-.3-7.65-1.53-10.87-3.68-3.22-2.15-5.72-5.01-7.51-8.57-1.79-3.56-2.64-7.42-2.55-11.57.12-5.71,1.77-10.23,4.96-13.55,3.19-3.32,7.46-4.79,12.81-4.4,6.13.51,12.61,4.19,19.44,11.05l2.75,2.8,17.86,18.99v-29.18l8.75,1.4Z"/><path class="cls-23" d="m236.25,522.42l-3.61,5.73c-4.75-3.55-8.92-5.73-12.49-6.54l-9.29-1.67v-9.61l7.26,1.17c7.43,1.2,13.47,4.84,18.13,10.92Z"/><path class="cls-23" d="m188.76,494.23l-32.97-8.61v-34.37l9.47,1.49v25.3l15.74,4.65c-1.74-3.07-2.62-6.41-2.62-10.01.06-5.56,2.11-9.84,6.13-12.83,4.03-2.99,9.25-4.22,15.65-3.68,6.58.54,11.97,3.01,16.15,7.4,4.18,4.39,6.21,9.82,6.09,16.28-.12,5.47-1.88,9.92-5.28,13.33-3.4,3.41-7.88,5.21-13.44,5.39v-10.24c3.07-.21,5.47-1.07,7.19-2.59,1.73-1.52,2.62-3.65,2.68-6.38.09-3.34-1.13-6.14-3.65-8.41-2.53-2.27-5.89-3.63-10.1-4.08-3.73-.36-6.74.26-9.04,1.85-2.3,1.59-3.48,3.97-3.54,7.13-.06,1.92.25,3.65.92,5.16.68,1.52,1.62,3,2.82,4.44l-2.21,8.8Z"/><path class="cls-23" d="m222.36,429.64c-.12,5.68-2.08,9.98-5.89,12.9-3.8,2.92-9.13,4.33-15.99,4.24-2.22-.03-4.45-.18-6.68-.45l-11.73-1.76c-9.2-1.47-16.07-4.31-20.61-8.52-4.54-4.21-6.74-9.65-6.58-16.33.12-5.65,2.04-9.95,5.77-12.88,3.73-2.93,9.02-4.35,15.88-4.26,2.25.03,4.48.18,6.67.45l11.41,1.76c9.41,1.53,16.43,4.38,21.04,8.55,4.62,4.17,6.85,9.6,6.7,16.31Zm-40.91-16.19c-3.43-.39-5.86-.59-7.31-.59-6.8.15-10.3,2.63-10.51,7.44-.15,3.67,1.19,6.62,4.01,8.84,2.83,2.23,7.32,3.79,13.49,4.69l14.3,2.07c3.1.36,5.55.53,7.35.5,7.04,0,10.66-2.47,10.87-7.4.39-6.79-4.92-11.17-15.92-13.12l-16.28-2.44Z"/><path class="cls-23" d="m222.36,378.26c-.12,5.68-2.08,9.98-5.89,12.9-3.8,2.92-9.13,4.33-15.99,4.24-2.22-.03-4.45-.18-6.68-.45l-11.73-1.76c-9.2-1.47-16.07-4.31-20.61-8.52-4.54-4.21-6.74-9.65-6.58-16.33.12-5.65,2.04-9.95,5.77-12.88,3.73-2.93,9.02-4.35,15.88-4.26,2.25.03,4.48.18,6.67.45l11.41,1.76c9.41,1.53,16.43,4.38,21.04,8.55,4.62,4.17,6.85,9.6,6.7,16.31Zm-40.91-16.19c-3.43-.39-5.86-.59-7.31-.59-6.8.15-10.3,2.63-10.51,7.44-.15,3.67,1.19,6.62,4.01,8.84,2.83,2.23,7.32,3.79,13.49,4.69l14.3,2.07c3.1.36,5.55.53,7.35.5,7.04,0,10.66-2.47,10.87-7.4.39-6.79-4.92-11.17-15.92-13.12l-16.28-2.44Z"/><path class="cls-23" d="m283.74,464.17v7.18c1.93-.61,3.92-.86,5.96-.77l-.03-7.04,6.13,2.7v4.75c3.77,1.24,6.62,3.18,8.54,5.85,1.92,2.66,3.11,6.33,3.55,11l18.23-12.06h.51v9.23l-20.35,13.44-4.79-.81.07-7.85c0-4.56-1.94-7.97-5.83-10.24l.07,17.89-6.13-2.73v-15.77c-3.35.31-5.08,2.65-5.19,7.01l-.03,9.53-6.87-3v-31.1l6.17,2.8Z"/><path class="cls-23" d="m326.63,415.49v32.04l-5.96-.94-19.58-20.38c-3.71-3.8-7.06-5.88-10.07-6.27-2.13-.29-3.91.07-5.34,1.08-1.43,1.01-2.18,2.53-2.27,4.55-.09,2.49.69,4.59,2.34,6.3,1.65,1.71,3.9,2.74,6.76,3.1l.03,7.95c-3.01-.22-5.72-1.14-8.12-2.75-2.4-1.61-4.27-3.74-5.61-6.4-1.34-2.66-1.97-5.54-1.9-8.64.09-4.27,1.32-7.64,3.71-10.12s5.57-3.58,9.57-3.29c4.58.38,9.42,3.13,14.52,8.25l2.05,2.09,13.34,14.18v-21.8l6.54,1.04Z"/><path class="cls-23" d="m282.53,370.55l44.1,25.74v8.73l-42.48-25.64v24.46l-6.57-1.04v-33.02l4.95.77Z"/><path class="cls-23" d="m337.68,370.88l-2.7,4.28c-3.55-2.65-6.66-4.28-9.33-4.89l-6.94-1.25v-7.18l5.42.88c5.55.9,10.06,3.62,13.54,8.15Z"/><path class="cls-23" d="m327.3,339.95c-.09,4.25-1.55,7.46-4.4,9.64-2.84,2.18-6.82,3.23-11.94,3.17-1.66-.02-3.32-.13-4.99-.34l-8.76-1.31c-6.87-1.1-12.01-3.22-15.4-6.37-3.39-3.14-5.03-7.21-4.92-12.2.09-4.22,1.53-7.43,4.31-9.62,2.79-2.19,6.74-3.25,11.86-3.18,1.68.02,3.35.13,4.99.34l8.52,1.31c7.03,1.15,12.27,3.27,15.72,6.38,3.45,3.11,5.12,7.17,5,12.18Zm-30.56-12.1c-2.56-.29-4.38-.44-5.46-.44-5.08.11-7.69,1.97-7.85,5.56-.11,2.74.89,4.94,3,6.6,2.11,1.66,5.47,2.83,10.07,3.5l10.68,1.55c2.31.27,4.14.39,5.49.37,5.26,0,7.96-1.84,8.12-5.53.29-5.08-3.67-8.34-11.89-9.8l-12.16-1.82Z"/><path class="cls-23" d="m327.3,301.58c-.09,4.25-1.55,7.46-4.4,9.64-2.84,2.18-6.82,3.23-11.94,3.17-1.66-.02-3.32-.13-4.99-.34l-8.76-1.31c-6.87-1.1-12.01-3.22-15.4-6.37-3.39-3.14-5.03-7.21-4.92-12.2.09-4.22,1.53-7.43,4.31-9.62,2.79-2.19,6.74-3.25,11.86-3.18,1.68.02,3.35.13,4.99.34l8.52,1.31c7.03,1.15,12.27,3.27,15.72,6.38,3.45,3.11,5.12,7.17,5,12.18Zm-30.56-12.1c-2.56-.29-4.38-.44-5.46-.44-5.08.11-7.69,1.97-7.85,5.56-.11,2.74.89,4.94,3,6.6,2.11,1.66,5.47,2.83,10.07,3.5l10.68,1.55c2.31.27,4.14.39,5.49.37,5.26,0,7.96-1.84,8.12-5.53.29-5.08-3.67-8.34-11.89-9.8l-12.16-1.82Z"/><path class="cls-23" d="m327.3,263.21c-.09,4.25-1.55,7.46-4.4,9.64-2.84,2.18-6.82,3.23-11.94,3.17-1.66-.02-3.32-.13-4.99-.34l-8.76-1.31c-6.87-1.1-12.01-3.22-15.4-6.37-3.39-3.14-5.03-7.21-4.92-12.2.09-4.22,1.53-7.43,4.31-9.62,2.79-2.19,6.74-3.25,11.86-3.18,1.68.02,3.35.13,4.99.34l8.52,1.31c7.03,1.15,12.27,3.27,15.72,6.38,3.45,3.11,5.12,7.17,5,12.18Zm-30.56-12.1c-2.56-.29-4.38-.44-5.46-.44-5.08.11-7.69,1.97-7.85,5.56-.11,2.74.89,4.94,3,6.6,2.11,1.66,5.47,2.83,10.07,3.5l10.68,1.55c2.31.27,4.14.39,5.49.37,5.26,0,7.96-1.84,8.12-5.53.29-5.08-3.67-8.34-11.89-9.8l-12.16-1.82Z"/><line class="cls-41" x1="304.83" y1="524.89" x2="304.83" y2="222.26"/><path class="cls-12" d="m825.35,5.68h-462.43v1120.99c0,44.34,38.06,80.3,85.02,80.3h465.77V85.98c0-44.35-41.42-80.3-88.37-80.3Z"/><path class="cls-6" d="m830.68,1.67h-465.34v394.94c137.83,188.76,278.79-87.12,550.9,65.34V87.34c0-47.31-38.31-85.67-85.56-85.67Z"/><path class="cls-16" d="m365.33,131.95c52.66,81.49,145.97,149.34,262.25,180.57,101.93,27.37,202.64,21.48,284.16-10.12V90.92c0-46.87-38-84.86-84.86-84.86h-461.55v125.89Z"/><path class="cls-19" d="m802.28,420.43l96.71-374.09c-10.59-17.09-27.01-30.18-46.56-36.35l-104.57,404.47c17.46.39,35.58,2.23,54.41,5.97Z"/><path class="cls-10" d="m560.44,6.06l-117.27,453.59c17.71,5.7,35.85,6.83,54.64,5.1L616.39,6.06h-55.96Z"/><path class="cls-35" d="m826.89,6.06h-23.98l-106.31,411.21c18.12-2.33,36.97-3.44,56.65-2.66L857.38,11.8c-9.47-3.65-19.73-5.74-30.49-5.74Z"/><path class="cls-40" d="m828.17,0h-465.34v394.94c137.83,188.76,278.79-87.12,550.9,65.34V85.67c0-47.31-38.31-85.67-85.56-85.67Z"/><path class="cls-4" d="m362.82,130.28c52.66,81.49,145.97,149.34,262.25,180.57,101.93,27.37,202.64,21.48,284.16-10.12V89.24c0-46.87-38-84.86-84.86-84.86h-461.55v125.89Z"/><path class="cls-8" d="m799.77,418.76l96.71-374.09c-10.59-17.09-27.01-30.18-46.56-36.35l-104.57,404.47c17.46.39,35.58,2.23,54.41,5.97Z"/><path class="cls-39" d="m557.92,4.38l-117.27,453.59c17.71,5.7,35.85,6.83,54.64,5.1L613.88,4.38h-55.96Z"/><path class="cls-14" d="m824.38,4.38h-23.98l-106.31,411.21c18.12-2.33,36.97-3.44,56.65-2.66L854.87,10.12c-9.47-3.65-19.73-5.74-30.49-5.74Z"/><path class="cls-9" d="m441.13,586.58c0,7.74-6.27,14.01-14.01,14.01h0c-7.74,0-14.01-6.27-14.01-14.01h0c0-7.74,6.27-14.01,14.01-14.01h0c7.74,0,14.01,6.27,14.01,14.01h0Z"/><path class="cls-27" d="m434.16,586.58c0,3.89-3.15,7.04-7.04,7.04h0c-3.89,0-7.04-3.15-7.04-7.04h0c0-3.89,3.15-7.04,7.04-7.04h0c3.89,0,7.04,3.15,7.04,7.04h0Z"/><path class="cls-30" d="m441.13,644.91c0,7.74-6.27,14.01-14.01,14.01h0c-7.74,0-14.01-6.27-14.01-14.01h0c0-7.74,6.27-14.01,14.01-14.01h0c7.74,0,14.01,6.27,14.01,14.01h0Z"/><path class="cls-21" d="m434.16,644.91c0,3.89-3.15,7.04-7.04,7.04h0c-3.89,0-7.04-3.15-7.04-7.04h0c0-3.89,3.15-7.04,7.04-7.04h0c3.89,0,7.04,3.15,7.04,7.04h0Z"/><path class="cls-25" d="m441.13,703.23c0,7.74-6.27,14.01-14.01,14.01h0c-7.74,0-14.01-6.27-14.01-14.01h0c0-7.74,6.27-14.01,14.01-14.01h0c7.74,0,14.01,6.27,14.01,14.01h0Z"/><path class="cls-33" d="m434.16,703.23c0,3.89-3.15,7.04-7.04,7.04h0c-3.89,0-7.04-3.15-7.04-7.04h0c0-3.89,3.15-7.04,7.04-7.04h0c3.89,0,7.04,3.15,7.04,7.04h0Z"/><path class="cls-3" d="m441.13,761.55c0,7.74-6.27,14.01-14.01,14.01h0c-7.74,0-14.01-6.27-14.01-14.01h0c0-7.74,6.27-14.01,14.01-14.01h0c7.74,0,14.01,6.27,14.01,14.01h0Z"/><path class="cls-26" d="m434.16,761.55c0,3.89-3.15,7.04-7.04,7.04h0c-3.89,0-7.04-3.15-7.04-7.04h0c0-3.89,3.15-7.04,7.04-7.04h0c3.89,0,7.04,3.15,7.04,7.04h0Z"/><path class="cls-18" d="m441.13,819.87c0,7.74-6.27,14.01-14.01,14.01h0c-7.74,0-14.01-6.27-14.01-14.01h0c0-7.74,6.27-14.01,14.01-14.01h0c7.74,0,14.01,6.27,14.01,14.01h0Z"/><path class="cls-22" d="m434.16,819.87c0,3.89-3.15,7.04-7.04,7.04h0c-3.89,0-7.04-3.15-7.04-7.04h0c0-3.89,3.15-7.04,7.04-7.04h0c3.89,0,7.04,3.15,7.04,7.04h0Z"/><path class="cls-28" d="m441.13,875.19c0,7.74-6.27,14.01-14.01,14.01h0c-7.74,0-14.01-6.27-14.01-14.01h0c0-7.74,6.27-14.01,14.01-14.01h0c7.74,0,14.01,6.27,14.01,14.01h0Z"/><path class="cls-31" d="m434.16,875.19c0,3.89-3.15,7.04-7.04,7.04h0c-3.89,0-7.04-3.15-7.04-7.04h0c0-3.89,3.15-7.04,7.04-7.04h0c3.89,0,7.04,3.15,7.04,7.04h0Z"/><path class="cls-1" d="m441.13,933.51c0,7.74-6.27,14.01-14.01,14.01h0c-7.74,0-14.01-6.27-14.01-14.01h0c0-7.74,6.27-14.01,14.01-14.01h0c7.74,0,14.01,6.27,14.01,14.01h0Z"/><path class="cls-32" d="m434.16,933.51c0,3.89-3.15,7.04-7.04,7.04h0c-3.89,0-7.04-3.15-7.04-7.04h0c0-3.89,3.15-7.04,7.04-7.04h0c3.89,0,7.04,3.15,7.04,7.04h0Z"/><path class="cls-11" d="m441.13,991.84c0,7.74-6.27,14.01-14.01,14.01h0c-7.74,0-14.01-6.27-14.01-14.01h0c0-7.74,6.27-14.01,14.01-14.01h0c7.74,0,14.01,6.27,14.01,14.01h0Z"/><path class="cls-37" d="m434.16,991.84c0,3.89-3.15,7.04-7.04,7.04h0c-3.89,0-7.04-3.15-7.04-7.04h0c0-3.89,3.15-7.04,7.04-7.04h0c3.89,0,7.04,3.15,7.04,7.04h0Z"/><path class="cls-38" d="m441.13,1050.15c0,7.74-6.27,14.01-14.01,14.01h0c-7.74,0-14.01-6.27-14.01-14.01h0c0-7.74,6.27-14.01,14.01-14.01h0c7.74,0,14.01,6.27,14.01,14.01h0Z"/><path class="cls-34" d="m434.16,1050.15c0,3.89-3.15,7.04-7.04,7.04h0c-3.89,0-7.04-3.15-7.04-7.04h0c0-3.89,3.15-7.04,7.04-7.04h0c3.89,0,7.04,3.15,7.04,7.04h0Z"/><path class="cls-15" d="m598.17,496.3c5.19,18.68,27.47,28.81,49.76,22.62,22.3-6.19,36.17-26.35,30.98-45.04-5.19-18.68-27.47-28.81-49.76-22.62-22.3,6.19-36.17,26.35-30.98,45.04Z"/><path class="cls-36" d="m699.07,451.6c.71,9.88,10.85,17.21,22.65,16.36,11.8-.85,20.78-9.55,20.07-19.44-.71-9.88-10.85-17.21-22.65-16.36-11.8.85-20.78,9.55-20.07,19.44Z"/><path class="cls-2" d="m551.29,481.65c.39,5.43,5.96,9.45,12.44,8.99,6.48-.47,11.42-5.25,11.03-10.68-.39-5.43-5.96-9.45-12.44-8.99-6.48.47-11.42,5.25-11.03,10.68Z"/><path class="cls-23" d="m474.11,219.03h-22.6l19.34-111.46-35.24,11.68,3.54-20.59,55.15-19.53h3.45l-23.65,139.9Z"/><path class="cls-23" d="m528.21,231h-18.77l79.47-151.39h18.86l-79.57,151.39Z"/><path class="cls-23" d="m690.13,219.03h-91.06l2.68-16.95,57.93-55.63c10.79-10.53,16.72-20.08,17.81-28.63.83-6.06-.19-11.12-3.06-15.18-2.87-4.05-7.18-6.21-12.93-6.46-7.09-.25-13.06,1.96-17.91,6.65-4.85,4.69-7.79,11.09-8.81,19.2l-22.6.1c.64-8.55,3.24-16.25,7.8-23.08,4.56-6.83,10.63-12.14,18.19-15.94,7.56-3.8,15.75-5.6,24.56-5.41,12.13.26,21.72,3.77,28.77,10.53,7.05,6.77,10.17,15.83,9.34,27.19-1.09,13.02-8.9,26.78-23.46,41.27l-5.94,5.84-40.31,37.92h61.95l-2.97,18.58Z"/><path class="cls-17" d="m826.89,6.06h-461.55v1083.03c0,46.86,37.99,84.86,84.86,84.86h461.55V90.92c0-46.87-38-84.86-84.86-84.86Z"/><path class="cls-23" d="m364.73,280.31h332.06c24.29,0,44.02,19.72,44.02,44.02h0c0,24.29-19.72,44.02-44.02,44.02h-332.06v-88.04h0Z"/><path class="cls-20" d="m445.56,350.35l12.07-56.75h23.58c2.77,0,5.16.73,7.15,2.2,2,1.47,3.52,3.37,4.55,5.71,1.04,2.35,1.56,4.82,1.56,7.43,0,2.13-.36,4.24-1.08,6.31-.72,2.08-1.73,4.02-3.04,5.83-1.31,1.81-2.83,3.38-4.56,4.72-1.73,1.33-3.61,2.32-5.63,2.96l7.99,21.58h-10.15l-7.35-19.74h-11.91l-4.16,19.74h-9.03Zm29.33-27.65c1.33,0,2.61-.36,3.84-1.08,1.22-.72,2.33-1.69,3.32-2.92.98-1.23,1.76-2.6,2.32-4.12.56-1.52.84-3.08.84-4.68s-.27-3.02-.8-4.28c-.53-1.25-1.27-2.25-2.2-3-.93-.75-2.01-1.12-3.24-1.12h-13.99l-4.55,21.18h14.47Z"/><path class="cls-20" d="m510.53,351.15c-3.09,0-5.76-.77-7.99-2.3-2.24-1.53-3.94-3.59-5.11-6.18-1.17-2.59-1.76-5.46-1.76-8.63,0-3.38.61-6.61,1.84-9.7,1.23-3.09,2.92-5.83,5.08-8.24,2.16-2.4,4.62-4.31,7.39-5.74,2.77-1.42,5.67-2.14,8.71-2.14s5.6.82,7.67,2.46c2.08,1.64,3.52,3.67,4.32,6.1l1.68-7.91h8.87l-6.71,30.74c-.05.26-.09.48-.12.67-.03.18-.04.35-.04.51,0,1.05.61,1.59,1.84,1.65l-1.6,7.51c-.75.11-1.41.2-2,.28-.59.08-1.12.12-1.6.12-1.65,0-2.93-.34-3.84-1.01s-1.36-1.64-1.36-2.89c0-.25.01-.55.04-.9.03-.35.08-.75.16-1.2s.2-.95.36-1.5c-2.08,2.64-4.54,4.69-7.39,6.14-2.85,1.45-5.66,2.18-8.43,2.18Zm3.84-7.51c1.06,0,2.2-.21,3.4-.63,1.2-.42,2.37-.99,3.52-1.73s2.2-1.6,3.16-2.59,1.73-2.07,2.32-3.22l2.24-10.85c-.21-1.68-.77-3.18-1.68-4.52-.91-1.34-2.01-2.4-3.32-3.18-1.31-.79-2.71-1.18-4.2-1.18-2.03,0-3.93.49-5.71,1.46-1.79.97-3.36,2.27-4.72,3.9-1.36,1.63-2.44,3.44-3.24,5.44s-1.2,4.02-1.2,6.07.39,3.96,1.16,5.59c.77,1.63,1.87,2.94,3.28,3.94,1.41,1,3.08,1.5,5,1.5Z"/><path class="cls-20" d="m561.44,351.15c-3.62,0-6.67-.79-9.15-2.38-2.48-1.58-4.36-3.69-5.63-6.33-1.28-2.64-1.92-5.57-1.92-8.79s.64-6.5,1.92-9.54c1.28-3.03,3.06-5.74,5.36-8.12,2.29-2.38,5-4.26,8.11-5.66,3.12-1.4,6.51-2.1,10.19-2.1,4.32,0,7.75.95,10.31,2.84,2.56,1.89,4.24,4.41,5.04,7.55l-9.11,2.72c-.59-1.81-1.53-3.2-2.84-4.16-1.31-.96-2.95-1.44-4.92-1.44s-3.77.43-5.55,1.3-3.38,2.08-4.79,3.63-2.53,3.34-3.36,5.36c-.83,2.02-1.24,4.22-1.24,6.58,0,2.15.37,4.04,1.12,5.67s1.8,2.93,3.16,3.9c1.36.97,2.92,1.46,4.67,1.46,1.33,0,2.68-.25,4.04-.76,1.36-.51,2.6-1.2,3.72-2.08,1.12-.88,1.97-1.85,2.56-2.92l8.07,2.56c-1.28,2.08-2.94,3.92-4.99,5.51-2.05,1.6-4.33,2.86-6.83,3.8-2.51.93-5.14,1.4-7.91,1.4Z"/><path class="cls-20" d="m598.45,292.01h8.79l-12.39,58.34h-8.79l12.39-58.34Zm6.79,38.83c4.8-1.05,8.45-2.69,10.95-4.9s3.76-4.51,3.76-6.88c0-1.26-.33-2.17-1-2.73s-1.56-.83-2.68-.83c-2.19,0-4.45.79-6.79,2.37-2.35,1.58-4.52,3.69-6.51,6.33-2,2.64-3.5,5.51-4.52,8.62l1.76-11.42c1.65-2.48,3.46-4.72,5.44-6.7,1.97-1.98,4.1-3.56,6.39-4.72,2.29-1.16,4.74-1.75,7.35-1.75,2.88,0,5.02.79,6.43,2.38s2.12,3.68,2.12,6.27c0,3.44-1.09,6.6-3.28,9.48-2.19,2.88-5.36,5.25-9.51,7.1l8.55,16.9h-9.43l-9.03-19.51Z"/><path class="cls-20" d="m481.25,587.18h-4.35v8.64h-3.9v-22.46h7.9c2.59,0,4.59.58,6,1.74,1.41,1.16,2.11,2.85,2.11,5.05,0,1.5-.36,2.76-1.09,3.78-.73,1.01-1.74,1.79-3.03,2.34l5.04,9.35v.2h-4.18l-4.51-8.64Zm-4.35-3.15h4.01c1.32,0,2.34-.33,3.08-1s1.11-1.57,1.11-2.72-.34-2.13-1.03-2.79-1.71-1-3.06-1.02h-4.12v7.53Z"/><path class="cls-20" d="m502.33,595.82c-.16-.32-.31-.84-.43-1.56-1.19,1.24-2.65,1.87-4.38,1.87s-3.04-.48-4.1-1.43c-1.06-.96-1.59-2.14-1.59-3.55,0-1.78.66-3.14,1.98-4.1,1.32-.95,3.21-1.43,5.67-1.43h2.3v-1.09c0-.86-.24-1.56-.73-2.08-.48-.52-1.22-.78-2.21-.78-.85,0-1.55.21-2.1.64s-.82.97-.82,1.63h-3.75c0-.92.3-1.77.91-2.57.61-.8,1.43-1.42,2.48-1.87,1.04-.45,2.21-.68,3.49-.68,1.95,0,3.51.49,4.67,1.47,1.16.98,1.76,2.36,1.79,4.14v7.53c0,1.5.21,2.7.63,3.59v.26h-3.83Zm-4.12-2.7c.74,0,1.44-.18,2.09-.54.65-.36,1.14-.84,1.47-1.45v-3.15h-2.02c-1.39,0-2.43.24-3.13.73-.7.48-1.05,1.17-1.05,2.05,0,.72.24,1.29.72,1.72s1.12.64,1.92.64Z"/><path class="cls-20" d="m516.3,593.13c.94,0,1.71-.27,2.33-.82s.95-1.22.99-2.02h3.53c-.04,1.04-.37,2.01-.97,2.91-.61.9-1.43,1.61-2.47,2.14-1.04.52-2.16.79-3.36.79-2.34,0-4.19-.76-5.55-2.27s-2.05-3.6-2.05-6.26v-.39c0-2.54.68-4.57,2.04-6.1,1.36-1.53,3.21-2.29,5.55-2.29,1.98,0,3.6.58,4.85,1.74s1.9,2.68,1.97,4.56h-3.53c-.04-.96-.37-1.74-.98-2.36-.61-.62-1.39-.93-2.34-.93-1.21,0-2.15.44-2.81,1.32-.66.88-.99,2.21-1,4v.6c0,1.81.33,3.16.98,4.05.65.89,1.6,1.33,2.83,1.33Z"/><path class="cls-20" d="m531.4,588.66l-1.67,1.71v5.45h-3.75v-23.7h3.75v13.67l1.17-1.47,4.61-5.2h4.51l-6.2,6.96,6.86,9.73h-4.33l-4.95-7.16Z"/><path class="cls-20" d="m562.44,590.03c0-.99-.35-1.75-1.04-2.28-.69-.53-1.95-1.07-3.76-1.62-1.81-.54-3.25-1.15-4.32-1.82-2.04-1.29-3.07-2.96-3.07-5.03,0-1.81.74-3.3,2.21-4.47,1.48-1.17,3.39-1.76,5.75-1.76,1.56,0,2.96.29,4.18.86,1.22.58,2.19,1.4,2.88,2.46s1.05,2.24,1.05,3.54h-3.89c0-1.17-.37-2.09-1.1-2.75-.74-.66-1.79-1-3.15-1-1.28,0-2.27.27-2.97.82s-1.06,1.31-1.06,2.28c0,.82.38,1.51,1.14,2.06.76.55,2.02,1.08,3.77,1.6,1.75.52,3.15,1.11,4.21,1.77,1.06.66,1.84,1.42,2.33,2.28.49.86.74,1.86.74,3.02,0,1.87-.72,3.36-2.15,4.47s-3.38,1.66-5.84,1.66c-1.62,0-3.12-.3-4.48-.9s-2.42-1.43-3.18-2.49c-.76-1.06-1.13-2.29-1.13-3.7h3.9c0,1.28.42,2.26,1.26,2.96.84.7,2.05,1.05,3.62,1.05,1.36,0,2.38-.28,3.06-.83.68-.55,1.03-1.28,1.03-2.18Z"/><path class="cls-20" d="m584.02,587.64c0,2.58-.59,4.64-1.76,6.18-1.17,1.54-2.75,2.31-4.72,2.31-1.83,0-3.3-.6-4.4-1.8v7.91h-3.75v-23.11h3.46l.15,1.7c1.1-1.34,2.6-2,4.49-2,2.04,0,3.63.76,4.79,2.28,1.16,1.52,1.73,3.62,1.73,6.32v.23Zm-3.73-.32c0-1.67-.33-2.99-.99-3.96-.66-.98-1.61-1.47-2.85-1.47-1.53,0-2.63.63-3.3,1.9v7.41c.68,1.3,1.79,1.94,3.33,1.94,1.19,0,2.13-.48,2.8-1.44.67-.96,1.01-2.42,1.01-4.37Z"/><path class="cls-20" d="m597.17,595.82c-.16-.32-.31-.84-.43-1.56-1.19,1.24-2.65,1.87-4.38,1.87s-3.04-.48-4.1-1.43c-1.06-.96-1.59-2.14-1.59-3.55,0-1.78.66-3.14,1.98-4.1,1.32-.95,3.21-1.43,5.67-1.43h2.3v-1.09c0-.86-.24-1.56-.73-2.08-.48-.52-1.22-.78-2.21-.78-.85,0-1.55.21-2.1.64s-.82.97-.82,1.63h-3.75c0-.92.3-1.77.91-2.57.61-.8,1.43-1.42,2.48-1.87,1.04-.45,2.21-.68,3.49-.68,1.95,0,3.51.49,4.67,1.47,1.16.98,1.76,2.36,1.79,4.14v7.53c0,1.5.21,2.7.63,3.59v.26h-3.83Zm-4.12-2.7c.74,0,1.44-.18,2.09-.54.65-.36,1.14-.84,1.47-1.45v-3.15h-2.02c-1.39,0-2.43.24-3.13.73-.7.48-1.05,1.17-1.05,2.05,0,.72.24,1.29.72,1.72s1.12.64,1.92.64Z"/><path class="cls-20" d="m611.15,593.13c.94,0,1.71-.27,2.33-.82s.95-1.22.99-2.02h3.53c-.04,1.04-.37,2.01-.97,2.91-.61.9-1.43,1.61-2.47,2.14-1.04.52-2.16.79-3.36.79-2.34,0-4.19-.76-5.55-2.27s-2.05-3.6-2.05-6.26v-.39c0-2.54.68-4.57,2.04-6.1,1.36-1.53,3.21-2.29,5.55-2.29,1.98,0,3.6.58,4.85,1.74s1.9,2.68,1.97,4.56h-3.53c-.04-.96-.37-1.74-.98-2.36-.61-.62-1.39-.93-2.34-.93-1.21,0-2.15.44-2.81,1.32-.66.88-.99,2.21-1,4v.6c0,1.81.33,3.16.98,4.05.65.89,1.6,1.33,2.83,1.33Z"/><path class="cls-20" d="m628.18,596.13c-2.38,0-4.3-.75-5.78-2.25-1.48-1.5-2.21-3.49-2.21-5.98v-.46c0-1.67.32-3.15.96-4.47s1.54-2.33,2.71-3.06c1.16-.73,2.46-1.09,3.89-1.09,2.27,0,4.03.72,5.27,2.17,1.24,1.45,1.86,3.5,1.86,6.16v1.51h-10.91c.11,1.38.57,2.47,1.38,3.27.81.8,1.82,1.2,3.05,1.2,1.72,0,3.12-.69,4.2-2.08l2.02,1.93c-.67,1-1.56,1.77-2.68,2.32s-2.37.83-3.76.83Zm-.45-14.3c-1.03,0-1.86.36-2.49,1.08s-1.04,1.72-1.21,3.01h7.14v-.28c-.08-1.25-.42-2.2-1-2.85-.59-.64-1.4-.96-2.44-.96Z"/><path class="cls-20" d="m647.91,578.77c.7,0,1.24.2,1.62.59.38.4.57.89.57,1.49s-.19,1.07-.57,1.46c-.38.39-.92.58-1.62.58s-1.2-.19-1.59-.57c-.39-.38-.59-.87-.59-1.47s.19-1.09.57-1.49c.38-.4.91-.59,1.6-.59Zm0,13.1c.7,0,1.24.2,1.62.59.38.4.57.89.57,1.49s-.19,1.07-.57,1.46c-.38.39-.92.58-1.62.58s-1.2-.19-1.59-.57c-.39-.38-.59-.87-.59-1.46s.19-1.09.57-1.49c.38-.4.91-.59,1.6-.59Z"/><path class="cls-29" d="m676.76,595.82h-15.1v-2.58l7.48-8.16c1.08-1.2,1.85-2.21,2.31-3.02.46-.81.69-1.62.69-2.43,0-1.07-.3-1.93-.9-2.59s-1.41-.99-2.43-.99c-1.21,0-2.16.37-2.82,1.11-.67.74-1,1.75-1,3.04h-3.75c0-1.37.31-2.6.93-3.69.62-1.1,1.51-1.95,2.67-2.55,1.16-.61,2.49-.91,4-.91,2.18,0,3.9.55,5.16,1.64,1.26,1.1,1.89,2.61,1.89,4.54,0,1.12-.32,2.3-.95,3.53-.63,1.23-1.67,2.62-3.11,4.19l-5.49,5.88h10.43v2.99Z"/><path class="cls-29" d="m689.76,595.82h-3.73v-18.04l-5.51,1.88v-3.15l8.76-3.22h.48v22.54Z"/><path class="cls-29" d="m714.6,573.36v15.01c0,2.39-.76,4.28-2.29,5.67-1.53,1.39-3.56,2.09-6.1,2.09s-4.61-.69-6.12-2.06-2.27-3.28-2.27-5.72v-14.99h3.89v15.03c0,1.5.38,2.65,1.14,3.44.76.79,1.88,1.19,3.36,1.19,3,0,4.51-1.58,4.51-4.75v-14.9h3.89Z"/><path class="cls-13" d="m476.9,645.81v8.33h-3.9v-22.46h8.59c2.51,0,4.5.65,5.98,1.96,1.47,1.31,2.21,3.04,2.21,5.19s-.72,3.92-2.17,5.14c-1.45,1.22-3.47,1.84-6.07,1.84h-4.64Zm0-3.15h4.69c1.39,0,2.45-.33,3.18-.98s1.1-1.6,1.1-2.83-.37-2.18-1.11-2.91c-.74-.72-1.76-1.1-3.05-1.12h-4.8v7.84Z"/><path class="cls-13" d="m491.93,645.64c0-1.64.32-3.11.97-4.42s1.56-2.32,2.73-3.02,2.52-1.06,4.04-1.06c2.25,0,4.08.72,5.48,2.17s2.16,3.37,2.28,5.77l.02.88c0,1.65-.32,3.12-.95,4.41-.63,1.29-1.54,2.3-2.71,3.01s-2.54,1.06-4.08,1.06c-2.36,0-4.24-.78-5.65-2.35s-2.12-3.66-2.12-6.27v-.18Zm3.75.32c0,1.72.35,3.06,1.06,4.03.71.97,1.7,1.46,2.96,1.46s2.25-.49,2.96-1.48c.7-.99,1.06-2.43,1.06-4.33,0-1.69-.36-3.02-1.09-4.01s-1.71-1.48-2.96-1.48-2.2.49-2.92,1.46c-.72.97-1.08,2.42-1.08,4.36Z"/><path class="cls-13" d="m525.28,648.97l2.65-11.52h3.66l-4.55,16.69h-3.09l-3.58-11.46-3.52,11.46h-3.09l-4.57-16.69h3.66l2.7,11.4,3.42-11.4h2.82l3.47,11.52Z"/><path class="cls-13" d="m541.45,654.45c-2.38,0-4.3-.75-5.78-2.25-1.47-1.5-2.21-3.49-2.21-5.98v-.46c0-1.67.32-3.15.96-4.47.64-1.31,1.55-2.33,2.71-3.06,1.16-.73,2.46-1.09,3.89-1.09,2.27,0,4.03.72,5.27,2.17,1.24,1.45,1.86,3.5,1.86,6.16v1.51h-10.91c.11,1.38.57,2.47,1.38,3.27.81.8,1.82,1.2,3.05,1.2,1.72,0,3.12-.69,4.2-2.08l2.02,1.93c-.67,1-1.56,1.77-2.68,2.32-1.12.55-2.37.83-3.76.83Zm-.45-14.3c-1.03,0-1.86.36-2.49,1.08-.63.72-1.04,1.72-1.21,3.01h7.14v-.28c-.08-1.25-.42-2.2-1-2.85-.59-.64-1.4-.96-2.44-.96Z"/><path class="cls-13" d="m559.79,640.87c-.49-.08-1-.12-1.53-.12-1.72,0-2.88.66-3.47,1.97v11.42h-3.75v-16.69h3.58l.09,1.87c.9-1.45,2.16-2.17,3.76-2.17.54,0,.98.07,1.33.22l-.02,3.52Z"/><path class="cls-13" d="m572.29,637.09c.7,0,1.24.2,1.62.59.38.4.57.89.57,1.49s-.19,1.07-.57,1.46-.92.58-1.62.58-1.2-.19-1.59-.57c-.39-.38-.59-.87-.59-1.47s.19-1.09.57-1.49c.38-.4.92-.59,1.61-.59Zm0,13.1c.7,0,1.24.2,1.62.59.38.4.57.89.57,1.49s-.19,1.07-.57,1.46-.92.58-1.62.58-1.2-.19-1.59-.57c-.39-.38-.59-.87-.59-1.46s.19-1.09.57-1.49c.38-.4.92-.59,1.61-.59Z"/><path class="cls-29" d="m601.13,654.14h-15.1v-2.58l7.48-8.16c1.08-1.2,1.85-2.21,2.31-3.02.46-.81.69-1.62.69-2.43,0-1.07-.3-1.93-.9-2.59s-1.41-.99-2.43-.99c-1.21,0-2.15.37-2.82,1.11-.67.74-1,1.75-1,3.04h-3.75c0-1.37.31-2.6.93-3.69.62-1.1,1.51-1.95,2.67-2.55,1.16-.61,2.49-.91,4-.91,2.18,0,3.9.55,5.16,1.64s1.89,2.61,1.89,4.54c0,1.12-.32,2.3-.95,3.53-.63,1.23-1.67,2.62-3.11,4.19l-5.49,5.88h10.43v2.99Z"/><path class="cls-29" d="m618.91,644.44l-2.54,2.7v7h-3.9v-22.46h3.9v10.54l2.16-2.67,6.57-7.87h4.72l-8.35,9.95,8.82,12.51h-4.63l-6.76-9.7Z"/><path class="cls-29" d="m637.28,649.39l3.53-11.94h3.87l-5.79,16.69h-3.25l-5.83-16.69h3.89l3.58,11.94Z"/><path class="cls-29" d="m656.76,654.14c-.17-.32-.31-.84-.43-1.56-1.19,1.24-2.65,1.87-4.38,1.87s-3.04-.48-4.1-1.43c-1.06-.96-1.59-2.14-1.59-3.55,0-1.78.66-3.14,1.98-4.1,1.32-.95,3.21-1.43,5.67-1.43h2.3v-1.09c0-.86-.24-1.56-.72-2.08-.48-.52-1.22-.78-2.21-.78-.85,0-1.55.21-2.1.64s-.82.97-.82,1.63h-3.75c0-.92.3-1.77.91-2.57.61-.8,1.43-1.42,2.48-1.87,1.04-.45,2.21-.68,3.49-.68,1.95,0,3.51.49,4.67,1.47,1.16.98,1.76,2.36,1.79,4.14v7.53c0,1.5.21,2.7.63,3.59v.26h-3.82Zm-4.12-2.7c.74,0,1.44-.18,2.09-.54.65-.36,1.14-.84,1.47-1.45v-3.15h-2.02c-1.39,0-2.43.24-3.13.73s-1.05,1.17-1.05,2.05c0,.72.24,1.29.72,1.72s1.12.64,1.92.64Z"/><path class="cls-20" d="m476.9,704.13v8.33h-3.9v-22.46h8.59c2.51,0,4.5.65,5.98,1.96,1.47,1.31,2.21,3.04,2.21,5.19s-.72,3.92-2.17,5.14c-1.45,1.22-3.47,1.84-6.07,1.84h-4.64Zm0-3.15h4.69c1.39,0,2.45-.33,3.18-.98s1.1-1.6,1.1-2.83-.37-2.18-1.11-2.91c-.74-.72-1.76-1.1-3.05-1.12h-4.8v7.84Z"/><path class="cls-20" d="m491.93,703.96c0-1.64.32-3.11.97-4.42s1.56-2.32,2.73-3.02,2.52-1.06,4.04-1.06c2.25,0,4.08.72,5.48,2.17s2.16,3.37,2.28,5.77l.02.88c0,1.65-.32,3.12-.95,4.41-.63,1.29-1.54,2.3-2.71,3.01s-2.54,1.06-4.08,1.06c-2.36,0-4.24-.78-5.65-2.35s-2.12-3.66-2.12-6.27v-.18Zm3.75.32c0,1.72.35,3.06,1.06,4.03.71.97,1.7,1.46,2.96,1.46s2.25-.49,2.96-1.48c.7-.99,1.06-2.43,1.06-4.33,0-1.69-.36-3.02-1.09-4.01s-1.71-1.48-2.96-1.48-2.2.49-2.92,1.46c-.72.97-1.08,2.42-1.08,4.36Z"/><path class="cls-20" d="m525.28,707.29l2.65-11.52h3.66l-4.55,16.69h-3.09l-3.58-11.46-3.52,11.46h-3.09l-4.57-16.69h3.66l2.7,11.4,3.42-11.4h2.82l3.47,11.52Z"/><path class="cls-20" d="m541.45,712.77c-2.38,0-4.3-.75-5.78-2.25-1.47-1.5-2.21-3.49-2.21-5.98v-.46c0-1.67.32-3.15.96-4.47.64-1.31,1.55-2.33,2.71-3.06,1.16-.73,2.46-1.09,3.89-1.09,2.27,0,4.03.72,5.27,2.17,1.24,1.45,1.86,3.5,1.86,6.16v1.51h-10.91c.11,1.38.57,2.47,1.38,3.27.81.8,1.82,1.2,3.05,1.2,1.72,0,3.12-.69,4.2-2.08l2.02,1.93c-.67,1-1.56,1.77-2.68,2.32-1.12.55-2.37.83-3.76.83Zm-.45-14.3c-1.03,0-1.86.36-2.49,1.08-.63.72-1.04,1.72-1.21,3.01h7.14v-.28c-.08-1.25-.42-2.2-1-2.85-.59-.64-1.4-.96-2.44-.96Z"/><path class="cls-20" d="m559.79,699.19c-.49-.08-1-.12-1.53-.12-1.72,0-2.88.66-3.47,1.97v11.42h-3.75v-16.69h3.58l.09,1.87c.9-1.45,2.16-2.17,3.76-2.17.54,0,.98.07,1.33.22l-.02,3.52Z"/><path class="cls-20" d="m570.39,712.46v-22.46h7.7c2.54,0,4.47.51,5.8,1.53,1.33,1.02,1.99,2.54,1.99,4.55,0,1.03-.28,1.95-.83,2.78-.56.82-1.37,1.46-2.44,1.91,1.21.33,2.15.95,2.81,1.86.66.91,1,2,1,3.28,0,2.11-.68,3.73-2.03,4.86-1.35,1.13-3.29,1.7-5.81,1.7h-8.19Zm3.9-13h3.82c1.21,0,2.16-.28,2.85-.83.68-.55,1.03-1.33,1.03-2.34,0-1.11-.32-1.91-.95-2.41-.63-.49-1.62-.74-2.95-.74h-3.79v6.31Zm0,2.87v7.02h4.33c1.22,0,2.18-.3,2.87-.91s1.03-1.45,1.03-2.53c0-2.33-1.19-3.53-3.58-3.58h-4.66Z"/><path class="cls-20" d="m589.96,691.43c0-.58.18-1.05.55-1.43.37-.38.89-.57,1.57-.57s1.2.19,1.57.57c.37.38.55.86.55,1.43s-.19,1.04-.55,1.41c-.37.38-.89.56-1.57.56s-1.2-.19-1.57-.56c-.37-.38-.55-.85-.55-1.41Zm3.98,21.03h-3.75v-16.69h3.75v16.69Z"/><path class="cls-20" d="m602.01,712.46h-3.75v-23.7h3.75v23.7Z"/><path class="cls-20" d="m610.08,712.46h-3.75v-23.7h3.75v23.7Z"/><path class="cls-20" d="m614.17,691.43c0-.58.18-1.05.55-1.43.37-.38.89-.57,1.57-.57s1.2.19,1.57.57c.37.38.55.86.55,1.43s-.19,1.04-.55,1.41c-.37.38-.89.56-1.57.56s-1.2-.19-1.57-.56c-.37-.38-.55-.85-.55-1.41Zm3.98,21.03h-3.75v-16.69h3.75v16.69Z"/><path class="cls-20" d="m625.71,695.77l.11,1.93c1.23-1.49,2.85-2.24,4.86-2.24,3.47,0,5.24,1.99,5.31,5.97v11.03h-3.75v-10.81c0-1.06-.23-1.84-.69-2.35-.46-.51-1.21-.76-2.24-.76-1.51,0-2.64.68-3.38,2.05v11.88h-3.75v-16.69h3.53Z"/><path class="cls-20" d="m639.14,703.99c0-2.59.61-4.66,1.83-6.21s2.84-2.32,4.85-2.32c1.9,0,3.4.66,4.49,1.99l.17-1.68h3.38v16.18c0,2.19-.68,3.92-2.04,5.18-1.36,1.27-3.2,1.9-5.52,1.9-1.22,0-2.42-.25-3.59-.76-1.17-.51-2.05-1.18-2.66-2l1.78-2.25c1.15,1.37,2.57,2.05,4.26,2.05,1.24,0,2.23-.34,2.95-1.01.72-.67,1.08-1.66,1.08-2.97v-1.13c-1.08,1.2-2.52,1.8-4.32,1.8-1.96,0-3.55-.78-4.79-2.33-1.24-1.55-1.86-3.7-1.86-6.45Zm3.73.32c0,1.68.34,3,1.03,3.96.68.96,1.63,1.44,2.85,1.44,1.51,0,2.63-.65,3.36-1.94v-7.34c-.71-1.26-1.82-1.9-3.33-1.9-1.23,0-2.19.49-2.88,1.47-.68.98-1.03,2.42-1.03,4.32Z"/><path class="cls-20" d="m671,690l6.48,17.22,6.46-17.22h5.04v22.46h-3.89v-7.41l.39-9.9-6.63,17.31h-2.79l-6.62-17.29.39,9.89v7.41h-3.89v-22.46h5.06Z"/><path class="cls-20" d="m692.54,703.96c0-1.64.32-3.11.97-4.42s1.56-2.32,2.73-3.02,2.52-1.06,4.04-1.06c2.25,0,4.08.72,5.48,2.17s2.16,3.37,2.28,5.77l.02.88c0,1.65-.32,3.12-.95,4.41-.63,1.29-1.54,2.3-2.71,3.01s-2.54,1.06-4.08,1.06c-2.36,0-4.24-.78-5.65-2.35s-2.12-3.66-2.12-6.27v-.18Zm3.75.32c0,1.72.35,3.06,1.06,4.03.71.97,1.7,1.46,2.96,1.46s2.25-.49,2.96-1.48c.7-.99,1.06-2.43,1.06-4.33,0-1.69-.36-3.02-1.09-4.01s-1.71-1.48-2.96-1.48-2.2.49-2.92,1.46c-.72.97-1.08,2.42-1.08,4.36Z"/><path class="cls-20" d="m710.52,703.99c0-2.57.6-4.64,1.79-6.19,1.19-1.56,2.79-2.34,4.8-2.34,1.77,0,3.2.62,4.29,1.85v-8.55h3.75v23.7h-3.39l-.18-1.73c-1.12,1.36-2.62,2.04-4.49,2.04s-3.54-.79-4.74-2.36c-1.21-1.57-1.81-3.71-1.81-6.42Zm3.75.32c0,1.7.33,3.02.98,3.97s1.58,1.43,2.79,1.43c1.53,0,2.65-.68,3.36-2.05v-7.13c-.69-1.34-1.8-2.01-3.33-2.01-1.21,0-2.15.48-2.81,1.44-.66.96-.99,2.41-.99,4.34Z"/><path class="cls-20" d="m736.41,712.77c-2.38,0-4.3-.75-5.78-2.25-1.48-1.5-2.21-3.49-2.21-5.98v-.46c0-1.67.32-3.15.96-4.47s1.54-2.33,2.71-3.06c1.16-.73,2.46-1.09,3.89-1.09,2.27,0,4.03.72,5.27,2.17,1.24,1.45,1.86,3.5,1.86,6.16v1.51h-10.91c.11,1.38.57,2.47,1.38,3.27.81.8,1.82,1.2,3.05,1.2,1.72,0,3.12-.69,4.2-2.08l2.02,1.93c-.67,1-1.56,1.77-2.68,2.32s-2.37.83-3.76.83Zm-.45-14.3c-1.03,0-1.86.36-2.49,1.08s-1.04,1.72-1.21,3.01h7.14v-.28c-.08-1.25-.42-2.2-1-2.85-.59-.64-1.4-.96-2.44-.96Z"/><path class="cls-20" d="m756.14,695.41c.7,0,1.24.2,1.62.59.38.4.57.89.57,1.49s-.19,1.07-.57,1.46-.92.58-1.62.58-1.2-.19-1.59-.57c-.39-.38-.59-.87-.59-1.47s.19-1.09.57-1.49c.38-.4.92-.59,1.61-.59Zm0,13.1c.7,0,1.24.2,1.62.59.38.4.57.89.57,1.49s-.19,1.07-.57,1.46-.92.58-1.62.58-1.2-.19-1.59-.57c-.39-.38-.59-.87-.59-1.46s.19-1.09.57-1.49c.38-.4.92-.59,1.61-.59Z"/><path class="cls-29" d="m770.41,712.46v-22.46h7.7c2.54,0,4.47.51,5.8,1.53,1.33,1.02,1.99,2.54,1.99,4.55,0,1.03-.28,1.95-.83,2.78-.56.82-1.37,1.46-2.44,1.91,1.21.33,2.15.95,2.81,1.86.66.91,1,2,1,3.28,0,2.11-.68,3.73-2.03,4.86-1.35,1.13-3.29,1.7-5.81,1.7h-8.19Zm3.9-13h3.82c1.21,0,2.16-.28,2.85-.83.68-.55,1.03-1.33,1.03-2.34,0-1.11-.32-1.91-.95-2.41-.63-.49-1.62-.74-2.95-.74h-3.79v6.31Zm0,2.87v7.02h4.33c1.22,0,2.18-.3,2.87-.91s1.03-1.45,1.03-2.53c0-2.33-1.19-3.53-3.58-3.58h-4.66Z"/><path class="cls-29" d="m800.09,710.83c-1.1,1.29-2.66,1.94-4.69,1.94-1.81,0-3.18-.53-4.11-1.59-.93-1.06-1.39-2.59-1.39-4.6v-10.81h3.75v10.77c0,2.12.88,3.18,2.64,3.18s3.05-.65,3.69-1.96v-11.99h3.75v16.69h-3.53l-.09-1.63Z"/><path class="cls-29" d="m811.01,695.77l.11,1.93c1.23-1.49,2.85-2.24,4.86-2.24,3.48,0,5.25,1.99,5.31,5.97v11.03h-3.75v-10.81c0-1.06-.23-1.84-.69-2.35-.46-.51-1.21-.76-2.24-.76-1.51,0-2.64.68-3.38,2.05v11.88h-3.75v-16.69h3.53Z"/><path class="cls-29" d="m824.41,703.99c0-2.57.6-4.64,1.79-6.19,1.19-1.56,2.79-2.34,4.8-2.34,1.77,0,3.2.62,4.29,1.85v-8.55h3.75v23.7h-3.39l-.19-1.73c-1.12,1.36-2.62,2.04-4.49,2.04s-3.54-.79-4.74-2.36c-1.21-1.57-1.81-3.71-1.81-6.42Zm3.75.32c0,1.7.33,3.02.98,3.97.65.95,1.58,1.43,2.78,1.43,1.53,0,2.65-.68,3.36-2.05v-7.13c-.69-1.34-1.8-2.01-3.33-2.01-1.21,0-2.15.48-2.81,1.44-.66.96-.99,2.41-.99,4.34Z"/><path class="cls-29" d="m846.93,712.46h-3.75v-23.7h3.75v23.7Z"/><path class="cls-29" d="m858.36,712.77c-2.38,0-4.3-.75-5.78-2.25-1.47-1.5-2.21-3.49-2.21-5.98v-.46c0-1.67.32-3.15.96-4.47.64-1.31,1.55-2.33,2.71-3.06,1.16-.73,2.46-1.09,3.89-1.09,2.27,0,4.03.72,5.27,2.17,1.24,1.45,1.86,3.5,1.86,6.16v1.51h-10.91c.11,1.38.57,2.47,1.38,3.27.81.8,1.82,1.2,3.05,1.2,1.72,0,3.12-.69,4.2-2.08l2.02,1.93c-.67,1-1.56,1.77-2.68,2.32-1.12.55-2.37.83-3.76.83Zm-.45-14.3c-1.03,0-1.86.36-2.49,1.08-.63.72-1.04,1.72-1.21,3.01h7.14v-.28c-.08-1.25-.42-2.2-1-2.85-.59-.64-1.4-.96-2.44-.96Z"/><path class="cls-29" d="m867.26,703.99c0-2.57.6-4.64,1.79-6.19,1.19-1.56,2.79-2.34,4.8-2.34,1.77,0,3.2.62,4.29,1.85v-8.55h3.75v23.7h-3.39l-.19-1.73c-1.12,1.36-2.62,2.04-4.49,2.04s-3.54-.79-4.74-2.36c-1.21-1.57-1.81-3.71-1.81-6.42Zm3.75.32c0,1.7.33,3.02.98,3.97.65.95,1.58,1.43,2.78,1.43,1.53,0,2.65-.68,3.36-2.05v-7.13c-.69-1.34-1.8-2.01-3.33-2.01-1.21,0-2.15.48-2.81,1.44-.66.96-.99,2.41-.99,4.34Z"/><path class="cls-13" d="m490.14,763.47c-.23,2.4-1.11,4.27-2.65,5.61-1.54,1.34-3.59,2.01-6.15,2.01-1.79,0-3.37-.42-4.73-1.27s-2.41-2.05-3.15-3.62c-.74-1.56-1.13-3.38-1.16-5.45v-2.1c0-2.12.38-3.99,1.13-5.6.75-1.61,1.83-2.86,3.23-3.73,1.4-.87,3.03-1.31,4.87-1.31,2.48,0,4.47.67,5.98,2.01s2.39,3.24,2.64,5.7h-3.89c-.19-1.61-.66-2.78-1.41-3.49s-1.87-1.07-3.32-1.07c-1.7,0-3,.62-3.91,1.86-.91,1.24-1.38,3.06-1.39,5.46v1.99c0,2.43.43,4.28,1.3,5.56s2.14,1.91,3.82,1.91c1.53,0,2.68-.34,3.46-1.03.77-.69,1.26-1.84,1.47-3.44h3.89Z"/><path class="cls-13" d="m502,757.52c-.49-.08-1-.12-1.53-.12-1.72,0-2.88.66-3.47,1.97v11.42h-3.75v-16.69h3.58l.09,1.87c.9-1.45,2.16-2.17,3.76-2.17.53,0,.98.07,1.33.22l-.02,3.52Z"/><path class="cls-13" d="m503.11,762.28c0-1.64.32-3.11.97-4.42.65-1.31,1.56-2.32,2.73-3.02,1.17-.7,2.52-1.06,4.04-1.06,2.25,0,4.08.72,5.48,2.17,1.4,1.45,2.16,3.37,2.28,5.77l.02.88c0,1.65-.32,3.12-.95,4.41-.63,1.29-1.54,2.3-2.71,3.01s-2.54,1.06-4.08,1.06c-2.36,0-4.24-.78-5.65-2.35s-2.12-3.66-2.12-6.27v-.18Zm3.75.32c0,1.72.36,3.06,1.06,4.03.71.97,1.7,1.46,2.96,1.46s2.25-.49,2.95-1.48,1.06-2.43,1.06-4.33c0-1.69-.36-3.02-1.09-4.01-.72-.99-1.71-1.48-2.95-1.48s-2.2.49-2.92,1.46c-.72.97-1.08,2.42-1.08,4.36Z"/><path class="cls-13" d="m531.16,766.25c0-.67-.28-1.18-.83-1.53-.55-.35-1.46-.66-2.74-.93-1.28-.27-2.34-.61-3.19-1.02-1.87-.9-2.81-2.22-2.81-3.93,0-1.44.61-2.64,1.82-3.61s2.76-1.45,4.63-1.45c1.99,0,3.61.49,4.84,1.48,1.23.99,1.84,2.27,1.84,3.84h-3.75c0-.72-.27-1.32-.8-1.8-.54-.48-1.25-.72-2.13-.72-.82,0-1.49.19-2.01.57-.52.38-.78.89-.78,1.53,0,.58.24,1.02.72,1.34.48.32,1.46.64,2.93.96s2.62.71,3.46,1.16c.84.45,1.46.98,1.87,1.61.41.63.61,1.39.61,2.28,0,1.5-.62,2.72-1.87,3.65-1.24.93-2.88,1.4-4.89,1.4-1.37,0-2.59-.25-3.66-.74-1.07-.49-1.9-1.17-2.5-2.04-.6-.86-.89-1.79-.89-2.79h3.64c.05.88.38,1.57,1,2.04.62.48,1.44.72,2.45.72s1.74-.19,2.25-.56c.51-.38.77-.87.77-1.47Z"/><path class="cls-13" d="m547.46,766.25c0-.67-.28-1.18-.83-1.53-.55-.35-1.46-.66-2.74-.93-1.28-.27-2.34-.61-3.19-1.02-1.87-.9-2.81-2.22-2.81-3.93,0-1.44.61-2.64,1.82-3.61s2.76-1.45,4.63-1.45c1.99,0,3.61.49,4.84,1.48,1.23.99,1.84,2.27,1.84,3.84h-3.75c0-.72-.27-1.32-.8-1.8-.54-.48-1.25-.72-2.13-.72-.82,0-1.49.19-2.01.57-.52.38-.78.89-.78,1.53,0,.58.24,1.02.72,1.34.48.32,1.46.64,2.93.96s2.62.71,3.46,1.16c.84.45,1.46.98,1.87,1.61.41.63.61,1.39.61,2.28,0,1.5-.62,2.72-1.87,3.65-1.24.93-2.88,1.4-4.89,1.4-1.37,0-2.59-.25-3.66-.74-1.07-.49-1.9-1.17-2.5-2.04-.6-.86-.89-1.79-.89-2.79h3.64c.05.88.38,1.57,1,2.04.62.48,1.44.72,2.45.72s1.74-.19,2.25-.56c.51-.38.77-.87.77-1.47Z"/><path class="cls-13" d="m579.78,763.47c-.23,2.4-1.11,4.27-2.65,5.61-1.54,1.34-3.59,2.01-6.15,2.01-1.79,0-3.37-.42-4.73-1.27s-2.41-2.05-3.15-3.62c-.74-1.56-1.13-3.38-1.16-5.45v-2.1c0-2.12.38-3.99,1.13-5.6.75-1.61,1.83-2.86,3.23-3.73,1.4-.87,3.03-1.31,4.87-1.31,2.48,0,4.47.67,5.98,2.01s2.39,3.24,2.64,5.7h-3.89c-.19-1.61-.66-2.78-1.41-3.49s-1.87-1.07-3.32-1.07c-1.7,0-3,.62-3.91,1.86-.91,1.24-1.38,3.06-1.39,5.46v1.99c0,2.43.43,4.28,1.3,5.56s2.14,1.91,3.82,1.91c1.53,0,2.68-.34,3.46-1.03.77-.69,1.26-1.84,1.47-3.44h3.89Z"/><path class="cls-13" d="m582.2,762.28c0-1.64.32-3.11.97-4.42s1.56-2.32,2.73-3.02,2.52-1.06,4.04-1.06c2.25,0,4.08.72,5.48,2.17s2.16,3.37,2.28,5.77l.02.88c0,1.65-.32,3.12-.95,4.41-.63,1.29-1.54,2.3-2.71,3.01s-2.54,1.06-4.08,1.06c-2.36,0-4.24-.78-5.65-2.35s-2.12-3.66-2.12-6.27v-.18Zm3.75.32c0,1.72.35,3.06,1.06,4.03.71.97,1.7,1.46,2.96,1.46s2.25-.49,2.96-1.48c.7-.99,1.06-2.43,1.06-4.33,0-1.69-.36-3.02-1.09-4.01s-1.71-1.48-2.96-1.48-2.2.49-2.92,1.46c-.72.97-1.08,2.42-1.08,4.36Z"/><path class="cls-13" d="m604.37,754.09l.11,1.93c1.23-1.49,2.85-2.24,4.86-2.24,3.47,0,5.24,1.99,5.31,5.97v11.03h-3.75v-10.81c0-1.06-.23-1.84-.69-2.35-.46-.51-1.21-.76-2.24-.76-1.51,0-2.64.68-3.38,2.05v11.88h-3.75v-16.69h3.53Z"/><path class="cls-13" d="m621.94,754.09l.11,1.93c1.23-1.49,2.85-2.24,4.86-2.24,3.48,0,5.25,1.99,5.31,5.97v11.03h-3.75v-10.81c0-1.06-.23-1.84-.69-2.35-.46-.51-1.21-.76-2.24-.76-1.51,0-2.64.68-3.38,2.05v11.88h-3.75v-16.69h3.53Z"/><path class="cls-13" d="m643.39,771.09c-2.38,0-4.3-.75-5.78-2.25-1.48-1.5-2.21-3.49-2.21-5.98v-.46c0-1.67.32-3.15.96-4.47s1.54-2.33,2.71-3.06c1.16-.73,2.46-1.09,3.89-1.09,2.27,0,4.03.72,5.27,2.17,1.24,1.45,1.86,3.5,1.86,6.16v1.51h-10.91c.11,1.38.57,2.47,1.38,3.27.81.8,1.82,1.2,3.05,1.2,1.72,0,3.12-.69,4.2-2.08l2.02,1.93c-.67,1-1.56,1.77-2.68,2.32s-2.37.83-3.76.83Zm-.45-14.3c-1.03,0-1.86.36-2.49,1.08s-1.04,1.72-1.21,3.01h7.14v-.28c-.08-1.25-.42-2.2-1-2.85-.59-.64-1.4-.96-2.44-.96Z"/><path class="cls-13" d="m659.85,768.1c.94,0,1.71-.27,2.33-.82s.95-1.22.99-2.02h3.53c-.04,1.04-.37,2.01-.97,2.91-.61.9-1.43,1.61-2.47,2.14s-2.16.79-3.36.79c-2.33,0-4.19-.76-5.55-2.27-1.37-1.51-2.05-3.6-2.05-6.26v-.39c0-2.54.68-4.57,2.04-6.1,1.36-1.53,3.21-2.29,5.55-2.29,1.98,0,3.6.58,4.85,1.74,1.25,1.16,1.91,2.68,1.97,4.56h-3.53c-.04-.96-.37-1.74-.98-2.36s-1.39-.93-2.34-.93c-1.21,0-2.15.44-2.81,1.32-.66.88-.99,2.21-1,4v.6c0,1.81.33,3.16.98,4.05s1.6,1.33,2.83,1.33Z"/><path class="cls-13" d="m674.23,750.03v4.06h2.95v2.78h-2.95v9.32c0,.64.12,1.1.38,1.38.25.28.7.42,1.35.42.43,0,.87-.05,1.31-.15v2.9c-.85.24-1.68.35-2.47.35-2.88,0-4.32-1.59-4.32-4.77v-9.46h-2.75v-2.78h2.75v-4.06h3.75Z"/><path class="cls-13" d="m689.39,766.25c0-.67-.28-1.18-.83-1.53-.55-.35-1.46-.66-2.74-.93-1.28-.27-2.34-.61-3.19-1.02-1.87-.9-2.81-2.22-2.81-3.93,0-1.44.61-2.64,1.82-3.61s2.76-1.45,4.63-1.45c1.99,0,3.61.49,4.84,1.48,1.23.99,1.84,2.27,1.84,3.84h-3.75c0-.72-.27-1.32-.8-1.8-.54-.48-1.25-.72-2.13-.72-.82,0-1.49.19-2.01.57-.52.38-.78.89-.78,1.53,0,.58.24,1.02.72,1.34.48.32,1.46.64,2.93.96s2.62.71,3.46,1.16c.84.45,1.46.98,1.87,1.61.41.63.61,1.39.61,2.28,0,1.5-.62,2.72-1.87,3.65-1.24.93-2.88,1.4-4.89,1.4-1.37,0-2.59-.25-3.66-.74-1.07-.49-1.9-1.17-2.5-2.04-.6-.86-.89-1.79-.89-2.79h3.64c.05.88.38,1.57,1,2.04.62.48,1.44.72,2.45.72s1.74-.19,2.25-.56c.51-.38.77-.87.77-1.47Z"/><path class="cls-13" d="m706.47,753.74c.7,0,1.24.2,1.62.59.38.4.57.89.57,1.49s-.19,1.07-.57,1.46-.92.58-1.62.58-1.2-.19-1.59-.57c-.39-.38-.59-.87-.59-1.47s.19-1.09.57-1.49c.38-.4.92-.59,1.61-.59Zm0,13.1c.7,0,1.24.2,1.62.59.38.4.57.89.57,1.49s-.19,1.07-.57,1.46-.92.58-1.62.58-1.2-.19-1.59-.57c-.39-.38-.59-.87-.59-1.46s.19-1.09.57-1.49c.38-.4.92-.59,1.61-.59Z"/><path class="cls-29" d="m730.36,770.78h-3.73v-18.04l-5.51,1.88v-3.15l8.76-3.22h.48v22.54Z"/><path class="cls-20" d="m477.12,829.11h-3.89v-22.46h3.89v22.46Z"/><path class="cls-20" d="m485.82,820.78v8.33h-3.9v-22.46h8.59c2.51,0,4.5.65,5.98,1.96,1.48,1.31,2.21,3.04,2.21,5.19s-.72,3.92-2.17,5.14c-1.45,1.22-3.47,1.84-6.07,1.84h-4.64Zm0-3.15h4.69c1.39,0,2.45-.33,3.18-.98s1.1-1.6,1.1-2.83-.37-2.18-1.11-2.91c-.74-.72-1.76-1.1-3.05-1.12h-4.8v7.84Z"/><path class="cls-20" d="m513.88,820.78v8.33h-3.9v-22.46h8.59c2.51,0,4.5.65,5.98,1.96,1.48,1.31,2.21,3.04,2.21,5.19s-.72,3.92-2.17,5.14c-1.45,1.22-3.47,1.84-6.07,1.84h-4.64Zm0-3.15h4.69c1.39,0,2.45-.33,3.18-.98s1.1-1.6,1.1-2.83-.37-2.18-1.11-2.91c-.74-.72-1.76-1.1-3.05-1.12h-4.8v7.84Z"/><path class="cls-20" d="m528.91,820.61c0-1.64.32-3.11.97-4.42.65-1.31,1.56-2.32,2.73-3.02,1.17-.7,2.52-1.06,4.04-1.06,2.25,0,4.08.72,5.48,2.17,1.4,1.45,2.16,3.37,2.28,5.77l.02.88c0,1.65-.32,3.12-.95,4.41-.63,1.29-1.54,2.3-2.71,3.01s-2.54,1.06-4.08,1.06c-2.36,0-4.24-.78-5.65-2.35s-2.12-3.66-2.12-6.27v-.18Zm3.75.32c0,1.72.36,3.06,1.06,4.03.71.97,1.7,1.46,2.96,1.46s2.25-.49,2.95-1.48,1.06-2.43,1.06-4.33c0-1.69-.36-3.02-1.09-4.01-.72-.99-1.71-1.48-2.95-1.48s-2.2.49-2.92,1.46c-.72.97-1.08,2.42-1.08,4.36Z"/><path class="cls-20" d="m546.89,820.61c0-1.64.32-3.11.97-4.42.65-1.31,1.56-2.32,2.73-3.02,1.17-.7,2.52-1.06,4.04-1.06,2.25,0,4.08.72,5.48,2.17,1.4,1.45,2.16,3.37,2.28,5.77l.02.88c0,1.65-.32,3.12-.95,4.41-.63,1.29-1.54,2.3-2.71,3.01s-2.54,1.06-4.08,1.06c-2.36,0-4.24-.78-5.65-2.35s-2.12-3.66-2.12-6.27v-.18Zm3.75.32c0,1.72.36,3.06,1.06,4.03.71.97,1.7,1.46,2.96,1.46s2.25-.49,2.95-1.48,1.06-2.43,1.06-4.33c0-1.69-.36-3.02-1.09-4.01-.72-.99-1.71-1.48-2.95-1.48s-2.2.49-2.92,1.46c-.72.97-1.08,2.42-1.08,4.36Z"/><path class="cls-20" d="m569.57,829.11h-3.75v-23.7h3.75v23.7Z"/><path class="cls-20" d="m583.78,812.06c.7,0,1.24.2,1.62.59.38.4.57.89.57,1.49s-.19,1.07-.57,1.46-.92.58-1.62.58-1.2-.19-1.59-.57c-.39-.38-.59-.87-.59-1.47s.19-1.09.57-1.49c.38-.4.92-.59,1.61-.59Zm0,13.1c.7,0,1.24.2,1.62.59.38.4.57.89.57,1.49s-.19,1.07-.57,1.46-.92.58-1.62.58-1.2-.19-1.59-.57c-.39-.38-.59-.87-.59-1.46s.19-1.09.57-1.49c.38-.4.92-.59,1.61-.59Z"/><path class="cls-29" d="m598.82,831.03h-2.95l8.84-24.39h2.95l-8.84,24.39Z"/><path class="cls-29" d="m614.35,816.16h2.28c1.15,0,2.06-.31,2.74-.89.67-.59,1.01-1.43,1.01-2.54s-.28-1.9-.84-2.49c-.56-.59-1.42-.89-2.57-.89-1.01,0-1.84.29-2.48.87-.65.58-.97,1.34-.97,2.28h-3.75c0-1.15.3-2.2.92-3.15.61-.95,1.46-1.68,2.56-2.21,1.1-.53,2.32-.79,3.68-.79,2.24,0,4,.56,5.28,1.69,1.28,1.13,1.92,2.69,1.92,4.7,0,1.01-.32,1.96-.96,2.85s-1.47,1.56-2.49,2.01c1.23.42,2.17,1.08,2.82,1.99.64.91.96,1.99.96,3.24,0,2.02-.69,3.62-2.07,4.81-1.38,1.19-3.2,1.79-5.45,1.79s-3.93-.58-5.31-1.73c-1.38-1.15-2.07-2.68-2.07-4.6h3.75c0,.99.33,1.79.99,2.41.66.62,1.55.93,2.68.93s2.08-.31,2.75-.93c.67-.62,1-1.51,1-2.68s-.35-2.09-1.05-2.73-1.74-.96-3.12-.96h-2.21v-2.96Z"/><path class="cls-29" d="m642.62,819.65c0,3.23-.61,5.67-1.81,7.3-1.21,1.64-3.05,2.46-5.52,2.46s-4.26-.8-5.48-2.4c-1.23-1.6-1.86-3.97-1.89-7.1v-3.89c0-3.23.6-5.65,1.81-7.27,1.21-1.62,3.05-2.42,5.53-2.42s4.29.79,5.5,2.36c1.21,1.57,1.83,3.93,1.86,7.07v3.89Zm-3.75-4.2c0-2.11-.29-3.65-.87-4.64-.58-.98-1.49-1.47-2.75-1.47s-2.12.47-2.7,1.4-.88,2.38-.91,4.36v5.09c0,2.1.29,3.66.88,4.69s1.51,1.54,2.76,1.54,2.09-.48,2.67-1.43c.57-.95.88-2.44.91-4.47v-5.08Z"/><path class="cls-13" d="m477.12,887.43h-3.89v-22.46h3.89v22.46Z"/><path class="cls-13" d="m485.03,870.74l.11,1.93c1.23-1.49,2.85-2.24,4.86-2.24,3.48,0,5.25,1.99,5.31,5.97v11.03h-3.75v-10.81c0-1.06-.23-1.84-.69-2.35-.46-.51-1.21-.76-2.24-.76-1.51,0-2.64.68-3.38,2.05v11.88h-3.75v-16.69h3.53Z"/><path class="cls-13" d="m503.82,866.68v4.06h2.95v2.78h-2.95v9.32c0,.64.12,1.1.38,1.38.25.28.7.42,1.35.42.43,0,.87-.05,1.31-.15v2.9c-.85.24-1.68.35-2.47.35-2.88,0-4.32-1.59-4.32-4.77v-9.46h-2.75v-2.78h2.75v-4.06h3.75Z"/><path class="cls-13" d="m516.98,887.74c-2.38,0-4.3-.75-5.78-2.25-1.47-1.5-2.21-3.49-2.21-5.98v-.46c0-1.67.32-3.15.96-4.47.64-1.31,1.55-2.33,2.71-3.06,1.16-.73,2.46-1.09,3.89-1.09,2.27,0,4.03.72,5.27,2.17,1.24,1.45,1.86,3.5,1.86,6.16v1.51h-10.91c.11,1.38.57,2.47,1.38,3.27.81.8,1.82,1.2,3.05,1.2,1.72,0,3.12-.69,4.2-2.08l2.02,1.93c-.67,1-1.56,1.77-2.68,2.32-1.12.55-2.37.83-3.76.83Zm-.45-14.3c-1.03,0-1.86.36-2.49,1.08-.63.72-1.04,1.72-1.21,3.01h7.14v-.28c-.08-1.25-.42-2.2-1-2.85-.59-.64-1.4-.96-2.44-.96Z"/><path class="cls-13" d="m535.32,874.16c-.49-.08-1-.12-1.53-.12-1.72,0-2.88.66-3.47,1.97v11.42h-3.75v-16.69h3.58l.09,1.87c.9-1.45,2.16-2.17,3.76-2.17.54,0,.98.07,1.33.22l-.02,3.52Z"/><path class="cls-13" d="m541.17,870.74l.11,1.93c1.23-1.49,2.85-2.24,4.86-2.24,3.47,0,5.24,1.99,5.31,5.97v11.03h-3.75v-10.81c0-1.06-.23-1.84-.69-2.35-.46-.51-1.21-.76-2.24-.76-1.51,0-2.64.68-3.38,2.05v11.88h-3.75v-16.69h3.53Z"/><path class="cls-13" d="m562.61,887.74c-2.38,0-4.3-.75-5.78-2.25-1.47-1.5-2.21-3.49-2.21-5.98v-.46c0-1.67.32-3.15.96-4.47.64-1.31,1.55-2.33,2.71-3.06,1.16-.73,2.46-1.09,3.89-1.09,2.27,0,4.03.72,5.27,2.17,1.24,1.45,1.86,3.5,1.86,6.16v1.51h-10.91c.11,1.38.57,2.47,1.38,3.27.81.8,1.82,1.2,3.05,1.2,1.72,0,3.12-.69,4.2-2.08l2.02,1.93c-.67,1-1.56,1.77-2.68,2.32-1.12.55-2.37.83-3.76.83Zm-.45-14.3c-1.03,0-1.86.36-2.49,1.08-.63.72-1.04,1.72-1.21,3.01h7.14v-.28c-.08-1.25-.42-2.2-1-2.85-.59-.64-1.4-.96-2.44-.96Z"/><path class="cls-13" d="m576.91,866.68v4.06h2.95v2.78h-2.95v9.32c0,.64.13,1.1.38,1.38.25.28.7.42,1.35.42.43,0,.87-.05,1.31-.15v2.9c-.85.24-1.68.35-2.47.35-2.88,0-4.32-1.59-4.32-4.77v-9.46h-2.75v-2.78h2.75v-4.06h3.75Z"/><path class="cls-13" d="m590.95,887.43v-22.46h7.7c2.54,0,4.47.51,5.8,1.53,1.33,1.02,1.99,2.54,1.99,4.55,0,1.03-.28,1.95-.83,2.78-.55.82-1.37,1.46-2.44,1.91,1.21.33,2.15.95,2.82,1.86.66.91.99,2,.99,3.28,0,2.11-.68,3.73-2.03,4.86-1.35,1.13-3.29,1.7-5.81,1.7h-8.19Zm3.9-13h3.83c1.21,0,2.16-.28,2.85-.83s1.03-1.33,1.03-2.34c0-1.11-.32-1.91-.95-2.41-.63-.49-1.62-.74-2.96-.74h-3.79v6.31Zm0,2.87v7.02h4.34c1.22,0,2.18-.3,2.87-.91.69-.61,1.03-1.45,1.03-2.53,0-2.33-1.19-3.53-3.58-3.58h-4.66Z"/><path class="cls-13" d="m620.5,887.43c-.17-.32-.31-.84-.43-1.56-1.19,1.24-2.65,1.87-4.38,1.87s-3.04-.48-4.1-1.43c-1.06-.96-1.59-2.14-1.59-3.55,0-1.78.66-3.14,1.98-4.1,1.32-.95,3.21-1.43,5.67-1.43h2.3v-1.09c0-.86-.24-1.56-.72-2.08-.48-.52-1.22-.78-2.21-.78-.85,0-1.55.21-2.1.64s-.82.97-.82,1.63h-3.75c0-.92.3-1.77.91-2.57.61-.8,1.43-1.42,2.48-1.87,1.04-.45,2.21-.68,3.49-.68,1.95,0,3.51.49,4.67,1.47,1.16.98,1.76,2.36,1.79,4.14v7.53c0,1.5.21,2.7.63,3.59v.26h-3.82Zm-4.12-2.7c.74,0,1.44-.18,2.09-.54.65-.36,1.14-.84,1.47-1.45v-3.15h-2.02c-1.39,0-2.43.24-3.13.73s-1.05,1.17-1.05,2.05c0,.72.24,1.29.72,1.72s1.12.64,1.92.64Z"/><path class="cls-13" d="m631.09,870.74l.11,1.93c1.23-1.49,2.85-2.24,4.86-2.24,3.48,0,5.25,1.99,5.31,5.97v11.03h-3.75v-10.81c0-1.06-.23-1.84-.69-2.35-.46-.51-1.21-.76-2.24-.76-1.51,0-2.64.68-3.38,2.05v11.88h-3.75v-16.69h3.53Z"/><path class="cls-13" d="m644.48,878.96c0-2.57.6-4.64,1.79-6.19,1.19-1.56,2.79-2.34,4.8-2.34,1.77,0,3.2.62,4.29,1.85v-8.55h3.75v23.7h-3.39l-.19-1.73c-1.12,1.36-2.62,2.04-4.49,2.04s-3.54-.79-4.74-2.36c-1.21-1.57-1.81-3.71-1.81-6.42Zm3.75.32c0,1.7.33,3.02.98,3.97.65.95,1.58,1.43,2.78,1.43,1.53,0,2.65-.68,3.36-2.05v-7.13c-.69-1.34-1.8-2.01-3.33-2.01-1.21,0-2.15.48-2.81,1.44-.66.96-.99,2.41-.99,4.34Z"/><path class="cls-13" d="m677.68,882.26l2.65-11.52h3.66l-4.55,16.69h-3.09l-3.58-11.46-3.52,11.46h-3.09l-4.57-16.69h3.66l2.7,11.4,3.43-11.4h2.82l3.47,11.52Z"/><path class="cls-13" d="m686.51,866.4c0-.58.18-1.05.55-1.43.37-.38.89-.57,1.57-.57s1.2.19,1.57.57c.37.38.55.86.55,1.43s-.19,1.04-.55,1.41c-.37.38-.89.56-1.57.56s-1.2-.19-1.57-.56c-.37-.38-.55-.85-.55-1.41Zm3.98,21.03h-3.75v-16.69h3.75v16.69Z"/><path class="cls-13" d="m693.86,878.96c0-2.57.6-4.64,1.79-6.19,1.19-1.56,2.79-2.34,4.8-2.34,1.77,0,3.2.62,4.29,1.85v-8.55h3.75v23.7h-3.39l-.19-1.73c-1.12,1.36-2.62,2.04-4.49,2.04s-3.54-.79-4.74-2.36c-1.21-1.57-1.81-3.71-1.81-6.42Zm3.75.32c0,1.7.33,3.02.98,3.97.65.95,1.58,1.43,2.78,1.43,1.53,0,2.65-.68,3.36-2.05v-7.13c-.69-1.34-1.8-2.01-3.33-2.01-1.21,0-2.15.48-2.81,1.44-.66.96-.99,2.41-.99,4.34Z"/><path class="cls-13" d="m717.1,866.68v4.06h2.95v2.78h-2.95v9.32c0,.64.12,1.1.38,1.38.25.28.7.42,1.35.42.43,0,.87-.05,1.31-.15v2.9c-.85.24-1.68.35-2.47.35-2.88,0-4.32-1.59-4.32-4.77v-9.46h-2.75v-2.78h2.75v-4.06h3.75Z"/><path class="cls-13" d="m726.6,872.56c1.22-1.42,2.77-2.13,4.64-2.13,3.56,0,5.36,2.03,5.41,6.09v10.91h-3.75v-10.77c0-1.15-.25-1.97-.75-2.45-.5-.48-1.23-.72-2.2-.72-1.5,0-2.62.67-3.36,2.01v11.92h-3.75v-23.7h3.75v8.82Z"/><path class="cls-13" d="m750.57,870.38c.7,0,1.24.2,1.62.59.38.4.57.89.57,1.49s-.19,1.07-.57,1.46-.92.58-1.62.58-1.2-.19-1.59-.57c-.39-.38-.59-.87-.59-1.47s.19-1.09.57-1.49c.38-.4.92-.59,1.61-.59Zm0,13.1c.7,0,1.24.2,1.62.59.38.4.57.89.57,1.49s-.19,1.07-.57,1.46-.92.58-1.62.58-1.2-.19-1.59-.57c-.39-.38-.59-.87-.59-1.46s.19-1.09.57-1.49c.38-.4.92-.59,1.61-.59Z"/><path class="cls-29" d="m765.24,876.29l1.22-11.32h12.06v3.24h-8.95l-.62,5.37c1.04-.6,2.21-.89,3.52-.89,2.14,0,3.8.68,4.99,2.05,1.19,1.37,1.78,3.21,1.78,5.52s-.66,4.1-1.97,5.45-3.12,2.03-5.41,2.03c-2.06,0-3.76-.58-5.12-1.75-1.35-1.17-2.08-2.71-2.2-4.62h3.62c.14,1.09.54,1.93,1.17,2.51.64.58,1.47.87,2.5.87,1.15,0,2.05-.41,2.69-1.23.64-.82.96-1.94.96-3.36s-.36-2.45-1.06-3.25c-.71-.8-1.69-1.2-2.93-1.2-.68,0-1.26.09-1.73.27s-.99.53-1.54,1.06l-2.99-.74Z"/><path class="cls-29" d="m796.84,877.97c0,3.23-.6,5.67-1.81,7.3-1.21,1.64-3.05,2.46-5.51,2.46s-4.26-.8-5.48-2.4c-1.23-1.6-1.86-3.97-1.89-7.1v-3.89c0-3.23.6-5.65,1.81-7.27,1.21-1.62,3.05-2.42,5.53-2.42s4.29.79,5.5,2.36c1.21,1.57,1.83,3.93,1.86,7.07v3.89Zm-3.75-4.2c0-2.11-.29-3.65-.86-4.64-.58-.98-1.49-1.47-2.75-1.47s-2.12.47-2.7,1.4c-.58.93-.88,2.38-.91,4.36v5.09c0,2.1.29,3.66.88,4.69s1.51,1.54,2.76,1.54,2.09-.48,2.67-1.43.88-2.44.91-4.47v-5.08Z"/><path class="cls-29" d="m813.68,864.97l6.48,17.22,6.46-17.22h5.04v22.46h-3.89v-7.41l.38-9.9-6.63,17.31h-2.79l-6.62-17.29.38,9.89v7.41h-3.89v-22.46h5.06Z"/><path class="cls-29" d="m850.57,879.25c0,2.59-.58,4.65-1.74,6.19-1.16,1.53-2.75,2.3-4.77,2.3s-3.48-.7-4.57-2.11l-.19,1.8h-3.39v-23.7h3.75v8.61c1.08-1.28,2.53-1.91,4.37-1.91,2.04,0,3.63.76,4.8,2.27s1.74,3.62,1.74,6.34v.22Zm-3.75-.32c0-1.81-.32-3.17-.96-4.07-.64-.9-1.56-1.36-2.78-1.36-1.62,0-2.77.71-3.42,2.13v6.88c.67,1.45,1.82,2.17,3.46,2.17,1.17,0,2.08-.44,2.71-1.31.64-.87.97-2.2.99-3.96v-.48Z"/><path class="cls-29" d="m868.33,879.25c0,2.58-.59,4.64-1.76,6.18-1.17,1.54-2.75,2.31-4.72,2.31-1.83,0-3.3-.6-4.4-1.8v7.91h-3.75v-23.11h3.46l.15,1.7c1.1-1.34,2.6-2,4.49-2,2.04,0,3.63.76,4.79,2.28,1.16,1.52,1.74,3.62,1.74,6.32v.23Zm-3.73-.32c0-1.67-.33-2.99-1-3.96-.66-.98-1.61-1.47-2.85-1.47-1.53,0-2.63.63-3.3,1.9v7.41c.68,1.3,1.79,1.94,3.33,1.94,1.19,0,2.12-.48,2.8-1.44.67-.96,1.01-2.42,1.01-4.37Z"/><path class="cls-29" d="m880.85,882.89c0-.67-.28-1.18-.83-1.53s-1.46-.66-2.74-.93-2.34-.61-3.19-1.02c-1.87-.9-2.81-2.22-2.81-3.93,0-1.44.61-2.64,1.82-3.61,1.21-.97,2.76-1.45,4.63-1.45,2,0,3.61.49,4.84,1.48s1.84,2.27,1.84,3.84h-3.75c0-.72-.27-1.32-.8-1.8-.54-.48-1.24-.72-2.13-.72-.82,0-1.49.19-2.01.57-.52.38-.78.89-.78,1.53,0,.58.24,1.02.73,1.34.48.32,1.46.64,2.93.96s2.62.71,3.46,1.16c.84.45,1.46.98,1.87,1.61.41.63.61,1.39.61,2.28,0,1.5-.62,2.72-1.87,3.65-1.25.93-2.88,1.4-4.89,1.4-1.37,0-2.59-.25-3.66-.74-1.07-.49-1.9-1.17-2.5-2.04-.6-.86-.89-1.79-.89-2.79h3.64c.05.88.39,1.57,1,2.04.62.48,1.43.72,2.45.72s1.74-.19,2.25-.56c.51-.38.77-.87.77-1.47Z"/><path class="cls-20" d="m481.25,937.11h-4.35v8.64h-3.9v-22.46h7.9c2.59,0,4.59.58,6,1.74,1.41,1.16,2.11,2.85,2.11,5.05,0,1.5-.36,2.76-1.09,3.78-.73,1.01-1.74,1.79-3.03,2.34l5.04,9.35v.2h-4.18l-4.51-8.64Zm-4.35-3.15h4.01c1.32,0,2.34-.33,3.08-1s1.11-1.57,1.11-2.72-.34-2.13-1.03-2.79-1.71-1-3.06-1.02h-4.12v7.53Z"/><path class="cls-20" d="m510.55,945.75h-3.89v-9.97h-10.04v9.97h-3.9v-22.46h3.9v9.35h10.04v-9.35h3.89v22.46Z"/><path class="cls-20" d="m528.29,935.72h-9.22v6.91h10.78v3.12h-14.69v-22.46h14.58v3.15h-10.67v6.2h9.22v3.08Z"/><path class="cls-20" d="m544.76,939.96c0-.99-.35-1.75-1.04-2.28-.69-.53-1.95-1.07-3.76-1.62-1.81-.54-3.25-1.15-4.32-1.82-2.04-1.29-3.07-2.96-3.07-5.03,0-1.81.74-3.3,2.21-4.47,1.48-1.17,3.39-1.76,5.75-1.76,1.56,0,2.96.29,4.18.86,1.22.58,2.19,1.4,2.88,2.46s1.05,2.24,1.05,3.54h-3.89c0-1.17-.37-2.09-1.1-2.75-.74-.66-1.79-1-3.15-1-1.28,0-2.27.27-2.97.82s-1.06,1.31-1.06,2.28c0,.82.38,1.51,1.14,2.06.76.55,2.02,1.08,3.77,1.6,1.75.52,3.15,1.11,4.21,1.77,1.06.66,1.84,1.42,2.33,2.28.49.86.74,1.86.74,3.02,0,1.87-.72,3.36-2.15,4.47s-3.38,1.66-5.84,1.66c-1.62,0-3.12-.3-4.48-.9s-2.42-1.43-3.18-2.49c-.76-1.06-1.13-2.29-1.13-3.7h3.9c0,1.28.42,2.26,1.26,2.96.84.7,2.05,1.05,3.62,1.05,1.36,0,2.38-.28,3.06-.83.68-.55,1.03-1.28,1.03-2.18Z"/><path class="cls-20" d="m561.86,928.7c.7,0,1.24.2,1.62.59.38.4.57.89.57,1.49s-.19,1.07-.57,1.46c-.38.39-.92.58-1.62.58s-1.2-.19-1.59-.57c-.39-.38-.59-.87-.59-1.47s.19-1.09.57-1.49c.38-.4.91-.59,1.6-.59Zm0,13.1c.7,0,1.24.2,1.62.59.38.4.57.89.57,1.49s-.19,1.07-.57,1.46c-.38.39-.92.58-1.62.58s-1.2-.19-1.59-.57c-.39-.38-.59-.87-.59-1.46s.19-1.09.57-1.49c.38-.4.91-.59,1.6-.59Z"/><path class="cls-29" d="m587.26,923.18v3.1h-.46c-2.1.03-3.78.61-5.03,1.73-1.25,1.12-2,2.71-2.24,4.77,1.2-1.27,2.74-1.9,4.61-1.9,1.99,0,3.55.7,4.7,2.1,1.15,1.4,1.72,3.2,1.72,5.42s-.67,4.13-2.01,5.55c-1.34,1.41-3.1,2.12-5.28,2.12s-4.06-.83-5.45-2.48c-1.39-1.66-2.09-3.83-2.09-6.51v-1.28c0-3.94.96-7.02,2.88-9.26s4.68-3.35,8.28-3.35h.39Zm-4.03,10.72c-.82,0-1.58.23-2.26.69s-1.19,1.08-1.5,1.85v1.14c0,1.67.35,2.99,1.05,3.97.7.98,1.61,1.47,2.71,1.47s1.99-.42,2.64-1.25.97-1.93.97-3.29-.33-2.46-.99-3.32-1.53-1.28-2.62-1.28Z"/><path class="cls-29" d="m619.86,945.75h-3.89v-9.97h-10.04v9.97h-3.9v-22.46h3.9v9.35h10.04v-9.35h3.89v22.46Z"/><path class="cls-29" d="m623.41,937.25c0-1.64.32-3.11.97-4.42s1.56-2.32,2.73-3.02,2.52-1.06,4.04-1.06c2.25,0,4.08.72,5.48,2.17s2.16,3.37,2.28,5.77l.02.88c0,1.65-.32,3.12-.95,4.41-.63,1.29-1.54,2.3-2.71,3.01s-2.54,1.06-4.08,1.06c-2.36,0-4.24-.78-5.65-2.35s-2.12-3.66-2.12-6.27v-.18Zm3.75.32c0,1.72.35,3.06,1.06,4.03.71.97,1.7,1.46,2.96,1.46s2.25-.49,2.96-1.48c.7-.99,1.06-2.43,1.06-4.33,0-1.69-.36-3.02-1.09-4.01s-1.71-1.48-2.96-1.48-2.2.49-2.92,1.46c-.72.97-1.08,2.42-1.08,4.36Z"/><path class="cls-29" d="m652.21,944.11c-1.1,1.29-2.66,1.94-4.69,1.94-1.81,0-3.18-.53-4.11-1.59-.93-1.06-1.39-2.59-1.39-4.6v-10.81h3.75v10.77c0,2.12.88,3.18,2.64,3.18s3.05-.65,3.69-1.96v-11.99h3.75v16.69h-3.53l-.09-1.63Z"/><path class="cls-29" d="m668.39,932.48c-.49-.08-1-.12-1.53-.12-1.72,0-2.88.66-3.47,1.97v11.42h-3.75v-16.69h3.58l.09,1.87c.9-1.45,2.16-2.17,3.76-2.17.53,0,.98.07,1.33.22l-.02,3.52Z"/><path class="cls-29" d="m680.12,941.21c0-.67-.28-1.18-.83-1.53-.55-.35-1.46-.66-2.74-.93-1.28-.27-2.34-.61-3.19-1.02-1.87-.9-2.81-2.22-2.81-3.93,0-1.44.61-2.64,1.82-3.61s2.76-1.45,4.63-1.45c1.99,0,3.61.49,4.84,1.48,1.23.99,1.84,2.27,1.84,3.84h-3.75c0-.72-.27-1.32-.8-1.8-.54-.48-1.25-.72-2.13-.72-.82,0-1.49.19-2.01.57-.52.38-.78.89-.78,1.53,0,.58.24,1.02.72,1.34.48.32,1.46.64,2.93.96s2.62.71,3.46,1.16c.84.45,1.46.98,1.87,1.61.41.63.61,1.39.61,2.28,0,1.5-.62,2.72-1.87,3.65-1.24.93-2.88,1.4-4.89,1.4-1.37,0-2.59-.25-3.66-.74-1.07-.49-1.9-1.17-2.5-2.04-.6-.86-.89-1.79-.89-2.79h3.64c.05.88.38,1.57,1,2.04.62.48,1.44.72,2.45.72s1.74-.19,2.25-.56c.51-.38.77-.87.77-1.47Z"/><path class="cls-29" d="m688.12,947.68h-2.95l8.84-24.39h2.95l-8.84,24.39Z"/><path class="cls-29" d="m712.85,923.29l6.48,17.22,6.46-17.22h5.04v22.46h-3.89v-7.41l.38-9.9-6.63,17.31h-2.79l-6.62-17.29.38,9.89v7.41h-3.89v-22.46h5.06Z"/><path class="cls-29" d="m734.39,937.25c0-1.64.32-3.11.97-4.42s1.56-2.32,2.73-3.02,2.52-1.06,4.04-1.06c2.25,0,4.08.72,5.48,2.17s2.16,3.37,2.28,5.77l.02.88c0,1.65-.32,3.12-.95,4.41-.63,1.29-1.54,2.3-2.71,3.01s-2.54,1.06-4.08,1.06c-2.36,0-4.24-.78-5.65-2.35s-2.12-3.66-2.12-6.27v-.18Zm3.75.32c0,1.72.35,3.06,1.06,4.03.71.97,1.7,1.46,2.96,1.46s2.25-.49,2.96-1.48c.7-.99,1.06-2.43,1.06-4.33,0-1.69-.36-3.02-1.09-4.01s-1.71-1.48-2.96-1.48-2.2.49-2.92,1.46c-.72.97-1.08,2.42-1.08,4.36Z"/><path class="cls-29" d="m756.56,929.06l.11,1.93c1.23-1.49,2.85-2.24,4.86-2.24,3.47,0,5.24,1.99,5.31,5.97v11.03h-3.75v-10.81c0-1.06-.23-1.84-.69-2.35-.46-.51-1.21-.76-2.24-.76-1.51,0-2.64.68-3.38,2.05v11.88h-3.75v-16.69h3.53Z"/><path class="cls-29" d="m775.35,925v4.06h2.95v2.78h-2.95v9.32c0,.64.12,1.1.38,1.38.25.28.7.42,1.35.42.43,0,.87-.05,1.31-.15v2.9c-.85.24-1.68.35-2.47.35-2.88,0-4.32-1.59-4.32-4.77v-9.46h-2.75v-2.78h2.75v-4.06h3.75Z"/><path class="cls-29" d="m784.85,930.88c1.22-1.42,2.77-2.13,4.64-2.13,3.56,0,5.36,2.03,5.42,6.09v10.91h-3.75v-10.77c0-1.15-.25-1.97-.75-2.45-.5-.48-1.23-.72-2.2-.72-1.5,0-2.62.67-3.36,2.01v11.92h-3.75v-23.7h3.75v8.82Z"/><path class="cls-13" d="m490.93,993.43c0,2.2-.38,4.13-1.14,5.79-.76,1.66-1.85,2.94-3.26,3.83-1.41.89-3.04,1.33-4.88,1.33s-3.44-.44-4.87-1.33c-1.42-.89-2.53-2.16-3.3-3.8-.78-1.65-1.17-3.54-1.18-5.69v-1.26c0-2.19.39-4.12,1.17-5.8.78-1.68,1.87-2.96,3.29-3.85s3.04-1.33,4.87-1.33,3.45.44,4.87,1.32c1.41.88,2.51,2.14,3.28,3.79.77,1.65,1.16,3.57,1.17,5.76v1.25Zm-3.9-1.17c0-2.49-.47-4.4-1.41-5.72-.94-1.33-2.28-1.99-4-1.99s-3.01.66-3.96,1.98-1.44,3.19-1.46,5.61v1.3c0,2.47.48,4.38,1.44,5.72.96,1.35,2.3,2.02,4,2.02s3.06-.66,3.99-1.97c.93-1.32,1.39-3.24,1.39-5.77v-1.17Z"/><path class="cls-13" d="m509.73,984.76h-7v19.31h-3.87v-19.31h-6.94v-3.15h17.82v3.15Z"/><path class="cls-13" d="m529.38,996.76c-.23,2.4-1.11,4.27-2.65,5.61-1.54,1.34-3.59,2.01-6.15,2.01-1.79,0-3.37-.42-4.73-1.27s-2.41-2.05-3.15-3.62c-.74-1.56-1.13-3.38-1.16-5.45v-2.1c0-2.12.38-3.99,1.13-5.6.75-1.61,1.83-2.86,3.23-3.73,1.4-.87,3.03-1.31,4.87-1.31,2.48,0,4.47.67,5.98,2.01s2.39,3.24,2.64,5.7h-3.89c-.19-1.61-.66-2.78-1.41-3.49s-1.87-1.07-3.32-1.07c-1.7,0-3,.62-3.91,1.86-.91,1.24-1.38,3.06-1.39,5.46v1.99c0,2.43.43,4.28,1.3,5.56s2.14,1.91,3.82,1.91c1.53,0,2.68-.34,3.46-1.03.77-.69,1.26-1.84,1.47-3.44h3.89Z"/><path class="cls-13" d="m542.64,987.02c.7,0,1.24.2,1.62.59.38.4.57.89.57,1.49s-.19,1.07-.57,1.46-.92.58-1.62.58-1.2-.19-1.59-.57c-.39-.38-.59-.87-.59-1.47s.19-1.09.57-1.49c.38-.4.92-.59,1.61-.59Zm0,13.1c.7,0,1.24.2,1.62.59.38.4.57.89.57,1.49s-.19,1.07-.57,1.46-.92.58-1.62.58-1.2-.19-1.59-.57c-.39-.38-.59-.87-.59-1.46s.19-1.09.57-1.49c.38-.4.92-.59,1.61-.59Z"/><path class="cls-29" d="m570.94,994.61c0,3.23-.6,5.67-1.81,7.3-1.21,1.64-3.05,2.46-5.51,2.46s-4.26-.8-5.48-2.4c-1.23-1.6-1.86-3.97-1.89-7.1v-3.89c0-3.23.6-5.65,1.81-7.27,1.21-1.62,3.05-2.42,5.53-2.42s4.29.79,5.5,2.36c1.21,1.57,1.83,3.93,1.86,7.07v3.89Zm-3.75-4.2c0-2.11-.29-3.65-.86-4.64-.58-.98-1.49-1.47-2.75-1.47s-2.12.47-2.7,1.4c-.58.93-.88,2.38-.91,4.36v5.09c0,2.1.29,3.66.88,4.69s1.51,1.54,2.76,1.54,2.09-.48,2.67-1.43.88-2.44.91-4.47v-5.08Z"/><path class="cls-13" d="m490.14,1108.9c0,2.2-.38,4.13-1.14,5.79-.76,1.66-1.85,2.94-3.26,3.83-1.41.89-3.04,1.33-4.88,1.33s-3.44-.44-4.87-1.33c-1.42-.89-2.53-2.16-3.3-3.8-.78-1.65-1.17-3.54-1.18-5.69v-1.26c0-2.19.39-4.12,1.17-5.8.78-1.68,1.87-2.96,3.29-3.85s3.04-1.33,4.87-1.33,3.45.44,4.87,1.32c1.41.88,2.51,2.14,3.28,3.79.77,1.65,1.16,3.57,1.17,5.76v1.25Zm-3.9-1.17c0-2.49-.47-4.4-1.41-5.72-.94-1.33-2.28-1.99-4-1.99s-3.01.66-3.96,1.98-1.44,3.19-1.46,5.61v1.3c0,2.47.48,4.38,1.44,5.72.96,1.35,2.3,2.02,4,2.02s3.06-.66,3.99-1.97c.93-1.32,1.39-3.24,1.39-5.77v-1.17Z"/><path class="cls-13" d="m494.99,1119.55v-13.92h-2.54v-2.78h2.54v-1.53c0-1.85.51-3.28,1.54-4.29,1.03-1.01,2.47-1.51,4.32-1.51.66,0,1.36.09,2.1.28l-.09,2.93c-.41-.08-.89-.12-1.43-.12-1.79,0-2.69.92-2.69,2.76v1.48h3.39v2.78h-3.39v13.92h-3.75Z"/><path class="cls-13" d="m506.19,1119.55v-13.92h-2.54v-2.78h2.54v-1.53c0-1.85.52-3.28,1.54-4.29,1.03-1.01,2.47-1.51,4.32-1.51.66,0,1.36.09,2.1.28l-.09,2.93c-.41-.08-.89-.12-1.44-.12-1.79,0-2.68.92-2.68,2.76v1.48h3.39v2.78h-3.39v13.92h-3.75Z"/><path class="cls-13" d="m523.05,1119.86c-2.38,0-4.3-.75-5.78-2.25-1.47-1.5-2.21-3.49-2.21-5.98v-.46c0-1.67.32-3.15.96-4.47.64-1.31,1.55-2.33,2.71-3.06,1.16-.73,2.46-1.09,3.89-1.09,2.27,0,4.03.72,5.27,2.17,1.24,1.45,1.86,3.5,1.86,6.16v1.51h-10.91c.11,1.38.57,2.47,1.38,3.27.81.8,1.82,1.2,3.05,1.2,1.72,0,3.12-.69,4.2-2.08l2.02,1.93c-.67,1-1.56,1.77-2.68,2.32-1.12.55-2.37.83-3.76.83Zm-.45-14.3c-1.03,0-1.86.36-2.49,1.08-.63.72-1.04,1.72-1.21,3.01h7.14v-.28c-.08-1.25-.42-2.2-1-2.85-.59-.64-1.4-.96-2.44-.96Z"/><path class="cls-13" d="m541.39,1106.28c-.49-.08-1-.12-1.53-.12-1.72,0-2.88.66-3.47,1.97v11.42h-3.75v-16.69h3.58l.09,1.87c.9-1.45,2.16-2.17,3.76-2.17.54,0,.98.07,1.33.22l-.02,3.52Z"/><path class="cls-13" d="m553.89,1102.5c.7,0,1.24.2,1.62.59.38.4.57.89.57,1.49s-.19,1.07-.57,1.46c-.38.39-.92.58-1.62.58s-1.2-.19-1.59-.57c-.39-.38-.59-.87-.59-1.47s.19-1.09.57-1.49c.38-.4.91-.59,1.6-.59Zm0,13.1c.7,0,1.24.2,1.62.59.38.4.57.89.57,1.49s-.19,1.07-.57,1.46c-.38.39-.92.58-1.62.58s-1.2-.19-1.59-.57c-.39-.38-.59-.87-.59-1.46s.19-1.09.57-1.49c.38-.4.91-.59,1.6-.59Z"/><path class="cls-29" d="m582.99,1119.55h-3.31l-8.49-13.51v13.51h-3.31v-19.04h3.31l8.51,13.56v-13.56h3.28v19.04Z"/><path class="cls-29" d="m586,1112.34c0-1.39.27-2.63.82-3.75.55-1.11,1.32-1.97,2.32-2.56.99-.6,2.13-.9,3.43-.9,1.91,0,3.46.61,4.65,1.84,1.19,1.23,1.83,2.86,1.93,4.89v.75c.01,1.39-.25,2.64-.79,3.74-.54,1.1-1.3,1.95-2.3,2.55s-2.15.9-3.46.9c-2,0-3.59-.67-4.79-1.99-1.2-1.33-1.8-3.1-1.8-5.32v-.16Zm3.18.27c0,1.46.3,2.6.9,3.42.6.82,1.44,1.24,2.51,1.24s1.91-.42,2.5-1.25.9-2.06.9-3.67c0-1.43-.31-2.56-.92-3.4s-1.45-1.25-2.5-1.25-1.86.41-2.47,1.24c-.61.82-.91,2.06-.91,3.69Z"/><path class="cls-29" d="m622.74,1100.51v12.72c0,2.02-.65,3.62-1.94,4.81-1.29,1.18-3.02,1.77-5.17,1.77s-3.91-.58-5.19-1.75-1.92-2.78-1.92-4.84v-12.71h3.29v12.74c0,1.27.32,2.25.97,2.92.64.67,1.6,1.01,2.85,1.01,2.55,0,3.82-1.34,3.82-4.03v-12.63h3.3Z"/><path class="cls-29" d="m638.36,1112.62c0,2.19-.5,3.93-1.49,5.24s-2.33,1.96-4,1.96c-1.55,0-2.79-.51-3.73-1.53v6.71h-3.18v-19.59h2.93l.13,1.44c.93-1.13,2.2-1.7,3.8-1.7,1.73,0,3.08.64,4.06,1.93s1.47,3.07,1.47,5.35v.2Zm-3.17-.27c0-1.41-.28-2.53-.84-3.36-.56-.83-1.37-1.24-2.41-1.24-1.3,0-2.23.54-2.8,1.61v6.28c.58,1.1,1.52,1.65,2.83,1.65,1.01,0,1.8-.41,2.37-1.22.57-.82.86-2.05.86-3.71Z"/><path class="cls-29" d="m642.16,1119.55v-11.79h-2.16v-2.35h2.16v-1.29c0-1.57.44-2.78,1.31-3.64.87-.85,2.09-1.28,3.66-1.28.56,0,1.15.08,1.78.24l-.08,2.48c-.35-.07-.75-.1-1.21-.1-1.52,0-2.28.78-2.28,2.34v1.25h2.88v2.35h-2.88v11.79h-3.18Z"/><path class="cls-29" d="m657.94,1108.3c-.42-.07-.85-.1-1.29-.1-1.46,0-2.44.56-2.94,1.67v9.68h-3.18v-14.15h3.03l.08,1.58c.77-1.23,1.83-1.84,3.19-1.84.45,0,.83.06,1.12.18v2.98Z"/><path class="cls-29" d="m658.89,1112.34c0-1.39.28-2.63.82-3.75.55-1.11,1.32-1.97,2.31-2.56s2.14-.9,3.43-.9c1.91,0,3.46.61,4.65,1.84,1.19,1.23,1.83,2.86,1.93,4.89v.75c.01,1.39-.26,2.64-.79,3.74-.54,1.1-1.3,1.95-2.3,2.55-1,.6-2.15.9-3.46.9-2,0-3.6-.67-4.79-1.99-1.2-1.33-1.8-3.1-1.8-5.32v-.16Zm3.18.27c0,1.46.3,2.6.9,3.42.6.82,1.44,1.24,2.51,1.24s1.91-.42,2.5-1.25c.6-.84.89-2.06.89-3.67,0-1.43-.31-2.56-.92-3.4-.61-.84-1.45-1.25-2.5-1.25s-1.86.41-2.47,1.24c-.61.82-.92,2.06-.92,3.69Z"/><path class="cls-29" d="m677.68,1105.4l.09,1.63c1.05-1.26,2.42-1.9,4.12-1.9,2.95,0,4.45,1.69,4.5,5.06v9.35h-3.18v-9.17c0-.9-.19-1.56-.58-1.99-.39-.43-1.02-.65-1.9-.65-1.28,0-2.24.58-2.86,1.74v10.07h-3.18v-14.15h2.99Z"/><path class="cls-29" d="m693.6,1101.96v3.44h2.5v2.35h-2.5v7.9c0,.54.11.93.32,1.17.21.24.6.36,1.14.36.37,0,.74-.04,1.11-.13v2.46c-.72.2-1.42.3-2.09.3-2.44,0-3.66-1.35-3.66-4.04v-8.02h-2.33v-2.35h2.33v-3.44h3.18Z"/><path class="cls-29" d="m709,1119.55h-3.29v-19.04h3.29v19.04Z"/><path class="cls-29" d="m715.7,1105.4l.09,1.63c1.05-1.26,2.42-1.9,4.12-1.9,2.95,0,4.45,1.69,4.5,5.06v9.35h-3.18v-9.17c0-.9-.19-1.56-.58-1.99-.39-.43-1.02-.65-1.9-.65-1.28,0-2.24.58-2.86,1.74v10.07h-3.18v-14.15h2.99Z"/><path class="cls-29" d="m732.64,1115.52l2.99-10.12h3.28l-4.9,14.15h-2.76l-4.94-14.15h3.29l3.04,10.12Z"/><path class="cls-29" d="m746.96,1119.81c-2.01,0-3.65-.63-4.9-1.9-1.25-1.27-1.88-2.96-1.88-5.07v-.39c0-1.41.27-2.67.82-3.79.54-1.11,1.31-1.98,2.29-2.6.98-.62,2.08-.93,3.29-.93,1.93,0,3.42.61,4.47,1.84,1.05,1.23,1.57,2.97,1.57,5.22v1.28h-9.24c.1,1.17.49,2.09,1.17,2.77.68.68,1.54,1.02,2.58,1.02,1.46,0,2.64-.59,3.56-1.77l1.71,1.63c-.57.85-1.32,1.5-2.27,1.97-.95.47-2.01.7-3.18.7Zm-.38-12.12c-.87,0-1.57.3-2.11.92-.54.61-.88,1.46-1.03,2.55h6.05v-.24c-.07-1.06-.35-1.87-.85-2.41-.5-.54-1.19-.82-2.07-.82Z"/><path class="cls-29" d="m763.03,1115.7c0-.57-.23-1-.7-1.29-.47-.3-1.24-.56-2.32-.79-1.08-.23-1.98-.51-2.71-.86-1.59-.77-2.38-1.88-2.38-3.33,0-1.22.51-2.24,1.54-3.06,1.03-.82,2.34-1.23,3.92-1.23,1.69,0,3.06.42,4.1,1.25,1.04.84,1.56,1.92,1.56,3.26h-3.18c0-.61-.23-1.12-.68-1.52-.45-.41-1.05-.61-1.8-.61-.7,0-1.27.16-1.71.48-.44.32-.66.75-.66,1.29,0,.49.21.87.61,1.14.41.27,1.24.54,2.48.82,1.25.27,2.23.6,2.94.98.71.38,1.24.83,1.58,1.37.34.53.52,1.18.52,1.94,0,1.27-.53,2.3-1.58,3.09s-2.44,1.18-4.14,1.18c-1.16,0-2.19-.21-3.1-.63-.91-.42-1.61-.99-2.12-1.73-.51-.73-.76-1.52-.76-2.37h3.09c.04.75.33,1.33.85,1.73s1.22.61,2.08.61,1.47-.16,1.91-.48.65-.73.65-1.25Z"/><path class="cls-29" d="m772.9,1101.96v3.44h2.5v2.35h-2.5v7.9c0,.54.11.93.32,1.17.21.24.6.36,1.14.36.37,0,.74-.04,1.11-.13v2.46c-.72.2-1.42.3-2.09.3-2.44,0-3.66-1.35-3.66-4.04v-8.02h-2.33v-2.35h2.33v-3.44h3.18Z"/><path class="cls-29" d="m780.81,1105.4l.09,1.48c.99-1.16,2.35-1.74,4.08-1.74,1.89,0,3.19.72,3.88,2.17,1.03-1.45,2.48-2.17,4.34-2.17,1.56,0,2.72.43,3.48,1.29.76.86,1.15,2.14,1.17,3.82v9.3h-3.18v-9.21c0-.9-.2-1.56-.59-1.97-.39-.42-1.04-.63-1.95-.63-.72,0-1.31.19-1.77.58-.46.39-.78.9-.96,1.52v9.7s-3.16,0-3.16,0v-9.31c-.04-1.67-.89-2.5-2.55-2.5-1.27,0-2.17.52-2.71,1.56v10.25h-3.18v-14.15h3Z"/><path class="cls-29" d="m807.36,1119.81c-2.01,0-3.65-.63-4.9-1.9-1.25-1.27-1.88-2.96-1.88-5.07v-.39c0-1.41.27-2.67.82-3.79.54-1.11,1.31-1.98,2.29-2.6.99-.62,2.08-.93,3.3-.93,1.93,0,3.41.61,4.46,1.84,1.05,1.23,1.58,2.97,1.58,5.22v1.28h-9.25c.1,1.17.49,2.09,1.17,2.77.68.68,1.54,1.02,2.58,1.02,1.46,0,2.64-.59,3.56-1.77l1.71,1.63c-.57.85-1.32,1.5-2.27,1.97-.95.47-2.01.7-3.18.7Zm-.38-12.12c-.87,0-1.58.3-2.11.92-.54.61-.88,1.46-1.03,2.55h6.05v-.24c-.07-1.06-.35-1.87-.85-2.41-.5-.54-1.19-.82-2.07-.82Z"/><path class="cls-29" d="m818.45,1105.4l.09,1.63c1.05-1.26,2.42-1.9,4.12-1.9,2.95,0,4.45,1.69,4.5,5.06v9.35h-3.18v-9.17c0-.9-.2-1.56-.58-1.99-.39-.43-1.02-.65-1.9-.65-1.28,0-2.24.58-2.87,1.74v10.07h-3.18v-14.15h3Z"/><path class="cls-29" d="m834.38,1101.96v3.44h2.5v2.35h-2.5v7.9c0,.54.11.93.32,1.17.21.24.59.36,1.14.36.37,0,.74-.04,1.11-.13v2.46c-.72.2-1.42.3-2.09.3-2.44,0-3.66-1.35-3.66-4.04v-8.02h-2.33v-2.35h2.33v-3.44h3.18Z"/><path class="cls-5" d="m440.36,1108.47c0,7.74-6.27,14.01-14.01,14.01h0c-7.74,0-14.01-6.27-14.01-14.01h0c0-7.74,6.27-14.01,14.01-14.01h0c7.74,0,14.01,6.27,14.01,14.01h0Z"/><path class="cls-24" d="m433.38,1108.47c0,3.89-3.15,7.04-7.04,7.04h0c-3.89,0-7.04-3.15-7.04-7.04h0c0-3.89,3.15-7.04,7.04-7.04h0c3.89,0,7.04,3.15,7.04,7.04h0Z"/><path class="cls-20" d="m489.36,1050.46c-.23,2.4-1.11,4.27-2.65,5.61-1.54,1.34-3.59,2.01-6.15,2.01-1.79,0-3.37-.42-4.73-1.27s-2.41-2.05-3.15-3.62c-.74-1.56-1.13-3.38-1.16-5.45v-2.1c0-2.12.38-3.99,1.13-5.6.75-1.61,1.83-2.86,3.23-3.73,1.4-.87,3.03-1.31,4.87-1.31,2.48,0,4.47.67,5.98,2.01s2.39,3.24,2.64,5.7h-3.89c-.19-1.61-.66-2.78-1.41-3.49s-1.87-1.07-3.32-1.07c-1.7,0-3,.62-3.91,1.86-.91,1.24-1.38,3.06-1.39,5.46v1.99c0,2.43.43,4.28,1.3,5.56s2.14,1.91,3.82,1.91c1.53,0,2.68-.34,3.46-1.03.77-.69,1.26-1.84,1.47-3.44h3.89Z"/><path class="cls-20" d="m491.78,1049.27c0-1.64.32-3.11.97-4.42s1.56-2.32,2.73-3.02,2.52-1.06,4.04-1.06c2.25,0,4.08.72,5.48,2.17s2.16,3.37,2.28,5.77l.02.88c0,1.65-.32,3.12-.95,4.41-.63,1.29-1.54,2.3-2.71,3.01s-2.54,1.06-4.08,1.06c-2.36,0-4.24-.78-5.65-2.35s-2.12-3.66-2.12-6.27v-.18Zm3.75.32c0,1.72.35,3.06,1.06,4.03.71.97,1.7,1.46,2.96,1.46s2.25-.49,2.96-1.48c.7-.99,1.06-2.43,1.06-4.33,0-1.69-.36-3.02-1.09-4.01s-1.71-1.48-2.96-1.48-2.2.49-2.92,1.46c-.72.97-1.08,2.42-1.08,4.36Z"/><path class="cls-20" d="m513.95,1041.08l.11,1.93c1.23-1.49,2.85-2.24,4.86-2.24,3.47,0,5.24,1.99,5.31,5.97v11.03h-3.75v-10.81c0-1.06-.23-1.84-.69-2.35-.46-.51-1.21-.76-2.24-.76-1.51,0-2.64.68-3.38,2.05v11.88h-3.75v-16.69h3.53Z"/><path class="cls-20" d="m532.74,1037.02v4.06h2.95v2.78h-2.95v9.32c0,.64.12,1.1.38,1.38.25.28.7.42,1.35.42.43,0,.87-.05,1.31-.15v2.9c-.85.24-1.68.35-2.47.35-2.88,0-4.32-1.59-4.32-4.77v-9.46h-2.75v-2.78h2.75v-4.06h3.75Z"/><path class="cls-20" d="m547.28,1044.5c-.49-.08-1-.12-1.53-.12-1.72,0-2.88.66-3.47,1.97v11.42h-3.75v-16.69h3.58l.09,1.87c.9-1.45,2.16-2.17,3.76-2.17.54,0,.98.07,1.33.22l-.02,3.52Z"/><path class="cls-20" d="m559.16,1057.77c-.17-.32-.31-.84-.43-1.56-1.19,1.24-2.65,1.87-4.38,1.87s-3.04-.48-4.1-1.43c-1.06-.96-1.59-2.14-1.59-3.55,0-1.78.66-3.14,1.98-4.1,1.32-.95,3.21-1.43,5.67-1.43h2.3v-1.09c0-.86-.24-1.56-.72-2.08-.48-.52-1.22-.78-2.21-.78-.85,0-1.55.21-2.1.64s-.82.97-.82,1.63h-3.75c0-.92.3-1.77.91-2.57.61-.8,1.43-1.42,2.48-1.87,1.04-.45,2.21-.68,3.49-.68,1.95,0,3.51.49,4.67,1.47,1.16.98,1.76,2.36,1.79,4.14v7.53c0,1.5.21,2.7.63,3.59v.26h-3.82Zm-4.12-2.7c.74,0,1.44-.18,2.09-.54.65-.36,1.14-.84,1.47-1.45v-3.15h-2.02c-1.39,0-2.43.24-3.13.73s-1.05,1.17-1.05,2.05c0,.72.24,1.29.72,1.72s1.12.64,1.92.64Z"/><path class="cls-20" d="m573.14,1055.08c.94,0,1.71-.27,2.33-.82s.95-1.22.99-2.02h3.53c-.04,1.04-.37,2.01-.97,2.91-.61.9-1.43,1.61-2.47,2.14-1.04.52-2.16.79-3.36.79-2.34,0-4.19-.76-5.55-2.27s-2.05-3.6-2.05-6.26v-.39c0-2.54.68-4.57,2.04-6.1,1.36-1.53,3.21-2.29,5.55-2.29,1.98,0,3.6.58,4.85,1.74s1.9,2.68,1.97,4.56h-3.53c-.04-.96-.37-1.74-.98-2.36-.61-.62-1.39-.93-2.34-.93-1.21,0-2.15.44-2.81,1.32-.66.88-.99,2.21-1,4v.6c0,1.81.33,3.16.98,4.05.65.89,1.6,1.33,2.83,1.33Z"/><path class="cls-20" d="m587.52,1037.02v4.06h2.95v2.78h-2.95v9.32c0,.64.13,1.1.38,1.38.25.28.7.42,1.35.42.43,0,.87-.05,1.31-.15v2.9c-.85.24-1.68.35-2.47.35-2.88,0-4.32-1.59-4.32-4.77v-9.46h-2.75v-2.78h2.75v-4.06h3.75Z"/><path class="cls-20" d="m605.46,1049.44v8.33h-3.9v-22.46h8.59c2.51,0,4.5.65,5.98,1.96,1.47,1.31,2.21,3.04,2.21,5.19s-.72,3.92-2.17,5.14c-1.45,1.22-3.47,1.84-6.07,1.84h-4.64Zm0-3.15h4.69c1.39,0,2.45-.33,3.18-.98s1.1-1.6,1.1-2.83-.37-2.18-1.11-2.91c-.74-.72-1.76-1.1-3.05-1.12h-4.8v7.84Z"/><path class="cls-20" d="m628.54,1058.08c-2.38,0-4.3-.75-5.78-2.25-1.47-1.5-2.21-3.49-2.21-5.98v-.46c0-1.67.32-3.15.96-4.47.64-1.31,1.55-2.33,2.71-3.06,1.16-.73,2.46-1.09,3.89-1.09,2.27,0,4.03.72,5.27,2.17,1.24,1.45,1.86,3.5,1.86,6.16v1.51h-10.91c.11,1.38.57,2.47,1.38,3.27.81.8,1.82,1.2,3.05,1.2,1.72,0,3.12-.69,4.2-2.08l2.02,1.93c-.67,1-1.56,1.77-2.68,2.32-1.12.55-2.37.83-3.76.83Zm-.45-14.3c-1.03,0-1.86.36-2.49,1.08-.63.72-1.04,1.72-1.21,3.01h7.14v-.28c-.08-1.25-.42-2.2-1-2.85-.59-.64-1.4-.96-2.44-.96Z"/><path class="cls-20" d="m646.88,1044.5c-.49-.08-1-.12-1.53-.12-1.72,0-2.88.66-3.47,1.97v11.42h-3.75v-16.69h3.58l.09,1.87c.9-1.45,2.16-2.17,3.76-2.17.54,0,.98.07,1.33.22l-.02,3.52Z"/><path class="cls-20" d="m649.26,1036.74c0-.58.18-1.05.55-1.43.37-.38.89-.57,1.57-.57s1.2.19,1.57.57c.37.38.55.86.55,1.43s-.19,1.04-.55,1.41c-.37.38-.89.56-1.57.56s-1.2-.19-1.57-.56c-.37-.38-.55-.85-.55-1.41Zm3.98,21.03h-3.75v-16.69h3.75v16.69Z"/><path class="cls-20" d="m656.61,1049.27c0-1.64.32-3.11.97-4.42.65-1.31,1.56-2.32,2.73-3.02,1.17-.7,2.52-1.06,4.04-1.06,2.25,0,4.08.72,5.48,2.17,1.4,1.45,2.16,3.37,2.28,5.77l.02.88c0,1.65-.32,3.12-.95,4.41-.63,1.29-1.54,2.3-2.71,3.01s-2.54,1.06-4.08,1.06c-2.36,0-4.24-.78-5.65-2.35s-2.12-3.66-2.12-6.27v-.18Zm3.75.32c0,1.72.36,3.06,1.06,4.03.71.97,1.7,1.46,2.96,1.46s2.25-.49,2.95-1.48,1.06-2.43,1.06-4.33c0-1.69-.36-3.02-1.09-4.01-.72-.99-1.71-1.48-2.95-1.48s-2.2.49-2.92,1.46c-.72.97-1.08,2.42-1.08,4.36Z"/><path class="cls-20" d="m674.6,1049.3c0-2.57.6-4.64,1.79-6.19,1.19-1.56,2.79-2.34,4.8-2.34,1.77,0,3.2.62,4.29,1.85v-8.55h3.75v23.7h-3.39l-.18-1.73c-1.12,1.36-2.62,2.04-4.49,2.04s-3.54-.79-4.74-2.36c-1.21-1.57-1.81-3.71-1.81-6.42Zm3.75.32c0,1.7.33,3.02.98,3.97s1.58,1.43,2.79,1.43c1.53,0,2.65-.68,3.36-2.05v-7.13c-.69-1.34-1.8-2.01-3.33-2.01-1.21,0-2.15.48-2.81,1.44-.66.96-.99,2.41-.99,4.34Z"/><path class="cls-20" d="m703.26,1040.72c.7,0,1.24.2,1.62.59.38.4.57.89.57,1.49s-.19,1.07-.57,1.46-.92.58-1.62.58-1.2-.19-1.59-.57c-.39-.38-.59-.87-.59-1.47s.19-1.09.57-1.49c.38-.4.92-.59,1.61-.59Zm0,13.1c.7,0,1.24.2,1.62.59.38.4.57.89.57,1.49s-.19,1.07-.57,1.46-.92.58-1.62.58-1.2-.19-1.59-.57c-.39-.38-.59-.87-.59-1.46s.19-1.09.57-1.49c.38-.4.92-.59,1.61-.59Z"/><path class="cls-29" d="m721.27,1044.83h2.28c1.15,0,2.06-.31,2.74-.89s1.01-1.43,1.01-2.54-.28-1.9-.84-2.49c-.56-.59-1.42-.89-2.57-.89-1.01,0-1.84.29-2.48.87-.65.58-.97,1.34-.97,2.28h-3.75c0-1.15.31-2.2.92-3.15s1.47-1.68,2.56-2.21c1.1-.53,2.32-.79,3.68-.79,2.24,0,4,.56,5.28,1.69,1.28,1.13,1.92,2.69,1.92,4.7,0,1.01-.32,1.96-.96,2.85s-1.47,1.56-2.49,2.01c1.23.42,2.17,1.08,2.81,1.99.64.91.96,1.99.96,3.24,0,2.02-.69,3.62-2.08,4.81-1.38,1.19-3.2,1.79-5.45,1.79s-3.93-.58-5.31-1.73c-1.38-1.15-2.07-2.68-2.07-4.6h3.75c0,.99.33,1.79,1,2.41.66.62,1.55.93,2.68.93s2.08-.31,2.75-.93c.67-.62,1-1.51,1-2.68s-.35-2.09-1.05-2.73-1.74-.96-3.12-.96h-2.21v-2.96Z"/><path class="cls-29" d="m750.69,1045.95l5.17-10.64h4.32l-7.53,14.19v8.27h-3.92v-8.27l-7.54-14.19h4.34l5.17,10.64Z"/><path class="cls-29" d="m768.6,1058.08c-2.38,0-4.3-.75-5.78-2.25-1.48-1.5-2.21-3.49-2.21-5.98v-.46c0-1.67.32-3.15.96-4.47s1.54-2.33,2.71-3.06c1.16-.73,2.46-1.09,3.89-1.09,2.27,0,4.03.72,5.27,2.17,1.24,1.45,1.86,3.5,1.86,6.16v1.51h-10.91c.11,1.38.57,2.47,1.38,3.27.81.8,1.82,1.2,3.05,1.2,1.72,0,3.12-.69,4.2-2.08l2.02,1.93c-.67,1-1.56,1.77-2.68,2.32s-2.37.83-3.76.83Zm-.45-14.3c-1.03,0-1.86.36-2.49,1.08s-1.04,1.72-1.21,3.01h7.14v-.28c-.08-1.25-.42-2.2-1-2.85-.59-.64-1.4-.96-2.44-.96Z"/><path class="cls-29" d="m788.17,1057.77c-.16-.32-.31-.84-.43-1.56-1.19,1.24-2.65,1.87-4.38,1.87s-3.04-.48-4.1-1.43c-1.06-.96-1.59-2.14-1.59-3.55,0-1.78.66-3.14,1.98-4.1,1.32-.95,3.21-1.43,5.67-1.43h2.3v-1.09c0-.86-.24-1.56-.73-2.08-.48-.52-1.22-.78-2.21-.78-.85,0-1.55.21-2.1.64s-.82.97-.82,1.63h-3.75c0-.92.3-1.77.91-2.57.61-.8,1.43-1.42,2.48-1.87,1.04-.45,2.21-.68,3.49-.68,1.95,0,3.51.49,4.67,1.47,1.16.98,1.76,2.36,1.79,4.14v7.53c0,1.5.21,2.7.63,3.59v.26h-3.83Zm-4.12-2.7c.74,0,1.44-.18,2.09-.54.65-.36,1.14-.84,1.47-1.45v-3.15h-2.02c-1.39,0-2.43.24-3.13.73-.7.48-1.05,1.17-1.05,2.05,0,.72.24,1.29.72,1.72s1.12.64,1.92.64Z"/><path class="cls-29" d="m804.03,1044.5c-.49-.08-1-.12-1.53-.12-1.72,0-2.88.66-3.47,1.97v11.42h-3.75v-16.69h3.58l.09,1.87c.9-1.45,2.16-2.17,3.76-2.17.54,0,.98.07,1.33.22l-.02,3.52Z"/><path class="cls-29" d="m815.76,1053.23c0-.67-.28-1.18-.83-1.53s-1.46-.66-2.74-.93-2.34-.61-3.19-1.02c-1.87-.9-2.81-2.22-2.81-3.93,0-1.44.61-2.64,1.82-3.61,1.21-.97,2.76-1.45,4.63-1.45,2,0,3.61.49,4.84,1.48s1.84,2.27,1.84,3.84h-3.75c0-.72-.27-1.32-.8-1.8-.54-.48-1.24-.72-2.13-.72-.82,0-1.49.19-2.01.57-.52.38-.78.89-.78,1.53,0,.58.24,1.02.73,1.34.48.32,1.46.64,2.93.96s2.62.71,3.46,1.16c.84.45,1.46.98,1.87,1.61.41.63.61,1.39.61,2.28,0,1.5-.62,2.72-1.87,3.65-1.25.93-2.88,1.4-4.89,1.4-1.37,0-2.59-.25-3.66-.74-1.07-.49-1.9-1.17-2.5-2.04-.6-.86-.89-1.79-.89-2.79h3.64c.05.88.39,1.57,1,2.04.62.48,1.43.72,2.45.72s1.74-.19,2.25-.56c.51-.38.77-.87.77-1.47Z"/></svg>