<?xml version="1.0" encoding="UTF-8"?><svg id="Layer_1" xmlns="http://www.w3.org/2000/svg" xmlns:xlink="http://www.w3.org/1999/xlink" viewBox="0 0 910.19 1234.04"><defs><style>.cls-1,.cls-2,.cls-3,.cls-4,.cls-5,.cls-6{fill:#204295;}.cls-1,.cls-7,.cls-6{letter-spacing:0em;}.cls-8{fill:url(#linear-gradient-12);}.cls-8,.cls-9,.cls-10,.cls-11,.cls-12,.cls-13,.cls-14,.cls-15,.cls-16,.cls-17,.cls-18,.cls-19,.cls-20,.cls-21,.cls-22,.cls-23,.cls-24,.cls-25,.cls-26,.cls-27,.cls-28,.cls-29,.cls-30,.cls-31,.cls-32,.cls-33,.cls-34,.cls-35,.cls-36,.cls-37,.cls-38,.cls-39,.cls-40,.cls-41,.cls-42,.cls-43,.cls-44{stroke-width:0px;}.cls-45,.cls-46,.cls-47,.cls-48,.cls-49,.cls-50,.cls-51{font-style:italic;}.cls-45,.cls-47,.cls-48,.cls-49,.cls-50,.cls-51{font-family:Roboto-MediumItalic, Roboto;}.cls-45,.cls-47,.cls-52,.cls-53,.cls-54,.cls-51{font-weight:500;}.cls-45,.cls-47,.cls-28,.cls-51{fill:#fff;}.cls-9{fill:url(#linear-gradient-9);}.cls-9,.cls-12,.cls-13,.cls-16,.cls-18,.cls-21,.cls-30,.cls-40{opacity:.3;}.cls-46{fill:#006838;font-family:Raleway-SemiBoldItalic, Raleway;font-size:78.95px;font-weight:600;}.cls-10{fill:url(#linear-gradient-29);filter:url(#drop-shadow-21);}.cls-11{filter:url(#drop-shadow-18);}.cls-11,.cls-14,.cls-29,.cls-39,.cls-44{fill:#46863f;}.cls-55,.cls-56,.cls-57,.cls-58,.cls-59,.cls-60,.cls-61,.cls-7{fill:#206a37;}.cls-55,.cls-62,.cls-59,.cls-2,.cls-60,.cls-63,.cls-54,.cls-61,.cls-64,.cls-65,.cls-6,.cls-66,.cls-67{font-family:Roboto-Medium, Roboto;}.cls-68{letter-spacing:-.01em;}.cls-12{fill:url(#linear-gradient-10);}.cls-13{fill:url(#linear-gradient-3);}.cls-56{letter-spacing:-.04em;}.cls-14{filter:url(#drop-shadow-5);}.cls-69{letter-spacing:0em;}.cls-69,.cls-48,.cls-70,.cls-62,.cls-63,.cls-49,.cls-50,.cls-71,.cls-64,.cls-65,.cls-66,.cls-72,.cls-67,.cls-73{fill:#231f20;}.cls-15{fill:url(#linear-gradient-23);filter:url(#drop-shadow-15);}.cls-47{font-size:193.7px;}.cls-16{fill:url(#linear-gradient-6);}.cls-48,.cls-5,.cls-71{letter-spacing:0em;}.cls-70{letter-spacing:-.03em;}.cls-74{letter-spacing:0em;}.cls-53,.cls-59,.cls-54,.cls-61,.cls-49{font-size:31.21px;}.cls-17{fill:url(#linear-gradient);filter:url(#drop-shadow-6);}.cls-18{fill:url(#linear-gradient-4);}.cls-75{font-size:91.24px;}.cls-58{letter-spacing:-.01em;}.cls-59{letter-spacing:-.01em;}.cls-19{fill:url(#linear-gradient-15);filter:url(#drop-shadow-11);}.cls-20,.cls-76{fill:none;}.cls-21{fill:url(#linear-gradient-5);}.cls-22{fill:url(#linear-gradient-19);filter:url(#drop-shadow-13);}.cls-23{fill:url(#linear-gradient-11);filter:url(#drop-shadow-9);}.cls-24{fill:url(#linear-gradient-17);filter:url(#drop-shadow-12);}.cls-25{fill:url(#linear-gradient-13);filter:url(#drop-shadow-10);}.cls-26{fill:url(#linear-gradient-16);}.cls-27{fill:url(#linear-gradient-22);}.cls-29{filter:url(#drop-shadow-20);}.cls-30{fill:url(#linear-gradient-8);}.cls-60{letter-spacing:-.02em;}.cls-63{letter-spacing:0em;}.cls-31{fill:url(#linear-gradient-20);}.cls-32{fill:url(#linear-gradient-14);}.cls-33{fill:url(#linear-gradient-21);filter:url(#drop-shadow-14);}.cls-3{letter-spacing:-.01em;}.cls-77{letter-spacing:0em;}.cls-78{font-size:53.44px;}.cls-76{stroke:#fff;stroke-miterlimit:10;stroke-width:6px;}.cls-64,.cls-65,.cls-66,.cls-67{font-size:26.45px;}.cls-34{fill:url(#linear-gradient-24);}.cls-35{fill:url(#linear-gradient-26);}.cls-36{fill:url(#linear-gradient-27);filter:url(#drop-shadow-17);}.cls-37{fill:url(#linear-gradient-18);}.cls-65{letter-spacing:-.02em;}.cls-38{fill:url(#linear-gradient-30);}.cls-39{filter:url(#drop-shadow-19);}.cls-40{fill:url(#linear-gradient-7);}.cls-41{fill:url(#linear-gradient-28);}.cls-42{fill:url(#linear-gradient-2);filter:url(#drop-shadow-7);}.cls-51{font-size:69px;}.cls-43{fill:url(#linear-gradient-25);filter:url(#drop-shadow-16);}.cls-66{letter-spacing:0em;}.cls-67{letter-spacing:0em;}.cls-44{filter:url(#drop-shadow-8);}.cls-73{letter-spacing:-.02em;}</style><filter id="drop-shadow-5" filterUnits="userSpaceOnUse"><feOffset dx="-9" dy="0"/><feGaussianBlur result="blur" stdDeviation="13"/><feFlood flood-color="#231f20" flood-opacity=".36"/><feComposite in2="blur" operator="in"/><feComposite in="SourceGraphic"/></filter><linearGradient id="linear-gradient" x1="634.03" y1="-5.6" x2="634.03" y2="1189.44" gradientUnits="userSpaceOnUse"><stop offset=".04" stop-color="#fff"/><stop offset="1" stop-color="#f0efef"/></linearGradient><filter id="drop-shadow-6" filterUnits="userSpaceOnUse"><feOffset dx="-4" dy="2"/><feGaussianBlur result="blur-2" stdDeviation="9"/><feFlood flood-color="#010101" flood-opacity=".3"/><feComposite in2="blur-2" operator="in"/><feComposite in="SourceGraphic"/></filter><linearGradient id="linear-gradient-2" x1="366.03" y1="230.73" x2="910.19" y2="230.73" gradientUnits="userSpaceOnUse"><stop offset="0" stop-color="#4766b0"/><stop offset="1" stop-color="#204295"/></linearGradient><filter id="drop-shadow-7" filterUnits="userSpaceOnUse"><feOffset dx="0" dy="1"/><feGaussianBlur result="blur-3" stdDeviation="3"/><feFlood flood-color="#010101" flood-opacity=".3"/><feComposite in2="blur-3" operator="in"/><feComposite in="SourceGraphic"/></filter><linearGradient id="linear-gradient-3" x1="590.98" y1="203.24" x2="779.58" y2="-10.5" gradientUnits="userSpaceOnUse"><stop offset="0" stop-color="#fff" stop-opacity=".3"/><stop offset="1" stop-color="#fff" stop-opacity="0"/></linearGradient><linearGradient id="linear-gradient-4" x1="743.89" y1="212.58" x2="893.16" y2="212.58" xlink:href="#linear-gradient-3"/><linearGradient id="linear-gradient-5" x1="442.91" y1="232.89" x2="614.02" y2="232.89" xlink:href="#linear-gradient-3"/><linearGradient id="linear-gradient-6" x1="693.24" y1="209.07" x2="852.06" y2="209.07" xlink:href="#linear-gradient-3"/><filter id="drop-shadow-8" filterUnits="userSpaceOnUse"><feOffset dx="0" dy="1"/><feGaussianBlur result="blur-4" stdDeviation="3"/><feFlood flood-color="#010101" flood-opacity=".3"/><feComposite in2="blur-4" operator="in"/><feComposite in="SourceGraphic"/></filter><linearGradient id="linear-gradient-7" x1="588.5" y1="201.59" x2="777.1" y2="-12.16" xlink:href="#linear-gradient-3"/><linearGradient id="linear-gradient-8" x1="741.41" y1="210.92" x2="890.68" y2="210.92" xlink:href="#linear-gradient-3"/><linearGradient id="linear-gradient-9" x1="440.43" y1="231.24" x2="611.54" y2="231.24" xlink:href="#linear-gradient-3"/><linearGradient id="linear-gradient-10" x1="690.76" y1="207.42" x2="849.58" y2="207.42" xlink:href="#linear-gradient-3"/><linearGradient id="linear-gradient-11" x1="448.02" y1="564.14" x2="416.19" y2="587.33" xlink:href="#linear-gradient"/><filter id="drop-shadow-9" filterUnits="userSpaceOnUse"><feOffset dx="0" dy="0"/><feGaussianBlur result="blur-5" stdDeviation=".88"/><feFlood flood-color="#010101" flood-opacity=".2"/><feComposite in2="blur-5" operator="in"/><feComposite in="SourceGraphic"/></filter><linearGradient id="linear-gradient-12" x1="437.59" y1="571.74" x2="401.81" y2="597.8" xlink:href="#linear-gradient-2"/><linearGradient id="linear-gradient-13" x1="448.03" y1="621.75" x2="416.19" y2="644.94" xlink:href="#linear-gradient"/><filter id="drop-shadow-10" filterUnits="userSpaceOnUse"><feOffset dx="0" dy="0"/><feGaussianBlur result="blur-6" stdDeviation=".88"/><feFlood flood-color="#010101" flood-opacity=".2"/><feComposite in2="blur-6" operator="in"/><feComposite in="SourceGraphic"/></filter><linearGradient id="linear-gradient-14" x1="420.11" y1="637.02" x2="434.02" y2="637.02" gradientUnits="userSpaceOnUse"><stop offset="0" stop-color="#2db24a"/><stop offset="1" stop-color="#226834"/></linearGradient><linearGradient id="linear-gradient-15" x1="448.02" y1="679.36" x2="416.19" y2="702.54" xlink:href="#linear-gradient"/><filter id="drop-shadow-11" filterUnits="userSpaceOnUse"><feOffset dx="0" dy="0"/><feGaussianBlur result="blur-7" stdDeviation=".88"/><feFlood flood-color="#010101" flood-opacity=".2"/><feComposite in2="blur-7" operator="in"/><feComposite in="SourceGraphic"/></filter><linearGradient id="linear-gradient-16" x1="437.59" y1="686.96" x2="408.05" y2="708.47" xlink:href="#linear-gradient-2"/><linearGradient id="linear-gradient-17" x1="448.03" y1="736.97" x2="416.19" y2="760.15" xlink:href="#linear-gradient"/><filter id="drop-shadow-12" filterUnits="userSpaceOnUse"><feOffset dx="0" dy="0"/><feGaussianBlur result="blur-8" stdDeviation=".88"/><feFlood flood-color="#010101" flood-opacity=".2"/><feComposite in2="blur-8" operator="in"/><feComposite in="SourceGraphic"/></filter><linearGradient id="linear-gradient-18" y1="752.24" y2="752.24" xlink:href="#linear-gradient-14"/><linearGradient id="linear-gradient-19" x1="448.02" y1="794.58" x2="416.19" y2="817.76" xlink:href="#linear-gradient"/><filter id="drop-shadow-13" filterUnits="userSpaceOnUse"><feOffset dx="0" dy="0"/><feGaussianBlur result="blur-9" stdDeviation=".88"/><feFlood flood-color="#010101" flood-opacity=".2"/><feComposite in2="blur-9" operator="in"/><feComposite in="SourceGraphic"/></filter><linearGradient id="linear-gradient-20" x1="420.11" y1="809.84" x2="434.02" y2="809.84" xlink:href="#linear-gradient-2"/><linearGradient id="linear-gradient-21" x1="448.03" y1="849.22" x2="416.19" y2="872.4" xlink:href="#linear-gradient"/><filter id="drop-shadow-14" filterUnits="userSpaceOnUse"><feOffset dx="0" dy="0"/><feGaussianBlur result="blur-10" stdDeviation=".88"/><feFlood flood-color="#010101" flood-opacity=".2"/><feComposite in2="blur-10" operator="in"/><feComposite in="SourceGraphic"/></filter><linearGradient id="linear-gradient-22" y1="864.49" y2="864.49" xlink:href="#linear-gradient-14"/><linearGradient id="linear-gradient-23" x1="448.02" y1="906.83" x2="416.19" y2="930.01" xlink:href="#linear-gradient"/><filter id="drop-shadow-15" filterUnits="userSpaceOnUse"><feOffset dx="0" dy="0"/><feGaussianBlur result="blur-11" stdDeviation=".88"/><feFlood flood-color="#010101" flood-opacity=".2"/><feComposite in2="blur-11" operator="in"/><feComposite in="SourceGraphic"/></filter><linearGradient id="linear-gradient-24" x1="437.59" y1="914.42" x2="408.05" y2="935.94" xlink:href="#linear-gradient-2"/><linearGradient id="linear-gradient-25" x1="448.03" y1="964.44" x2="416.19" y2="987.62" xlink:href="#linear-gradient"/><filter id="drop-shadow-16" filterUnits="userSpaceOnUse"><feOffset dx="0" dy="0"/><feGaussianBlur result="blur-12" stdDeviation=".88"/><feFlood flood-color="#010101" flood-opacity=".2"/><feComposite in2="blur-12" operator="in"/><feComposite in="SourceGraphic"/></filter><linearGradient id="linear-gradient-26" y1="979.7" y2="979.7" xlink:href="#linear-gradient-14"/><linearGradient id="linear-gradient-27" x1="448.02" y1="1022.05" x2="416.19" y2="1045.23" xlink:href="#linear-gradient"/><filter id="drop-shadow-17" filterUnits="userSpaceOnUse"><feOffset dx="0" dy="0"/><feGaussianBlur result="blur-13" stdDeviation=".88"/><feFlood flood-color="#010101" flood-opacity=".2"/><feComposite in2="blur-13" operator="in"/><feComposite in="SourceGraphic"/></filter><linearGradient id="linear-gradient-28" x1="420.11" y1="1037.31" x2="434.02" y2="1037.31" xlink:href="#linear-gradient-2"/><filter id="drop-shadow-18" filterUnits="userSpaceOnUse"><feOffset dx="0" dy="2"/><feGaussianBlur result="blur-14" stdDeviation="2"/><feFlood flood-color="#010101" flood-opacity=".3"/><feComposite in2="blur-14" operator="in"/><feComposite in="SourceGraphic"/></filter><filter id="drop-shadow-19" filterUnits="userSpaceOnUse"><feOffset dx="0" dy="2"/><feGaussianBlur result="blur-15" stdDeviation="2"/><feFlood flood-color="#010101" flood-opacity=".3"/><feComposite in2="blur-15" operator="in"/><feComposite in="SourceGraphic"/></filter><filter id="drop-shadow-20" filterUnits="userSpaceOnUse"><feOffset dx="0" dy="2"/><feGaussianBlur result="blur-16" stdDeviation="2"/><feFlood flood-color="#010101" flood-opacity=".3"/><feComposite in2="blur-16" operator="in"/><feComposite in="SourceGraphic"/></filter><linearGradient id="linear-gradient-29" x1="447.26" y1="1079.65" x2="415.43" y2="1102.83" xlink:href="#linear-gradient"/><filter id="drop-shadow-21" filterUnits="userSpaceOnUse"><feOffset dx="0" dy="0"/><feGaussianBlur result="blur-17" stdDeviation=".88"/><feFlood flood-color="#010101" flood-opacity=".2"/><feComposite in2="blur-17" operator="in"/><feComposite in="SourceGraphic"/></filter><linearGradient id="linear-gradient-30" x1="419.34" y1="1094.92" x2="433.25" y2="1094.92" xlink:href="#linear-gradient-14"/></defs><polygon class="cls-14" points="372.69 165.24 108.18 268.48 108.18 922.18 377.68 1028.79 372.69 165.24"/><text class="cls-45" transform="translate(219.71 849.59) rotate(-90)"><tspan class="cls-78" x="0" y="0">MRC :</tspan><tspan class="cls-75" x="139.55" y="0" xml:space="preserve"> ₹ 42,000</tspan></text><text class="cls-51" transform="translate(317.67 533.03) rotate(-90)"><tspan x="0" y="0" xml:space="preserve"> ₹ 50,400</tspan></text><line class="cls-76" x1="293.38" y1="544.92" x2="293.38" y2="241.18"/><path class="cls-17" d="m820.42.56h-456.77v1110.96c0,43.91,37.6,79.52,83.98,79.52h456.77V80.08c0-43.92-37.6-79.52-83.98-79.52Z"/><path class="cls-42" d="m825.68,1.65h-459.65v390.11c136.15,186.45,275.38-86.05,544.16,64.54V86.27c0-46.74-37.84-84.62-84.51-84.62Z"/><path class="cls-13" d="m366.03,130.34c52.02,80.5,144.19,147.52,259.04,178.36,100.69,27.04,200.16,21.21,280.68-10V89.8c0-46.29-37.53-83.82-83.82-83.82h-455.91v124.35Z"/><path class="cls-18" d="m797.64,415.29l95.53-369.51c-10.46-16.88-26.68-29.81-45.99-35.9l-103.29,399.52c17.25.38,35.14,2.2,53.75,5.9Z"/><path class="cls-21" d="m558.75,5.98l-115.83,448.05c17.5,5.63,35.41,6.75,53.97,5.04L614.02,5.98h-55.27Z"/><path class="cls-16" d="m821.94,5.98h-23.69l-105.01,406.18c17.9-2.3,36.51-3.39,55.95-2.63L852.06,11.65c-9.36-3.61-19.49-5.67-30.12-5.67Z"/><path class="cls-44" d="m823.2,0h-459.65v390.11c136.15,186.45,275.38-86.05,544.16,64.54V84.62c0-46.74-37.84-84.62-84.51-84.62Z"/><path class="cls-40" d="m363.55,128.68c52.02,80.5,144.19,147.52,259.04,178.36,100.69,27.04,200.16,21.21,280.68-10V88.15c0-46.29-37.53-83.82-83.82-83.82h-455.91v124.35Z"/><path class="cls-30" d="m795.16,413.63l95.53-369.51c-10.46-16.88-26.68-29.81-45.99-35.9l-103.29,399.52c17.25.38,35.14,2.2,53.75,5.9Z"/><path class="cls-9" d="m556.27,4.33l-115.83,448.05c17.5,5.63,35.41,6.75,53.97,5.04L611.54,4.33h-55.27Z"/><path class="cls-12" d="m819.46,4.33h-23.69l-105.01,406.18c17.9-2.3,36.51-3.39,55.95-2.63L849.58,10c-9.36-3.61-19.49-5.67-30.12-5.67Z"/><path class="cls-23" d="m440.9,579.41c0,7.65-6.19,13.84-13.84,13.84h0c-7.65,0-13.84-6.19-13.84-13.84h0c0-7.65,6.19-13.84,13.84-13.84h0c7.65,0,13.84,6.19,13.84,13.84h0Z"/><path class="cls-8" d="m434.02,579.41c0,3.84-3.11,6.95-6.95,6.95h0c-3.84,0-6.95-3.11-6.95-6.95h0c0-3.84,3.11-6.95,6.95-6.95h0c3.84,0,6.95,3.11,6.95,6.95h0Z"/><path class="cls-25" d="m440.9,637.02c0,7.65-6.19,13.84-13.84,13.84h0c-7.65,0-13.84-6.19-13.84-13.84h0c0-7.65,6.19-13.84,13.84-13.84h0c7.65,0,13.84,6.2,13.84,13.84h0Z"/><path class="cls-32" d="m434.02,637.02c0,3.84-3.11,6.95-6.95,6.95h0c-3.84,0-6.95-3.11-6.95-6.95h0c0-3.84,3.11-6.95,6.95-6.95h0c3.84,0,6.95,3.11,6.95,6.95h0Z"/><path class="cls-19" d="m440.9,694.63c0,7.65-6.19,13.84-13.84,13.84h0c-7.65,0-13.84-6.19-13.84-13.84h0c0-7.65,6.19-13.84,13.84-13.84h0c7.65,0,13.84,6.19,13.84,13.84h0Z"/><path class="cls-26" d="m434.02,694.63c0,3.84-3.11,6.95-6.95,6.95h0c-3.84,0-6.95-3.11-6.95-6.95h0c0-3.84,3.11-6.95,6.95-6.95h0c3.84,0,6.95,3.11,6.95,6.95h0Z"/><path class="cls-24" d="m440.9,752.24c0,7.65-6.19,13.84-13.84,13.84h0c-7.65,0-13.84-6.19-13.84-13.84h0c0-7.65,6.19-13.84,13.84-13.84h0c7.65,0,13.84,6.2,13.84,13.84h0Z"/><path class="cls-37" d="m434.02,752.24c0,3.84-3.11,6.95-6.95,6.95h0c-3.84,0-6.95-3.11-6.95-6.95h0c0-3.84,3.11-6.95,6.95-6.95h0c3.84,0,6.95,3.11,6.95,6.95h0Z"/><path class="cls-22" d="m440.9,809.84c0,7.65-6.19,13.84-13.84,13.84h0c-7.65,0-13.84-6.19-13.84-13.84h0c0-7.65,6.19-13.84,13.84-13.84h0c7.65,0,13.84,6.19,13.84,13.84h0Z"/><path class="cls-31" d="m434.02,809.84c0,3.84-3.11,6.95-6.95,6.95h0c-3.84,0-6.95-3.11-6.95-6.95h0c0-3.84,3.11-6.95,6.95-6.95h0c3.84,0,6.95,3.11,6.95,6.95h0Z"/><path class="cls-33" d="m440.9,864.49c0,7.65-6.19,13.84-13.84,13.84h0c-7.65,0-13.84-6.19-13.84-13.84h0c0-7.65,6.19-13.84,13.84-13.84h0c7.65,0,13.84,6.2,13.84,13.84h0Z"/><path class="cls-27" d="m434.02,864.49c0,3.84-3.11,6.95-6.95,6.95h0c-3.84,0-6.95-3.11-6.95-6.95h0c0-3.84,3.11-6.95,6.95-6.95h0c3.84,0,6.95,3.11,6.95,6.95h0Z"/><path class="cls-15" d="m440.9,922.09c0,7.65-6.19,13.84-13.84,13.84h0c-7.65,0-13.84-6.19-13.84-13.84h0c0-7.65,6.19-13.84,13.84-13.84h0c7.65,0,13.84,6.19,13.84,13.84h0Z"/><path class="cls-34" d="m434.02,922.09c0,3.84-3.11,6.95-6.95,6.95h0c-3.84,0-6.95-3.11-6.95-6.95h0c0-3.84,3.11-6.95,6.95-6.95h0c3.84,0,6.95,3.11,6.95,6.95h0Z"/><path class="cls-43" d="m440.9,979.7c0,7.65-6.19,13.84-13.84,13.84h0c-7.65,0-13.84-6.19-13.84-13.84h0c0-7.65,6.19-13.84,13.84-13.84h0c7.65,0,13.84,6.2,13.84,13.84h0Z"/><path class="cls-35" d="m434.02,979.7c0,3.84-3.11,6.95-6.95,6.95h0c-3.84,0-6.95-3.11-6.95-6.95h0c0-3.84,3.11-6.95,6.95-6.95h0c3.84,0,6.95,3.11,6.95,6.95h0Z"/><path class="cls-36" d="m440.9,1037.31c0,7.65-6.19,13.84-13.84,13.84h0c-7.65,0-13.84-6.19-13.84-13.84h0c0-7.65,6.19-13.84,13.84-13.84h0c7.65,0,13.84,6.19,13.84,13.84h0Z"/><path class="cls-41" d="m434.02,1037.31c0,3.84-3.11,6.95-6.95,6.95h0c-3.84,0-6.95-3.11-6.95-6.95h0c0-3.84,3.11-6.95,6.95-6.95h0c3.84,0,6.95,3.11,6.95,6.95h0Z"/><path class="cls-11" d="m596.02,490.23c5.12,18.45,27.13,28.45,49.15,22.34,22.02-6.11,35.72-26.03,30.6-44.48-5.12-18.45-27.13-28.45-49.16-22.34-22.02,6.11-35.72,26.03-30.6,44.48Z"/><path class="cls-39" d="m695.68,446.07c.7,9.76,10.72,17,22.37,16.16,11.65-.84,20.53-9.44,19.83-19.2-.7-9.76-10.72-17-22.37-16.16-11.65.84-20.53,9.43-19.83,19.2Z"/><path class="cls-29" d="m549.71,475.76c.39,5.36,5.89,9.34,12.29,8.88,6.4-.46,11.28-5.18,10.89-10.55-.39-5.36-5.89-9.34-12.29-8.88-6.4.46-11.28,5.18-10.89,10.55Z"/><text class="cls-47" transform="translate(412.85 216.35)"><tspan x="0" y="0">1</tspan></text><path class="cls-20" d="m821.94,5.98h-455.91v1069.78c0,46.29,37.53,83.82,83.82,83.82h455.91V89.8c0-46.29-37.53-83.82-83.82-83.82Z"/><path class="cls-28" d="m365.43,276.88h327.99c24,0,43.48,19.48,43.48,43.48h0c0,24-19.48,43.48-43.48,43.48h-327.99v-86.96h0Z"/><text class="cls-46" transform="translate(444.08 346.07)"><tspan class="cls-68" x="0" y="0">R</tspan><tspan class="cls-77" x="49.18" y="0">a</tspan><tspan class="cls-74" x="97.66" y="0">ck</tspan></text><text class="cls-53" transform="translate(470.12 588.53)"><tspan class="cls-2" x="0" y="0">Rack Space :</tspan><tspan class="cls-50" x="179.17" y="0"> </tspan><tspan class="cls-62" x="186.86" y="0">42U</tspan></text><text class="cls-54" transform="translate(470.12 646.14)"><tspan class="cls-7" x="0" y="0">P</tspan><tspan class="cls-57" x="19.75" y="0">ower : </tspan><tspan class="cls-71" x="112.24" y="0">6 </tspan><tspan class="cls-73" x="137.75" y="0">K</tspan><tspan class="cls-69" x="156.82" y="0">v</tspan><tspan class="cls-72" x="172.02" y="0">a</tspan></text><text class="cls-53" transform="translate(470.12 703.75)"><tspan class="cls-6" x="0" y="0">P</tspan><tspan class="cls-2" x="19.75" y="0">ower Billing Mode :</tspan><tspan class="cls-48" x="286.08" y="0"> </tspan><tspan class="cls-63" x="293.77" y="0">Bundled</tspan></text><text class="cls-53" transform="translate(470.12 761.36)"><tspan class="cls-55" x="0" y="0">C</tspan><tspan class="cls-60" x="20.37" y="0">r</tspan><tspan class="cls-55" x="30.8" y="0">oss Connects :</tspan><tspan class="cls-50" x="237.01" y="0"> </tspan><tspan class="cls-62" x="244.71" y="0">1</tspan></text><text class="cls-54" transform="translate(470.12 818.96)"><tspan class="cls-4" x="0" y="0">IP </tspan><tspan class="cls-1" x="36.53" y="0">P</tspan><tspan class="cls-4" x="56.27" y="0">ool : </tspan><tspan class="cls-72" x="123.6" y="0">/29</tspan></text><text class="cls-53" transform="translate(470.12 876.57)"><tspan class="cls-55" x="0" y="0">Internet Bandwidth :</tspan><tspan class="cls-48" x="280.58" y="0"> </tspan><tspan class="cls-62" x="288.27" y="0">100 Mbps</tspan></text><text class="cls-54" transform="translate(470.12 934.18)"><tspan class="cls-4" x="0" y="0">RHES : </tspan><tspan class="cls-72" x="101.94" y="0">10 Hours/ Month</tspan></text><text class="cls-54" transform="translate(470.12 991.79)"><tspan class="cls-56" x="0" y="0">O</tspan><tspan class="cls-58" x="20.25" y="0">T</tspan><tspan class="cls-57" x="38.77" y="0">C : </tspan><tspan class="cls-72" x="82.96" y="0">₹ 40,000</tspan></text><text class="cls-52" transform="translate(471.36 1105.85)"><tspan class="cls-61" x="0" y="0">Of</tspan><tspan class="cls-59" x="32.61" y="0">f</tspan><tspan class="cls-61" x="43.31" y="0">er :</tspan><tspan class="cls-49" x="87.07" y="0"> </tspan><tspan class="cls-67" x="94.77" y="0">Minimal Upf</tspan><tspan class="cls-65" x="238.33" y="0">r</tspan><tspan class="cls-64" x="247.17" y="0">ont In</tspan><tspan class="cls-66" x="314.5" y="0">v</tspan><tspan class="cls-64" x="327.42" y="0">estment</tspan></text><path class="cls-10" d="m440.14,1094.92c0,7.65-6.19,13.84-13.84,13.84h0c-7.65,0-13.84-6.19-13.84-13.84h0c0-7.65,6.19-13.84,13.84-13.84h0c7.65,0,13.84,6.19,13.84,13.84h0Z"/><path class="cls-38" d="m433.25,1094.92c0,3.84-3.11,6.95-6.95,6.95h0c-3.84,0-6.95-3.11-6.95-6.95h0c0-3.84,3.11-6.95,6.95-6.95h0c3.84,0,6.95,3.11,6.95,6.95h0Z"/><text class="cls-54" transform="translate(469.35 1044.83)"><tspan class="cls-4" x="0" y="0">Cont</tspan><tspan class="cls-3" x="65.87" y="0">r</tspan><tspan class="cls-4" x="76.39" y="0">act </tspan><tspan class="cls-1" x="127.76" y="0">P</tspan><tspan class="cls-5" x="147.5" y="0">eriod : </tspan><tspan class="cls-72" x="242.39" y="0">3 </tspan><tspan class="cls-70" x="267.9" y="0">Y</tspan><tspan class="cls-72" x="285.93" y="0">ears</tspan></text></svg>