<?xml version="1.0" encoding="UTF-8"?><svg id="Layer_1" xmlns="http://www.w3.org/2000/svg" xmlns:xlink="http://www.w3.org/1999/xlink" viewBox="0 0 910.19 1233.52"><defs><style>.cls-1{letter-spacing:-.01em;}.cls-2{fill:url(#linear-gradient-25);filter:url(#drop-shadow-15);}.cls-2,.cls-3,.cls-4,.cls-5,.cls-6,.cls-7,.cls-8,.cls-9,.cls-10,.cls-11,.cls-12,.cls-13,.cls-14,.cls-15,.cls-16,.cls-17,.cls-18,.cls-19,.cls-20,.cls-21,.cls-22,.cls-23,.cls-24,.cls-25,.cls-26,.cls-27,.cls-28,.cls-29,.cls-30,.cls-31,.cls-32,.cls-33,.cls-34,.cls-35,.cls-36{stroke-width:0px;}.cls-37,.cls-38,.cls-39,.cls-40,.cls-41,.cls-42,.cls-43,.cls-44,.cls-45,.cls-46,.cls-47,.cls-48,.cls-49,.cls-50{font-family:Roboto-Medium, Roboto;}.cls-37,.cls-51,.cls-40,.cls-52,.cls-45,.cls-46,.cls-49,.cls-53,.cls-54{fill:#231f20;}.cls-37,.cls-51,.cls-53{letter-spacing:0em;}.cls-3{fill:url(#linear-gradient-33);filter:url(#drop-shadow-20);}.cls-4{fill:url(#linear-gradient-19);filter:url(#drop-shadow-12);}.cls-55,.cls-56,.cls-57,.cls-43,.cls-58{font-weight:500;}.cls-55,.cls-57,.cls-21,.cls-58{fill:#fff;}.cls-55,.cls-57,.cls-52,.cls-59,.cls-53,.cls-58{font-style:italic;}.cls-55,.cls-57,.cls-52,.cls-53,.cls-58{font-family:Roboto-MediumItalic, Roboto;}.cls-5{fill:url(#linear-gradient-9);}.cls-5,.cls-8,.cls-10,.cls-13,.cls-15,.cls-18,.cls-31,.cls-35{opacity:.3;}.cls-38{letter-spacing:-.04em;}.cls-38,.cls-39,.cls-60,.cls-42,.cls-44,.cls-50{fill:#206a37;}.cls-6{fill:url(#linear-gradient-3);filter:url(#drop-shadow-7);}.cls-7{fill:url(#linear-gradient);filter:url(#drop-shadow-5);}.cls-8{fill:url(#linear-gradient-10);}.cls-9{fill:url(#linear-gradient-13);filter:url(#drop-shadow-9);}.cls-10{fill:url(#linear-gradient-6);}.cls-11{fill:url(#linear-gradient-27);filter:url(#drop-shadow-16);}.cls-61{font-size:91.91px;}.cls-12{fill:url(#linear-gradient-2);filter:url(#drop-shadow-6);}.cls-13{fill:url(#linear-gradient-12);}.cls-56,.cls-43{font-size:31.44px;}.cls-14{fill:url(#linear-gradient-31);filter:url(#drop-shadow-18);}.cls-15{fill:url(#linear-gradient-4);}.cls-16,.cls-62{fill:none;}.cls-17{fill:url(#linear-gradient-21);filter:url(#drop-shadow-13);}.cls-18{fill:url(#linear-gradient-5);}.cls-57{font-size:195.12px;}.cls-41,.cls-63,.cls-47,.cls-48,.cls-59,.cls-64{fill:#204295;}.cls-19{fill:url(#linear-gradient-16);}.cls-20{fill:url(#linear-gradient-22);}.cls-22{fill:url(#linear-gradient-17);filter:url(#drop-shadow-11);}.cls-23{fill:url(#linear-gradient-20);}.cls-42,.cls-47,.cls-64{letter-spacing:0em;}.cls-24{fill:url(#linear-gradient-14);}.cls-25{fill:url(#linear-gradient-23);filter:url(#drop-shadow-14);}.cls-44{letter-spacing:-.01em;}.cls-65{letter-spacing:0em;}.cls-26{fill:url(#linear-gradient-15);filter:url(#drop-shadow-10);}.cls-66{font-size:53.83px;}.cls-62{stroke:#fff;stroke-miterlimit:10;stroke-width:6px;}.cls-45{letter-spacing:-.02em;}.cls-46{letter-spacing:0em;}.cls-48{letter-spacing:-.01em;}.cls-49{letter-spacing:-.03em;}.cls-27{fill:url(#linear-gradient-24);}.cls-28{fill:url(#linear-gradient-26);}.cls-29{fill:url(#linear-gradient-18);}.cls-30{fill:url(#linear-gradient-30);}.cls-59{font-family:Raleway-SemiBoldItalic, Raleway;font-size:79.52px;font-weight:600;}.cls-31{fill:url(#linear-gradient-7);}.cls-32{fill:url(#linear-gradient-32);filter:url(#drop-shadow-19);}.cls-33{fill:url(#linear-gradient-28);}.cls-58{font-size:69px;}.cls-34{fill:url(#linear-gradient-29);filter:url(#drop-shadow-17);}.cls-35{fill:url(#linear-gradient-11);}.cls-36{fill:url(#linear-gradient-8);filter:url(#drop-shadow-8);}.cls-50{letter-spacing:-.02em;}</style><linearGradient id="linear-gradient" x1="238.99" y1="161.78" x2="238.99" y2="1034.97" gradientUnits="userSpaceOnUse"><stop offset="0" stop-color="#4766b0"/><stop offset="1" stop-color="#204295"/></linearGradient><filter id="drop-shadow-5" filterUnits="userSpaceOnUse"><feOffset dx="-9" dy="0"/><feGaussianBlur result="blur" stdDeviation="13"/><feFlood flood-color="#231f20" flood-opacity=".36"/><feComposite in2="blur" operator="in"/><feComposite in="SourceGraphic"/></filter><linearGradient id="linear-gradient-2" x1="632.01" y1="44.6" x2="632.01" y2="1195.59" gradientUnits="userSpaceOnUse"><stop offset=".04" stop-color="#fff"/><stop offset="1" stop-color="#f0efef"/></linearGradient><filter id="drop-shadow-6" filterUnits="userSpaceOnUse"><feOffset dx="-4" dy="2"/><feGaussianBlur result="blur-2" stdDeviation="9"/><feFlood flood-color="#010101" flood-opacity=".3"/><feComposite in2="blur-2" operator="in"/><feComposite in="SourceGraphic"/></filter><linearGradient id="linear-gradient-3" x1="362.06" y1="232.42" x2="910.19" y2="232.42" xlink:href="#linear-gradient"/><filter id="drop-shadow-7" filterUnits="userSpaceOnUse"><feOffset dx="0" dy="1"/><feGaussianBlur result="blur-3" stdDeviation="3"/><feFlood flood-color="#010101" flood-opacity=".3"/><feComposite in2="blur-3" operator="in"/><feComposite in="SourceGraphic"/></filter><linearGradient id="linear-gradient-4" x1="588.65" y1="204.73" x2="778.63" y2="-10.58" gradientUnits="userSpaceOnUse"><stop offset="0" stop-color="#fff" stop-opacity=".3"/><stop offset="1" stop-color="#fff" stop-opacity="0"/></linearGradient><linearGradient id="linear-gradient-5" x1="742.67" y1="214.13" x2="893.04" y2="214.13" xlink:href="#linear-gradient-4"/><linearGradient id="linear-gradient-6" x1="439.5" y1="234.59" x2="611.85" y2="234.59" xlink:href="#linear-gradient-4"/><linearGradient id="linear-gradient-7" x1="691.66" y1="210.6" x2="851.63" y2="210.6" xlink:href="#linear-gradient-4"/><linearGradient id="linear-gradient-8" x1="359.56" y1="230.75" x2="907.69" y2="230.75" xlink:href="#linear-gradient"/><filter id="drop-shadow-8" filterUnits="userSpaceOnUse"><feOffset dx="0" dy="1"/><feGaussianBlur result="blur-4" stdDeviation="3"/><feFlood flood-color="#010101" flood-opacity=".3"/><feComposite in2="blur-4" operator="in"/><feComposite in="SourceGraphic"/></filter><linearGradient id="linear-gradient-9" x1="586.15" y1="203.06" x2="776.13" y2="-12.25" xlink:href="#linear-gradient-4"/><linearGradient id="linear-gradient-10" x1="740.18" y1="212.46" x2="890.54" y2="212.46" xlink:href="#linear-gradient-4"/><linearGradient id="linear-gradient-11" x1="437" y1="232.93" x2="609.36" y2="232.93" xlink:href="#linear-gradient-4"/><linearGradient id="linear-gradient-12" x1="689.16" y1="208.93" x2="849.13" y2="208.93" xlink:href="#linear-gradient-4"/><linearGradient id="linear-gradient-13" x1="444.65" y1="568.27" x2="412.58" y2="591.62" xlink:href="#linear-gradient-2"/><filter id="drop-shadow-9" filterUnits="userSpaceOnUse"><feOffset dx="0" dy="0"/><feGaussianBlur result="blur-5" stdDeviation=".88"/><feFlood flood-color="#010101" flood-opacity=".2"/><feComposite in2="blur-5" operator="in"/><feComposite in="SourceGraphic"/></filter><linearGradient id="linear-gradient-14" x1="434.14" y1="575.92" x2="398.1" y2="602.16" xlink:href="#linear-gradient"/><linearGradient id="linear-gradient-15" x1="444.65" y1="626.3" x2="412.58" y2="649.65" xlink:href="#linear-gradient-2"/><filter id="drop-shadow-10" filterUnits="userSpaceOnUse"><feOffset dx="0" dy="0"/><feGaussianBlur result="blur-6" stdDeviation=".88"/><feFlood flood-color="#010101" flood-opacity=".2"/><feComposite in2="blur-6" operator="in"/><feComposite in="SourceGraphic"/></filter><linearGradient id="linear-gradient-16" x1="416.53" y1="641.67" x2="430.54" y2="641.67" gradientUnits="userSpaceOnUse"><stop offset="0" stop-color="#2db24a"/><stop offset="1" stop-color="#226834"/></linearGradient><linearGradient id="linear-gradient-17" x1="444.65" y1="684.32" x2="412.58" y2="707.68" xlink:href="#linear-gradient-2"/><filter id="drop-shadow-11" filterUnits="userSpaceOnUse"><feOffset dx="0" dy="0"/><feGaussianBlur result="blur-7" stdDeviation=".88"/><feFlood flood-color="#010101" flood-opacity=".2"/><feComposite in2="blur-7" operator="in"/><feComposite in="SourceGraphic"/></filter><linearGradient id="linear-gradient-18" x1="434.14" y1="691.98" x2="404.38" y2="713.65" xlink:href="#linear-gradient"/><linearGradient id="linear-gradient-19" x1="444.65" y1="742.35" x2="412.58" y2="765.71" xlink:href="#linear-gradient-2"/><filter id="drop-shadow-12" filterUnits="userSpaceOnUse"><feOffset dx="0" dy="0"/><feGaussianBlur result="blur-8" stdDeviation=".88"/><feFlood flood-color="#010101" flood-opacity=".2"/><feComposite in2="blur-8" operator="in"/><feComposite in="SourceGraphic"/></filter><linearGradient id="linear-gradient-20" y1="757.73" y2="757.73" xlink:href="#linear-gradient-16"/><linearGradient id="linear-gradient-21" x1="444.65" y1="800.38" x2="412.58" y2="823.73" xlink:href="#linear-gradient-2"/><filter id="drop-shadow-13" filterUnits="userSpaceOnUse"><feOffset dx="0" dy="0"/><feGaussianBlur result="blur-9" stdDeviation=".88"/><feFlood flood-color="#010101" flood-opacity=".2"/><feComposite in2="blur-9" operator="in"/><feComposite in="SourceGraphic"/></filter><linearGradient id="linear-gradient-22" x1="416.53" y1="815.76" x2="430.54" y2="815.76" xlink:href="#linear-gradient"/><linearGradient id="linear-gradient-23" x1="444.65" y1="855.42" x2="412.58" y2="878.77" xlink:href="#linear-gradient-2"/><filter id="drop-shadow-14" filterUnits="userSpaceOnUse"><feOffset dx="0" dy="0"/><feGaussianBlur result="blur-10" stdDeviation=".88"/><feFlood flood-color="#010101" flood-opacity=".2"/><feComposite in2="blur-10" operator="in"/><feComposite in="SourceGraphic"/></filter><linearGradient id="linear-gradient-24" y1="870.8" y2="870.8" xlink:href="#linear-gradient-16"/><linearGradient id="linear-gradient-25" x1="444.65" y1="913.45" x2="412.58" y2="936.8" xlink:href="#linear-gradient-2"/><filter id="drop-shadow-15" filterUnits="userSpaceOnUse"><feOffset dx="0" dy="0"/><feGaussianBlur result="blur-11" stdDeviation=".88"/><feFlood flood-color="#010101" flood-opacity=".2"/><feComposite in2="blur-11" operator="in"/><feComposite in="SourceGraphic"/></filter><linearGradient id="linear-gradient-26" x1="434.14" y1="921.1" x2="404.38" y2="942.78" xlink:href="#linear-gradient"/><linearGradient id="linear-gradient-27" x1="444.65" y1="971.48" x2="412.58" y2="994.83" xlink:href="#linear-gradient-2"/><filter id="drop-shadow-16" filterUnits="userSpaceOnUse"><feOffset dx="0" dy="0"/><feGaussianBlur result="blur-12" stdDeviation=".88"/><feFlood flood-color="#010101" flood-opacity=".2"/><feComposite in2="blur-12" operator="in"/><feComposite in="SourceGraphic"/></filter><linearGradient id="linear-gradient-28" y1="986.86" y2="986.86" xlink:href="#linear-gradient-16"/><linearGradient id="linear-gradient-29" x1="444.65" y1="1029.51" x2="412.58" y2="1052.86" xlink:href="#linear-gradient-2"/><filter id="drop-shadow-17" filterUnits="userSpaceOnUse"><feOffset dx="0" dy="0"/><feGaussianBlur result="blur-13" stdDeviation=".88"/><feFlood flood-color="#010101" flood-opacity=".2"/><feComposite in2="blur-13" operator="in"/><feComposite in="SourceGraphic"/></filter><linearGradient id="linear-gradient-30" x1="416.53" y1="1044.89" x2="430.54" y2="1044.89" xlink:href="#linear-gradient"/><linearGradient id="linear-gradient-31" x1="360.13" y1="482.66" x2="902.6" y2="482.66" xlink:href="#linear-gradient"/><filter id="drop-shadow-18" filterUnits="userSpaceOnUse"><feOffset dx="0" dy="2"/><feGaussianBlur result="blur-14" stdDeviation="2"/><feFlood flood-color="#010101" flood-opacity=".3"/><feComposite in2="blur-14" operator="in"/><feComposite in="SourceGraphic"/></filter><linearGradient id="linear-gradient-32" x1="475.91" y1="-426.01" x2="753.19" y2="-426.01" gradientTransform="translate(27.48 743.73) rotate(11.4)" xlink:href="#linear-gradient"/><filter id="drop-shadow-19" filterUnits="userSpaceOnUse"><feOffset dx="0" dy="2"/><feGaussianBlur result="blur-15" stdDeviation="2"/><feFlood flood-color="#010101" flood-opacity=".3"/><feComposite in2="blur-15" operator="in"/><feComposite in="SourceGraphic"/></filter><linearGradient id="linear-gradient-33" x1="391.49" y1="-365.08" x2="543.8" y2="-365.08" gradientTransform="translate(27.48 743.73) rotate(11.4)" xlink:href="#linear-gradient"/><filter id="drop-shadow-20" filterUnits="userSpaceOnUse"><feOffset dx="0" dy="2"/><feGaussianBlur result="blur-16" stdDeviation="2"/><feFlood flood-color="#010101" flood-opacity=".3"/><feComposite in2="blur-16" operator="in"/><feComposite in="SourceGraphic"/></filter></defs><polygon class="cls-7" points="368.8 166.28 104.18 270.28 104.18 928.75 373.79 1036.15 368.8 166.28"/><text class="cls-55" transform="translate(235.18 855.63) rotate(-90)"><tspan class="cls-66" x="0" y="0">MRC :</tspan><tspan class="cls-61" x="140.57" y="0" xml:space="preserve"> ₹ 80,000</tspan></text><text class="cls-58" transform="translate(323.5 535.59) rotate(-90)"><tspan x="0" y="0" xml:space="preserve"> ₹ 96,000</tspan></text><line class="cls-62" x1="296.76" y1="543.11" x2="296.76" y2="232.01"/><path class="cls-12" d="m819.77,50.53h-460.11v1066.74c0,44.11,37.87,79.87,84.59,79.87h460.11V130.4c0-44.11-37.88-79.87-84.59-79.87Z"/><path class="cls-6" d="m825.06,1.67h-463.01v392.96c137.14,187.82,277.39-86.68,548.14,65.01V86.9c0-47.08-38.12-85.24-85.13-85.24Z"/><path class="cls-15" d="m362.06,131.29c52.4,81.08,145.24,148.6,260.94,179.66,101.42,27.23,201.63,21.37,282.73-10.07V90.46c0-46.63-37.81-84.43-84.43-84.43h-459.24v125.26Z"/><path class="cls-18" d="m796.81,418.32l96.22-372.21c-10.54-17.01-26.87-30.03-46.32-36.17l-104.04,402.44c17.38.39,35.4,2.22,54.14,5.94Z"/><path class="cls-10" d="m556.18,6.03l-116.68,451.32c17.62,5.67,35.67,6.8,54.36,5.08L611.85,6.03h-55.68Z"/><path class="cls-31" d="m821.29,6.03h-23.86l-105.78,409.15c18.03-2.32,36.78-3.42,56.36-2.65L851.63,11.74c-9.43-3.64-19.63-5.71-30.34-5.71Z"/><path class="cls-36" d="m822.57,0h-463.01v392.96c137.14,187.82,277.39-86.68,548.14,65.01V85.24c0-47.08-38.12-85.24-85.13-85.24Z"/><path class="cls-5" d="m359.56,129.62c52.4,81.08,145.24,148.6,260.94,179.66,101.42,27.23,201.63,21.37,282.73-10.07V88.8c0-46.63-37.81-84.43-84.43-84.43h-459.24v125.26Z"/><path class="cls-8" d="m794.32,416.65l96.22-372.21c-10.54-17.01-26.87-30.03-46.32-36.17l-104.04,402.44c17.38.39,35.4,2.22,54.14,5.94Z"/><path class="cls-35" d="m553.68,4.36l-116.68,451.32c17.62,5.67,35.67,6.8,54.36,5.08L609.36,4.36h-55.68Z"/><path class="cls-13" d="m818.8,4.36h-23.86l-105.78,409.15c18.03-2.32,36.78-3.42,56.36-2.65L849.13,10.07c-9.43-3.64-19.63-5.71-30.34-5.71Z"/><path class="cls-9" d="m437.48,583.64c0,7.7-6.24,13.94-13.94,13.94h0c-7.7,0-13.94-6.24-13.94-13.94h0c0-7.7,6.24-13.94,13.94-13.94h0c7.7,0,13.94,6.24,13.94,13.94h0Z"/><path class="cls-24" d="m430.54,583.64c0,3.87-3.14,7.01-7,7.01h0c-3.87,0-7-3.14-7-7.01h0c0-3.87,3.14-7.01,7-7.01h0c3.87,0,7,3.14,7,7.01h0Z"/><path class="cls-26" d="m437.48,641.67c0,7.7-6.24,13.94-13.94,13.94h0c-7.7,0-13.94-6.24-13.94-13.94h0c0-7.7,6.24-13.94,13.94-13.94h0c7.7,0,13.94,6.24,13.94,13.94h0Z"/><path class="cls-19" d="m430.54,641.67c0,3.87-3.14,7.01-7,7.01h0c-3.87,0-7-3.14-7-7.01h0c0-3.87,3.14-7.01,7-7.01h0c3.87,0,7,3.14,7,7.01h0Z"/><path class="cls-22" d="m437.48,699.7c0,7.7-6.24,13.94-13.94,13.94h0c-7.7,0-13.94-6.24-13.94-13.94h0c0-7.7,6.24-13.94,13.94-13.94h0c7.7,0,13.94,6.24,13.94,13.94h0Z"/><path class="cls-29" d="m430.54,699.7c0,3.87-3.14,7.01-7,7.01h0c-3.87,0-7-3.14-7-7.01h0c0-3.87,3.14-7.01,7-7.01h0c3.87,0,7,3.14,7,7.01h0Z"/><path class="cls-4" d="m437.48,757.73c0,7.7-6.24,13.94-13.94,13.94h0c-7.7,0-13.94-6.24-13.94-13.94h0c0-7.7,6.24-13.94,13.94-13.94h0c7.7,0,13.94,6.24,13.94,13.94h0Z"/><path class="cls-23" d="m430.54,757.73c0,3.87-3.14,7.01-7,7.01h0c-3.87,0-7-3.14-7-7.01h0c0-3.87,3.14-7.01,7-7.01h0c3.87,0,7,3.14,7,7.01h0Z"/><path class="cls-17" d="m437.48,815.76c0,7.7-6.24,13.94-13.94,13.94h0c-7.7,0-13.94-6.24-13.94-13.94h0c0-7.7,6.24-13.94,13.94-13.94h0c7.7,0,13.94,6.24,13.94,13.94h0Z"/><path class="cls-20" d="m430.54,815.76c0,3.87-3.14,7.01-7,7.01h0c-3.87,0-7-3.14-7-7.01h0c0-3.87,3.14-7.01,7-7.01h0c3.87,0,7,3.14,7,7.01h0Z"/><path class="cls-25" d="m437.48,870.8c0,7.7-6.24,13.94-13.94,13.94h0c-7.7,0-13.94-6.24-13.94-13.94h0c0-7.7,6.24-13.94,13.94-13.94h0c7.7,0,13.94,6.24,13.94,13.94h0Z"/><path class="cls-27" d="m430.54,870.8c0,3.87-3.14,7.01-7,7.01h0c-3.87,0-7-3.14-7-7.01h0c0-3.87,3.14-7.01,7-7.01h0c3.87,0,7,3.14,7,7.01h0Z"/><path class="cls-2" d="m437.48,928.83c0,7.7-6.24,13.94-13.94,13.94h0c-7.7,0-13.94-6.24-13.94-13.94h0c0-7.7,6.24-13.94,13.94-13.94h0c7.7,0,13.94,6.24,13.94,13.94h0Z"/><path class="cls-28" d="m430.54,928.83c0,3.87-3.14,7.01-7,7.01h0c-3.87,0-7-3.14-7-7.01h0c0-3.87,3.14-7.01,7-7.01h0c3.87,0,7,3.14,7,7.01h0Z"/><path class="cls-11" d="m437.48,986.86c0,7.7-6.24,13.94-13.94,13.94h0c-7.7,0-13.94-6.24-13.94-13.94h0c0-7.7,6.24-13.94,13.94-13.94h0c7.7,0,13.94,6.24,13.94,13.94h0Z"/><path class="cls-33" d="m430.54,986.86c0,3.87-3.14,7.01-7,7.01h0c-3.87,0-7-3.14-7-7.01h0c0-3.87,3.14-7.01,7-7.01h0c3.87,0,7,3.14,7,7.01h0Z"/><path class="cls-34" d="m437.48,1044.89c0,7.7-6.24,13.94-13.94,13.94h0c-7.7,0-13.94-6.24-13.94-13.94h0c0-7.7,6.24-13.94,13.94-13.94h0c7.7,0,13.94,6.24,13.94,13.94h0Z"/><path class="cls-30" d="m430.54,1044.89c0,3.87-3.14,7.01-7,7.01h0c-3.87,0-7-3.14-7-7.01h0c0-3.87,3.14-7.01,7-7.01h0c3.87,0,7,3.14,7,7.01h0Z"/><path class="cls-14" d="m593.72,493.81c5.16,18.59,27.33,28.66,49.51,22.5,22.18-6.16,35.99-26.22,30.83-44.81-5.16-18.59-27.33-28.66-49.51-22.5-22.18,6.16-35.98,26.22-30.83,44.81Z"/><path class="cls-32" d="m694.12,449.33c.71,9.83,10.8,17.12,22.54,16.28,11.74-.85,20.68-9.5,19.97-19.34-.71-9.83-10.8-17.12-22.54-16.28-11.74.85-20.68,9.5-19.97,19.34Z"/><path class="cls-3" d="m547.07,479.23c.39,5.4,5.93,9.4,12.38,8.94,6.45-.46,11.36-5.22,10.97-10.62-.39-5.4-5.93-9.4-12.38-8.94-6.45.46-11.36,5.22-10.97,10.62Z"/><text class="cls-57" transform="translate(409.22 217.93)"><tspan x="0" y="0">2</tspan></text><path class="cls-16" d="m821.29,6.03h-459.24v1077.6c0,46.63,37.8,84.43,84.43,84.43h459.24V90.46c0-46.63-37.81-84.43-84.43-84.43Z"/><path class="cls-21" d="m361.45,278.9h330.39c24.17,0,43.8,19.62,43.8,43.8h0c0,24.17-19.62,43.8-43.8,43.8h-330.39v-87.59h0Z"/><text class="cls-59" transform="translate(440.68 348.6)"><tspan class="cls-1" x="0" y="0">R</tspan><tspan class="cls-65" x="49.54" y="0">a</tspan><tspan x="98.37" y="0">c</tspan><tspan class="cls-65" x="140.99" y="0">k</tspan><tspan x="184.73" y="0">s</tspan></text><text class="cls-43" transform="translate(466.91 592.83)"><tspan class="cls-63" x="0" y="0">Rack Space : </tspan><tspan class="cls-54" x="188.31" y="0">42U*2</tspan></text><text class="cls-56" transform="translate(466.91 650.86)"><tspan class="cls-42" x="0" y="0">P</tspan><tspan class="cls-39" x="19.89" y="0">ower :</tspan><tspan class="cls-53" x="105.24" y="0"> </tspan><tspan class="cls-40" x="112.99" y="0">6 </tspan><tspan class="cls-45" x="138.68" y="0">K</tspan><tspan class="cls-46" x="157.88" y="0">v</tspan><tspan class="cls-37" x="173.2" y="0">a / Rack</tspan></text><text class="cls-56" transform="translate(466.91 708.89)"><tspan class="cls-47" x="0" y="0">P</tspan><tspan class="cls-41" x="19.89" y="0">ower Billing Mode :</tspan><tspan class="cls-53" x="288.17" y="0"> </tspan><tspan class="cls-40" x="295.92" y="0">Bundled</tspan></text><text class="cls-56" transform="translate(466.91 766.92)"><tspan class="cls-39" x="0" y="0">C</tspan><tspan class="cls-50" x="20.52" y="0">r</tspan><tspan class="cls-39" x="31.02" y="0">oss Connects :</tspan><tspan class="cls-53" x="238.74" y="0"> </tspan><tspan class="cls-40" x="246.5" y="0">2</tspan></text><text class="cls-43" transform="translate(466.91 824.95)"><tspan class="cls-63" x="0" y="0">IP </tspan><tspan class="cls-64" x="36.79" y="0">P</tspan><tspan class="cls-63" x="56.69" y="0">ool : </tspan><tspan class="cls-54" x="124.5" y="0">/29</tspan></text><text class="cls-43" transform="translate(466.91 882.98)"><tspan class="cls-60" x="0" y="0">Internet Bandwidth : </tspan><tspan class="cls-51" x="290.46" y="0">100 Mbps</tspan></text><text class="cls-56" transform="translate(466.91 941.01)"><tspan class="cls-41" x="0" y="0">RHES :</tspan><tspan class="cls-52" x="94.86" y="0"> </tspan><tspan class="cls-37" x="102.61" y="0">10 Hours/ Month</tspan></text><text class="cls-56" transform="translate(466.91 999.03)"><tspan class="cls-38" x="0" y="0">O</tspan><tspan class="cls-44" x="20.4" y="0">T</tspan><tspan class="cls-39" x="39.05" y="0">C :</tspan><tspan class="cls-52" x="75.73" y="0"> </tspan><tspan class="cls-40" x="83.49" y="0">₹ 40,000 / Rack</tspan></text><text class="cls-56" transform="translate(468.16 1058.29)"><tspan class="cls-41" x="0" y="0">Cont</tspan><tspan class="cls-48" x="66.36" y="0">r</tspan><tspan class="cls-41" x="76.95" y="0">act </tspan><tspan class="cls-47" x="128.69" y="0">P</tspan><tspan class="cls-41" x="148.58" y="0">eriod :</tspan><tspan class="cls-52" x="236.33" y="0"> </tspan><tspan class="cls-37" x="244.09" y="0">5 </tspan><tspan class="cls-49" x="269.78" y="0">Y</tspan><tspan class="cls-40" x="287.94" y="0">ears</tspan></text></svg>