<?xml version="1.0" encoding="UTF-8"?><svg id="Layer_1" xmlns="http://www.w3.org/2000/svg" xmlns:xlink="http://www.w3.org/1999/xlink" viewBox="0 0 910.19 1234.01"><defs><style>.cls-1{fill:url(#linear-gradient-25);filter:url(#drop-shadow-15);}.cls-1,.cls-2,.cls-3,.cls-4,.cls-5,.cls-6,.cls-7,.cls-8,.cls-9,.cls-10,.cls-11,.cls-12,.cls-13,.cls-14,.cls-15,.cls-16,.cls-17,.cls-18,.cls-19,.cls-20,.cls-21,.cls-22,.cls-23,.cls-24,.cls-25,.cls-26,.cls-27,.cls-28,.cls-29,.cls-30,.cls-31,.cls-32,.cls-33,.cls-34,.cls-35,.cls-36,.cls-37,.cls-38{stroke-width:0px;}.cls-2{fill:url(#linear-gradient-33);filter:url(#drop-shadow-20);}.cls-3{fill:url(#linear-gradient-19);filter:url(#drop-shadow-12);}.cls-4{fill:url(#linear-gradient-9);}.cls-4,.cls-7,.cls-9,.cls-13,.cls-15,.cls-18,.cls-33,.cls-37{opacity:.3;}.cls-5{fill:url(#linear-gradient-3);filter:url(#drop-shadow-7);}.cls-6{fill:url(#linear-gradient);filter:url(#drop-shadow-5);}.cls-7{fill:url(#linear-gradient-10);}.cls-8{fill:url(#linear-gradient-13);filter:url(#drop-shadow-9);}.cls-9{fill:url(#linear-gradient-6);}.cls-10{fill:url(#linear-gradient-27);filter:url(#drop-shadow-16);}.cls-11{fill:url(#linear-gradient-2);filter:url(#drop-shadow-6);}.cls-12{fill:#206a37;}.cls-13{fill:url(#linear-gradient-12);}.cls-14{fill:url(#linear-gradient-31);filter:url(#drop-shadow-18);}.cls-15{fill:url(#linear-gradient-4);}.cls-16,.cls-39{fill:none;}.cls-17{fill:url(#linear-gradient-21);filter:url(#drop-shadow-13);}.cls-18{fill:url(#linear-gradient-5);}.cls-19{fill:#204295;}.cls-20{fill:url(#linear-gradient-16);}.cls-21{fill:url(#linear-gradient-22);}.cls-22{fill:#fff;}.cls-23{fill:url(#linear-gradient-17);filter:url(#drop-shadow-11);}.cls-24{fill:url(#linear-gradient-20);}.cls-25{fill:url(#linear-gradient-14);}.cls-26{fill:url(#linear-gradient-23);filter:url(#drop-shadow-14);}.cls-27{fill:#231f20;}.cls-28{fill:url(#linear-gradient-15);filter:url(#drop-shadow-10);}.cls-39{stroke:#fff;stroke-miterlimit:10;stroke-width:6px;}.cls-29{fill:url(#linear-gradient-24);}.cls-30{fill:url(#linear-gradient-26);}.cls-31{fill:url(#linear-gradient-18);}.cls-32{fill:url(#linear-gradient-30);}.cls-33{fill:url(#linear-gradient-7);}.cls-34{fill:url(#linear-gradient-32);filter:url(#drop-shadow-19);}.cls-35{fill:url(#linear-gradient-28);}.cls-36{fill:url(#linear-gradient-29);filter:url(#drop-shadow-17);}.cls-37{fill:url(#linear-gradient-11);}.cls-38{fill:url(#linear-gradient-8);filter:url(#drop-shadow-8);}</style><linearGradient id="linear-gradient" x1="239.04" y1="161.8" x2="239.04" y2="1035" gradientUnits="userSpaceOnUse"><stop offset="0" stop-color="#4766b0"/><stop offset="1" stop-color="#204295"/></linearGradient><filter id="drop-shadow-5" filterUnits="userSpaceOnUse"><feOffset dx="-9" dy="0"/><feGaussianBlur result="blur" stdDeviation="13"/><feFlood flood-color="#231f20" flood-opacity=".36"/><feComposite in2="blur" operator="in"/><feComposite in="SourceGraphic"/></filter><linearGradient id="linear-gradient-2" x1="632.01" y1="-5.62" x2="632.01" y2="1195.52" gradientUnits="userSpaceOnUse"><stop offset=".04" stop-color="#fff"/><stop offset="1" stop-color="#f0efef"/></linearGradient><filter id="drop-shadow-6" filterUnits="userSpaceOnUse"><feOffset dx="-4" dy="2"/><feGaussianBlur result="blur-2" stdDeviation="9"/><feFlood flood-color="#010101" flood-opacity=".3"/><feComposite in2="blur-2" operator="in"/><feComposite in="SourceGraphic"/></filter><linearGradient id="linear-gradient-3" x1="362.06" y1="232.42" x2="910.19" y2="232.42" xlink:href="#linear-gradient"/><filter id="drop-shadow-7" filterUnits="userSpaceOnUse"><feOffset dx="0" dy="1"/><feGaussianBlur result="blur-3" stdDeviation="3"/><feFlood flood-color="#010101" flood-opacity=".3"/><feComposite in2="blur-3" operator="in"/><feComposite in="SourceGraphic"/></filter><linearGradient id="linear-gradient-4" x1="588.65" y1="204.73" x2="778.63" y2="-10.58" gradientUnits="userSpaceOnUse"><stop offset="0" stop-color="#fff" stop-opacity=".3"/><stop offset="1" stop-color="#fff" stop-opacity="0"/></linearGradient><linearGradient id="linear-gradient-5" x1="742.67" y1="214.13" x2="893.04" y2="214.13" xlink:href="#linear-gradient-4"/><linearGradient id="linear-gradient-6" x1="439.5" y1="234.59" x2="611.85" y2="234.59" xlink:href="#linear-gradient-4"/><linearGradient id="linear-gradient-7" x1="691.66" y1="210.6" x2="851.63" y2="210.6" xlink:href="#linear-gradient-4"/><linearGradient id="linear-gradient-8" x1="359.56" y1="230.75" x2="907.69" y2="230.75" xlink:href="#linear-gradient"/><filter id="drop-shadow-8" filterUnits="userSpaceOnUse"><feOffset dx="0" dy="1"/><feGaussianBlur result="blur-4" stdDeviation="3"/><feFlood flood-color="#010101" flood-opacity=".3"/><feComposite in2="blur-4" operator="in"/><feComposite in="SourceGraphic"/></filter><linearGradient id="linear-gradient-9" x1="586.15" y1="203.06" x2="776.13" y2="-12.25" xlink:href="#linear-gradient-4"/><linearGradient id="linear-gradient-10" x1="740.18" y1="212.46" x2="890.54" y2="212.46" xlink:href="#linear-gradient-4"/><linearGradient id="linear-gradient-11" x1="437" y1="232.93" x2="609.36" y2="232.93" xlink:href="#linear-gradient-4"/><linearGradient id="linear-gradient-12" x1="689.16" y1="208.93" x2="849.13" y2="208.93" xlink:href="#linear-gradient-4"/><linearGradient id="linear-gradient-13" x1="444.65" y1="568.27" x2="412.58" y2="591.62" xlink:href="#linear-gradient-2"/><filter id="drop-shadow-9" filterUnits="userSpaceOnUse"><feOffset dx="0" dy="0"/><feGaussianBlur result="blur-5" stdDeviation=".88"/><feFlood flood-color="#010101" flood-opacity=".2"/><feComposite in2="blur-5" operator="in"/><feComposite in="SourceGraphic"/></filter><linearGradient id="linear-gradient-14" x1="434.14" y1="575.92" x2="398.1" y2="602.16" xlink:href="#linear-gradient"/><linearGradient id="linear-gradient-15" x1="444.65" y1="626.3" x2="412.58" y2="649.65" xlink:href="#linear-gradient-2"/><filter id="drop-shadow-10" filterUnits="userSpaceOnUse"><feOffset dx="0" dy="0"/><feGaussianBlur result="blur-6" stdDeviation=".88"/><feFlood flood-color="#010101" flood-opacity=".2"/><feComposite in2="blur-6" operator="in"/><feComposite in="SourceGraphic"/></filter><linearGradient id="linear-gradient-16" x1="416.53" y1="641.67" x2="430.54" y2="641.67" gradientUnits="userSpaceOnUse"><stop offset="0" stop-color="#2db24a"/><stop offset="1" stop-color="#226834"/></linearGradient><linearGradient id="linear-gradient-17" x1="444.65" y1="684.32" x2="412.58" y2="707.68" xlink:href="#linear-gradient-2"/><filter id="drop-shadow-11" filterUnits="userSpaceOnUse"><feOffset dx="0" dy="0"/><feGaussianBlur result="blur-7" stdDeviation=".88"/><feFlood flood-color="#010101" flood-opacity=".2"/><feComposite in2="blur-7" operator="in"/><feComposite in="SourceGraphic"/></filter><linearGradient id="linear-gradient-18" x1="434.14" y1="691.98" x2="404.38" y2="713.65" xlink:href="#linear-gradient"/><linearGradient id="linear-gradient-19" x1="444.65" y1="742.35" x2="412.58" y2="765.71" xlink:href="#linear-gradient-2"/><filter id="drop-shadow-12" filterUnits="userSpaceOnUse"><feOffset dx="0" dy="0"/><feGaussianBlur result="blur-8" stdDeviation=".88"/><feFlood flood-color="#010101" flood-opacity=".2"/><feComposite in2="blur-8" operator="in"/><feComposite in="SourceGraphic"/></filter><linearGradient id="linear-gradient-20" y1="757.73" y2="757.73" xlink:href="#linear-gradient-16"/><linearGradient id="linear-gradient-21" x1="444.65" y1="800.38" x2="412.58" y2="823.73" xlink:href="#linear-gradient-2"/><filter id="drop-shadow-13" filterUnits="userSpaceOnUse"><feOffset dx="0" dy="0"/><feGaussianBlur result="blur-9" stdDeviation=".88"/><feFlood flood-color="#010101" flood-opacity=".2"/><feComposite in2="blur-9" operator="in"/><feComposite in="SourceGraphic"/></filter><linearGradient id="linear-gradient-22" x1="416.53" y1="815.76" x2="430.54" y2="815.76" xlink:href="#linear-gradient"/><linearGradient id="linear-gradient-23" x1="444.65" y1="855.42" x2="412.58" y2="878.77" xlink:href="#linear-gradient-2"/><filter id="drop-shadow-14" filterUnits="userSpaceOnUse"><feOffset dx="0" dy="0"/><feGaussianBlur result="blur-10" stdDeviation=".88"/><feFlood flood-color="#010101" flood-opacity=".2"/><feComposite in2="blur-10" operator="in"/><feComposite in="SourceGraphic"/></filter><linearGradient id="linear-gradient-24" y1="870.8" y2="870.8" xlink:href="#linear-gradient-16"/><linearGradient id="linear-gradient-25" x1="444.65" y1="913.45" x2="412.58" y2="936.8" xlink:href="#linear-gradient-2"/><filter id="drop-shadow-15" filterUnits="userSpaceOnUse"><feOffset dx="0" dy="0"/><feGaussianBlur result="blur-11" stdDeviation=".88"/><feFlood flood-color="#010101" flood-opacity=".2"/><feComposite in2="blur-11" operator="in"/><feComposite in="SourceGraphic"/></filter><linearGradient id="linear-gradient-26" x1="434.14" y1="921.1" x2="404.38" y2="942.78" xlink:href="#linear-gradient"/><linearGradient id="linear-gradient-27" x1="444.65" y1="971.48" x2="412.58" y2="994.83" xlink:href="#linear-gradient-2"/><filter id="drop-shadow-16" filterUnits="userSpaceOnUse"><feOffset dx="0" dy="0"/><feGaussianBlur result="blur-12" stdDeviation=".88"/><feFlood flood-color="#010101" flood-opacity=".2"/><feComposite in2="blur-12" operator="in"/><feComposite in="SourceGraphic"/></filter><linearGradient id="linear-gradient-28" y1="986.86" y2="986.86" xlink:href="#linear-gradient-16"/><linearGradient id="linear-gradient-29" x1="444.65" y1="1029.51" x2="412.58" y2="1052.86" xlink:href="#linear-gradient-2"/><filter id="drop-shadow-17" filterUnits="userSpaceOnUse"><feOffset dx="0" dy="0"/><feGaussianBlur result="blur-13" stdDeviation=".88"/><feFlood flood-color="#010101" flood-opacity=".2"/><feComposite in2="blur-13" operator="in"/><feComposite in="SourceGraphic"/></filter><linearGradient id="linear-gradient-30" x1="416.53" y1="1044.89" x2="430.54" y2="1044.89" xlink:href="#linear-gradient"/><linearGradient id="linear-gradient-31" x1="360.13" y1="482.66" x2="902.6" y2="482.66" xlink:href="#linear-gradient"/><filter id="drop-shadow-18" filterUnits="userSpaceOnUse"><feOffset dx="0" dy="2"/><feGaussianBlur result="blur-14" stdDeviation="2"/><feFlood flood-color="#010101" flood-opacity=".3"/><feComposite in2="blur-14" operator="in"/><feComposite in="SourceGraphic"/></filter><linearGradient id="linear-gradient-32" x1="431.99" y1="-865.8" x2="709.27" y2="-865.8" gradientTransform="translate(-16.37 1183.54) rotate(11.4)" xlink:href="#linear-gradient"/><filter id="drop-shadow-19" filterUnits="userSpaceOnUse"><feOffset dx="0" dy="2"/><feGaussianBlur result="blur-15" stdDeviation="2"/><feFlood flood-color="#010101" flood-opacity=".3"/><feComposite in2="blur-15" operator="in"/><feComposite in="SourceGraphic"/></filter><linearGradient id="linear-gradient-33" x1="347.57" y1="-804.87" x2="499.88" y2="-804.87" gradientTransform="translate(-16.37 1183.54) rotate(11.4)" xlink:href="#linear-gradient"/><filter id="drop-shadow-20" filterUnits="userSpaceOnUse"><feOffset dx="0" dy="2"/><feGaussianBlur result="blur-16" stdDeviation="2"/><feFlood flood-color="#010101" flood-opacity=".3"/><feComposite in2="blur-16" operator="in"/><feComposite in="SourceGraphic"/></filter></defs><polygon class="cls-6" points="368.8 166.3 104.29 270.3 104.29 928.77 373.79 1036.17 368.8 166.3"/><path class="cls-22" d="m169.91,875.32l29.28-5.6-29.28-15.75v-8.52l38.27,6.62v6.47l-12.96-2.23-15.96-3.39,28.91,15.77v4.68l-29.78,5.86,17.51,2.39,12.27,2.13v6.47l-38.27-6.65v-8.25Z"/><path class="cls-22" d="m193.46,827.87v7.31l14.72,2.58v6.49l-38.27-6.65.03-12.06c0-4.15,1-7.33,3-9.54,2-2.21,4.78-3.16,8.34-2.87,2.47.19,4.62,1.02,6.43,2.47s3.24,3.5,4.28,6.12l15.8-5.65.39.03v6.89l-14.72,4.89Zm-5.36,6.41l.05-6.28c0-2.26-.59-4.15-1.77-5.66s-2.79-2.41-4.82-2.67c-1.98-.26-3.5.09-4.56,1.05-1.06.96-1.62,2.43-1.7,4.39l-.03,6.94,12.83,2.23Z"/><path class="cls-22" d="m195.69,781.03c4,.65,7.18,2.44,9.55,5.39,2.38,2.94,3.53,6.53,3.46,10.75-.05,2.44-.63,4.57-1.73,6.4-1.1,1.83-2.71,3.26-4.82,4.3s-4.5,1.61-7.16,1.73c-2,.11-4.72-.14-8.16-.74-3.44-.59-6.53-1.74-9.26-3.43-2.73-1.69-4.79-3.77-6.18-6.23-1.38-2.46-2.05-5.2-2-8.21.07-3.8,1.27-6.81,3.59-9.03,2.32-2.22,5.52-3.39,9.61-3.54v6.44c-2.73.09-4.71.66-5.93,1.72-1.22,1.06-1.85,2.63-1.91,4.72-.09,2.86.94,5.25,3.07,7.18s5.24,3.22,9.32,3.89l3.49.53,2.68.24c1.8.14,3.5.01,5.08-.38,1.58-.39,2.79-1.09,3.62-2.09.83-1,1.27-2.27,1.33-3.81.19-4.89-2.34-8.03-7.6-9.41l-.05-6.41Z"/><path class="cls-22" d="m182.79,759.82c-1.07,0-1.94-.34-2.62-1.01s-1.03-1.54-1.06-2.59c-.04-1.03.28-1.9.93-2.59s1.5-1.04,2.54-1.04,1.86.33,2.54,1,1.03,1.53,1.06,2.6c.04,1.03-.27,1.9-.92,2.59s-1.47,1.04-2.47,1.04Zm22.32,3.84c-1.07,0-1.94-.34-2.62-1.01-.67-.67-1.03-1.54-1.06-2.59-.04-1.03.28-1.9.93-2.59.66-.69,1.5-1.04,2.54-1.04s1.86.33,2.54,1,1.03,1.53,1.06,2.6c.04,1.03-.27,1.9-.92,2.59s-1.47,1.04-2.47,1.04Z"/><path class="cls-22" d="m151.05,679.72v9.56c2.57-.81,5.22-1.15,7.94-1.03l-.04-9.38,8.17,3.59v6.33c5.03,1.65,8.82,4.24,11.38,7.79,2.56,3.55,4.14,8.43,4.74,14.65l24.28-16.07h.67v12.3l-27.11,17.91-6.37-1.08.09-10.46c0-6.07-2.59-10.62-7.76-13.64l.09,23.83-8.17-3.63v-21c-4.46.42-6.76,3.53-6.91,9.33l-.04,12.7-9.16-3.99v-41.42l8.21,3.72Z"/><path class="cls-22" d="m208.18,629.28v10.59l-52.24-9.07,5.47,16.52-9.65-1.66-9.16-25.85v-1.62l65.57,11.08Z"/><path class="cls-22" d="m222.9,606.57l-3.59,5.7c-4.73-3.53-8.87-5.7-12.43-6.51l-9.25-1.66v-9.56l7.23,1.17c7.39,1.2,13.4,4.82,18.04,10.86Z"/><path class="cls-22" d="m142.48,543.25l9.07.9-.04.58c-.06,5.74,1.49,10.73,4.65,14.94s7.94,7.52,14.34,9.92c-3.83-3.95-5.68-8.45-5.56-13.51.06-3.5,1.04-6.48,2.94-8.93,1.9-2.45,4.5-4.25,7.81-5.38,3.31-1.14,6.9-1.53,10.79-1.17,4.25.36,8.14,1.6,11.69,3.72,3.54,2.12,6.28,4.9,8.21,8.33s2.85,7.17,2.76,11.24c-.12,5.18-1.96,9.38-5.52,12.61s-8.24,5.07-14.05,5.52c-3.2.27-7.48-.07-12.83-1.03-10.68-1.94-19.06-6.1-25.13-12.45-6.07-6.36-9.11-14.44-9.11-24.26v-1.03Zm31.19,15.93c-.06,2.39.58,4.64,1.91,6.73,1.33,2.09,3.22,3.86,5.68,5.3,3.02.33,5.18.48,6.46.45,3.83,0,6.87-.7,9.11-2.11,2.24-1.41,3.4-3.43,3.46-6.06.09-3.23-1.12-5.98-3.64-8.24-2.51-2.26-5.8-3.61-9.87-4.06-3.8-.39-6.91.13-9.33,1.57-2.42,1.44-3.68,3.58-3.77,6.42Z"/><path class="cls-22" d="m209.08,514.26c-.12,5.65-2.07,9.93-5.86,12.83-3.78,2.9-9.09,4.31-15.91,4.22-2.21-.03-4.43-.18-6.64-.45l-11.67-1.75c-9.16-1.47-15.99-4.29-20.51-8.48-4.52-4.19-6.7-9.6-6.55-16.25.12-5.62,2.04-9.9,5.74-12.81,3.71-2.92,8.98-4.33,15.8-4.24,2.24.03,4.46.18,6.64.45l11.35,1.75c9.37,1.53,16.34,4.36,20.94,8.5,4.59,4.14,6.81,9.55,6.66,16.22Zm-40.7-16.11c-3.41-.39-5.83-.58-7.27-.58-6.76.15-10.25,2.62-10.46,7.4-.15,3.65,1.18,6.58,3.99,8.8,2.81,2.21,7.29,3.77,13.42,4.67l14.23,2.06c3.08.36,5.52.52,7.31.49,7,0,10.61-2.45,10.82-7.36.39-6.76-4.89-11.11-15.84-13.06l-16.2-2.42Z"/><path class="cls-22" d="m222.9,484.28l-3.59,5.7c-4.73-3.53-8.87-5.7-12.43-6.51l-9.25-1.66v-9.56l7.23,1.17c7.39,1.2,13.4,4.82,18.04,10.86Z"/><path class="cls-22" d="m209.08,443.08c-.12,5.65-2.07,9.93-5.86,12.83-3.78,2.9-9.09,4.31-15.91,4.22-2.21-.03-4.43-.18-6.64-.45l-11.67-1.75c-9.16-1.47-15.99-4.29-20.51-8.48-4.52-4.19-6.7-9.6-6.55-16.25.12-5.62,2.04-9.9,5.74-12.81,3.71-2.92,8.98-4.33,15.8-4.24,2.24.03,4.46.18,6.64.45l11.35,1.75c9.37,1.53,16.34,4.36,20.94,8.5,4.59,4.14,6.81,9.55,6.66,16.22Zm-40.7-16.11c-3.41-.39-5.83-.58-7.27-.58-6.76.15-10.25,2.62-10.46,7.4-.15,3.65,1.18,6.58,3.99,8.8,2.81,2.21,7.29,3.77,13.42,4.67l14.23,2.06c3.08.36,5.52.52,7.31.49,7,0,10.61-2.45,10.82-7.36.39-6.76-4.89-11.11-15.84-13.06l-16.2-2.42Z"/><path class="cls-22" d="m209.08,391.96c-.12,5.65-2.07,9.93-5.86,12.83-3.78,2.9-9.09,4.31-15.91,4.22-2.21-.03-4.43-.18-6.64-.45l-11.67-1.75c-9.16-1.47-15.99-4.29-20.51-8.48-4.52-4.19-6.7-9.6-6.55-16.25.12-5.62,2.04-9.9,5.74-12.81,3.71-2.92,8.98-4.33,15.8-4.24,2.24.03,4.46.18,6.64.45l11.35,1.75c9.37,1.53,16.34,4.36,20.94,8.5,4.59,4.14,6.81,9.55,6.66,16.22Zm-40.7-16.11c-3.41-.39-5.83-.58-7.27-.58-6.76.15-10.25,2.62-10.46,7.4-.15,3.65,1.18,6.58,3.99,8.8,2.81,2.21,7.29,3.77,13.42,4.67l14.23,2.06c3.08.36,5.52.52,7.31.49,7,0,10.61-2.45,10.82-7.36.39-6.76-4.89-11.11-15.84-13.06l-16.2-2.42Z"/><path class="cls-22" d="m209.08,340.85c-.12,5.65-2.07,9.93-5.86,12.83-3.78,2.9-9.09,4.31-15.91,4.22-2.21-.03-4.43-.18-6.64-.45l-11.67-1.75c-9.16-1.47-15.99-4.29-20.51-8.48-4.52-4.19-6.7-9.6-6.55-16.25.12-5.62,2.04-9.9,5.74-12.81,3.71-2.92,8.98-4.33,15.8-4.24,2.24.03,4.46.18,6.64.45l11.35,1.75c9.37,1.53,16.34,4.36,20.94,8.5,4.59,4.14,6.81,9.55,6.66,16.22Zm-40.7-16.11c-3.41-.39-5.83-.58-7.27-.58-6.76.15-10.25,2.62-10.46,7.4-.15,3.65,1.18,6.58,3.99,8.8,2.81,2.21,7.29,3.77,13.42,4.67l14.23,2.06c3.08.36,5.52.52,7.31.49,7,0,10.61-2.45,10.82-7.36.39-6.76-4.89-11.11-15.84-13.06l-16.2-2.42Z"/><path class="cls-22" d="m270.61,536.51v7.18c1.93-.61,3.92-.86,5.96-.77l-.03-7.04,6.13,2.7v4.75c3.77,1.24,6.62,3.18,8.54,5.85,1.92,2.66,3.11,6.33,3.55,11l18.23-12.06h.51v9.23l-20.35,13.44-4.78-.81.07-7.85c0-4.56-1.94-7.97-5.83-10.24l.07,17.89-6.13-2.73v-15.77c-3.35.31-5.08,2.65-5.19,7.01l-.03,9.53-6.87-3v-31.1l6.17,2.8Z"/><path class="cls-22" d="m313.5,498.64v7.95l-39.22-6.81,4.11,12.4-7.24-1.25-6.87-19.41v-1.21l49.22,8.32Z"/><path class="cls-22" d="m324.55,481.6l-2.7,4.28c-3.55-2.65-6.66-4.28-9.33-4.89l-6.94-1.25v-7.18l5.42.88c5.55.9,10.06,3.62,13.54,8.15Z"/><path class="cls-22" d="m306.96,458.48c.04-4.76-1.11-8.64-3.45-11.62-2.35-2.99-5.87-5.22-10.56-6.7,2.96,3.05,4.42,6.29,4.38,9.7-.04,2.54-.74,4.74-2.07,6.6-1.34,1.86-3.26,3.26-5.78,4.18-2.52.92-5.3,1.25-8.36.98-3.26-.29-6.24-1.24-8.96-2.85-2.72-1.61-4.82-3.69-6.3-6.25s-2.18-5.36-2.09-8.39c.07-2.63.74-4.91,2-6.86s3.08-3.45,5.42-4.53c2.35-1.08,4.97-1.7,7.87-1.85,2.4-.11,5.4.15,9,.77,8.31,1.44,14.67,4.51,19.07,9.23s6.6,10.71,6.6,17.99v.74l-6.81-.64.03-.51Zm-16-10.61c.04-1.66-.41-3.23-1.37-4.72-.95-1.48-2.27-2.76-3.96-3.84l-3.27-.44-2.36-.13c-2.92-.07-5.24.39-6.96,1.38-1.72.99-2.62,2.47-2.71,4.45-.09,2.81,1.26,5.11,4.04,6.91,2.79,1.8,6.06,2.53,9.84,2.19,2-.16,3.6-.74,4.82-1.75s1.85-2.36,1.92-4.04Z"/><path class="cls-22" d="m313.5,396.02v32.04l-5.96-.94-19.58-20.38c-3.71-3.8-7.06-5.88-10.07-6.27-2.13-.29-3.91.07-5.34,1.08-1.43,1.01-2.18,2.53-2.27,4.55-.09,2.49.69,4.59,2.34,6.3,1.65,1.71,3.9,2.74,6.76,3.1l.03,7.95c-3.01-.22-5.72-1.14-8.12-2.75-2.4-1.61-4.27-3.74-5.61-6.4-1.34-2.66-1.97-5.54-1.9-8.64.09-4.27,1.33-7.64,3.71-10.12s5.57-3.58,9.57-3.29c4.58.38,9.42,3.13,14.52,8.25l2.06,2.09,13.34,14.18v-21.8l6.54,1.04Z"/><path class="cls-22" d="m324.55,389.79l-2.7,4.28c-3.55-2.65-6.66-4.28-9.33-4.89l-6.94-1.25v-7.18l5.42.88c5.55.9,10.06,3.62,13.54,8.15Z"/><path class="cls-22" d="m314.17,358.86c-.09,4.25-1.55,7.46-4.4,9.64-2.84,2.18-6.82,3.23-11.94,3.17-1.66-.02-3.32-.13-4.99-.34l-8.76-1.31c-6.87-1.1-12.01-3.22-15.4-6.37-3.39-3.14-5.03-7.21-4.92-12.2.09-4.22,1.53-7.43,4.31-9.62,2.79-2.19,6.74-3.25,11.86-3.18,1.68.02,3.35.13,4.99.34l8.52,1.31c7.03,1.15,12.27,3.27,15.72,6.38s5.12,7.17,5,12.18Zm-30.56-12.1c-2.56-.29-4.38-.44-5.46-.44-5.08.11-7.69,1.97-7.85,5.56-.11,2.74.89,4.94,3,6.6,2.11,1.66,5.47,2.83,10.07,3.5l10.68,1.55c2.31.27,4.14.39,5.49.37,5.26,0,7.96-1.84,8.12-5.53.29-5.08-3.67-8.34-11.89-9.8l-12.16-1.82Z"/><path class="cls-22" d="m314.17,320.48c-.09,4.25-1.55,7.46-4.4,9.64-2.84,2.18-6.82,3.23-11.94,3.17-1.66-.02-3.32-.13-4.99-.34l-8.76-1.31c-6.87-1.1-12.01-3.22-15.4-6.37-3.39-3.14-5.03-7.21-4.92-12.2.09-4.22,1.53-7.43,4.31-9.62,2.79-2.19,6.74-3.25,11.86-3.18,1.68.02,3.35.13,4.99.34l8.52,1.31c7.03,1.15,12.27,3.27,15.72,6.38s5.12,7.17,5,12.18Zm-30.56-12.1c-2.56-.29-4.38-.44-5.46-.44-5.08.11-7.69,1.97-7.85,5.56-.11,2.74.89,4.94,3,6.6,2.11,1.66,5.47,2.83,10.07,3.5l10.68,1.55c2.31.27,4.14.39,5.49.37,5.26,0,7.96-1.84,8.12-5.53.29-5.08-3.67-8.34-11.89-9.8l-12.16-1.82Z"/><path class="cls-22" d="m314.17,282.11c-.09,4.25-1.55,7.46-4.4,9.64-2.84,2.18-6.82,3.23-11.94,3.17-1.66-.02-3.32-.13-4.99-.34l-8.76-1.31c-6.87-1.1-12.01-3.22-15.4-6.37-3.39-3.14-5.03-7.21-4.92-12.2.09-4.22,1.53-7.43,4.31-9.62,2.79-2.19,6.74-3.25,11.86-3.18,1.68.02,3.35.13,4.99.34l8.52,1.31c7.03,1.15,12.27,3.27,15.72,6.38s5.12,7.17,5,12.18Zm-30.56-12.1c-2.56-.29-4.38-.44-5.46-.44-5.08.11-7.69,1.97-7.85,5.56-.11,2.74.89,4.94,3,6.6,2.11,1.66,5.47,2.83,10.07,3.5l10.68,1.55c2.31.27,4.14.39,5.49.37,5.26,0,7.96-1.84,8.12-5.53.29-5.08-3.67-8.34-11.89-9.8l-12.16-1.82Z"/><line class="cls-39" x1="294.23" y1="601.24" x2="294.23" y2="230.06"/><path class="cls-11" d="m819.77.57h-460.11v1116.59c0,44.17,37.87,79.98,84.59,79.98h460.11V80.55c0-44.17-37.88-79.98-84.59-79.98Z"/><path class="cls-5" d="m825.06,1.67h-463.01v392.96c137.14,187.82,277.39-86.68,548.14,65.01V86.9c0-47.08-38.12-85.24-85.13-85.24Z"/><path class="cls-15" d="m362.06,131.29c52.4,81.08,145.24,148.6,260.94,179.66,101.42,27.23,201.63,21.37,282.73-10.07V90.46c0-46.63-37.81-84.43-84.43-84.43h-459.24v125.26Z"/><path class="cls-18" d="m796.81,418.32l96.22-372.21c-10.54-17.01-26.87-30.03-46.32-36.17l-104.04,402.44c17.38.39,35.4,2.22,54.14,5.94Z"/><path class="cls-9" d="m556.18,6.03l-116.68,451.32c17.62,5.67,35.67,6.8,54.36,5.08L611.85,6.03h-55.68Z"/><path class="cls-33" d="m821.29,6.03h-23.86l-105.78,409.15c18.03-2.32,36.78-3.42,56.36-2.65L851.63,11.74c-9.43-3.64-19.63-5.71-30.34-5.71Z"/><path class="cls-38" d="m822.57,0h-463.01v392.96c137.14,187.82,277.39-86.68,548.14,65.01V85.24c0-47.08-38.12-85.24-85.13-85.24Z"/><path class="cls-4" d="m359.56,129.62c52.4,81.08,145.24,148.6,260.94,179.66,101.42,27.23,201.63,21.37,282.73-10.07V88.8c0-46.63-37.81-84.43-84.43-84.43h-459.24v125.26Z"/><path class="cls-7" d="m794.32,416.65l96.22-372.21c-10.54-17.01-26.87-30.03-46.32-36.17l-104.04,402.44c17.38.39,35.4,2.22,54.14,5.94Z"/><path class="cls-37" d="m553.68,4.36l-116.68,451.32c17.62,5.67,35.67,6.8,54.36,5.08L609.36,4.36h-55.68Z"/><path class="cls-13" d="m818.8,4.36h-23.86l-105.78,409.15c18.03-2.32,36.78-3.42,56.36-2.65L849.13,10.07c-9.43-3.64-19.63-5.71-30.34-5.71Z"/><path class="cls-8" d="m437.48,583.64c0,7.7-6.24,13.94-13.94,13.94h0c-7.7,0-13.94-6.24-13.94-13.94h0c0-7.7,6.24-13.94,13.94-13.94h0c7.7,0,13.94,6.24,13.94,13.94h0Z"/><path class="cls-25" d="m430.54,583.64c0,3.87-3.14,7.01-7,7.01h0c-3.87,0-7-3.14-7-7.01h0c0-3.87,3.14-7.01,7-7.01h0c3.87,0,7,3.14,7,7.01h0Z"/><path class="cls-28" d="m437.48,641.67c0,7.7-6.24,13.94-13.94,13.94h0c-7.7,0-13.94-6.24-13.94-13.94h0c0-7.7,6.24-13.94,13.94-13.94h0c7.7,0,13.94,6.24,13.94,13.94h0Z"/><path class="cls-20" d="m430.54,641.67c0,3.87-3.14,7.01-7,7.01h0c-3.87,0-7-3.14-7-7.01h0c0-3.87,3.14-7.01,7-7.01h0c3.87,0,7,3.14,7,7.01h0Z"/><path class="cls-23" d="m437.48,699.7c0,7.7-6.24,13.94-13.94,13.94h0c-7.7,0-13.94-6.24-13.94-13.94h0c0-7.7,6.24-13.94,13.94-13.94h0c7.7,0,13.94,6.24,13.94,13.94h0Z"/><path class="cls-31" d="m430.54,699.7c0,3.87-3.14,7.01-7,7.01h0c-3.87,0-7-3.14-7-7.01h0c0-3.87,3.14-7.01,7-7.01h0c3.87,0,7,3.14,7,7.01h0Z"/><path class="cls-3" d="m437.48,757.73c0,7.7-6.24,13.94-13.94,13.94h0c-7.7,0-13.94-6.24-13.94-13.94h0c0-7.7,6.24-13.94,13.94-13.94h0c7.7,0,13.94,6.24,13.94,13.94h0Z"/><path class="cls-24" d="m430.54,757.73c0,3.87-3.14,7.01-7,7.01h0c-3.87,0-7-3.14-7-7.01h0c0-3.87,3.14-7.01,7-7.01h0c3.87,0,7,3.14,7,7.01h0Z"/><path class="cls-17" d="m437.48,815.76c0,7.7-6.24,13.94-13.94,13.94h0c-7.7,0-13.94-6.24-13.94-13.94h0c0-7.7,6.24-13.94,13.94-13.94h0c7.7,0,13.94,6.24,13.94,13.94h0Z"/><path class="cls-21" d="m430.54,815.76c0,3.87-3.14,7.01-7,7.01h0c-3.87,0-7-3.14-7-7.01h0c0-3.87,3.14-7.01,7-7.01h0c3.87,0,7,3.14,7,7.01h0Z"/><path class="cls-26" d="m437.48,870.8c0,7.7-6.24,13.94-13.94,13.94h0c-7.7,0-13.94-6.24-13.94-13.94h0c0-7.7,6.24-13.94,13.94-13.94h0c7.7,0,13.94,6.24,13.94,13.94h0Z"/><path class="cls-29" d="m430.54,870.8c0,3.87-3.14,7.01-7,7.01h0c-3.87,0-7-3.14-7-7.01h0c0-3.87,3.14-7.01,7-7.01h0c3.87,0,7,3.14,7,7.01h0Z"/><path class="cls-1" d="m437.48,928.83c0,7.7-6.24,13.94-13.94,13.94h0c-7.7,0-13.94-6.24-13.94-13.94h0c0-7.7,6.24-13.94,13.94-13.94h0c7.7,0,13.94,6.24,13.94,13.94h0Z"/><path class="cls-30" d="m430.54,928.83c0,3.87-3.14,7.01-7,7.01h0c-3.87,0-7-3.14-7-7.01h0c0-3.87,3.14-7.01,7-7.01h0c3.87,0,7,3.14,7,7.01h0Z"/><path class="cls-10" d="m437.48,986.86c0,7.7-6.24,13.94-13.94,13.94h0c-7.7,0-13.94-6.24-13.94-13.94h0c0-7.7,6.24-13.94,13.94-13.94h0c7.7,0,13.94,6.24,13.94,13.94h0Z"/><path class="cls-35" d="m430.54,986.86c0,3.87-3.14,7.01-7,7.01h0c-3.87,0-7-3.14-7-7.01h0c0-3.87,3.14-7.01,7-7.01h0c3.87,0,7,3.14,7,7.01h0Z"/><path class="cls-36" d="m437.48,1044.89c0,7.7-6.24,13.94-13.94,13.94h0c-7.7,0-13.94-6.24-13.94-13.94h0c0-7.7,6.24-13.94,13.94-13.94h0c7.7,0,13.94,6.24,13.94,13.94h0Z"/><path class="cls-32" d="m430.54,1044.89c0,3.87-3.14,7.01-7,7.01h0c-3.87,0-7-3.14-7-7.01h0c0-3.87,3.14-7.01,7-7.01h0c3.87,0,7,3.14,7,7.01h0Z"/><path class="cls-14" d="m593.72,493.81c5.16,18.59,27.33,28.66,49.51,22.5,22.18-6.16,35.99-26.22,30.83-44.81-5.16-18.59-27.33-28.66-49.51-22.5-22.18,6.16-35.98,26.22-30.83,44.81Z"/><path class="cls-34" d="m694.12,449.33c.71,9.83,10.8,17.12,22.54,16.28,11.74-.85,20.68-9.5,19.97-19.34-.71-9.83-10.8-17.12-22.54-16.28-11.74.85-20.68,9.5-19.97,19.34Z"/><path class="cls-2" d="m547.07,479.23c.39,5.4,5.93,9.4,12.38,8.94,6.45-.46,11.36-5.22,10.97-10.62-.39-5.4-5.93-9.4-12.38-8.94-6.45.46-11.36,5.22-10.97,10.62Z"/><path class="cls-22" d="m426.94,148.85l18.2-69.64h72.6l-3.14,20.01h-53.45l-9.81,33.25c6.48-3.68,13.53-5.53,21.15-5.53,11.75.13,20.78,4.45,27.11,12.96,6.32,8.51,8.91,19.53,7.76,33.06-1.14,13.91-6.35,25.28-15.62,34.11-9.27,8.83-20.74,13.11-34.39,12.86-11.56-.25-20.94-3.97-28.15-11.15-7.21-7.18-11-16.64-11.39-28.39h21.63c.44,6.48,2.27,11.54,5.48,15.2,3.21,3.65,7.7,5.54,13.48,5.67,7.05.19,12.97-2.38,17.77-7.72,4.79-5.34,7.67-12.45,8.62-21.34.76-7.88-.54-14.24-3.91-19.1-3.37-4.86-8.38-7.35-15.05-7.48-4.07-.13-7.7.52-10.91,1.95-3.21,1.43-6.34,3.42-9.38,5.95l-18.58-4.67Z"/><path class="cls-16" d="m821.29,6.03h-459.24v1077.6c0,46.63,37.8,84.43,84.43,84.43h459.24V90.46c0-46.63-37.81-84.43-84.43-84.43Z"/><path class="cls-22" d="m361.45,278.9h330.39c24.17,0,43.8,19.62,43.8,43.8h0c0,24.17-19.62,43.8-43.8,43.8h-330.39v-87.59h0Z"/><path class="cls-19" d="m441.88,348.6l12.01-56.46h23.46c2.76,0,5.13.73,7.12,2.19,1.99,1.46,3.5,3.35,4.53,5.69,1.03,2.33,1.55,4.8,1.55,7.4,0,2.12-.36,4.21-1.07,6.28-.72,2.07-1.72,4-3.02,5.81-1.3,1.8-2.81,3.37-4.53,4.69-1.72,1.33-3.59,2.31-5.61,2.94l7.95,21.47h-10.1l-7.32-19.64h-11.85l-4.14,19.64h-8.99Zm29.19-27.52c1.32,0,2.6-.36,3.82-1.07,1.22-.72,2.32-1.68,3.3-2.9.98-1.22,1.75-2.58,2.31-4.1.56-1.51.83-3.06.83-4.65s-.27-3.01-.79-4.25c-.53-1.25-1.26-2.24-2.19-2.98-.93-.74-2-1.11-3.22-1.11h-13.92l-4.53,21.07h14.39Z"/><path class="cls-19" d="m506.53,349.39c-3.08,0-5.73-.76-7.95-2.29s-3.92-3.57-5.09-6.15c-1.17-2.57-1.75-5.44-1.75-8.59,0-3.36.61-6.58,1.83-9.65,1.22-3.07,2.9-5.8,5.05-8.19,2.15-2.39,4.6-4.29,7.36-5.71,2.76-1.42,5.65-2.13,8.67-2.13s5.57.82,7.63,2.44c2.07,1.63,3.5,3.65,4.29,6.07l1.67-7.87h8.83l-6.68,30.59c-.05.26-.09.48-.12.66-.03.18-.04.35-.04.51,0,1.04.61,1.59,1.83,1.64l-1.59,7.48c-.74.11-1.41.2-1.99.28-.58.08-1.11.12-1.59.12-1.64,0-2.92-.34-3.82-1.01-.9-.67-1.35-1.63-1.35-2.88,0-.25.01-.55.04-.9.03-.35.08-.75.16-1.2.08-.45.2-.95.36-1.5-2.07,2.63-4.52,4.66-7.36,6.11s-5.63,2.17-8.39,2.17Zm3.82-7.48c1.06,0,2.19-.21,3.38-.62,1.19-.42,2.36-.99,3.5-1.72,1.14-.73,2.19-1.59,3.14-2.58.95-.99,1.72-2.06,2.31-3.2l2.23-10.79c-.21-1.67-.77-3.16-1.67-4.49-.9-1.33-2-2.38-3.3-3.17-1.3-.78-2.69-1.17-4.18-1.17-2.01,0-3.91.48-5.69,1.45-1.78.97-3.34,2.26-4.69,3.88-1.35,1.62-2.43,3.42-3.22,5.41-.8,1.99-1.19,4-1.19,6.04s.38,3.94,1.15,5.57c.77,1.62,1.86,2.93,3.26,3.92,1.4.99,3.06,1.49,4.97,1.49Z"/><path class="cls-19" d="m557.18,349.39c-3.61,0-6.64-.79-9.11-2.36-2.46-1.58-4.33-3.68-5.61-6.3-1.27-2.63-1.91-5.54-1.91-8.75s.64-6.47,1.91-9.49c1.27-3.02,3.05-5.71,5.33-8.08s4.97-4.24,8.07-5.63,6.48-2.09,10.14-2.09c4.29,0,7.71.94,10.26,2.82,2.54,1.88,4.21,4.39,5.01,7.51l-9.07,2.7c-.58-1.8-1.52-3.18-2.82-4.14-1.3-.95-2.93-1.43-4.89-1.43s-3.75.43-5.53,1.29c-1.78.86-3.37,2.07-4.77,3.61-1.41,1.54-2.52,3.32-3.34,5.33-.82,2.01-1.23,4.19-1.23,6.55,0,2.14.37,4.02,1.11,5.64s1.79,2.92,3.14,3.88,2.9,1.45,4.65,1.45c1.32,0,2.66-.25,4.02-.76,1.35-.5,2.58-1.19,3.7-2.07,1.11-.88,1.96-1.84,2.54-2.9l8.03,2.54c-1.27,2.07-2.93,3.9-4.97,5.49-2.04,1.59-4.31,2.85-6.8,3.78-2.49.93-5.12,1.39-7.87,1.39Z"/><path class="cls-19" d="m594,290.54h8.75l-12.33,58.05h-8.75l12.33-58.05Zm6.76,38.64c4.77-1.05,8.4-2.67,10.89-4.88,2.49-2.2,3.74-4.48,3.74-6.84,0-1.26-.33-2.16-.99-2.71-.66-.55-1.55-.83-2.66-.83-2.17,0-4.43.79-6.76,2.36-2.33,1.57-4.49,3.67-6.48,6.29-1.99,2.62-3.49,5.48-4.49,8.58l1.75-11.37c1.64-2.47,3.45-4.7,5.41-6.67,1.96-1.97,4.08-3.54,6.36-4.7,2.28-1.16,4.72-1.74,7.32-1.74,2.86,0,5,.79,6.4,2.37,1.4,1.58,2.11,3.66,2.11,6.23,0,3.42-1.09,6.56-3.26,9.43-2.17,2.87-5.33,5.22-9.46,7.06l8.51,16.81h-9.38l-8.99-19.41Z"/><path class="cls-19" d="m639.97,349.39c-3.34,0-6.47-.53-9.38-1.59-2.92-1.06-5.3-2.62-7.16-4.69l4.69-5.57c1.91,1.75,3.94,3.08,6.08,3.98,2.15.9,4.39,1.35,6.72,1.35,1.8,0,3.38-.26,4.73-.78,1.35-.52,2.4-1.25,3.14-2.18.74-.94,1.11-2.03,1.11-3.28,0-1.63-.69-2.78-2.07-3.47-1.38-.68-3.47-1.42-6.28-2.21-2.7-.84-4.93-1.63-6.68-2.36-1.75-.74-3.04-1.65-3.86-2.76-.82-1.1-1.23-2.57-1.23-4.41,0-2.89.81-5.44,2.42-7.64,1.62-2.21,3.8-3.94,6.56-5.2,2.76-1.26,5.86-1.89,9.3-1.89,3.13,0,5.87.48,8.23,1.43,2.36.95,4.36,2.33,6,4.14l-4.85,5.25c-1.49-1.54-3.04-2.65-4.65-3.34-1.62-.69-3.43-1.03-5.45-1.03-1.75,0-3.3.24-4.65.71-1.35.47-2.41,1.18-3.18,2.12-.77.94-1.15,2.09-1.15,3.45s.53,2.43,1.59,3.06c1.06.63,2.94,1.31,5.65,2.04,2.86.79,5.27,1.63,7.24,2.52,1.96.89,3.43,1.97,4.41,3.23.98,1.26,1.47,2.92,1.47,4.96,0,2.68-.77,5.09-2.31,7.25-1.54,2.15-3.71,3.85-6.52,5.08-2.81,1.23-6.12,1.85-9.94,1.85Z"/><path class="cls-19" d="m477.39,584.23h-4.33v8.6h-3.88v-22.35h7.86c2.58,0,4.57.58,5.97,1.74,1.4,1.16,2.1,2.83,2.1,5.02,0,1.5-.36,2.75-1.08,3.76s-1.73,1.78-3.02,2.33l5.02,9.31v.2h-4.16l-4.48-8.6Zm-4.33-3.13h3.99c1.31,0,2.33-.33,3.07-.99s1.11-1.56,1.11-2.71-.34-2.12-1.02-2.78c-.68-.66-1.7-.99-3.05-1.01h-4.1v7.49Z"/><path class="cls-19" d="m498.36,592.83c-.16-.32-.31-.83-.43-1.55-1.19,1.24-2.64,1.86-4.36,1.86s-3.03-.48-4.08-1.43c-1.05-.95-1.58-2.13-1.58-3.53,0-1.77.66-3.13,1.97-4.08,1.32-.95,3.2-1.42,5.64-1.42h2.29v-1.09c0-.86-.24-1.55-.72-2.06-.48-.52-1.21-.78-2.2-.78-.85,0-1.54.21-2.09.64-.54.42-.81.96-.81,1.62h-3.73c0-.91.3-1.76.91-2.56.6-.79,1.43-1.41,2.46-1.86,1.04-.45,2.2-.68,3.48-.68,1.94,0,3.49.49,4.65,1.47,1.16.98,1.75,2.35,1.78,4.12v7.49c0,1.49.21,2.69.63,3.58v.26h-3.81Zm-4.1-2.69c.74,0,1.43-.18,2.08-.54.65-.36,1.14-.84,1.47-1.44v-3.13h-2.01c-1.38,0-2.42.24-3.12.72-.7.48-1.04,1.16-1.04,2.04,0,.72.24,1.29.71,1.71s1.11.64,1.91.64Z"/><path class="cls-19" d="m512.27,590.16c.93,0,1.7-.27,2.32-.81.61-.54.94-1.21.98-2.01h3.51c-.04,1.03-.36,2-.97,2.89-.6.9-1.42,1.6-2.46,2.13-1.03.52-2.15.78-3.35.78-2.32,0-4.17-.75-5.53-2.26-1.36-1.5-2.04-3.58-2.04-6.23v-.38c0-2.53.67-4.55,2.03-6.07,1.35-1.52,3.19-2.28,5.53-2.28,1.97,0,3.58.58,4.83,1.73s1.9,2.66,1.96,4.54h-3.51c-.04-.95-.37-1.73-.97-2.35-.61-.61-1.38-.92-2.33-.92-1.21,0-2.14.44-2.79,1.31-.66.88-.99,2.2-1,3.98v.6c0,1.8.33,3.14.97,4.03.65.88,1.59,1.33,2.82,1.33Z"/><path class="cls-19" d="m527.29,585.71l-1.66,1.7v5.42h-3.73v-23.58h3.73v13.6l1.17-1.46,4.59-5.17h4.48l-6.17,6.92,6.83,9.69h-4.31l-4.93-7.12Z"/><path class="cls-19" d="m558.18,587.07c0-.98-.34-1.74-1.04-2.27-.69-.53-1.94-1.07-3.74-1.61-1.8-.54-3.23-1.15-4.3-1.81-2.04-1.28-3.05-2.95-3.05-5,0-1.8.73-3.29,2.2-4.45,1.47-1.17,3.37-1.75,5.72-1.75,1.55,0,2.94.29,4.16.86s2.17,1.39,2.87,2.45c.7,1.06,1.04,2.23,1.04,3.52h-3.87c0-1.17-.37-2.08-1.1-2.74-.73-.66-1.78-.99-3.14-.99-1.27,0-2.25.27-2.95.81-.7.54-1.05,1.3-1.05,2.27,0,.82.38,1.5,1.14,2.05.76.55,2.01,1.08,3.75,1.6,1.74.52,3.14,1.1,4.19,1.76s1.83,1.42,2.32,2.27.74,1.85.74,3c0,1.86-.71,3.34-2.14,4.44-1.43,1.1-3.36,1.65-5.81,1.65-1.62,0-3.1-.3-4.46-.9-1.36-.6-2.41-1.42-3.16-2.48-.75-1.05-1.13-2.28-1.13-3.68h3.88c0,1.27.42,2.25,1.26,2.95.84.7,2.04,1.04,3.61,1.04,1.35,0,2.37-.27,3.05-.82s1.02-1.27,1.02-2.17Z"/><path class="cls-19" d="m579.65,584.69c0,2.57-.58,4.62-1.75,6.15-1.17,1.53-2.73,2.29-4.7,2.29-1.82,0-3.28-.6-4.38-1.8v7.88h-3.73v-22.99h3.44l.15,1.69c1.09-1.33,2.58-2,4.47-2,2.03,0,3.61.75,4.77,2.26,1.15,1.51,1.73,3.61,1.73,6.29v.23Zm-3.71-.32c0-1.66-.33-2.97-.99-3.95-.66-.97-1.6-1.46-2.83-1.46-1.52,0-2.62.63-3.29,1.89v7.37c.68,1.29,1.78,1.93,3.32,1.93,1.19,0,2.12-.48,2.79-1.44.67-.96,1.01-2.41,1.01-4.35Z"/><path class="cls-19" d="m592.73,592.83c-.16-.32-.31-.83-.43-1.55-1.19,1.24-2.64,1.86-4.36,1.86s-3.03-.48-4.08-1.43c-1.05-.95-1.58-2.13-1.58-3.53,0-1.77.66-3.13,1.97-4.08,1.32-.95,3.2-1.42,5.64-1.42h2.29v-1.09c0-.86-.24-1.55-.72-2.06-.48-.52-1.21-.78-2.2-.78-.85,0-1.54.21-2.09.64-.54.42-.81.96-.81,1.62h-3.73c0-.91.3-1.76.91-2.56.6-.79,1.43-1.41,2.46-1.86,1.04-.45,2.2-.68,3.48-.68,1.94,0,3.49.49,4.65,1.47,1.16.98,1.75,2.35,1.78,4.12v7.49c0,1.49.21,2.69.63,3.58v.26h-3.81Zm-4.1-2.69c.74,0,1.43-.18,2.08-.54.65-.36,1.14-.84,1.47-1.44v-3.13h-2.01c-1.38,0-2.42.24-3.12.72-.7.48-1.04,1.16-1.04,2.04,0,.72.24,1.29.71,1.71s1.11.64,1.91.64Z"/><path class="cls-19" d="m606.63,590.16c.93,0,1.7-.27,2.32-.81.61-.54.94-1.21.98-2.01h3.51c-.04,1.03-.36,2-.97,2.89-.6.9-1.42,1.6-2.46,2.13-1.03.52-2.15.78-3.35.78-2.32,0-4.17-.75-5.53-2.26-1.36-1.5-2.04-3.58-2.04-6.23v-.38c0-2.53.67-4.55,2.03-6.07,1.35-1.52,3.19-2.28,5.53-2.28,1.97,0,3.58.58,4.83,1.73s1.9,2.66,1.96,4.54h-3.51c-.04-.95-.37-1.73-.97-2.35-.61-.61-1.38-.92-2.33-.92-1.21,0-2.14.44-2.79,1.31-.66.88-.99,2.2-1,3.98v.6c0,1.8.33,3.14.97,4.03.65.88,1.59,1.33,2.82,1.33Z"/><path class="cls-19" d="m623.58,593.13c-2.36,0-4.28-.74-5.75-2.23-1.47-1.49-2.2-3.47-2.2-5.95v-.46c0-1.66.32-3.14.96-4.44s1.54-2.32,2.69-3.05,2.45-1.09,3.87-1.09c2.26,0,4.01.72,5.24,2.16,1.23,1.44,1.85,3.48,1.85,6.12v1.5h-10.85c.11,1.37.57,2.46,1.37,3.25s1.81,1.2,3.03,1.2c1.71,0,3.1-.69,4.18-2.07l2.01,1.92c-.67.99-1.55,1.76-2.66,2.31-1.11.55-2.36.82-3.74.82Zm-.44-14.23c-1.02,0-1.85.36-2.48,1.07-.63.72-1.03,1.71-1.21,2.99h7.11v-.28c-.08-1.25-.42-2.19-1-2.83-.58-.64-1.39-.96-2.42-.96Z"/><path class="cls-19" d="m643.21,575.87c.7,0,1.23.2,1.61.59.38.39.57.89.57,1.48s-.19,1.07-.57,1.45c-.38.38-.92.58-1.61.58s-1.19-.19-1.58-.57c-.39-.38-.58-.86-.58-1.46s.19-1.09.57-1.48c.38-.39.91-.59,1.6-.59Zm0,13.03c.7,0,1.23.2,1.61.59.38.39.57.89.57,1.48s-.19,1.07-.57,1.45c-.38.38-.92.58-1.61.58s-1.19-.19-1.58-.57c-.39-.38-.58-.86-.58-1.46s.19-1.09.57-1.48c.38-.39.91-.59,1.6-.59Z"/><path class="cls-27" d="m669.43,584.86h2.78v2.99h-2.78v4.97h-3.73v-4.97h-9.66l-.11-2.27,9.64-15.1h3.85v14.38Zm-9.58,0h5.85v-9.33l-.28.49-5.57,8.84Z"/><path class="cls-27" d="m689.71,592.83h-15.03v-2.56l7.44-8.12c1.08-1.2,1.84-2.2,2.29-3,.46-.8.68-1.61.68-2.42,0-1.06-.3-1.92-.9-2.58-.6-.65-1.4-.98-2.42-.98-1.21,0-2.14.37-2.81,1.1-.67.74-1,1.75-1,3.02h-3.73c0-1.36.31-2.59.93-3.68s1.5-1.94,2.66-2.54,2.48-.91,3.98-.91c2.17,0,3.88.54,5.13,1.63,1.25,1.09,1.88,2.6,1.88,4.52,0,1.12-.31,2.29-.94,3.51-.63,1.22-1.66,2.61-3.09,4.17l-5.46,5.85h10.38v2.98Z"/><path class="cls-27" d="m709.49,570.48v14.93c0,2.37-.76,4.25-2.28,5.64s-3.54,2.08-6.07,2.08-4.59-.68-6.09-2.05c-1.5-1.37-2.26-3.26-2.26-5.69v-14.92h3.87v14.95c0,1.49.38,2.63,1.14,3.42.76.79,1.87,1.18,3.35,1.18,2.99,0,4.48-1.58,4.48-4.73v-14.83h3.87Z"/><path class="cls-27" d="m716.46,577.9l-4.68-1.35.84-2.59,4.64,1.79-.23-5.27h2.75l-.23,5.37,4.56-1.76.83,2.64-4.76,1.35,3.07,4.08-2.23,1.63-2.76-4.42-2.73,4.28-2.24-1.57,3.18-4.18Z"/><path class="cls-27" d="m727.93,581.75l1.21-11.27h12v3.22h-8.9l-.61,5.34c1.03-.59,2.2-.89,3.5-.89,2.13,0,3.78.68,4.96,2.04,1.18,1.36,1.77,3.19,1.77,5.5s-.66,4.08-1.96,5.43c-1.31,1.35-3.11,2.02-5.39,2.02-2.05,0-3.74-.58-5.09-1.74-1.35-1.16-2.07-2.69-2.19-4.6h3.61c.14,1.08.53,1.92,1.17,2.49.63.58,1.46.87,2.49.87,1.15,0,2.04-.41,2.68-1.23.64-.82.96-1.93.96-3.35s-.35-2.44-1.06-3.23-1.68-1.19-2.92-1.19c-.67,0-1.25.09-1.72.27-.47.18-.98.53-1.54,1.05l-2.98-.74Z"/><path class="cls-12" d="m473.06,642.57v8.29h-3.88v-22.35h8.55c2.5,0,4.48.65,5.95,1.95,1.47,1.3,2.2,3.02,2.2,5.16s-.72,3.9-2.16,5.12-3.45,1.83-6.04,1.83h-4.62Zm0-3.13h4.67c1.38,0,2.44-.33,3.16-.97s1.09-1.59,1.09-2.82-.37-2.17-1.11-2.89c-.74-.72-1.75-1.09-3.04-1.11h-4.77v7.8Z"/><path class="cls-12" d="m488.01,642.4c0-1.63.32-3.09.97-4.4s1.55-2.31,2.72-3.01,2.51-1.05,4.02-1.05c2.24,0,4.06.72,5.46,2.16,1.4,1.44,2.15,3.36,2.26,5.74l.02.88c0,1.64-.31,3.1-.94,4.39-.63,1.29-1.53,2.29-2.7,2.99s-2.53,1.06-4.06,1.06c-2.34,0-4.22-.78-5.62-2.34-1.41-1.56-2.11-3.64-2.11-6.24v-.18Zm3.73.32c0,1.71.35,3.05,1.06,4.01s1.69,1.45,2.95,1.45,2.24-.49,2.94-1.47c.7-.98,1.05-2.42,1.05-4.31,0-1.68-.36-3.01-1.08-3.99s-1.7-1.47-2.94-1.47-2.18.48-2.9,1.45c-.72.97-1.07,2.41-1.07,4.34Z"/><path class="cls-12" d="m521.2,645.72l2.64-11.47h3.64l-4.53,16.61h-3.07l-3.56-11.4-3.5,11.4h-3.07l-4.54-16.61h3.64l2.69,11.34,3.41-11.34h2.81l3.45,11.47Z"/><path class="cls-12" d="m537.29,651.16c-2.36,0-4.28-.74-5.75-2.23-1.47-1.49-2.2-3.47-2.2-5.95v-.46c0-1.66.32-3.14.96-4.44s1.54-2.32,2.69-3.05,2.45-1.09,3.87-1.09c2.26,0,4.01.72,5.24,2.16,1.23,1.44,1.85,3.48,1.85,6.12v1.5h-10.85c.11,1.37.57,2.46,1.37,3.25s1.81,1.2,3.03,1.2c1.71,0,3.1-.69,4.18-2.07l2.01,1.92c-.67.99-1.55,1.76-2.66,2.31-1.11.55-2.36.82-3.74.82Zm-.44-14.23c-1.02,0-1.85.36-2.48,1.07-.63.72-1.03,1.71-1.21,2.99h7.11v-.28c-.08-1.25-.42-2.19-1-2.83-.58-.64-1.39-.96-2.42-.96Z"/><path class="cls-12" d="m555.54,637.66c-.49-.08-1-.12-1.52-.12-1.71,0-2.86.66-3.45,1.96v11.36h-3.73v-16.61h3.56l.09,1.86c.9-1.44,2.15-2.16,3.75-2.16.53,0,.97.07,1.32.21l-.02,3.5Z"/><path class="cls-12" d="m567.97,633.9c.7,0,1.23.2,1.61.59.38.39.57.89.57,1.48s-.19,1.07-.57,1.45c-.38.38-.92.58-1.61.58s-1.19-.19-1.58-.57c-.39-.38-.58-.86-.58-1.46s.19-1.09.57-1.48c.38-.39.91-.59,1.6-.59Zm0,13.03c.7,0,1.23.2,1.61.59.38.39.57.89.57,1.48s-.19,1.07-.57,1.45c-.38.38-.92.58-1.61.58s-1.19-.19-1.58-.57c-.39-.38-.58-.86-.58-1.46s.19-1.09.57-1.48c.38-.39.91-.59,1.6-.59Z"/><path class="cls-27" d="m593.17,628.4v3.08h-.46c-2.09.03-3.75.6-5,1.72-1.25,1.12-1.99,2.7-2.23,4.74,1.2-1.26,2.73-1.89,4.59-1.89,1.97,0,3.53.7,4.67,2.09,1.14,1.39,1.71,3.19,1.71,5.39s-.67,4.11-2,5.52c-1.33,1.41-3.09,2.11-5.26,2.11s-4.04-.82-5.43-2.47c-1.39-1.65-2.08-3.81-2.08-6.48v-1.27c0-3.92.95-6.99,2.86-9.21,1.91-2.22,4.65-3.33,8.24-3.33h.38Zm-4.01,10.67c-.82,0-1.57.23-2.25.69-.68.46-1.18,1.07-1.5,1.84v1.14c0,1.66.35,2.98,1.04,3.95.7.98,1.6,1.47,2.7,1.47s1.98-.42,2.62-1.24c.64-.83.97-1.92.97-3.27s-.33-2.45-.98-3.3c-.66-.85-1.53-1.27-2.61-1.27Z"/><path class="cls-27" d="m614.28,641.2l-2.53,2.69v6.97h-3.88v-22.35h3.88v10.48l2.15-2.66,6.54-7.83h4.7l-8.3,9.9,8.78,12.45h-4.6l-6.72-9.65Z"/><path class="cls-27" d="m632.56,646.13l3.52-11.88h3.85l-5.76,16.61h-3.24l-5.8-16.61h3.87l3.56,11.88Z"/><path class="cls-27" d="m651.95,650.86c-.16-.32-.31-.83-.43-1.55-1.19,1.24-2.64,1.86-4.36,1.86s-3.03-.48-4.08-1.43c-1.05-.95-1.58-2.13-1.58-3.53,0-1.77.66-3.13,1.97-4.08,1.32-.95,3.2-1.42,5.64-1.42h2.29v-1.09c0-.86-.24-1.55-.72-2.06-.48-.52-1.21-.78-2.2-.78-.85,0-1.54.21-2.09.64-.54.42-.81.96-.81,1.62h-3.73c0-.91.3-1.76.91-2.56.6-.79,1.43-1.41,2.46-1.86,1.04-.45,2.2-.68,3.48-.68,1.94,0,3.49.49,4.65,1.47,1.16.98,1.75,2.35,1.78,4.12v7.49c0,1.49.21,2.69.63,3.58v.26h-3.81Zm-4.1-2.69c.74,0,1.43-.18,2.08-.54.65-.36,1.14-.84,1.47-1.44v-3.13h-2.01c-1.38,0-2.42.24-3.12.72-.7.48-1.04,1.16-1.04,2.04,0,.72.24,1.29.71,1.71s1.11.64,1.91.64Z"/><path class="cls-27" d="m667.91,652.78h-2.93l8.8-24.27h2.93l-8.79,24.27Z"/><path class="cls-27" d="m695.69,642.26h-4.33v8.6h-3.88v-22.35h7.86c2.58,0,4.57.58,5.97,1.74,1.4,1.16,2.1,2.83,2.1,5.02,0,1.5-.36,2.75-1.08,3.76s-1.73,1.78-3.02,2.33l5.02,9.31v.2h-4.16l-4.48-8.6Zm-4.33-3.13h3.99c1.31,0,2.33-.33,3.07-.99s1.11-1.56,1.11-2.71-.34-2.12-1.02-2.78c-.68-.66-1.7-.99-3.05-1.01h-4.1v7.49Z"/><path class="cls-27" d="m716.66,650.86c-.16-.32-.31-.83-.43-1.55-1.19,1.24-2.64,1.86-4.36,1.86s-3.03-.48-4.08-1.43c-1.05-.95-1.58-2.13-1.58-3.53,0-1.77.66-3.13,1.97-4.08,1.32-.95,3.2-1.42,5.64-1.42h2.29v-1.09c0-.86-.24-1.55-.72-2.06-.48-.52-1.21-.78-2.2-.78-.85,0-1.54.21-2.09.64-.54.42-.81.96-.81,1.62h-3.73c0-.91.3-1.76.91-2.56.6-.79,1.43-1.41,2.46-1.86,1.04-.45,2.2-.68,3.48-.68,1.94,0,3.49.49,4.65,1.47,1.16.98,1.75,2.35,1.78,4.12v7.49c0,1.49.21,2.69.63,3.58v.26h-3.81Zm-4.1-2.69c.74,0,1.43-.18,2.08-.54.65-.36,1.14-.84,1.47-1.44v-3.13h-2.01c-1.38,0-2.42.24-3.12.72-.7.48-1.04,1.16-1.04,2.04,0,.72.24,1.29.71,1.71s1.11.64,1.91.64Z"/><path class="cls-27" d="m730.57,648.19c.93,0,1.7-.27,2.32-.81.61-.54.94-1.21.98-2.01h3.51c-.04,1.03-.36,2-.97,2.89-.6.9-1.42,1.6-2.46,2.13-1.03.52-2.15.78-3.35.78-2.32,0-4.17-.75-5.53-2.26-1.36-1.5-2.04-3.58-2.04-6.23v-.38c0-2.53.67-4.55,2.03-6.07,1.35-1.52,3.19-2.28,5.53-2.28,1.97,0,3.58.58,4.83,1.73s1.9,2.66,1.96,4.54h-3.51c-.04-.95-.37-1.73-.97-2.35-.61-.61-1.38-.92-2.33-.92-1.21,0-2.14.44-2.79,1.31-.66.88-.99,2.2-1,3.98v.6c0,1.8.33,3.14.97,4.03.65.88,1.59,1.33,2.82,1.33Z"/><path class="cls-27" d="m745.59,643.74l-1.66,1.7v5.42h-3.73v-23.58h3.73v13.6l1.17-1.46,4.59-5.17h4.48l-6.17,6.92,6.83,9.69h-4.31l-4.93-7.12Z"/><path class="cls-19" d="m473.06,700.6v8.29h-3.88v-22.35h8.55c2.5,0,4.48.65,5.95,1.95,1.47,1.3,2.2,3.02,2.2,5.16s-.72,3.9-2.16,5.12-3.45,1.83-6.04,1.83h-4.62Zm0-3.13h4.67c1.38,0,2.44-.33,3.16-.97s1.09-1.59,1.09-2.82-.37-2.17-1.11-2.89c-.74-.72-1.75-1.09-3.04-1.11h-4.77v7.8Z"/><path class="cls-19" d="m488.01,700.43c0-1.63.32-3.09.97-4.4s1.55-2.31,2.72-3.01,2.51-1.05,4.02-1.05c2.24,0,4.06.72,5.46,2.16,1.4,1.44,2.15,3.36,2.26,5.74l.02.88c0,1.64-.31,3.1-.94,4.39-.63,1.29-1.53,2.29-2.7,2.99s-2.53,1.06-4.06,1.06c-2.34,0-4.22-.78-5.62-2.34-1.41-1.56-2.11-3.64-2.11-6.24v-.18Zm3.73.32c0,1.71.35,3.05,1.06,4.01s1.69,1.45,2.95,1.45,2.24-.49,2.94-1.47c.7-.98,1.05-2.42,1.05-4.31,0-1.68-.36-3.01-1.08-3.99s-1.7-1.47-2.94-1.47-2.18.48-2.9,1.45c-.72.97-1.07,2.41-1.07,4.34Z"/><path class="cls-19" d="m521.2,703.75l2.64-11.47h3.64l-4.53,16.61h-3.07l-3.56-11.4-3.5,11.4h-3.07l-4.54-16.61h3.64l2.69,11.34,3.41-11.34h2.81l3.45,11.47Z"/><path class="cls-19" d="m537.29,709.19c-2.36,0-4.28-.74-5.75-2.23-1.47-1.49-2.2-3.47-2.2-5.95v-.46c0-1.66.32-3.14.96-4.44s1.54-2.32,2.69-3.05,2.45-1.09,3.87-1.09c2.26,0,4.01.72,5.24,2.16,1.23,1.44,1.85,3.48,1.85,6.12v1.5h-10.85c.11,1.37.57,2.46,1.37,3.25s1.81,1.2,3.03,1.2c1.71,0,3.1-.69,4.18-2.07l2.01,1.92c-.67.99-1.55,1.76-2.66,2.31-1.11.55-2.36.82-3.74.82Zm-.44-14.23c-1.02,0-1.85.36-2.48,1.07-.63.72-1.03,1.71-1.21,2.99h7.11v-.28c-.08-1.25-.42-2.19-1-2.83-.58-.64-1.39-.96-2.42-.96Z"/><path class="cls-19" d="m555.54,695.69c-.49-.08-1-.12-1.52-.12-1.71,0-2.86.66-3.45,1.96v11.36h-3.73v-16.61h3.56l.09,1.86c.9-1.44,2.15-2.16,3.75-2.16.53,0,.97.07,1.32.21l-.02,3.5Z"/><path class="cls-19" d="m566.08,708.89v-22.35h7.66c2.53,0,4.45.51,5.77,1.52,1.32,1.01,1.98,2.52,1.98,4.53,0,1.02-.28,1.94-.83,2.76s-1.36,1.45-2.42,1.9c1.21.33,2.14.94,2.8,1.85s.99,1.99.99,3.26c0,2.1-.67,3.71-2.02,4.83s-3.27,1.69-5.78,1.69h-8.15Zm3.88-12.94h3.81c1.21,0,2.15-.27,2.83-.82.68-.55,1.02-1.32,1.02-2.33,0-1.11-.31-1.9-.94-2.39-.63-.49-1.61-.74-2.94-.74h-3.78v6.28Zm0,2.85v6.98h4.31c1.22,0,2.17-.3,2.85-.91s1.03-1.44,1.03-2.52c0-2.32-1.19-3.51-3.56-3.56h-4.64Z"/><path class="cls-19" d="m585.56,687.97c0-.57.18-1.05.54-1.43s.88-.57,1.56-.57,1.2.19,1.57.57.55.85.55,1.43-.18,1.03-.55,1.4c-.37.37-.89.56-1.57.56s-1.19-.19-1.56-.56c-.36-.37-.54-.84-.54-1.4Zm3.96,20.92h-3.73v-16.61h3.73v16.61Z"/><path class="cls-19" d="m597.55,708.89h-3.73v-23.58h3.73v23.58Z"/><path class="cls-19" d="m605.58,708.89h-3.73v-23.58h3.73v23.58Z"/><path class="cls-19" d="m609.64,687.97c0-.57.18-1.05.54-1.43s.88-.57,1.56-.57,1.2.19,1.57.57.55.85.55,1.43-.18,1.03-.55,1.4c-.37.37-.89.56-1.57.56s-1.19-.19-1.56-.56c-.36-.37-.54-.84-.54-1.4Zm3.96,20.92h-3.73v-16.61h3.73v16.61Z"/><path class="cls-19" d="m621.12,692.28l.11,1.92c1.23-1.48,2.84-2.23,4.83-2.23,3.46,0,5.22,1.98,5.28,5.94v10.97h-3.73v-10.76c0-1.05-.23-1.83-.68-2.34-.46-.51-1.2-.76-2.23-.76-1.5,0-2.62.68-3.36,2.04v11.82h-3.73v-16.61h3.51Z"/><path class="cls-19" d="m634.49,700.46c0-2.58.61-4.64,1.82-6.18,1.21-1.54,2.82-2.31,4.83-2.31,1.89,0,3.38.66,4.47,1.98l.17-1.67h3.36v16.1c0,2.18-.68,3.9-2.03,5.16-1.36,1.26-3.18,1.89-5.49,1.89-1.22,0-2.41-.25-3.57-.76-1.16-.51-2.04-1.17-2.65-1.99l1.77-2.24c1.15,1.36,2.56,2.04,4.24,2.04,1.24,0,2.21-.33,2.93-1.01.72-.67,1.07-1.66,1.07-2.95v-1.12c-1.07,1.2-2.51,1.8-4.3,1.8-1.94,0-3.53-.77-4.77-2.32-1.23-1.54-1.85-3.68-1.85-6.42Zm3.71.32c0,1.67.34,2.98,1.02,3.94s1.62,1.43,2.83,1.43c1.5,0,2.62-.64,3.35-1.93v-7.31c-.71-1.26-1.81-1.89-3.32-1.89-1.23,0-2.18.49-2.86,1.46-.68.97-1.02,2.41-1.02,4.3Z"/><path class="cls-19" d="m666.19,686.54l6.45,17.13,6.43-17.13h5.02v22.35h-3.87v-7.37l.38-9.85-6.6,17.22h-2.78l-6.58-17.21.38,9.84v7.37h-3.87v-22.35h5.04Z"/><path class="cls-19" d="m687.62,700.43c0-1.63.32-3.09.97-4.4s1.55-2.31,2.72-3.01,2.51-1.05,4.02-1.05c2.24,0,4.06.72,5.46,2.16,1.4,1.44,2.15,3.36,2.26,5.74l.02.88c0,1.64-.31,3.1-.94,4.39-.63,1.29-1.53,2.29-2.7,2.99s-2.53,1.06-4.06,1.06c-2.34,0-4.22-.78-5.62-2.34-1.41-1.56-2.11-3.64-2.11-6.24v-.18Zm3.73.32c0,1.71.35,3.05,1.06,4.01s1.69,1.45,2.95,1.45,2.24-.49,2.94-1.47c.7-.98,1.05-2.42,1.05-4.31,0-1.68-.36-3.01-1.08-3.99s-1.7-1.47-2.94-1.47-2.18.48-2.9,1.45c-.72.97-1.07,2.41-1.07,4.34Z"/><path class="cls-19" d="m705.52,700.46c0-2.56.59-4.61,1.78-6.16,1.19-1.55,2.78-2.33,4.77-2.33,1.76,0,3.18.61,4.27,1.84v-8.5h3.73v23.58h-3.38l-.18-1.72c-1.12,1.35-2.6,2.03-4.47,2.03s-3.52-.78-4.72-2.35c-1.2-1.57-1.8-3.69-1.8-6.39Zm3.73.32c0,1.69.33,3.01.97,3.95.65.95,1.57,1.42,2.77,1.42,1.52,0,2.64-.68,3.35-2.04v-7.09c-.69-1.33-1.79-2-3.32-2-1.21,0-2.14.48-2.79,1.43-.66.96-.98,2.4-.98,4.32Z"/><path class="cls-19" d="m731.27,709.19c-2.36,0-4.28-.74-5.75-2.23-1.47-1.49-2.2-3.47-2.2-5.95v-.46c0-1.66.32-3.14.96-4.44s1.54-2.32,2.69-3.05,2.45-1.09,3.87-1.09c2.26,0,4.01.72,5.24,2.16,1.23,1.44,1.85,3.48,1.85,6.12v1.5h-10.85c.11,1.37.57,2.46,1.37,3.25s1.81,1.2,3.03,1.2c1.71,0,3.1-.69,4.18-2.07l2.01,1.92c-.67.99-1.55,1.76-2.66,2.31-1.11.55-2.36.82-3.74.82Zm-.44-14.23c-1.02,0-1.85.36-2.48,1.07-.63.72-1.03,1.71-1.21,2.99h7.11v-.28c-.08-1.25-.42-2.19-1-2.83-.58-.64-1.39-.96-2.42-.96Z"/><path class="cls-19" d="m750.9,691.93c.7,0,1.23.2,1.61.59.38.39.57.89.57,1.48s-.19,1.07-.57,1.45c-.38.38-.92.58-1.61.58s-1.19-.19-1.58-.57c-.39-.38-.58-.86-.58-1.46s.19-1.09.57-1.48c.38-.39.91-.59,1.6-.59Zm0,13.03c.7,0,1.23.2,1.61.59.38.39.57.89.57,1.48s-.19,1.07-.57,1.45c-.38.38-.92.58-1.61.58s-1.19-.19-1.58-.57c-.39-.38-.58-.86-.58-1.46s.19-1.09.57-1.48c.38-.39.91-.59,1.6-.59Z"/><path class="cls-27" d="m765.1,708.89v-22.35h7.66c2.53,0,4.45.51,5.77,1.52,1.32,1.01,1.98,2.52,1.98,4.53,0,1.02-.28,1.94-.83,2.76s-1.36,1.45-2.42,1.9c1.21.33,2.14.94,2.8,1.85s.99,1.99.99,3.26c0,2.1-.67,3.71-2.02,4.83s-3.27,1.69-5.78,1.69h-8.15Zm3.88-12.94h3.81c1.21,0,2.15-.27,2.83-.82.68-.55,1.02-1.32,1.02-2.33,0-1.11-.31-1.9-.94-2.39-.63-.49-1.61-.74-2.94-.74h-3.78v6.28Zm0,2.85v6.98h4.31c1.22,0,2.17-.3,2.85-.91s1.03-1.44,1.03-2.52c0-2.32-1.19-3.51-3.56-3.56h-4.64Z"/><path class="cls-27" d="m794.63,707.26c-1.09,1.29-2.65,1.93-4.67,1.93-1.8,0-3.17-.53-4.09-1.58-.93-1.05-1.39-2.58-1.39-4.57v-10.76h3.73v10.71c0,2.11.88,3.16,2.62,3.16s3.03-.65,3.67-1.95v-11.93h3.73v16.61h-3.52l-.09-1.63Z"/><path class="cls-27" d="m805.5,692.28l.11,1.92c1.23-1.48,2.84-2.23,4.83-2.23,3.46,0,5.22,1.98,5.28,5.94v10.97h-3.73v-10.76c0-1.05-.23-1.83-.68-2.34-.46-.51-1.2-.76-2.23-.76-1.5,0-2.62.68-3.36,2.04v11.82h-3.73v-16.61h3.51Z"/><path class="cls-27" d="m818.83,700.46c0-2.56.59-4.61,1.78-6.16,1.19-1.55,2.78-2.33,4.77-2.33,1.76,0,3.18.61,4.27,1.84v-8.5h3.73v23.58h-3.38l-.18-1.72c-1.12,1.35-2.6,2.03-4.47,2.03s-3.52-.78-4.72-2.35c-1.2-1.57-1.8-3.69-1.8-6.39Zm3.73.32c0,1.69.33,3.01.97,3.95.65.95,1.57,1.42,2.77,1.42,1.52,0,2.64-.68,3.35-2.04v-7.09c-.69-1.33-1.79-2-3.32-2-1.21,0-2.14.48-2.79,1.43-.66.96-.98,2.4-.98,4.32Z"/><path class="cls-27" d="m841.23,708.89h-3.73v-23.58h3.73v23.58Z"/><path class="cls-27" d="m852.61,709.19c-2.36,0-4.28-.74-5.75-2.23-1.47-1.49-2.2-3.47-2.2-5.95v-.46c0-1.66.32-3.14.96-4.44s1.54-2.32,2.69-3.05,2.45-1.09,3.87-1.09c2.26,0,4.01.72,5.24,2.16,1.23,1.44,1.85,3.48,1.85,6.12v1.5h-10.85c.11,1.37.57,2.46,1.37,3.25s1.81,1.2,3.03,1.2c1.71,0,3.1-.69,4.18-2.07l2.01,1.92c-.67.99-1.55,1.76-2.66,2.31-1.11.55-2.36.82-3.74.82Zm-.44-14.23c-1.02,0-1.85.36-2.48,1.07-.63.72-1.03,1.71-1.21,2.99h7.11v-.28c-.08-1.25-.42-2.19-1-2.83-.58-.64-1.39-.96-2.42-.96Z"/><path class="cls-27" d="m861.47,700.46c0-2.56.59-4.61,1.78-6.16,1.19-1.55,2.78-2.33,4.77-2.33,1.76,0,3.18.61,4.27,1.84v-8.5h3.73v23.58h-3.38l-.18-1.72c-1.12,1.35-2.6,2.03-4.47,2.03s-3.52-.78-4.72-2.35c-1.2-1.57-1.8-3.69-1.8-6.39Zm3.73.32c0,1.69.33,3.01.97,3.95.65.95,1.57,1.42,2.77,1.42,1.52,0,2.64-.68,3.35-2.04v-7.09c-.69-1.33-1.79-2-3.32-2-1.21,0-2.14.48-2.79,1.43-.66.96-.98,2.4-.98,4.32Z"/><path class="cls-12" d="m486.23,759.64c-.23,2.38-1.11,4.24-2.64,5.58-1.54,1.34-3.58,2-6.12,2-1.78,0-3.35-.42-4.71-1.27-1.36-.84-2.4-2.04-3.14-3.6-.74-1.56-1.12-3.36-1.15-5.42v-2.09c0-2.11.37-3.97,1.12-5.57.75-1.61,1.82-2.84,3.21-3.71,1.4-.87,3.01-1.3,4.84-1.3,2.47,0,4.45.67,5.96,2,1.5,1.33,2.38,3.23,2.62,5.67h-3.87c-.18-1.61-.65-2.76-1.4-3.48-.75-.71-1.86-1.07-3.31-1.07-1.69,0-2.99.62-3.89,1.85s-1.37,3.04-1.39,5.43v1.98c0,2.42.43,4.26,1.3,5.53.86,1.27,2.13,1.91,3.8,1.91,1.52,0,2.67-.34,3.44-1.03s1.25-1.83,1.46-3.42h3.87Z"/><path class="cls-12" d="m498.04,753.72c-.49-.08-1-.12-1.52-.12-1.71,0-2.86.66-3.45,1.96v11.36h-3.73v-16.61h3.56l.09,1.86c.9-1.44,2.15-2.16,3.75-2.16.53,0,.97.07,1.32.21l-.02,3.5Z"/><path class="cls-12" d="m499.14,758.46c0-1.63.32-3.09.97-4.4s1.55-2.31,2.72-3.01,2.51-1.05,4.02-1.05c2.24,0,4.06.72,5.46,2.16,1.4,1.44,2.15,3.36,2.26,5.74l.02.88c0,1.64-.31,3.1-.94,4.39-.63,1.29-1.53,2.29-2.7,2.99s-2.53,1.06-4.06,1.06c-2.34,0-4.22-.78-5.62-2.34-1.41-1.56-2.11-3.64-2.11-6.24v-.18Zm3.73.32c0,1.71.35,3.05,1.06,4.01s1.69,1.45,2.95,1.45,2.24-.49,2.94-1.47c.7-.98,1.05-2.42,1.05-4.31,0-1.68-.36-3.01-1.08-3.99s-1.7-1.47-2.94-1.47-2.18.48-2.9,1.45c-.72.97-1.07,2.41-1.07,4.34Z"/><path class="cls-12" d="m527.05,762.4c0-.67-.27-1.17-.82-1.52-.55-.35-1.46-.66-2.72-.92-1.27-.27-2.33-.6-3.18-1.01-1.86-.9-2.79-2.2-2.79-3.91,0-1.43.6-2.63,1.81-3.59,1.21-.96,2.74-1.44,4.61-1.44,1.98,0,3.59.49,4.81,1.47s1.83,2.26,1.83,3.82h-3.73c0-.72-.27-1.31-.8-1.79-.53-.48-1.24-.71-2.12-.71-.82,0-1.49.19-2,.57-.52.38-.78.89-.78,1.52,0,.57.24,1.02.72,1.34.48.32,1.45.64,2.92.96,1.46.32,2.61.71,3.45,1.15.83.45,1.45.98,1.86,1.6.4.62.61,1.38.61,2.27,0,1.49-.62,2.7-1.86,3.63s-2.86,1.39-4.87,1.39c-1.36,0-2.57-.25-3.64-.74-1.06-.49-1.89-1.17-2.49-2.03-.59-.86-.89-1.79-.89-2.78h3.62c.05.88.38,1.56,1,2.03s1.43.71,2.44.71,1.73-.19,2.24-.56c.51-.37.77-.86.77-1.47Z"/><path class="cls-12" d="m543.27,762.4c0-.67-.27-1.17-.82-1.52-.55-.35-1.46-.66-2.72-.92-1.27-.27-2.33-.6-3.18-1.01-1.86-.9-2.79-2.2-2.79-3.91,0-1.43.6-2.63,1.81-3.59,1.21-.96,2.74-1.44,4.61-1.44,1.98,0,3.59.49,4.81,1.47s1.83,2.26,1.83,3.82h-3.73c0-.72-.27-1.31-.8-1.79-.53-.48-1.24-.71-2.12-.71-.82,0-1.49.19-2,.57-.52.38-.78.89-.78,1.52,0,.57.24,1.02.72,1.34.48.32,1.45.64,2.92.96,1.46.32,2.61.71,3.45,1.15.83.45,1.45.98,1.86,1.6.4.62.61,1.38.61,2.27,0,1.49-.62,2.7-1.86,3.63s-2.86,1.39-4.87,1.39c-1.36,0-2.57-.25-3.64-.74-1.06-.49-1.89-1.17-2.49-2.03-.59-.86-.89-1.79-.89-2.78h3.62c.05.88.38,1.56,1,2.03s1.43.71,2.44.71,1.73-.19,2.24-.56c.51-.37.77-.86.77-1.47Z"/><path class="cls-12" d="m575.43,759.64c-.23,2.38-1.11,4.24-2.64,5.58-1.54,1.34-3.58,2-6.12,2-1.78,0-3.35-.42-4.71-1.27-1.36-.84-2.4-2.04-3.14-3.6-.74-1.56-1.12-3.36-1.15-5.42v-2.09c0-2.11.37-3.97,1.12-5.57.75-1.61,1.82-2.84,3.21-3.71,1.4-.87,3.01-1.3,4.84-1.3,2.47,0,4.45.67,5.96,2,1.5,1.33,2.38,3.23,2.62,5.67h-3.87c-.18-1.61-.65-2.76-1.4-3.48-.75-.71-1.86-1.07-3.31-1.07-1.69,0-2.99.62-3.89,1.85s-1.37,3.04-1.39,5.43v1.98c0,2.42.43,4.26,1.3,5.53.86,1.27,2.13,1.91,3.8,1.91,1.52,0,2.67-.34,3.44-1.03s1.25-1.83,1.46-3.42h3.87Z"/><path class="cls-12" d="m577.84,758.46c0-1.63.32-3.09.97-4.4s1.55-2.31,2.72-3.01,2.51-1.05,4.02-1.05c2.24,0,4.06.72,5.46,2.16,1.4,1.44,2.15,3.36,2.26,5.74l.02.88c0,1.64-.31,3.1-.94,4.39-.63,1.29-1.53,2.29-2.7,2.99s-2.53,1.06-4.06,1.06c-2.34,0-4.22-.78-5.62-2.34-1.41-1.56-2.11-3.64-2.11-6.24v-.18Zm3.73.32c0,1.71.35,3.05,1.06,4.01s1.69,1.45,2.95,1.45,2.24-.49,2.94-1.47c.7-.98,1.05-2.42,1.05-4.31,0-1.68-.36-3.01-1.08-3.99s-1.7-1.47-2.94-1.47-2.18.48-2.9,1.45c-.72.97-1.07,2.41-1.07,4.34Z"/><path class="cls-12" d="m599.9,750.31l.11,1.92c1.23-1.48,2.84-2.23,4.83-2.23,3.46,0,5.22,1.98,5.28,5.94v10.97h-3.73v-10.76c0-1.05-.23-1.83-.68-2.34-.46-.51-1.2-.76-2.23-.76-1.5,0-2.62.68-3.36,2.04v11.82h-3.73v-16.61h3.51Z"/><path class="cls-12" d="m617.38,750.31l.11,1.92c1.23-1.48,2.84-2.23,4.83-2.23,3.46,0,5.22,1.98,5.28,5.94v10.97h-3.73v-10.76c0-1.05-.23-1.83-.68-2.34-.46-.51-1.2-.76-2.23-.76-1.5,0-2.62.68-3.36,2.04v11.82h-3.73v-16.61h3.51Z"/><path class="cls-12" d="m638.71,767.22c-2.36,0-4.28-.74-5.75-2.23-1.47-1.49-2.2-3.47-2.2-5.95v-.46c0-1.66.32-3.14.96-4.44s1.54-2.32,2.69-3.05,2.45-1.09,3.87-1.09c2.26,0,4.01.72,5.24,2.16,1.23,1.44,1.85,3.48,1.85,6.12v1.5h-10.85c.11,1.37.57,2.46,1.37,3.25s1.81,1.2,3.03,1.2c1.71,0,3.1-.69,4.18-2.07l2.01,1.92c-.67.99-1.55,1.76-2.66,2.31-1.11.55-2.36.82-3.74.82Zm-.44-14.23c-1.02,0-1.85.36-2.48,1.07-.63.72-1.03,1.71-1.21,2.99h7.11v-.28c-.08-1.25-.42-2.19-1-2.83-.58-.64-1.39-.96-2.42-.96Z"/><path class="cls-12" d="m655.09,764.25c.93,0,1.7-.27,2.32-.81.61-.54.94-1.21.98-2.01h3.51c-.04,1.03-.36,2-.97,2.89-.6.9-1.42,1.6-2.46,2.13-1.03.52-2.15.78-3.35.78-2.32,0-4.17-.75-5.53-2.26-1.36-1.5-2.04-3.58-2.04-6.23v-.38c0-2.53.67-4.55,2.03-6.07,1.35-1.52,3.19-2.28,5.53-2.28,1.97,0,3.58.58,4.83,1.73s1.9,2.66,1.96,4.54h-3.51c-.04-.95-.37-1.73-.97-2.35-.61-.61-1.38-.92-2.33-.92-1.21,0-2.14.44-2.79,1.31-.66.88-.99,2.2-1,3.98v.6c0,1.8.33,3.14.97,4.03.65.88,1.59,1.33,2.82,1.33Z"/><path class="cls-12" d="m669.4,746.27v4.04h2.93v2.76h-2.93v9.27c0,.63.12,1.09.38,1.37s.7.42,1.34.42c.43,0,.87-.05,1.3-.15v2.89c-.85.24-1.67.35-2.46.35-2.87,0-4.3-1.58-4.3-4.74v-9.41h-2.73v-2.76h2.73v-4.04h3.73Z"/><path class="cls-12" d="m684.49,762.4c0-.67-.27-1.17-.82-1.52-.55-.35-1.46-.66-2.72-.92-1.27-.27-2.33-.6-3.18-1.01-1.86-.9-2.79-2.2-2.79-3.91,0-1.43.6-2.63,1.81-3.59,1.21-.96,2.74-1.44,4.61-1.44,1.98,0,3.59.49,4.81,1.47s1.83,2.26,1.83,3.82h-3.73c0-.72-.27-1.31-.8-1.79-.53-.48-1.24-.71-2.12-.71-.82,0-1.49.19-2,.57-.52.38-.78.89-.78,1.52,0,.57.24,1.02.72,1.34.48.32,1.45.64,2.92.96,1.46.32,2.61.71,3.45,1.15.83.45,1.45.98,1.86,1.6.4.62.61,1.38.61,2.27,0,1.49-.62,2.7-1.86,3.63s-2.86,1.39-4.87,1.39c-1.36,0-2.57-.25-3.64-.74-1.06-.49-1.89-1.17-2.49-2.03-.59-.86-.89-1.79-.89-2.78h3.62c.05.88.38,1.56,1,2.03s1.43.71,2.44.71,1.73-.19,2.24-.56c.51-.37.77-.86.77-1.47Z"/><path class="cls-12" d="m701.48,749.96c.7,0,1.23.2,1.61.59.38.39.57.89.57,1.48s-.19,1.07-.57,1.45c-.38.38-.92.58-1.61.58s-1.19-.19-1.58-.57c-.39-.38-.58-.86-.58-1.46s.19-1.09.57-1.48c.38-.39.91-.59,1.6-.59Zm0,13.03c.7,0,1.23.2,1.61.59.38.39.57.89.57,1.48s-.19,1.07-.57,1.45c-.38.38-.92.58-1.61.58s-1.19-.19-1.58-.57c-.39-.38-.58-.86-.58-1.46s.19-1.09.57-1.48c.38-.39.91-.59,1.6-.59Z"/><path class="cls-27" d="m730.18,766.92h-15.03v-2.56l7.44-8.12c1.08-1.2,1.84-2.2,2.29-3,.46-.8.68-1.61.68-2.42,0-1.06-.3-1.92-.9-2.58-.6-.65-1.4-.98-2.42-.98-1.21,0-2.14.37-2.81,1.1-.67.74-1,1.75-1,3.02h-3.73c0-1.36.31-2.59.93-3.68s1.5-1.94,2.66-2.54,2.48-.91,3.98-.91c2.17,0,3.88.54,5.13,1.63,1.25,1.09,1.88,2.6,1.88,4.52,0,1.12-.31,2.29-.94,3.51-.63,1.22-1.66,2.61-3.09,4.17l-5.46,5.85h10.38v2.98Z"/><path class="cls-19" d="m473.28,824.95h-3.87v-22.35h3.87v22.35Z"/><path class="cls-19" d="m481.94,816.66v8.29h-3.88v-22.35h8.55c2.5,0,4.48.65,5.95,1.95,1.47,1.3,2.2,3.02,2.2,5.16s-.72,3.9-2.16,5.12-3.45,1.83-6.04,1.83h-4.62Zm0-3.13h4.67c1.38,0,2.44-.33,3.16-.97s1.09-1.59,1.09-2.82-.37-2.17-1.11-2.89c-.74-.72-1.75-1.09-3.04-1.11h-4.77v7.8Z"/><path class="cls-19" d="m509.86,816.66v8.29h-3.88v-22.35h8.55c2.5,0,4.48.65,5.95,1.95,1.47,1.3,2.2,3.02,2.2,5.16s-.72,3.9-2.16,5.12-3.45,1.83-6.04,1.83h-4.62Zm0-3.13h4.67c1.38,0,2.44-.33,3.16-.97s1.09-1.59,1.09-2.82-.37-2.17-1.11-2.89c-.74-.72-1.75-1.09-3.04-1.11h-4.77v7.8Z"/><path class="cls-19" d="m524.81,816.49c0-1.63.32-3.09.97-4.4s1.55-2.31,2.72-3.01,2.51-1.05,4.02-1.05c2.24,0,4.06.72,5.46,2.16,1.4,1.44,2.15,3.36,2.26,5.74l.02.88c0,1.64-.31,3.1-.94,4.39-.63,1.29-1.53,2.29-2.7,2.99s-2.53,1.06-4.06,1.06c-2.34,0-4.22-.78-5.62-2.34-1.41-1.56-2.11-3.64-2.11-6.24v-.18Zm3.73.32c0,1.71.35,3.05,1.06,4.01s1.69,1.45,2.95,1.45,2.24-.49,2.94-1.47c.7-.98,1.05-2.42,1.05-4.31,0-1.68-.36-3.01-1.08-3.99s-1.7-1.47-2.94-1.47-2.18.48-2.9,1.45c-.72.97-1.07,2.41-1.07,4.34Z"/><path class="cls-19" d="m542.71,816.49c0-1.63.32-3.09.97-4.4s1.55-2.31,2.72-3.01,2.51-1.05,4.02-1.05c2.24,0,4.06.72,5.46,2.16,1.4,1.44,2.15,3.36,2.26,5.74l.02.88c0,1.64-.31,3.1-.94,4.39-.63,1.29-1.53,2.29-2.7,2.99s-2.53,1.06-4.06,1.06c-2.34,0-4.22-.78-5.62-2.34-1.41-1.56-2.11-3.64-2.11-6.24v-.18Zm3.73.32c0,1.71.35,3.05,1.06,4.01s1.69,1.45,2.95,1.45,2.24-.49,2.94-1.47c.7-.98,1.05-2.42,1.05-4.31,0-1.68-.36-3.01-1.08-3.99s-1.7-1.47-2.94-1.47-2.18.48-2.9,1.45c-.72.97-1.07,2.41-1.07,4.34Z"/><path class="cls-19" d="m565.27,824.95h-3.73v-23.58h3.73v23.58Z"/><path class="cls-19" d="m579.41,807.99c.7,0,1.23.2,1.61.59.38.39.57.89.57,1.48s-.19,1.07-.57,1.45c-.38.38-.92.58-1.61.58s-1.19-.19-1.58-.57c-.39-.38-.58-.86-.58-1.46s.19-1.09.57-1.48c.38-.39.91-.59,1.6-.59Zm0,13.03c.7,0,1.23.2,1.61.59.38.39.57.89.57,1.48s-.19,1.07-.57,1.45c-.38.38-.92.58-1.61.58s-1.19-.19-1.58-.57c-.39-.38-.58-.86-.58-1.46s.19-1.09.57-1.48c.38-.39.91-.59,1.6-.59Z"/><path class="cls-27" d="m594.29,826.87h-2.93l8.8-24.27h2.93l-8.79,24.27Z"/><path class="cls-27" d="m620.46,824.95h-15.03v-2.56l7.44-8.12c1.08-1.2,1.84-2.2,2.29-3,.46-.8.68-1.61.68-2.42,0-1.06-.3-1.92-.9-2.58-.6-.65-1.4-.98-2.42-.98-1.21,0-2.14.37-2.81,1.1-.67.74-1,1.75-1,3.02h-3.73c0-1.36.31-2.59.93-3.68s1.5-1.94,2.66-2.54,2.48-.91,3.98-.91c2.17,0,3.88.54,5.13,1.63,1.25,1.09,1.88,2.6,1.88,4.52,0,1.12-.31,2.29-.94,3.51-.63,1.22-1.66,2.61-3.09,4.17l-5.46,5.85h10.38v2.98Z"/><path class="cls-27" d="m633.88,815.6c-1.25,1.32-2.71,1.98-4.38,1.98-1.96,0-3.53-.69-4.7-2.06-1.17-1.38-1.75-3.18-1.75-5.43,0-1.47.3-2.81.89-4.01.59-1.2,1.44-2.13,2.53-2.79,1.09-.67,2.36-1,3.81-1,2.25,0,4.04.84,5.36,2.52,1.32,1.68,1.98,3.92,1.98,6.74v1.04c0,4.03-.91,7.11-2.73,9.23s-4.54,3.19-8.15,3.22h-.45v-3.08h.54c2.2-.03,3.89-.56,5.07-1.59s1.84-2.62,1.98-4.77Zm-3.59-.94c.75,0,1.45-.21,2.1-.64s1.16-1.02,1.52-1.78v-1.46c0-1.65-.34-2.97-1.01-3.97-.68-1-1.55-1.5-2.62-1.5s-1.93.44-2.57,1.33-.96,2-.96,3.35.32,2.53.97,3.39,1.5,1.29,2.58,1.29Z"/><path class="cls-12" d="m473.28,882.98h-3.87v-22.35h3.87v22.35Z"/><path class="cls-12" d="m481.15,866.37l.11,1.92c1.23-1.48,2.84-2.23,4.83-2.23,3.46,0,5.22,1.98,5.28,5.94v10.97h-3.73v-10.76c0-1.05-.23-1.83-.68-2.34-.46-.51-1.2-.76-2.23-.76-1.5,0-2.62.68-3.36,2.04v11.82h-3.73v-16.61h3.51Z"/><path class="cls-12" d="m499.85,862.33v4.04h2.93v2.76h-2.93v9.27c0,.63.12,1.09.38,1.37s.7.42,1.34.42c.43,0,.87-.05,1.3-.15v2.89c-.85.24-1.67.35-2.46.35-2.87,0-4.3-1.58-4.3-4.74v-9.41h-2.73v-2.76h2.73v-4.04h3.73Z"/><path class="cls-12" d="m512.94,883.28c-2.36,0-4.28-.74-5.75-2.23-1.47-1.49-2.2-3.47-2.2-5.95v-.46c0-1.66.32-3.14.96-4.44s1.54-2.32,2.69-3.05,2.45-1.09,3.87-1.09c2.26,0,4.01.72,5.24,2.16,1.23,1.44,1.85,3.48,1.85,6.12v1.5h-10.85c.11,1.37.57,2.46,1.37,3.25s1.81,1.2,3.03,1.2c1.71,0,3.1-.69,4.18-2.07l2.01,1.92c-.67.99-1.55,1.76-2.66,2.31-1.11.55-2.36.82-3.74.82Zm-.44-14.23c-1.02,0-1.85.36-2.48,1.07-.63.72-1.03,1.71-1.21,2.99h7.11v-.28c-.08-1.25-.42-2.19-1-2.83-.58-.64-1.39-.96-2.42-.96Z"/><path class="cls-12" d="m531.19,869.78c-.49-.08-1-.12-1.52-.12-1.71,0-2.86.66-3.45,1.96v11.36h-3.73v-16.61h3.56l.09,1.86c.9-1.44,2.15-2.16,3.75-2.16.53,0,.97.07,1.32.21l-.02,3.5Z"/><path class="cls-12" d="m537.01,866.37l.11,1.92c1.23-1.48,2.84-2.23,4.83-2.23,3.46,0,5.22,1.98,5.28,5.94v10.97h-3.73v-10.76c0-1.05-.23-1.83-.68-2.34-.46-.51-1.2-.76-2.23-.76-1.5,0-2.62.68-3.36,2.04v11.82h-3.73v-16.61h3.51Z"/><path class="cls-12" d="m558.34,883.28c-2.36,0-4.28-.74-5.75-2.23-1.47-1.49-2.2-3.47-2.2-5.95v-.46c0-1.66.32-3.14.96-4.44s1.54-2.32,2.69-3.05,2.45-1.09,3.87-1.09c2.26,0,4.01.72,5.24,2.16,1.23,1.44,1.85,3.48,1.85,6.12v1.5h-10.85c.11,1.37.57,2.46,1.37,3.25s1.81,1.2,3.03,1.2c1.71,0,3.1-.69,4.18-2.07l2.01,1.92c-.67.99-1.55,1.76-2.66,2.31-1.11.55-2.36.82-3.74.82Zm-.44-14.23c-1.02,0-1.85.36-2.48,1.07-.63.72-1.03,1.71-1.21,2.99h7.11v-.28c-.08-1.25-.42-2.19-1-2.83-.58-.64-1.39-.96-2.42-.96Z"/><path class="cls-12" d="m572.57,862.33v4.04h2.93v2.76h-2.93v9.27c0,.63.12,1.09.38,1.37s.7.42,1.34.42c.43,0,.87-.05,1.3-.15v2.89c-.85.24-1.67.35-2.46.35-2.87,0-4.3-1.58-4.3-4.74v-9.41h-2.73v-2.76h2.73v-4.04h3.73Z"/><path class="cls-12" d="m586.54,882.98v-22.35h7.66c2.53,0,4.45.51,5.77,1.52,1.32,1.01,1.98,2.52,1.98,4.53,0,1.02-.28,1.94-.83,2.76s-1.36,1.45-2.42,1.9c1.21.33,2.14.94,2.8,1.85s.99,1.99.99,3.26c0,2.1-.67,3.71-2.02,4.83s-3.27,1.69-5.78,1.69h-8.15Zm3.88-12.94h3.81c1.21,0,2.15-.27,2.83-.82.68-.55,1.02-1.32,1.02-2.33,0-1.11-.31-1.9-.94-2.39-.63-.49-1.61-.74-2.94-.74h-3.78v6.28Zm0,2.85v6.98h4.31c1.22,0,2.17-.3,2.85-.91s1.03-1.44,1.03-2.52c0-2.32-1.19-3.51-3.56-3.56h-4.64Z"/><path class="cls-12" d="m615.94,882.98c-.16-.32-.31-.83-.43-1.55-1.19,1.24-2.64,1.86-4.36,1.86s-3.03-.48-4.08-1.43c-1.05-.95-1.58-2.13-1.58-3.53,0-1.77.66-3.13,1.97-4.08,1.32-.95,3.2-1.42,5.64-1.42h2.29v-1.09c0-.86-.24-1.55-.72-2.06-.48-.52-1.21-.78-2.2-.78-.85,0-1.54.21-2.09.64-.54.42-.81.96-.81,1.62h-3.73c0-.91.3-1.76.91-2.56.6-.79,1.43-1.41,2.46-1.86,1.04-.45,2.2-.68,3.48-.68,1.94,0,3.49.49,4.65,1.47,1.16.98,1.75,2.35,1.78,4.12v7.49c0,1.49.21,2.69.63,3.58v.26h-3.81Zm-4.1-2.69c.74,0,1.43-.18,2.08-.54.65-.36,1.14-.84,1.47-1.44v-3.13h-2.01c-1.38,0-2.42.24-3.12.72-.7.48-1.04,1.16-1.04,2.04,0,.72.24,1.29.71,1.71s1.11.64,1.91.64Z"/><path class="cls-12" d="m626.48,866.37l.11,1.92c1.23-1.48,2.84-2.23,4.83-2.23,3.46,0,5.22,1.98,5.28,5.94v10.97h-3.73v-10.76c0-1.05-.23-1.83-.68-2.34-.46-.51-1.2-.76-2.23-.76-1.5,0-2.62.68-3.36,2.04v11.82h-3.73v-16.61h3.51Z"/><path class="cls-12" d="m639.8,874.55c0-2.56.59-4.61,1.78-6.16,1.19-1.55,2.78-2.33,4.77-2.33,1.76,0,3.18.61,4.27,1.84v-8.5h3.73v23.58h-3.38l-.18-1.72c-1.12,1.35-2.6,2.03-4.47,2.03s-3.52-.78-4.72-2.35c-1.2-1.57-1.8-3.69-1.8-6.39Zm3.73.32c0,1.69.33,3.01.97,3.95.65.95,1.57,1.42,2.77,1.42,1.52,0,2.64-.68,3.35-2.04v-7.09c-.69-1.33-1.79-2-3.32-2-1.21,0-2.14.48-2.79,1.43-.66.96-.98,2.4-.98,4.32Z"/><path class="cls-12" d="m672.84,877.83l2.64-11.47h3.64l-4.53,16.61h-3.07l-3.56-11.4-3.5,11.4h-3.07l-4.54-16.61h3.64l2.69,11.34,3.41-11.34h2.81l3.45,11.47Z"/><path class="cls-12" d="m681.62,862.05c0-.57.18-1.05.54-1.43s.88-.57,1.56-.57,1.2.19,1.57.57.55.85.55,1.43-.18,1.03-.55,1.4c-.37.37-.89.56-1.57.56s-1.19-.19-1.56-.56c-.36-.37-.54-.84-.54-1.4Zm3.96,20.92h-3.73v-16.61h3.73v16.61Z"/><path class="cls-12" d="m688.94,874.55c0-2.56.59-4.61,1.78-6.16,1.19-1.55,2.78-2.33,4.77-2.33,1.76,0,3.18.61,4.27,1.84v-8.5h3.73v23.58h-3.38l-.18-1.72c-1.12,1.35-2.6,2.03-4.47,2.03s-3.52-.78-4.72-2.35c-1.2-1.57-1.8-3.69-1.8-6.39Zm3.73.32c0,1.69.33,3.01.97,3.95.65.95,1.57,1.42,2.77,1.42,1.52,0,2.64-.68,3.35-2.04v-7.09c-.69-1.33-1.79-2-3.32-2-1.21,0-2.14.48-2.79,1.43-.66.96-.98,2.4-.98,4.32Z"/><path class="cls-12" d="m712.05,862.33v4.04h2.93v2.76h-2.93v9.27c0,.63.12,1.09.38,1.37s.7.42,1.34.42c.43,0,.87-.05,1.3-.15v2.89c-.85.24-1.67.35-2.46.35-2.87,0-4.3-1.58-4.3-4.74v-9.41h-2.73v-2.76h2.73v-4.04h3.73Z"/><path class="cls-12" d="m721.51,868.18c1.22-1.41,2.76-2.12,4.62-2.12,3.54,0,5.34,2.02,5.39,6.06v10.85h-3.73v-10.71c0-1.15-.25-1.96-.74-2.43-.5-.48-1.23-.71-2.19-.71-1.49,0-2.61.67-3.35,2v11.87h-3.73v-23.58h3.73v8.78Z"/><path class="cls-12" d="m745.36,866.01c.7,0,1.23.2,1.61.59.38.39.57.89.57,1.48s-.19,1.07-.57,1.45c-.38.38-.92.58-1.61.58s-1.19-.19-1.58-.57c-.39-.38-.58-.86-.58-1.46s.19-1.09.57-1.48c.38-.39.91-.59,1.6-.59Zm0,13.03c.7,0,1.23.2,1.61.59.38.39.57.89.57,1.48s-.19,1.07-.57,1.45c-.38.38-.92.58-1.61.58s-1.19-.19-1.58-.57c-.39-.38-.58-.86-.58-1.46s.19-1.09.57-1.48c.38-.39.91-.59,1.6-.59Z"/><path class="cls-27" d="m769.06,882.98h-3.71v-17.95l-5.48,1.87v-3.13l8.72-3.21h.48v22.43Z"/><path class="cls-27" d="m791.39,873.57c0,3.21-.6,5.64-1.8,7.27-1.2,1.63-3.03,2.45-5.49,2.45s-4.23-.79-5.46-2.39c-1.22-1.59-1.85-3.95-1.88-7.07v-3.87c0-3.21.6-5.62,1.8-7.23s3.04-2.41,5.5-2.41,4.27.78,5.47,2.35c1.2,1.57,1.82,3.91,1.85,7.03v3.87Zm-3.73-4.17c0-2.1-.29-3.64-.86-4.61-.57-.98-1.48-1.47-2.73-1.47s-2.11.46-2.69,1.39-.87,2.37-.91,4.34v5.07c0,2.09.29,3.64.88,4.67.58,1.02,1.5,1.54,2.75,1.54s2.08-.47,2.66-1.42c.57-.95.88-2.43.91-4.44v-5.05Z"/><path class="cls-27" d="m809.26,873.57c0,3.21-.6,5.64-1.8,7.27-1.2,1.63-3.03,2.45-5.49,2.45s-4.23-.79-5.46-2.39c-1.22-1.59-1.85-3.95-1.88-7.07v-3.87c0-3.21.6-5.62,1.8-7.23s3.04-2.41,5.5-2.41,4.27.78,5.47,2.35c1.2,1.57,1.82,3.91,1.85,7.03v3.87Zm-3.73-4.17c0-2.1-.29-3.64-.86-4.61-.57-.98-1.48-1.47-2.73-1.47s-2.11.46-2.69,1.39-.87,2.37-.91,4.34v5.07c0,2.09.29,3.64.88,4.67.58,1.02,1.5,1.54,2.75,1.54s2.08-.47,2.66-1.42c.57-.95.88-2.43.91-4.44v-5.05Z"/><path class="cls-27" d="m826.02,860.63l6.45,17.13,6.43-17.13h5.02v22.35h-3.87v-7.37l.38-9.85-6.6,17.22h-2.78l-6.58-17.21.38,9.84v7.37h-3.87v-22.35h5.04Z"/><path class="cls-27" d="m862.72,874.84c0,2.58-.58,4.63-1.73,6.15-1.15,1.53-2.74,2.29-4.75,2.29s-3.46-.7-4.54-2.1l-.18,1.8h-3.38v-23.58h3.73v8.57c1.08-1.27,2.52-1.9,4.34-1.9,2.03,0,3.62.75,4.77,2.26,1.16,1.5,1.73,3.61,1.73,6.31v.21Zm-3.73-.32c0-1.8-.32-3.15-.95-4.05s-1.56-1.35-2.76-1.35c-1.62,0-2.75.71-3.41,2.12v6.85c.67,1.44,1.81,2.16,3.44,2.16,1.17,0,2.07-.43,2.7-1.3.63-.87.96-2.18.98-3.94v-.48Z"/><path class="cls-27" d="m880.39,874.84c0,2.57-.58,4.62-1.75,6.15-1.17,1.53-2.73,2.29-4.7,2.29-1.82,0-3.28-.6-4.38-1.8v7.88h-3.73v-22.99h3.44l.15,1.69c1.09-1.33,2.58-2,4.47-2,2.03,0,3.61.75,4.77,2.26,1.15,1.51,1.73,3.61,1.73,6.29v.23Zm-3.71-.32c0-1.66-.33-2.97-.99-3.95-.66-.97-1.6-1.46-2.83-1.46-1.52,0-2.62.63-3.29,1.89v7.37c.68,1.29,1.78,1.93,3.32,1.93,1.19,0,2.12-.48,2.79-1.44.67-.96,1.01-2.41,1.01-4.35Z"/><path class="cls-27" d="m892.86,878.46c0-.67-.27-1.17-.82-1.52-.55-.35-1.46-.66-2.72-.92-1.27-.27-2.33-.6-3.18-1.01-1.86-.9-2.79-2.2-2.79-3.91,0-1.43.6-2.63,1.81-3.59,1.21-.96,2.74-1.44,4.61-1.44,1.98,0,3.59.49,4.81,1.47s1.83,2.26,1.83,3.82h-3.73c0-.72-.27-1.31-.8-1.79-.53-.48-1.24-.71-2.12-.71-.82,0-1.49.19-2,.57-.52.38-.78.89-.78,1.52,0,.57.24,1.02.72,1.34.48.32,1.45.64,2.92.96,1.46.32,2.61.71,3.45,1.15.83.45,1.45.98,1.86,1.6.4.62.61,1.38.61,2.27,0,1.49-.62,2.7-1.86,3.63s-2.86,1.39-4.87,1.39c-1.36,0-2.57-.25-3.64-.74-1.06-.49-1.89-1.17-2.49-2.03-.59-.86-.89-1.79-.89-2.78h3.62c.05.88.38,1.56,1,2.03s1.43.71,2.44.71,1.73-.19,2.24-.56c.51-.37.77-.86.77-1.47Z"/><path class="cls-19" d="m477.39,932.41h-4.33v8.6h-3.88v-22.35h7.86c2.58,0,4.57.58,5.97,1.74,1.4,1.16,2.1,2.83,2.1,5.02,0,1.5-.36,2.75-1.08,3.76s-1.73,1.78-3.02,2.33l5.02,9.31v.2h-4.16l-4.48-8.6Zm-4.33-3.13h3.99c1.31,0,2.33-.33,3.07-.99s1.11-1.56,1.11-2.71-.34-2.12-1.02-2.78c-.68-.66-1.7-.99-3.05-1.01h-4.1v7.49Z"/><path class="cls-19" d="m506.54,941h-3.87v-9.92h-9.99v9.92h-3.88v-22.35h3.88v9.3h9.99v-9.3h3.87v22.35Z"/><path class="cls-19" d="m524.19,931.03h-9.18v6.88h10.73v3.1h-14.61v-22.35h14.51v3.13h-10.62v6.17h9.18v3.07Z"/><path class="cls-19" d="m540.59,935.25c0-.98-.34-1.74-1.04-2.27-.69-.53-1.94-1.07-3.74-1.61-1.8-.54-3.23-1.15-4.3-1.81-2.04-1.28-3.05-2.95-3.05-5,0-1.8.73-3.29,2.2-4.45,1.47-1.17,3.37-1.75,5.72-1.75,1.55,0,2.94.29,4.16.86s2.17,1.39,2.87,2.45c.7,1.06,1.04,2.23,1.04,3.52h-3.87c0-1.17-.37-2.08-1.1-2.74-.73-.66-1.78-.99-3.14-.99-1.27,0-2.25.27-2.95.81-.7.54-1.05,1.3-1.05,2.27,0,.82.38,1.5,1.14,2.05.76.55,2.01,1.08,3.75,1.6,1.74.52,3.14,1.1,4.19,1.76s1.83,1.42,2.32,2.27.74,1.85.74,3c0,1.86-.71,3.34-2.14,4.44-1.43,1.1-3.36,1.65-5.81,1.65-1.62,0-3.1-.3-4.46-.9-1.36-.6-2.41-1.42-3.16-2.48-.75-1.05-1.13-2.28-1.13-3.68h3.88c0,1.27.42,2.25,1.26,2.95.84.7,2.04,1.04,3.61,1.04,1.35,0,2.37-.27,3.05-.82s1.02-1.27,1.02-2.17Z"/><path class="cls-27" d="m557.59,924.04c.7,0,1.23.2,1.61.59.38.39.57.89.57,1.48s-.19,1.07-.57,1.45c-.38.38-.92.58-1.61.58s-1.19-.19-1.58-.57c-.39-.38-.58-.86-.58-1.46s.19-1.09.57-1.48c.38-.39.91-.59,1.6-.59Zm0,13.03c.7,0,1.23.2,1.61.59.38.39.57.89.57,1.48s-.19,1.07-.57,1.45c-.38.38-.92.58-1.61.58s-1.19-.19-1.58-.57c-.39-.38-.58-.86-.58-1.46s.19-1.09.57-1.48c.38-.39.91-.59,1.6-.59Z"/><path class="cls-27" d="m588.14,918.66v14.93c0,2.37-.76,4.25-2.28,5.64s-3.54,2.08-6.07,2.08-4.59-.68-6.09-2.05c-1.5-1.37-2.26-3.26-2.26-5.69v-14.92h3.87v14.95c0,1.49.38,2.63,1.14,3.42.76.79,1.87,1.18,3.35,1.18,2.99,0,4.48-1.58,4.48-4.73v-14.83h3.87Z"/><path class="cls-27" d="m595.38,924.4l.11,1.92c1.23-1.48,2.84-2.23,4.83-2.23,3.46,0,5.22,1.98,5.28,5.94v10.97h-3.73v-10.76c0-1.05-.23-1.83-.68-2.34-.46-.51-1.2-.76-2.23-.76-1.5,0-2.62.68-3.36,2.04v11.82h-3.73v-16.61h3.51Z"/><path class="cls-27" d="m613.37,941h-3.73v-23.58h3.73v23.58Z"/><path class="cls-27" d="m617.44,920.08c0-.57.18-1.05.54-1.43s.88-.57,1.56-.57,1.2.19,1.57.57.55.85.55,1.43-.18,1.03-.55,1.4c-.37.37-.89.56-1.57.56s-1.19-.19-1.56-.56c-.36-.37-.54-.84-.54-1.4Zm3.96,20.92h-3.73v-16.61h3.73v16.61Z"/><path class="cls-27" d="m628.97,924.4l.11,1.73c1.17-1.36,2.76-2.04,4.79-2.04,2.22,0,3.74.85,4.56,2.55,1.21-1.7,2.91-2.55,5.1-2.55,1.83,0,3.2.51,4.09,1.52.89,1.01,1.35,2.51,1.37,4.48v10.91h-3.73v-10.81c0-1.05-.23-1.83-.69-2.32-.46-.49-1.22-.74-2.29-.74-.85,0-1.54.23-2.08.68-.54.46-.91,1.05-1.13,1.79v11.39s-3.71,0-3.71,0v-10.93c-.05-1.95-1.05-2.93-2.99-2.93-1.49,0-2.55.61-3.18,1.83v12.03h-3.73v-16.61h3.51Z"/><path class="cls-27" d="m652.82,920.08c0-.57.18-1.05.54-1.43s.88-.57,1.56-.57,1.2.19,1.57.57.55.85.55,1.43-.18,1.03-.55,1.4c-.37.37-.89.56-1.57.56s-1.19-.19-1.56-.56c-.36-.37-.54-.84-.54-1.4Zm3.96,20.92h-3.73v-16.61h3.73v16.61Z"/><path class="cls-27" d="m665.51,920.36v4.04h2.93v2.76h-2.93v9.27c0,.63.12,1.09.38,1.37s.7.42,1.34.42c.43,0,.87-.05,1.3-.15v2.89c-.85.24-1.67.35-2.46.35-2.87,0-4.3-1.58-4.3-4.74v-9.41h-2.73v-2.76h2.73v-4.04h3.73Z"/><path class="cls-27" d="m678.61,941.31c-2.36,0-4.28-.74-5.75-2.23-1.47-1.49-2.2-3.47-2.2-5.95v-.46c0-1.66.32-3.14.96-4.44s1.54-2.32,2.69-3.05,2.45-1.09,3.87-1.09c2.26,0,4.01.72,5.24,2.16,1.23,1.44,1.85,3.48,1.85,6.12v1.5h-10.85c.11,1.37.57,2.46,1.37,3.25s1.81,1.2,3.03,1.2c1.71,0,3.1-.69,4.18-2.07l2.01,1.92c-.67.99-1.55,1.76-2.66,2.31-1.11.55-2.36.82-3.74.82Zm-.44-14.23c-1.02,0-1.85.36-2.48,1.07-.63.72-1.03,1.71-1.21,2.99h7.11v-.28c-.08-1.25-.42-2.19-1-2.83-.58-.64-1.39-.96-2.42-.96Z"/><path class="cls-27" d="m687.46,932.58c0-2.56.59-4.61,1.78-6.16,1.19-1.55,2.78-2.33,4.77-2.33,1.76,0,3.18.61,4.27,1.84v-8.5h3.73v23.58h-3.38l-.18-1.72c-1.12,1.35-2.6,2.03-4.47,2.03s-3.52-.78-4.72-2.35c-1.2-1.57-1.8-3.69-1.8-6.39Zm3.73.32c0,1.69.33,3.01.97,3.95.65.95,1.57,1.42,2.77,1.42,1.52,0,2.64-.68,3.35-2.04v-7.09c-.69-1.33-1.79-2-3.32-2-1.21,0-2.14.48-2.79,1.43-.66.96-.98,2.4-.98,4.32Z"/><path class="cls-12" d="m487.02,988.44c0,2.19-.38,4.11-1.14,5.76-.76,1.65-1.84,2.92-3.25,3.81-1.41.88-3.03,1.33-4.86,1.33s-3.43-.44-4.84-1.33-2.51-2.15-3.28-3.78c-.77-1.64-1.16-3.52-1.17-5.66v-1.26c0-2.18.39-4.1,1.16-5.77s1.86-2.94,3.27-3.83c1.41-.88,3.02-1.33,4.84-1.33s3.44.44,4.84,1.31c1.41.88,2.49,2.13,3.26,3.78s1.16,3.55,1.17,5.73v1.24Zm-3.88-1.17c0-2.48-.47-4.37-1.4-5.69-.94-1.32-2.26-1.98-3.98-1.98s-2.99.66-3.94,1.97c-.95,1.32-1.43,3.17-1.45,5.58v1.29c0,2.46.48,4.35,1.43,5.69.96,1.34,2.29,2.01,3.98,2.01s3.04-.65,3.97-1.96c.93-1.31,1.39-3.22,1.39-5.74v-1.17Z"/><path class="cls-12" d="m505.73,979.82h-6.97v19.22h-3.85v-19.22h-6.91v-3.13h17.73v3.13Z"/><path class="cls-12" d="m525.28,991.76c-.23,2.38-1.11,4.24-2.64,5.58-1.54,1.34-3.58,2-6.12,2-1.78,0-3.35-.42-4.71-1.27-1.36-.84-2.4-2.04-3.14-3.6-.74-1.56-1.12-3.36-1.15-5.42v-2.09c0-2.11.37-3.97,1.12-5.57.75-1.61,1.82-2.84,3.21-3.71,1.4-.87,3.01-1.3,4.84-1.3,2.47,0,4.45.67,5.96,2,1.5,1.33,2.38,3.23,2.62,5.67h-3.87c-.18-1.61-.65-2.76-1.4-3.48-.75-.71-1.86-1.07-3.31-1.07-1.69,0-2.99.62-3.89,1.85s-1.37,3.04-1.39,5.43v1.98c0,2.42.43,4.26,1.3,5.53.86,1.27,2.13,1.91,3.8,1.91,1.52,0,2.67-.34,3.44-1.03s1.25-1.83,1.46-3.42h3.87Z"/><path class="cls-12" d="m538.47,982.07c.7,0,1.23.2,1.61.59.38.39.57.89.57,1.48s-.19,1.07-.57,1.45c-.38.38-.92.58-1.61.58s-1.19-.19-1.58-.57c-.39-.38-.58-.86-.58-1.46s.19-1.09.57-1.48c.38-.39.91-.59,1.6-.59Zm0,13.03c.7,0,1.23.2,1.61.59.38.39.57.89.57,1.48s-.19,1.07-.57,1.45c-.38.38-.92.58-1.61.58s-1.19-.19-1.58-.57c-.39-.38-.58-.86-.58-1.46s.19-1.09.57-1.48c.38-.39.91-.59,1.6-.59Z"/><path class="cls-27" d="m565.51,979.49h-3.35c.52.77.86,1.67,1.01,2.7h3.1l-.77,2.79h-2.32c-.23,1.69-.9,2.98-2.03,3.88-1.13.9-2.72,1.43-4.77,1.6l7.15,8.37v.2h-4.41l-7.81-9.1-.02-2.35h3.88c1.15,0,2.05-.24,2.72-.71.67-.48,1.12-1.1,1.34-1.88h-8.26l.78-2.79h7.41c-.5-1.59-1.86-2.38-4.07-2.38h-4.13l.83-3.13h14.46l-.78,2.81Z"/><path class="cls-27" d="m589.03,991.07h2.78v2.99h-2.78v4.97h-3.73v-4.97h-9.66l-.11-2.27,9.64-15.1h3.85v14.38Zm-9.58,0h5.85v-9.33l-.28.49-5.57,8.84Z"/><path class="cls-27" d="m608.84,989.62c0,3.21-.6,5.64-1.8,7.27-1.2,1.63-3.03,2.45-5.49,2.45s-4.23-.79-5.46-2.39c-1.22-1.59-1.85-3.95-1.88-7.07v-3.87c0-3.21.6-5.62,1.8-7.23s3.04-2.41,5.5-2.41,4.27.78,5.47,2.35c1.2,1.57,1.82,3.91,1.85,7.03v3.87Zm-3.73-4.17c0-2.1-.29-3.64-.86-4.61-.57-.98-1.48-1.47-2.73-1.47s-2.11.46-2.69,1.39-.87,2.37-.91,4.34v5.07c0,2.09.29,3.64.88,4.67.58,1.02,1.5,1.54,2.75,1.54s2.08-.47,2.66-1.42c.57-.95.88-2.43.91-4.44v-5.05Z"/><path class="cls-27" d="m612.91,1004.07l-2.01-1.2c.59-.93,1-1.74,1.22-2.43.22-.69.33-1.39.34-2.11v-2.9h3.36l-.02,2.69c-.01,1.08-.28,2.17-.82,3.26s-1.23,1.99-2.08,2.69Z"/><path class="cls-27" d="m633.62,989.62c0,3.21-.6,5.64-1.8,7.27-1.2,1.63-3.03,2.45-5.49,2.45s-4.23-.79-5.46-2.39c-1.22-1.59-1.85-3.95-1.88-7.07v-3.87c0-3.21.6-5.62,1.8-7.23s3.04-2.41,5.5-2.41,4.27.78,5.47,2.35c1.2,1.57,1.82,3.91,1.85,7.03v3.87Zm-3.73-4.17c0-2.1-.29-3.64-.86-4.61-.57-.98-1.48-1.47-2.73-1.47s-2.11.46-2.69,1.39-.87,2.37-.91,4.34v5.07c0,2.09.29,3.64.88,4.67.58,1.02,1.5,1.54,2.75,1.54s2.08-.47,2.66-1.42c.57-.95.88-2.43.91-4.44v-5.05Z"/><path class="cls-27" d="m651.49,989.62c0,3.21-.6,5.64-1.8,7.27-1.2,1.63-3.03,2.45-5.49,2.45s-4.23-.79-5.46-2.39c-1.22-1.59-1.85-3.95-1.88-7.07v-3.87c0-3.21.6-5.62,1.8-7.23s3.04-2.41,5.5-2.41,4.27.78,5.47,2.35c1.2,1.57,1.82,3.91,1.85,7.03v3.87Zm-3.73-4.17c0-2.1-.29-3.64-.86-4.61-.57-.98-1.48-1.47-2.73-1.47s-2.11.46-2.69,1.39-.87,2.37-.91,4.34v5.07c0,2.09.29,3.64.88,4.67.58,1.02,1.5,1.54,2.75,1.54s2.08-.47,2.66-1.42c.57-.95.88-2.43.91-4.44v-5.05Z"/><path class="cls-27" d="m669.35,989.62c0,3.21-.6,5.64-1.8,7.27-1.2,1.63-3.03,2.45-5.49,2.45s-4.23-.79-5.46-2.39c-1.22-1.59-1.85-3.95-1.88-7.07v-3.87c0-3.21.6-5.62,1.8-7.23s3.04-2.41,5.5-2.41,4.27.78,5.47,2.35c1.2,1.57,1.82,3.91,1.85,7.03v3.87Zm-3.73-4.17c0-2.1-.29-3.64-.86-4.61-.57-.98-1.48-1.47-2.73-1.47s-2.11.46-2.69,1.39-.87,2.37-.91,4.34v5.07c0,2.09.29,3.64.88,4.67.58,1.02,1.5,1.54,2.75,1.54s2.08-.47,2.66-1.42c.57-.95.88-2.43.91-4.44v-5.05Z"/><path class="cls-27" d="m681.77,1000.95h-2.93l8.8-24.27h2.93l-8.79,24.27Z"/><path class="cls-27" d="m709.55,990.44h-4.33v8.6h-3.88v-22.35h7.86c2.58,0,4.57.58,5.97,1.74,1.4,1.16,2.1,2.83,2.1,5.02,0,1.5-.36,2.75-1.08,3.76s-1.73,1.78-3.02,2.33l5.02,9.31v.2h-4.16l-4.48-8.6Zm-4.33-3.13h3.99c1.31,0,2.33-.33,3.07-.99s1.11-1.56,1.11-2.71-.34-2.12-1.02-2.78c-.68-.66-1.7-.99-3.05-1.01h-4.1v7.49Z"/><path class="cls-27" d="m730.52,999.03c-.16-.32-.31-.83-.43-1.55-1.19,1.24-2.64,1.86-4.36,1.86s-3.03-.48-4.08-1.43c-1.05-.95-1.58-2.13-1.58-3.53,0-1.77.66-3.13,1.97-4.08,1.32-.95,3.2-1.42,5.64-1.42h2.29v-1.09c0-.86-.24-1.55-.72-2.06-.48-.52-1.21-.78-2.2-.78-.85,0-1.54.21-2.09.64-.54.42-.81.96-.81,1.62h-3.73c0-.91.3-1.76.91-2.56.6-.79,1.43-1.41,2.46-1.86,1.04-.45,2.2-.68,3.48-.68,1.94,0,3.49.49,4.65,1.47,1.16.98,1.75,2.35,1.78,4.12v7.49c0,1.49.21,2.69.63,3.58v.26h-3.81Zm-4.1-2.69c.74,0,1.43-.18,2.08-.54.65-.36,1.14-.84,1.47-1.44v-3.13h-2.01c-1.38,0-2.42.24-3.12.72-.7.48-1.04,1.16-1.04,2.04,0,.72.24,1.29.71,1.71s1.11.64,1.91.64Z"/><path class="cls-27" d="m744.43,996.36c.93,0,1.7-.27,2.32-.81.61-.54.94-1.21.98-2.01h3.51c-.04,1.03-.36,2-.97,2.89-.6.9-1.42,1.6-2.46,2.13-1.03.52-2.15.78-3.35.78-2.32,0-4.17-.75-5.53-2.26-1.36-1.5-2.04-3.58-2.04-6.23v-.38c0-2.53.67-4.55,2.03-6.07,1.35-1.52,3.19-2.28,5.53-2.28,1.97,0,3.58.58,4.83,1.73s1.9,2.66,1.96,4.54h-3.51c-.04-.95-.37-1.73-.97-2.35-.61-.61-1.38-.92-2.33-.92-1.21,0-2.14.44-2.79,1.31-.66.88-.99,2.2-1,3.98v.6c0,1.8.33,3.14.97,4.03.65.88,1.59,1.33,2.82,1.33Z"/><path class="cls-27" d="m759.45,991.91l-1.66,1.7v5.42h-3.73v-23.58h3.73v13.6l1.17-1.46,4.59-5.17h4.48l-6.17,6.92,6.83,9.69h-4.31l-4.93-7.12Z"/><path class="cls-19" d="m487.48,1046.02c-.23,2.38-1.11,4.24-2.64,5.58-1.54,1.34-3.58,2-6.12,2-1.78,0-3.35-.42-4.71-1.27-1.36-.84-2.4-2.04-3.14-3.6-.74-1.56-1.12-3.36-1.15-5.42v-2.09c0-2.11.37-3.97,1.12-5.57.75-1.61,1.82-2.84,3.21-3.71,1.4-.87,3.01-1.3,4.84-1.3,2.47,0,4.45.67,5.96,2,1.5,1.33,2.38,3.23,2.62,5.67h-3.87c-.18-1.61-.65-2.76-1.4-3.48-.75-.71-1.86-1.07-3.31-1.07-1.69,0-2.99.62-3.89,1.85s-1.37,3.04-1.39,5.43v1.98c0,2.42.43,4.26,1.3,5.53.86,1.27,2.13,1.91,3.8,1.91,1.52,0,2.67-.34,3.44-1.03s1.25-1.83,1.46-3.42h3.87Z"/><path class="cls-19" d="m489.89,1044.84c0-1.63.32-3.09.97-4.4s1.55-2.31,2.72-3.01,2.51-1.05,4.02-1.05c2.24,0,4.06.72,5.46,2.16,1.4,1.44,2.15,3.36,2.26,5.74l.02.88c0,1.64-.31,3.1-.94,4.39-.63,1.29-1.53,2.29-2.7,2.99s-2.53,1.06-4.06,1.06c-2.34,0-4.22-.78-5.62-2.34-1.41-1.56-2.11-3.64-2.11-6.24v-.18Zm3.73.32c0,1.71.35,3.05,1.06,4.01s1.69,1.45,2.95,1.45,2.24-.49,2.94-1.47c.7-.98,1.05-2.42,1.05-4.31,0-1.68-.36-3.01-1.08-3.99s-1.7-1.47-2.94-1.47-2.18.48-2.9,1.45c-.72.97-1.07,2.41-1.07,4.34Z"/><path class="cls-19" d="m511.95,1036.69l.11,1.92c1.23-1.48,2.84-2.23,4.83-2.23,3.46,0,5.22,1.98,5.28,5.94v10.97h-3.73v-10.76c0-1.05-.23-1.83-.68-2.34-.46-.51-1.2-.76-2.23-.76-1.5,0-2.62.68-3.36,2.04v11.82h-3.73v-16.61h3.51Z"/><path class="cls-19" d="m530.64,1032.65v4.04h2.93v2.76h-2.93v9.27c0,.63.12,1.09.38,1.37s.7.42,1.34.42c.43,0,.87-.05,1.3-.15v2.89c-.85.24-1.67.35-2.46.35-2.87,0-4.3-1.58-4.3-4.74v-9.41h-2.73v-2.76h2.73v-4.04h3.73Z"/><path class="cls-19" d="m545.12,1040.09c-.49-.08-1-.12-1.52-.12-1.71,0-2.86.66-3.45,1.96v11.36h-3.73v-16.61h3.56l.09,1.86c.9-1.44,2.15-2.16,3.75-2.16.53,0,.97.07,1.32.21l-.02,3.5Z"/><path class="cls-19" d="m556.94,1053.29c-.16-.32-.31-.83-.43-1.55-1.19,1.24-2.64,1.86-4.36,1.86s-3.03-.48-4.08-1.43c-1.05-.95-1.58-2.13-1.58-3.53,0-1.77.66-3.13,1.97-4.08,1.32-.95,3.2-1.42,5.64-1.42h2.29v-1.09c0-.86-.24-1.55-.72-2.06-.48-.52-1.21-.78-2.2-.78-.85,0-1.54.21-2.09.64-.54.42-.81.96-.81,1.62h-3.73c0-.91.3-1.76.91-2.56.6-.79,1.43-1.41,2.46-1.86,1.04-.45,2.2-.68,3.48-.68,1.94,0,3.49.49,4.65,1.47,1.16.98,1.75,2.35,1.78,4.12v7.49c0,1.49.21,2.69.63,3.58v.26h-3.81Zm-4.1-2.69c.74,0,1.43-.18,2.08-.54.65-.36,1.14-.84,1.47-1.44v-3.13h-2.01c-1.38,0-2.42.24-3.12.72-.7.48-1.04,1.16-1.04,2.04,0,.72.24,1.29.71,1.71s1.11.64,1.91.64Z"/><path class="cls-19" d="m570.84,1050.62c.93,0,1.7-.27,2.32-.81.61-.54.94-1.21.98-2.01h3.51c-.04,1.03-.36,2-.97,2.89-.6.9-1.42,1.6-2.46,2.13-1.03.52-2.15.78-3.35.78-2.32,0-4.17-.75-5.53-2.26-1.36-1.5-2.04-3.58-2.04-6.23v-.38c0-2.53.67-4.55,2.03-6.07,1.35-1.52,3.19-2.28,5.53-2.28,1.97,0,3.58.58,4.83,1.73s1.9,2.66,1.96,4.54h-3.51c-.04-.95-.37-1.73-.97-2.35-.61-.61-1.38-.92-2.33-.92-1.21,0-2.14.44-2.79,1.31-.66.88-.99,2.2-1,3.98v.6c0,1.8.33,3.14.97,4.03.65.88,1.59,1.33,2.82,1.33Z"/><path class="cls-19" d="m585.15,1032.65v4.04h2.93v2.76h-2.93v9.27c0,.63.12,1.09.38,1.37s.7.42,1.34.42c.43,0,.87-.05,1.3-.15v2.89c-.85.24-1.67.35-2.46.35-2.87,0-4.3-1.58-4.3-4.74v-9.41h-2.73v-2.76h2.73v-4.04h3.73Z"/><path class="cls-19" d="m603,1045.01v8.29h-3.88v-22.35h8.55c2.5,0,4.48.65,5.95,1.95,1.47,1.3,2.2,3.02,2.2,5.16s-.72,3.9-2.16,5.12-3.45,1.83-6.04,1.83h-4.62Zm0-3.13h4.67c1.38,0,2.44-.33,3.16-.97s1.09-1.59,1.09-2.82-.37-2.17-1.11-2.89c-.74-.72-1.75-1.09-3.04-1.11h-4.77v7.8Z"/><path class="cls-19" d="m625.96,1053.6c-2.36,0-4.28-.74-5.75-2.23-1.47-1.49-2.2-3.47-2.2-5.95v-.46c0-1.66.32-3.14.96-4.44s1.54-2.32,2.69-3.05,2.45-1.09,3.87-1.09c2.26,0,4.01.72,5.24,2.16,1.23,1.44,1.85,3.48,1.85,6.12v1.5h-10.85c.11,1.37.57,2.46,1.37,3.25s1.81,1.2,3.03,1.2c1.71,0,3.1-.69,4.18-2.07l2.01,1.92c-.67.99-1.55,1.76-2.66,2.31-1.11.55-2.36.82-3.74.82Zm-.44-14.23c-1.02,0-1.85.36-2.48,1.07-.63.72-1.03,1.71-1.21,2.99h7.11v-.28c-.08-1.25-.42-2.19-1-2.83-.58-.64-1.39-.96-2.42-.96Z"/><path class="cls-19" d="m644.21,1040.09c-.49-.08-1-.12-1.52-.12-1.71,0-2.86.66-3.45,1.96v11.36h-3.73v-16.61h3.56l.09,1.86c.9-1.44,2.15-2.16,3.75-2.16.53,0,.97.07,1.32.21l-.02,3.5Z"/><path class="cls-19" d="m646.58,1032.37c0-.57.18-1.05.54-1.43s.88-.57,1.56-.57,1.2.19,1.57.57.55.85.55,1.43-.18,1.03-.55,1.4c-.37.37-.89.56-1.57.56s-1.19-.19-1.56-.56c-.36-.37-.54-.84-.54-1.4Zm3.96,20.92h-3.73v-16.61h3.73v16.61Z"/><path class="cls-19" d="m653.9,1044.84c0-1.63.32-3.09.97-4.4s1.55-2.31,2.72-3.01,2.51-1.05,4.02-1.05c2.24,0,4.06.72,5.46,2.16,1.4,1.44,2.15,3.36,2.26,5.74l.02.88c0,1.64-.31,3.1-.94,4.39-.63,1.29-1.53,2.29-2.7,2.99s-2.53,1.06-4.06,1.06c-2.34,0-4.22-.78-5.62-2.34-1.41-1.56-2.11-3.64-2.11-6.24v-.18Zm3.73.32c0,1.71.35,3.05,1.06,4.01s1.69,1.45,2.95,1.45,2.24-.49,2.94-1.47c.7-.98,1.05-2.42,1.05-4.31,0-1.68-.36-3.01-1.08-3.99s-1.7-1.47-2.94-1.47-2.18.48-2.9,1.45c-.72.97-1.07,2.41-1.07,4.34Z"/><path class="cls-19" d="m671.8,1044.87c0-2.56.59-4.61,1.78-6.16,1.19-1.55,2.78-2.33,4.77-2.33,1.76,0,3.18.61,4.27,1.84v-8.5h3.73v23.58h-3.38l-.18-1.72c-1.12,1.35-2.6,2.03-4.47,2.03s-3.52-.78-4.72-2.35c-1.2-1.57-1.8-3.69-1.8-6.39Zm3.73.32c0,1.69.33,3.01.97,3.95.65.95,1.57,1.42,2.77,1.42,1.52,0,2.64-.68,3.35-2.04v-7.09c-.69-1.33-1.79-2-3.32-2-1.21,0-2.14.48-2.79,1.43-.66.96-.98,2.4-.98,4.32Z"/><path class="cls-19" d="m700.32,1036.33c.7,0,1.23.2,1.61.59.38.39.57.89.57,1.48s-.19,1.07-.57,1.45c-.38.38-.92.58-1.61.58s-1.19-.19-1.58-.57c-.39-.38-.58-.86-.58-1.46s.19-1.09.57-1.48c.38-.39.91-.59,1.6-.59Zm0,13.03c.7,0,1.23.2,1.61.59.38.39.57.89.57,1.48s-.19,1.07-.57,1.45c-.38.38-.92.58-1.61.58s-1.19-.19-1.58-.57c-.39-.38-.58-.86-.58-1.46s.19-1.09.57-1.48c.38-.39.91-.59,1.6-.59Z"/><path class="cls-27" d="m714.99,1042.21l1.21-11.27h12v3.22h-8.9l-.61,5.34c1.03-.59,2.2-.89,3.5-.89,2.13,0,3.78.68,4.96,2.04,1.18,1.36,1.77,3.19,1.77,5.5s-.66,4.08-1.96,5.43c-1.31,1.35-3.11,2.02-5.39,2.02-2.05,0-3.74-.58-5.09-1.74-1.35-1.16-2.07-2.69-2.19-4.6h3.61c.14,1.08.53,1.92,1.17,2.49.63.58,1.46.87,2.49.87,1.15,0,2.04-.41,2.68-1.23.64-.82.96-1.93.96-3.35s-.35-2.44-1.06-3.23-1.68-1.19-2.92-1.19c-.67,0-1.25.09-1.72.27-.47.18-.98.53-1.54,1.05l-2.98-.74Z"/><path class="cls-27" d="m747.58,1041.54l5.14-10.59h4.3l-7.49,14.12v8.23h-3.9v-8.23l-7.51-14.12h4.31l5.14,10.59Z"/><path class="cls-27" d="m765.4,1053.6c-2.36,0-4.28-.74-5.75-2.23-1.47-1.49-2.2-3.47-2.2-5.95v-.46c0-1.66.32-3.14.96-4.44s1.54-2.32,2.69-3.05,2.45-1.09,3.87-1.09c2.26,0,4.01.72,5.24,2.16,1.23,1.44,1.85,3.48,1.85,6.12v1.5h-10.85c.11,1.37.57,2.46,1.37,3.25s1.81,1.2,3.03,1.2c1.71,0,3.1-.69,4.18-2.07l2.01,1.92c-.67.99-1.55,1.76-2.66,2.31-1.11.55-2.36.82-3.74.82Zm-.44-14.23c-1.02,0-1.85.36-2.48,1.07-.63.72-1.03,1.71-1.21,2.99h7.11v-.28c-.08-1.25-.42-2.19-1-2.83-.58-.64-1.39-.96-2.42-.96Z"/><path class="cls-27" d="m784.88,1053.29c-.16-.32-.31-.83-.43-1.55-1.19,1.24-2.64,1.86-4.36,1.86s-3.03-.48-4.08-1.43c-1.05-.95-1.58-2.13-1.58-3.53,0-1.77.66-3.13,1.97-4.08,1.32-.95,3.2-1.42,5.64-1.42h2.29v-1.09c0-.86-.24-1.55-.72-2.06-.48-.52-1.21-.78-2.2-.78-.85,0-1.54.21-2.09.64-.54.42-.81.96-.81,1.62h-3.73c0-.91.3-1.76.91-2.56.6-.79,1.43-1.41,2.46-1.86,1.04-.45,2.2-.68,3.48-.68,1.94,0,3.49.49,4.65,1.47,1.16.98,1.75,2.35,1.78,4.12v7.49c0,1.49.21,2.69.63,3.58v.26h-3.81Zm-4.1-2.69c.74,0,1.43-.18,2.08-.54.65-.36,1.14-.84,1.47-1.44v-3.13h-2.01c-1.38,0-2.42.24-3.12.72-.7.48-1.04,1.16-1.04,2.04,0,.72.24,1.29.71,1.71s1.11.64,1.91.64Z"/><path class="cls-27" d="m800.66,1040.09c-.49-.08-1-.12-1.52-.12-1.71,0-2.86.66-3.45,1.96v11.36h-3.73v-16.61h3.56l.09,1.86c.9-1.44,2.15-2.16,3.75-2.16.53,0,.97.07,1.32.21l-.02,3.5Z"/><path class="cls-27" d="m812.32,1048.78c0-.67-.27-1.17-.82-1.52-.55-.35-1.46-.66-2.72-.92-1.27-.27-2.33-.6-3.18-1.01-1.86-.9-2.79-2.2-2.79-3.91,0-1.43.6-2.63,1.81-3.59,1.21-.96,2.74-1.44,4.61-1.44,1.98,0,3.59.49,4.81,1.47s1.83,2.26,1.83,3.82h-3.73c0-.72-.27-1.31-.8-1.79-.53-.48-1.24-.71-2.12-.71-.82,0-1.49.19-2,.57-.52.38-.78.89-.78,1.52,0,.57.24,1.02.72,1.34.48.32,1.45.64,2.92.96,1.46.32,2.61.71,3.45,1.15.83.45,1.45.98,1.86,1.6.4.62.61,1.38.61,2.27,0,1.49-.62,2.7-1.86,3.63s-2.86,1.39-4.87,1.39c-1.36,0-2.57-.25-3.64-.74-1.06-.49-1.89-1.17-2.49-2.03-.59-.86-.89-1.79-.89-2.78h3.62c.05.88.38,1.56,1,2.03s1.43.71,2.44.71,1.73-.19,2.24-.56c.51-.37.77-.86.77-1.47Z"/></svg>