<?xml version="1.0" encoding="UTF-8"?><svg id="Layer_1" xmlns="http://www.w3.org/2000/svg" xmlns:xlink="http://www.w3.org/1999/xlink" viewBox="0 0 910.19 1234.21"><defs><style>.cls-1{fill:url(#linear-gradient-3);filter:url(#drop-shadow-3);}.cls-1,.cls-2,.cls-3,.cls-4,.cls-5,.cls-6,.cls-7,.cls-8,.cls-9,.cls-10,.cls-11,.cls-12,.cls-13,.cls-14,.cls-15,.cls-16,.cls-17,.cls-18,.cls-19,.cls-20,.cls-21,.cls-22,.cls-23,.cls-24,.cls-25,.cls-26,.cls-27,.cls-28,.cls-29,.cls-30,.cls-31,.cls-32,.cls-33,.cls-34,.cls-35,.cls-36,.cls-37,.cls-38,.cls-39,.cls-40,.cls-41{stroke-width:0px;}.cls-2{fill:url(#linear-gradient-9);}.cls-2,.cls-7,.cls-8,.cls-10,.cls-13,.cls-15,.cls-34,.cls-41{opacity:.3;}.cls-3{fill:url(#linear-gradient-2);filter:url(#drop-shadow-2);}.cls-4{fill:url(#linear-gradient-13);filter:url(#drop-shadow-5);}.cls-5{fill:url(#linear-gradient-21);filter:url(#drop-shadow-9);}.cls-6{fill:url(#linear-gradient);filter:url(#drop-shadow-1);}.cls-7{fill:url(#linear-gradient-10);}.cls-8{fill:url(#linear-gradient-6);}.cls-9{fill:#206a37;}.cls-10{fill:url(#linear-gradient-12);}.cls-11{fill:url(#linear-gradient-35);filter:url(#drop-shadow-17);}.cls-12{fill:url(#linear-gradient-15);filter:url(#drop-shadow-6);}.cls-13{fill:url(#linear-gradient-4);}.cls-14,.cls-42{fill:none;}.cls-15{fill:url(#linear-gradient-5);}.cls-16{fill:#204295;}.cls-17{fill:url(#linear-gradient-16);}.cls-18{fill:url(#linear-gradient-22);}.cls-19{fill:#fff;}.cls-20{fill:url(#linear-gradient-32);}.cls-21{fill:url(#linear-gradient-20);}.cls-22{fill:url(#linear-gradient-14);}.cls-23{fill:url(#linear-gradient-34);filter:url(#drop-shadow-16);}.cls-24{fill:url(#linear-gradient-8);filter:url(#drop-shadow-4);}.cls-25{fill:#231f20;}.cls-26{fill:url(#linear-gradient-17);filter:url(#drop-shadow-7);}.cls-27{fill:url(#linear-gradient-27);filter:url(#drop-shadow-12);}.cls-28{fill:url(#linear-gradient-33);filter:url(#drop-shadow-15);}.cls-42{stroke:#fff;stroke-miterlimit:10;stroke-width:6px;}.cls-29{fill:url(#linear-gradient-25);filter:url(#drop-shadow-11);}.cls-30{fill:url(#linear-gradient-24);}.cls-31{fill:url(#linear-gradient-26);}.cls-32{fill:url(#linear-gradient-18);}.cls-33{fill:url(#linear-gradient-30);}.cls-34{fill:url(#linear-gradient-7);}.cls-35{fill:url(#linear-gradient-29);filter:url(#drop-shadow-13);}.cls-36{fill:#1d4794;}.cls-37{fill:url(#linear-gradient-28);}.cls-38{fill:url(#linear-gradient-19);filter:url(#drop-shadow-8);}.cls-39{fill:url(#linear-gradient-23);filter:url(#drop-shadow-10);}.cls-40{fill:url(#linear-gradient-31);filter:url(#drop-shadow-14);}.cls-41{fill:url(#linear-gradient-11);}</style><linearGradient id="linear-gradient" x1="243.17" y1="161.81" x2="243.17" y2="1032.47" gradientUnits="userSpaceOnUse"><stop offset="0" stop-color="#4766b0"/><stop offset="1" stop-color="#204295"/></linearGradient><filter id="drop-shadow-1" filterUnits="userSpaceOnUse"><feOffset dx="-9" dy="0"/><feGaussianBlur result="blur" stdDeviation="13"/><feFlood flood-color="#231f20" flood-opacity=".36"/><feComposite in2="blur" operator="in"/><feComposite in="SourceGraphic"/></filter><linearGradient id="linear-gradient-2" x1="635.42" y1="-5.06" x2="635.42" y2="1193.07" gradientUnits="userSpaceOnUse"><stop offset=".04" stop-color="#fff"/><stop offset="1" stop-color="#f0efef"/></linearGradient><filter id="drop-shadow-2" filterUnits="userSpaceOnUse"><feOffset dx="-4" dy="2"/><feGaussianBlur result="blur-2" stdDeviation="9"/><feFlood flood-color="#010101" flood-opacity=".3"/><feComposite in2="blur-2" operator="in"/><feComposite in="SourceGraphic"/></filter><linearGradient id="linear-gradient-3" x1="366.25" y1="232.29" x2="912.79" y2="232.29" xlink:href="#linear-gradient"/><filter id="drop-shadow-3" filterUnits="userSpaceOnUse"><feOffset dx="0" dy="1"/><feGaussianBlur result="blur-3" stdDeviation="3"/><feFlood flood-color="#010101" flood-opacity=".3"/><feComposite in2="blur-3" operator="in"/><feComposite in="SourceGraphic"/></filter><linearGradient id="linear-gradient-4" x1="592.19" y1="204.68" x2="781.61" y2="-10" gradientUnits="userSpaceOnUse"><stop offset="0" stop-color="#fff" stop-opacity=".3"/><stop offset="1" stop-color="#fff" stop-opacity="0"/></linearGradient><linearGradient id="linear-gradient-5" x1="745.76" y1="214.06" x2="895.69" y2="214.06" xlink:href="#linear-gradient-4"/><linearGradient id="linear-gradient-6" x1="443.47" y1="234.46" x2="615.32" y2="234.46" xlink:href="#linear-gradient-4"/><linearGradient id="linear-gradient-7" x1="694.89" y1="210.54" x2="854.4" y2="210.54" xlink:href="#linear-gradient-4"/><linearGradient id="linear-gradient-8" x1="363.76" y1="230.63" x2="910.3" y2="230.63" xlink:href="#linear-gradient"/><filter id="drop-shadow-4" filterUnits="userSpaceOnUse"><feOffset dx="0" dy="1"/><feGaussianBlur result="blur-4" stdDeviation="3"/><feFlood flood-color="#010101" flood-opacity=".3"/><feComposite in2="blur-4" operator="in"/><feComposite in="SourceGraphic"/></filter><linearGradient id="linear-gradient-9" x1="589.7" y1="203.02" x2="779.12" y2="-11.66" xlink:href="#linear-gradient-4"/><linearGradient id="linear-gradient-10" x1="743.27" y1="212.4" x2="893.2" y2="212.4" xlink:href="#linear-gradient-4"/><linearGradient id="linear-gradient-11" x1="440.98" y1="232.8" x2="612.83" y2="232.8" xlink:href="#linear-gradient-4"/><linearGradient id="linear-gradient-12" x1="692.4" y1="208.88" x2="851.91" y2="208.88" xlink:href="#linear-gradient-4"/><linearGradient id="linear-gradient-13" x1="448.6" y1="567.17" x2="416.63" y2="590.45" xlink:href="#linear-gradient-2"/><filter id="drop-shadow-5" filterUnits="userSpaceOnUse"><feOffset dx="0" dy="0"/><feGaussianBlur result="blur-5" stdDeviation=".88"/><feFlood flood-color="#010101" flood-opacity=".2"/><feComposite in2="blur-5" operator="in"/><feComposite in="SourceGraphic"/></filter><linearGradient id="linear-gradient-14" x1="438.13" y1="574.79" x2="402.19" y2="600.97" xlink:href="#linear-gradient"/><linearGradient id="linear-gradient-15" x1="448.6" y1="625.03" x2="416.63" y2="648.31" xlink:href="#linear-gradient-2"/><filter id="drop-shadow-6" filterUnits="userSpaceOnUse"><feOffset dx="0" dy="0"/><feGaussianBlur result="blur-6" stdDeviation=".88"/><feFlood flood-color="#010101" flood-opacity=".2"/><feComposite in2="blur-6" operator="in"/><feComposite in="SourceGraphic"/></filter><linearGradient id="linear-gradient-16" x1="420.57" y1="640.36" x2="434.53" y2="640.36" gradientUnits="userSpaceOnUse"><stop offset="0" stop-color="#2db24a"/><stop offset="1" stop-color="#226834"/></linearGradient><linearGradient id="linear-gradient-17" x1="448.6" y1="682.89" x2="416.63" y2="706.17" xlink:href="#linear-gradient-2"/><filter id="drop-shadow-7" filterUnits="userSpaceOnUse"><feOffset dx="0" dy="0"/><feGaussianBlur result="blur-7" stdDeviation=".88"/><feFlood flood-color="#010101" flood-opacity=".2"/><feComposite in2="blur-7" operator="in"/><feComposite in="SourceGraphic"/></filter><linearGradient id="linear-gradient-18" x1="438.13" y1="690.52" x2="408.45" y2="712.13" xlink:href="#linear-gradient"/><linearGradient id="linear-gradient-19" x1="448.6" y1="740.75" x2="416.63" y2="764.03" xlink:href="#linear-gradient-2"/><filter id="drop-shadow-8" filterUnits="userSpaceOnUse"><feOffset dx="0" dy="0"/><feGaussianBlur result="blur-8" stdDeviation=".88"/><feFlood flood-color="#010101" flood-opacity=".2"/><feComposite in2="blur-8" operator="in"/><feComposite in="SourceGraphic"/></filter><linearGradient id="linear-gradient-20" y1="756.08" x2="434.53" y2="756.08" xlink:href="#linear-gradient-16"/><linearGradient id="linear-gradient-21" x1="448.6" y1="798.61" x2="416.63" y2="821.89" xlink:href="#linear-gradient-2"/><filter id="drop-shadow-9" filterUnits="userSpaceOnUse"><feOffset dx="0" dy="0"/><feGaussianBlur result="blur-9" stdDeviation=".88"/><feFlood flood-color="#010101" flood-opacity=".2"/><feComposite in2="blur-9" operator="in"/><feComposite in="SourceGraphic"/></filter><linearGradient id="linear-gradient-22" x1="420.57" y1="813.94" x2="434.53" y2="813.94" xlink:href="#linear-gradient"/><linearGradient id="linear-gradient-23" x1="448.6" y1="853.49" x2="416.63" y2="876.77" xlink:href="#linear-gradient-2"/><filter id="drop-shadow-10" filterUnits="userSpaceOnUse"><feOffset dx="0" dy="0"/><feGaussianBlur result="blur-10" stdDeviation=".88"/><feFlood flood-color="#010101" flood-opacity=".2"/><feComposite in2="blur-10" operator="in"/><feComposite in="SourceGraphic"/></filter><linearGradient id="linear-gradient-24" y1="868.82" y2="868.82" xlink:href="#linear-gradient-16"/><linearGradient id="linear-gradient-25" x1="448.6" y1="951.35" x2="416.63" y2="974.63" xlink:href="#linear-gradient-2"/><filter id="drop-shadow-11" filterUnits="userSpaceOnUse"><feOffset dx="0" dy="0"/><feGaussianBlur result="blur-11" stdDeviation=".88"/><feFlood flood-color="#010101" flood-opacity=".2"/><feComposite in2="blur-11" operator="in"/><feComposite in="SourceGraphic"/></filter><linearGradient id="linear-gradient-26" x1="438.13" y1="958.98" x2="408.45" y2="980.59" xlink:href="#linear-gradient"/><linearGradient id="linear-gradient-27" x1="448.6" y1="1009.21" x2="416.63" y2="1032.49" xlink:href="#linear-gradient-2"/><filter id="drop-shadow-12" filterUnits="userSpaceOnUse"><feOffset dx="0" dy="0"/><feGaussianBlur result="blur-12" stdDeviation=".88"/><feFlood flood-color="#010101" flood-opacity=".2"/><feComposite in2="blur-12" operator="in"/><feComposite in="SourceGraphic"/></filter><linearGradient id="linear-gradient-28" y1="1024.54" x2="434.53" y2="1024.54" xlink:href="#linear-gradient-16"/><linearGradient id="linear-gradient-29" x1="448.6" y1="1067.07" x2="416.63" y2="1090.35" xlink:href="#linear-gradient-2"/><filter id="drop-shadow-13" filterUnits="userSpaceOnUse"><feOffset dx="0" dy="0"/><feGaussianBlur result="blur-13" stdDeviation=".88"/><feFlood flood-color="#010101" flood-opacity=".2"/><feComposite in2="blur-13" operator="in"/><feComposite in="SourceGraphic"/></filter><linearGradient id="linear-gradient-30" x1="420.57" y1="1082.4" x2="434.53" y2="1082.4" xlink:href="#linear-gradient"/><linearGradient id="linear-gradient-31" x1="448.6" y1="1124.93" x2="416.63" y2="1148.21" xlink:href="#linear-gradient-2"/><filter id="drop-shadow-14" filterUnits="userSpaceOnUse"><feOffset dx="0" dy="0"/><feGaussianBlur result="blur-14" stdDeviation=".88"/><feFlood flood-color="#010101" flood-opacity=".2"/><feComposite in2="blur-14" operator="in"/><feComposite in="SourceGraphic"/></filter><linearGradient id="linear-gradient-32" y1="1140.26" x2="434.53" y2="1140.26" xlink:href="#linear-gradient-16"/><linearGradient id="linear-gradient-33" x1="364.33" y1="481.81" x2="905.22" y2="481.81" xlink:href="#linear-gradient"/><filter id="drop-shadow-15" filterUnits="userSpaceOnUse"><feOffset dx="0" dy="2"/><feGaussianBlur result="blur-15" stdDeviation="2"/><feFlood flood-color="#010101" flood-opacity=".3"/><feComposite in2="blur-15" operator="in"/><feComposite in="SourceGraphic"/></filter><linearGradient id="linear-gradient-34" x1="565.63" y1="437.36" x2="842.1" y2="437.36" gradientTransform="translate(113.7 -121.04) rotate(11.4)" xlink:href="#linear-gradient"/><filter id="drop-shadow-16" filterUnits="userSpaceOnUse"><feOffset dx="0" dy="2"/><feGaussianBlur result="blur-16" stdDeviation="2"/><feFlood flood-color="#010101" flood-opacity=".3"/><feComposite in2="blur-16" operator="in"/><feComposite in="SourceGraphic"/></filter><linearGradient id="linear-gradient-35" x1="481.46" y1="498.12" x2="633.32" y2="498.12" gradientTransform="translate(113.7 -121.04) rotate(11.4)" xlink:href="#linear-gradient"/><filter id="drop-shadow-17" filterUnits="userSpaceOnUse"><feOffset dx="0" dy="2"/><feGaussianBlur result="blur-17" stdDeviation="2"/><feFlood flood-color="#010101" flood-opacity=".3"/><feComposite in2="blur-17" operator="in"/><feComposite in="SourceGraphic"/></filter></defs><polygon class="cls-6" points="372.96 166.3 108.38 270 108.38 926.56 377.95 1033.64 372.96 166.3"/><path class="cls-19" d="m185.05,837.77l29.2-5.58-29.2-15.7v-8.49l38.16,6.6v6.45l-12.92-2.23-15.91-3.38,28.83,15.72v4.67l-29.69,5.84,17.45,2.38,12.24,2.12v6.45l-38.16-6.63v-8.23Z"/><path class="cls-19" d="m208.53,790.47v7.29l14.68,2.57v6.47l-38.16-6.63.03-12.03c0-4.14,1-7.31,2.99-9.51,1.99-2.2,4.77-3.15,8.31-2.86,2.47.19,4.6,1.01,6.41,2.46s3.23,3.49,4.26,6.11l15.76-5.63.39.03v6.87l-14.68,4.88Zm-5.35,6.39l.05-6.26c0-2.25-.59-4.14-1.77-5.65-1.18-1.51-2.78-2.4-4.81-2.66-1.97-.26-3.49.09-4.55,1.05-1.06.96-1.62,2.42-1.69,4.38l-.03,6.92,12.79,2.23Z"/><path class="cls-19" d="m210.76,743.76c3.98.65,7.16,2.44,9.53,5.37,2.37,2.94,3.52,6.51,3.45,10.72-.05,2.43-.63,4.56-1.73,6.38-1.1,1.83-2.7,3.25-4.81,4.29-2.11,1.03-4.49,1.61-7.14,1.73-1.99.11-4.7-.14-8.14-.73s-6.51-1.73-9.24-3.42-4.78-3.76-6.16-6.21c-1.38-2.45-2.04-5.18-1.99-8.19.07-3.79,1.26-6.79,3.58-9,2.32-2.21,5.51-3.38,9.58-3.52v6.42c-2.73.09-4.7.66-5.91,1.72-1.21,1.06-1.85,2.62-1.9,4.7-.09,2.85.93,5.23,3.06,7.15,2.13,1.92,5.23,3.22,9.29,3.88l3.48.52,2.67.24c1.8.14,3.49.01,5.07-.38,1.58-.39,2.78-1.09,3.61-2.08.83-1,1.27-2.26,1.32-3.8.19-4.88-2.33-8-7.57-9.38l-.05-6.39Z"/><path class="cls-19" d="m197.89,722.61c-1.07,0-1.94-.34-2.61-1.01-.67-.67-1.03-1.53-1.06-2.58-.04-1.03.27-1.89.93-2.58s1.5-1.04,2.53-1.04,1.86.33,2.53,1c.67.67,1.03,1.53,1.06,2.59.04,1.03-.27,1.89-.92,2.58-.65.69-1.47,1.04-2.46,1.04Zm22.25,3.83c-1.07,0-1.93-.34-2.61-1.01-.67-.67-1.03-1.53-1.06-2.58-.03-1.03.27-1.89.93-2.58s1.5-1.04,2.53-1.04,1.86.33,2.53,1c.67.66,1.03,1.53,1.06,2.59.03,1.03-.27,1.89-.92,2.58-.65.69-1.47,1.04-2.46,1.04Z"/><path class="cls-19" d="m166.25,642.75v9.53c2.57-.81,5.21-1.15,7.92-1.03l-.04-9.35,8.14,3.58v6.31c5.01,1.64,8.79,4.23,11.34,7.76,2.55,3.54,4.12,8.41,4.72,14.61l24.21-16.02h.67v12.26l-27.03,17.85-6.35-1.07.09-10.43c0-6.06-2.58-10.59-7.74-13.6l.09,23.76-8.14-3.62v-20.94c-4.44.42-6.74,3.52-6.89,9.31l-.04,12.66-9.13-3.98v-41.3l8.19,3.71Z"/><path class="cls-19" d="m223.21,592.45v10.56l-52.09-9.04,5.46,16.47-9.62-1.66-9.13-25.77v-1.61l65.38,11.05Z"/><path class="cls-19" d="m190.77,561.84l-32.71-8.55v-34.1l9.4,1.48v25.1l15.62,4.61c-1.73-3.04-2.6-6.35-2.6-9.94.06-5.52,2.09-9.76,6.09-12.73,4-2.97,9.17-4.18,15.53-3.65,6.53.54,11.87,2.98,16.02,7.34,4.15,4.36,6.16,9.74,6.04,16.15-.12,5.43-1.86,9.84-5.24,13.22-3.37,3.39-7.82,5.17-13.33,5.35v-10.16c3.04-.21,5.42-1.07,7.14-2.57s2.6-3.62,2.66-6.33c.09-3.31-1.12-6.09-3.62-8.35-2.51-2.25-5.85-3.6-10.02-4.05-3.7-.36-6.69.25-8.97,1.83s-3.45,3.94-3.51,7.07c-.06,1.91.25,3.62.92,5.12.67,1.51,1.6,2.98,2.8,4.41l-2.19,8.73Z"/><path class="cls-19" d="m237.89,518.84l-3.58,5.68c-4.71-3.52-8.85-5.68-12.4-6.49l-9.22-1.66v-9.53l7.2,1.16c7.37,1.19,13.36,4.8,17.99,10.83Z"/><path class="cls-19" d="m224.1,477.76c-.12,5.64-2.07,9.91-5.84,12.8-3.77,2.89-9.06,4.3-15.86,4.21-2.21-.03-4.42-.18-6.62-.45l-11.63-1.75c-9.13-1.46-15.94-4.28-20.45-8.46-4.5-4.18-6.68-9.58-6.53-16.2.12-5.61,2.03-9.87,5.73-12.78,3.7-2.91,8.95-4.32,15.75-4.23,2.24.03,4.45.18,6.62.45l11.32,1.75c9.34,1.52,16.3,4.35,20.88,8.48,4.58,4.13,6.79,9.52,6.65,16.18Zm-40.59-16.06c-3.4-.39-5.82-.58-7.25-.58-6.74.15-10.22,2.61-10.43,7.38-.15,3.64,1.18,6.56,3.98,8.77,2.8,2.21,7.26,3.76,13.38,4.65l14.19,2.06c3.07.36,5.5.52,7.29.49,6.98,0,10.58-2.45,10.78-7.34.39-6.74-4.88-11.08-15.8-13.02l-16.15-2.42Z"/><path class="cls-19" d="m224.1,426.79c-.12,5.64-2.07,9.9-5.84,12.8-3.77,2.89-9.06,4.3-15.86,4.21-2.21-.03-4.42-.18-6.62-.45l-11.63-1.75c-9.13-1.46-15.94-4.28-20.45-8.46-4.5-4.18-6.68-9.58-6.53-16.2.12-5.61,2.03-9.87,5.73-12.78,3.7-2.91,8.95-4.32,15.75-4.23,2.24.03,4.45.18,6.62.45l11.32,1.75c9.34,1.52,16.3,4.35,20.88,8.48,4.58,4.13,6.79,9.52,6.65,16.18Zm-40.59-16.06c-3.4-.39-5.82-.58-7.25-.58-6.74.15-10.22,2.61-10.43,7.38-.15,3.64,1.18,6.56,3.98,8.77,2.8,2.21,7.26,3.76,13.38,4.65l14.19,2.06c3.07.36,5.5.52,7.29.49,6.98,0,10.58-2.45,10.78-7.34.39-6.74-4.88-11.08-15.8-13.02l-16.15-2.42Z"/><path class="cls-19" d="m224.1,375.82c-.12,5.64-2.07,9.9-5.84,12.8-3.77,2.89-9.06,4.3-15.86,4.21-2.21-.03-4.42-.18-6.62-.45l-11.63-1.75c-9.13-1.46-15.94-4.28-20.45-8.46-4.5-4.18-6.68-9.58-6.53-16.2.12-5.61,2.03-9.87,5.73-12.78,3.7-2.91,8.95-4.32,15.75-4.23,2.24.03,4.45.18,6.62.45l11.32,1.75c9.34,1.52,16.3,4.35,20.88,8.48,4.58,4.13,6.79,9.52,6.65,16.18Zm-40.59-16.06c-3.4-.39-5.82-.58-7.25-.58-6.74.15-10.22,2.61-10.43,7.38-.15,3.64,1.18,6.56,3.98,8.77,2.8,2.21,7.26,3.76,13.38,4.65l14.19,2.06c3.07.36,5.5.52,7.29.49,6.98,0,10.58-2.45,10.78-7.34.39-6.74-4.88-11.08-15.8-13.02l-16.15-2.42Z"/><path class="cls-19" d="m281.32,462.46v7.18c1.93-.61,3.92-.86,5.96-.77l-.03-7.04,6.13,2.7v4.75c3.77,1.24,6.62,3.18,8.54,5.85,1.92,2.66,3.11,6.33,3.55,11l18.23-12.06h.51v9.23l-20.35,13.44-4.78-.81.07-7.85c0-4.56-1.94-7.97-5.83-10.24l.07,17.89-6.13-2.73v-15.77c-3.35.31-5.08,2.65-5.19,7.01l-.03,9.53-6.87-3v-31.1l6.17,2.8Z"/><path class="cls-19" d="m324.21,424.59v7.95l-39.22-6.81,4.11,12.4-7.24-1.25-6.87-19.41v-1.21l49.22,8.32Z"/><path class="cls-19" d="m287.82,371.29c4.87.4,8.65,3.28,11.32,8.62,1.28-2,2.91-3.49,4.89-4.46,1.98-.98,4.16-1.38,6.54-1.2,4.31.29,7.8,2.06,10.46,5.29,2.66,3.23,3.95,7.24,3.86,12.03-.09,4.36-1.39,7.82-3.89,10.39-2.5,2.57-5.79,3.71-9.85,3.42-5.46-.4-9.59-3.67-12.4-9.8-1.21,1.68-2.72,2.93-4.53,3.74s-3.75,1.15-5.81,1.01c-4.22-.31-7.62-1.98-10.19-4.99-2.57-3.01-3.81-6.75-3.72-11.22.07-2.67.66-5.03,1.79-7.06,1.12-2.03,2.7-3.55,4.72-4.57s4.3-1.42,6.84-1.21Zm.27,8.02c-2.02-.2-3.69.17-5.02,1.13-1.33.95-2.01,2.36-2.06,4.23-.04,2.04.65,3.79,2.09,5.24,1.44,1.45,3.3,2.3,5.59,2.54,2.11.2,3.81-.18,5.09-1.15,1.28-.97,1.94-2.36,1.99-4.18.05-2.07-.66-3.82-2.12-5.27-1.46-1.45-3.31-2.3-5.56-2.54Zm22.07,2.83c-2.27-.25-4.14.19-5.61,1.31-1.47,1.12-2.23,2.74-2.27,4.85-.04,2.38.74,4.41,2.34,6.1,1.61,1.68,3.63,2.66,6.08,2.93,2.31.25,4.16-.2,5.54-1.35,1.38-1.15,2.09-2.76,2.14-4.85.05-2.43-.71-4.46-2.26-6.11-1.55-1.65-3.54-2.61-5.96-2.88Z"/><path class="cls-19" d="m335.26,369.17l-2.7,4.28c-3.55-2.65-6.66-4.28-9.33-4.89l-6.94-1.25v-7.18l5.42.88c5.55.9,10.06,3.62,13.54,8.15Z"/><path class="cls-19" d="m324.88,338.24c-.09,4.25-1.56,7.46-4.4,9.64-2.84,2.18-6.82,3.23-11.94,3.17-1.66-.02-3.32-.13-4.99-.34l-8.76-1.31c-6.87-1.1-12.01-3.22-15.4-6.37-3.39-3.14-5.03-7.21-4.92-12.2.09-4.22,1.53-7.43,4.31-9.62,2.79-2.19,6.74-3.25,11.86-3.18,1.68.02,3.35.13,4.99.34l8.52,1.31c7.03,1.15,12.27,3.27,15.72,6.38s5.12,7.17,5,12.18Zm-30.56-12.1c-2.56-.29-4.38-.44-5.46-.44-5.08.11-7.69,1.97-7.85,5.56-.11,2.74.89,4.94,3,6.6,2.11,1.66,5.47,2.83,10.07,3.5l10.68,1.55c2.31.27,4.14.39,5.49.37,5.26,0,7.96-1.84,8.12-5.53.29-5.08-3.67-8.34-11.89-9.8l-12.16-1.82Z"/><path class="cls-19" d="m324.88,299.87c-.09,4.25-1.56,7.46-4.4,9.64-2.84,2.18-6.82,3.23-11.94,3.17-1.66-.02-3.32-.13-4.99-.34l-8.76-1.31c-6.87-1.1-12.01-3.22-15.4-6.37-3.39-3.14-5.03-7.21-4.92-12.2.09-4.22,1.53-7.43,4.31-9.62,2.79-2.19,6.74-3.25,11.86-3.18,1.68.02,3.35.13,4.99.34l8.52,1.31c7.03,1.15,12.27,3.27,15.72,6.38s5.12,7.17,5,12.18Zm-30.56-12.1c-2.56-.29-4.38-.44-5.46-.44-5.08.11-7.69,1.97-7.85,5.56-.11,2.74.89,4.94,3,6.6,2.11,1.66,5.47,2.83,10.07,3.5l10.68,1.55c2.31.27,4.14.39,5.49.37,5.26,0,7.96-1.84,8.12-5.53.29-5.08-3.67-8.34-11.89-9.8l-12.16-1.82Z"/><path class="cls-19" d="m324.88,261.49c-.09,4.25-1.56,7.46-4.4,9.64-2.84,2.18-6.82,3.23-11.94,3.17-1.66-.02-3.32-.13-4.99-.34l-8.76-1.31c-6.87-1.1-12.01-3.22-15.4-6.37-3.39-3.14-5.03-7.21-4.92-12.2.09-4.22,1.53-7.43,4.31-9.62,2.79-2.19,6.74-3.25,11.86-3.18,1.68.02,3.35.13,4.99.34l8.52,1.31c7.03,1.15,12.27,3.27,15.72,6.38s5.12,7.17,5,12.18Zm-30.56-12.1c-2.56-.29-4.38-.44-5.46-.44-5.08.11-7.69,1.97-7.85,5.56-.11,2.74.89,4.94,3,6.6,2.11,1.66,5.47,2.83,10.07,3.5l10.68,1.55c2.31.27,4.14.39,5.49.37,5.26,0,7.96-1.84,8.12-5.53.29-5.08-3.67-8.34-11.89-9.8l-12.16-1.82Z"/><line class="cls-42" x1="294.59" y1="517.95" x2="294.59" y2="229.71"/><path class="cls-3" d="m822.63,1.12h-458.77v1113.51c0,44.21,37.76,80.05,84.35,80.05h458.77V81.17c0-44.21-37.77-80.05-84.35-80.05Z"/><path class="cls-1" d="m827.91,2.21h-461.66v391.82c136.74,187.27,276.59-86.43,546.54,64.82V87.2c0-46.94-38-84.99-84.88-84.99Z"/><path class="cls-13" d="m366.25,131.46c52.25,80.85,144.82,148.16,260.18,179.14,101.13,27.16,201.04,21.31,281.91-10.04V90.75c0-46.5-37.7-84.19-84.19-84.19h-457.9v124.9Z"/><path class="cls-15" d="m799.74,417.66l95.95-371.13c-10.51-16.96-26.8-29.94-46.19-36.06l-103.74,401.27c17.32.39,35.3,2.21,53.98,5.92Z"/><path class="cls-8" d="m559.81,6.56l-116.34,450.01c17.57,5.66,35.56,6.78,54.2,5.06L615.32,6.56h-55.51Z"/><path class="cls-34" d="m824.15,6.56h-23.79l-105.47,407.96c17.98-2.31,36.67-3.41,56.2-2.64L854.4,12.25c-9.4-3.63-19.57-5.69-30.25-5.69Z"/><path class="cls-24" d="m825.42.55h-461.66v391.82c136.74,187.27,276.59-86.43,546.54,64.82V85.54c0-46.94-38-84.99-84.88-84.99Z"/><path class="cls-2" d="m363.76,129.8c52.25,80.85,144.82,148.16,260.18,179.14,101.13,27.16,201.04,21.31,281.91-10.04V89.09c0-46.5-37.7-84.19-84.19-84.19h-457.9v124.9Z"/><path class="cls-7" d="m797.25,416l95.95-371.13c-10.51-16.96-26.8-29.94-46.19-36.06l-103.74,401.27c17.32.39,35.3,2.21,53.98,5.92Z"/><path class="cls-41" d="m557.32,4.9l-116.34,450.01c17.57,5.66,35.56,6.78,54.2,5.06L612.83,4.9h-55.51Z"/><path class="cls-10" d="m821.66,4.9h-23.79l-105.47,407.96c17.98-2.31,36.67-3.41,56.2-2.64L851.91,10.59c-9.4-3.63-19.57-5.69-30.25-5.69Z"/><path class="cls-4" d="m441.45,582.5c0,7.68-6.22,13.9-13.9,13.9h0c-7.68,0-13.9-6.22-13.9-13.9h0c0-7.68,6.22-13.9,13.9-13.9h0c7.68,0,13.9,6.22,13.9,13.9h0Z"/><path class="cls-22" d="m434.53,582.5c0,3.86-3.13,6.99-6.98,6.99h0c-3.86,0-6.98-3.13-6.98-6.99h0c0-3.86,3.13-6.99,6.98-6.99h0c3.86,0,6.98,3.13,6.98,6.99h0Z"/><path class="cls-12" d="m441.45,640.36c0,7.68-6.22,13.9-13.9,13.9h0c-7.68,0-13.9-6.22-13.9-13.9h0c0-7.68,6.22-13.9,13.9-13.9h0c7.68,0,13.9,6.22,13.9,13.9h0Z"/><path class="cls-17" d="m434.53,640.36c0,3.86-3.13,6.99-6.98,6.99h0c-3.86,0-6.98-3.13-6.98-6.99h0c0-3.86,3.13-6.99,6.98-6.99h0c3.86,0,6.98,3.13,6.98,6.99h0Z"/><path class="cls-26" d="m441.45,698.22c0,7.68-6.22,13.9-13.9,13.9h0c-7.68,0-13.9-6.22-13.9-13.9h0c0-7.68,6.22-13.9,13.9-13.9h0c7.68,0,13.9,6.22,13.9,13.9h0Z"/><path class="cls-32" d="m434.53,698.22c0,3.86-3.13,6.98-6.98,6.98h0c-3.86,0-6.98-3.13-6.98-6.98h0c0-3.86,3.13-6.99,6.98-6.99h0c3.86,0,6.98,3.13,6.98,6.99h0Z"/><path class="cls-38" d="m441.45,756.08c0,7.68-6.22,13.9-13.9,13.9h0c-7.68,0-13.9-6.22-13.9-13.9h0c0-7.68,6.22-13.9,13.9-13.9h0c7.68,0,13.9,6.22,13.9,13.9h0Z"/><path class="cls-21" d="m434.53,756.08c0,3.86-3.13,6.99-6.98,6.99h0c-3.86,0-6.98-3.13-6.98-6.99h0c0-3.86,3.13-6.99,6.98-6.99h0c3.86,0,6.98,3.13,6.98,6.99h0Z"/><path class="cls-5" d="m441.45,813.94c0,7.68-6.22,13.9-13.9,13.9h0c-7.68,0-13.9-6.22-13.9-13.9h0c0-7.68,6.22-13.9,13.9-13.9h0c7.68,0,13.9,6.22,13.9,13.9h0Z"/><path class="cls-18" d="m434.53,813.94c0,3.86-3.13,6.99-6.98,6.99h0c-3.86,0-6.98-3.13-6.98-6.99h0c0-3.86,3.13-6.99,6.98-6.99h0c3.86,0,6.98,3.13,6.98,6.99h0Z"/><path class="cls-39" d="m441.45,868.82c0,7.68-6.22,13.9-13.9,13.9h0c-7.68,0-13.9-6.22-13.9-13.9h0c0-7.68,6.22-13.9,13.9-13.9h0c7.68,0,13.9,6.22,13.9,13.9h0Z"/><path class="cls-30" d="m434.53,868.82c0,3.86-3.13,6.99-6.98,6.99h0c-3.86,0-6.98-3.13-6.98-6.99h0c0-3.86,3.13-6.99,6.98-6.99h0c3.86,0,6.98,3.13,6.98,6.99h0Z"/><path class="cls-29" d="m441.45,966.68c0,7.68-6.22,13.9-13.9,13.9h0c-7.68,0-13.9-6.22-13.9-13.9h0c0-7.68,6.22-13.9,13.9-13.9h0c7.68,0,13.9,6.22,13.9,13.9h0Z"/><path class="cls-31" d="m434.53,966.68c0,3.86-3.13,6.98-6.98,6.98h0c-3.86,0-6.98-3.13-6.98-6.98h0c0-3.86,3.13-6.99,6.98-6.99h0c3.86,0,6.98,3.13,6.98,6.99h0Z"/><path class="cls-27" d="m441.45,1024.54c0,7.68-6.22,13.9-13.9,13.9h0c-7.68,0-13.9-6.22-13.9-13.9h0c0-7.68,6.22-13.9,13.9-13.9h0c7.68,0,13.9,6.22,13.9,13.9h0Z"/><path class="cls-37" d="m434.53,1024.54c0,3.86-3.13,6.99-6.98,6.99h0c-3.86,0-6.98-3.13-6.98-6.99h0c0-3.86,3.13-6.99,6.98-6.99h0c3.86,0,6.98,3.13,6.98,6.99h0Z"/><path class="cls-35" d="m441.45,1082.4c0,7.68-6.22,13.9-13.9,13.9h0c-7.68,0-13.9-6.22-13.9-13.9h0c0-7.68,6.22-13.9,13.9-13.9h0c7.68,0,13.9,6.22,13.9,13.9h0Z"/><path class="cls-33" d="m434.53,1082.4c0,3.86-3.13,6.99-6.98,6.99h0c-3.86,0-6.98-3.13-6.98-6.99h0c0-3.86,3.13-6.99,6.98-6.99h0c3.86,0,6.98,3.13,6.98,6.99h0Z"/><path class="cls-40" d="m441.45,1140.26c0,7.68-6.22,13.9-13.9,13.9h0c-7.68,0-13.9-6.22-13.9-13.9h0c0-7.68,6.22-13.9,13.9-13.9h0c7.68,0,13.9,6.22,13.9,13.9h0Z"/><path class="cls-20" d="m434.53,1140.26c0,3.86-3.13,6.99-6.98,6.99h0c-3.86,0-6.98-3.13-6.98-6.99h0c0-3.86,3.13-6.99,6.98-6.99h0c3.86,0,6.98,3.13,6.98,6.99h0Z"/><path class="cls-28" d="m597.24,492.93c5.15,18.53,27.25,28.58,49.37,22.44,22.12-6.14,35.88-26.15,30.74-44.68-5.15-18.53-27.25-28.58-49.37-22.44-22.12,6.14-35.88,26.15-30.74,44.68Z"/><path class="cls-23" d="m697.34,448.58c.71,9.81,10.77,17.07,22.47,16.23,11.7-.84,20.62-9.48,19.91-19.28-.71-9.81-10.77-17.07-22.47-16.23-11.7.84-20.62,9.48-19.91,19.28Z"/><path class="cls-11" d="m550.73,478.39c.39,5.39,5.91,9.38,12.34,8.91,6.43-.46,11.33-5.21,10.94-10.59-.39-5.39-5.91-9.38-12.34-8.91-6.43.46-11.33,5.21-10.94,10.59Z"/><path class="cls-19" d="m474.16,217.85h-22.42l19.19-110.58-34.96,11.59,3.51-20.42,54.72-19.38h3.42l-23.46,138.79Z"/><path class="cls-19" d="m527.84,229.72h-18.62l78.85-150.19h18.71l-78.94,150.19Z"/><path class="cls-19" d="m681.64,168.54h16.72l-3.23,18.52h-16.62l-5.42,30.78h-22.51l5.32-30.78h-57.95l2-15.2,73.15-92.34h24.03l-15.48,89.01Zm-56.81,0h34.29l10.73-58.04-2.28,3.23-42.75,54.81Z"/><path class="cls-14" d="m824.15,6.56h-457.9v1074.47c0,46.49,37.69,84.19,84.19,84.19h457.9V90.75c0-46.5-37.7-84.19-84.19-84.19Z"/><path class="cls-19" d="m365.65,278.65h329.43c24.1,0,43.67,19.57,43.67,43.67h0c0,24.1-19.57,43.67-43.67,43.67h-329.43v-87.34h0Z"/><path class="cls-16" d="m445.83,348.13l11.97-56.3h23.39c2.75,0,5.11.73,7.1,2.18,1.98,1.45,3.49,3.34,4.52,5.67,1.03,2.33,1.55,4.78,1.55,7.37,0,2.11-.36,4.2-1.07,6.26-.71,2.06-1.72,3.99-3.01,5.79-1.3,1.8-2.8,3.36-4.52,4.68-1.72,1.32-3.58,2.3-5.59,2.93l7.93,21.41h-10.07l-7.29-19.58h-11.81l-4.12,19.58h-8.96Zm29.1-27.44c1.32,0,2.59-.36,3.81-1.07,1.22-.71,2.31-1.68,3.29-2.89.98-1.22,1.74-2.58,2.3-4.08.56-1.51.83-3.05.83-4.64s-.27-3-.79-4.24c-.53-1.24-1.26-2.23-2.18-2.97-.93-.74-2-1.11-3.21-1.11h-13.88l-4.52,21.01h14.35Z"/><path class="cls-16" d="m510.3,348.93c-3.07,0-5.71-.76-7.93-2.28s-3.91-3.56-5.07-6.13c-1.16-2.57-1.74-5.42-1.74-8.56,0-3.35.61-6.56,1.82-9.62,1.22-3.06,2.89-5.79,5.04-8.17,2.14-2.38,4.59-4.28,7.33-5.7,2.75-1.41,5.63-2.12,8.64-2.12s5.55.81,7.61,2.44,3.49,3.64,4.28,6.05l1.67-7.85h8.8l-6.66,30.5c-.05.26-.09.48-.12.66-.03.18-.04.35-.04.51,0,1.04.61,1.58,1.82,1.63l-1.59,7.45c-.74.11-1.4.2-1.98.28-.58.08-1.11.12-1.59.12-1.64,0-2.91-.33-3.81-1.01-.9-.67-1.35-1.63-1.35-2.87,0-.25.01-.55.04-.89.03-.35.08-.75.16-1.19.08-.45.2-.94.36-1.49-2.06,2.62-4.51,4.65-7.33,6.09-2.83,1.44-5.62,2.16-8.37,2.16Zm3.81-7.45c1.06,0,2.18-.21,3.37-.62,1.19-.42,2.35-.99,3.49-1.71,1.14-.73,2.18-1.58,3.13-2.57.95-.99,1.72-2.05,2.3-3.19l2.22-10.76c-.21-1.66-.77-3.16-1.67-4.48-.9-1.33-2-2.38-3.29-3.16-1.3-.78-2.68-1.17-4.16-1.17-2.01,0-3.9.48-5.67,1.45-1.77.96-3.33,2.25-4.68,3.87-1.35,1.62-2.42,3.41-3.21,5.39-.79,1.98-1.19,3.99-1.19,6.02s.38,3.93,1.15,5.55c.77,1.62,1.85,2.92,3.25,3.91,1.4.99,3.05,1.49,4.96,1.49Z"/><path class="cls-16" d="m560.81,348.93c-3.6,0-6.62-.79-9.08-2.36-2.46-1.57-4.32-3.67-5.59-6.29s-1.9-5.53-1.9-8.72.63-6.45,1.9-9.47c1.27-3.01,3.04-5.7,5.31-8.05,2.27-2.36,4.96-4.23,8.05-5.62,3.09-1.39,6.46-2.08,10.11-2.08,4.28,0,7.69.94,10.23,2.81,2.54,1.88,4.2,4.38,5,7.49l-9.04,2.7c-.58-1.8-1.52-3.17-2.81-4.12-1.3-.95-2.92-1.43-4.88-1.43s-3.74.43-5.51,1.29c-1.77.86-3.36,2.06-4.76,3.6-1.4,1.54-2.51,3.31-3.33,5.31-.82,2.01-1.23,4.18-1.23,6.53,0,2.14.37,4.01,1.11,5.63.74,1.62,1.78,2.91,3.13,3.87,1.35.96,2.89,1.45,4.64,1.45,1.32,0,2.66-.25,4-.75,1.35-.5,2.58-1.19,3.69-2.06,1.11-.87,1.96-1.84,2.54-2.89l8.01,2.54c-1.27,2.06-2.92,3.89-4.96,5.47-2.04,1.59-4.3,2.84-6.78,3.77-2.48.92-5.1,1.39-7.85,1.39Z"/><path class="cls-16" d="m597.52,290.25h8.72l-12.29,57.88h-8.72l12.29-57.88Zm6.74,38.52c4.76-1.05,8.38-2.67,10.86-4.86,2.48-2.2,3.73-4.47,3.73-6.82,0-1.25-.33-2.16-.99-2.7-.66-.55-1.55-.82-2.66-.82-2.17,0-4.41.79-6.74,2.35-2.33,1.57-4.48,3.66-6.46,6.28-1.98,2.62-3.48,5.47-4.48,8.55l1.74-11.33c1.64-2.47,3.44-4.68,5.39-6.65,1.96-1.97,4.07-3.53,6.34-4.68,2.27-1.15,4.7-1.73,7.29-1.73,2.85,0,4.98.79,6.38,2.36,1.4,1.57,2.1,3.65,2.1,6.22,0,3.41-1.08,6.54-3.25,9.4-2.17,2.86-5.31,5.21-9.44,7.04l8.48,16.76h-9.36l-8.96-19.36Z"/><path class="cls-16" d="m481.25,583.09h-4.32v8.57h-3.87v-22.28h7.84c2.57,0,4.56.58,5.95,1.73s2.1,2.82,2.1,5.01c0,1.49-.36,2.74-1.08,3.75-.72,1.01-1.72,1.78-3.01,2.32l5,9.28v.2h-4.15l-4.47-8.57Zm-4.32-3.12h3.98c1.31,0,2.33-.33,3.06-.99.73-.66,1.1-1.56,1.1-2.7s-.34-2.12-1.02-2.77c-.68-.65-1.69-.99-3.04-1.01h-4.09v7.47Z"/><path class="cls-16" d="m502.15,591.66c-.16-.32-.31-.83-.43-1.55-1.18,1.23-2.63,1.85-4.35,1.85s-3.02-.47-4.07-1.42-1.58-2.12-1.58-3.52c0-1.76.66-3.12,1.97-4.06,1.31-.94,3.19-1.42,5.62-1.42h2.28v-1.09c0-.86-.24-1.54-.72-2.06-.48-.51-1.21-.77-2.19-.77-.85,0-1.54.21-2.08.63-.54.42-.81.96-.81,1.61h-3.72c0-.91.3-1.76.9-2.55.6-.79,1.42-1.41,2.46-1.86s2.19-.67,3.47-.67c1.94,0,3.48.49,4.64,1.46,1.15.97,1.74,2.34,1.78,4.11v7.47c0,1.49.21,2.68.63,3.57v.26h-3.8Zm-4.09-2.68c.73,0,1.43-.18,2.07-.54.65-.36,1.13-.84,1.46-1.44v-3.12h-2c-1.38,0-2.41.24-3.11.72s-1.04,1.16-1.04,2.04c0,.71.24,1.28.71,1.71.47.42,1.11.63,1.91.63Z"/><path class="cls-16" d="m516.02,589c.93,0,1.7-.27,2.31-.81.61-.54.94-1.21.98-2h3.5c-.04,1.03-.36,1.99-.96,2.89-.6.89-1.42,1.6-2.45,2.12-1.03.52-2.14.78-3.34.78-2.32,0-4.15-.75-5.51-2.25s-2.04-3.57-2.04-6.21v-.38c0-2.52.67-4.54,2.02-6.05,1.35-1.52,3.18-2.27,5.51-2.27,1.97,0,3.57.57,4.81,1.72,1.24,1.15,1.89,2.66,1.95,4.52h-3.5c-.04-.95-.36-1.73-.97-2.34-.61-.61-1.38-.92-2.32-.92-1.2,0-2.13.44-2.79,1.31-.65.87-.98,2.2-.99,3.97v.6c0,1.8.32,3.14.97,4.02.65.88,1.58,1.32,2.81,1.32Z"/><path class="cls-16" d="m531,584.56l-1.65,1.7v5.4h-3.72v-23.51h3.72v13.56l1.16-1.45,4.58-5.16h4.47l-6.15,6.9,6.81,9.66h-4.3l-4.91-7.1Z"/><path class="cls-16" d="m561.8,585.92c0-.98-.34-1.73-1.03-2.27-.69-.53-1.93-1.07-3.73-1.61-1.8-.54-3.22-1.14-4.29-1.81-2.03-1.28-3.05-2.94-3.05-4.99,0-1.79.73-3.27,2.2-4.44,1.46-1.16,3.36-1.75,5.7-1.75,1.55,0,2.93.29,4.15.86,1.21.57,2.17,1.38,2.86,2.44.69,1.06,1.04,2.23,1.04,3.51h-3.86c0-1.16-.36-2.07-1.09-2.73-.73-.66-1.77-.99-3.13-.99-1.27,0-2.25.27-2.95.81-.7.54-1.05,1.3-1.05,2.27,0,.82.38,1.5,1.13,2.04.75.55,2,1.08,3.73,1.59,1.73.52,3.13,1.1,4.18,1.76s1.82,1.41,2.31,2.27c.49.85.73,1.85.73,2.99,0,1.86-.71,3.33-2.14,4.43s-3.35,1.64-5.79,1.64c-1.61,0-3.09-.3-4.45-.89-1.35-.6-2.4-1.42-3.15-2.47s-1.12-2.28-1.12-3.67h3.87c0,1.27.42,2.25,1.25,2.94.84.69,2.04,1.04,3.6,1.04,1.35,0,2.36-.27,3.04-.82.68-.55,1.02-1.27,1.02-2.17Z"/><path class="cls-16" d="m583.21,583.55c0,2.56-.58,4.6-1.74,6.13-1.16,1.53-2.72,2.29-4.68,2.29-1.82,0-3.27-.6-4.36-1.79v7.85h-3.72v-22.93h3.43l.15,1.68c1.09-1.33,2.58-1.99,4.45-1.99,2.02,0,3.6.75,4.75,2.26s1.72,3.59,1.72,6.27v.23Zm-3.7-.32c0-1.65-.33-2.96-.99-3.93s-1.6-1.45-2.82-1.45c-1.52,0-2.61.63-3.28,1.88v7.35c.67,1.29,1.78,1.93,3.31,1.93,1.18,0,2.11-.48,2.78-1.43.67-.95,1-2.4,1-4.34Z"/><path class="cls-16" d="m596.25,591.66c-.16-.32-.31-.83-.43-1.55-1.18,1.23-2.63,1.85-4.35,1.85s-3.02-.47-4.07-1.42-1.58-2.12-1.58-3.52c0-1.76.66-3.12,1.97-4.06,1.31-.94,3.19-1.42,5.62-1.42h2.28v-1.09c0-.86-.24-1.54-.72-2.06-.48-.51-1.21-.77-2.19-.77-.85,0-1.54.21-2.08.63-.54.42-.81.96-.81,1.61h-3.72c0-.91.3-1.76.9-2.55.6-.79,1.42-1.41,2.46-1.86s2.19-.67,3.47-.67c1.94,0,3.48.49,4.64,1.46,1.15.97,1.74,2.34,1.78,4.11v7.47c0,1.49.21,2.68.63,3.57v.26h-3.8Zm-4.09-2.68c.73,0,1.43-.18,2.07-.54.65-.36,1.13-.84,1.46-1.44v-3.12h-2c-1.38,0-2.41.24-3.11.72s-1.04,1.16-1.04,2.04c0,.71.24,1.28.71,1.71.47.42,1.11.63,1.91.63Z"/><path class="cls-16" d="m610.11,589c.93,0,1.7-.27,2.31-.81.61-.54.94-1.21.98-2h3.5c-.04,1.03-.36,1.99-.96,2.89-.6.89-1.42,1.6-2.45,2.12-1.03.52-2.14.78-3.34.78-2.32,0-4.15-.75-5.51-2.25s-2.04-3.57-2.04-6.21v-.38c0-2.52.67-4.54,2.02-6.05,1.35-1.52,3.18-2.27,5.51-2.27,1.97,0,3.57.57,4.81,1.72,1.24,1.15,1.89,2.66,1.95,4.52h-3.5c-.04-.95-.36-1.73-.97-2.34-.61-.61-1.38-.92-2.32-.92-1.2,0-2.13.44-2.79,1.31-.65.87-.98,2.2-.99,3.97v.6c0,1.8.32,3.14.97,4.02.65.88,1.58,1.32,2.81,1.32Z"/><path class="cls-16" d="m627.01,591.96c-2.36,0-4.27-.74-5.73-2.23-1.46-1.48-2.2-3.46-2.2-5.93v-.46c0-1.65.32-3.13.96-4.43.64-1.3,1.53-2.31,2.69-3.04,1.15-.72,2.44-1.09,3.86-1.09,2.25,0,4,.72,5.23,2.16s1.84,3.47,1.84,6.11v1.5h-10.82c.11,1.37.57,2.45,1.37,3.25s1.81,1.19,3.02,1.19c1.7,0,3.09-.69,4.16-2.07l2,1.91c-.66.99-1.55,1.76-2.66,2.3s-2.35.82-3.73.82Zm-.44-14.19c-1.02,0-1.84.36-2.47,1.07-.63.71-1.03,1.71-1.2,2.99h7.09v-.28c-.08-1.24-.41-2.19-1-2.82s-1.39-.96-2.42-.96Z"/><path class="cls-16" d="m646.58,574.75c.69,0,1.23.2,1.61.59s.57.88.57,1.48-.19,1.06-.57,1.45-.91.57-1.61.57-1.19-.19-1.58-.57c-.39-.38-.58-.86-.58-1.45s.19-1.08.57-1.48.91-.59,1.59-.59Zm0,12.99c.69,0,1.23.2,1.61.59.38.39.57.89.57,1.48s-.19,1.06-.57,1.45c-.38.38-.91.57-1.61.57s-1.19-.19-1.58-.57c-.39-.38-.58-.86-.58-1.45s.19-1.08.57-1.48c.38-.39.91-.59,1.59-.59Z"/><path class="cls-25" d="m670.21,591.66h-3.7v-17.9l-5.46,1.86v-3.12l8.69-3.2h.47v22.36Z"/><path class="cls-25" d="m692.48,582.28c0,3.2-.6,5.62-1.8,7.25-1.2,1.63-3.02,2.44-5.47,2.44s-4.22-.79-5.44-2.38c-1.22-1.59-1.84-3.94-1.88-7.05v-3.86c0-3.2.6-5.61,1.8-7.21,1.2-1.6,3.03-2.4,5.49-2.4s4.26.78,5.46,2.34c1.2,1.56,1.81,3.9,1.84,7.01v3.86Zm-3.72-4.16c0-2.09-.29-3.62-.86-4.6s-1.48-1.46-2.72-1.46-2.11.46-2.68,1.38c-.57.92-.87,2.37-.9,4.32v5.05c0,2.08.29,3.63.87,4.65s1.49,1.53,2.74,1.53,2.08-.47,2.65-1.42c.57-.94.87-2.42.9-4.43v-5.04Z"/><path class="cls-25" d="m712.67,569.37v14.89c0,2.37-.76,4.24-2.27,5.62s-3.53,2.07-6.05,2.07-4.58-.68-6.08-2.04c-1.5-1.36-2.25-3.25-2.25-5.67v-14.88h3.86v14.91c0,1.49.38,2.63,1.13,3.41.75.79,1.87,1.18,3.34,1.18,2.98,0,4.47-1.57,4.47-4.71v-14.79h3.86Z"/><path class="cls-9" d="m481.25,640.95h-4.32v8.57h-3.87v-22.28h7.84c2.57,0,4.56.58,5.95,1.73s2.1,2.82,2.1,5.01c0,1.49-.36,2.74-1.08,3.75-.72,1.01-1.72,1.78-3.01,2.32l5,9.28v.2h-4.15l-4.47-8.57Zm-4.32-3.12h3.98c1.31,0,2.33-.33,3.06-.99.73-.66,1.1-1.56,1.1-2.7s-.34-2.12-1.02-2.77c-.68-.65-1.69-.99-3.04-1.01h-4.09v7.47Z"/><path class="cls-9" d="m502.15,649.52c-.16-.32-.31-.83-.43-1.55-1.18,1.23-2.63,1.85-4.35,1.85s-3.02-.47-4.07-1.42-1.58-2.12-1.58-3.52c0-1.76.66-3.12,1.97-4.06,1.31-.94,3.19-1.42,5.62-1.42h2.28v-1.09c0-.86-.24-1.54-.72-2.06-.48-.51-1.21-.77-2.19-.77-.85,0-1.54.21-2.08.63-.54.42-.81.96-.81,1.61h-3.72c0-.91.3-1.76.9-2.55.6-.79,1.42-1.41,2.46-1.86s2.19-.67,3.47-.67c1.94,0,3.48.49,4.64,1.46,1.15.97,1.74,2.34,1.78,4.11v7.47c0,1.49.21,2.68.63,3.57v.26h-3.8Zm-4.09-2.68c.73,0,1.43-.18,2.07-.54.65-.36,1.13-.84,1.46-1.44v-3.12h-2c-1.38,0-2.41.24-3.11.72s-1.04,1.16-1.04,2.04c0,.71.24,1.28.71,1.71.47.42,1.11.63,1.91.63Z"/><path class="cls-9" d="m513.88,628.93v4.03h2.92v2.75h-2.92v9.24c0,.63.12,1.09.38,1.37.25.28.7.42,1.34.42.43,0,.86-.05,1.3-.15v2.88c-.85.23-1.66.35-2.45.35-2.86,0-4.29-1.58-4.29-4.73v-9.38h-2.72v-2.75h2.72v-4.03h3.72Z"/><path class="cls-9" d="m526.93,649.82c-2.36,0-4.27-.74-5.73-2.23-1.46-1.48-2.2-3.46-2.2-5.93v-.46c0-1.65.32-3.13.96-4.43.64-1.3,1.53-2.31,2.69-3.04,1.15-.72,2.44-1.09,3.86-1.09,2.25,0,4,.72,5.23,2.16s1.84,3.47,1.84,6.11v1.5h-10.82c.11,1.37.57,2.45,1.37,3.25s1.81,1.19,3.02,1.19c1.7,0,3.09-.69,4.16-2.07l2,1.91c-.66.99-1.55,1.76-2.66,2.3s-2.35.82-3.73.82Zm-.44-14.19c-1.02,0-1.84.36-2.47,1.07-.63.71-1.03,1.71-1.2,2.99h7.09v-.28c-.08-1.24-.41-2.19-1-2.82s-1.39-.96-2.42-.96Z"/><path class="cls-9" d="m535.76,641.12c0-2.55.59-4.6,1.78-6.14s2.77-2.32,4.76-2.32c1.75,0,3.17.61,4.25,1.84v-8.48h3.72v23.51h-3.37l-.18-1.71c-1.11,1.35-2.6,2.02-4.45,2.02s-3.51-.78-4.71-2.34c-1.2-1.56-1.8-3.68-1.8-6.37Zm3.72.32c0,1.68.32,3,.97,3.94.65.94,1.57,1.42,2.76,1.42,1.52,0,2.63-.68,3.34-2.04v-7.07c-.68-1.33-1.79-1.99-3.31-1.99-1.2,0-2.13.48-2.79,1.43-.65.95-.98,2.39-.98,4.31Z"/><path class="cls-9" d="m566.19,641.25v8.26h-3.87v-22.28h8.52c2.49,0,4.47.65,5.93,1.95,1.46,1.3,2.2,3.01,2.2,5.15s-.72,3.89-2.15,5.1c-1.43,1.22-3.44,1.82-6.02,1.82h-4.61Zm0-3.12h4.65c1.38,0,2.43-.32,3.15-.97.72-.65,1.09-1.58,1.09-2.81s-.37-2.17-1.1-2.88c-.73-.72-1.74-1.09-3.03-1.11h-4.76v7.77Z"/><path class="cls-9" d="m581.1,641.08c0-1.62.32-3.08.96-4.38.64-1.3,1.55-2.3,2.71-3s2.5-1.05,4.01-1.05c2.23,0,4.05.72,5.44,2.16s2.15,3.35,2.26,5.72l.02.87c0,1.63-.31,3.09-.94,4.38s-1.53,2.28-2.69,2.98-2.52,1.06-4.05,1.06c-2.34,0-4.21-.78-5.61-2.33-1.4-1.56-2.1-3.63-2.1-6.22v-.18Zm3.72.32c0,1.7.35,3.04,1.06,4,.7.96,1.68,1.45,2.94,1.45s2.23-.49,2.93-1.47,1.05-2.41,1.05-4.3c0-1.67-.36-3-1.08-3.98-.72-.98-1.7-1.47-2.93-1.47s-2.18.48-2.89,1.45c-.71.96-1.07,2.41-1.07,4.32Z"/><path class="cls-9" d="m614.18,644.39l2.63-11.43h3.63l-4.52,16.56h-3.06l-3.55-11.37-3.49,11.37h-3.06l-4.53-16.56h3.63l2.68,11.31,3.4-11.31h2.8l3.44,11.43Z"/><path class="cls-9" d="m630.22,649.82c-2.36,0-4.27-.74-5.73-2.23-1.46-1.48-2.2-3.46-2.2-5.93v-.46c0-1.65.32-3.13.96-4.43.64-1.3,1.53-2.31,2.69-3.04,1.15-.72,2.44-1.09,3.86-1.09,2.25,0,4,.72,5.23,2.16s1.84,3.47,1.84,6.11v1.5h-10.82c.11,1.37.57,2.45,1.37,3.25s1.81,1.19,3.02,1.19c1.7,0,3.09-.69,4.16-2.07l2,1.91c-.66.99-1.55,1.76-2.66,2.3s-2.35.82-3.73.82Zm-.44-14.19c-1.02,0-1.84.36-2.47,1.07-.63.71-1.03,1.71-1.2,2.99h7.09v-.28c-.08-1.24-.41-2.19-1-2.82s-1.39-.96-2.42-.96Z"/><path class="cls-9" d="m648.42,636.36c-.49-.08-1-.12-1.52-.12-1.7,0-2.85.65-3.44,1.96v11.33h-3.72v-16.56h3.55l.09,1.85c.9-1.44,2.14-2.16,3.73-2.16.53,0,.97.07,1.32.21l-.02,3.49Z"/><path class="cls-9" d="m660.82,632.61c.69,0,1.23.2,1.61.59s.57.88.57,1.48-.19,1.06-.57,1.45-.91.57-1.61.57-1.19-.19-1.58-.57c-.39-.38-.58-.86-.58-1.45s.19-1.08.57-1.48.91-.59,1.59-.59Zm0,12.99c.69,0,1.23.2,1.61.59.38.39.57.89.57,1.48s-.19,1.06-.57,1.45c-.38.38-.91.57-1.61.57s-1.19-.19-1.58-.57c-.39-.38-.58-.86-.58-1.45s.19-1.08.57-1.48c.38-.39.91-.59,1.59-.59Z"/><path class="cls-25" d="m684.45,649.52h-3.7v-17.9l-5.46,1.86v-3.12l8.69-3.2h.47v22.36Z"/><path class="cls-25" d="m706.99,639.89l-2.53,2.68v6.95h-3.87v-22.28h3.87v10.45l2.14-2.65,6.52-7.81h4.68l-8.28,9.87,8.75,12.41h-4.59l-6.7-9.63Z"/><path class="cls-25" d="m725.22,644.8l3.5-11.85h3.84l-5.74,16.56h-3.23l-5.79-16.56h3.86l3.55,11.85Z"/><path class="cls-25" d="m744.55,649.52c-.16-.32-.31-.83-.43-1.55-1.18,1.23-2.63,1.85-4.35,1.85s-3.02-.47-4.07-1.42-1.58-2.12-1.58-3.52c0-1.76.66-3.12,1.97-4.06,1.31-.94,3.19-1.42,5.62-1.42h2.28v-1.09c0-.86-.24-1.54-.72-2.06-.48-.51-1.21-.77-2.19-.77-.85,0-1.54.21-2.08.63-.54.42-.81.96-.81,1.61h-3.72c0-.91.3-1.76.9-2.55.6-.79,1.42-1.41,2.46-1.86s2.19-.67,3.47-.67c1.94,0,3.48.49,4.64,1.46,1.15.97,1.74,2.34,1.78,4.11v7.47c0,1.49.21,2.68.63,3.57v.26h-3.8Zm-4.09-2.68c.73,0,1.43-.18,2.07-.54.65-.36,1.13-.84,1.46-1.44v-3.12h-2c-1.38,0-2.41.24-3.11.72s-1.04,1.16-1.04,2.04c0,.71.24,1.28.71,1.71.47.42,1.11.63,1.91.63Z"/><path class="cls-36" d="m476.93,699.11v8.26h-3.87v-22.28h8.52c2.49,0,4.47.65,5.93,1.95,1.46,1.3,2.2,3.01,2.2,5.15s-.72,3.89-2.15,5.1c-1.43,1.22-3.44,1.82-6.02,1.82h-4.61Zm0-3.12h4.65c1.38,0,2.43-.32,3.15-.97.72-.65,1.09-1.58,1.09-2.81s-.37-2.17-1.1-2.88c-.73-.72-1.74-1.09-3.03-1.11h-4.76v7.77Z"/><path class="cls-36" d="m491.84,698.95c0-1.62.32-3.08.96-4.38.64-1.3,1.55-2.3,2.71-3s2.5-1.05,4.01-1.05c2.23,0,4.05.72,5.44,2.16s2.15,3.35,2.26,5.72l.02.87c0,1.63-.31,3.09-.94,4.38s-1.53,2.28-2.69,2.98-2.52,1.06-4.05,1.06c-2.34,0-4.21-.78-5.61-2.33-1.4-1.56-2.1-3.63-2.1-6.22v-.18Zm3.72.32c0,1.7.35,3.04,1.06,4,.7.96,1.68,1.45,2.94,1.45s2.23-.49,2.93-1.47,1.05-2.41,1.05-4.3c0-1.67-.36-3-1.08-3.98-.72-.98-1.7-1.47-2.93-1.47s-2.18.48-2.89,1.45c-.71.96-1.07,2.41-1.07,4.32Z"/><path class="cls-36" d="m524.93,702.25l2.63-11.43h3.63l-4.52,16.56h-3.06l-3.55-11.37-3.49,11.37h-3.06l-4.53-16.56h3.63l2.68,11.31,3.4-11.31h2.8l3.44,11.43Z"/><path class="cls-36" d="m540.97,707.68c-2.36,0-4.27-.74-5.73-2.23-1.46-1.48-2.2-3.46-2.2-5.93v-.46c0-1.65.32-3.13.96-4.43.64-1.3,1.53-2.31,2.69-3.04,1.15-.72,2.44-1.09,3.86-1.09,2.25,0,4,.72,5.23,2.16s1.84,3.47,1.84,6.11v1.5h-10.82c.11,1.37.57,2.45,1.37,3.25s1.81,1.19,3.02,1.19c1.7,0,3.09-.69,4.16-2.07l2,1.91c-.66.99-1.55,1.76-2.66,2.3s-2.35.82-3.73.82Zm-.44-14.19c-1.02,0-1.84.36-2.47,1.07-.63.71-1.03,1.71-1.2,2.99h7.09v-.28c-.08-1.24-.41-2.19-1-2.82s-1.39-.96-2.42-.96Z"/><path class="cls-36" d="m559.16,694.22c-.49-.08-1-.12-1.52-.12-1.7,0-2.85.65-3.44,1.96v11.33h-3.72v-16.56h3.55l.09,1.85c.9-1.44,2.14-2.16,3.73-2.16.53,0,.97.07,1.32.21l-.02,3.49Z"/><path class="cls-36" d="m569.68,707.38v-22.28h7.64c2.52,0,4.44.51,5.75,1.52,1.32,1.01,1.97,2.52,1.97,4.51,0,1.02-.28,1.94-.83,2.75s-1.36,1.45-2.42,1.9c1.2.33,2.13.94,2.79,1.84s.99,1.99.99,3.25c0,2.09-.67,3.7-2.01,4.82-1.34,1.12-3.26,1.68-5.76,1.68h-8.13Zm3.87-12.9h3.8c1.2,0,2.15-.27,2.82-.82s1.02-1.32,1.02-2.32c0-1.1-.31-1.9-.94-2.39-.63-.49-1.6-.73-2.93-.73h-3.77v6.26Zm0,2.85v6.96h4.3c1.21,0,2.16-.3,2.85-.9.68-.6,1.03-1.44,1.03-2.51,0-2.32-1.18-3.5-3.55-3.55h-4.62Z"/><path class="cls-36" d="m589.1,686.52c0-.57.18-1.05.54-1.42.36-.38.88-.57,1.55-.57s1.19.19,1.56.57c.37.38.55.85.55,1.42s-.18,1.03-.55,1.4c-.37.37-.89.56-1.56.56s-1.19-.19-1.55-.56c-.36-.37-.54-.84-.54-1.4Zm3.95,20.86h-3.72v-16.56h3.72v16.56Z"/><path class="cls-36" d="m601.05,707.38h-3.72v-23.51h3.72v23.51Z"/><path class="cls-36" d="m609.06,707.38h-3.72v-23.51h3.72v23.51Z"/><path class="cls-36" d="m613.11,686.52c0-.57.18-1.05.54-1.42.36-.38.88-.57,1.55-.57s1.19.19,1.56.57c.37.38.55.85.55,1.42s-.18,1.03-.55,1.4c-.37.37-.89.56-1.56.56s-1.19-.19-1.55-.56c-.36-.37-.54-.84-.54-1.4Zm3.95,20.86h-3.72v-16.56h3.72v16.56Z"/><path class="cls-36" d="m624.56,690.82l.11,1.91c1.22-1.48,2.83-2.22,4.82-2.22,3.45,0,5.2,1.97,5.27,5.92v10.94h-3.72v-10.73c0-1.05-.23-1.83-.68-2.33s-1.2-.76-2.23-.76c-1.5,0-2.62.68-3.35,2.04v11.79h-3.72v-16.56h3.5Z"/><path class="cls-36" d="m637.89,698.98c0-2.57.6-4.62,1.81-6.16,1.21-1.54,2.81-2.3,4.81-2.3,1.89,0,3.37.66,4.45,1.97l.17-1.67h3.35v16.05c0,2.17-.68,3.89-2.03,5.14-1.35,1.25-3.18,1.88-5.47,1.88-1.21,0-2.4-.25-3.56-.76-1.16-.51-2.04-1.17-2.64-1.98l1.76-2.23c1.14,1.36,2.55,2.04,4.22,2.04,1.23,0,2.21-.33,2.92-1,.71-.67,1.07-1.65,1.07-2.95v-1.12c-1.07,1.19-2.5,1.79-4.29,1.79-1.94,0-3.52-.77-4.75-2.31s-1.84-3.67-1.84-6.4Zm3.7.32c0,1.66.34,2.97,1.02,3.93.68.95,1.62,1.43,2.82,1.43,1.5,0,2.61-.64,3.34-1.93v-7.29c-.7-1.25-1.81-1.88-3.31-1.88-1.22,0-2.18.48-2.85,1.45-.68.97-1.02,2.4-1.02,4.29Z"/><path class="cls-36" d="m669.5,685.09l6.43,17.08,6.41-17.08h5v22.28h-3.86v-7.35l.38-9.83-6.58,17.17h-2.77l-6.57-17.16.38,9.81v7.35h-3.86v-22.28h5.02Z"/><path class="cls-36" d="m690.86,698.95c0-1.62.32-3.08.96-4.38.64-1.3,1.55-2.3,2.71-3s2.5-1.05,4.01-1.05c2.23,0,4.05.72,5.44,2.16s2.15,3.35,2.26,5.72l.02.87c0,1.63-.31,3.09-.94,4.38s-1.53,2.28-2.69,2.98-2.52,1.06-4.05,1.06c-2.34,0-4.21-.78-5.61-2.33-1.4-1.56-2.1-3.63-2.1-6.22v-.18Zm3.72.32c0,1.7.35,3.04,1.06,4,.7.96,1.68,1.45,2.94,1.45s2.23-.49,2.93-1.47,1.05-2.41,1.05-4.3c0-1.67-.36-3-1.08-3.98-.72-.98-1.7-1.47-2.93-1.47s-2.18.48-2.89,1.45c-.71.96-1.07,2.41-1.07,4.32Z"/><path class="cls-36" d="m708.71,698.98c0-2.55.59-4.6,1.78-6.14s2.77-2.32,4.76-2.32c1.75,0,3.17.61,4.25,1.84v-8.48h3.72v23.51h-3.37l-.18-1.71c-1.11,1.35-2.6,2.02-4.45,2.02s-3.51-.78-4.71-2.34c-1.2-1.56-1.8-3.68-1.8-6.37Zm3.72.32c0,1.68.32,3,.97,3.94.65.94,1.57,1.42,2.76,1.42,1.52,0,2.63-.68,3.34-2.04v-7.07c-.68-1.33-1.79-1.99-3.31-1.99-1.2,0-2.13.48-2.79,1.43-.65.95-.98,2.39-.98,4.31Z"/><path class="cls-36" d="m734.39,707.68c-2.36,0-4.27-.74-5.73-2.23-1.46-1.48-2.2-3.46-2.2-5.93v-.46c0-1.65.32-3.13.96-4.43.64-1.3,1.53-2.31,2.69-3.04,1.15-.72,2.44-1.09,3.86-1.09,2.25,0,4,.72,5.23,2.16s1.84,3.47,1.84,6.11v1.5h-10.82c.11,1.37.57,2.45,1.37,3.25s1.81,1.19,3.02,1.19c1.7,0,3.09-.69,4.16-2.07l2,1.91c-.66.99-1.55,1.76-2.66,2.3s-2.35.82-3.73.82Zm-.44-14.19c-1.02,0-1.84.36-2.47,1.07-.63.71-1.03,1.71-1.2,2.99h7.09v-.28c-.08-1.24-.41-2.19-1-2.82s-1.39-.96-2.42-.96Z"/><path class="cls-36" d="m753.96,690.47c.69,0,1.23.2,1.61.59s.57.88.57,1.48-.19,1.06-.57,1.45-.91.57-1.61.57-1.19-.19-1.58-.57c-.39-.38-.58-.86-.58-1.45s.19-1.08.57-1.48.91-.59,1.59-.59Zm0,12.99c.69,0,1.23.2,1.61.59.38.39.57.89.57,1.48s-.19,1.06-.57,1.45c-.38.38-.91.57-1.61.57s-1.19-.19-1.58-.57c-.39-.38-.58-.86-.58-1.45s.19-1.08.57-1.48c.38-.39.91-.59,1.59-.59Z"/><path class="cls-25" d="m768.12,707.38v-22.28h7.64c2.52,0,4.44.51,5.75,1.52,1.32,1.01,1.97,2.52,1.97,4.51,0,1.02-.28,1.94-.83,2.75s-1.36,1.45-2.42,1.9c1.2.33,2.13.94,2.79,1.84s.99,1.99.99,3.25c0,2.09-.67,3.7-2.01,4.82-1.34,1.12-3.26,1.68-5.76,1.68h-8.13Zm3.87-12.9h3.8c1.2,0,2.15-.27,2.82-.82s1.02-1.32,1.02-2.32c0-1.1-.31-1.9-.94-2.39-.63-.49-1.6-.73-2.93-.73h-3.77v6.26Zm0,2.85v6.96h4.3c1.21,0,2.16-.3,2.85-.9.68-.6,1.03-1.44,1.03-2.51,0-2.32-1.18-3.5-3.55-3.55h-4.62Z"/><path class="cls-25" d="m797.57,705.76c-1.09,1.29-2.64,1.93-4.65,1.93-1.8,0-3.16-.53-4.08-1.58-.92-1.05-1.39-2.57-1.39-4.56v-10.73h3.72v10.68c0,2.1.87,3.15,2.62,3.15s3.03-.65,3.66-1.94v-11.89h3.72v16.56h-3.5l-.09-1.62Z"/><path class="cls-25" d="m808.4,690.82l.11,1.91c1.22-1.48,2.83-2.22,4.82-2.22,3.45,0,5.2,1.97,5.26,5.92v10.94h-3.72v-10.73c0-1.05-.23-1.83-.68-2.33s-1.2-.76-2.23-.76c-1.5,0-2.62.68-3.35,2.04v11.79h-3.72v-16.56h3.5Z"/><path class="cls-25" d="m821.69,698.98c0-2.55.59-4.6,1.78-6.14s2.77-2.32,4.76-2.32c1.75,0,3.17.61,4.25,1.84v-8.48h3.72v23.51h-3.37l-.18-1.71c-1.11,1.35-2.6,2.02-4.45,2.02s-3.51-.78-4.71-2.34c-1.2-1.56-1.8-3.68-1.8-6.37Zm3.72.32c0,1.68.32,3,.97,3.94.65.94,1.57,1.42,2.76,1.42,1.52,0,2.63-.68,3.34-2.04v-7.07c-.68-1.33-1.79-1.99-3.31-1.99-1.2,0-2.13.48-2.79,1.43-.65.95-.98,2.39-.98,4.31Z"/><path class="cls-25" d="m844.03,707.38h-3.72v-23.51h3.72v23.51Z"/><path class="cls-25" d="m855.37,707.68c-2.36,0-4.27-.74-5.73-2.23s-2.2-3.46-2.2-5.93v-.46c0-1.65.32-3.13.96-4.43.64-1.3,1.53-2.31,2.69-3.04s2.44-1.09,3.86-1.09c2.25,0,4,.72,5.23,2.16s1.84,3.47,1.84,6.11v1.5h-10.82c.11,1.37.57,2.45,1.37,3.25s1.81,1.19,3.02,1.19c1.7,0,3.09-.69,4.16-2.07l2,1.91c-.66.99-1.55,1.76-2.66,2.3-1.11.55-2.35.82-3.73.82Zm-.44-14.19c-1.02,0-1.84.36-2.47,1.07-.63.71-1.03,1.71-1.2,2.99h7.09v-.28c-.08-1.24-.41-2.19-1-2.82-.58-.64-1.39-.96-2.42-.96Z"/><path class="cls-25" d="m864.2,698.98c0-2.55.59-4.6,1.78-6.14s2.77-2.32,4.76-2.32c1.75,0,3.17.61,4.25,1.84v-8.48h3.72v23.51h-3.37l-.18-1.71c-1.11,1.35-2.6,2.02-4.45,2.02s-3.51-.78-4.71-2.34c-1.2-1.56-1.8-3.68-1.8-6.37Zm3.72.32c0,1.68.32,3,.97,3.94.65.94,1.57,1.42,2.76,1.42,1.52,0,2.63-.68,3.34-2.04v-7.07c-.68-1.33-1.79-1.99-3.31-1.99-1.2,0-2.13.48-2.79,1.43-.65.95-.98,2.39-.98,4.31Z"/><path class="cls-9" d="m490.06,757.99c-.22,2.38-1.1,4.23-2.63,5.56-1.53,1.33-3.57,2-6.11,2-1.78,0-3.34-.42-4.69-1.26-1.35-.84-2.4-2.04-3.13-3.59-.73-1.55-1.12-3.35-1.15-5.4v-2.08c0-2.1.37-3.95,1.12-5.56s1.81-2.84,3.21-3.7,3-1.3,4.83-1.3c2.46,0,4.44.67,5.94,2,1.5,1.33,2.37,3.22,2.62,5.66h-3.86c-.18-1.6-.65-2.76-1.4-3.47-.75-.71-1.85-1.06-3.3-1.06-1.68,0-2.98.62-3.88,1.85-.9,1.23-1.36,3.04-1.38,5.42v1.98c0,2.41.43,4.25,1.29,5.51s2.12,1.9,3.79,1.9c1.52,0,2.66-.34,3.43-1.03s1.25-1.82,1.45-3.41h3.86Z"/><path class="cls-9" d="m501.83,752.08c-.49-.08-1-.12-1.52-.12-1.7,0-2.85.65-3.44,1.96v11.33h-3.72v-16.56h3.55l.09,1.85c.9-1.44,2.14-2.16,3.73-2.16.53,0,.97.07,1.32.21l-.02,3.49Z"/><path class="cls-9" d="m502.93,756.81c0-1.62.32-3.08.96-4.38.64-1.3,1.55-2.3,2.71-3s2.5-1.05,4.01-1.05c2.23,0,4.05.72,5.44,2.16s2.15,3.35,2.26,5.72l.02.87c0,1.63-.31,3.09-.94,4.38s-1.53,2.28-2.69,2.98-2.52,1.06-4.05,1.06c-2.34,0-4.21-.78-5.61-2.33-1.4-1.56-2.1-3.63-2.1-6.22v-.18Zm3.72.32c0,1.7.35,3.04,1.06,4,.7.96,1.68,1.45,2.94,1.45s2.23-.49,2.93-1.47,1.05-2.41,1.05-4.3c0-1.67-.36-3-1.08-3.98-.72-.98-1.7-1.47-2.93-1.47s-2.18.48-2.89,1.45c-.71.96-1.07,2.41-1.07,4.32Z"/><path class="cls-9" d="m530.76,760.74c0-.66-.27-1.17-.82-1.51-.55-.35-1.45-.65-2.72-.92-1.27-.27-2.32-.6-3.17-1.01-1.86-.9-2.79-2.2-2.79-3.9,0-1.43.6-2.62,1.81-3.58,1.2-.96,2.73-1.44,4.59-1.44,1.98,0,3.58.49,4.8,1.47,1.22.98,1.83,2.25,1.83,3.81h-3.72c0-.71-.27-1.31-.8-1.78-.53-.47-1.23-.71-2.11-.71-.82,0-1.48.19-2,.57-.52.38-.77.88-.77,1.51,0,.57.24,1.02.72,1.33s1.45.63,2.91.96,2.6.7,3.44,1.15c.83.44,1.45.98,1.85,1.6.4.62.6,1.38.6,2.27,0,1.49-.62,2.7-1.85,3.62-1.23.92-2.85,1.38-4.85,1.38-1.36,0-2.57-.24-3.63-.73-1.06-.49-1.89-1.16-2.48-2.02-.59-.86-.89-1.78-.89-2.77h3.61c.05.88.38,1.55.99,2.03.61.47,1.42.71,2.43.71s1.72-.19,2.23-.56c.51-.37.77-.86.77-1.46Z"/><path class="cls-9" d="m546.94,760.74c0-.66-.27-1.17-.82-1.51-.55-.35-1.45-.65-2.72-.92-1.27-.27-2.32-.6-3.17-1.01-1.86-.9-2.79-2.2-2.79-3.9,0-1.43.6-2.62,1.81-3.58,1.2-.96,2.73-1.44,4.59-1.44,1.98,0,3.58.49,4.8,1.47,1.22.98,1.83,2.25,1.83,3.81h-3.72c0-.71-.27-1.31-.8-1.78-.53-.47-1.23-.71-2.11-.71-.82,0-1.48.19-2,.57-.52.38-.77.88-.77,1.51,0,.57.24,1.02.72,1.33s1.45.63,2.91.96,2.6.7,3.44,1.15c.83.44,1.45.98,1.85,1.6.4.62.6,1.38.6,2.27,0,1.49-.62,2.7-1.85,3.62-1.23.92-2.85,1.38-4.85,1.38-1.36,0-2.57-.24-3.63-.73-1.06-.49-1.89-1.16-2.48-2.02-.59-.86-.89-1.78-.89-2.77h3.61c.05.88.38,1.55.99,2.03.61.47,1.42.71,2.43.71s1.72-.19,2.23-.56c.51-.37.77-.86.77-1.46Z"/><path class="cls-9" d="m579,757.99c-.22,2.38-1.1,4.23-2.63,5.56-1.53,1.33-3.57,2-6.11,2-1.78,0-3.34-.42-4.69-1.26-1.35-.84-2.4-2.04-3.13-3.59-.73-1.55-1.12-3.35-1.15-5.4v-2.08c0-2.1.37-3.95,1.12-5.56s1.81-2.84,3.21-3.7,3-1.3,4.83-1.3c2.46,0,4.44.67,5.94,2,1.5,1.33,2.37,3.22,2.62,5.66h-3.86c-.18-1.6-.65-2.76-1.4-3.47-.75-.71-1.85-1.06-3.3-1.06-1.68,0-2.98.62-3.88,1.85-.9,1.23-1.36,3.04-1.38,5.42v1.98c0,2.41.43,4.25,1.29,5.51s2.12,1.9,3.79,1.9c1.52,0,2.66-.34,3.43-1.03s1.25-1.82,1.45-3.41h3.86Z"/><path class="cls-9" d="m581.4,756.81c0-1.62.32-3.08.96-4.38.64-1.3,1.55-2.3,2.71-3s2.5-1.05,4.01-1.05c2.23,0,4.05.72,5.44,2.16s2.15,3.35,2.26,5.72l.02.87c0,1.63-.31,3.09-.94,4.38s-1.53,2.28-2.69,2.98-2.52,1.06-4.05,1.06c-2.34,0-4.21-.78-5.61-2.33-1.4-1.56-2.1-3.63-2.1-6.22v-.18Zm3.72.32c0,1.7.35,3.04,1.06,4,.7.96,1.68,1.45,2.94,1.45s2.23-.49,2.93-1.47,1.05-2.41,1.05-4.3c0-1.67-.36-3-1.08-3.98-.72-.98-1.7-1.47-2.93-1.47s-2.18.48-2.89,1.45c-.71.96-1.07,2.41-1.07,4.32Z"/><path class="cls-9" d="m603.39,748.68l.11,1.91c1.22-1.48,2.83-2.22,4.82-2.22,3.45,0,5.2,1.97,5.27,5.92v10.94h-3.72v-10.73c0-1.05-.23-1.83-.68-2.33s-1.2-.76-2.23-.76c-1.5,0-2.62.68-3.35,2.04v11.79h-3.72v-16.56h3.5Z"/><path class="cls-9" d="m620.83,748.68l.11,1.91c1.22-1.48,2.83-2.22,4.82-2.22,3.45,0,5.2,1.97,5.27,5.92v10.94h-3.72v-10.73c0-1.05-.23-1.83-.68-2.33s-1.2-.76-2.23-.76c-1.5,0-2.62.68-3.35,2.04v11.79h-3.72v-16.56h3.5Z"/><path class="cls-9" d="m642.1,765.55c-2.36,0-4.27-.74-5.73-2.23-1.46-1.48-2.2-3.46-2.2-5.93v-.46c0-1.65.32-3.13.96-4.43.64-1.3,1.53-2.31,2.69-3.04,1.15-.72,2.44-1.09,3.86-1.09,2.25,0,4,.72,5.23,2.16s1.84,3.47,1.84,6.11v1.5h-10.82c.11,1.37.57,2.45,1.37,3.25s1.81,1.19,3.02,1.19c1.7,0,3.09-.69,4.16-2.07l2,1.91c-.66.99-1.55,1.76-2.66,2.3s-2.35.82-3.73.82Zm-.44-14.19c-1.02,0-1.84.36-2.47,1.07-.63.71-1.03,1.71-1.2,2.99h7.09v-.28c-.08-1.24-.41-2.19-1-2.82s-1.39-.96-2.42-.96Z"/><path class="cls-9" d="m658.43,762.58c.93,0,1.7-.27,2.31-.81.61-.54.94-1.21.98-2h3.5c-.04,1.03-.36,1.99-.96,2.89-.6.89-1.42,1.6-2.45,2.12-1.03.52-2.14.78-3.34.78-2.32,0-4.15-.75-5.51-2.25s-2.04-3.57-2.04-6.21v-.38c0-2.52.67-4.54,2.02-6.05,1.35-1.52,3.18-2.27,5.51-2.27,1.97,0,3.57.57,4.81,1.72,1.24,1.15,1.89,2.66,1.95,4.52h-3.5c-.04-.95-.36-1.73-.97-2.34-.61-.61-1.38-.92-2.32-.92-1.2,0-2.13.44-2.79,1.31-.65.87-.98,2.2-.99,3.97v.6c0,1.8.32,3.14.97,4.02.65.88,1.58,1.32,2.81,1.32Z"/><path class="cls-9" d="m672.69,744.66v4.03h2.92v2.75h-2.92v9.24c0,.63.12,1.09.38,1.37.25.28.7.42,1.34.42.43,0,.86-.05,1.3-.15v2.88c-.85.23-1.66.35-2.45.35-2.86,0-4.29-1.58-4.29-4.73v-9.38h-2.72v-2.75h2.72v-4.03h3.72Z"/><path class="cls-9" d="m687.74,760.74c0-.66-.27-1.17-.82-1.51-.55-.35-1.45-.65-2.72-.92-1.27-.27-2.32-.6-3.17-1.01-1.86-.9-2.79-2.2-2.79-3.9,0-1.43.6-2.62,1.81-3.58,1.2-.96,2.73-1.44,4.59-1.44,1.98,0,3.58.49,4.8,1.47,1.22.98,1.83,2.25,1.83,3.81h-3.72c0-.71-.27-1.31-.8-1.78-.53-.47-1.23-.71-2.11-.71-.82,0-1.48.19-2,.57-.52.38-.77.88-.77,1.51,0,.57.24,1.02.72,1.33s1.45.63,2.91.96,2.6.7,3.44,1.15c.83.44,1.45.98,1.85,1.6.4.62.6,1.38.6,2.27,0,1.49-.62,2.7-1.85,3.62-1.23.92-2.85,1.38-4.85,1.38-1.36,0-2.57-.24-3.63-.73-1.06-.49-1.89-1.16-2.48-2.02-.59-.86-.89-1.78-.89-2.77h3.61c.05.88.38,1.55.99,2.03.61.47,1.42.71,2.43.71s1.72-.19,2.23-.56c.51-.37.77-.86.77-1.46Z"/><path class="cls-9" d="m704.68,748.33c.69,0,1.23.2,1.61.59s.57.88.57,1.48-.19,1.06-.57,1.45-.91.57-1.61.57-1.19-.19-1.58-.57c-.39-.38-.58-.86-.58-1.45s.19-1.08.57-1.48.91-.59,1.59-.59Zm0,12.99c.69,0,1.23.2,1.61.59.38.39.57.89.57,1.48s-.19,1.06-.57,1.45c-.38.38-.91.57-1.61.57s-1.19-.19-1.58-.57c-.39-.38-.58-.86-.58-1.45s.19-1.08.57-1.48c.38-.39.91-.59,1.59-.59Z"/><path class="cls-25" d="m728.31,765.24h-3.7v-17.9l-5.46,1.86v-3.12l8.69-3.2h.47v22.36Z"/><path class="cls-36" d="m477.15,823.1h-3.86v-22.28h3.86v22.28Z"/><path class="cls-36" d="m485.78,814.84v8.26h-3.87v-22.28h8.52c2.49,0,4.47.65,5.93,1.95,1.46,1.3,2.2,3.01,2.2,5.15s-.72,3.89-2.15,5.1c-1.43,1.22-3.44,1.82-6.02,1.82h-4.61Zm0-3.12h4.65c1.38,0,2.43-.32,3.15-.97.72-.65,1.09-1.58,1.09-2.81s-.37-2.17-1.1-2.88c-.73-.72-1.74-1.09-3.03-1.11h-4.76v7.77Z"/><path class="cls-36" d="m513.62,814.84v8.26h-3.87v-22.28h8.52c2.49,0,4.47.65,5.93,1.95,1.46,1.3,2.2,3.01,2.2,5.15s-.72,3.89-2.15,5.1c-1.43,1.22-3.44,1.82-6.02,1.82h-4.61Zm0-3.12h4.65c1.38,0,2.43-.32,3.15-.97.72-.65,1.09-1.58,1.09-2.81s-.37-2.17-1.1-2.88c-.73-.72-1.74-1.09-3.03-1.11h-4.76v7.77Z"/><path class="cls-36" d="m528.52,814.67c0-1.62.32-3.08.96-4.38.64-1.3,1.55-2.3,2.71-3s2.5-1.05,4.01-1.05c2.23,0,4.05.72,5.44,2.16s2.15,3.35,2.26,5.72l.02.87c0,1.63-.31,3.09-.94,4.38s-1.53,2.28-2.69,2.98-2.52,1.06-4.05,1.06c-2.34,0-4.21-.78-5.61-2.33-1.4-1.56-2.1-3.63-2.1-6.22v-.18Zm3.72.32c0,1.7.35,3.04,1.06,4,.7.96,1.68,1.45,2.94,1.45s2.23-.49,2.93-1.47,1.05-2.41,1.05-4.3c0-1.67-.36-3-1.08-3.98-.72-.98-1.7-1.47-2.93-1.47s-2.18.48-2.89,1.45c-.71.96-1.07,2.41-1.07,4.32Z"/><path class="cls-36" d="m546.37,814.67c0-1.62.32-3.08.96-4.38.64-1.3,1.55-2.3,2.71-3s2.5-1.05,4.01-1.05c2.23,0,4.05.72,5.44,2.16s2.15,3.35,2.26,5.72l.02.87c0,1.63-.31,3.09-.94,4.38s-1.53,2.28-2.69,2.98-2.52,1.06-4.05,1.06c-2.34,0-4.21-.78-5.61-2.33-1.4-1.56-2.1-3.63-2.1-6.22v-.18Zm3.72.32c0,1.7.35,3.04,1.06,4,.7.96,1.68,1.45,2.94,1.45s2.23-.49,2.93-1.47,1.05-2.41,1.05-4.3c0-1.67-.36-3-1.08-3.98-.72-.98-1.7-1.47-2.93-1.47s-2.18.48-2.89,1.45c-.71.96-1.07,2.41-1.07,4.32Z"/><path class="cls-36" d="m568.87,823.1h-3.72v-23.51h3.72v23.51Z"/><path class="cls-36" d="m582.96,806.19c.69,0,1.23.2,1.61.59s.57.88.57,1.48-.19,1.06-.57,1.45-.91.57-1.61.57-1.19-.19-1.58-.57c-.39-.38-.58-.86-.58-1.45s.19-1.08.57-1.48.91-.59,1.59-.59Zm0,12.99c.69,0,1.23.2,1.61.59.38.39.57.89.57,1.48s-.19,1.06-.57,1.45c-.38.38-.91.57-1.61.57s-1.19-.19-1.58-.57c-.39-.38-.58-.86-.58-1.45s.19-1.08.57-1.48c.38-.39.91-.59,1.59-.59Z"/><path class="cls-25" d="m597.88,825.01h-2.92l8.77-24.2h2.92l-8.77,24.2Z"/><path class="cls-25" d="m613.3,810.26h2.27c1.14,0,2.05-.31,2.72-.89.67-.58,1-1.42,1-2.53s-.28-1.88-.83-2.47c-.56-.59-1.41-.88-2.55-.88-1,0-1.82.29-2.46.87-.64.58-.96,1.33-.96,2.26h-3.72c0-1.14.3-2.18.91-3.12s1.45-1.67,2.54-2.2c1.09-.53,2.3-.79,3.65-.79,2.22,0,3.97.56,5.24,1.68,1.27,1.12,1.91,2.67,1.91,4.66,0,1-.32,1.94-.96,2.82s-1.46,1.55-2.47,2c1.22.42,2.16,1.08,2.79,1.97.64.9.96,1.97.96,3.21,0,2-.69,3.59-2.06,4.77-1.37,1.18-3.18,1.78-5.41,1.78s-3.9-.57-5.27-1.71-2.05-2.66-2.05-4.56h3.72c0,.98.33,1.78.99,2.39.66.61,1.54.92,2.66.92s2.06-.31,2.72-.92c.66-.61.99-1.5.99-2.66s-.35-2.08-1.04-2.71-1.72-.95-3.09-.95h-2.19v-2.94Z"/><path class="cls-25" d="m641.33,813.72c0,3.2-.6,5.62-1.8,7.25-1.2,1.63-3.02,2.44-5.47,2.44s-4.22-.79-5.44-2.38c-1.22-1.59-1.84-3.94-1.88-7.05v-3.86c0-3.2.6-5.61,1.8-7.21,1.2-1.6,3.03-2.4,5.49-2.4s4.26.78,5.46,2.34c1.2,1.56,1.81,3.9,1.84,7.01v3.86Zm-3.72-4.16c0-2.09-.29-3.62-.86-4.6s-1.48-1.46-2.72-1.46-2.11.46-2.68,1.38c-.57.92-.87,2.37-.9,4.32v5.05c0,2.08.29,3.63.87,4.65s1.49,1.53,2.74,1.53,2.08-.47,2.65-1.42c.57-.94.87-2.42.9-4.43v-5.04Z"/><path class="cls-9" d="m473.06,880.96v-22.28h6.58c1.97,0,3.72.44,5.24,1.32,1.53.88,2.71,2.12,3.54,3.73.84,1.61,1.25,3.46,1.25,5.54v1.12c0,2.11-.42,3.97-1.26,5.57-.84,1.6-2.04,2.84-3.6,3.7-1.56.87-3.34,1.3-5.35,1.3h-6.41Zm3.87-19.16v16.07h2.53c2.03,0,3.59-.63,4.68-1.91,1.09-1.27,1.64-3.09,1.66-5.47v-1.24c0-2.42-.53-4.26-1.58-5.54-1.05-1.28-2.58-1.91-4.58-1.91h-2.71Z"/><path class="cls-9" d="m500.47,881.27c-2.36,0-4.27-.74-5.73-2.23-1.46-1.48-2.2-3.46-2.2-5.93v-.46c0-1.65.32-3.13.96-4.43.64-1.3,1.53-2.31,2.69-3.04,1.15-.72,2.44-1.09,3.86-1.09,2.25,0,4,.72,5.23,2.16s1.84,3.47,1.84,6.11v1.5h-10.82c.11,1.37.57,2.45,1.37,3.25s1.81,1.19,3.02,1.19c1.7,0,3.09-.69,4.16-2.07l2,1.91c-.66.99-1.55,1.76-2.66,2.3s-2.35.82-3.73.82Zm-.44-14.19c-1.02,0-1.84.36-2.47,1.07-.63.71-1.03,1.71-1.2,2.99h7.09v-.28c-.08-1.24-.41-2.19-1-2.82s-1.39-.96-2.42-.96Z"/><path class="cls-9" d="m509.3,872.56c0-2.55.59-4.6,1.78-6.14s2.77-2.32,4.76-2.32c1.75,0,3.17.61,4.25,1.84v-8.48h3.72v23.51h-3.37l-.18-1.71c-1.11,1.35-2.6,2.02-4.45,2.02s-3.51-.78-4.71-2.34c-1.2-1.56-1.8-3.68-1.8-6.37Zm3.72.32c0,1.68.32,3,.97,3.94.65.94,1.57,1.42,2.76,1.42,1.52,0,2.63-.68,3.34-2.04v-7.07c-.68-1.33-1.79-1.99-3.31-1.99-1.2,0-2.13.48-2.79,1.43-.65.95-.98,2.39-.98,4.31Z"/><path class="cls-9" d="m527.7,860.1c0-.57.18-1.05.54-1.42.36-.38.88-.57,1.55-.57s1.19.19,1.56.57c.37.38.55.85.55,1.42s-.18,1.03-.55,1.4c-.37.37-.89.56-1.56.56s-1.19-.19-1.55-.56c-.36-.37-.54-.84-.54-1.4Zm3.95,20.86h-3.72v-16.56h3.72v16.56Z"/><path class="cls-9" d="m542.5,878.3c.93,0,1.7-.27,2.31-.81.61-.54.94-1.21.98-2h3.5c-.04,1.03-.36,1.99-.96,2.89-.6.89-1.42,1.6-2.45,2.12-1.03.52-2.14.78-3.34.78-2.32,0-4.15-.75-5.51-2.25s-2.04-3.57-2.04-6.21v-.38c0-2.52.67-4.54,2.02-6.05,1.35-1.52,3.18-2.27,5.51-2.27,1.97,0,3.57.57,4.81,1.72,1.24,1.15,1.89,2.66,1.95,4.52h-3.5c-.04-.95-.36-1.73-.97-2.34-.61-.61-1.38-.92-2.32-.92-1.2,0-2.13.44-2.79,1.31-.65.87-.98,2.2-.99,3.97v.6c0,1.8.32,3.14.97,4.02.65.88,1.58,1.32,2.81,1.32Z"/><path class="cls-9" d="m561.99,880.96c-.16-.32-.31-.83-.43-1.55-1.18,1.23-2.63,1.85-4.35,1.85s-3.02-.47-4.07-1.42-1.58-2.12-1.58-3.52c0-1.76.66-3.12,1.97-4.06,1.31-.94,3.19-1.42,5.62-1.42h2.28v-1.09c0-.86-.24-1.54-.72-2.06-.48-.51-1.21-.77-2.19-.77-.85,0-1.54.21-2.08.63-.54.42-.81.96-.81,1.61h-3.72c0-.91.3-1.76.9-2.55.6-.79,1.42-1.41,2.46-1.86s2.19-.67,3.47-.67c1.94,0,3.48.49,4.64,1.46,1.15.97,1.74,2.34,1.78,4.11v7.47c0,1.49.21,2.68.63,3.57v.26h-3.8Zm-4.09-2.68c.73,0,1.43-.18,2.07-.54.65-.36,1.13-.84,1.46-1.44v-3.12h-2c-1.38,0-2.41.24-3.11.72s-1.04,1.16-1.04,2.04c0,.71.24,1.28.71,1.71.47.42,1.11.63,1.91.63Z"/><path class="cls-9" d="m573.72,860.38v4.03h2.92v2.75h-2.92v9.24c0,.63.12,1.09.38,1.37.25.28.7.42,1.34.42.43,0,.86-.05,1.3-.15v2.88c-.85.23-1.66.35-2.45.35-2.86,0-4.29-1.58-4.29-4.73v-9.38h-2.72v-2.75h2.72v-4.03h3.72Z"/><path class="cls-9" d="m586.77,881.27c-2.36,0-4.27-.74-5.73-2.23-1.46-1.48-2.2-3.46-2.2-5.93v-.46c0-1.65.32-3.13.96-4.43.64-1.3,1.53-2.31,2.69-3.04,1.15-.72,2.44-1.09,3.86-1.09,2.25,0,4,.72,5.23,2.16s1.84,3.47,1.84,6.11v1.5h-10.82c.11,1.37.57,2.45,1.37,3.25s1.81,1.19,3.02,1.19c1.7,0,3.09-.69,4.16-2.07l2,1.91c-.66.99-1.55,1.76-2.66,2.3s-2.35.82-3.73.82Zm-.44-14.19c-1.02,0-1.84.36-2.47,1.07-.63.71-1.03,1.71-1.2,2.99h7.09v-.28c-.08-1.24-.41-2.19-1-2.82s-1.39-.96-2.42-.96Z"/><path class="cls-9" d="m595.6,872.56c0-2.55.59-4.6,1.78-6.14s2.77-2.32,4.76-2.32c1.75,0,3.17.61,4.25,1.84v-8.48h3.72v23.51h-3.37l-.18-1.71c-1.11,1.35-2.6,2.02-4.45,2.02s-3.51-.78-4.71-2.34c-1.2-1.56-1.8-3.68-1.8-6.37Zm3.72.32c0,1.68.32,3,.97,3.94.65.94,1.57,1.42,2.76,1.42,1.52,0,2.63-.68,3.34-2.04v-7.07c-.68-1.33-1.79-1.99-3.31-1.99-1.2,0-2.13.48-2.79,1.43-.65.95-.98,2.39-.98,4.31Z"/><path class="cls-9" d="m626.24,880.96h-3.86v-22.28h3.86v22.28Z"/><path class="cls-9" d="m634.1,864.4l.11,1.91c1.22-1.48,2.83-2.22,4.82-2.22,3.45,0,5.2,1.97,5.27,5.92v10.94h-3.72v-10.73c0-1.05-.23-1.83-.68-2.33s-1.2-.76-2.23-.76c-1.5,0-2.62.68-3.35,2.04v11.79h-3.72v-16.56h3.5Z"/><path class="cls-9" d="m652.74,860.38v4.03h2.92v2.75h-2.92v9.24c0,.63.12,1.09.38,1.37.25.28.7.42,1.34.42.43,0,.86-.05,1.3-.15v2.88c-.85.23-1.66.35-2.45.35-2.86,0-4.29-1.58-4.29-4.73v-9.38h-2.72v-2.75h2.72v-4.03h3.72Z"/><path class="cls-9" d="m665.79,881.27c-2.36,0-4.27-.74-5.73-2.23-1.46-1.48-2.2-3.46-2.2-5.93v-.46c0-1.65.32-3.13.96-4.43.64-1.3,1.53-2.31,2.69-3.04,1.15-.72,2.44-1.09,3.86-1.09,2.25,0,4,.72,5.23,2.16s1.84,3.47,1.84,6.11v1.5h-10.82c.11,1.37.57,2.45,1.37,3.25s1.81,1.19,3.02,1.19c1.7,0,3.09-.69,4.16-2.07l2,1.91c-.66.99-1.55,1.76-2.66,2.3s-2.35.82-3.73.82Zm-.44-14.19c-1.02,0-1.84.36-2.47,1.07-.63.71-1.03,1.71-1.2,2.99h7.09v-.28c-.08-1.24-.41-2.19-1-2.82s-1.39-.96-2.42-.96Z"/><path class="cls-9" d="m683.99,867.8c-.49-.08-1-.12-1.52-.12-1.7,0-2.85.65-3.44,1.96v11.33h-3.72v-16.56h3.55l.09,1.85c.9-1.44,2.14-2.16,3.73-2.16.53,0,.97.07,1.32.21l-.02,3.49Z"/><path class="cls-9" d="m689.79,864.4l.11,1.91c1.22-1.48,2.83-2.22,4.82-2.22,3.45,0,5.2,1.97,5.27,5.92v10.94h-3.72v-10.73c0-1.05-.23-1.83-.68-2.33s-1.2-.76-2.23-.76c-1.5,0-2.62.68-3.35,2.04v11.79h-3.72v-16.56h3.5Z"/><path class="cls-9" d="m711.06,881.27c-2.36,0-4.27-.74-5.73-2.23-1.46-1.48-2.2-3.46-2.2-5.93v-.46c0-1.65.32-3.13.96-4.43.64-1.3,1.53-2.31,2.69-3.04,1.15-.72,2.44-1.09,3.86-1.09,2.25,0,4,.72,5.23,2.16s1.84,3.47,1.84,6.11v1.5h-10.82c.11,1.37.57,2.45,1.37,3.25s1.81,1.19,3.02,1.19c1.7,0,3.09-.69,4.16-2.07l2,1.91c-.66.99-1.55,1.76-2.66,2.3s-2.35.82-3.73.82Zm-.44-14.19c-1.02,0-1.84.36-2.47,1.07-.63.71-1.03,1.71-1.2,2.99h7.09v-.28c-.08-1.24-.41-2.19-1-2.82s-1.39-.96-2.42-.96Z"/><path class="cls-9" d="m725.25,860.38v4.03h2.92v2.75h-2.92v9.24c0,.63.12,1.09.38,1.37.25.28.7.42,1.34.42.43,0,.86-.05,1.3-.15v2.88c-.85.23-1.66.35-2.45.35-2.86,0-4.29-1.58-4.29-4.73v-9.38h-2.72v-2.75h2.72v-4.03h3.72Z"/><path class="cls-9" d="m473.06,918.58v-22.28h7.64c2.52,0,4.44.51,5.75,1.52,1.32,1.01,1.97,2.52,1.97,4.51,0,1.02-.28,1.94-.83,2.75s-1.36,1.45-2.42,1.9c1.2.33,2.13.94,2.79,1.84s.99,1.99.99,3.25c0,2.09-.67,3.7-2.01,4.82-1.34,1.12-3.26,1.68-5.76,1.68h-8.13Zm3.87-12.9h3.8c1.2,0,2.15-.27,2.82-.82s1.02-1.32,1.02-2.32c0-1.1-.31-1.9-.94-2.39-.63-.49-1.6-.73-2.93-.73h-3.77v6.26Zm0,2.85v6.96h4.3c1.21,0,2.16-.3,2.85-.9.68-.6,1.03-1.44,1.03-2.51,0-2.32-1.18-3.5-3.55-3.55h-4.62Z"/><path class="cls-9" d="m502.37,918.58c-.16-.32-.31-.83-.43-1.55-1.18,1.23-2.63,1.85-4.35,1.85s-3.02-.47-4.07-1.42-1.58-2.12-1.58-3.52c0-1.76.66-3.12,1.97-4.06,1.31-.94,3.19-1.42,5.62-1.42h2.28v-1.09c0-.86-.24-1.54-.72-2.06-.48-.51-1.21-.77-2.19-.77-.85,0-1.54.21-2.08.63-.54.42-.81.96-.81,1.61h-3.72c0-.91.3-1.76.9-2.55.6-.79,1.42-1.41,2.46-1.86s2.19-.67,3.47-.67c1.94,0,3.48.49,4.64,1.46,1.15.97,1.74,2.34,1.78,4.11v7.47c0,1.49.21,2.68.63,3.57v.26h-3.8Zm-4.09-2.68c.73,0,1.43-.18,2.07-.54.65-.36,1.13-.84,1.46-1.44v-3.12h-2c-1.38,0-2.41.24-3.11.72s-1.04,1.16-1.04,2.04c0,.71.24,1.28.71,1.71.47.42,1.11.63,1.91.63Z"/><path class="cls-9" d="m512.88,902.02l.11,1.91c1.22-1.48,2.83-2.22,4.82-2.22,3.45,0,5.2,1.97,5.27,5.92v10.94h-3.72v-10.73c0-1.05-.23-1.83-.68-2.33s-1.2-.76-2.23-.76c-1.5,0-2.62.68-3.35,2.04v11.79h-3.72v-16.56h3.5Z"/><path class="cls-9" d="m526.17,910.17c0-2.55.59-4.6,1.78-6.14s2.77-2.32,4.76-2.32c1.75,0,3.17.61,4.25,1.84v-8.48h3.72v23.51h-3.37l-.18-1.71c-1.11,1.35-2.6,2.02-4.45,2.02s-3.51-.78-4.71-2.34c-1.2-1.56-1.8-3.68-1.8-6.37Zm3.72.32c0,1.68.32,3,.97,3.94.65.94,1.57,1.42,2.76,1.42,1.52,0,2.63-.68,3.34-2.04v-7.07c-.68-1.33-1.79-1.99-3.31-1.99-1.2,0-2.13.48-2.79,1.43-.65.95-.98,2.39-.98,4.31Z"/><path class="cls-9" d="m559.1,913.45l2.63-11.43h3.63l-4.52,16.56h-3.06l-3.55-11.37-3.49,11.37h-3.06l-4.53-16.56h3.63l2.68,11.31,3.4-11.31h2.8l3.44,11.43Z"/><path class="cls-9" d="m567.86,897.71c0-.57.18-1.05.54-1.42.36-.38.88-.57,1.55-.57s1.19.19,1.56.57c.37.38.55.85.55,1.42s-.18,1.03-.55,1.4c-.37.37-.89.56-1.56.56s-1.19-.19-1.55-.56c-.36-.37-.54-.84-.54-1.4Zm3.95,20.86h-3.72v-16.56h3.72v16.56Z"/><path class="cls-9" d="m575.16,910.17c0-2.55.59-4.6,1.78-6.14s2.77-2.32,4.76-2.32c1.75,0,3.17.61,4.25,1.84v-8.48h3.72v23.51h-3.37l-.18-1.71c-1.11,1.35-2.6,2.02-4.45,2.02s-3.51-.78-4.71-2.34c-1.2-1.56-1.8-3.68-1.8-6.37Zm3.72.32c0,1.68.32,3,.97,3.94.65.94,1.57,1.42,2.76,1.42,1.52,0,2.63-.68,3.34-2.04v-7.07c-.68-1.33-1.79-1.99-3.31-1.99-1.2,0-2.13.48-2.79,1.43-.65.95-.98,2.39-.98,4.31Z"/><path class="cls-9" d="m598.21,897.99v4.03h2.92v2.75h-2.92v9.24c0,.63.12,1.09.38,1.37.25.28.7.42,1.34.42.43,0,.86-.05,1.3-.15v2.88c-.85.23-1.66.35-2.45.35-2.86,0-4.29-1.58-4.29-4.73v-9.38h-2.72v-2.75h2.72v-4.03h3.72Z"/><path class="cls-9" d="m607.63,903.82c1.21-1.41,2.75-2.11,4.61-2.11,3.53,0,5.32,2.02,5.37,6.05v10.82h-3.72v-10.68c0-1.14-.25-1.95-.74-2.43-.5-.47-1.22-.71-2.18-.71-1.49,0-2.6.66-3.34,1.99v11.83h-3.72v-23.51h3.72v8.75Z"/><path class="cls-9" d="m631.42,901.66c.69,0,1.23.2,1.61.59s.57.88.57,1.48-.19,1.06-.57,1.45-.91.57-1.61.57-1.19-.19-1.58-.57c-.39-.38-.58-.86-.58-1.45s.19-1.08.57-1.48.91-.59,1.59-.59Zm0,12.99c.69,0,1.23.2,1.61.59.38.39.57.89.57,1.48s-.19,1.06-.57,1.45c-.38.38-.91.57-1.61.57s-1.19-.19-1.58-.57c-.39-.38-.58-.86-.58-1.45s.19-1.08.57-1.48c.38-.39.91-.59,1.59-.59Z"/><path class="cls-25" d="m655.05,918.58h-3.7v-17.9l-5.46,1.86v-3.12l8.69-3.2h.47v22.36Z"/><path class="cls-25" d="m677.32,909.19c0,3.2-.6,5.62-1.8,7.25-1.2,1.63-3.02,2.44-5.47,2.44s-4.22-.79-5.44-2.38c-1.22-1.59-1.84-3.94-1.88-7.05v-3.86c0-3.2.6-5.61,1.8-7.21,1.2-1.6,3.03-2.4,5.49-2.4s4.26.78,5.46,2.34c1.2,1.56,1.81,3.9,1.84,7.01v3.86Zm-3.72-4.16c0-2.09-.29-3.62-.86-4.6s-1.48-1.46-2.72-1.46-2.11.46-2.68,1.38c-.57.92-.87,2.37-.9,4.32v5.05c0,2.08.29,3.63.87,4.65s1.49,1.53,2.74,1.53,2.08-.47,2.65-1.42c.57-.94.87-2.42.9-4.43v-5.04Z"/><path class="cls-25" d="m694.03,896.29l6.43,17.08,6.41-17.08h5v22.28h-3.86v-7.35l.38-9.83-6.58,17.17h-2.77l-6.57-17.16.38,9.81v7.35h-3.86v-22.28h5.02Z"/><path class="cls-25" d="m730.62,910.46c0,2.57-.57,4.62-1.72,6.14-1.15,1.52-2.73,2.28-4.74,2.28s-3.45-.7-4.53-2.1l-.18,1.79h-3.37v-23.51h3.72v8.54c1.07-1.27,2.52-1.9,4.33-1.9,2.02,0,3.61.75,4.76,2.25,1.15,1.5,1.73,3.6,1.73,6.29v.21Zm-3.72-.32c0-1.8-.32-3.14-.95-4.04-.63-.9-1.55-1.35-2.75-1.35-1.61,0-2.75.7-3.4,2.11v6.83c.66,1.44,1.81,2.16,3.43,2.16,1.16,0,2.06-.43,2.69-1.3.63-.87.96-2.18.98-3.93v-.47Z"/><path class="cls-25" d="m748.24,910.46c0,2.56-.58,4.6-1.74,6.13-1.16,1.53-2.72,2.29-4.68,2.29-1.82,0-3.27-.6-4.36-1.79v7.85h-3.72v-22.93h3.43l.15,1.68c1.09-1.33,2.58-1.99,4.45-1.99,2.02,0,3.6.75,4.75,2.26s1.72,3.59,1.72,6.27v.23Zm-3.7-.32c0-1.65-.33-2.96-.99-3.93s-1.6-1.45-2.82-1.45c-1.52,0-2.61.63-3.28,1.88v7.35c.67,1.29,1.78,1.93,3.31,1.93,1.18,0,2.11-.48,2.78-1.43.67-.95,1-2.4,1-4.34Z"/><path class="cls-25" d="m760.67,914.08c0-.66-.27-1.17-.82-1.51-.55-.35-1.45-.65-2.72-.92-1.27-.27-2.32-.6-3.17-1.01-1.86-.9-2.79-2.2-2.79-3.9,0-1.43.6-2.62,1.81-3.58,1.2-.96,2.73-1.44,4.59-1.44,1.98,0,3.58.49,4.8,1.47,1.22.98,1.83,2.25,1.83,3.81h-3.72c0-.71-.27-1.31-.8-1.78-.53-.47-1.23-.71-2.11-.71-.82,0-1.48.19-2,.57-.52.38-.77.88-.77,1.51,0,.57.24,1.02.72,1.33s1.45.63,2.91.96,2.6.7,3.44,1.15c.83.44,1.45.98,1.85,1.6.4.62.6,1.38.6,2.27,0,1.49-.62,2.7-1.85,3.62-1.23.92-2.85,1.38-4.85,1.38-1.36,0-2.57-.24-3.63-.73-1.06-.49-1.89-1.16-2.48-2.02-.59-.86-.89-1.78-.89-2.77h3.61c.05.88.38,1.55.99,2.03.61.47,1.42.71,2.43.71s1.72-.19,2.23-.56c.51-.37.77-.86.77-1.46Z"/><path class="cls-36" d="m481.25,970.25h-4.32v8.57h-3.87v-22.28h7.84c2.57,0,4.56.58,5.95,1.73s2.1,2.82,2.1,5.01c0,1.49-.36,2.74-1.08,3.75-.72,1.01-1.72,1.78-3.01,2.32l5,9.28v.2h-4.15l-4.47-8.57Zm-4.32-3.12h3.98c1.31,0,2.33-.33,3.06-.99.73-.66,1.1-1.56,1.1-2.7s-.34-2.12-1.02-2.77c-.68-.65-1.69-.99-3.04-1.01h-4.09v7.47Z"/><path class="cls-36" d="m510.31,978.82h-3.86v-9.89h-9.96v9.89h-3.87v-22.28h3.87v9.28h9.96v-9.28h3.86v22.28Z"/><path class="cls-36" d="m527.91,968.87h-9.15v6.86h10.7v3.09h-14.57v-22.28h14.46v3.12h-10.59v6.15h9.15v3.06Z"/><path class="cls-36" d="m544.26,973.08c0-.98-.34-1.73-1.03-2.27-.69-.53-1.93-1.07-3.73-1.61-1.8-.54-3.22-1.14-4.29-1.81-2.03-1.28-3.05-2.94-3.05-4.99,0-1.79.73-3.27,2.2-4.44,1.46-1.16,3.36-1.75,5.7-1.75,1.55,0,2.93.29,4.15.86,1.21.57,2.17,1.38,2.86,2.44.69,1.06,1.04,2.23,1.04,3.51h-3.86c0-1.16-.36-2.07-1.09-2.73-.73-.66-1.77-.99-3.13-.99-1.27,0-2.25.27-2.95.81-.7.54-1.05,1.3-1.05,2.27,0,.82.38,1.5,1.13,2.04.75.55,2,1.08,3.73,1.59,1.73.52,3.13,1.1,4.18,1.76s1.82,1.41,2.31,2.27c.49.85.73,1.85.73,2.99,0,1.86-.71,3.33-2.14,4.43s-3.35,1.64-5.79,1.64c-1.61,0-3.09-.3-4.45-.89-1.35-.6-2.4-1.42-3.15-2.47s-1.12-2.28-1.12-3.67h3.87c0,1.27.42,2.25,1.25,2.94.84.69,2.04,1.04,3.6,1.04,1.35,0,2.36-.27,3.04-.82.68-.55,1.02-1.27,1.02-2.17Z"/><path class="cls-36" d="m561.21,961.91c.69,0,1.23.2,1.61.59s.57.88.57,1.48-.19,1.06-.57,1.45-.91.57-1.61.57-1.19-.19-1.58-.57c-.39-.38-.58-.86-.58-1.45s.19-1.08.57-1.48.91-.59,1.59-.59Zm0,12.99c.69,0,1.23.2,1.61.59.38.39.57.89.57,1.48s-.19,1.06-.57,1.45c-.38.38-.91.57-1.61.57s-1.19-.19-1.58-.57c-.39-.38-.58-.86-.58-1.45s.19-1.08.57-1.48c.38-.39.91-.59,1.59-.59Z"/><path class="cls-25" d="m586.34,956.43v3.08h-.46c-2.08.03-3.74.6-4.99,1.71s-1.98,2.69-2.22,4.73c1.19-1.25,2.72-1.88,4.58-1.88,1.97,0,3.52.69,4.66,2.08,1.14,1.39,1.71,3.18,1.71,5.37s-.67,4.1-2,5.5c-1.33,1.4-3.08,2.1-5.24,2.1s-4.03-.82-5.41-2.46c-1.38-1.64-2.07-3.79-2.07-6.46v-1.27c0-3.91.95-6.97,2.85-9.18,1.9-2.21,4.64-3.32,8.21-3.32h.38Zm-3.99,10.64c-.82,0-1.56.23-2.24.69-.68.46-1.18,1.07-1.49,1.84v1.13c0,1.65.35,2.97,1.04,3.94s1.59,1.46,2.69,1.46,1.97-.41,2.62-1.24c.64-.83.96-1.91.96-3.26s-.33-2.44-.98-3.29c-.65-.85-1.52-1.27-2.6-1.27Z"/><path class="cls-25" d="m618.68,978.82h-3.86v-9.89h-9.96v9.89h-3.87v-22.28h3.87v9.28h9.96v-9.28h3.86v22.28Z"/><path class="cls-25" d="m622.2,970.39c0-1.62.32-3.08.96-4.38.64-1.3,1.55-2.3,2.71-3s2.5-1.05,4.01-1.05c2.23,0,4.05.72,5.44,2.16s2.15,3.35,2.26,5.72l.02.87c0,1.63-.31,3.09-.94,4.38s-1.53,2.28-2.69,2.98-2.52,1.06-4.05,1.06c-2.34,0-4.21-.78-5.61-2.33-1.4-1.56-2.1-3.63-2.1-6.22v-.18Zm3.72.32c0,1.7.35,3.04,1.06,4,.7.96,1.68,1.45,2.94,1.45s2.23-.49,2.93-1.47,1.05-2.41,1.05-4.3c0-1.67-.36-3-1.08-3.98-.72-.98-1.7-1.47-2.93-1.47s-2.18.48-2.89,1.45c-.71.96-1.07,2.41-1.07,4.32Z"/><path class="cls-25" d="m650.78,977.2c-1.09,1.29-2.64,1.93-4.65,1.93-1.8,0-3.16-.53-4.08-1.58-.92-1.05-1.39-2.57-1.39-4.56v-10.73h3.72v10.68c0,2.1.87,3.15,2.62,3.15s3.03-.65,3.66-1.94v-11.89h3.72v16.56h-3.5l-.09-1.62Z"/><path class="cls-25" d="m666.83,965.66c-.49-.08-1-.12-1.52-.12-1.7,0-2.85.65-3.44,1.96v11.33h-3.72v-16.56h3.55l.09,1.85c.9-1.44,2.14-2.16,3.73-2.16.53,0,.97.07,1.32.21l-.02,3.49Z"/><path class="cls-25" d="m678.46,974.32c0-.66-.27-1.17-.82-1.51-.55-.35-1.45-.65-2.72-.92-1.27-.27-2.32-.6-3.17-1.01-1.86-.9-2.79-2.2-2.79-3.9,0-1.43.6-2.62,1.81-3.58,1.2-.96,2.73-1.44,4.59-1.44,1.98,0,3.58.49,4.8,1.47,1.22.98,1.83,2.25,1.83,3.81h-3.72c0-.71-.27-1.31-.8-1.78-.53-.47-1.23-.71-2.11-.71-.82,0-1.48.19-2,.57-.52.38-.77.88-.77,1.51,0,.57.24,1.02.72,1.33s1.45.63,2.91.96,2.6.7,3.44,1.15c.83.44,1.45.98,1.85,1.6.4.62.6,1.38.6,2.27,0,1.49-.62,2.7-1.85,3.62-1.23.92-2.85,1.38-4.85,1.38-1.36,0-2.57-.24-3.63-.73-1.06-.49-1.89-1.16-2.48-2.02-.59-.86-.89-1.78-.89-2.77h3.61c.05.88.38,1.55.99,2.03.61.47,1.42.71,2.43.71s1.72-.19,2.23-.56c.51-.37.77-.86.77-1.46Z"/><path class="cls-25" d="m686.41,980.74h-2.92l8.77-24.2h2.92l-8.77,24.2Z"/><path class="cls-25" d="m710.94,956.54l6.43,17.08,6.41-17.08h5v22.28h-3.86v-7.35l.38-9.83-6.58,17.17h-2.77l-6.57-17.16.38,9.81v7.35h-3.86v-22.28h5.02Z"/><path class="cls-25" d="m732.31,970.39c0-1.62.32-3.08.96-4.38.64-1.3,1.55-2.3,2.71-3s2.5-1.05,4.01-1.05c2.23,0,4.05.72,5.44,2.16s2.15,3.35,2.26,5.72l.02.87c0,1.63-.31,3.09-.94,4.38s-1.53,2.28-2.69,2.98-2.52,1.06-4.05,1.06c-2.34,0-4.21-.78-5.61-2.33-1.4-1.56-2.1-3.63-2.1-6.22v-.18Zm3.72.32c0,1.7.35,3.04,1.06,4,.7.96,1.68,1.45,2.94,1.45s2.23-.49,2.93-1.47,1.05-2.41,1.05-4.3c0-1.67-.36-3-1.08-3.98-.72-.98-1.7-1.47-2.93-1.47s-2.18.48-2.89,1.45c-.71.96-1.07,2.41-1.07,4.32Z"/><path class="cls-25" d="m754.3,962.26l.11,1.91c1.22-1.48,2.83-2.22,4.82-2.22,3.45,0,5.2,1.97,5.27,5.92v10.94h-3.72v-10.73c0-1.05-.23-1.83-.68-2.33s-1.2-.76-2.23-.76c-1.5,0-2.62.68-3.35,2.04v11.79h-3.72v-16.56h3.5Z"/><path class="cls-25" d="m772.94,958.24v4.03h2.92v2.75h-2.92v9.24c0,.63.12,1.09.38,1.37.25.28.7.42,1.34.42.43,0,.86-.05,1.3-.15v2.88c-.85.23-1.66.35-2.45.35-2.86,0-4.29-1.58-4.29-4.73v-9.38h-2.72v-2.75h2.72v-4.03h3.72Z"/><path class="cls-25" d="m782.37,964.07c1.21-1.41,2.75-2.11,4.61-2.11,3.53,0,5.32,2.02,5.37,6.05v10.82h-3.72v-10.68c0-1.14-.25-1.95-.74-2.43-.5-.47-1.22-.71-2.18-.71-1.49,0-2.6.66-3.34,1.99v11.83h-3.72v-23.51h3.72v8.75Z"/><path class="cls-36" d="m490.06,1083.53c-.22,2.38-1.1,4.23-2.63,5.56-1.53,1.33-3.57,2-6.11,2-1.78,0-3.34-.42-4.69-1.26-1.35-.84-2.4-2.04-3.13-3.59-.73-1.55-1.12-3.35-1.15-5.4v-2.08c0-2.1.37-3.95,1.12-5.56s1.81-2.84,3.21-3.7,3-1.3,4.83-1.3c2.46,0,4.44.67,5.94,2,1.5,1.33,2.37,3.22,2.62,5.66h-3.86c-.18-1.6-.65-2.76-1.4-3.47-.75-.71-1.85-1.06-3.3-1.06-1.68,0-2.98.62-3.88,1.85-.9,1.23-1.36,3.04-1.38,5.42v1.98c0,2.41.43,4.25,1.29,5.51s2.12,1.9,3.79,1.9c1.52,0,2.66-.34,3.43-1.03s1.25-1.82,1.45-3.41h3.86Z"/><path class="cls-36" d="m492.46,1082.35c0-1.62.32-3.08.96-4.38.64-1.3,1.55-2.3,2.71-3s2.5-1.05,4.01-1.05c2.23,0,4.05.72,5.44,2.16s2.15,3.35,2.26,5.72l.02.87c0,1.63-.31,3.09-.94,4.38s-1.53,2.28-2.69,2.98-2.52,1.06-4.05,1.06c-2.34,0-4.21-.78-5.61-2.33-1.4-1.56-2.1-3.63-2.1-6.22v-.18Zm3.72.32c0,1.7.35,3.04,1.06,4,.7.96,1.68,1.45,2.94,1.45s2.23-.49,2.93-1.47,1.05-2.41,1.05-4.3c0-1.67-.36-3-1.08-3.98-.72-.98-1.7-1.47-2.93-1.47s-2.18.48-2.89,1.45c-.71.96-1.07,2.41-1.07,4.32Z"/><path class="cls-36" d="m514.46,1074.23l.11,1.91c1.22-1.48,2.83-2.22,4.82-2.22,3.45,0,5.2,1.97,5.27,5.92v10.94h-3.72v-10.73c0-1.05-.23-1.83-.68-2.33s-1.2-.76-2.23-.76c-1.5,0-2.62.68-3.35,2.04v11.79h-3.72v-16.56h3.5Z"/><path class="cls-36" d="m533.1,1070.2v4.03h2.92v2.75h-2.92v9.24c0,.63.12,1.09.38,1.37.25.28.7.42,1.34.42.43,0,.86-.05,1.3-.15v2.88c-.85.23-1.66.35-2.45.35-2.86,0-4.29-1.58-4.29-4.73v-9.38h-2.72v-2.75h2.72v-4.03h3.72Z"/><path class="cls-36" d="m547.53,1077.62c-.49-.08-1-.12-1.52-.12-1.7,0-2.85.65-3.44,1.96v11.33h-3.72v-16.56h3.55l.09,1.85c.9-1.44,2.14-2.16,3.73-2.16.53,0,.97.07,1.32.21l-.02,3.49Z"/><path class="cls-36" d="m559.32,1090.79c-.16-.32-.31-.83-.43-1.55-1.18,1.23-2.63,1.85-4.35,1.85s-3.02-.47-4.07-1.42-1.58-2.12-1.58-3.52c0-1.76.66-3.12,1.97-4.06,1.31-.94,3.19-1.42,5.62-1.42h2.28v-1.09c0-.86-.24-1.54-.72-2.06-.48-.51-1.21-.77-2.19-.77-.85,0-1.54.21-2.08.63-.54.42-.81.96-.81,1.61h-3.72c0-.91.3-1.76.9-2.55.6-.79,1.42-1.41,2.46-1.86s2.19-.67,3.47-.67c1.94,0,3.48.49,4.64,1.46,1.15.97,1.74,2.34,1.78,4.11v7.47c0,1.49.21,2.68.63,3.57v.26h-3.8Zm-4.09-2.68c.73,0,1.43-.18,2.07-.54.65-.36,1.13-.84,1.46-1.44v-3.12h-2c-1.38,0-2.41.24-3.11.72s-1.04,1.16-1.04,2.04c0,.71.24,1.28.71,1.71.47.42,1.11.63,1.91.63Z"/><path class="cls-36" d="m573.18,1088.12c.93,0,1.7-.27,2.31-.81.61-.54.94-1.21.98-2h3.5c-.04,1.03-.36,1.99-.96,2.89-.6.89-1.42,1.6-2.45,2.12-1.03.52-2.14.78-3.34.78-2.32,0-4.15-.75-5.51-2.25s-2.04-3.57-2.04-6.21v-.38c0-2.52.67-4.54,2.02-6.05,1.35-1.52,3.18-2.27,5.51-2.27,1.97,0,3.57.57,4.81,1.72,1.24,1.15,1.89,2.66,1.95,4.52h-3.5c-.04-.95-.36-1.73-.97-2.34-.61-.61-1.38-.92-2.32-.92-1.2,0-2.13.44-2.79,1.31-.65.87-.98,2.2-.99,3.97v.6c0,1.8.32,3.14.97,4.02.65.88,1.58,1.32,2.81,1.32Z"/><path class="cls-36" d="m587.45,1070.2v4.03h2.92v2.75h-2.92v9.24c0,.63.12,1.09.38,1.37.25.28.7.42,1.34.42.43,0,.86-.05,1.3-.15v2.88c-.85.23-1.66.35-2.45.35-2.86,0-4.29-1.58-4.29-4.73v-9.38h-2.72v-2.75h2.72v-4.03h3.72Z"/><path class="cls-36" d="m605.25,1082.52v8.26h-3.87v-22.28h8.52c2.49,0,4.47.65,5.93,1.95,1.46,1.3,2.2,3.01,2.2,5.15s-.72,3.89-2.15,5.1c-1.43,1.22-3.44,1.82-6.02,1.82h-4.61Zm0-3.12h4.65c1.38,0,2.43-.32,3.15-.97.72-.65,1.09-1.58,1.09-2.81s-.37-2.17-1.1-2.88c-.73-.72-1.74-1.09-3.03-1.11h-4.76v7.77Z"/><path class="cls-36" d="m628.14,1091.09c-2.36,0-4.27-.74-5.73-2.23-1.46-1.48-2.2-3.46-2.2-5.93v-.46c0-1.65.32-3.13.96-4.43.64-1.3,1.53-2.31,2.69-3.04,1.15-.72,2.44-1.09,3.86-1.09,2.25,0,4,.72,5.23,2.16s1.84,3.47,1.84,6.11v1.5h-10.82c.11,1.37.57,2.45,1.37,3.25s1.81,1.19,3.02,1.19c1.7,0,3.09-.69,4.16-2.07l2,1.91c-.66.99-1.55,1.76-2.66,2.3s-2.35.82-3.73.82Zm-.44-14.19c-1.02,0-1.84.36-2.47,1.07-.63.71-1.03,1.71-1.2,2.99h7.09v-.28c-.08-1.24-.41-2.19-1-2.82s-1.39-.96-2.42-.96Z"/><path class="cls-36" d="m646.34,1077.62c-.49-.08-1-.12-1.52-.12-1.7,0-2.85.65-3.44,1.96v11.33h-3.72v-16.56h3.55l.09,1.85c.9-1.44,2.14-2.16,3.73-2.16.53,0,.97.07,1.32.21l-.02,3.49Z"/><path class="cls-36" d="m648.7,1069.93c0-.57.18-1.05.54-1.42.36-.38.88-.57,1.55-.57s1.19.19,1.56.57c.37.38.55.85.55,1.42s-.18,1.03-.55,1.4c-.37.37-.89.56-1.56.56s-1.19-.19-1.55-.56c-.36-.37-.54-.84-.54-1.4Zm3.95,20.86h-3.72v-16.56h3.72v16.56Z"/><path class="cls-36" d="m656,1082.35c0-1.62.32-3.08.96-4.38.64-1.3,1.55-2.3,2.71-3s2.5-1.05,4.01-1.05c2.23,0,4.05.72,5.44,2.16s2.15,3.35,2.26,5.72l.02.87c0,1.63-.31,3.09-.94,4.38s-1.53,2.28-2.69,2.98-2.52,1.06-4.05,1.06c-2.34,0-4.21-.78-5.61-2.33-1.4-1.56-2.1-3.63-2.1-6.22v-.18Zm3.72.32c0,1.7.35,3.04,1.06,4,.7.96,1.68,1.45,2.94,1.45s2.23-.49,2.93-1.47,1.05-2.41,1.05-4.3c0-1.67-.36-3-1.08-3.98-.72-.98-1.7-1.47-2.93-1.47s-2.18.48-2.89,1.45c-.71.96-1.07,2.41-1.07,4.32Z"/><path class="cls-36" d="m673.84,1082.38c0-2.55.59-4.6,1.78-6.14s2.77-2.32,4.76-2.32c1.75,0,3.17.61,4.25,1.84v-8.48h3.72v23.51h-3.37l-.18-1.71c-1.11,1.35-2.6,2.02-4.45,2.02s-3.51-.78-4.71-2.34c-1.2-1.56-1.8-3.68-1.8-6.37Zm3.72.32c0,1.68.32,3,.97,3.94.65.94,1.57,1.42,2.76,1.42,1.52,0,2.63-.68,3.34-2.04v-7.07c-.68-1.33-1.79-1.99-3.31-1.99-1.2,0-2.13.48-2.79,1.43-.65.95-.98,2.39-.98,4.31Z"/><path class="cls-36" d="m702.28,1073.87c.69,0,1.23.2,1.61.59s.57.88.57,1.48-.19,1.06-.57,1.45-.91.57-1.61.57-1.19-.19-1.58-.57c-.39-.38-.58-.86-.58-1.45s.19-1.08.57-1.48.91-.59,1.59-.59Zm0,12.99c.69,0,1.23.2,1.61.59.38.39.57.89.57,1.48s-.19,1.06-.57,1.45c-.38.38-.91.57-1.61.57s-1.19-.19-1.58-.57c-.39-.38-.58-.86-.58-1.45s.19-1.08.57-1.48c.38-.39.91-.59,1.59-.59Z"/><path class="cls-25" d="m720.14,1077.95h2.27c1.14,0,2.05-.31,2.72-.89.67-.58,1-1.42,1-2.53s-.28-1.88-.83-2.47c-.56-.59-1.41-.88-2.55-.88-1,0-1.82.29-2.46.87-.64.58-.96,1.33-.96,2.26h-3.72c0-1.14.3-2.18.91-3.12s1.45-1.67,2.54-2.2c1.09-.53,2.3-.79,3.65-.79,2.22,0,3.97.56,5.24,1.68,1.27,1.12,1.91,2.67,1.91,4.66,0,1-.32,1.94-.96,2.82s-1.46,1.55-2.47,2c1.22.42,2.16,1.08,2.79,1.97.64.9.96,1.97.96,3.21,0,2-.69,3.59-2.06,4.77-1.37,1.18-3.18,1.78-5.41,1.78s-3.9-.57-5.27-1.71-2.05-2.66-2.05-4.56h3.72c0,.98.33,1.78.99,2.39.66.61,1.54.92,2.66.92s2.06-.31,2.72-.92c.66-.61.99-1.5.99-2.66s-.35-2.08-1.04-2.71-1.72-.95-3.09-.95h-2.19v-2.94Z"/><path class="cls-25" d="m749.33,1079.06l5.13-10.56h4.29l-7.47,14.08v8.2h-3.89v-8.2l-7.48-14.08h4.3l5.13,10.56Z"/><path class="cls-25" d="m767.09,1091.09c-2.36,0-4.27-.74-5.73-2.23-1.46-1.48-2.2-3.46-2.2-5.93v-.46c0-1.65.32-3.13.96-4.43.64-1.3,1.53-2.31,2.69-3.04,1.15-.72,2.44-1.09,3.86-1.09,2.25,0,4,.72,5.23,2.16s1.84,3.47,1.84,6.11v1.5h-10.82c.11,1.37.57,2.45,1.37,3.25s1.81,1.19,3.02,1.19c1.7,0,3.09-.69,4.16-2.07l2,1.91c-.66.99-1.55,1.76-2.66,2.3s-2.35.82-3.73.82Zm-.44-14.19c-1.02,0-1.84.36-2.47,1.07-.63.71-1.03,1.71-1.2,2.99h7.09v-.28c-.08-1.24-.41-2.19-1-2.82s-1.39-.96-2.42-.96Z"/><path class="cls-25" d="m786.52,1090.79c-.16-.32-.31-.83-.43-1.55-1.18,1.23-2.63,1.85-4.35,1.85s-3.02-.47-4.07-1.42-1.58-2.12-1.58-3.52c0-1.76.66-3.12,1.97-4.06,1.31-.94,3.19-1.42,5.62-1.42h2.28v-1.09c0-.86-.24-1.54-.72-2.06-.48-.51-1.21-.77-2.19-.77-.85,0-1.54.21-2.08.63-.54.42-.81.96-.81,1.61h-3.72c0-.91.3-1.76.9-2.55.6-.79,1.42-1.41,2.46-1.86s2.19-.67,3.47-.67c1.94,0,3.48.49,4.64,1.46,1.15.97,1.74,2.34,1.78,4.11v7.47c0,1.49.21,2.68.63,3.57v.26h-3.8Zm-4.09-2.68c.73,0,1.43-.18,2.07-.54.65-.36,1.13-.84,1.46-1.44v-3.12h-2c-1.38,0-2.41.24-3.11.72s-1.04,1.16-1.04,2.04c0,.71.24,1.28.71,1.71.47.42,1.11.63,1.91.63Z"/><path class="cls-25" d="m802.25,1077.62c-.49-.08-1-.12-1.52-.12-1.7,0-2.85.65-3.44,1.96v11.33h-3.72v-16.56h3.55l.09,1.85c.9-1.44,2.14-2.16,3.73-2.16.53,0,.97.07,1.32.21v3.49Z"/><path class="cls-25" d="m813.88,1086.29c0-.66-.27-1.17-.82-1.51-.55-.35-1.45-.65-2.72-.92-1.27-.27-2.32-.6-3.17-1.01-1.86-.9-2.79-2.2-2.79-3.9,0-1.43.6-2.62,1.81-3.58,1.2-.96,2.73-1.44,4.59-1.44,1.98,0,3.58.49,4.8,1.47,1.22.98,1.83,2.25,1.83,3.81h-3.72c0-.71-.27-1.31-.8-1.78-.53-.47-1.23-.71-2.11-.71-.82,0-1.48.19-2,.57-.52.38-.77.88-.77,1.51,0,.57.24,1.02.72,1.33s1.45.63,2.91.96,2.6.7,3.44,1.15c.83.44,1.45.98,1.85,1.6.4.62.6,1.38.6,2.27,0,1.49-.62,2.7-1.85,3.62-1.23.92-2.85,1.38-4.85,1.38-1.36,0-2.57-.24-3.63-.73-1.06-.49-1.89-1.16-2.48-2.02-.59-.86-.89-1.78-.89-2.77h3.61c.05.88.38,1.55.99,2.03.61.47,1.42.71,2.43.71s1.72-.19,2.23-.56c.51-.37.77-.86.77-1.46Z"/><path class="cls-9" d="m490.84,1139.86c0,2.18-.38,4.1-1.13,5.75-.75,1.65-1.83,2.91-3.24,3.8s-3.02,1.32-4.84,1.32-3.42-.44-4.83-1.32c-1.41-.88-2.51-2.14-3.28-3.77-.77-1.63-1.16-3.52-1.17-5.65v-1.25c0-2.17.39-4.09,1.16-5.75.77-1.66,1.86-2.94,3.26-3.82,1.4-.88,3.01-1.32,4.83-1.32s3.43.44,4.83,1.31,2.49,2.13,3.25,3.76,1.15,3.54,1.16,5.72v1.24Zm-3.87-1.16c0-2.47-.47-4.36-1.4-5.68s-2.26-1.97-3.97-1.97-2.98.66-3.93,1.97c-.94,1.31-1.43,3.17-1.45,5.56v1.29c0,2.45.48,4.34,1.43,5.68.95,1.34,2.28,2,3.97,2s3.03-.65,3.96-1.96c.92-1.31,1.39-3.21,1.39-5.72v-1.16Z"/><path class="cls-9" d="m495.65,1150.42v-13.8h-2.53v-2.75h2.53v-1.52c0-1.84.51-3.25,1.53-4.25,1.02-1,2.45-1.5,4.29-1.5.65,0,1.35.09,2.08.28l-.09,2.91c-.41-.08-.88-.12-1.42-.12-1.78,0-2.66.91-2.66,2.74v1.47h3.37v2.75h-3.37v13.8h-3.72Z"/><path class="cls-9" d="m506.76,1150.42v-13.8h-2.53v-2.75h2.53v-1.52c0-1.84.51-3.25,1.53-4.25,1.02-1,2.45-1.5,4.29-1.5.65,0,1.35.09,2.08.28l-.09,2.91c-.41-.08-.88-.12-1.42-.12-1.78,0-2.66.91-2.66,2.74v1.47h3.37v2.75h-3.37v13.8h-3.72Z"/><path class="cls-9" d="m523.49,1150.72c-2.36,0-4.27-.74-5.73-2.23-1.46-1.48-2.2-3.46-2.2-5.93v-.46c0-1.65.32-3.13.96-4.43.64-1.3,1.53-2.31,2.69-3.04,1.15-.72,2.44-1.09,3.86-1.09,2.25,0,4,.72,5.23,2.16s1.84,3.47,1.84,6.11v1.5h-10.82c.11,1.37.57,2.45,1.37,3.25s1.81,1.19,3.02,1.19c1.7,0,3.09-.69,4.16-2.07l2,1.91c-.66.99-1.55,1.76-2.66,2.3s-2.35.82-3.73.82Zm-.44-14.19c-1.02,0-1.84.36-2.47,1.07-.63.71-1.03,1.71-1.2,2.99h7.09v-.28c-.08-1.24-.41-2.19-1-2.82s-1.39-.96-2.42-.96Z"/><path class="cls-9" d="m541.69,1137.25c-.49-.08-1-.12-1.52-.12-1.7,0-2.85.65-3.44,1.96v11.33h-3.72v-16.56h3.55l.09,1.85c.9-1.44,2.14-2.16,3.73-2.16.53,0,.97.07,1.32.21l-.02,3.49Z"/><path class="cls-9" d="m554.08,1133.5c.69,0,1.23.2,1.61.59s.57.88.57,1.48-.19,1.06-.57,1.45-.91.57-1.61.57-1.19-.19-1.58-.57c-.39-.38-.58-.86-.58-1.45s.19-1.08.57-1.48.91-.59,1.59-.59Zm0,12.99c.69,0,1.23.2,1.61.59.38.39.57.89.57,1.48s-.19,1.06-.57,1.45c-.38.38-.91.57-1.61.57s-1.19-.19-1.58-.57c-.39-.38-.58-.86-.58-1.45s.19-1.08.57-1.48c.38-.39.91-.59,1.59-.59Z"/><path class="cls-25" d="m582.88,1150.42h-3.27l-8.38-13.34v13.34h-3.27v-18.81h3.27l8.41,13.39v-13.39h3.24v18.81Z"/><path class="cls-25" d="m585.85,1143.3c0-1.37.27-2.6.81-3.7.54-1.1,1.3-1.94,2.29-2.53.98-.59,2.11-.88,3.38-.88,1.89,0,3.42.61,4.59,1.82,1.18,1.21,1.81,2.82,1.91,4.83v.74c.01,1.38-.25,2.61-.78,3.69-.53,1.08-1.29,1.92-2.27,2.52-.99.59-2.12.89-3.42.89-1.97,0-3.55-.66-4.73-1.97-1.18-1.31-1.78-3.06-1.78-5.25v-.16Zm3.14.27c0,1.44.3,2.56.89,3.38.59.81,1.42,1.22,2.48,1.22s1.88-.41,2.47-1.24c.59-.83.88-2.04.88-3.63,0-1.41-.3-2.53-.91-3.36-.61-.83-1.43-1.24-2.47-1.24s-1.84.41-2.44,1.22c-.6.81-.9,2.03-.9,3.65Z"/><path class="cls-25" d="m622.15,1131.61v12.57c0,2-.64,3.58-1.92,4.75-1.28,1.17-2.98,1.75-5.11,1.75s-3.86-.58-5.13-1.72c-1.27-1.15-1.9-2.75-1.9-4.79v-12.55h3.25v12.58c0,1.26.32,2.22.96,2.88.64.66,1.58,1,2.82,1,2.51,0,3.77-1.33,3.77-3.98v-12.48h3.25Z"/><path class="cls-25" d="m637.57,1143.57c0,2.16-.49,3.89-1.47,5.17-.98,1.29-2.3,1.93-3.95,1.93-1.53,0-2.76-.5-3.68-1.51v6.63h-3.14v-19.35h2.89l.13,1.42c.92-1.12,2.17-1.68,3.76-1.68,1.71,0,3.04.64,4.01,1.91.97,1.27,1.45,3.03,1.45,5.29v.19Zm-3.13-.27c0-1.39-.28-2.5-.83-3.32-.56-.82-1.35-1.23-2.38-1.23-1.28,0-2.2.53-2.76,1.59v6.2c.57,1.08,1.5,1.63,2.79,1.63,1,0,1.78-.4,2.34-1.21.56-.81.85-2.03.85-3.66Z"/><path class="cls-25" d="m641.33,1150.42v-11.65h-2.13v-2.32h2.13v-1.28c0-1.55.43-2.75,1.29-3.59.86-.84,2.07-1.27,3.62-1.27.55,0,1.14.08,1.76.23l-.08,2.45c-.34-.07-.74-.1-1.2-.1-1.5,0-2.25.77-2.25,2.31v1.24h2.84v2.32h-2.84v11.65h-3.14Z"/><path class="cls-25" d="m656.92,1139.31c-.41-.07-.84-.1-1.28-.1-1.44,0-2.41.55-2.91,1.65v9.56h-3.14v-13.98h3l.08,1.56c.76-1.21,1.81-1.82,3.15-1.82.45,0,.82.06,1.11.18v2.95Z"/><path class="cls-25" d="m657.85,1143.3c0-1.37.27-2.6.81-3.7.54-1.1,1.3-1.94,2.29-2.53.98-.59,2.11-.88,3.38-.88,1.89,0,3.42.61,4.59,1.82,1.18,1.21,1.81,2.82,1.91,4.83v.74c.01,1.38-.25,2.61-.78,3.69-.53,1.08-1.29,1.92-2.27,2.52-.99.59-2.12.89-3.42.89-1.97,0-3.55-.66-4.73-1.97-1.18-1.31-1.78-3.06-1.78-5.25v-.16Zm3.14.27c0,1.44.3,2.56.89,3.38.59.81,1.42,1.22,2.48,1.22s1.88-.41,2.47-1.24c.59-.83.88-2.04.88-3.63,0-1.41-.3-2.53-.91-3.36-.61-.83-1.43-1.24-2.47-1.24s-1.84.41-2.44,1.22c-.6.81-.9,2.03-.9,3.65Z"/><path class="cls-25" d="m676.41,1136.44l.09,1.61c1.03-1.25,2.39-1.87,4.07-1.87,2.91,0,4.39,1.67,4.44,5v9.24h-3.14v-9.05c0-.89-.19-1.54-.58-1.97s-1.01-.64-1.88-.64c-1.27,0-2.21.57-2.83,1.72v9.95h-3.14v-13.98h2.96Z"/><path class="cls-25" d="m692.14,1133.04v3.4h2.47v2.32h-2.47v7.8c0,.53.1.92.32,1.16.21.24.59.36,1.13.36.36,0,.73-.04,1.1-.13v2.43c-.71.2-1.4.3-2.07.3-2.41,0-3.62-1.33-3.62-3.99v-7.92h-2.3v-2.32h2.3v-3.4h3.14Z"/><path class="cls-25" d="m707.35,1150.42h-3.25v-18.81h3.25v18.81Z"/><path class="cls-25" d="m713.97,1136.44l.09,1.61c1.03-1.25,2.39-1.87,4.07-1.87,2.91,0,4.39,1.67,4.44,5v9.24h-3.14v-9.05c0-.89-.19-1.54-.58-1.97s-1.01-.64-1.88-.64c-1.27,0-2.21.57-2.83,1.72v9.95h-3.14v-13.98h2.96Z"/><path class="cls-25" d="m730.7,1146.44l2.96-10h3.24l-4.84,13.98h-2.73l-4.88-13.98h3.25l3,10Z"/><path class="cls-25" d="m744.84,1150.67c-1.99,0-3.6-.63-4.84-1.88-1.24-1.25-1.85-2.92-1.85-5v-.39c0-1.4.27-2.64.81-3.74.54-1.1,1.29-1.95,2.27-2.56.97-.61,2.06-.92,3.25-.92,1.9,0,3.37.61,4.41,1.82,1.04,1.21,1.56,2.93,1.56,5.15v1.27h-9.13c.09,1.15.48,2.07,1.16,2.74.68.67,1.53,1.01,2.55,1.01,1.44,0,2.61-.58,3.51-1.74l1.69,1.61c-.56.84-1.31,1.48-2.24,1.94-.93.46-1.98.69-3.15.69Zm-.38-11.97c-.86,0-1.56.3-2.09.9-.53.6-.87,1.44-1.01,2.52h5.98v-.23c-.07-1.05-.35-1.84-.84-2.38s-1.17-.81-2.04-.81Z"/><path class="cls-25" d="m760.72,1146.62c0-.56-.23-.99-.69-1.28s-1.23-.55-2.29-.78c-1.07-.22-1.96-.51-2.67-.85-1.57-.76-2.35-1.86-2.35-3.29,0-1.21.51-2.21,1.52-3.02,1.02-.81,2.31-1.21,3.88-1.21,1.67,0,3.02.41,4.05,1.24,1.03.83,1.54,1.9,1.54,3.22h-3.14c0-.6-.22-1.1-.67-1.5s-1.04-.6-1.78-.6c-.69,0-1.25.16-1.69.48-.44.32-.65.75-.65,1.28,0,.48.2.86.61,1.12s1.22.54,2.45.81c1.23.27,2.2.59,2.9.97.7.37,1.22.82,1.56,1.35.34.53.51,1.16.51,1.91,0,1.26-.52,2.28-1.56,3.06s-2.41,1.17-4.09,1.17c-1.15,0-2.17-.21-3.06-.62-.9-.41-1.59-.98-2.09-1.71-.5-.72-.75-1.5-.75-2.34h3.05c.04.74.32,1.31.84,1.71.52.4,1.2.6,2.05.6s1.46-.16,1.89-.47c.43-.31.65-.72.65-1.23Z"/><path class="cls-25" d="m770.47,1133.04v3.4h2.47v2.32h-2.47v7.8c0,.53.1.92.32,1.16.21.24.59.36,1.13.36.36,0,.73-.04,1.1-.13v2.43c-.71.2-1.4.3-2.07.3-2.41,0-3.62-1.33-3.62-3.99v-7.92h-2.3v-2.32h2.3v-3.4h3.14Z"/><path class="cls-25" d="m778.29,1136.44l.09,1.46c.98-1.14,2.33-1.72,4.03-1.72,1.87,0,3.15.71,3.84,2.14,1.02-1.43,2.45-2.14,4.29-2.14,1.54,0,2.69.43,3.44,1.28s1.14,2.11,1.16,3.77v9.18h-3.14v-9.09c0-.89-.19-1.54-.58-1.95-.39-.41-1.03-.62-1.92-.62-.71,0-1.3.19-1.75.58s-.77.88-.95,1.5v9.58s-3.13,0-3.13,0v-9.2c-.04-1.65-.88-2.47-2.52-2.47-1.26,0-2.15.51-2.67,1.54v10.13h-3.14v-13.98h2.96Z"/><path class="cls-25" d="m804.51,1150.67c-1.99,0-3.6-.63-4.84-1.88s-1.85-2.92-1.85-5v-.39c0-1.4.27-2.64.81-3.74.54-1.1,1.29-1.95,2.27-2.56.97-.61,2.06-.92,3.25-.92,1.9,0,3.37.61,4.41,1.82s1.56,2.93,1.56,5.15v1.27h-9.13c.09,1.15.48,2.07,1.16,2.74.68.67,1.53,1.01,2.55,1.01,1.44,0,2.61-.58,3.51-1.74l1.69,1.61c-.56.84-1.31,1.48-2.24,1.94s-1.98.69-3.14.69Zm-.38-11.97c-.86,0-1.56.3-2.09.9-.53.6-.87,1.44-1.01,2.52h5.98v-.23c-.07-1.05-.35-1.84-.84-2.38-.49-.54-1.17-.81-2.04-.81Z"/><path class="cls-25" d="m815.46,1136.44l.09,1.61c1.03-1.25,2.39-1.87,4.07-1.87,2.91,0,4.39,1.67,4.44,5v9.24h-3.14v-9.05c0-.89-.19-1.54-.58-1.97-.38-.43-1.01-.64-1.88-.64-1.27,0-2.21.57-2.83,1.72v9.95h-3.14v-13.98h2.96Z"/><path class="cls-25" d="m831.19,1133.04v3.4h2.47v2.32h-2.47v7.8c0,.53.1.92.32,1.16.21.24.59.36,1.13.36.36,0,.73-.04,1.1-.13v2.43c-.71.2-1.4.3-2.07.3-2.41,0-3.62-1.33-3.62-3.99v-7.92h-2.3v-2.32h2.3v-3.4h3.14Z"/><path class="cls-9" d="m490.84,1026.12c0,2.18-.38,4.1-1.13,5.75-.75,1.65-1.83,2.91-3.24,3.8s-3.02,1.32-4.84,1.32-3.42-.44-4.83-1.32c-1.41-.88-2.51-2.14-3.28-3.77-.77-1.63-1.16-3.52-1.17-5.65v-1.25c0-2.17.39-4.09,1.16-5.75.77-1.66,1.86-2.94,3.26-3.82,1.4-.88,3.01-1.32,4.83-1.32s3.43.44,4.83,1.31,2.49,2.13,3.25,3.76,1.15,3.54,1.16,5.72v1.24Zm-3.87-1.16c0-2.47-.47-4.36-1.4-5.68s-2.26-1.97-3.97-1.97-2.98.66-3.93,1.97c-.94,1.31-1.43,3.17-1.45,5.56v1.29c0,2.45.48,4.34,1.43,5.68.95,1.34,2.28,2,3.97,2s3.03-.65,3.96-1.96c.92-1.31,1.39-3.21,1.39-5.72v-1.16Z"/><path class="cls-9" d="m509.5,1017.52h-6.95v19.16h-3.84v-19.16h-6.89v-3.12h17.68v3.12Z"/><path class="cls-9" d="m529,1029.43c-.22,2.38-1.1,4.23-2.63,5.56-1.53,1.33-3.57,2-6.11,2-1.78,0-3.34-.42-4.69-1.26-1.35-.84-2.4-2.04-3.13-3.59-.73-1.55-1.12-3.35-1.15-5.4v-2.08c0-2.1.37-3.95,1.12-5.56s1.81-2.84,3.21-3.7,3-1.3,4.83-1.3c2.46,0,4.44.67,5.94,2,1.5,1.33,2.37,3.22,2.62,5.66h-3.86c-.18-1.6-.65-2.76-1.4-3.47-.75-.71-1.85-1.06-3.3-1.06-1.68,0-2.98.62-3.88,1.85-.9,1.23-1.36,3.04-1.38,5.42v1.98c0,2.41.43,4.25,1.29,5.51s2.12,1.9,3.79,1.9c1.52,0,2.66-.34,3.43-1.03s1.25-1.82,1.45-3.41h3.86Z"/><path class="cls-9" d="m542.14,1019.77c.69,0,1.23.2,1.61.59s.57.88.57,1.48-.19,1.06-.57,1.45-.91.57-1.61.57-1.19-.19-1.58-.57c-.39-.38-.58-.86-.58-1.45s.19-1.08.57-1.48.91-.59,1.59-.59Zm0,12.99c.69,0,1.23.2,1.61.59.38.39.57.89.57,1.48s-.19,1.06-.57,1.45c-.38.38-.91.57-1.61.57s-1.19-.19-1.58-.57c-.39-.38-.58-.86-.58-1.45s.19-1.08.57-1.48c.38-.39.91-.59,1.59-.59Z"/><path class="cls-25" d="m570.31,1027.3c0,3.2-.6,5.62-1.8,7.25-1.2,1.63-3.02,2.44-5.47,2.44s-4.22-.79-5.44-2.38c-1.22-1.59-1.84-3.94-1.88-7.05v-3.86c0-3.2.6-5.61,1.8-7.21,1.2-1.6,3.03-2.4,5.49-2.4s4.26.78,5.46,2.34c1.2,1.56,1.81,3.9,1.84,7.01v3.86Zm-3.72-4.16c0-2.09-.29-3.62-.86-4.6s-1.48-1.46-2.72-1.46-2.11.46-2.68,1.38c-.57.92-.87,2.37-.9,4.32v5.05c0,2.08.29,3.63.87,4.65s1.49,1.53,2.74,1.53,2.08-.47,2.65-1.42c.57-.94.87-2.42.9-4.43v-5.04Z"/></svg>