<?xml version="1.0" encoding="utf-8"?>
<!-- Generator: Adobe Illustrator 28.1.0, SVG Export Plug-In . SVG Version: 6.00 Build 0)  -->
<svg version="1.1" xmlns="http://www.w3.org/2000/svg" xmlns:xlink="http://www.w3.org/1999/xlink" x="0px" y="0px"
	 viewBox="0 0 501 501" style="enable-background:new 0 0 501 501;" xml:space="preserve">
<style type="text/css">
	.st0{fill:url(#SVGID_1_);}
	.st1{fill:url(#SVGID_00000116195335937926117300000009798463832795502260_);}
	.st2{fill:#ABB7F4;}
	.st3{fill:url(#SVGID_00000011732547312220546440000001116315086963708292_);}
	.st4{fill:#91B3FA;}
	.st5{fill:url(#SVGID_00000034051133907341813580000007014978928039671168_);}
	.st6{fill:#FFFFFF;}
	.st7{opacity:0.7;fill:url(#SVGID_00000183230230161301900860000015732131732010885781_);}
	.st8{opacity:0.7;fill:url(#SVGID_00000038411807326617268070000011497567504402950282_);}
	.st9{opacity:0.7;fill:url(#SVGID_00000078762798531229430020000007819119624245473158_);}
	.st10{opacity:0.7;fill:url(#SVGID_00000093890816054036786730000011660381988520034727_);}
	.st11{opacity:0.64;}
	.st12{fill:url(#SVGID_00000060731954246237489930000012793954357312821944_);}
	.st13{fill:url(#SVGID_00000034777816170051119400000010117255515085635256_);}
	.st14{fill:url(#SVGID_00000112598417012252440180000005342651082822426499_);}
	.st15{fill:url(#SVGID_00000109714485435221512750000017044887734359376526_);}
	.st16{fill:url(#SVGID_00000018924262872745405930000014055000149481342615_);}
	.st17{fill:url(#SVGID_00000143594773670550779350000000015529097778239659_);}
	.st18{fill:url(#SVGID_00000111155512449712361450000016304065273532491659_);}
	.st19{fill:url(#SVGID_00000054970163374041847670000011164486412514942623_);}
	.st20{fill:url(#SVGID_00000170989304878349729590000009656613996607465886_);}
	.st21{fill:url(#SVGID_00000045616291238967330100000000175845528667196340_);}
	.st22{fill:url(#SVGID_00000173140387888776361910000006661813710908708233_);}
	.st23{fill:url(#SVGID_00000098940869055099454080000018154622840613449139_);}
	.st24{fill:url(#SVGID_00000015339802406053834140000008680219439147523508_);}
	.st25{fill:url(#SVGID_00000169541678813321630230000015798140553647683461_);}
	.st26{fill:url(#SVGID_00000083057505293568408260000000733630758650767491_);}
	.st27{fill:url(#SVGID_00000068673960263378629370000016864960473296822168_);}
	.st28{fill:url(#SVGID_00000048460875738066069010000015968605702515390113_);}
	.st29{fill:url(#SVGID_00000117649890280266495600000012114748936573407891_);}
	.st30{fill:url(#SVGID_00000167393412179757987020000002199233737813607085_);}
	.st31{fill:url(#SVGID_00000119828052251839592500000010167600130773699501_);}
	.st32{fill:url(#SVGID_00000183245306859898815970000009149923163366342573_);}
	.st33{fill:url(#SVGID_00000102531420382605093480000008550128766821118641_);}
	.st34{fill:url(#SVGID_00000093178883071893138410000015429492332701852069_);}
	.st35{fill:url(#SVGID_00000089571347717657714990000009024240087166647426_);}
	.st36{fill:url(#SVGID_00000002351032036393904430000012560757504411062697_);}
	.st37{fill:url(#SVGID_00000180363500166387050140000008800148808305081986_);}
	.st38{fill:url(#SVGID_00000075846965019800307380000003310568278637084349_);}
	.st39{fill:url(#SVGID_00000053523023475723623500000004577204289375508360_);}
	.st40{fill:url(#SVGID_00000096021599511198017010000002385044645794748818_);}
	.st41{fill:url(#SVGID_00000056420751473070657700000011194631316939067045_);}
	.st42{fill:url(#SVGID_00000072250088627434391990000003154905129543068804_);}
	.st43{fill:url(#SVGID_00000057826707692200228720000015739129433136014006_);}
	.st44{fill:url(#SVGID_00000150818777593965942190000012471311510996652430_);}
	.st45{fill:url(#SVGID_00000147940255170099111640000010830793130100214663_);}
	.st46{fill:url(#SVGID_00000144298706724519430510000004300978341694627477_);}
	.st47{fill:url(#SVGID_00000157296835793374257200000005352341754118468285_);}
	.st48{fill:url(#SVGID_00000162332540189419111260000009571874201339132068_);}
	.st49{fill:url(#SVGID_00000181075715401909531500000002455642776588293816_);}
	.st50{fill:url(#SVGID_00000098182544953922033250000001714946492102335905_);}
	.st51{fill:url(#SVGID_00000003075622114407385770000017141433676150579112_);}
	.st52{fill:url(#SVGID_00000173160596229766759170000003120697307475060353_);}
	.st53{fill:url(#SVGID_00000141417433486781008790000011275329547755896243_);}
	.st54{fill:url(#SVGID_00000072277330575105308130000010419019184665947321_);}
	.st55{fill:url(#SVGID_00000084494922080629719170000011443638330788726404_);}
	.st56{fill:url(#SVGID_00000088834629662724155120000006277459907144119943_);}
	.st57{fill:url(#SVGID_00000045606665157151682070000004418818889049429164_);}
	.st58{fill:url(#SVGID_00000033367906088529045950000013240785200711990190_);}
	.st59{fill:url(#SVGID_00000115491948456045363020000001305566069046317710_);}
	.st60{fill:url(#SVGID_00000067207430104899757560000015151025669769209237_);}
	.st61{fill:url(#SVGID_00000054976772823864274030000009593587522479046548_);}
	.st62{fill:url(#SVGID_00000117651189617978069540000017681540170218496185_);}
	.st63{fill:url(#SVGID_00000131357765654108788080000013271741074945486481_);}
	.st64{fill:url(#SVGID_00000034048727189205132150000017754204710952258998_);}
	.st65{fill:url(#SVGID_00000131353955230515884640000017615903680929580731_);}
	.st66{fill:url(#SVGID_00000015315467465333128160000010811875983214092673_);}
	.st67{fill:url(#SVGID_00000001629594480557763060000004153839313496983219_);}
	.st68{fill:url(#SVGID_00000045615893550565125700000016364513230387845773_);}
	.st69{fill:url(#SVGID_00000152234524979256634230000011517052685022240189_);}
	.st70{fill:url(#SVGID_00000134964811377231406250000010834745916614461616_);}
	.st71{fill:url(#SVGID_00000022531806999084930760000010895842216203095458_);}
	.st72{fill:url(#SVGID_00000049932320545184707730000003700213822312521606_);}
	.st73{fill:url(#SVGID_00000014622486284128928610000018306952135727846815_);}
	.st74{fill:url(#SVGID_00000085228213490712532930000002757070804198710455_);}
	.st75{fill:url(#SVGID_00000085942540568913499100000003581372626543915416_);}
	.st76{fill:url(#SVGID_00000004528797301756279300000013485552420314382737_);}
	.st77{fill:url(#SVGID_00000021802740281674247990000014644722206967120801_);}
	.st78{fill:url(#SVGID_00000000920291438307894520000017456059554831709571_);}
	.st79{fill:url(#SVGID_00000093884729038901892130000005748435268625784222_);}
	.st80{fill:#BDD0FB;}
	.st81{fill:url(#SVGID_00000036966655675392389450000001019432824701859001_);}
	.st82{opacity:0.3;}
	.st83{fill:url(#SVGID_00000119096654497618149600000013045528069169784479_);}
	.st84{fill:url(#SVGID_00000035529190885245632250000009735163902633108391_);}
	.st85{fill:url(#SVGID_00000085945899144476965020000014664872291251212718_);}
	.st86{fill:url(#SVGID_00000047020641557401730760000010687275431419261331_);}
</style>
<g id="Background">
</g>
<g id="Illustration">
	<g>
		<linearGradient id="SVGID_1_" gradientUnits="userSpaceOnUse" x1="476.4549" y1="442.7681" x2="187.309" y2="189.7656">
			<stop  offset="0" style="stop-color:#DAE3FE"/>
			<stop  offset="1" style="stop-color:#E9EFFD"/>
		</linearGradient>
		<path class="st0" d="M427.3,311.4c-37.4,88-136.9,137.3-223.2,124c-14-2.2-52.6-8.6-86.7-39c-65.6-58.5-79.7-174.4-26.7-256.1
			C129.2,80.8,198.3,47.1,264,48.8c14.1,0.4,68.3,2.6,115.9,41.9c7,5.8,22.4,19.5,36.3,41.2C448.9,182.9,451.7,254,427.3,311.4z"/>
		<g>
			
				<linearGradient id="SVGID_00000075135936259608979790000010956320500444176819_" gradientUnits="userSpaceOnUse" x1="89.0443" y1="232.2251" x2="161.0158" y2="247.4661">
				<stop  offset="0" style="stop-color:#4F52FF"/>
				<stop  offset="1" style="stop-color:#223F97"/>
			</linearGradient>
			<path style="fill:url(#SVGID_00000075135936259608979790000010956320500444176819_);" d="M82.1,173.6l26.2,28.7
				c-16.4,12.4-26.7,36.7,0.8,65.5l-36.9,17.9C46.3,240.5,49.9,204.6,82.1,173.6z"/>
			<path class="st2" d="M66.7,275.4l25.4,0.4l4.6-25.1c14,28.7,47,40.7,84.8,28.5l19.1,35.5C146,339.5,90.8,326.7,66.7,275.4z"/>
			
				<linearGradient id="SVGID_00000134215523679080281140000002965514439500558496_" gradientUnits="userSpaceOnUse" x1="346.4459" y1="125.7461" x2="341.3889" y2="215.5087">
				<stop  offset="0" style="stop-color:#4F52FF"/>
				<stop  offset="1" style="stop-color:#223F97"/>
			</linearGradient>
			<path style="fill:url(#SVGID_00000134215523679080281140000002965514439500558496_);" d="M280,237.4
				c20.6-40.8,75.1-55.8,114.2-33.5l39.7-13.1C387.5,129,303.3,140.8,251,202.5L280,237.4z"/>
			<path class="st4" d="M371.5,280.6l16.8,39.3c61.4-25.6,80-112.2,24.6-150.4l0.4,25.5l-26.1,5.4
				C425.7,218.7,408.5,270.4,371.5,280.6z"/>
			<path class="st2" d="M261.9,291.7c58.2,41.8,109.1,47.3,149.7,14.1L383,295.6l8-25.4c-35.6,24.7-68.7,16.7-100.5-8.6L261.9,291.7
				z"/>
			<path class="st2" d="M82.1,173.6l0,27.6l26.2,1.1c17-11,41.6-10.1,72.6-0.2l18-39.9C151.9,142,113.2,146.8,82.1,173.6z"/>
			
				<linearGradient id="SVGID_00000067213403441218124470000015538156580356911493_" gradientUnits="userSpaceOnUse" x1="202.9218" y1="162.141" x2="330.7769" y2="386.5222">
				<stop  offset="0" style="stop-color:#4F52FF"/>
				<stop  offset="1" style="stop-color:#223F97"/>
			</linearGradient>
			<path style="fill:url(#SVGID_00000067213403441218124470000015538156580356911493_);" d="M180.9,202.1l-14.7-30.7l32.7-9.2
				c21.3,11.1,38.4,24.7,52.1,40.3c15.1,33.2,35.7,61.5,61.6,73.5l-33.9,0.4l5.2,29.6c-13.3-8-26.1-16.9-37.4-26.6L221,234.1
				C212.1,220.6,199.8,209.6,180.9,202.1z"/>
			<path class="st4" d="M251,202.5c-10,10.7-16.5,26.4-25.8,37.5c-14.9,17.8-33.6,40.8-67.2,43.8l27.4,14.2l-16.3,26.8
				c54.8-10.9,93.1-46.6,110.9-87.4v-39.2L251,202.5z"/>
		</g>
		<g>
			<path class="st2" d="M260.3,88.5L393.7,88c1.3,0,2.3,1,2.3,2.3l-0.3,46.7c0,1.3-1.1,2.3-2.4,2.3c-11.8-0.4-132.3-1.9-134.6-1.8
				c-2.3,0.1-1-36.8-0.7-46.7C258.1,89.5,259.1,88.5,260.3,88.5z"/>
			<path class="st6" d="M393.5,137.4L393.5,137.4c-7.5-0.2-79.6-1.1-114.2-1.6c-10.1-0.1-17.3-0.2-19.2-0.2l-0.2,0l0-0.2
				c-0.8-4.6-0.8-20,0-44.6c0-0.3,0.2-0.5,0.5-0.5l133.4-0.6c0.1,0,0.3,0.1,0.3,0.1c0.1,0.1,0.1,0.2,0.1,0.3l-0.3,46.7
				C393.9,137.2,393.7,137.4,393.5,137.4z M260.2,135.2c2.2,0,9.2,0.1,19,0.2c34.6,0.4,106.7,1.3,114.2,1.6l0,0c0,0,0,0,0,0
				l0.3-46.7l0-0.3l0,0.2l-133.4,0.6c0,0,0,0,0,0C259.5,115.1,259.4,130.4,260.2,135.2z"/>
			
				<linearGradient id="SVGID_00000098185738436108465520000004699844456445466552_" gradientUnits="userSpaceOnUse" x1="266.0384" y1="100.594" x2="319.0142" y2="100.594">
				<stop  offset="0" style="stop-color:#DAE3FE"/>
				<stop  offset="1" style="stop-color:#E9EFFD"/>
			</linearGradient>
			<path style="opacity:0.7;fill:url(#SVGID_00000098185738436108465520000004699844456445466552_);" d="M266,100.6L266,100.6
				c0,1.3,0.4,2.3,0.9,2.3h51.1c0.5,0,0.9-1,0.9-2.3l0,0c0-1.3-0.4-2.3-0.9-2.3H267C266.5,98.3,266,99.3,266,100.6z"/>
			
				<linearGradient id="SVGID_00000021809950147694593950000016840508594822666379_" gradientUnits="userSpaceOnUse" x1="266.0384" y1="108.3874" x2="319.0142" y2="108.3874">
				<stop  offset="0" style="stop-color:#DAE3FE"/>
				<stop  offset="1" style="stop-color:#E9EFFD"/>
			</linearGradient>
			<path style="opacity:0.7;fill:url(#SVGID_00000021809950147694593950000016840508594822666379_);" d="M266,108.4L266,108.4
				c0,1.3,0.4,2.3,0.9,2.3h51.1c0.5,0,0.9-1,0.9-2.3l0,0c0-1.3-0.4-2.3-0.9-2.3H267C266.5,106.1,266,107.1,266,108.4z"/>
			
				<linearGradient id="SVGID_00000090281726263694978070000002452665075187181715_" gradientUnits="userSpaceOnUse" x1="266.0384" y1="116.1809" x2="319.0142" y2="116.1809">
				<stop  offset="0" style="stop-color:#DAE3FE"/>
				<stop  offset="1" style="stop-color:#E9EFFD"/>
			</linearGradient>
			<path style="opacity:0.7;fill:url(#SVGID_00000090281726263694978070000002452665075187181715_);" d="M266,116.2L266,116.2
				c0,1.3,0.4,2.3,0.9,2.3h51.1c0.5,0,0.9-1,0.9-2.3l0,0c0-1.3-0.4-2.3-0.9-2.3H267C266.5,113.9,266,114.9,266,116.2z"/>
			
				<linearGradient id="SVGID_00000119115323209279928270000014038974412855805335_" gradientUnits="userSpaceOnUse" x1="266.0384" y1="123.9743" x2="319.0142" y2="123.9743">
				<stop  offset="0" style="stop-color:#DAE3FE"/>
				<stop  offset="1" style="stop-color:#E9EFFD"/>
			</linearGradient>
			<path style="opacity:0.7;fill:url(#SVGID_00000119115323209279928270000014038974412855805335_);" d="M266,124L266,124
				c0,1.3,0.4,2.3,0.9,2.3h51.1c0.5,0,0.9-1,0.9-2.3l0,0c0-1.3-0.4-2.3-0.9-2.3H267C266.5,121.7,266,122.7,266,124z"/>
			<g>
				<circle class="st6" cx="332" cy="102.2" r="8.9"/>
				<circle class="st6" cx="354" cy="102.2" r="8.9"/>
				<circle class="st6" cx="376.1" cy="102.5" r="8.9"/>
				<g>
					<path class="st2" d="M337.2,100.3c0.3,0.7,0.4,1.4,0.4,2.2c0,3.2-2.6,5.7-5.7,5.7c-3.2,0-5.7-2.6-5.7-5.7
						c0-3.2,2.6-5.7,5.7-5.7c0.1,0,0.2,0,0.3,0v-1.4c-0.1,0-0.2,0-0.3,0c-4,0-7.2,3.2-7.2,7.2c0,4,3.2,7.2,7.2,7.2
						c4,0,7.2-3.2,7.2-7.2c0-1-0.2-1.9-0.5-2.7L337.2,100.3z"/>
					<path class="st2" d="M357,107.3c-0.9,0.6-1.9,0.9-3,0.9c-3.2,0-5.7-2.6-5.7-5.7c0-3.2,2.6-5.7,5.7-5.7c0.1,0,0.2,0,0.3,0v-1.4
						c-0.1,0-0.2,0-0.3,0c-4,0-7.2,3.2-7.2,7.2c0,4,3.2,7.2,7.2,7.2c1.4,0,2.7-0.4,3.8-1.1L357,107.3z"/>
					<path class="st2" d="M380.9,105.7c-1,1.5-2.8,2.5-4.7,2.5c-3.2,0-5.7-2.6-5.7-5.7c0-3.2,2.6-5.7,5.7-5.7c0.1,0,0.2,0,0.3,0
						v-1.4c-0.1,0-0.2,0-0.3,0c-4,0-7.2,3.2-7.2,7.2c0,4,3.2,7.2,7.2,7.2c2.4,0,4.6-1.2,5.9-3.1L380.9,105.7z"/>
				</g>
				<g class="st11">
					
						<linearGradient id="SVGID_00000034804167630471613950000000333258003292839083_" gradientUnits="userSpaceOnUse" x1="323.0715" y1="116.5034" x2="340.8473" y2="116.5034">
						<stop  offset="0" style="stop-color:#DAE3FE"/>
						<stop  offset="1" style="stop-color:#E9EFFD"/>
					</linearGradient>
					<path style="fill:url(#SVGID_00000034804167630471613950000000333258003292839083_);" d="M339.2,114.9h-14.5
						c-0.9,0-1.6,0.7-1.6,1.6c0,0.9,0.7,1.6,1.6,1.6h14.5c0.9,0,1.6-0.7,1.6-1.6C340.8,115.6,340.1,114.9,339.2,114.9z"/>
					
						<linearGradient id="SVGID_00000108994885086627699410000003461627285248937642_" gradientUnits="userSpaceOnUse" x1="345.1605" y1="116.5034" x2="362.9362" y2="116.5034">
						<stop  offset="0" style="stop-color:#DAE3FE"/>
						<stop  offset="1" style="stop-color:#E9EFFD"/>
					</linearGradient>
					<path style="fill:url(#SVGID_00000108994885086627699410000003461627285248937642_);" d="M361.3,114.9h-14.5
						c-0.9,0-1.6,0.7-1.6,1.6c0,0.9,0.7,1.6,1.6,1.6h14.5c0.9,0,1.6-0.7,1.6-1.6C362.9,115.6,362.2,114.9,361.3,114.9z"/>
					
						<linearGradient id="SVGID_00000016758278627735168630000002123253722578435733_" gradientUnits="userSpaceOnUse" x1="367.2494" y1="116.5034" x2="385.0251" y2="116.5034">
						<stop  offset="0" style="stop-color:#DAE3FE"/>
						<stop  offset="1" style="stop-color:#E9EFFD"/>
					</linearGradient>
					<path style="fill:url(#SVGID_00000016758278627735168630000002123253722578435733_);" d="M368.9,118.1h14.5
						c0.9,0,1.6-0.7,1.6-1.6c0-0.9-0.7-1.6-1.6-1.6h-14.5c-0.9,0-1.6,0.7-1.6,1.6C367.2,117.4,368,118.1,368.9,118.1z"/>
					
						<linearGradient id="SVGID_00000041281010609684113800000004513807230996694404_" gradientUnits="userSpaceOnUse" x1="323.0715" y1="126.4713" x2="340.8473" y2="126.4713">
						<stop  offset="0" style="stop-color:#DAE3FE"/>
						<stop  offset="1" style="stop-color:#E9EFFD"/>
					</linearGradient>
					<path style="fill:url(#SVGID_00000041281010609684113800000004513807230996694404_);" d="M339.2,120h-14.5
						c-0.9,0-1.6,0.7-1.6,1.6v9.7c0,0.9,0.7,1.6,1.6,1.6h14.5c0.9,0,1.6-0.7,1.6-1.6v-9.7C340.8,120.7,340.1,120,339.2,120z"/>
					
						<linearGradient id="SVGID_00000023245905945953389560000011496941521343658169_" gradientUnits="userSpaceOnUse" x1="345.1605" y1="126.4713" x2="362.9362" y2="126.4713">
						<stop  offset="0" style="stop-color:#DAE3FE"/>
						<stop  offset="1" style="stop-color:#E9EFFD"/>
					</linearGradient>
					<path style="fill:url(#SVGID_00000023245905945953389560000011496941521343658169_);" d="M361.3,120h-14.5
						c-0.9,0-1.6,0.7-1.6,1.6v9.7c0,0.9,0.7,1.6,1.6,1.6h14.5c0.9,0,1.6-0.7,1.6-1.6v-9.7C362.9,120.7,362.2,120,361.3,120z"/>
					
						<linearGradient id="SVGID_00000003818666141297062350000010581730339340026790_" gradientUnits="userSpaceOnUse" x1="367.2494" y1="126.4713" x2="385.0251" y2="126.4713">
						<stop  offset="0" style="stop-color:#DAE3FE"/>
						<stop  offset="1" style="stop-color:#E9EFFD"/>
					</linearGradient>
					<path style="fill:url(#SVGID_00000003818666141297062350000010581730339340026790_);" d="M383.4,120h-14.5
						c-0.9,0-1.6,0.7-1.6,1.6v9.7c0,0.9,0.7,1.6,1.6,1.6h14.5c0.9,0,1.6-0.7,1.6-1.6v-9.7C385,120.7,384.3,120,383.4,120z"/>
				</g>
			</g>
		</g>
		<g>
			<g>
				
					<linearGradient id="SVGID_00000094607951471550169170000008236570415900226433_" gradientUnits="userSpaceOnUse" x1="5216.9038" y1="411.0965" x2="5150.3086" y2="483.5334" gradientTransform="matrix(1 9.500000e-03 -9.500000e-03 1 -4989.1938 -48.2319)">
					<stop  offset="0" style="stop-color:#09005D"/>
					<stop  offset="1" style="stop-color:#1A0F91"/>
				</linearGradient>
				<path style="fill:url(#SVGID_00000094607951471550169170000008236570415900226433_);" d="M202.7,417.6c0,0-0.7,3.9-1.1,7.8
					c-0.1,1.5,1,2.8,2.5,2.9c5.1,0.3,16.2,0.8,20.1,0.6c0.6,0,1-0.6,0.8-1.2l0,0c-0.2-0.5-0.5-0.8-1-1.1l-18.1-8.5L202.7,417.6z"/>
				
					<linearGradient id="SVGID_00000173869292479008327480000016222096181503299237_" gradientUnits="userSpaceOnUse" x1="5195.2881" y1="416.4758" x2="5201.2031" y2="416.4758" gradientTransform="matrix(1 9.500000e-03 -9.500000e-03 1 -4989.1938 -48.2319)">
					<stop  offset="0" style="stop-color:#FEBBBA"/>
					<stop  offset="1" style="stop-color:#FF928E"/>
				</linearGradient>
				<path style="fill:url(#SVGID_00000173869292479008327480000016222096181503299237_);" d="M202.2,415.3l0.5,4.7
					c0,0,3.2,1.5,5.4-0.1l-1.3-5.2L202.2,415.3z"/>
				
					<linearGradient id="SVGID_00000173845965359142563820000002843790281859251366_" gradientUnits="userSpaceOnUse" x1="5222.1509" y1="329.1726" x2="5165.481" y2="405.9814" gradientTransform="matrix(1 9.500000e-03 -9.500000e-03 1 -4989.1938 -48.2319)">
					<stop  offset="0" style="stop-color:#09005D"/>
					<stop  offset="1" style="stop-color:#1A0F91"/>
				</linearGradient>
				<path style="fill:url(#SVGID_00000173845965359142563820000002843790281859251366_);" d="M203.4,327.5
					c-0.3,1.2-1.9,60.9,4.3,87.6c0.1,0.4-0.1,0.9-0.5,1.1c-1,0.4-2.9,1-5.2,1c-0.7,0-1.3-0.5-1.5-1.1c-1.8-6.2-10.2-37.4-11.1-67.1
					c-1-33.2,0-1.1,0-1.1l0.9-20.5L203.4,327.5z"/>
				
					<linearGradient id="SVGID_00000152976335408435370790000016348935220441150909_" gradientUnits="userSpaceOnUse" x1="5201.9644" y1="397.3594" x2="5135.3662" y2="469.7993" gradientTransform="matrix(1 9.500000e-03 -9.500000e-03 1 -4989.1938 -48.2319)">
					<stop  offset="0" style="stop-color:#09005D"/>
					<stop  offset="1" style="stop-color:#1A0F91"/>
				</linearGradient>
				<path style="fill:url(#SVGID_00000152976335408435370790000016348935220441150909_);" d="M181.8,419.5c0,0-1.1,2-2.2,7.2
					c-0.2,0.9,0.5,1.9,1.4,2c1.7,0.2,4.3,0.4,6.4,0.4c1,0,1.7-0.8,1.6-1.8c-0.2-1.9-0.9-5.1-3.1-7.5L181.8,419.5z"/>
				
					<linearGradient id="SVGID_00000041255170896931826880000004194868525935469994_" gradientUnits="userSpaceOnUse" x1="5173.9688" y1="416.1716" x2="5179.0757" y2="416.1716" gradientTransform="matrix(1 9.500000e-03 -9.500000e-03 1 -4989.1938 -48.2319)">
					<stop  offset="0" style="stop-color:#FEBBBA"/>
					<stop  offset="1" style="stop-color:#FF928E"/>
				</linearGradient>
				<path style="fill:url(#SVGID_00000041255170896931826880000004194868525935469994_);" d="M180.9,413.4l1.2,7.1
					c0,0,1.3,1,3.8,0.3l-0.5-7.6L180.9,413.4z"/>
				
					<linearGradient id="SVGID_00000157291446850144150590000009582842179432190119_" gradientUnits="userSpaceOnUse" x1="5212.0508" y1="321.7209" x2="5155.3818" y2="398.5288" gradientTransform="matrix(1 9.500000e-03 -9.500000e-03 1 -4989.1938 -48.2319)">
					<stop  offset="0" style="stop-color:#09005D"/>
					<stop  offset="1" style="stop-color:#1A0F91"/>
				</linearGradient>
				<path style="fill:url(#SVGID_00000157291446850144150590000009582842179432190119_);" d="M178.2,329.1
					c-5.5,31.4,0.4,77.8,2.4,86.9c0.1,0.6,0.6,1,1.1,1.1c1,0.2,2.5,0.3,4.1-0.1c0.5-0.1,0.9-0.6,0.9-1.2c0.4-7.3,0.3-52.3,5.3-70
					c0.3-0.9,0.8-1.7,1.6-2.2l9.5-6.6l0.8-10.8L178.2,329.1z"/>
				<g>
					
						<linearGradient id="SVGID_00000128449851575961518400000004601548366173965744_" gradientUnits="userSpaceOnUse" x1="4109.9419" y1="521.977" x2="4120.3198" y2="471.9733" gradientTransform="matrix(-1 0 0 1 4360.6606 0)">
						<stop  offset="0" style="stop-color:#FF928E"/>
						<stop  offset="1" style="stop-color:#475D97"/>
					</linearGradient>
					<path style="fill:url(#SVGID_00000128449851575961518400000004601548366173965744_);" d="M212,269.8
						c-15.6-0.4-32.9,3.8-32.9,3.8c-4.9,27.1-1.4,58.5-1.4,58.5c12.1,3.3,25.8-1.7,25.8-1.7c2.1-11.3,11.8-43.2,11.8-43.2
						c7.6-0.9,14-3,19.2-5.9c-3.9-4.6-5.7-10.5-6.5-13.9C222.4,269.1,216.8,269.9,212,269.8z"/>
					
						<linearGradient id="SVGID_00000048493924127001506990000008197988887904579492_" gradientUnits="userSpaceOnUse" x1="5219.6362" y1="262.1483" x2="5249.8584" y2="262.1483" gradientTransform="matrix(1 9.500000e-03 -9.500000e-03 1 -4989.1938 -48.2319)">
						<stop  offset="0" style="stop-color:#FEBBBA"/>
						<stop  offset="1" style="stop-color:#FF928E"/>
					</linearGradient>
					<path style="fill:url(#SVGID_00000048493924127001506990000008197988887904579492_);" d="M258.3,247.2c-1.5-1.9-3.5-1-3.5-1
						c-2.4,9.7-14.5,17.5-26.9,21.2c0.8,3.5,2.6,9.3,6.5,13.9C255.1,270,258.3,247.2,258.3,247.2z"/>
				</g>
				<g>
					
						<linearGradient id="SVGID_00000093161155372997199670000008462892147839498677_" gradientUnits="userSpaceOnUse" x1="256.929" y1="257.5646" x2="260.3884" y2="234.6069">
						<stop  offset="0" style="stop-color:#FEBBBA"/>
						<stop  offset="1" style="stop-color:#FF928E"/>
					</linearGradient>
					<path style="fill:url(#SVGID_00000093161155372997199670000008462892147839498677_);" d="M258,247.7c0.2,0.5-1.7,1.3-2.8-0.8
						c0-1-0.6-5.3,0-6.1c3.2-4.3,9.5-9.7,9.5-9.7c1,1,0.2,2,0.2,2l-3,3.1c0.6,1.1,1.4,2.1,1.7,3.5c0.3,1,0.1,2.1-0.4,3.1
						c-0.5,0.9-1.3,2.2-2,3.1C259.8,247.7,258,247.7,258,247.7z"/>
					
						<linearGradient id="SVGID_00000089559697734493089610000001169250381406757306_" gradientUnits="userSpaceOnUse" x1="5249.7139" y1="241.7167" x2="5258.1758" y2="228.7066" gradientTransform="matrix(1 9.500000e-03 -9.500000e-03 1 -4989.1938 -48.2319)">
						<stop  offset="0" style="stop-color:#FEBBBA"/>
						<stop  offset="1" style="stop-color:#FF928E"/>
					</linearGradient>
					<path style="fill:url(#SVGID_00000089559697734493089610000001169250381406757306_);" d="M260.4,238.2l-2.8,2.3l-0.9,2.3
						l2.4,2.7c0,0,0.9-4.6,1.5-5.5C261.3,239,261,238.5,260.4,238.2z"/>
				</g>
				
					<linearGradient id="SVGID_00000181078085366648920230000002501924639104953493_" gradientUnits="userSpaceOnUse" x1="4138.4072" y1="527.8845" x2="4148.7852" y2="477.8809" gradientTransform="matrix(-1 0 0 1 4360.6606 0)">
					<stop  offset="0" style="stop-color:#FF928E"/>
					<stop  offset="1" style="stop-color:#475D97"/>
				</linearGradient>
				<path style="fill:url(#SVGID_00000181078085366648920230000002501924639104953493_);" d="M184.9,288.8l-5.8-15.2
					c0,0-14.7,9.8-17.2,22.3c2.8,0.2,7.8,1,12.7,3.5C175.6,293.5,184.9,288.8,184.9,288.8z"/>
				
					<linearGradient id="SVGID_00000166637739505322752190000013273526296247448498_" gradientUnits="userSpaceOnUse" x1="5153.5044" y1="304.953" x2="5191.7495" y2="304.953" gradientTransform="matrix(1 9.500000e-03 -9.500000e-03 1 -4989.1938 -48.2319)">
					<stop  offset="0" style="stop-color:#FEBBBA"/>
					<stop  offset="1" style="stop-color:#FF928E"/>
				</linearGradient>
				<path style="fill:url(#SVGID_00000166637739505322752190000013273526296247448498_);" d="M197.5,303.1c0,0-16.5,9.1-21.9,1.1
					c-1.1-1.7-1.4-3.3-1.1-4.8c-4.9-2.5-9.9-3.3-12.7-3.5c-0.8,3.8-0.4,7.8,1.8,11.9c9.5,17.8,36-0.6,36-0.6L197.5,303.1z"/>
				
					<linearGradient id="SVGID_00000046332838813027359080000003126474024989787577_" gradientUnits="userSpaceOnUse" x1="5182.8726" y1="264.0673" x2="5197.9941" y2="264.0673" gradientTransform="matrix(1 9.500000e-03 -9.500000e-03 1 -4989.1938 -48.2319)">
					<stop  offset="0" style="stop-color:#FEBBBA"/>
					<stop  offset="1" style="stop-color:#FF928E"/>
				</linearGradient>
				<path style="fill:url(#SVGID_00000046332838813027359080000003126474024989787577_);" d="M196.2,257l-5.1,14.3
					c-0.1,0.2,0,0.5,0.2,0.6c1.3,0.8,6.2,3,12.1-0.7c0.6-0.4,1-1,1.1-1.7l1.7-12.4L196.2,257z"/>
				<g>
					
						<linearGradient id="SVGID_00000039092291219564409670000005985903431086638219_" gradientUnits="userSpaceOnUse" x1="-2123.8936" y1="1500.7938" x2="-2129.5444" y2="1482.1566" gradientTransform="matrix(0.7523 -0.6588 0.6588 0.7523 819.0621 -2272.6375)">
						<stop  offset="0" style="stop-color:#FEBBBA"/>
						<stop  offset="1" style="stop-color:#FF928E"/>
					</linearGradient>
					<path style="fill:url(#SVGID_00000039092291219564409670000005985903431086638219_);" d="M207.2,243.8c0,0,5.4,10.3,4.6,14.5
						c-0.7,4.1-7.5,3.8-13.4,0.4l-4-11.1L207.2,243.8z"/>
					
						<linearGradient id="SVGID_00000150066391008139107080000003367854362551350412_" gradientUnits="userSpaceOnUse" x1="-2128.9912" y1="1468.321" x2="-2124.2646" y2="1495.2808" gradientTransform="matrix(0.7523 -0.6588 0.6588 0.7523 819.0621 -2272.6375)">
						<stop  offset="0" style="stop-color:#09005D"/>
						<stop  offset="1" style="stop-color:#1A0F91"/>
					</linearGradient>
					<path style="fill:url(#SVGID_00000150066391008139107080000003367854362551350412_);" d="M198.8,253.1c0.2-0.1,0.3-0.4,0.2-0.6
						c-0.4-0.7-1.2-2-1.5-3.2c0,0-1-0.6,2.5-1.4c3.5-0.8,8.7-2,9.8-5c1.1-2.9-1.6-10.2-6.1-4.4c-0.2,0.2-0.5,0.2-0.7,0
						c-0.7-1-2.6-3-5.3-1.8c-2.5,1.1-2.8,2.9-2.8,3.8c0,0.3-0.2,0.5-0.5,0.4c-1.3-0.3-4.3-0.5-5.7,2.6c-1.2,2.5-0.4,4,0.2,4.7
						c0.2,0.2,0.1,0.6-0.2,0.7c-0.8,0.2-1.9,0.9-1.8,2.9c0.1,2.7,3.1,2.5,4,2.4c0.1,0,0.3,0,0.4,0.1c0.7,0.8,4,4.3,7.6,4.7
						c0.3,0,0.6-0.3,0.5-0.6l-1.5-4.5c-0.1-0.2,0-0.4,0.2-0.5L198.8,253.1z"/>
					
						<linearGradient id="SVGID_00000133525571975530969380000002677104869202261918_" gradientUnits="userSpaceOnUse" x1="-2129.6699" y1="1500.7069" x2="-2134.7539" y2="1483.9386" gradientTransform="matrix(0.7523 -0.6588 0.6588 0.7523 819.0621 -2272.6375)">
						<stop  offset="0" style="stop-color:#FEBBBA"/>
						<stop  offset="1" style="stop-color:#FF928E"/>
					</linearGradient>
					<path style="fill:url(#SVGID_00000133525571975530969380000002677104869202261918_);" d="M199.4,253.8c0,0-3.9-2.7-4.2-0.5
						c-0.3,2.2,3.5,3.3,5.4,2.5L199.4,253.8z"/>
				</g>
				<g>
					<g>
						
							<linearGradient id="SVGID_00000147924164052111661040000009221539497737541249_" gradientUnits="userSpaceOnUse" x1="4915.5762" y1="281.3783" x2="4936.6797" y2="369.3103" gradientTransform="matrix(1 0 0 1 -4705.6621 0)">
							<stop  offset="0" style="stop-color:#09005D"/>
							<stop  offset="1" style="stop-color:#1A0F91"/>
						</linearGradient>
						<path style="fill:url(#SVGID_00000147924164052111661040000009221539497737541249_);" d="M194.2,317.5l9-31.3
							c0.1-0.4,0.4-0.6,0.8-0.7c1.6-0.2,6.3-0.7,11.8-1.2c6.6-0.6,14.2-1,18.7-0.6c0.6,0.1,1,0.7,0.7,1.3
							c-2.6,5.2-13.2,26.5-18.5,33.5c-0.2,0.2-0.4,0.4-0.7,0.4l-20.8-0.2C194.4,318.7,194,318.1,194.2,317.5z"/>
						
							<linearGradient id="SVGID_00000020397359701752402370000002187794158099117959_" gradientUnits="userSpaceOnUse" x1="4901.1152" y1="304.641" x2="4913.0723" y2="304.641" gradientTransform="matrix(1 0 0 1 -4705.6621 0)">
							<stop  offset="0" style="stop-color:#FEBBBA"/>
							<stop  offset="1" style="stop-color:#FF928E"/>
						</linearGradient>
						<path style="fill:url(#SVGID_00000020397359701752402370000002187794158099117959_);" d="M196.3,310c0,0-1.3-5.1-0.7-7
							c0.5-1.8,1.5-4.2,4.7-3.6c3.3,0.5,7.1,1.9,7.1,1.9s-0.2,2.4-2.7,1.6l1.5,1.2c0,0-0.2,1.9-2.3,0.9l1.4,1.6c0,0-0.9,1.6-2.4,0.6
							C201.4,306.1,200.7,310.6,196.3,310z"/>
					</g>
					<path class="st4" d="M215.1,293.7c0,1.5,1.2,2.6,2.6,2.6c1.5,0,2.6-1.2,2.6-2.6c0-1.5-1.2-2.6-2.6-2.6
						C216.3,291.1,215.1,292.2,215.1,293.7z"/>
					
						<linearGradient id="SVGID_00000122000437371594996890000013779001884419907717_" gradientUnits="userSpaceOnUse" x1="203.4693" y1="290.5167" x2="229.1262" y2="290.5167">
						<stop  offset="0" style="stop-color:#DAE3FE"/>
						<stop  offset="1" style="stop-color:#E9EFFD"/>
					</linearGradient>
					<path style="fill:url(#SVGID_00000122000437371594996890000013779001884419907717_);" d="M204.1,295.4l-0.7-0.2l1.8-6.2
						c0.3-1,1.1-1.8,2.1-2c5.8-1.2,21-1.5,21.7-1.5l0,0.7c-0.2,0-15.8,0.3-21.6,1.5c-0.8,0.2-1.4,0.7-1.6,1.5L204.1,295.4z"/>
				</g>
			</g>
			<g>
				<path class="st2" d="M97.9,383.2c-1,1.4-4.8,33.5-5.4,45.3c0,0.8,0.6,1.5,1.4,1.5l0,0c0.7,0,1.3-0.5,1.4-1.2l7-44.6L97.9,383.2z
					"/>
				<path class="st2" d="M128.5,383.2c1,1.4,4.8,33.5,5.4,45.3c0,0.8-0.6,1.5-1.4,1.5l0,0c-0.7,0-1.3-0.5-1.4-1.2l-7-44.6
					L128.5,383.2z"/>
				<path class="st2" d="M92.2,380.6l0,0.3c0,2.5,2.1,4.6,4.9,4.6l32.1,0.5c2.7,0,4.9-1.9,5-4.4l0-0.3c0.1-2.6-2.1-4.8-4.8-4.8
					l-32.2-0.6C94.5,376.1,92.2,378.1,92.2,380.6z"/>
			</g>
			<g>
				<g>
					<path class="st2" d="M159.9,427.3c-5.7,0-8.2-0.5-9.4-0.9c0.2,0.9,1.1,1.7,2.1,1.7h20.2c0.7,0,1.1-0.7,0.9-1.2
						C171.5,427,166.6,427.3,159.9,427.3z"/>
					
						<linearGradient id="SVGID_00000008853024391291914480000002271872780216436924_" gradientUnits="userSpaceOnUse" x1="168.4764" y1="382.3724" x2="162.1076" y2="426.3753">
						<stop  offset="0" style="stop-color:#4F52FF"/>
						<stop  offset="1" style="stop-color:#223F97"/>
					</linearGradient>
					<path style="fill:url(#SVGID_00000008853024391291914480000002271872780216436924_);" d="M173.8,426.8c0-0.1-0.1-0.2-0.2-0.3
						c-1.5-2-4.6-5.1-8.8-5c-6.2,0.1-8.3,0.8-13.1,0l-1.1,3.7c-0.1,0.4-0.1,0.8,0,1.1c1.1,0.4,3.7,0.9,9.4,0.9
						C166.6,427.3,171.5,427,173.8,426.8z"/>
				</g>
				
					<linearGradient id="SVGID_00000010307126099789077490000016066510057672980906_" gradientUnits="userSpaceOnUse" x1="151.6815" y1="420.1697" x2="157.9884" y2="420.1697">
					<stop  offset="0" style="stop-color:#FEBBBA"/>
					<stop  offset="1" style="stop-color:#FF928E"/>
				</linearGradient>
				<path style="fill:url(#SVGID_00000010307126099789077490000016066510057672980906_);" d="M153.1,417.5l-1.4,4.7
					c0,0,3.1,1.4,5.8,0.3l0.5-4.1L153.1,417.5z"/>
				<g>
					<path class="st2" d="M195,424.3c-4.5,3.6-6.7,4.8-7.9,5.1c0.8,0.6,1.9,0.6,2.7,0l15.8-12.7c0.5-0.4,0.5-1.2,0-1.6
						C203.8,416.8,200.2,420.1,195,424.3z"/>
					
						<linearGradient id="SVGID_00000071523607514308971540000001495067048141398429_" gradientUnits="userSpaceOnUse" x1="200.0228" y1="386.9379" x2="193.6539" y2="430.9412">
						<stop  offset="0" style="stop-color:#4F52FF"/>
						<stop  offset="1" style="stop-color:#223F97"/>
					</linearGradient>
					<path style="fill:url(#SVGID_00000071523607514308971540000001495067048141398429_);" d="M205.5,415.2
						c-0.1-0.1-0.2-0.1-0.3-0.2c-2.4-0.6-6.8-1-10,1.7c-4.8,3.9-6,5.8-10.2,8.2l1.5,3.6c0.1,0.4,0.4,0.7,0.7,0.9
						c1.2-0.4,3.4-1.6,7.9-5.1C200.2,420.1,203.8,416.8,205.5,415.2z"/>
				</g>
				
					<linearGradient id="SVGID_00000061453983002177380150000000647880362680503475_" gradientUnits="userSpaceOnUse" x1="223.5536" y1="330.5735" x2="152.797" y2="382.9333">
					<stop  offset="0" style="stop-color:#09005D"/>
					<stop  offset="1" style="stop-color:#1A0F91"/>
				</linearGradient>
				<path style="fill:url(#SVGID_00000061453983002177380150000000647880362680503475_);" d="M123.4,363.7c0,0,34.2,2.8,41.2,6.1
					c7,3.3-5.7,49.6-5.7,49.6s-1.9,0.9-6.2-0.4c0,0,4.4-34.2,1.1-41.6l-37-6.1L123.4,363.7z"/>
				
					<linearGradient id="SVGID_00000004536364282665649840000011434598009307172749_" gradientUnits="userSpaceOnUse" x1="181.5542" y1="420.7005" x2="189.0838" y2="420.7005">
					<stop  offset="0" style="stop-color:#FEBBBA"/>
					<stop  offset="1" style="stop-color:#FF928E"/>
				</linearGradient>
				<path style="fill:url(#SVGID_00000004536364282665649840000011434598009307172749_);" d="M181.6,418.5c0.3,0.3,3.4,6.5,3.4,6.5
					s3.4-0.7,4.1-2.9l-3.1-5.6L181.6,418.5z"/>
				
					<linearGradient id="SVGID_00000171683363953271122750000002134834782270407821_" gradientUnits="userSpaceOnUse" x1="153.4041" y1="384.6591" x2="243.0335" y2="322.8621">
					<stop  offset="0" style="stop-color:#09005D"/>
					<stop  offset="1" style="stop-color:#1A0F91"/>
				</linearGradient>
				<path style="fill:url(#SVGID_00000171683363953271122750000002134834782270407821_);" d="M102.8,363.4c0,0-1.1,2.7-1.1,6.2
					c0.1,4.9,4,8.9,9,9.2l40.4,1.8c0.9,0,1.6,0.6,1.8,1.5c1,3.7,5.6,15,28.3,37.5c0.6,0.6,1.5,0.7,2.3,0.2l3.2-2
					c0.3-0.2,0.4-0.7,0.2-1l-23.5-40.2c-1.2-2-3.2-3.5-5.5-4.1l-34.5-8.8L102.8,363.4z"/>
				
					<linearGradient id="SVGID_00000109743302576299382830000017382205683400378762_" gradientUnits="userSpaceOnUse" x1="139.7298" y1="314.5964" x2="143.442" y2="305.2352">
					<stop  offset="0" style="stop-color:#FEBBBA"/>
					<stop  offset="1" style="stop-color:#FF928E"/>
				</linearGradient>
				<path style="fill:url(#SVGID_00000109743302576299382830000017382205683400378762_);" d="M142.6,300.6c0,0-4.3,7.7-8.8,11.4
					l9.1,5.1c0,0,2.1-8.1,6.8-10.5L142.6,300.6z"/>
				
					<linearGradient id="SVGID_00000088123029197132577040000012412409879887927456_" gradientUnits="userSpaceOnUse" x1="164.7276" y1="286.6421" x2="152.9342" y2="316.833">
					<stop  offset="0" style="stop-color:#FF928E"/>
					<stop  offset="1" style="stop-color:#475D97"/>
				</linearGradient>
				<path style="fill:url(#SVGID_00000088123029197132577040000012412409879887927456_);" d="M102.1,363.7c0,0,10.9,2.7,21.3,0
					c0,0,14.6-19.6,20.2-24.9c0,0,9,14.2,29,16.2l1.1-2.5c0,0-15.9-7.4-20.9-18.6c-4.9-11.3-6.9-16.1-11.3-19.1
					c-2.8-1.8-4.4-3.1-5.3-3.8c-0.5-0.4-1.1-0.4-1.6-0.1C129.9,313.8,107.6,329.1,102.1,363.7z"/>
				
					<linearGradient id="SVGID_00000116222694836202090590000006649092654344971438_" gradientUnits="userSpaceOnUse" x1="143.022" y1="245.1832" x2="139.4842" y2="360.516">
					<stop  offset="0" style="stop-color:#223F97"/>
					<stop  offset="1" style="stop-color:#533BE9"/>
				</linearGradient>
				<path style="fill:url(#SVGID_00000116222694836202090590000006649092654344971438_);" d="M143,338.5c-0.2,0-0.4-0.1-0.6-0.3
					c-3.5-4.5-5.4-9.5-5.5-9.7c-0.1-0.4,0-0.8,0.4-0.9c0.4-0.1,0.8,0,0.9,0.4c0,0,1.9,5,5.3,9.4c0.2,0.3,0.2,0.7-0.1,1
					C143.3,338.4,143.2,338.5,143,338.5z"/>
				
					<linearGradient id="SVGID_00000139296168676894528570000002020030099518536106_" gradientUnits="userSpaceOnUse" x1="171.4445" y1="351.0026" x2="188.8369" y2="351.0026">
					<stop  offset="0" style="stop-color:#FEBBBA"/>
					<stop  offset="1" style="stop-color:#FF928E"/>
				</linearGradient>
				<path style="fill:url(#SVGID_00000139296168676894528570000002020030099518536106_);" d="M171.4,351.2l2.3-0.6l6.8-1.6
					c0.8-0.2,1.7,0,2.4,0.4l5.9,3.7l-16.3,0L171.4,351.2z"/>
				<g>
					
						<linearGradient id="SVGID_00000060714672391512491250000006201371912681100704_" gradientUnits="userSpaceOnUse" x1="2060.1443" y1="856.7098" x2="2041.5059" y2="870.9711" gradientTransform="matrix(0.9914 -0.1306 0.1306 0.9914 -2003.2498 -284.7287)">
						<stop  offset="0" style="stop-color:#FEBBBA"/>
						<stop  offset="1" style="stop-color:#FF928E"/>
					</linearGradient>
					<path style="fill:url(#SVGID_00000060714672391512491250000006201371912681100704_);" d="M149.5,289.1c0,0,4.2,7,4.9,10.9
						c0.7,3.9,1.9,6.3-2.5,7.7c-4.4,1.4-8.5-0.4-11.1-4c0,0-4-5.6-3.6-8.1C137.7,293,149.5,289.1,149.5,289.1z"/>
					
						<linearGradient id="SVGID_00000163776350111204605570000000775302987425104028_" gradientUnits="userSpaceOnUse" x1="2047.0499" y1="845.452" x2="2063.9277" y2="867.182" gradientTransform="matrix(0.9914 -0.1306 0.1306 0.9914 -2003.2498 -284.7287)">
						<stop  offset="0" style="stop-color:#09005D"/>
						<stop  offset="1" style="stop-color:#1A0F91"/>
					</linearGradient>
					<path style="fill:url(#SVGID_00000163776350111204605570000000775302987425104028_);" d="M142.1,300.7l0.6-0.1c0,0-3-4.5-1-5.6
						c2-1.1,9.9-3.9,11.3-7c1.3-3-0.7-6.4-3.1-7.1c-0.2,0-0.3,0-0.4,0.2l-0.1,0.4c-0.1,0.3-0.5,0.3-0.6,0l0,0
						c-0.1-0.2-0.5-0.3-0.6,0c-0.4,0.9-1.7,2.5-5.5,3.8c-5.4,1.8-8.8,4.5-8.4,8.3c0,0.2-0.2,0.4-0.4,0.3c-0.4-0.2-1.1-0.2-1.9,0.6
						c-1.4,1.5-0.3,4.7,3.4,7c0.2,0.1,0.2,0.4,0.1,0.5c-0.6,0.5-1.3,1.5,1.2,2.5c2.6,1,4,0.6,4.5,0.4c0.1-0.1,0.2-0.2,0.2-0.3
						l-0.7-3.4c0-0.2,0.1-0.3,0.3-0.4L142.1,300.7z"/>
					
						<linearGradient id="SVGID_00000177464494761285728420000016771598030986768811_" gradientUnits="userSpaceOnUse" x1="2057.8323" y1="853.6885" x2="2039.194" y2="867.9497" gradientTransform="matrix(0.9914 -0.1306 0.1306 0.9914 -2003.2498 -284.7287)">
						<stop  offset="0" style="stop-color:#FEBBBA"/>
						<stop  offset="1" style="stop-color:#FF928E"/>
					</linearGradient>
					<path style="fill:url(#SVGID_00000177464494761285728420000016771598030986768811_);" d="M142.3,301.4c0,0-1.9-4.6-3.8-3
						c-2,1.6,1.8,5.2,3.5,5.1L142.3,301.4z"/>
				</g>
			</g>
			<g>
				<g>
					
						<linearGradient id="SVGID_00000108998917217454591330000004609790605896039808_" gradientUnits="userSpaceOnUse" x1="-3521.3911" y1="-2747.8821" x2="-3567.906" y2="-2702.9114" gradientTransform="matrix(-1.388 -6.860000e-02 -6.850000e-02 1.3855 -8631.6279 -62.1511)">
						<stop  offset="0" style="stop-color:#09005D"/>
						<stop  offset="1" style="stop-color:#1A0F91"/>
					</linearGradient>
					<path style="fill:url(#SVGID_00000108998917217454591330000004609790605896039808_);" d="M165.2,356.3
						C165.2,356.3,165.2,356.3,165.2,356.3l34.8,0c0.9,0,1.6-0.7,1.6-1.6c0-0.9-0.7-1.6-1.6-1.5l-34.7,0c-0.9,0-1.6,0.7-1.6,1.6
						C163.7,355.6,164.3,356.2,165.2,356.3z"/>
				</g>
				<g>
					
						<linearGradient id="SVGID_00000108987953845437051130000005731224702969635251_" gradientUnits="userSpaceOnUse" x1="-5832.9829" y1="-2386.6252" x2="-5879.4956" y2="-2341.6565" gradientTransform="matrix(0.6475 -1.2297 -1.2274 -0.6463 6241.021 -10086.7432)">
						<stop  offset="0" style="stop-color:#09005D"/>
						<stop  offset="1" style="stop-color:#1A0F91"/>
					</linearGradient>
					<path style="fill:url(#SVGID_00000108987953845437051130000005731224702969635251_);" d="M213.4,322.3
						C213.4,322.3,213.4,322.3,213.4,322.3l-14.6,31.6c-0.4,0.8,0,1.7,0.8,2.1c0.8,0.4,1.7,0,2.1-0.8l14.6-31.5
						c0.4-0.8,0-1.7-0.8-2.1C214.7,321.2,213.8,321.6,213.4,322.3z"/>
				</g>
			</g>
			<g>
				<g>
					<rect x="300.7" y="387.9" class="st2" width="3.7" height="39.6"/>
					<path class="st2" d="M318.6,428.3h-32.1l0,0c0-1.3,1.1-2.4,2.4-2.4h27.3C317.5,426,318.6,427,318.6,428.3L318.6,428.3z"/>
					<path class="st2" d="M323.3,386.6c0,2.2-1.8,3.9-3.9,3.9h-32.5c-2.2,0-3.9-1.8-3.9-3.9V383c0-2.2,1.8-3.9,3.9-3.9h32.5
						c2.2,0,3.9,1.8,3.9,3.9V386.6z"/>
				</g>
				<g>
					
						<linearGradient id="SVGID_00000166655408632708101350000009410250306478828429_" gradientUnits="userSpaceOnUse" x1="262.5204" y1="394.0345" x2="288.5805" y2="394.0345">
						<stop  offset="0" style="stop-color:#FEBBBA"/>
						<stop  offset="1" style="stop-color:#FF928E"/>
					</linearGradient>
					<path style="fill:url(#SVGID_00000166655408632708101350000009410250306478828429_);" d="M275.5,361.5c0,0-5.4,0.8-11.6,4.9
						c-1,0.6-1.5,1.8-1.3,2.9c0.7,5.8,3.7,24.6,13.7,43c0.5,1,0.7,2.1,0.4,3.2l-1.7,8l-3.2,3h8.2l5.5-14.9l-2.3-0.7
						c-1.8-0.6-3.1-2.3-3.1-4.2l-0.3-15.9c0.2-7.1-4.4-12-4.4-12l13.2-0.6L275.5,361.5z"/>
					
						<linearGradient id="SVGID_00000110472925626239541420000011795233147594394776_" gradientUnits="userSpaceOnUse" x1="278.4656" y1="411.0153" x2="274.6326" y2="469.7885">
						<stop  offset="0" style="stop-color:#4F52FF"/>
						<stop  offset="1" style="stop-color:#223F97"/>
					</linearGradient>
					<path style="fill:url(#SVGID_00000110472925626239541420000011795233147594394776_);" d="M268.5,428c-0.8,1,8.1,2.3,12.6,0.1
						c0,0,6.2-10.8,6.2-16.3c0,0-0.5-1.1-4.1-0.9c0,0-2.1,12.8-4.3,14.2c-2.2,1.4-6.1,0.1-6.1,0.1S269.6,426.6,268.5,428z"/>
					
						<linearGradient id="SVGID_00000140729626213701327130000005958039600744713888_" gradientUnits="userSpaceOnUse" x1="231.9214" y1="395.8147" x2="286.9136" y2="395.8147">
						<stop  offset="0" style="stop-color:#FEBBBA"/>
						<stop  offset="1" style="stop-color:#FF928E"/>
					</linearGradient>
					<path style="fill:url(#SVGID_00000140729626213701327130000005958039600744713888_);" d="M286.9,379.1
						c-0.1-0.1-14.2-1.7-14.2-1.7s0.5,4.3-1,10.2c-1.4,5.9-22.2,31.5-22.2,31.5l2.2,6.9c-6.7,2.3-13.3,2.7-19.8,1.2l13.5-8.1
						c0,0,12.6-42.9,20.3-50.6l14.1-4.9L286.9,379.1z"/>
					
						<linearGradient id="SVGID_00000113327567099790096920000014958169966591008391_" gradientUnits="userSpaceOnUse" x1="265.8535" y1="367.1272" x2="327.4604" y2="367.1272">
						<stop  offset="0" style="stop-color:#09005D"/>
						<stop  offset="1" style="stop-color:#1A0F91"/>
					</linearGradient>
					<path style="fill:url(#SVGID_00000113327567099790096920000014958169966591008391_);" d="M318.6,354.1c0,0,8.1,12.1,8.8,17.6
						c0.7,5.5-2.2,7.8-10.8,8.1c-8.5,0.4-31.3,0.4-31.3,0.4l-19.4-16.6c0,0,14.2-5.1,17.9-6.5C287.4,355.7,318.6,354.1,318.6,354.1z
						"/>
					
						<linearGradient id="SVGID_00000060735020941431080240000015514934720557150887_" gradientUnits="userSpaceOnUse" x1="241.4773" y1="408.6031" x2="237.6442" y2="467.3762">
						<stop  offset="0" style="stop-color:#4F52FF"/>
						<stop  offset="1" style="stop-color:#223F97"/>
					</linearGradient>
					<path style="fill:url(#SVGID_00000060735020941431080240000015514934720557150887_);" d="M250.9,423.6c0,0,2.3,2.3,0.8,4.8
						c0,0-18.5,3.3-23.6,1.8c0,0,1-2.4,6.7-5.1l-0.4,0.3c-0.5,0.4-0.2,1.3,0.4,1.2C238.6,426.4,246.3,425.8,250.9,423.6z"/>
				</g>
				<g>
					
						<linearGradient id="SVGID_00000090994466139470303680000010368900033678279578_" gradientUnits="userSpaceOnUse" x1="309.2492" y1="264.2294" x2="300.1776" y2="311.887">
						<stop  offset="0" style="stop-color:#09005D"/>
						<stop  offset="1" style="stop-color:#1A0F91"/>
					</linearGradient>
					<path style="fill:url(#SVGID_00000090994466139470303680000010368900033678279578_);" d="M283.3,277.4
						c16.6-2.8,24.5,10.7,23.9,13.6c-0.1,0.4,0.3,0.7,0.7,0.6c1.9-0.5,6.1-1.2,8.7,2.1c2.3,2.9,0.6,5.6-0.8,7.1
						c-0.3,0.4-0.1,0.9,0.4,0.9c3.5-0.4,11.1-0.5,12.4,6.6c1.2,6.7-3.5,8.5-6.2,9.1c-0.5,0.1-0.6,0.7-0.2,1c1.4,0.9,3,2.7,2.3,6.2
						c-1,5.6-11.9,5.1-13.2,5c-0.1,0-0.2,0-0.2-0.1l-17.5-10c-0.1-0.1-0.2-0.2-0.3-0.4l-3.5-20.4c0-0.2,0-0.3,0.1-0.5l-11.4-16.1
						C274.5,281.6,283.1,277.4,283.3,277.4z"/>
					
						<linearGradient id="SVGID_00000053510426777878462470000014926841019212707249_" gradientUnits="userSpaceOnUse" x1="369.8567" y1="173.8555" x2="334.9485" y2="258.7674">
						<stop  offset="0" style="stop-color:#FF928E"/>
						<stop  offset="1" style="stop-color:#475D97"/>
					</linearGradient>
					<path style="fill:url(#SVGID_00000053510426777878462470000014926841019212707249_);" d="M296.6,352.5c0,0-9.5-9-14.1-15
						c-2.5-3.2-3.3-7.5-2.1-11.4c2.1-7.2,5.9-14.6,6.3-15.8c0.5-1.8,11.1-1.7,11.1-1.7s20.9,13.6,29.1,36.5l-9.2,2.9
						c0,0-5.5-9.2-10.8-15c0,0,9.3,12.3,9.7,17.4L296.6,352.5z"/>
					
						<linearGradient id="SVGID_00000071525191615191518730000012014874216467206843_" gradientUnits="userSpaceOnUse" x1="294.237" y1="323.8547" x2="290.5249" y2="300.0353">
						<stop  offset="0" style="stop-color:#FEBBBA"/>
						<stop  offset="1" style="stop-color:#FF928E"/>
					</linearGradient>
					<path style="fill:url(#SVGID_00000071525191615191518730000012014874216467206843_);" d="M285.3,300.4c0.1,0.4,2.9,9.6,3.1,9.7
						c0.2,0.2,6.1,0.5,8.8-1.4l-6.8-13.4L285.3,300.4z"/>
					<g>
						
							<linearGradient id="SVGID_00000172422336311187197040000015704260850381488038_" gradientUnits="userSpaceOnUse" x1="-1902.301" y1="4088.1367" x2="-1878.0034" y2="4104.6406" gradientTransform="matrix(0.6042 -0.7968 0.7968 0.6042 -1834.0024 -3687.2002)">
							<stop  offset="0" style="stop-color:#FEBBBA"/>
							<stop  offset="1" style="stop-color:#FF928E"/>
						</linearGradient>
						<path style="fill:url(#SVGID_00000172422336311187197040000015704260850381488038_);" d="M274.2,288.6c0,0-1.3,5.3,2.4,12.3
							c3.7,7.1,7.9,7.1,10.2,4.8c2.3-2.3,5.1-6.1,4.4-13S276.1,281.9,274.2,288.6z"/>
						
							<linearGradient id="SVGID_00000098937197733337935120000017137525588387052714_" gradientUnits="userSpaceOnUse" x1="-1886.0928" y1="4068.3962" x2="-1895.1644" y2="4116.0542" gradientTransform="matrix(0.6042 -0.7968 0.7968 0.6042 -1834.0024 -3687.2002)">
							<stop  offset="0" style="stop-color:#09005D"/>
							<stop  offset="1" style="stop-color:#1A0F91"/>
						</linearGradient>
						<path style="fill:url(#SVGID_00000098937197733337935120000017137525588387052714_);" d="M286,293.2c0,0-6.1-9.4-11.9-2
							l-0.1,2.7c0,0-6.8-0.8-5.6-7c1.2-6.2,7-10.1,14.5-7.4c7.5,2.7,11.8,5.4,12.3,10.8c0.5,5.4-3.8,4.2-3.8,4.2s-1.4-3.8-3.4-4.2
							s-1.5,2.6-1.5,2.6L286,293.2z"/>
						
							<linearGradient id="SVGID_00000027585111870325503310000004646887628688676001_" gradientUnits="userSpaceOnUse" x1="-1900.8445" y1="4085.9924" x2="-1876.5471" y2="4102.4961" gradientTransform="matrix(0.6042 -0.7968 0.7968 0.6042 -1834.0024 -3687.2002)">
							<stop  offset="0" style="stop-color:#FEBBBA"/>
							<stop  offset="1" style="stop-color:#FF928E"/>
						</linearGradient>
						<path style="fill:url(#SVGID_00000027585111870325503310000004646887628688676001_);" d="M287.6,293.1c0,0-3.2-4.8,0.1-5.5
							c3.3-0.7,2.8,4.7,2.4,6.7L287.6,293.1z"/>
					</g>
					
						<linearGradient id="SVGID_00000050621447795750732260000016552669449222689172_" gradientUnits="userSpaceOnUse" x1="309.4803" y1="350.8999" x2="361.1388" y2="350.8999">
						<stop  offset="0" style="stop-color:#FEBBBA"/>
						<stop  offset="1" style="stop-color:#FF928E"/>
					</linearGradient>
					<path style="fill:url(#SVGID_00000050621447795750732260000016552669449222689172_);" d="M277.3,353.1l7-6.7l9.6,4.1
						c0,0,9.6,1.5,15.1,0c5.5-1.5,5.5-1.5,5.5-1.5l12.4-3.9l1.9,5.5c0.5,1.4,0,2.9-1.2,3.8c-1.1,0.8-2.3,1.6-3.1,1.9
						c-1.6,0.7-40.2-0.5-40.2-0.5L277.3,353.1z"/>
				</g>
				<g>
					
						<linearGradient id="SVGID_00000119082170901496692190000000086790213613152927_" gradientUnits="userSpaceOnUse" x1="250.4526" y1="494.7666" x2="217.9332" y2="503.6793" gradientTransform="matrix(0.9988 -4.940000e-02 4.940000e-02 0.9988 35.8679 -136.2205)">
						<stop  offset="0" style="stop-color:#09005D"/>
						<stop  offset="1" style="stop-color:#1A0F91"/>
					</linearGradient>
					<path style="fill:url(#SVGID_00000119082170901496692190000000086790213613152927_);" d="M303.6,356.3
						C303.6,356.3,303.6,356.3,303.6,356.3l-40.5,0c-1,0-1.8-0.8-1.8-1.8c0-1,0.8-1.8,1.8-1.8l40.4,0c1,0,1.8,0.8,1.8,1.8
						C305.3,355.5,304.6,356.3,303.6,356.3z"/>
					
						<linearGradient id="SVGID_00000098220973704727757310000015683936219192993433_" gradientUnits="userSpaceOnUse" x1="266.4479" y1="324.5721" x2="243.3739" y2="348.96">
						<stop  offset="0" style="stop-color:#09005D"/>
						<stop  offset="1" style="stop-color:#1A0F91"/>
					</linearGradient>
					<path style="fill:url(#SVGID_00000098220973704727757310000015683936219192993433_);" d="M226.9,319.7h33.6
						c2.5,0,4.7,1.4,5.8,3.7l15.5,33h-41.8c-1.6,0-3-1-3.6-2.5l-12.1-30.5C223.7,321.6,225,319.7,226.9,319.7z"/>
					<path class="st4" d="M250.6,336.6c0.7,2.3,0.2,4.5-1.2,4.9c-1.4,0.4-3.1-1-3.8-3.3c-0.7-2.3-0.2-4.5,1.2-4.9
						C248.1,332.8,249.8,334.3,250.6,336.6z"/>
				</g>
			</g>
			<g>
				<g>
					
						<linearGradient id="SVGID_00000153668054352385174010000012301765524394802050_" gradientUnits="userSpaceOnUse" x1="-10266.9512" y1="465.9438" x2="-10266.6104" y2="502.0596" gradientTransform="matrix(-1 0 0 1 -9928.2793 0)">
						<stop  offset="0" style="stop-color:#09005D"/>
						<stop  offset="1" style="stop-color:#1A0F91"/>
					</linearGradient>
					<path style="fill:url(#SVGID_00000153668054352385174010000012301765524394802050_);" d="M349.6,423.4c0,0,0.4,2.4,0.6,5.1
						c0.1,1.2-0.8,2.2-2,2.3c-4.1,0.4-13.5,1.1-19.5,0.3c-0.8-0.1-1.2-1.2-0.6-1.7c2.5-2.3,8.5-6.8,18.3-7.8L349.6,423.4z"/>
					
						<linearGradient id="SVGID_00000084508659453436886420000003293514927177115045_" gradientUnits="userSpaceOnUse" x1="-10275.6562" y1="425.6117" x2="-10277.5303" y2="410.961" gradientTransform="matrix(-1 0 0 1 -9928.2793 0)">
						<stop  offset="0" style="stop-color:#FEBBBA"/>
						<stop  offset="1" style="stop-color:#FF928E"/>
					</linearGradient>
					<path style="fill:url(#SVGID_00000084508659453436886420000003293514927177115045_);" d="M351.7,418l-2.1,5.1
						c-0.3,0.7-1,1.1-1.8,1.1c-0.5-0.1-1.1-0.2-1.7-0.3c-1.2-0.4-1.8-1.6-1.5-2.8l1.6-5.3L351.7,418z"/>
					
						<linearGradient id="SVGID_00000107581838000427913810000016482625974893376670_" gradientUnits="userSpaceOnUse" x1="-10315.7461" y1="466.404" x2="-10315.4053" y2="502.5195" gradientTransform="matrix(-1 0 0 1 -9928.2793 0)">
						<stop  offset="0" style="stop-color:#09005D"/>
						<stop  offset="1" style="stop-color:#1A0F91"/>
					</linearGradient>
					<path style="fill:url(#SVGID_00000107581838000427913810000016482625974893376670_);" d="M387.4,427.4c0,0-4.2,3.5-5.8,8
						c-0.4,1.2,0.5,2.5,1.8,2.5h8.6c1.3,0,2.2-1.1,2-2.4C393.5,432.5,391.9,427.4,387.4,427.4z"/>
					
						<linearGradient id="SVGID_00000168808190599684283940000007706998736299936447_" gradientUnits="userSpaceOnUse" x1="-10316.6143" y1="430.6329" x2="-10318.4404" y2="416.3562" gradientTransform="matrix(-1 0 0 1 -9928.2793 0)">
						<stop  offset="0" style="stop-color:#FEBBBA"/>
						<stop  offset="1" style="stop-color:#FF928E"/>
					</linearGradient>
					<path style="fill:url(#SVGID_00000168808190599684283940000007706998736299936447_);" d="M392.6,422.9c0,0-0.8,3.7-1.5,6.2
						c-0.1,0.4-0.6,0.7-1,0.5c-1.3-0.5-2.4-0.7-3.1-0.6c-0.4,0-0.7-0.2-0.7-0.6l-0.1-6.2L392.6,422.9z"/>
					
						<linearGradient id="SVGID_00000121974744045067146190000018307029174439293361_" gradientUnits="userSpaceOnUse" x1="-10329.375" y1="376.3838" x2="-10273.168" y2="376.3838" gradientTransform="matrix(-1 0 0 1 -9928.2793 0)">
						<stop  offset="0" style="stop-color:#09005D"/>
						<stop  offset="1" style="stop-color:#1A0F91"/>
					</linearGradient>
					<path style="fill:url(#SVGID_00000121974744045067146190000018307029174439293361_);" d="M370.3,338.7l-25.4,77.6
						c0,0,4.9,3.2,7.2,3.1l30.2-62.4c0,0,5.3,38.4,2.7,66l8.7,0.7c0,0,14.1-70.5,3.4-94.7L370.3,338.7z"/>
					<path class="st4" d="M382.1,356.4C382.2,356.4,382.2,356.4,382.1,356.4c0.2,0,0.3-0.1,0.2-0.3l-1-7.8c0-0.1-0.1-0.2-0.3-0.2
						c-0.1,0-0.2,0.1-0.2,0.3l1,7.8C381.9,356.3,382,356.4,382.1,356.4z"/>
				</g>
				
					<linearGradient id="SVGID_00000154404382091006224250000018135859740407073922_" gradientUnits="userSpaceOnUse" x1="423.4204" y1="238.2613" x2="409.7401" y2="257.1307">
					<stop  offset="0" style="stop-color:#FF928E"/>
					<stop  offset="1" style="stop-color:#475D97"/>
				</linearGradient>
				<path style="fill:url(#SVGID_00000154404382091006224250000018135859740407073922_);" d="M365.6,270.4c0,0,20.6,1.8,17.7,16.5
					c0,0,11.4,21.4,16.7,46.7c0.2,0.8-0.4,1.6-1.2,1.8l-34.3,5.9c-0.9,0.2-1.9-0.4-2.1-1.4l-8.2-31.7l-3.2,14.7l-10.2-2.6l8.5-43.3
					C349.3,277,350.5,270.7,365.6,270.4z"/>
				
					<linearGradient id="SVGID_00000047023108616312309910000015314004754804238775_" gradientUnits="userSpaceOnUse" x1="424.3441" y1="213.2099" x2="347.4515" y2="306.1415">
					<stop  offset="0" style="stop-color:#223F97"/>
					<stop  offset="1" style="stop-color:#533BE9"/>
				</linearGradient>
				<path style="fill:url(#SVGID_00000047023108616312309910000015314004754804238775_);" d="M354,306.8
					C354,306.8,354,306.8,354,306.8c0.2,0,0.3-0.2,0.2-0.3l-2.9-13.1c0-0.1-0.2-0.2-0.3-0.2c-0.1,0-0.2,0.2-0.2,0.3l2.9,13.1
					C353.7,306.7,353.9,306.8,354,306.8z"/>
				
					<linearGradient id="SVGID_00000039822040024832057000000006522086217620184239_" gradientUnits="userSpaceOnUse" x1="391.4727" y1="310.9248" x2="349.7264" y2="355.5014">
					<stop  offset="0" style="stop-color:#FEBBBA"/>
					<stop  offset="1" style="stop-color:#FF928E"/>
				</linearGradient>
				<path style="fill:url(#SVGID_00000039822040024832057000000006522086217620184239_);" d="M356,345.9c1.1-0.6,2.3-0.8,3.5-0.5
					l2.4,0.6c0.5,0.1,1-0.2,1.1-0.7l2.5-22c3.1,1.5,7.5,1.3,9,1.2l-5.7,25.9h-19.9L356,345.9z"/>
				
					<linearGradient id="SVGID_00000101075006066329560310000012327887436280872578_" gradientUnits="userSpaceOnUse" x1="-10279.2275" y1="304.7823" x2="-10231.4326" y2="304.7823" gradientTransform="matrix(-1 0 0 1 -9928.2793 0)">
					<stop  offset="0" style="stop-color:#FEBBBA"/>
					<stop  offset="1" style="stop-color:#FF928E"/>
				</linearGradient>
				<path style="fill:url(#SVGID_00000101075006066329560310000012327887436280872578_);" d="M303.2,298.2l0.6-2
					c0.3-1.2,1.2-2.1,2.3-2.5l10.9-4.4c0,0,0.2-1.4-2.3-2.3c-2.5-0.9-1.9-3.7-1.9-3.7s3.4,1.5,8.3,4c2.8,1.4,4.4,3.9,5.2,5.7
					l24.7,30.1l-2.9,2c-3.8,2.6-9,1.3-11.2-2.8l-13.4-25.6C316.8,298.6,310,299,303.2,298.2z"/>
				<g>
					
						<linearGradient id="SVGID_00000039828964686452394510000015110465309299492521_" gradientUnits="userSpaceOnUse" x1="-10296.4346" y1="277.9758" x2="-10279.8008" y2="260.91" gradientTransform="matrix(-1 0 0 1 -9928.2793 0)">
						<stop  offset="0" style="stop-color:#FEBBBA"/>
						<stop  offset="1" style="stop-color:#FF928E"/>
					</linearGradient>
					<path style="fill:url(#SVGID_00000039828964686452394510000015110465309299492521_);" d="M358.9,256.4l6.3,17.7
						c0,0-5.6,4.4-9.7,2.9l-3.2-10.2C352.3,266.9,354.8,254.5,358.9,256.4z"/>
					<g>
						
							<linearGradient id="SVGID_00000166654907561668137230000002871305852217920160_" gradientUnits="userSpaceOnUse" x1="-10272.3105" y1="250.1576" x2="-10293.0488" y2="277.5924" gradientTransform="matrix(-1 0 0 1 -9928.2793 0)">
							<stop  offset="0" style="stop-color:#FEBBBA"/>
							<stop  offset="1" style="stop-color:#FF928E"/>
						</linearGradient>
						<path style="fill:url(#SVGID_00000166654907561668137230000002871305852217920160_);" d="M340,250c0,0.3,6.1,17.3,6.1,17.3
							l9.6-3.7l-3.4-17C352.3,246.6,340,245.5,340,250z"/>
						
							<linearGradient id="SVGID_00000078735195255866901430000010770652161944484488_" gradientUnits="userSpaceOnUse" x1="-10288.1494" y1="256.7755" x2="-10263.377" y2="256.7755" gradientTransform="matrix(-1 0 0 1 -9928.2793 0)">
							<stop  offset="0" style="stop-color:#09005D"/>
							<stop  offset="1" style="stop-color:#1A0F91"/>
						</linearGradient>
						<path style="fill:url(#SVGID_00000078735195255866901430000010770652161944484488_);" d="M350.6,250.8l2.5,8.8
							c0,0.1,0,0.2,0,0.3c0,0.7-0.2,3.2-2.7,2.9c-2.3-0.3-4.4-0.5-5.7,0.1c-0.6,0.3-0.9,1-0.7,1.6c0.6,1.5,1.9,5,3.5,7.8
							c0.3,0.6,1,0.8,1.6,0.5c1.8-0.8,5.6-2.7,8.3-4.9c0.4-0.3,0.5-0.8,0.5-1.2c-0.4-2.3-1.7-9.1-1.7-11.1c-0.1-1.8,2-3.2,2.9-3.8
							c0.3-0.2,0.5-0.5,0.6-0.8c0.3-1.2,0.5-3.9-2.9-4.5c-0.7-0.1-1.2-0.8-1-1.5c0.3-1.4,0.2-3.5-2.5-4.3c-2.7-0.8-4.5,0.9-5.3,2.1
							c-0.4,0.5-1,0.7-1.6,0.4c-0.3-0.1-0.7-0.2-1.1,0.2c-0.6,0.5-1.4,0.3-1.8-0.3c-0.8-1.2-2.2-2.3-4.7-1.6
							c-4.4,1.4-4.1,6.4-2.6,9.2c1.6,2.7,6.2,0.9,8.4-0.9c1.7-1.4,4.2-0.6,5.3-0.1C350.3,250.1,350.5,250.4,350.6,250.8z"/>
						
							<linearGradient id="SVGID_00000125602381330918045100000002129507762671947682_" gradientUnits="userSpaceOnUse" x1="-10302.6846" y1="271.8838" x2="-10286.0508" y2="254.8181" gradientTransform="matrix(-1 0 0 1 -9928.2793 0)">
							<stop  offset="0" style="stop-color:#FEBBBA"/>
							<stop  offset="1" style="stop-color:#FF928E"/>
						</linearGradient>
						<path style="fill:url(#SVGID_00000125602381330918045100000002129507762671947682_);" d="M357.1,258.9c0,0-2.6-4.9-0.9-6.4
							c1.7-1.5,4.6-1.3,4.5,2.5C360.6,259.7,357.1,258.9,357.1,258.9z"/>
					</g>
				</g>
				
					<linearGradient id="SVGID_00000107559332837893495140000012438834594486140324_" gradientUnits="userSpaceOnUse" x1="439.5356" y1="225.78" x2="362.6433" y2="318.7114">
					<stop  offset="0" style="stop-color:#223F97"/>
					<stop  offset="1" style="stop-color:#533BE9"/>
				</linearGradient>
				<path style="fill:url(#SVGID_00000107559332837893495140000012438834594486140324_);" d="M372.5,324.8c1.4,0,2.4-0.1,2.5-0.1
					l0.2,0l7.5-35c0-0.1-0.1-0.3-0.2-0.3c-0.1,0-0.3,0.1-0.3,0.2l-7.4,34.6c-1.1,0.1-7.1,0.5-10.2-1.7l6.5-30.4l-1.4-2.6
					c-0.1-0.1-0.2-0.2-0.3-0.1c-0.1,0.1-0.2,0.2-0.1,0.3l1.3,2.4l-6.5,30.5l0.1,0.1C366.4,324.5,370.1,324.8,372.5,324.8z"/>
			</g>
			<g>
				<path class="st4" d="M147.5,431.5c-0.2,0-0.3,0-0.5-0.1c-0.7-0.3-1-1.2-0.7-1.9l27.4-69.6c0.3-0.7,1.1-1.1,1.7-0.7
					c0.7,0.3,1,1.2,0.7,1.9l-27.4,69.6C148.5,431.2,148,431.5,147.5,431.5z"/>
				<path class="st4" d="M178.4,431.5c-0.5,0-1-0.3-1.2-0.9l-27.4-69.6c-0.3-0.7,0-1.6,0.7-1.9c0.7-0.3,1.4,0,1.7,0.7l27.4,69.6
					c0.3,0.7,0,1.6-0.7,1.9C178.8,431.5,178.6,431.5,178.4,431.5z"/>
				<path class="st4" d="M333.7,431.5c-0.2,0-0.3,0-0.5-0.1c-0.7-0.3-1-1.2-0.7-1.9l27.4-69.6c0.3-0.7,1.1-1.1,1.7-0.7
					c0.7,0.3,1,1.2,0.7,1.9l-27.4,69.6C334.7,431.2,334.2,431.5,333.7,431.5z"/>
				<path class="st4" d="M364.6,431.5c-0.5,0-1-0.3-1.2-0.9l-27.4-69.6c-0.3-0.7,0-1.6,0.7-1.9c0.7-0.3,1.4,0,1.7,0.7l27.4,69.6
					c0.3,0.7,0,1.6-0.7,1.9C364.9,431.5,364.7,431.5,364.6,431.5z"/>
			</g>
			<g>
				<path class="st80" d="M329.7,355l39.7,0v-4.1h-39.7C330.5,350.9,330.5,355,329.7,355z"/>
				
					<linearGradient id="SVGID_00000078725012365698481610000012469286262740251541_" gradientUnits="userSpaceOnUse" x1="-9335.0615" y1="-1943.1169" x2="-9369.7432" y2="-1858.7567" gradientTransform="matrix(-1 0 0 1 -9928.2793 0)">
					<stop  offset="0" style="stop-color:#4F52FF"/>
					<stop  offset="1" style="stop-color:#223F97"/>
				</linearGradient>
				<path style="fill:url(#SVGID_00000078725012365698481610000012469286262740251541_);" d="M368.9,355c0.3,0,0.5-0.2,0.5-0.5v-3.2
					c0-0.3-0.2-0.5-0.5-0.5h-40c-0.3,0-0.5-0.2-0.5-0.5c0-0.3,0.2-0.5,0.5-0.5h42.7c0.9,0,1.7,0.8,1.7,1.7v2.6
					c0,0.9-0.7,1.6-1.6,1.6h-42.8c-0.3,0-0.5-0.2-0.5-0.5c0-0.3,0.2-0.5,0.5-0.5H368.9z"/>
			</g>
			<path class="st4" d="M375.2,357.8c0.1-0.5,0-0.9-0.5-1.3c-0.4-0.4-1.1-0.6-1.8-0.6h-238c-0.9,0-1.8,0.3-2.3,0.8
				c-0.5,0.5-0.6,1.2-0.2,1.7l2.6,3.7c0.6,0.8,1.9,1.4,3.3,1.4h233c1.3,0,2.4-0.6,2.7-1.5L375.2,357.8z"/>
		</g>
		<g>
			<g>
				<g class="st82">
					<path class="st80" d="M245.3,114.9c-0.8-0.2-1.2-0.9-1.1-1.6c0.3-1.5,0.6-3,0.7-4.5c0.1-0.8,0.8-1.3,1.5-1.2c0,0,0,0,0,0
						c0.8,0.1,1.3,0.8,1.2,1.6c-0.2,1.6-0.4,3.1-0.8,4.7c-0.1,0.7-0.8,1.2-1.5,1.1C245.4,115,245.3,114.9,245.3,114.9z M245.3,101.5
						c0-1.5-0.1-3-0.3-4.5c-0.1-0.8,0.5-1.4,1.2-1.5c0.8-0.1,1.4,0.5,1.5,1.2c0.2,1.6,0.3,3.2,0.3,4.7c0,0.8-0.6,1.4-1.4,1.4
						c-0.1,0-0.1,0-0.2,0C245.8,102.8,245.3,102.2,245.3,101.5z M243.8,89.8c-0.4-1.5-0.8-2.9-1.3-4.3c-0.2-0.7,0.1-1.5,0.9-1.8
						c0.7-0.2,1.5,0.1,1.8,0.9c0.5,1.5,1,3,1.3,4.6c0.2,0.7-0.3,1.5-1,1.7c-0.2,0-0.3,0-0.5,0C244.4,90.8,243.9,90.4,243.8,89.8z
						 M239.7,78.7c-0.7-1.3-1.4-2.7-2.2-3.9c-0.4-0.7-0.2-1.5,0.5-1.9c0.7-0.4,1.5-0.2,1.9,0.5c0.8,1.3,1.6,2.7,2.3,4.1
						c0.3,0.7,0.1,1.5-0.6,1.9c-0.2,0.1-0.5,0.2-0.8,0.1C240.3,79.4,239.9,79.1,239.7,78.7z M233.2,68.8c-1-1.2-2-2.3-3-3.4
						c-0.5-0.6-0.5-1.4,0-2c0.5-0.5,1.4-0.5,2,0c1.1,1.1,2.2,2.3,3.2,3.5c0.5,0.6,0.4,1.5-0.2,2c-0.3,0.2-0.7,0.3-1,0.3
						C233.8,69.3,233.4,69.1,233.2,68.8z M224.7,60.6c-1.2-0.9-2.4-1.8-3.7-2.6c-0.6-0.4-0.8-1.3-0.4-1.9c0.4-0.6,1.3-0.8,1.9-0.4
						c1.3,0.9,2.6,1.8,3.9,2.7c0.6,0.5,0.7,1.3,0.3,2c-0.3,0.4-0.8,0.6-1.2,0.5C225.2,60.8,224.9,60.7,224.7,60.6z M173.8,51.5
						c-0.2-0.7,0.1-1.5,0.9-1.8c1.5-0.5,3-0.9,4.6-1.3c0.7-0.2,1.5,0.3,1.7,1c0.2,0.7-0.3,1.5-1,1.7c-1.5,0.4-2.9,0.8-4.3,1.3
						c-0.2,0.1-0.4,0.1-0.6,0.1C174.4,52.4,173.9,52,173.8,51.5z M214.6,54.4c-1.4-0.6-2.8-1.2-4.2-1.7c-0.7-0.3-1.1-1.1-0.8-1.8
						c0.3-0.7,1.1-1.1,1.8-0.8c1.5,0.5,3,1.1,4.4,1.8c0.7,0.3,1,1.2,0.7,1.8c-0.3,0.6-0.8,0.9-1.4,0.8
						C214.9,54.5,214.7,54.5,214.6,54.4z M185.6,48.6c-0.1-0.8,0.5-1.4,1.2-1.5c1.6-0.2,3.2-0.2,4.7-0.3c0.8,0,1.4,0.6,1.4,1.4
						c0,0.8-0.6,1.4-1.4,1.4c-1.5,0-3,0.1-4.5,0.3c-0.1,0-0.2,0-0.3,0C186.2,49.8,185.6,49.3,185.6,48.6z M203.4,50.7
						c-1.5-0.3-3-0.6-4.5-0.7c-0.8-0.1-1.3-0.8-1.2-1.6c0.1-0.8,0.8-1.3,1.5-1.2c0,0,0,0,0,0c1.6,0.2,3.1,0.5,4.7,0.8
						c0.8,0.2,1.2,0.9,1.1,1.7c-0.1,0.7-0.8,1.2-1.5,1.1C203.5,50.7,203.4,50.7,203.4,50.7z"/>
					<path class="st80" d="M166,56.4c0.3,0,0.6,0,0.8-0.2c0.6-0.3,1.3-0.7,1.9-1c0.7-0.3,1-1.2,0.6-1.9c-0.3-0.7-1.2-1-1.9-0.6
						c-0.7,0.3-1.4,0.7-2,1.1c-0.7,0.4-0.9,1.2-0.5,1.9C165.1,56.1,165.6,56.3,166,56.4z"/>
				</g>
				<g class="st82">
					<path class="st80" d="M139.9,89.9c0.7,0.1,1.3-0.4,1.5-1c0.2-0.7,0.4-1.4,0.6-2.1c0.2-0.7-0.2-1.5-0.9-1.7
						c-0.7-0.2-1.5,0.2-1.7,0.9c-0.2,0.7-0.4,1.5-0.6,2.2c-0.2,0.7,0.2,1.5,1,1.7C139.7,89.8,139.8,89.8,139.9,89.9z"/>
					<path class="st80" d="M184.1,157.5c-0.8-0.1-1.3-0.8-1.2-1.6c0.1-0.8,0.8-1.3,1.6-1.2c1.4,0.2,2.9,0.4,4.4,0.5
						c0.8,0,1.3,0.7,1.3,1.5c-0.1,0.8-0.7,1.3-1.5,1.3c-0.6,0-1.3-0.1-1.9-0.2C185.9,157.7,184.9,157.6,184.1,157.5z M194.8,156.7
						c-0.1-0.8,0.5-1.4,1.3-1.5c1.5-0.1,3-0.3,4.4-0.5c0.8-0.1,1.5,0.4,1.6,1.2c0.1,0.8-0.4,1.5-1.2,1.6c-1.5,0.2-3.1,0.4-4.6,0.5
						c-0.1,0-0.2,0-0.2,0C195.4,157.9,194.9,157.4,194.8,156.7z M176.6,155.8c-1.5-0.4-3-0.9-4.4-1.5c-0.7-0.3-1.1-1.1-0.8-1.8
						c0.3-0.7,1.1-1.1,1.8-0.8c1.4,0.5,2.8,1,4.2,1.4c0.7,0.2,1.2,1,0.9,1.7c-0.2,0.7-0.8,1.1-1.5,1
						C176.8,155.9,176.7,155.8,176.6,155.8z M206.6,154.9c-0.2-0.7,0.2-1.5,0.9-1.7c1.4-0.4,2.8-0.9,4.2-1.4
						c0.7-0.3,1.5,0.1,1.8,0.8c0.3,0.7-0.1,1.5-0.8,1.8c-1.4,0.6-2.9,1.1-4.4,1.5c-0.2,0.1-0.4,0.1-0.5,0.1
						C207.3,155.8,206.8,155.4,206.6,154.9z M165.4,151.1c-1.4-0.8-2.7-1.6-4-2.4c-0.6-0.4-0.8-1.3-0.4-1.9c0.4-0.6,1.3-0.8,1.9-0.4
						c1.2,0.8,2.5,1.6,3.8,2.3c0.7,0.4,0.9,1.2,0.5,1.9c-0.3,0.5-0.8,0.8-1.4,0.7C165.7,151.2,165.5,151.2,165.4,151.1z M155.4,144
						c-1.2-1-2.3-2.1-3.4-3.3c-0.5-0.6-0.5-1.4,0.1-2c0.6-0.5,1.4-0.5,2,0.1c1,1.1,2.1,2.1,3.2,3.1c0.6,0.5,0.6,1.4,0.1,2
						c-0.3,0.3-0.8,0.5-1.2,0.5C155.9,144.3,155.6,144.2,155.4,144z M147.2,134.9c-0.9-1.3-1.8-2.6-2.6-3.9
						c-0.4-0.7-0.2-1.5,0.5-1.9c0.7-0.4,1.5-0.2,1.9,0.5c0.8,1.3,1.6,2.5,2.4,3.7c0.4,0.6,0.3,1.5-0.3,1.9c-0.3,0.2-0.6,0.3-1,0.3
						C147.8,135.4,147.4,135.2,147.2,134.9z M141.2,124.2c-0.6-1.4-1.2-2.9-1.6-4.4c-0.2-0.7,0.2-1.5,0.9-1.8
						c0.7-0.2,1.5,0.2,1.8,0.9c0.5,1.4,1,2.8,1.6,4.2c0.3,0.7,0,1.5-0.7,1.8c-0.2,0.1-0.5,0.1-0.7,0.1
						C141.8,125,141.4,124.7,141.2,124.2z M137.7,112.4c-0.3-1.5-0.5-3.1-0.6-4.6c-0.1-0.8,0.5-1.4,1.3-1.5c0.8-0.1,1.4,0.5,1.5,1.3
						c0.1,1.5,0.3,2.9,0.6,4.4c0.1,0.8-0.4,1.5-1.1,1.6c-0.1,0-0.3,0-0.4,0C138.3,113.5,137.8,113.1,137.7,112.4z M136.8,100.2
						c0-1.1,0.1-2.3,0.2-3.4c0-0.4,0.1-0.8,0.1-1.2c0.1-0.8,0.8-1.3,1.6-1.2c0.8,0.1,1.3,0.8,1.2,1.6c0,0.4-0.1,0.8-0.1,1.2
						c-0.1,1.1-0.2,2.2-0.2,3.3c0,0.8-0.7,1.4-1.4,1.3c0,0-0.1,0-0.1,0C137.4,101.6,136.8,101,136.8,100.2z"/>
					<path class="st80" d="M218.8,151.2c0.3,0,0.6,0,0.8-0.2c0.7-0.4,1.3-0.8,2-1.2c0.7-0.4,0.9-1.3,0.5-1.9
						c-0.4-0.7-1.3-0.9-1.9-0.5c-0.6,0.4-1.2,0.8-1.9,1.1c-0.7,0.4-0.9,1.2-0.5,1.9C218,150.9,218.4,151.1,218.8,151.2z"/>
				</g>
				<g>
					<path class="st80" d="M225.3,128.2c0.2-0.2,0.2-0.5,0.1-0.7l-3.5-7.1c2-3.1,3.4-6.6,4.3-10.3l7.5-2.6c0.3-0.1,0.4-0.3,0.4-0.6
						l0-9.5c0-0.3-0.2-0.5-0.4-0.6l-7.5-2.6c-0.9-3.7-2.3-7.2-4.3-10.3l3.5-7.1c0.1-0.2,0.1-0.5-0.1-0.7l-6.7-6.7
						c-0.2-0.2-0.5-0.2-0.7-0.1l-7.1,3.5c-3.1-2-6.6-3.4-10.3-4.3l-2.6-7.5c-0.1-0.3-0.3-0.4-0.6-0.4l-9.5,0c-0.3,0-0.5,0.2-0.6,0.4
						l-2.6,7.5c-3.7,0.9-7.2,2.3-10.3,4.3L167,69c-0.2-0.1-0.5-0.1-0.7,0.1l-6.7,6.7c-0.2,0.2-0.2,0.5-0.1,0.7l3.5,7.1
						c-2,3.1-3.4,6.6-4.3,10.3l-7.5,2.6c-0.3,0.1-0.4,0.3-0.4,0.6l0,9.5c0,0.3,0.2,0.5,0.4,0.6l7.5,2.6c0.9,3.7,2.3,7.2,4.3,10.3
						l-3.5,7.1c-0.1,0.2-0.1,0.5,0.1,0.7l6.7,6.7c0.2,0.2,0.5,0.2,0.7,0.1l7.1-3.5c3.1,2,6.6,3.4,10.3,4.3l2.6,7.5
						c0.1,0.3,0.3,0.4,0.6,0.4l9.5,0c0.3,0,0.5-0.2,0.6-0.4l2.6-7.5c3.7-0.9,7.2-2.3,10.3-4.3l7.1,3.5c0.2,0.1,0.5,0.1,0.7-0.1
						L225.3,128.2z"/>
					
						<linearGradient id="SVGID_00000149346869560686542960000006978274770192654260_" gradientUnits="userSpaceOnUse" x1="182.882" y1="102.0191" x2="201.996" y2="102.0191">
						<stop  offset="0" style="stop-color:#DAE3FE"/>
						<stop  offset="1" style="stop-color:#E9EFFD"/>
					</linearGradient>
					<path style="fill:url(#SVGID_00000149346869560686542960000006978274770192654260_);" d="M190.1,111.3
						c-5.1-1.3-8.2-6.5-6.9-11.6c0.6-2.5,2.2-4.6,4.4-5.9c2.2-1.3,4.8-1.7,7.2-1.1c5.1,1.3,8.2,6.5,6.9,11.6
						c-1.2,4.6-5.6,7.6-10.2,7.2C191,111.5,190.6,111.4,190.1,111.3z M188.7,95.7c-1.7,1-2.9,2.6-3.3,4.5c-1,3.9,1.4,7.9,5.3,8.9
						c3.9,1,7.9-1.4,8.9-5.3c1-3.9-1.4-7.9-5.3-8.9c-0.4-0.1-0.7-0.2-1.1-0.2C191.6,94.6,190,94.9,188.7,95.7z"/>
					
						<linearGradient id="SVGID_00000029756723998485604140000006591151732732214175_" gradientUnits="userSpaceOnUse" x1="168.8114" y1="101.8663" x2="215.8052" y2="101.8663">
						<stop  offset="0" style="stop-color:#DAE3FE"/>
						<stop  offset="1" style="stop-color:#E9EFFD"/>
					</linearGradient>
					<path style="fill:url(#SVGID_00000029756723998485604140000006591151732732214175_);" d="M189.9,125.2c0.8,0.1,1.6,0.1,2.4,0.1
						l0,0c0.3,0,0.5,0,0.8,0c1.3,0,2.5-0.2,3.7-0.4c0,0,0,0,0.1,0c0,0,0.1,0,0.1,0c0.1,0,0.2,0,0.3-0.1c0.2-0.1,0.4-0.3,0.4-0.5
						c0-0.1,0-0.1,0-0.2c-0.1-0.3-0.4-0.5-0.7-0.4c-1.5,0.3-3.1,0.5-4.7,0.5c-7.9,0-14.9-4.1-18.9-10.4c-2.2-3.5-3.5-7.6-3.5-12
						c0-0.8,0-1.5,0.1-2.3c0.5-5.1,2.8-9.8,6.4-13.5c4.2-4.2,9.8-6.6,15.8-6.6c12.3,0,22.4,10,22.4,22.4c0,0.8,0,1.5-0.1,2.3
						c-0.3,3.3-1.4,6.4-3.1,9.2c0,0.1-0.1,0.2-0.1,0.2c0,0.2,0.1,0.4,0.3,0.5c0.3,0.2,0.6,0.1,0.8-0.2c1.8-3,2.9-6.3,3.2-9.7
						c0.1-0.8,0.1-1.6,0.1-2.4c0-13-10.5-23.5-23.5-23.5c-6.3,0-12.2,2.4-16.6,6.9c-3.9,3.9-6.2,8.8-6.8,14.2
						c-0.1,0.8-0.1,1.6-0.1,2.4c0,6.3,2.4,12.2,6.9,16.6C179.6,122.3,184.5,124.7,189.9,125.2z"/>
				</g>
			</g>
			<g>
				<g class="st82">
					<path class="st80" d="M289,156.3c0.4,0,0.7-0.2,0.9-0.5c0.3-0.7,0.5-1.4,0.8-2.1c0.2-0.4-0.1-0.9-0.5-1.1
						c-0.5-0.2-0.9,0.1-1.1,0.5c-0.2,0.7-0.5,1.3-0.7,2c-0.2,0.4,0,0.9,0.5,1.1C288.9,156.3,288.9,156.3,289,156.3z"/>
					<path class="st80" d="M290.8,149.9c-0.5-0.1-0.8-0.6-0.7-1c0.2-1.2,0.4-2.4,0.5-3.6c0-0.3,0-0.5,0.1-0.8c0-0.5,0.5-0.8,0.9-0.8
						c0.4,0.1,0.8,0.5,0.8,0.9c0,0.3,0,0.5-0.1,0.8c-0.1,1.3-0.3,2.5-0.6,3.7C291.8,149.7,291.4,150,290.8,149.9
						C290.9,149.9,290.9,149.9,290.8,149.9z M290.9,140.2c-0.1-1.5-0.2-2.9-0.5-4.3c-0.1-0.5,0.2-0.9,0.7-1c0.5-0.1,0.9,0.2,1,0.7
						c0.2,1.5,0.4,3,0.5,4.6c0,0.5-0.3,0.9-0.8,0.9c0,0-0.1,0-0.1,0C291.2,141,290.9,140.7,290.9,140.2z M289.4,131.6
						c-0.4-1.4-0.9-2.8-1.5-4.1c-0.2-0.4,0-0.9,0.4-1.1c0.4-0.2,0.9,0,1.1,0.4c0.6,1.4,1.1,2.8,1.6,4.3c0.1,0.5-0.1,0.9-0.6,1.1
						c-0.1,0-0.2,0-0.3,0C289.8,132.2,289.5,132,289.4,131.6z M285.9,123.6c-0.7-1.2-1.6-2.5-2.5-3.6c-0.3-0.4-0.2-0.9,0.2-1.2
						c0.4-0.3,0.9-0.2,1.2,0.2c0.9,1.2,1.8,2.5,2.6,3.8c0.2,0.4,0.1,0.9-0.3,1.2c-0.2,0.1-0.3,0.1-0.5,0.1
						C286.3,124,286.1,123.9,285.9,123.6z M280.6,116.7c-1-1-2.1-2-3.3-2.9c-0.4-0.3-0.4-0.8-0.1-1.2c0.3-0.4,0.8-0.4,1.2-0.1
						c1.2,0.9,2.3,2,3.4,3c0.3,0.3,0.3,0.9,0,1.2c-0.2,0.2-0.4,0.3-0.7,0.2C280.9,117,280.7,116.9,280.6,116.7z M273.7,111.4
						c-1.2-0.7-2.5-1.4-3.9-2c-0.4-0.2-0.6-0.7-0.4-1.1c0.2-0.4,0.7-0.6,1.1-0.4c1.4,0.6,2.8,1.3,4.1,2.1c0.4,0.2,0.5,0.8,0.3,1.2
						c-0.2,0.3-0.5,0.4-0.8,0.4C274,111.5,273.8,111.4,273.7,111.4z M265.8,107.8c-1.4-0.4-2.8-0.8-4.3-1c-0.5-0.1-0.8-0.5-0.7-1
						c0.1-0.5,0.5-0.8,1-0.7c1.5,0.3,3,0.6,4.5,1.1c0.5,0.1,0.7,0.6,0.6,1.1c-0.1,0.4-0.5,0.6-0.9,0.6
						C265.9,107.8,265.8,107.8,265.8,107.8z M251.9,105.6c0-0.5,0.3-0.9,0.8-0.9c1.3-0.1,2.7-0.1,4-0.1c0.2,0,0.4,0,0.6,0
						c0.5,0,0.8,0.4,0.8,0.9c0,0.5-0.4,0.8-0.9,0.8c-0.2,0-0.4,0-0.6,0c-1.3,0-2.5,0-3.8,0.1c-0.1,0-0.1,0-0.2,0
						C252.2,106.4,251.9,106,251.9,105.6z"/>
				</g>
				<g class="st82">
					<path class="st80" d="M251.2,178.7c-1.5-0.2-3-0.4-4.4-0.8c-0.5-0.1-0.7-0.6-0.6-1c0.1-0.5,0.6-0.7,1-0.6
						c1.4,0.3,2.8,0.6,4.2,0.7c0.5,0.1,0.8,0.5,0.8,1C252.1,178.4,251.7,178.7,251.2,178.7C251.2,178.7,251.2,178.7,251.2,178.7z
						 M254.8,178.1c0-0.5,0.4-0.9,0.9-0.9c1.4,0,2.9-0.1,4.3-0.3c0.5-0.1,0.9,0.3,1,0.7c0.1,0.5-0.3,0.9-0.7,1
						c-1.5,0.2-3,0.3-4.5,0.3c0,0-0.1,0-0.1,0C255.2,178.9,254.8,178.5,254.8,178.1z M242.5,176.6c-1.4-0.5-2.8-1.1-4.1-1.8
						c-0.4-0.2-0.6-0.7-0.4-1.2c0.2-0.4,0.7-0.6,1.2-0.4c1.3,0.7,2.6,1.2,3.9,1.7c0.4,0.2,0.7,0.7,0.5,1.1c-0.1,0.4-0.5,0.6-0.9,0.6
						C242.6,176.6,242.5,176.6,242.5,176.6z M263.6,177.1c-0.1-0.5,0.2-0.9,0.6-1c1.4-0.4,2.8-0.8,4.1-1.3c0.4-0.2,0.9,0,1.1,0.5
						c0.2,0.4,0,0.9-0.5,1.1c-1.4,0.5-2.8,1-4.3,1.4c-0.1,0-0.2,0-0.3,0C264,177.8,263.7,177.5,263.6,177.1z M234.5,172.4
						c-1.2-0.8-2.4-1.8-3.6-2.8c-0.4-0.3-0.4-0.9-0.1-1.2c0.3-0.4,0.9-0.4,1.2-0.1c1.1,0.9,2.2,1.8,3.4,2.6c0.4,0.3,0.5,0.8,0.2,1.2
						c-0.2,0.3-0.5,0.4-0.8,0.4C234.7,172.6,234.6,172.5,234.5,172.4z M227.7,166.5c-1-1.1-1.9-2.3-2.8-3.5
						c-0.3-0.4-0.2-0.9,0.2-1.2c0.4-0.3,0.9-0.2,1.2,0.2c0.8,1.2,1.7,2.3,2.7,3.4c0.3,0.4,0.3,0.9-0.1,1.2c-0.2,0.2-0.4,0.2-0.7,0.2
						C228.1,166.7,227.9,166.6,227.7,166.5z M222.6,159.1c-0.7-1.3-1.3-2.7-1.9-4.1c-0.2-0.4,0.1-0.9,0.5-1.1
						c0.4-0.2,0.9,0.1,1.1,0.5c0.5,1.3,1.1,2.7,1.8,3.9c0.2,0.4,0.1,0.9-0.4,1.2c-0.2,0.1-0.3,0.1-0.5,0.1
						C223,159.5,222.7,159.4,222.6,159.1z"/>
					<path class="st80" d="M272.6,174.6c0.2,0,0.3,0,0.5-0.1c0.6-0.3,1.3-0.7,1.9-1.1c0.4-0.2,0.5-0.8,0.3-1.2
						c-0.3-0.4-0.8-0.5-1.2-0.3c-0.6,0.4-1.2,0.7-1.8,1c-0.4,0.2-0.6,0.7-0.3,1.2C272,174.4,272.3,174.6,272.6,174.6z"/>
				</g>
				<g>
					<path class="st80" d="M277.5,159c0.1-0.1,0.2-0.3,0.1-0.5l-2.3-4.8c1.3-2.1,2.3-4.4,2.9-6.9l5-1.7c0.2-0.1,0.3-0.2,0.3-0.4
						l0-6.4c0-0.2-0.1-0.4-0.3-0.4l-5-1.7c-0.6-2.5-1.6-4.8-2.9-6.9l2.3-4.8c0.1-0.2,0-0.4-0.1-0.5l-4.5-4.5
						c-0.1-0.1-0.3-0.2-0.5-0.1l-4.8,2.3c-2.1-1.3-4.4-2.3-6.9-2.9l-1.7-5c-0.1-0.2-0.2-0.3-0.4-0.3l-6.4,0c-0.2,0-0.4,0.1-0.4,0.3
						l-1.7,5c-2.5,0.6-4.8,1.6-6.9,2.9l-4.8-2.3c-0.2-0.1-0.4,0-0.5,0.1l-4.5,4.5c-0.1,0.1-0.2,0.3-0.1,0.5l2.3,4.8
						c-1.3,2.1-2.3,4.4-2.9,6.9l-5,1.7c-0.2,0.1-0.3,0.2-0.3,0.4l0,6.4c0,0.2,0.1,0.4,0.3,0.4l5,1.7c0.6,2.5,1.6,4.8,2.9,6.9
						l-2.3,4.8c-0.1,0.2,0,0.4,0.1,0.5l4.5,4.5c0.1,0.1,0.3,0.2,0.5,0.1l4.8-2.3c2.1,1.3,4.4,2.3,6.9,2.9l1.7,5
						c0.1,0.2,0.2,0.3,0.4,0.3l6.4,0c0.2,0,0.4-0.1,0.4-0.3l1.7-5c2.5-0.6,4.8-1.6,6.9-2.9l4.8,2.3c0.2,0.1,0.4,0,0.5-0.1L277.5,159
						z"/>
					
						<linearGradient id="SVGID_00000026125195218902276960000002882584612660075438_" gradientUnits="userSpaceOnUse" x1="248.9525" y1="141.4549" x2="261.9745" y2="141.4549">
						<stop  offset="0" style="stop-color:#DAE3FE"/>
						<stop  offset="1" style="stop-color:#E9EFFD"/>
					</linearGradient>
					<path style="fill:url(#SVGID_00000026125195218902276960000002882584612660075438_);" d="M253.9,147.8c-1.7-0.4-3.1-1.5-4-3
						c-0.9-1.5-1.1-3.2-0.7-4.9c0.9-3.5,4.4-5.6,7.9-4.7c3.5,0.9,5.6,4.4,4.7,7.9c-0.4,1.7-1.5,3.1-3,4c-1.2,0.7-2.6,1-4,0.9
						C254.5,147.9,254.2,147.8,253.9,147.8z M250.8,140.3c-0.3,1.2-0.1,2.5,0.5,3.6c0.7,1.1,1.7,1.9,2.9,2.2l0,0
						c1.2,0.3,2.5,0.1,3.6-0.5c1.1-0.7,1.9-1.7,2.2-2.9c0.6-2.6-0.9-5.2-3.5-5.8c-0.2-0.1-0.5-0.1-0.7-0.1
						C253.6,136.5,251.4,138,250.8,140.3z"/>
					
						<linearGradient id="SVGID_00000053514272282717368320000015369049137268394379_" gradientUnits="userSpaceOnUse" x1="239.1663" y1="141.3503" x2="271.588" y2="141.3503">
						<stop  offset="0" style="stop-color:#DAE3FE"/>
						<stop  offset="1" style="stop-color:#E9EFFD"/>
					</linearGradient>
					<path style="fill:url(#SVGID_00000053514272282717368320000015369049137268394379_);" d="M253.7,157.5c0.5,0.1,1.1,0.1,1.6,0.1
						c1.1,0,2.2-0.1,3.3-0.3c0,0,0.1,0,0.1,0c0.4-0.1,0.6-0.4,0.7-0.8c0-0.1,0-0.2,0-0.3c-0.1-0.5-0.6-0.8-1-0.7
						c-1,0.2-2,0.3-3.1,0.3l0,0c-0.1,0-0.1,0-0.2,0c-2.4,0-4.8-0.7-6.9-1.8c-1.1-0.6-2.2-1.4-3.1-2.3c0,0,0,0,0,0c0,0,0,0-0.1-0.1
						c-2.7-2.7-4.2-6.4-4.2-10.2c0-0.5,0-1,0.1-1.5c0.3-3.3,1.8-6.4,4.2-8.8c2.7-2.7,6.4-4.2,10.2-4.2c3.9,0,7.5,1.5,10.2,4.2
						c2.7,2.7,4.2,6.4,4.2,10.2c0,0.5,0,1-0.1,1.5c-0.2,2.1-0.9,4.1-2,6c-0.1,0.1-0.1,0.2-0.1,0.4c0,0.3,0.1,0.6,0.4,0.8
						c0.4,0.2,0.9,0.1,1.2-0.3c1.2-2,2-4.3,2.2-6.7c0.1-0.5,0.1-1.1,0.1-1.6c0-4.3-1.7-8.4-4.7-11.5c-3.1-3.1-7.1-4.8-11.5-4.7
						c-4.3,0-8.4,1.7-11.5,4.7c-2.7,2.7-4.3,6.1-4.7,9.8c-0.1,0.5-0.1,1.1-0.1,1.7C239.2,149.7,245.6,156.7,253.7,157.5z"/>
				</g>
			</g>
		</g>
	</g>
</g>
</svg>
