<?xml version="1.0" encoding="utf-8"?>
<!-- Generator: Adobe Illustrator 28.1.0, SVG Export Plug-In . SVG Version: 6.00 Build 0)  -->
<svg version="1.1" id="Layer_1" xmlns="http://www.w3.org/2000/svg" xmlns:xlink="http://www.w3.org/1999/xlink" x="0px" y="0px"
	 viewBox="0 0 501 501" style="enable-background:new 0 0 501 501;" xml:space="preserve">
<style type="text/css">
	.st0{fill:url(#SVGID_1_);}
	.st1{fill:#223F97;}
	.st2{fill:#ABB7F4;}
	.st3{fill:#76B543;}
	.st4{fill:#FFFFFF;}
	.st5{opacity:0.7;fill:url(#SVGID_00000097497030642563734350000004554801263591245758_);enable-background:new    ;}
	.st6{opacity:0.7;fill:url(#SVGID_00000034081638828578331400000008045100858025912475_);enable-background:new    ;}
	.st7{opacity:0.7;fill:url(#SVGID_00000070120067906338114920000004646817628228369320_);enable-background:new    ;}
	.st8{opacity:0.7;fill:url(#SVGID_00000079462811026532720190000004530008762885264000_);enable-background:new    ;}
	.st9{opacity:0.64;}
	.st10{fill:url(#SVGID_00000136377373336067827680000009587007500261983631_);}
	.st11{fill:url(#SVGID_00000077323935630017695390000004652612575853634224_);}
	.st12{fill:url(#SVGID_00000055684626498319574330000006419230960002101388_);}
	.st13{fill:url(#SVGID_00000150781350846927277440000000734895281487976076_);}
	.st14{fill:url(#SVGID_00000028313204033119438350000008650043257376169632_);}
	.st15{fill:url(#SVGID_00000096774486218443936520000003428052186255933588_);}
	.st16{fill:url(#SVGID_00000045615065191943594110000001925558525086586807_);}
	.st17{fill:url(#SVGID_00000121270047382310379560000009991392025277664191_);}
	.st18{fill:url(#SVGID_00000167392525541319730500000018153387107054583221_);}
	.st19{fill:url(#SVGID_00000000932754084850785890000007204430675242969768_);}
	.st20{fill:url(#SVGID_00000138554133612475337510000014824211612968554161_);}
	.st21{fill:url(#SVGID_00000036233563128225911830000013850245170022460807_);}
	.st22{fill:url(#SVGID_00000023962301647723824880000015913537011224913322_);}
	.st23{fill:url(#SVGID_00000173869188387146140620000000868942112443881634_);}
	.st24{fill:url(#SVGID_00000181766900942005816050000010919913971926447028_);}
	.st25{fill:url(#SVGID_00000064322489370099750350000009195872294283311017_);}
	.st26{fill:url(#SVGID_00000157309231793811522160000015885230164559709629_);}
	.st27{fill:url(#SVGID_00000002361906140079363570000015528692554488673679_);}
	.st28{fill:url(#SVGID_00000164483122248062447820000015922282849895498933_);}
	.st29{fill:url(#SVGID_00000059292038378035524330000005657706600831127216_);}
	.st30{fill:url(#SVGID_00000027605919122338037710000015016593682775736481_);}
	.st31{fill:url(#SVGID_00000149351406842076467330000017417690760451072671_);}
	.st32{fill:#91B3FA;}
	.st33{fill:url(#SVGID_00000148632524121363165890000010125650294731442061_);}
	.st34{fill:url(#SVGID_00000015352107027033136250000015048162403163529384_);}
	.st35{fill:url(#SVGID_00000107557103753871421160000013337539161881654188_);}
	.st36{fill:url(#SVGID_00000063632776877104900060000007079090350374607787_);}
	.st37{fill:url(#SVGID_00000090260173886064599160000004057421616009377152_);}
	.st38{fill:url(#SVGID_00000163033342780124490880000016775684669445703307_);}
	.st39{fill:url(#SVGID_00000104690978731149743130000006556482499023809980_);}
	.st40{fill:url(#SVGID_00000042694921944436471500000011764974734465917104_);}
	.st41{fill:url(#SVGID_00000092456790304269415140000001517677025137218714_);}
	.st42{fill:url(#SVGID_00000179630735938531345370000008738363193431356314_);}
	.st43{fill:url(#SVGID_00000127722112020962189310000017783360069108597897_);}
	.st44{fill:url(#SVGID_00000076604523956204845920000014522213866496404864_);}
	.st45{fill:url(#SVGID_00000088841132511678700430000012401348075975544504_);}
	.st46{fill:url(#SVGID_00000059303133123475697200000001621997644894442919_);}
	.st47{fill:url(#SVGID_00000042011718584844934680000011160651516394367375_);}
	.st48{fill:url(#SVGID_00000101096125054940123490000007302396699167224739_);}
	.st49{fill:url(#SVGID_00000083051417783336881330000003683962282396755083_);}
	.st50{fill:url(#SVGID_00000176012911127045547340000006380368934111266486_);}
	.st51{fill:url(#SVGID_00000070120678655965940940000005102268090898052487_);}
	.st52{fill:url(#SVGID_00000018945947802179392270000014804008387893013378_);}
	.st53{fill:url(#SVGID_00000073682161328345871280000008991820813276546747_);}
	.st54{fill:url(#SVGID_00000134239250197535801000000016904667354620105381_);}
	.st55{fill:url(#SVGID_00000048476773715826506280000001900890570281963398_);}
	.st56{fill:url(#SVGID_00000039114541651452582150000013400436479198277043_);}
	.st57{fill:url(#SVGID_00000075158348021158959460000004397524008149294003_);}
	.st58{fill:url(#SVGID_00000011021631871472197770000000793847729000037551_);}
	.st59{fill:url(#SVGID_00000109006886682612522970000007020529151020070539_);}
	.st60{fill:url(#SVGID_00000119799036028703741580000012932679368078643389_);}
	.st61{fill:url(#SVGID_00000047738731496274999110000006362570251819060664_);}
	.st62{fill:url(#SVGID_00000009553788893442542310000016006850011530955170_);}
	.st63{fill:url(#SVGID_00000073692542866299905060000016850076531470921383_);}
	.st64{fill:url(#SVGID_00000097472857684513335840000009468292110704129970_);}
	.st65{fill:url(#SVGID_00000053524361936255354200000012285539912432186758_);}
	.st66{fill:url(#SVGID_00000000914865897913404290000011917673294989874867_);}
	.st67{fill:url(#SVGID_00000033367683642695625810000006216838385712907912_);}
	.st68{fill:url(#SVGID_00000051379020854134941200000008107776733487447729_);}
	.st69{fill:url(#SVGID_00000100370815091711656570000005777434596017227917_);}
	.st70{fill:url(#SVGID_00000067224421636424549380000001064378362109912730_);}
	.st71{fill:url(#SVGID_00000012444721576275735650000014547998669979308963_);}
	.st72{fill:url(#SVGID_00000054948503193402167690000015225118467713674934_);}
	.st73{fill:url(#SVGID_00000009586296515328067190000017582981926559171210_);}
	.st74{fill:#BDD0FB;}
	.st75{fill:url(#SVGID_00000166672388261515502080000001725401714746239919_);}
	.st76{opacity:0.3;}
	.st77{fill:url(#SVGID_00000023959935341203710590000010851454301245466266_);}
	.st78{fill:url(#SVGID_00000021095764345709298240000010411143700944180394_);}
	.st79{fill:url(#SVGID_00000003091736844448386770000013909112767146967726_);}
	.st80{fill:url(#SVGID_00000083088187688299552390000002369749538457746840_);}
</style>
<g id="Background">
</g>
<g id="Illustration">
	<g>
		
			<linearGradient id="SVGID_1_" gradientUnits="userSpaceOnUse" x1="476.4176" y1="59.0791" x2="187.2717" y2="312.0816" gradientTransform="matrix(1 0 0 -1 0 501.8898)">
			<stop  offset="0" style="stop-color:#DAE3FE"/>
			<stop  offset="1" style="stop-color:#E9EFFD"/>
		</linearGradient>
		<path class="st0" d="M427.3,311.4c-37.4,88-136.9,137.3-223.2,124c-14-2.2-52.6-8.6-86.7-39C51.8,337.9,37.7,222,90.7,140.3
			C129.2,80.8,198.3,47.1,264,48.8c14.1,0.4,68.3,2.6,115.9,41.9c7,5.8,22.4,19.5,36.3,41.2C448.9,182.9,451.7,254,427.3,311.4z"/>
		<g>
			<path class="st1" d="M82.1,173.6l26.2,28.7c-16.4,12.4-26.7,36.7,0.8,65.5l-36.9,17.9C46.3,240.5,49.9,204.6,82.1,173.6z"/>
			<path class="st2" d="M66.7,275.4l25.4,0.4l4.6-25.1c14,28.7,47,40.7,84.8,28.5l19.1,35.5C146,339.5,90.8,326.7,66.7,275.4z"/>
			<path class="st1" d="M280,237.4c20.6-40.8,75.1-55.8,114.2-33.5l39.7-13.1c-46.4-61.8-130.6-50-182.9,11.7L280,237.4z"/>
			<path class="st3" d="M371.5,280.6l16.8,39.3c61.4-25.6,80-112.2,24.6-150.4l0.4,25.5l-26.1,5.4
				C425.7,218.7,408.5,270.4,371.5,280.6z"/>
			<path class="st2" d="M261.9,291.7c58.2,41.8,109.1,47.3,149.7,14.1L383,295.6l8-25.4c-35.6,24.7-68.7,16.7-100.5-8.6L261.9,291.7
				z"/>
			<path class="st2" d="M82.1,173.6v27.6l26.2,1.1c17-11,41.6-10.1,72.6-0.2l18-39.9C151.9,142,113.2,146.8,82.1,173.6z"/>
			<path class="st1" d="M180.9,202.1l-14.7-30.7l32.7-9.2c21.3,11.1,38.4,24.7,52.1,40.3c15.1,33.2,35.7,61.5,61.6,73.5l-33.9,0.4
				l5.2,29.6c-13.3-8-26.1-16.9-37.4-26.6L221,234.1C212.1,220.6,199.8,209.6,180.9,202.1z"/>
			<path class="st3" d="M251,202.5c-10,10.7-16.5,26.4-25.8,37.5c-14.9,17.8-33.6,40.8-67.2,43.8l27.4,14.2l-16.3,26.8
				c54.8-10.9,93.1-46.6,110.9-87.4v-39.2L251,202.5z"/>
		</g>
		<g>
			<path class="st2" d="M260.3,88.5L393.7,88c1.3,0,2.3,1,2.3,2.3l-0.3,46.7c0,1.3-1.1,2.3-2.4,2.3c-11.8-0.4-132.3-1.9-134.6-1.8
				c-2.3,0.1-1-36.8-0.7-46.7C258.1,89.5,259.1,88.5,260.3,88.5z"/>
			<path class="st4" d="M393.5,137.4L393.5,137.4c-7.5-0.2-79.6-1.1-114.2-1.6c-10.1-0.1-17.3-0.2-19.2-0.2h-0.2v-0.2
				c-0.8-4.6-0.8-20,0-44.6c0-0.3,0.2-0.5,0.5-0.5l133.4-0.6c0.1,0,0.3,0.1,0.3,0.1c0.1,0.1,0.1,0.2,0.1,0.3l-0.3,46.7
				C393.9,137.2,393.7,137.4,393.5,137.4z M260.2,135.2c2.2,0,9.2,0.1,19,0.2c34.6,0.4,106.7,1.3,114.2,1.6l0,0l0,0l0.3-46.7V90v0.2
				l-133.4,0.6l0,0C259.5,115.1,259.4,130.4,260.2,135.2z"/>
			
				<linearGradient id="SVGID_00000147213736755142426590000012370951792581593229_" gradientUnits="userSpaceOnUse" x1="266" y1="401.2898" x2="318.9758" y2="401.2898" gradientTransform="matrix(1 0 0 -1 0 501.8898)">
				<stop  offset="0" style="stop-color:#DAE3FE"/>
				<stop  offset="1" style="stop-color:#E9EFFD"/>
			</linearGradient>
			<path style="opacity:0.7;fill:url(#SVGID_00000147213736755142426590000012370951792581593229_);enable-background:new    ;" d="
				M266,100.6L266,100.6c0,1.3,0.4,2.3,0.9,2.3H318c0.5,0,0.9-1,0.9-2.3l0,0c0-1.3-0.4-2.3-0.9-2.3h-51
				C266.5,98.3,266,99.3,266,100.6z"/>
			
				<linearGradient id="SVGID_00000162344939283210029080000001679187340315511430_" gradientUnits="userSpaceOnUse" x1="266" y1="393.4898" x2="318.9758" y2="393.4898" gradientTransform="matrix(1 0 0 -1 0 501.8898)">
				<stop  offset="0" style="stop-color:#DAE3FE"/>
				<stop  offset="1" style="stop-color:#E9EFFD"/>
			</linearGradient>
			<path style="opacity:0.7;fill:url(#SVGID_00000162344939283210029080000001679187340315511430_);enable-background:new    ;" d="
				M266,108.4L266,108.4c0,1.3,0.4,2.3,0.9,2.3H318c0.5,0,0.9-1,0.9-2.3l0,0c0-1.3-0.4-2.3-0.9-2.3h-51
				C266.5,106.1,266,107.1,266,108.4z"/>
			
				<linearGradient id="SVGID_00000179630282781039576480000000637941806343561917_" gradientUnits="userSpaceOnUse" x1="266" y1="385.6898" x2="318.9758" y2="385.6898" gradientTransform="matrix(1 0 0 -1 0 501.8898)">
				<stop  offset="0" style="stop-color:#DAE3FE"/>
				<stop  offset="1" style="stop-color:#E9EFFD"/>
			</linearGradient>
			<path style="opacity:0.7;fill:url(#SVGID_00000179630282781039576480000000637941806343561917_);enable-background:new    ;" d="
				M266,116.2L266,116.2c0,1.3,0.4,2.3,0.9,2.3H318c0.5,0,0.9-1,0.9-2.3l0,0c0-1.3-0.4-2.3-0.9-2.3h-51
				C266.5,113.9,266,114.9,266,116.2z"/>
			
				<linearGradient id="SVGID_00000155853340116783368000000004910933333860556211_" gradientUnits="userSpaceOnUse" x1="266" y1="377.8898" x2="318.9758" y2="377.8898" gradientTransform="matrix(1 0 0 -1 0 501.8898)">
				<stop  offset="0" style="stop-color:#DAE3FE"/>
				<stop  offset="1" style="stop-color:#E9EFFD"/>
			</linearGradient>
			<path style="opacity:0.7;fill:url(#SVGID_00000155853340116783368000000004910933333860556211_);enable-background:new    ;" d="
				M266,124L266,124c0,1.3,0.4,2.3,0.9,2.3H318c0.5,0,0.9-1,0.9-2.3l0,0c0-1.3-0.4-2.3-0.9-2.3h-51C266.5,121.7,266,122.7,266,124z"
				/>
			<g>
				<circle class="st4" cx="332" cy="102.2" r="8.9"/>
				<circle class="st4" cx="354" cy="102.2" r="8.9"/>
				<circle class="st4" cx="376.1" cy="102.5" r="8.9"/>
				<g>
					<path class="st2" d="M337.2,100.3c0.3,0.7,0.4,1.4,0.4,2.2c0,3.2-2.6,5.7-5.7,5.7c-3.2,0-5.7-2.6-5.7-5.7
						c0-3.2,2.6-5.7,5.7-5.7c0.1,0,0.2,0,0.3,0v-1.4c-0.1,0-0.2,0-0.3,0c-4,0-7.2,3.2-7.2,7.2s3.2,7.2,7.2,7.2s7.2-3.2,7.2-7.2
						c0-1-0.2-1.9-0.5-2.7L337.2,100.3z"/>
					<path class="st2" d="M357,107.3c-0.9,0.6-1.9,0.9-3,0.9c-3.2,0-5.7-2.6-5.7-5.7c0-3.2,2.6-5.7,5.7-5.7c0.1,0,0.2,0,0.3,0v-1.4
						c-0.1,0-0.2,0-0.3,0c-4,0-7.2,3.2-7.2,7.2s3.2,7.2,7.2,7.2c1.4,0,2.7-0.4,3.8-1.1L357,107.3z"/>
					<path class="st2" d="M380.9,105.7c-1,1.5-2.8,2.5-4.7,2.5c-3.2,0-5.7-2.6-5.7-5.7c0-3.2,2.6-5.7,5.7-5.7c0.1,0,0.2,0,0.3,0
						v-1.4c-0.1,0-0.2,0-0.3,0c-4,0-7.2,3.2-7.2,7.2s3.2,7.2,7.2,7.2c2.4,0,4.6-1.2,5.9-3.1L380.9,105.7z"/>
				</g>
				<g class="st9">
					
						<linearGradient id="SVGID_00000033347813404457115940000009823013524686586260_" gradientUnits="userSpaceOnUse" x1="323.0715" y1="385.3898" x2="340.8473" y2="385.3898" gradientTransform="matrix(1 0 0 -1 0 501.8898)">
						<stop  offset="0" style="stop-color:#DAE3FE"/>
						<stop  offset="1" style="stop-color:#E9EFFD"/>
					</linearGradient>
					<path style="fill:url(#SVGID_00000033347813404457115940000009823013524686586260_);" d="M339.2,114.9h-14.5
						c-0.9,0-1.6,0.7-1.6,1.6s0.7,1.6,1.6,1.6h14.5c0.9,0,1.6-0.7,1.6-1.6C340.8,115.6,340.1,114.9,339.2,114.9z"/>
					
						<linearGradient id="SVGID_00000105427441305587256660000007428276526191781039_" gradientUnits="userSpaceOnUse" x1="345.1605" y1="385.3898" x2="362.9362" y2="385.3898" gradientTransform="matrix(1 0 0 -1 0 501.8898)">
						<stop  offset="0" style="stop-color:#DAE3FE"/>
						<stop  offset="1" style="stop-color:#E9EFFD"/>
					</linearGradient>
					<path style="fill:url(#SVGID_00000105427441305587256660000007428276526191781039_);" d="M361.3,114.9h-14.5
						c-0.9,0-1.6,0.7-1.6,1.6s0.7,1.6,1.6,1.6h14.5c0.9,0,1.6-0.7,1.6-1.6S362.2,114.9,361.3,114.9z"/>
					
						<linearGradient id="SVGID_00000142165834613998233730000009939039869351348363_" gradientUnits="userSpaceOnUse" x1="367.2494" y1="385.3898" x2="385.0251" y2="385.3898" gradientTransform="matrix(1 0 0 -1 0 501.8898)">
						<stop  offset="0" style="stop-color:#DAE3FE"/>
						<stop  offset="1" style="stop-color:#E9EFFD"/>
					</linearGradient>
					<path style="fill:url(#SVGID_00000142165834613998233730000009939039869351348363_);" d="M368.9,118.1h14.5
						c0.9,0,1.6-0.7,1.6-1.6s-0.7-1.6-1.6-1.6h-14.5c-0.9,0-1.6,0.7-1.6,1.6C367.2,117.4,368,118.1,368.9,118.1z"/>
					
						<linearGradient id="SVGID_00000093874416477654980220000000144532767948666282_" gradientUnits="userSpaceOnUse" x1="323.0715" y1="375.4398" x2="340.8473" y2="375.4398" gradientTransform="matrix(1 0 0 -1 0 501.8898)">
						<stop  offset="0" style="stop-color:#DAE3FE"/>
						<stop  offset="1" style="stop-color:#E9EFFD"/>
					</linearGradient>
					<path style="fill:url(#SVGID_00000093874416477654980220000000144532767948666282_);" d="M339.2,120h-14.5
						c-0.9,0-1.6,0.7-1.6,1.6v9.7c0,0.9,0.7,1.6,1.6,1.6h14.5c0.9,0,1.6-0.7,1.6-1.6v-9.7C340.8,120.7,340.1,120,339.2,120z"/>
					
						<linearGradient id="SVGID_00000125588943987445337020000011752347494528364424_" gradientUnits="userSpaceOnUse" x1="345.1605" y1="375.4398" x2="362.9362" y2="375.4398" gradientTransform="matrix(1 0 0 -1 0 501.8898)">
						<stop  offset="0" style="stop-color:#DAE3FE"/>
						<stop  offset="1" style="stop-color:#E9EFFD"/>
					</linearGradient>
					<path style="fill:url(#SVGID_00000125588943987445337020000011752347494528364424_);" d="M361.3,120h-14.5
						c-0.9,0-1.6,0.7-1.6,1.6v9.7c0,0.9,0.7,1.6,1.6,1.6h14.5c0.9,0,1.6-0.7,1.6-1.6v-9.7C362.9,120.7,362.2,120,361.3,120z"/>
					
						<linearGradient id="SVGID_00000147931532117000999480000008659883354069708684_" gradientUnits="userSpaceOnUse" x1="367.2494" y1="375.4398" x2="385.0251" y2="375.4398" gradientTransform="matrix(1 0 0 -1 0 501.8898)">
						<stop  offset="0" style="stop-color:#DAE3FE"/>
						<stop  offset="1" style="stop-color:#E9EFFD"/>
					</linearGradient>
					<path style="fill:url(#SVGID_00000147931532117000999480000008659883354069708684_);" d="M383.4,120h-14.5
						c-0.9,0-1.6,0.7-1.6,1.6v9.7c0,0.9,0.7,1.6,1.6,1.6h14.5c0.9,0,1.6-0.7,1.6-1.6v-9.7C385,120.7,384.3,120,383.4,120z"/>
				</g>
			</g>
		</g>
		<g>
			<g>
				
					<linearGradient id="SVGID_00000097468683572775993180000008342353861932410782_" gradientUnits="userSpaceOnUse" x1="5218.499" y1="91.2694" x2="5151.9038" y2="18.8325" gradientTransform="matrix(1 9.500000e-03 9.500000e-03 -1 -4995.5767 454.1044)">
					<stop  offset="0" style="stop-color:#09005D"/>
					<stop  offset="1" style="stop-color:#1A0F91"/>
				</linearGradient>
				<path style="fill:url(#SVGID_00000097468683572775993180000008342353861932410782_);" d="M202.7,417.6c0,0-0.7,3.9-1.1,7.8
					c-0.1,1.5,1,2.8,2.5,2.9c5.1,0.3,16.2,0.8,20.1,0.6c0.6,0,1-0.6,0.8-1.2l0,0c-0.2-0.5-0.5-0.8-1-1.1l-18.1-8.5L202.7,417.6z"/>
				
					<linearGradient id="SVGID_00000052788721939559699630000015683124777563605686_" gradientUnits="userSpaceOnUse" x1="5196.8989" y1="85.8445" x2="5202.814" y2="85.8445" gradientTransform="matrix(1 9.500000e-03 9.500000e-03 -1 -4995.5767 454.1044)">
					<stop  offset="0" style="stop-color:#FEBBBA"/>
					<stop  offset="1" style="stop-color:#FF928E"/>
				</linearGradient>
				<path style="fill:url(#SVGID_00000052788721939559699630000015683124777563605686_);" d="M202.2,415.3l0.5,4.7
					c0,0,3.2,1.5,5.4-0.1l-1.3-5.2L202.2,415.3z"/>
				
					<linearGradient id="SVGID_00000005965276898659259940000000550169502073962114_" gradientUnits="userSpaceOnUse" x1="5223.7749" y1="173.1691" x2="5167.105" y2="96.3603" gradientTransform="matrix(1 9.500000e-03 9.500000e-03 -1 -4995.5767 454.1044)">
					<stop  offset="0" style="stop-color:#09005D"/>
					<stop  offset="1" style="stop-color:#1A0F91"/>
				</linearGradient>
				<path style="fill:url(#SVGID_00000005965276898659259940000000550169502073962114_);" d="M203.4,327.5
					c-0.3,1.2-1.9,60.9,4.3,87.6c0.1,0.4-0.1,0.9-0.5,1.1c-1,0.4-2.9,1-5.2,1c-0.7,0-1.3-0.5-1.5-1.1c-1.8-6.2-10.2-37.4-11.1-67.1
					c-1-33.2,0-1.1,0-1.1l0.9-20.5L203.4,327.5z"/>
				
					<linearGradient id="SVGID_00000142162595806709594510000017755481432661608872_" gradientUnits="userSpaceOnUse" x1="5203.6274" y1="104.9441" x2="5137.0293" y2="32.5042" gradientTransform="matrix(1 9.500000e-03 9.500000e-03 -1 -4995.5767 454.1044)">
					<stop  offset="0" style="stop-color:#09005D"/>
					<stop  offset="1" style="stop-color:#1A0F91"/>
				</linearGradient>
				<path style="fill:url(#SVGID_00000142162595806709594510000017755481432661608872_);" d="M181.8,419.5c0,0-1.1,2-2.2,7.2
					c-0.2,0.9,0.5,1.9,1.4,2c1.7,0.2,4.3,0.4,6.4,0.4c1,0,1.7-0.8,1.6-1.8c-0.2-1.9-0.9-5.1-3.1-7.5L181.8,419.5z"/>
				
					<linearGradient id="SVGID_00000072268613166657628000000008184387907205179324_" gradientUnits="userSpaceOnUse" x1="5175.5796" y1="86.1858" x2="5180.6865" y2="86.1858" gradientTransform="matrix(1 9.500000e-03 9.500000e-03 -1 -4995.5767 454.1044)">
					<stop  offset="0" style="stop-color:#FEBBBA"/>
					<stop  offset="1" style="stop-color:#FF928E"/>
				</linearGradient>
				<path style="fill:url(#SVGID_00000072268613166657628000000008184387907205179324_);" d="M180.9,413.4l1.2,7.1
					c0,0,1.3,1,3.8,0.3l-0.5-7.6L180.9,413.4z"/>
				
					<linearGradient id="SVGID_00000129913772904482302360000016728032686657781410_" gradientUnits="userSpaceOnUse" x1="5213.6787" y1="180.618" x2="5157.0098" y2="103.8101" gradientTransform="matrix(1 9.500000e-03 9.500000e-03 -1 -4995.5767 454.1044)">
					<stop  offset="0" style="stop-color:#09005D"/>
					<stop  offset="1" style="stop-color:#1A0F91"/>
				</linearGradient>
				<path style="fill:url(#SVGID_00000129913772904482302360000016728032686657781410_);" d="M178.2,329.1
					c-5.5,31.4,0.4,77.8,2.4,86.9c0.1,0.6,0.6,1,1.1,1.1c1,0.2,2.5,0.3,4.1-0.1c0.5-0.1,0.9-0.6,0.9-1.2c0.4-7.3,0.3-52.3,5.3-70
					c0.3-0.9,0.8-1.7,1.6-2.2l9.5-6.6l0.8-10.8L178.2,329.1z"/>
				<g>
					<path class="st1" d="M212,269.8c-15.6-0.4-32.9,3.8-32.9,3.8c-4.9,27.1-1.4,58.5-1.4,58.5c12.1,3.3,25.8-1.7,25.8-1.7
						c2.1-11.3,11.8-43.2,11.8-43.2c7.6-0.9,14-3,19.2-5.9c-3.9-4.6-5.7-10.5-6.5-13.9C222.4,269.1,216.8,269.9,212,269.8z"/>
					
						<linearGradient id="SVGID_00000130618024560834731700000009089212062584911805_" gradientUnits="userSpaceOnUse" x1="5221.2319" y1="240.2264" x2="5251.437" y2="240.2264" gradientTransform="matrix(1 9.500000e-03 9.500000e-03 -1 -4995.5767 454.1044)">
						<stop  offset="0" style="stop-color:#FEBBBA"/>
						<stop  offset="1" style="stop-color:#FF928E"/>
					</linearGradient>
					<path style="fill:url(#SVGID_00000130618024560834731700000009089212062584911805_);" d="M258.3,247.2c-1.5-1.9-3.5-1-3.5-1
						c-2.4,9.7-14.5,17.5-26.9,21.2c0.8,3.5,2.6,9.3,6.5,13.9C255.1,270,258.3,247.2,258.3,247.2z"/>
				</g>
				<g>
					
						<linearGradient id="SVGID_00000159452169198558481260000004381196350851636880_" gradientUnits="userSpaceOnUse" x1="256.9793" y1="244.3176" x2="260.4387" y2="267.2754" gradientTransform="matrix(1 0 0 -1 0 501.8898)">
						<stop  offset="0" style="stop-color:#FEBBBA"/>
						<stop  offset="1" style="stop-color:#FF928E"/>
					</linearGradient>
					<path style="fill:url(#SVGID_00000159452169198558481260000004381196350851636880_);" d="M258,247.7c0.2,0.5-1.7,1.3-2.8-0.8
						c0-1-0.6-5.3,0-6.1c3.2-4.3,9.5-9.7,9.5-9.7c1,1,0.2,2,0.2,2l-3,3.1c0.6,1.1,1.4,2.1,1.7,3.5c0.3,1,0.1,2.1-0.4,3.1
						c-0.5,0.9-1.3,2.2-2,3.1C259.8,247.7,258,247.7,258,247.7z"/>
					
						<linearGradient id="SVGID_00000064352929564118070220000016463830351841745585_" gradientUnits="userSpaceOnUse" x1="5251.2471" y1="260.6853" x2="5259.709" y2="273.6954" gradientTransform="matrix(1 9.500000e-03 9.500000e-03 -1 -4995.5767 454.1044)">
						<stop  offset="0" style="stop-color:#FEBBBA"/>
						<stop  offset="1" style="stop-color:#FF928E"/>
					</linearGradient>
					<path style="fill:url(#SVGID_00000064352929564118070220000016463830351841745585_);" d="M260.4,238.2l-2.8,2.3l-0.9,2.3
						l2.4,2.7c0,0,0.9-4.6,1.5-5.5C261.3,239,261,238.5,260.4,238.2z"/>
				</g>
				<path class="st1" d="M184.9,288.8l-5.8-15.2c0,0-14.7,9.8-17.2,22.3c2.8,0.2,7.8,1,12.7,3.5
					C175.6,293.5,184.9,288.8,184.9,288.8z"/>
				
					<linearGradient id="SVGID_00000074418919283458328610000013099613627832097963_" gradientUnits="userSpaceOnUse" x1="5155.1152" y1="197.4232" x2="5193.3657" y2="197.4232" gradientTransform="matrix(1 9.500000e-03 9.500000e-03 -1 -4995.5767 454.1044)">
					<stop  offset="0" style="stop-color:#FEBBBA"/>
					<stop  offset="1" style="stop-color:#FF928E"/>
				</linearGradient>
				<path style="fill:url(#SVGID_00000074418919283458328610000013099613627832097963_);" d="M197.5,303.1c0,0-16.5,9.1-21.9,1.1
					c-1.1-1.7-1.4-3.3-1.1-4.8c-4.9-2.5-9.9-3.3-12.7-3.5c-0.8,3.8-0.4,7.8,1.8,11.9c9.5,17.8,36-0.6,36-0.6L197.5,303.1z"/>
				
					<linearGradient id="SVGID_00000055700317568690143020000018441000935572528059_" gradientUnits="userSpaceOnUse" x1="5184.4834" y1="238.2661" x2="5199.605" y2="238.2661" gradientTransform="matrix(1 9.500000e-03 9.500000e-03 -1 -4995.5767 454.1044)">
					<stop  offset="0" style="stop-color:#FEBBBA"/>
					<stop  offset="1" style="stop-color:#FF928E"/>
				</linearGradient>
				<path style="fill:url(#SVGID_00000055700317568690143020000018441000935572528059_);" d="M196.2,257l-5.1,14.3
					c-0.1,0.2,0,0.5,0.2,0.6c1.3,0.8,6.2,3,12.1-0.7c0.6-0.4,1-1,1.1-1.7l1.7-12.4L196.2,257z"/>
				<g>
					
						<linearGradient id="SVGID_00000066504278349632294050000008735603653717018544_" gradientUnits="userSpaceOnUse" x1="-2247.6084" y1="-987.7856" x2="-2253.2593" y2="-969.1484" gradientTransform="matrix(0.7523 -0.6588 -0.6588 -0.7523 1250.0612 -1968.1383)">
						<stop  offset="0" style="stop-color:#FEBBBA"/>
						<stop  offset="1" style="stop-color:#FF928E"/>
					</linearGradient>
					<path style="fill:url(#SVGID_00000066504278349632294050000008735603653717018544_);" d="M207.2,243.8c0,0,5.4,10.3,4.6,14.5
						c-0.7,4.1-7.5,3.8-13.4,0.4l-4-11.1L207.2,243.8z"/>
					
						<linearGradient id="SVGID_00000053536442844110534490000002790286872588041865_" gradientUnits="userSpaceOnUse" x1="-2252.6213" y1="-955.2885" x2="-2247.8948" y2="-982.2482" gradientTransform="matrix(0.7523 -0.6588 -0.6588 -0.7523 1250.0612 -1968.1383)">
						<stop  offset="0" style="stop-color:#09005D"/>
						<stop  offset="1" style="stop-color:#1A0F91"/>
					</linearGradient>
					<path style="fill:url(#SVGID_00000053536442844110534490000002790286872588041865_);" d="M198.8,253.1c0.2-0.1,0.3-0.4,0.2-0.6
						c-0.4-0.7-1.2-2-1.5-3.2c0,0-1-0.6,2.5-1.4c3.5-0.8,8.7-2,9.8-5c1.1-2.9-1.6-10.2-6.1-4.4c-0.2,0.2-0.5,0.2-0.7,0
						c-0.7-1-2.6-3-5.3-1.8c-2.5,1.1-2.8,2.9-2.8,3.8c0,0.3-0.2,0.5-0.5,0.4c-1.3-0.3-4.3-0.5-5.7,2.6c-1.2,2.5-0.4,4,0.2,4.7
						c0.2,0.2,0.1,0.6-0.2,0.7c-0.8,0.2-1.9,0.9-1.8,2.9c0.1,2.7,3.1,2.5,4,2.4c0.1,0,0.3,0,0.4,0.1c0.7,0.8,4,4.3,7.6,4.7
						c0.3,0,0.6-0.3,0.5-0.6l-1.5-4.5c-0.1-0.2,0-0.4,0.2-0.5L198.8,253.1z"/>
					
						<linearGradient id="SVGID_00000161611071853434126600000016490878065561357495_" gradientUnits="userSpaceOnUse" x1="-2253.2944" y1="-987.6713" x2="-2258.3784" y2="-970.903" gradientTransform="matrix(0.7523 -0.6588 -0.6588 -0.7523 1250.0612 -1968.1383)">
						<stop  offset="0" style="stop-color:#FEBBBA"/>
						<stop  offset="1" style="stop-color:#FF928E"/>
					</linearGradient>
					<path style="fill:url(#SVGID_00000161611071853434126600000016490878065561357495_);" d="M199.4,253.8c0,0-3.9-2.7-4.2-0.5
						s3.5,3.3,5.4,2.5L199.4,253.8z"/>
				</g>
				<g>
					<g>
						
							<linearGradient id="SVGID_00000075155170992371294860000001501309259863908795_" gradientUnits="userSpaceOnUse" x1="4915.6279" y1="220.524" x2="4936.7314" y2="132.5919" gradientTransform="matrix(1 0 0 -1 -4705.6621 501.8898)">
							<stop  offset="0" style="stop-color:#09005D"/>
							<stop  offset="1" style="stop-color:#1A0F91"/>
						</linearGradient>
						<path style="fill:url(#SVGID_00000075155170992371294860000001501309259863908795_);" d="M194.2,317.5l9-31.3
							c0.1-0.4,0.4-0.6,0.8-0.7c1.6-0.2,6.3-0.7,11.8-1.2c6.6-0.6,14.2-1,18.7-0.6c0.6,0.1,1,0.7,0.7,1.3
							c-2.6,5.2-13.2,26.5-18.5,33.5c-0.2,0.2-0.4,0.4-0.7,0.4l-20.8-0.2C194.4,318.7,194,318.1,194.2,317.5z"/>
						
							<linearGradient id="SVGID_00000147905650993055046440000003042445734418221711_" gradientUnits="userSpaceOnUse" x1="4901.104" y1="197.2091" x2="4913.062" y2="197.2091" gradientTransform="matrix(1 0 0 -1 -4705.6621 501.8898)">
							<stop  offset="0" style="stop-color:#FEBBBA"/>
							<stop  offset="1" style="stop-color:#FF928E"/>
						</linearGradient>
						<path style="fill:url(#SVGID_00000147905650993055046440000003042445734418221711_);" d="M196.3,310c0,0-1.3-5.1-0.7-7
							c0.5-1.8,1.5-4.2,4.7-3.6c3.3,0.5,7.1,1.9,7.1,1.9s-0.2,2.4-2.7,1.6l1.5,1.2c0,0-0.2,1.9-2.3,0.9l1.4,1.6c0,0-0.9,1.6-2.4,0.6
							C201.4,306.1,200.7,310.6,196.3,310z"/>
					</g>
					<path class="st32" d="M215.1,293.7c0,1.5,1.2,2.6,2.6,2.6c1.5,0,2.6-1.2,2.6-2.6c0-1.5-1.2-2.6-2.6-2.6
						S215.1,292.2,215.1,293.7z"/>
					
						<linearGradient id="SVGID_00000013902266670494941440000008783681912515153282_" gradientUnits="userSpaceOnUse" x1="203.4693" y1="211.4398" x2="229.1262" y2="211.4398" gradientTransform="matrix(1 0 0 -1 0 501.8898)">
						<stop  offset="0" style="stop-color:#DAE3FE"/>
						<stop  offset="1" style="stop-color:#E9EFFD"/>
					</linearGradient>
					<path style="fill:url(#SVGID_00000013902266670494941440000008783681912515153282_);" d="M204.1,295.4l-0.7-0.2l1.8-6.2
						c0.3-1,1.1-1.8,2.1-2c5.8-1.2,21-1.5,21.7-1.5v0.7c-0.2,0-15.8,0.3-21.6,1.5c-0.8,0.2-1.4,0.7-1.6,1.5L204.1,295.4z"/>
				</g>
			</g>
			<g>
				<path class="st2" d="M97.9,383.2c-1,1.4-4.8,33.5-5.4,45.3c0,0.8,0.6,1.5,1.4,1.5l0,0c0.7,0,1.3-0.5,1.4-1.2l7-44.6L97.9,383.2z
					"/>
				<path class="st2" d="M128.5,383.2c1,1.4,4.8,33.5,5.4,45.3c0,0.8-0.6,1.5-1.4,1.5l0,0c-0.7,0-1.3-0.5-1.4-1.2l-7-44.6
					L128.5,383.2z"/>
				<path class="st2" d="M92.2,380.6v0.3c0,2.5,2.1,4.6,4.9,4.6l32.1,0.5c2.7,0,4.9-1.9,5-4.4v-0.3c0.1-2.6-2.1-4.8-4.8-4.8
					l-32.2-0.6C94.5,376.1,92.2,378.1,92.2,380.6z"/>
			</g>
			<g>
				<g>
					<path class="st2" d="M159.9,427.3c-5.7,0-8.2-0.5-9.4-0.9c0.2,0.9,1.1,1.7,2.1,1.7h20.2c0.7,0,1.1-0.7,0.9-1.2
						C171.5,427,166.6,427.3,159.9,427.3z"/>
					
						<linearGradient id="SVGID_00000010270168545340637440000006294349560634388126_" gradientUnits="userSpaceOnUse" x1="168.5071" y1="119.513" x2="162.1383" y2="75.5101" gradientTransform="matrix(1 0 0 -1 0 501.8898)">
						<stop  offset="0" style="stop-color:#4F52FF"/>
						<stop  offset="1" style="stop-color:#223F97"/>
					</linearGradient>
					<path style="fill:url(#SVGID_00000010270168545340637440000006294349560634388126_);" d="M173.8,426.8c0-0.1-0.1-0.2-0.2-0.3
						c-1.5-2-4.6-5.1-8.8-5c-6.2,0.1-8.3,0.8-13.1,0l-1.1,3.7c-0.1,0.4-0.1,0.8,0,1.1c1.1,0.4,3.7,0.9,9.4,0.9
						C166.6,427.3,171.5,427,173.8,426.8z"/>
				</g>
				
					<linearGradient id="SVGID_00000008135353647683541850000003976619455870861750_" gradientUnits="userSpaceOnUse" x1="151.6815" y1="81.679" x2="157.9884" y2="81.679" gradientTransform="matrix(1 0 0 -1 0 501.8898)">
					<stop  offset="0" style="stop-color:#FEBBBA"/>
					<stop  offset="1" style="stop-color:#FF928E"/>
				</linearGradient>
				<path style="fill:url(#SVGID_00000008135353647683541850000003976619455870861750_);" d="M153.1,417.5l-1.4,4.7
					c0,0,3.1,1.4,5.8,0.3l0.5-4.1L153.1,417.5z"/>
				<g>
					<path class="st2" d="M195,424.3c-4.5,3.6-6.7,4.8-7.9,5.1c0.8,0.6,1.9,0.6,2.7,0l15.8-12.7c0.5-0.4,0.5-1.2,0-1.6
						C203.8,416.8,200.2,420.1,195,424.3z"/>
					
						<linearGradient id="SVGID_00000129913618440079426480000014103936474013005703_" gradientUnits="userSpaceOnUse" x1="200.0421" y1="114.9491" x2="193.6732" y2="70.9458" gradientTransform="matrix(1 0 0 -1 0 501.8898)">
						<stop  offset="0" style="stop-color:#4F52FF"/>
						<stop  offset="1" style="stop-color:#223F97"/>
					</linearGradient>
					<path style="fill:url(#SVGID_00000129913618440079426480000014103936474013005703_);" d="M205.5,415.2
						c-0.1-0.1-0.2-0.1-0.3-0.2c-2.4-0.6-6.8-1-10,1.7c-4.8,3.9-6,5.8-10.2,8.2l1.5,3.6c0.1,0.4,0.4,0.7,0.7,0.9
						c1.2-0.4,3.4-1.6,7.9-5.1C200.2,420.1,203.8,416.8,205.5,415.2z"/>
				</g>
				
					<linearGradient id="SVGID_00000054223460935744528440000010723759036319563422_" gradientUnits="userSpaceOnUse" x1="223.5526" y1="171.3176" x2="152.796" y2="118.9579" gradientTransform="matrix(1 0 0 -1 0 501.8898)">
					<stop  offset="0" style="stop-color:#09005D"/>
					<stop  offset="1" style="stop-color:#1A0F91"/>
				</linearGradient>
				<path style="fill:url(#SVGID_00000054223460935744528440000010723759036319563422_);" d="M123.4,363.7c0,0,34.2,2.8,41.2,6.1
					c7,3.3-5.7,49.6-5.7,49.6s-1.9,0.9-6.2-0.4c0,0,4.4-34.2,1.1-41.6l-37-6.1L123.4,363.7z"/>
				
					<linearGradient id="SVGID_00000153679920769030002390000007653445911268793515_" gradientUnits="userSpaceOnUse" x1="181.5542" y1="81.1398" x2="189.0838" y2="81.1398" gradientTransform="matrix(1 0 0 -1 0 501.8898)">
					<stop  offset="0" style="stop-color:#FEBBBA"/>
					<stop  offset="1" style="stop-color:#FF928E"/>
				</linearGradient>
				<path style="fill:url(#SVGID_00000153679920769030002390000007653445911268793515_);" d="M181.6,418.5c0.3,0.3,3.4,6.5,3.4,6.5
					s3.4-0.7,4.1-2.9l-3.1-5.6L181.6,418.5z"/>
				
					<linearGradient id="SVGID_00000119107326149425533140000015030758537129434757_" gradientUnits="userSpaceOnUse" x1="153.392" y1="117.2482" x2="243.0214" y2="179.0452" gradientTransform="matrix(1 0 0 -1 0 501.8898)">
					<stop  offset="0" style="stop-color:#09005D"/>
					<stop  offset="1" style="stop-color:#1A0F91"/>
				</linearGradient>
				<path style="fill:url(#SVGID_00000119107326149425533140000015030758537129434757_);" d="M102.8,363.4c0,0-1.1,2.7-1.1,6.2
					c0.1,4.9,4,8.9,9,9.2l40.4,1.8c0.9,0,1.6,0.6,1.8,1.5c1,3.7,5.6,15,28.3,37.5c0.6,0.6,1.5,0.7,2.3,0.2l3.2-2
					c0.3-0.2,0.4-0.7,0.2-1l-23.5-40.2c-1.2-2-3.2-3.5-5.5-4.1l-34.5-8.8L102.8,363.4z"/>
				
					<linearGradient id="SVGID_00000041281507880404783650000012649914777562090129_" gradientUnits="userSpaceOnUse" x1="139.6606" y1="187.3209" x2="143.3728" y2="196.6821" gradientTransform="matrix(1 0 0 -1 0 501.8898)">
					<stop  offset="0" style="stop-color:#FEBBBA"/>
					<stop  offset="1" style="stop-color:#FF928E"/>
				</linearGradient>
				<path style="fill:url(#SVGID_00000041281507880404783650000012649914777562090129_);" d="M142.6,300.6c0,0-4.3,7.7-8.8,11.4
					l9.1,5.1c0,0,2.1-8.1,6.8-10.5L142.6,300.6z"/>
				<path class="st1" d="M102.1,363.7c0,0,10.9,2.7,21.3,0c0,0,14.6-19.6,20.2-24.9c0,0,9,14.2,29,16.2l1.1-2.5
					c0,0-15.9-7.4-20.9-18.6c-4.9-11.3-6.9-16.1-11.3-19.1c-2.8-1.8-4.4-3.1-5.3-3.8c-0.5-0.4-1.1-0.4-1.6-0.1
					C129.9,313.8,107.6,329.1,102.1,363.7z"/>
				
					<linearGradient id="SVGID_00000089558314356686885640000010105959862143581612_" gradientUnits="userSpaceOnUse" x1="142.9465" y1="256.709" x2="139.4087" y2="141.3762" gradientTransform="matrix(1 0 0 -1 0 501.8898)">
					<stop  offset="0" style="stop-color:#223F97"/>
					<stop  offset="1" style="stop-color:#533BE9"/>
				</linearGradient>
				<path style="fill:url(#SVGID_00000089558314356686885640000010105959862143581612_);" d="M143,338.5c-0.2,0-0.4-0.1-0.6-0.3
					c-3.5-4.5-5.4-9.5-5.5-9.7c-0.1-0.4,0-0.8,0.4-0.9s0.8,0,0.9,0.4c0,0,1.9,5,5.3,9.4c0.2,0.3,0.2,0.7-0.1,1
					C143.3,338.4,143.2,338.5,143,338.5z"/>
				
					<linearGradient id="SVGID_00000036250610886592092450000008640303037047062192_" gradientUnits="userSpaceOnUse" x1="171.4445" y1="150.8791" x2="188.8445" y2="150.8791" gradientTransform="matrix(1 0 0 -1 0 501.8898)">
					<stop  offset="0" style="stop-color:#FEBBBA"/>
					<stop  offset="1" style="stop-color:#FF928E"/>
				</linearGradient>
				<path style="fill:url(#SVGID_00000036250610886592092450000008640303037047062192_);" d="M171.4,351.2l2.3-0.6l6.8-1.6
					c0.8-0.2,1.7,0,2.4,0.4l5.9,3.7h-16.3L171.4,351.2z"/>
				<g>
					
						<linearGradient id="SVGID_00000115484857654706006620000018043169803206260355_" gradientUnits="userSpaceOnUse" x1="2037.524" y1="-359.4877" x2="2018.8856" y2="-373.7491" gradientTransform="matrix(0.9914 -0.1306 -0.1306 -0.9914 -1915.9052 205.2447)">
						<stop  offset="0" style="stop-color:#FEBBBA"/>
						<stop  offset="1" style="stop-color:#FF928E"/>
					</linearGradient>
					<path style="fill:url(#SVGID_00000115484857654706006620000018043169803206260355_);" d="M149.5,289.1c0,0,4.2,7,4.9,10.9
						s1.9,6.3-2.5,7.7c-4.4,1.4-8.5-0.4-11.1-4c0,0-4-5.6-3.6-8.1C137.7,293,149.5,289.1,149.5,289.1z"/>
					
						<linearGradient id="SVGID_00000132787565533228289480000017605873437687931576_" gradientUnits="userSpaceOnUse" x1="2024.4852" y1="-348.2197" x2="2041.363" y2="-369.9496" gradientTransform="matrix(0.9914 -0.1306 -0.1306 -0.9914 -1915.9052 205.2447)">
						<stop  offset="0" style="stop-color:#09005D"/>
						<stop  offset="1" style="stop-color:#1A0F91"/>
					</linearGradient>
					<path style="fill:url(#SVGID_00000132787565533228289480000017605873437687931576_);" d="M142.1,300.7l0.6-0.1c0,0-3-4.5-1-5.6
						s9.9-3.9,11.3-7c1.3-3-0.7-6.4-3.1-7.1c-0.2,0-0.3,0-0.4,0.2l-0.1,0.4c-0.1,0.3-0.5,0.3-0.6,0l0,0c-0.1-0.2-0.5-0.3-0.6,0
						c-0.4,0.9-1.7,2.5-5.5,3.8c-5.4,1.8-8.8,4.5-8.4,8.3c0,0.2-0.2,0.4-0.4,0.3c-0.4-0.2-1.1-0.2-1.9,0.6c-1.4,1.5-0.3,4.7,3.4,7
						c0.2,0.1,0.2,0.4,0.1,0.5c-0.6,0.5-1.3,1.5,1.2,2.5c2.6,1,4,0.6,4.5,0.4c0.1-0.1,0.2-0.2,0.2-0.3l-0.7-3.4
						c0-0.2,0.1-0.3,0.3-0.4L142.1,300.7z"/>
					
						<linearGradient id="SVGID_00000009579981173222291260000001994400335180217986_" gradientUnits="userSpaceOnUse" x1="2035.2155" y1="-356.4709" x2="2016.5771" y2="-370.7321" gradientTransform="matrix(0.9914 -0.1306 -0.1306 -0.9914 -1915.9052 205.2447)">
						<stop  offset="0" style="stop-color:#FEBBBA"/>
						<stop  offset="1" style="stop-color:#FF928E"/>
					</linearGradient>
					<path style="fill:url(#SVGID_00000009579981173222291260000001994400335180217986_);" d="M142.3,301.4c0,0-1.9-4.6-3.8-3
						c-2,1.6,1.8,5.2,3.5,5.1L142.3,301.4z"/>
				</g>
			</g>
			<g>
				<g>
					
						<linearGradient id="SVGID_00000040576360948846147280000003602961788457863343_" gradientUnits="userSpaceOnUse" x1="-3608.2212" y1="3299.0549" x2="-3654.7361" y2="3254.0842" gradientTransform="matrix(-1.388 -6.860000e-02 6.850000e-02 -1.3855 -8789.8887 695.528)">
						<stop  offset="0" style="stop-color:#09005D"/>
						<stop  offset="1" style="stop-color:#1A0F91"/>
					</linearGradient>
					<path style="fill:url(#SVGID_00000040576360948846147280000003602961788457863343_);" d="M165.2,356.3L165.2,356.3H200
						c0.9,0,1.6-0.7,1.6-1.6s-0.7-1.6-1.6-1.5h-34.7c-0.9,0-1.6,0.7-1.6,1.6C163.7,355.6,164.3,356.2,165.2,356.3z"/>
				</g>
				<g>
					
						<linearGradient id="SVGID_00000124137851333372945540000011750402679308020900_" gradientUnits="userSpaceOnUse" x1="-5972.4902" y1="3145.623" x2="-6019.0029" y2="3100.6543" gradientTransform="matrix(0.6475 -1.2297 1.2274 0.6463 5399.7759 -10748.7812)">
						<stop  offset="0" style="stop-color:#09005D"/>
						<stop  offset="1" style="stop-color:#1A0F91"/>
					</linearGradient>
					<path style="fill:url(#SVGID_00000124137851333372945540000011750402679308020900_);" d="M213.4,322.3L213.4,322.3l-14.6,31.6
						c-0.4,0.8,0,1.7,0.8,2.1s1.7,0,2.1-0.8l14.6-31.5c0.4-0.8,0-1.7-0.8-2.1S213.8,321.6,213.4,322.3z"/>
				</g>
			</g>
			<g>
				<g>
					<rect x="300.7" y="387.9" class="st2" width="3.7" height="39.6"/>
					<path class="st2" d="M318.6,428.3h-32.1l0,0c0-1.3,1.1-2.4,2.4-2.4h27.3C317.5,426,318.6,427,318.6,428.3L318.6,428.3z"/>
					<path class="st2" d="M323.3,386.6c0,2.2-1.8,3.9-3.9,3.9h-32.5c-2.2,0-3.9-1.8-3.9-3.9V383c0-2.2,1.8-3.9,3.9-3.9h32.5
						c2.2,0,3.9,1.8,3.9,3.9V386.6z"/>
				</g>
				<g>
					
						<linearGradient id="SVGID_00000078022514253542102100000016129897415890588835_" gradientUnits="userSpaceOnUse" x1="262.5204" y1="107.8898" x2="288.5639" y2="107.8898" gradientTransform="matrix(1 0 0 -1 0 501.8898)">
						<stop  offset="0" style="stop-color:#FEBBBA"/>
						<stop  offset="1" style="stop-color:#FF928E"/>
					</linearGradient>
					<path style="fill:url(#SVGID_00000078022514253542102100000016129897415890588835_);" d="M275.5,361.5c0,0-5.4,0.8-11.6,4.9
						c-1,0.6-1.5,1.8-1.3,2.9c0.7,5.8,3.7,24.6,13.7,43c0.5,1,0.7,2.1,0.4,3.2l-1.7,8l-3.2,3h8.2l5.5-14.9l-2.3-0.7
						c-1.8-0.6-3.1-2.3-3.1-4.2l-0.3-15.9c0.2-7.1-4.4-12-4.4-12l13.2-0.6L275.5,361.5z"/>
					
						<linearGradient id="SVGID_00000103244137089682450180000008581193582021326729_" gradientUnits="userSpaceOnUse" x1="278.4666" y1="90.8745" x2="274.6336" y2="32.1013" gradientTransform="matrix(1 0 0 -1 0 501.8898)">
						<stop  offset="0" style="stop-color:#4F52FF"/>
						<stop  offset="1" style="stop-color:#223F97"/>
					</linearGradient>
					<path style="fill:url(#SVGID_00000103244137089682450180000008581193582021326729_);" d="M268.5,428c-0.8,1,8.1,2.3,12.6,0.1
						c0,0,6.2-10.8,6.2-16.3c0,0-0.5-1.1-4.1-0.9c0,0-2.1,12.8-4.3,14.2c-2.2,1.4-6.1,0.1-6.1,0.1S269.6,426.6,268.5,428z"/>
					
						<linearGradient id="SVGID_00000140732845712900817240000007222180311304303268_" gradientUnits="userSpaceOnUse" x1="231.9" y1="106.0457" x2="286.9" y2="106.0457" gradientTransform="matrix(1 0 0 -1 0 501.8898)">
						<stop  offset="0" style="stop-color:#FEBBBA"/>
						<stop  offset="1" style="stop-color:#FF928E"/>
					</linearGradient>
					<path style="fill:url(#SVGID_00000140732845712900817240000007222180311304303268_);" d="M286.9,379.1
						c-0.1-0.1-14.2-1.7-14.2-1.7s0.5,4.3-1,10.2c-1.4,5.9-22.2,31.5-22.2,31.5l2.2,6.9c-6.7,2.3-13.3,2.7-19.8,1.2l13.5-8.1
						c0,0,12.6-42.9,20.3-50.6l14.1-4.9L286.9,379.1z"/>
					
						<linearGradient id="SVGID_00000114045974588675689800000000743874339995552414_" gradientUnits="userSpaceOnUse" x1="265.9" y1="134.7398" x2="327.5002" y2="134.7398" gradientTransform="matrix(1 0 0 -1 0 501.8898)">
						<stop  offset="0" style="stop-color:#09005D"/>
						<stop  offset="1" style="stop-color:#1A0F91"/>
					</linearGradient>
					<path style="fill:url(#SVGID_00000114045974588675689800000000743874339995552414_);" d="M318.6,354.1c0,0,8.1,12.1,8.8,17.6
						c0.7,5.5-2.2,7.8-10.8,8.1c-8.5,0.4-31.3,0.4-31.3,0.4l-19.4-16.6c0,0,14.2-5.1,17.9-6.5C287.4,355.7,318.6,354.1,318.6,354.1z
						"/>
					
						<linearGradient id="SVGID_00000099663948934416848330000017234995552378656429_" gradientUnits="userSpaceOnUse" x1="241.4495" y1="93.2886" x2="237.6164" y2="34.5155" gradientTransform="matrix(1 0 0 -1 0 501.8898)">
						<stop  offset="0" style="stop-color:#4F52FF"/>
						<stop  offset="1" style="stop-color:#223F97"/>
					</linearGradient>
					<path style="fill:url(#SVGID_00000099663948934416848330000017234995552378656429_);" d="M250.9,423.6c0,0,2.3,2.3,0.8,4.8
						c0,0-18.5,3.3-23.6,1.8c0,0,1-2.4,6.7-5.1l-0.4,0.3c-0.5,0.4-0.2,1.3,0.4,1.2C238.6,426.4,246.3,425.8,250.9,423.6z"/>
				</g>
				<g>
					
						<linearGradient id="SVGID_00000173134613831020605510000007424518466549680515_" gradientUnits="userSpaceOnUse" x1="309.2205" y1="237.6659" x2="300.1489" y2="190.0083" gradientTransform="matrix(1 0 0 -1 0 501.8898)">
						<stop  offset="0" style="stop-color:#09005D"/>
						<stop  offset="1" style="stop-color:#1A0F91"/>
					</linearGradient>
					<path style="fill:url(#SVGID_00000173134613831020605510000007424518466549680515_);" d="M283.3,277.4
						c16.6-2.8,24.5,10.7,23.9,13.6c-0.1,0.4,0.3,0.7,0.7,0.6c1.9-0.5,6.1-1.2,8.7,2.1c2.3,2.9,0.6,5.6-0.8,7.1
						c-0.3,0.4-0.1,0.9,0.4,0.9c3.5-0.4,11.1-0.5,12.4,6.6c1.2,6.7-3.5,8.5-6.2,9.1c-0.5,0.1-0.6,0.7-0.2,1c1.4,0.9,3,2.7,2.3,6.2
						c-1,5.6-11.9,5.1-13.2,5c-0.1,0-0.2,0-0.2-0.1l-17.5-10c-0.1-0.1-0.2-0.2-0.3-0.4l-3.5-20.4c0-0.2,0-0.3,0.1-0.5l-11.4-16.1
						C274.5,281.6,283.1,277.4,283.3,277.4z"/>
					<path class="st1" d="M296.6,352.5c0,0-9.5-9-14.1-15c-2.5-3.2-3.3-7.5-2.1-11.4c2.1-7.2,5.9-14.6,6.3-15.8
						c0.5-1.8,11.1-1.7,11.1-1.7s20.9,13.6,29.1,36.5l-9.2,2.9c0,0-5.5-9.2-10.8-15c0,0,9.3,12.3,9.7,17.4L296.6,352.5z"/>
					
						<linearGradient id="SVGID_00000016785995414647384710000001875509736199275667_" gradientUnits="userSpaceOnUse" x1="294.258" y1="178.0384" x2="290.5459" y2="201.8578" gradientTransform="matrix(1 0 0 -1 0 501.8898)">
						<stop  offset="0" style="stop-color:#FEBBBA"/>
						<stop  offset="1" style="stop-color:#FF928E"/>
					</linearGradient>
					<path style="fill:url(#SVGID_00000016785995414647384710000001875509736199275667_);" d="M285.3,300.4c0.1,0.4,2.9,9.6,3.1,9.7
						c0.2,0.2,6.1,0.5,8.8-1.4l-6.8-13.4L285.3,300.4z"/>
					<g>
						
							<linearGradient id="SVGID_00000027594381602029487230000012388481785361472689_" gradientUnits="userSpaceOnUse" x1="-2056.3503" y1="-3556.3958" x2="-2032.0527" y2="-3572.8997" gradientTransform="matrix(0.6042 -0.7968 -0.7968 -0.6042 -1317.2432 -3488.6938)">
							<stop  offset="0" style="stop-color:#FEBBBA"/>
							<stop  offset="1" style="stop-color:#FF928E"/>
						</linearGradient>
						<path style="fill:url(#SVGID_00000027594381602029487230000012388481785361472689_);" d="M274.2,288.6c0,0-1.3,5.3,2.4,12.3
							c3.7,7.1,7.9,7.1,10.2,4.8c2.3-2.3,5.1-6.1,4.4-13S276.1,281.9,274.2,288.6z"/>
						
							<linearGradient id="SVGID_00000171685257877304345310000006844061663705796270_" gradientUnits="userSpaceOnUse" x1="-2040.2185" y1="-3536.6655" x2="-2049.29" y2="-3584.3235" gradientTransform="matrix(0.6042 -0.7968 -0.7968 -0.6042 -1317.2432 -3488.6938)">
							<stop  offset="0" style="stop-color:#09005D"/>
							<stop  offset="1" style="stop-color:#1A0F91"/>
						</linearGradient>
						<path style="fill:url(#SVGID_00000171685257877304345310000006844061663705796270_);" d="M286,293.2c0,0-6.1-9.4-11.9-2
							l-0.1,2.7c0,0-6.8-0.8-5.6-7c1.2-6.2,7-10.1,14.5-7.4s11.8,5.4,12.3,10.8s-3.8,4.2-3.8,4.2s-1.4-3.8-3.4-4.2s-1.5,2.6-1.5,2.6
							L286,293.2z"/>
						
							<linearGradient id="SVGID_00000072992884827415928370000002580068695290989979_" gradientUnits="userSpaceOnUse" x1="-2054.9502" y1="-3554.3345" x2="-2030.6527" y2="-3570.8381" gradientTransform="matrix(0.6042 -0.7968 -0.7968 -0.6042 -1317.2432 -3488.6938)">
							<stop  offset="0" style="stop-color:#FEBBBA"/>
							<stop  offset="1" style="stop-color:#FF928E"/>
						</linearGradient>
						<path style="fill:url(#SVGID_00000072992884827415928370000002580068695290989979_);" d="M287.6,293.1c0,0-3.2-4.8,0.1-5.5
							c3.3-0.7,2.8,4.7,2.4,6.7L287.6,293.1z"/>
					</g>
					
						<linearGradient id="SVGID_00000096060931016928163720000009482436240253980038_" gradientUnits="userSpaceOnUse" x1="309.4803" y1="151.0802" x2="361.1728" y2="151.0802" gradientTransform="matrix(1 0 0 -1 0 501.8898)">
						<stop  offset="0" style="stop-color:#FEBBBA"/>
						<stop  offset="1" style="stop-color:#FF928E"/>
					</linearGradient>
					<path style="fill:url(#SVGID_00000096060931016928163720000009482436240253980038_);" d="M277.3,353.1l7-6.7l9.6,4.1
						c0,0,9.6,1.5,15.1,0s5.5-1.5,5.5-1.5l12.4-3.9l1.9,5.5c0.5,1.4,0,2.9-1.2,3.8c-1.1,0.8-2.3,1.6-3.1,1.9
						c-1.6,0.7-40.2-0.5-40.2-0.5L277.3,353.1z"/>
				</g>
				<g>
					
						<linearGradient id="SVGID_00000117662364431682818230000011211772149833872535_" gradientUnits="userSpaceOnUse" x1="242.0032" y1="4.9884" x2="209.4838" y2="-3.9243" gradientTransform="matrix(0.9988 -4.940000e-02 -4.940000e-02 -0.9988 69.0029 362.5413)">
						<stop  offset="0" style="stop-color:#09005D"/>
						<stop  offset="1" style="stop-color:#1A0F91"/>
					</linearGradient>
					<path style="fill:url(#SVGID_00000117662364431682818230000011211772149833872535_);" d="M303.6,356.3L303.6,356.3h-40.5
						c-1,0-1.8-0.8-1.8-1.8s0.8-1.8,1.8-1.8h40.4c1,0,1.8,0.8,1.8,1.8S304.6,356.3,303.6,356.3z"/>
					
						<linearGradient id="SVGID_00000119833918011271230550000009864619022146275234_" gradientUnits="userSpaceOnUse" x1="266.4845" y1="177.2831" x2="243.4105" y2="152.8952" gradientTransform="matrix(1 0 0 -1 0 501.8898)">
						<stop  offset="0" style="stop-color:#09005D"/>
						<stop  offset="1" style="stop-color:#1A0F91"/>
					</linearGradient>
					<path style="fill:url(#SVGID_00000119833918011271230550000009864619022146275234_);" d="M226.9,319.7h33.6
						c2.5,0,4.7,1.4,5.8,3.7l15.5,33H240c-1.6,0-3-1-3.6-2.5l-12.1-30.5C223.7,321.6,225,319.7,226.9,319.7z"/>
					<path class="st3" d="M250.6,336.6c0.7,2.3,0.2,4.5-1.2,4.9s-3.1-1-3.8-3.3s-0.2-4.5,1.2-4.9
						C248.1,332.8,249.8,334.3,250.6,336.6z"/>
				</g>
			</g>
			<g>
				<g>
					
						<linearGradient id="SVGID_00000128450022132827052160000005321683919668841903_" gradientUnits="userSpaceOnUse" x1="-10360.9434" y1="35.9461" x2="-10360.6025" y2="-0.1697" gradientTransform="matrix(-1 0 0 -1 -10022.2793 501.8898)">
						<stop  offset="0" style="stop-color:#09005D"/>
						<stop  offset="1" style="stop-color:#1A0F91"/>
					</linearGradient>
					<path style="fill:url(#SVGID_00000128450022132827052160000005321683919668841903_);" d="M349.6,423.4c0,0,0.4,2.4,0.6,5.1
						c0.1,1.2-0.8,2.2-2,2.3c-4.1,0.4-13.5,1.1-19.5,0.3c-0.8-0.1-1.2-1.2-0.6-1.7c2.5-2.3,8.5-6.8,18.3-7.8L349.6,423.4z"/>
					
						<linearGradient id="SVGID_00000169539061568457820760000001298435532025759643_" gradientUnits="userSpaceOnUse" x1="-10369.6455" y1="76.2796" x2="-10371.5195" y2="90.9303" gradientTransform="matrix(-1 0 0 -1 -10022.2793 501.8898)">
						<stop  offset="0" style="stop-color:#FEBBBA"/>
						<stop  offset="1" style="stop-color:#FF928E"/>
					</linearGradient>
					<path style="fill:url(#SVGID_00000169539061568457820760000001298435532025759643_);" d="M351.7,418l-2.1,5.1
						c-0.3,0.7-1,1.1-1.8,1.1c-0.5-0.1-1.1-0.2-1.7-0.3c-1.2-0.4-1.8-1.6-1.5-2.8l1.6-5.3L351.7,418z"/>
					
						<linearGradient id="SVGID_00000111173248022332435470000011049469168140644767_" gradientUnits="userSpaceOnUse" x1="-10409.7578" y1="35.4857" x2="-10409.417" y2="-0.6298" gradientTransform="matrix(-1 0 0 -1 -10022.2793 501.8898)">
						<stop  offset="0" style="stop-color:#09005D"/>
						<stop  offset="1" style="stop-color:#1A0F91"/>
					</linearGradient>
					<path style="fill:url(#SVGID_00000111173248022332435470000011049469168140644767_);" d="M387.4,427.4c0,0-4.2,3.5-5.8,8
						c-0.4,1.2,0.5,2.5,1.8,2.5h8.6c1.3,0,2.2-1.1,2-2.4C393.5,432.5,391.9,427.4,387.4,427.4z"/>
					
						<linearGradient id="SVGID_00000029010159799502641570000003446423208172081799_" gradientUnits="userSpaceOnUse" x1="-10410.6445" y1="71.253" x2="-10412.4707" y2="85.5297" gradientTransform="matrix(-1 0 0 -1 -10022.2793 501.8898)">
						<stop  offset="0" style="stop-color:#FEBBBA"/>
						<stop  offset="1" style="stop-color:#FF928E"/>
					</linearGradient>
					<path style="fill:url(#SVGID_00000029010159799502641570000003446423208172081799_);" d="M392.6,422.9c0,0-0.8,3.7-1.5,6.2
						c-0.1,0.4-0.6,0.7-1,0.5c-1.3-0.5-2.4-0.7-3.1-0.6c-0.4,0-0.7-0.2-0.7-0.6l-0.1-6.2L392.6,422.9z"/>
					
						<linearGradient id="SVGID_00000071548458463774968320000011302175710148808370_" gradientUnits="userSpaceOnUse" x1="-10423.3896" y1="125.5398" x2="-10367.1797" y2="125.5398" gradientTransform="matrix(-1 0 0 -1 -10022.2793 501.8898)">
						<stop  offset="0" style="stop-color:#09005D"/>
						<stop  offset="1" style="stop-color:#1A0F91"/>
					</linearGradient>
					<path style="fill:url(#SVGID_00000071548458463774968320000011302175710148808370_);" d="M370.3,338.7l-25.4,77.6
						c0,0,4.9,3.2,7.2,3.1l30.2-62.4c0,0,5.3,38.4,2.7,66l8.7,0.7c0,0,14.1-70.5,3.4-94.7L370.3,338.7z"/>
					<path class="st32" d="M382.1,356.4C382.2,356.4,382.2,356.4,382.1,356.4c0.2,0,0.3-0.1,0.2-0.3l-1-7.8c0-0.1-0.1-0.2-0.3-0.2
						c-0.1,0-0.2,0.1-0.2,0.3l1,7.8C381.9,356.3,382,356.4,382.1,356.4z"/>
				</g>
				<path class="st1" d="M365.6,270.4c0,0,20.6,1.8,17.7,16.5c0,0,11.4,21.4,16.7,46.7c0.2,0.8-0.4,1.6-1.2,1.8l-34.3,5.9
					c-0.9,0.2-1.9-0.4-2.1-1.4l-8.2-31.7l-3.2,14.7l-10.2-2.6l8.5-43.3C349.3,277,350.5,270.7,365.6,270.4z"/>
				
					<linearGradient id="SVGID_00000129901811029746408400000003962801869630417315_" gradientUnits="userSpaceOnUse" x1="424.3458" y1="288.6785" x2="347.4532" y2="195.7469" gradientTransform="matrix(1 0 0 -1 0 501.8898)">
					<stop  offset="0" style="stop-color:#223F97"/>
					<stop  offset="1" style="stop-color:#533BE9"/>
				</linearGradient>
				<path style="fill:url(#SVGID_00000129901811029746408400000003962801869630417315_);" d="M354,306.8L354,306.8
					c0.2,0,0.3-0.2,0.2-0.3l-2.9-13.1c0-0.1-0.2-0.2-0.3-0.2c-0.1,0-0.2,0.2-0.2,0.3l2.9,13.1C353.7,306.7,353.9,306.8,354,306.8z"
					/>
				
					<linearGradient id="SVGID_00000140004705553895599810000014501477814982806667_" gradientUnits="userSpaceOnUse" x1="391.4495" y1="190.9868" x2="349.7032" y2="146.4102" gradientTransform="matrix(1 0 0 -1 0 501.8898)">
					<stop  offset="0" style="stop-color:#FEBBBA"/>
					<stop  offset="1" style="stop-color:#FF928E"/>
				</linearGradient>
				<path style="fill:url(#SVGID_00000140004705553895599810000014501477814982806667_);" d="M356,345.9c1.1-0.6,2.3-0.8,3.5-0.5
					l2.4,0.6c0.5,0.1,1-0.2,1.1-0.7l2.5-22c3.1,1.5,7.5,1.3,9,1.2l-5.7,25.9h-19.9L356,345.9z"/>
				
					<linearGradient id="SVGID_00000169557646555833352990000007324510467757180077_" gradientUnits="userSpaceOnUse" x1="-10373.2275" y1="197.0179" x2="-10325.4277" y2="197.0179" gradientTransform="matrix(-1 0 0 -1 -10022.2793 501.8898)">
					<stop  offset="0" style="stop-color:#FEBBBA"/>
					<stop  offset="1" style="stop-color:#FF928E"/>
				</linearGradient>
				<path style="fill:url(#SVGID_00000169557646555833352990000007324510467757180077_);" d="M303.2,298.2l0.6-2
					c0.3-1.2,1.2-2.1,2.3-2.5l10.9-4.4c0,0,0.2-1.4-2.3-2.3s-1.9-3.7-1.9-3.7s3.4,1.5,8.3,4c2.8,1.4,4.4,3.9,5.2,5.7l24.7,30.1
					l-2.9,2c-3.8,2.6-9,1.3-11.2-2.8l-13.4-25.6C316.8,298.6,310,299,303.2,298.2z"/>
				<g>
					
						<linearGradient id="SVGID_00000155839023895820629590000004604427257337997758_" gradientUnits="userSpaceOnUse" x1="-10390.4521" y1="223.9316" x2="-10373.8184" y2="240.9974" gradientTransform="matrix(-1 0 0 -1 -10022.2793 501.8898)">
						<stop  offset="0" style="stop-color:#FEBBBA"/>
						<stop  offset="1" style="stop-color:#FF928E"/>
					</linearGradient>
					<path style="fill:url(#SVGID_00000155839023895820629590000004604427257337997758_);" d="M358.9,256.4l6.3,17.7
						c0,0-5.6,4.4-9.7,2.9l-3.2-10.2C352.3,266.9,354.8,254.5,358.9,256.4z"/>
					<g>
						
							<linearGradient id="SVGID_00000060743859104322962410000014974617359916249226_" gradientUnits="userSpaceOnUse" x1="-10366.332" y1="251.7487" x2="-10387.0703" y2="224.3139" gradientTransform="matrix(-1 0 0 -1 -10022.2793 501.8898)">
							<stop  offset="0" style="stop-color:#FEBBBA"/>
							<stop  offset="1" style="stop-color:#FF928E"/>
						</linearGradient>
						<path style="fill:url(#SVGID_00000060743859104322962410000014974617359916249226_);" d="M340,250c0,0.3,6.1,17.3,6.1,17.3
							l9.6-3.7l-3.4-17C352.3,246.6,340,245.5,340,250z"/>
						
							<linearGradient id="SVGID_00000013899039653869833450000017398362202587048364_" gradientUnits="userSpaceOnUse" x1="-10382.1318" y1="245.1742" x2="-10357.3594" y2="245.1742" gradientTransform="matrix(-1 0 0 -1 -10022.2793 501.8898)">
							<stop  offset="0" style="stop-color:#09005D"/>
							<stop  offset="1" style="stop-color:#1A0F91"/>
						</linearGradient>
						<path style="fill:url(#SVGID_00000013899039653869833450000017398362202587048364_);" d="M350.6,250.8l2.5,8.8
							c0,0.1,0,0.2,0,0.3c0,0.7-0.2,3.2-2.7,2.9c-2.3-0.3-4.4-0.5-5.7,0.1c-0.6,0.3-0.9,1-0.7,1.6c0.6,1.5,1.9,5,3.5,7.8
							c0.3,0.6,1,0.8,1.6,0.5c1.8-0.8,5.6-2.7,8.3-4.9c0.4-0.3,0.5-0.8,0.5-1.2c-0.4-2.3-1.7-9.1-1.7-11.1c-0.1-1.8,2-3.2,2.9-3.8
							c0.3-0.2,0.5-0.5,0.6-0.8c0.3-1.2,0.5-3.9-2.9-4.5c-0.7-0.1-1.2-0.8-1-1.5c0.3-1.4,0.2-3.5-2.5-4.3s-4.5,0.9-5.3,2.1
							c-0.4,0.5-1,0.7-1.6,0.4c-0.3-0.1-0.7-0.2-1.1,0.2c-0.6,0.5-1.4,0.3-1.8-0.3c-0.8-1.2-2.2-2.3-4.7-1.6
							c-4.4,1.4-4.1,6.4-2.6,9.2c1.6,2.7,6.2,0.9,8.4-0.9c1.7-1.4,4.2-0.6,5.3-0.1C350.3,250.1,350.5,250.4,350.6,250.8z"/>
						
							<linearGradient id="SVGID_00000080914305218688831450000005909211820722295213_" gradientUnits="userSpaceOnUse" x1="-10396.6748" y1="229.9967" x2="-10380.041" y2="247.0624" gradientTransform="matrix(-1 0 0 -1 -10022.2793 501.8898)">
							<stop  offset="0" style="stop-color:#FEBBBA"/>
							<stop  offset="1" style="stop-color:#FF928E"/>
						</linearGradient>
						<path style="fill:url(#SVGID_00000080914305218688831450000005909211820722295213_);" d="M357.1,258.9c0,0-2.6-4.9-0.9-6.4
							s4.6-1.3,4.5,2.5C360.6,259.7,357.1,258.9,357.1,258.9z"/>
					</g>
				</g>
				
					<linearGradient id="SVGID_00000070076529805819761420000018110453620538302861_" gradientUnits="userSpaceOnUse" x1="439.5373" y1="276.1084" x2="362.645" y2="183.177" gradientTransform="matrix(1 0 0 -1 0 501.8898)">
					<stop  offset="0" style="stop-color:#223F97"/>
					<stop  offset="1" style="stop-color:#533BE9"/>
				</linearGradient>
				<path style="fill:url(#SVGID_00000070076529805819761420000018110453620538302861_);" d="M372.5,324.8c1.4,0,2.4-0.1,2.5-0.1
					h0.2l7.5-35c0-0.1-0.1-0.3-0.2-0.3s-0.3,0.1-0.3,0.2l-7.4,34.6c-1.1,0.1-7.1,0.5-10.2-1.7l6.5-30.4l-1.4-2.6
					c-0.1-0.1-0.2-0.2-0.3-0.1c-0.1,0.1-0.2,0.2-0.1,0.3l1.3,2.4l-6.5,30.5l0.1,0.1C366.4,324.5,370.1,324.8,372.5,324.8z"/>
			</g>
			<g>
				<path class="st32" d="M147.5,431.5c-0.2,0-0.3,0-0.5-0.1c-0.7-0.3-1-1.2-0.7-1.9l27.4-69.6c0.3-0.7,1.1-1.1,1.7-0.7
					c0.7,0.3,1,1.2,0.7,1.9l-27.4,69.6C148.5,431.2,148,431.5,147.5,431.5z"/>
				<path class="st32" d="M178.4,431.5c-0.5,0-1-0.3-1.2-0.9L149.8,361c-0.3-0.7,0-1.6,0.7-1.9s1.4,0,1.7,0.7l27.4,69.6
					c0.3,0.7,0,1.6-0.7,1.9C178.8,431.5,178.6,431.5,178.4,431.5z"/>
				<path class="st32" d="M333.7,431.5c-0.2,0-0.3,0-0.5-0.1c-0.7-0.3-1-1.2-0.7-1.9l27.4-69.6c0.3-0.7,1.1-1.1,1.7-0.7
					c0.7,0.3,1,1.2,0.7,1.9l-27.4,69.6C334.7,431.2,334.2,431.5,333.7,431.5z"/>
				<path class="st32" d="M364.6,431.5c-0.5,0-1-0.3-1.2-0.9L336,361c-0.3-0.7,0-1.6,0.7-1.9s1.4,0,1.7,0.7l27.4,69.6
					c0.3,0.7,0,1.6-0.7,1.9C364.9,431.5,364.7,431.5,364.6,431.5z"/>
			</g>
			<g>
				<path class="st74" d="M329.7,355h39.7v-4.1h-39.7C330.5,350.9,330.5,355,329.7,355z"/>
				
					<linearGradient id="SVGID_00000174596338733662819020000003046716005336815239_" gradientUnits="userSpaceOnUse" x1="-9429.0605" y1="2445.0061" x2="-9463.7422" y2="2360.646" gradientTransform="matrix(-1 0 0 -1 -10022.2793 501.8898)">
					<stop  offset="0" style="stop-color:#4F52FF"/>
					<stop  offset="1" style="stop-color:#223F97"/>
				</linearGradient>
				<path style="fill:url(#SVGID_00000174596338733662819020000003046716005336815239_);" d="M368.9,355c0.3,0,0.5-0.2,0.5-0.5v-3.2
					c0-0.3-0.2-0.5-0.5-0.5h-40c-0.3,0-0.5-0.2-0.5-0.5s0.2-0.5,0.5-0.5h42.7c0.9,0,1.7,0.8,1.7,1.7v2.6c0,0.9-0.7,1.6-1.6,1.6
					h-42.8c-0.3,0-0.5-0.2-0.5-0.5s0.2-0.5,0.5-0.5h40V355z"/>
			</g>
			<path class="st32" d="M375.2,357.8c0.1-0.5,0-0.9-0.5-1.3c-0.4-0.4-1.1-0.6-1.8-0.6h-238c-0.9,0-1.8,0.3-2.3,0.8
				s-0.6,1.2-0.2,1.7l2.6,3.7c0.6,0.8,1.9,1.4,3.3,1.4h233c1.3,0,2.4-0.6,2.7-1.5L375.2,357.8z"/>
		</g>
		<g>
			<g>
				<g class="st76">
					<path class="st74" d="M245.3,114.9c-0.8-0.2-1.2-0.9-1.1-1.6c0.3-1.5,0.6-3,0.7-4.5c0.1-0.8,0.8-1.3,1.5-1.2l0,0
						c0.8,0.1,1.3,0.8,1.2,1.6c-0.2,1.6-0.4,3.1-0.8,4.7C246.7,114.6,246,115.1,245.3,114.9C245.4,115,245.3,114.9,245.3,114.9z
						 M245.3,101.5c0-1.5-0.1-3-0.3-4.5c-0.1-0.8,0.5-1.4,1.2-1.5c0.8-0.1,1.4,0.5,1.5,1.2c0.2,1.6,0.3,3.2,0.3,4.7
						c0,0.8-0.6,1.4-1.4,1.4c-0.1,0-0.1,0-0.2,0C245.8,102.8,245.3,102.2,245.3,101.5z M243.8,89.8c-0.4-1.5-0.8-2.9-1.3-4.3
						c-0.2-0.7,0.1-1.5,0.9-1.8c0.7-0.2,1.5,0.1,1.8,0.9c0.5,1.5,1,3,1.3,4.6c0.2,0.7-0.3,1.5-1,1.7c-0.2,0-0.3,0-0.5,0
						C244.4,90.8,243.9,90.4,243.8,89.8z M239.7,78.7c-0.7-1.3-1.4-2.7-2.2-3.9c-0.4-0.7-0.2-1.5,0.5-1.9s1.5-0.2,1.9,0.5
						c0.8,1.3,1.6,2.7,2.3,4.1c0.3,0.7,0.1,1.5-0.6,1.9c-0.2,0.1-0.5,0.2-0.8,0.1C240.3,79.4,239.9,79.1,239.7,78.7z M233.2,68.8
						c-1-1.2-2-2.3-3-3.4c-0.5-0.6-0.5-1.4,0-2c0.5-0.5,1.4-0.5,2,0c1.1,1.1,2.2,2.3,3.2,3.5c0.5,0.6,0.4,1.5-0.2,2
						c-0.3,0.2-0.7,0.3-1,0.3C233.8,69.3,233.4,69.1,233.2,68.8z M224.7,60.6c-1.2-0.9-2.4-1.8-3.7-2.6c-0.6-0.4-0.8-1.3-0.4-1.9
						c0.4-0.6,1.3-0.8,1.9-0.4c1.3,0.9,2.6,1.8,3.9,2.7c0.6,0.5,0.7,1.3,0.3,2c-0.3,0.4-0.8,0.6-1.2,0.5
						C225.2,60.8,224.9,60.7,224.7,60.6z M173.8,51.5c-0.2-0.7,0.1-1.5,0.9-1.8c1.5-0.5,3-0.9,4.6-1.3c0.7-0.2,1.5,0.3,1.7,1
						s-0.3,1.5-1,1.7c-1.5,0.4-2.9,0.8-4.3,1.3c-0.2,0.1-0.4,0.1-0.6,0.1C174.4,52.4,173.9,52,173.8,51.5z M214.6,54.4
						c-1.4-0.6-2.8-1.2-4.2-1.7c-0.7-0.3-1.1-1.1-0.8-1.8s1.1-1.1,1.8-0.8c1.5,0.5,3,1.1,4.4,1.8c0.7,0.3,1,1.2,0.7,1.8
						s-0.8,0.9-1.4,0.8C214.9,54.5,214.7,54.5,214.6,54.4z M185.6,48.6c-0.1-0.8,0.5-1.4,1.2-1.5c1.6-0.2,3.2-0.2,4.7-0.3
						c0.8,0,1.4,0.6,1.4,1.4c0,0.8-0.6,1.4-1.4,1.4c-1.5,0-3,0.1-4.5,0.3c-0.1,0-0.2,0-0.3,0C186.2,49.8,185.6,49.3,185.6,48.6z
						 M203.4,50.7c-1.5-0.3-3-0.6-4.5-0.7c-0.8-0.1-1.3-0.8-1.2-1.6s0.8-1.3,1.5-1.2l0,0c1.6,0.2,3.1,0.5,4.7,0.8
						c0.8,0.2,1.2,0.9,1.1,1.7c-0.1,0.7-0.8,1.2-1.5,1.1C203.5,50.7,203.4,50.7,203.4,50.7z"/>
					<path class="st74" d="M166,56.4c0.3,0,0.6,0,0.8-0.2c0.6-0.3,1.3-0.7,1.9-1c0.7-0.3,1-1.2,0.6-1.9c-0.3-0.7-1.2-1-1.9-0.6
						c-0.7,0.3-1.4,0.7-2,1.1c-0.7,0.4-0.9,1.2-0.5,1.9C165.1,56.1,165.6,56.3,166,56.4z"/>
				</g>
				<g class="st76">
					<path class="st74" d="M139.9,89.9c0.7,0.1,1.3-0.4,1.5-1c0.2-0.7,0.4-1.4,0.6-2.1c0.2-0.7-0.2-1.5-0.9-1.7s-1.5,0.2-1.7,0.9
						c-0.2,0.7-0.4,1.5-0.6,2.2C138.6,88.9,139,89.7,139.9,89.9C139.7,89.8,139.8,89.8,139.9,89.9z"/>
					<path class="st74" d="M184.1,157.5c-0.8-0.1-1.3-0.8-1.2-1.6s0.8-1.3,1.6-1.2c1.4,0.2,2.9,0.4,4.4,0.5c0.8,0,1.3,0.7,1.3,1.5
						c-0.1,0.8-0.7,1.3-1.5,1.3c-0.6,0-1.3-0.1-1.9-0.2C185.9,157.7,184.9,157.6,184.1,157.5z M194.8,156.7
						c-0.1-0.8,0.5-1.4,1.3-1.5c1.5-0.1,3-0.3,4.4-0.5c0.8-0.1,1.5,0.4,1.6,1.2s-0.4,1.5-1.2,1.6c-1.5,0.2-3.1,0.4-4.6,0.5
						c-0.1,0-0.2,0-0.2,0C195.4,157.9,194.9,157.4,194.8,156.7z M176.6,155.8c-1.5-0.4-3-0.9-4.4-1.5c-0.7-0.3-1.1-1.1-0.8-1.8
						s1.1-1.1,1.8-0.8c1.4,0.5,2.8,1,4.2,1.4c0.7,0.2,1.2,1,0.9,1.7c-0.2,0.7-0.8,1.1-1.5,1C176.8,155.9,176.7,155.8,176.6,155.8z
						 M206.6,154.9c-0.2-0.7,0.2-1.5,0.9-1.7c1.4-0.4,2.8-0.9,4.2-1.4c0.7-0.3,1.5,0.1,1.8,0.8s-0.1,1.5-0.8,1.8
						c-1.4,0.6-2.9,1.1-4.4,1.5c-0.2,0.1-0.4,0.1-0.5,0.1C207.3,155.8,206.8,155.4,206.6,154.9z M165.4,151.1
						c-1.4-0.8-2.7-1.6-4-2.4c-0.6-0.4-0.8-1.3-0.4-1.9c0.4-0.6,1.3-0.8,1.9-0.4c1.2,0.8,2.5,1.6,3.8,2.3c0.7,0.4,0.9,1.2,0.5,1.9
						c-0.3,0.5-0.8,0.8-1.4,0.7C165.7,151.2,165.5,151.2,165.4,151.1z M155.4,144c-1.2-1-2.3-2.1-3.4-3.3c-0.5-0.6-0.5-1.4,0.1-2
						c0.6-0.5,1.4-0.5,2,0.1c1,1.1,2.1,2.1,3.2,3.1c0.6,0.5,0.6,1.4,0.1,2c-0.3,0.3-0.8,0.5-1.2,0.5
						C155.9,144.3,155.6,144.2,155.4,144z M147.2,134.9c-0.9-1.3-1.8-2.6-2.6-3.9c-0.4-0.7-0.2-1.5,0.5-1.9s1.5-0.2,1.9,0.5
						c0.8,1.3,1.6,2.5,2.4,3.7c0.4,0.6,0.3,1.5-0.3,1.9c-0.3,0.2-0.6,0.3-1,0.3C147.8,135.4,147.4,135.2,147.2,134.9z M141.2,124.2
						c-0.6-1.4-1.2-2.9-1.6-4.4c-0.2-0.7,0.2-1.5,0.9-1.8c0.7-0.2,1.5,0.2,1.8,0.9c0.5,1.4,1,2.8,1.6,4.2c0.3,0.7,0,1.5-0.7,1.8
						c-0.2,0.1-0.5,0.1-0.7,0.1C141.8,125,141.4,124.7,141.2,124.2z M137.7,112.4c-0.3-1.5-0.5-3.1-0.6-4.6
						c-0.1-0.8,0.5-1.4,1.3-1.5s1.4,0.5,1.5,1.3c0.1,1.5,0.3,2.9,0.6,4.4c0.1,0.8-0.4,1.5-1.1,1.6c-0.1,0-0.3,0-0.4,0
						C138.3,113.5,137.8,113.1,137.7,112.4z M136.8,100.2c0-1.1,0.1-2.3,0.2-3.4c0-0.4,0.1-0.8,0.1-1.2c0.1-0.8,0.8-1.3,1.6-1.2
						c0.8,0.1,1.3,0.8,1.2,1.6c0,0.4-0.1,0.8-0.1,1.2c-0.1,1.1-0.2,2.2-0.2,3.3c0,0.8-0.7,1.4-1.4,1.3h-0.1
						C137.4,101.6,136.8,101,136.8,100.2z"/>
					<path class="st74" d="M218.8,151.2c0.3,0,0.6,0,0.8-0.2c0.7-0.4,1.3-0.8,2-1.2s0.9-1.3,0.5-1.9c-0.4-0.7-1.3-0.9-1.9-0.5
						c-0.6,0.4-1.2,0.8-1.9,1.1c-0.7,0.4-0.9,1.2-0.5,1.9C218,150.9,218.4,151.1,218.8,151.2z"/>
				</g>
				<g>
					<path class="st3" d="M225.3,128.2c0.2-0.2,0.2-0.5,0.1-0.7l-3.5-7.1c2-3.1,3.4-6.6,4.3-10.3l7.5-2.6c0.3-0.1,0.4-0.3,0.4-0.6
						v-9.5c0-0.3-0.2-0.5-0.4-0.6l-7.5-2.6c-0.9-3.7-2.3-7.2-4.3-10.3l3.5-7.1c0.1-0.2,0.1-0.5-0.1-0.7l-6.7-6.7
						c-0.2-0.2-0.5-0.2-0.7-0.1l-7.1,3.5c-3.1-2-6.6-3.4-10.3-4.3l-2.6-7.5c-0.1-0.3-0.3-0.4-0.6-0.4h-9.5c-0.3,0-0.5,0.2-0.6,0.4
						l-2.6,7.5c-3.7,0.9-7.2,2.3-10.3,4.3L167,69c-0.2-0.1-0.5-0.1-0.7,0.1l-6.7,6.7c-0.2,0.2-0.2,0.5-0.1,0.7l3.5,7.1
						c-2,3.1-3.4,6.6-4.3,10.3l-7.5,2.6c-0.3,0.1-0.4,0.3-0.4,0.6v9.5c0,0.3,0.2,0.5,0.4,0.6l7.5,2.6c0.9,3.7,2.3,7.2,4.3,10.3
						l-3.5,7.1c-0.1,0.2-0.1,0.5,0.1,0.7l6.7,6.7c0.2,0.2,0.5,0.2,0.7,0.1l7.1-3.5c3.1,2,6.6,3.4,10.3,4.3l2.6,7.5
						c0.1,0.3,0.3,0.4,0.6,0.4h9.5c0.3,0,0.5-0.2,0.6-0.4l2.6-7.5c3.7-0.9,7.2-2.3,10.3-4.3l7.1,3.5c0.2,0.1,0.5,0.1,0.7-0.1
						L225.3,128.2z"/>
					
						<linearGradient id="SVGID_00000100372063875741928180000006054692447809397145_" gradientUnits="userSpaceOnUse" x1="182.882" y1="399.9084" x2="201.996" y2="399.9084" gradientTransform="matrix(1 0 0 -1 0 501.8898)">
						<stop  offset="0" style="stop-color:#DAE3FE"/>
						<stop  offset="1" style="stop-color:#E9EFFD"/>
					</linearGradient>
					<path style="fill:url(#SVGID_00000100372063875741928180000006054692447809397145_);" d="M190.1,111.3
						c-5.1-1.3-8.2-6.5-6.9-11.6c0.6-2.5,2.2-4.6,4.4-5.9s4.8-1.7,7.2-1.1c5.1,1.3,8.2,6.5,6.9,11.6c-1.2,4.6-5.6,7.6-10.2,7.2
						C191,111.5,190.6,111.4,190.1,111.3z M188.7,95.7c-1.7,1-2.9,2.6-3.3,4.5c-1,3.9,1.4,7.9,5.3,8.9c3.9,1,7.9-1.4,8.9-5.3
						s-1.4-7.9-5.3-8.9c-0.4-0.1-0.7-0.2-1.1-0.2C191.6,94.6,190,94.9,188.7,95.7z"/>
					
						<linearGradient id="SVGID_00000129187116929536111090000006549052349225890437_" gradientUnits="userSpaceOnUse" x1="168.8114" y1="400.1398" x2="215.8114" y2="400.1398" gradientTransform="matrix(1 0 0 -1 0 501.8898)">
						<stop  offset="0" style="stop-color:#DAE3FE"/>
						<stop  offset="1" style="stop-color:#E9EFFD"/>
					</linearGradient>
					<path style="fill:url(#SVGID_00000129187116929536111090000006549052349225890437_);" d="M189.9,125.2c0.8,0.1,1.6,0.1,2.4,0.1
						l0,0c0.3,0,0.5,0,0.8,0c1.3,0,2.5-0.2,3.7-0.4c0,0,0,0,0.1,0h0.1c0.1,0,0.2,0,0.3-0.1c0.2-0.1,0.4-0.3,0.4-0.5
						c0-0.1,0-0.1,0-0.2c-0.1-0.3-0.4-0.5-0.7-0.4c-1.5,0.3-3.1,0.5-4.7,0.5c-7.9,0-14.9-4.1-18.9-10.4c-2.2-3.5-3.5-7.6-3.5-12
						c0-0.8,0-1.5,0.1-2.3c0.5-5.1,2.8-9.8,6.4-13.5c4.2-4.2,9.8-6.6,15.8-6.6c12.3,0,22.4,10,22.4,22.4c0,0.8,0,1.5-0.1,2.3
						c-0.3,3.3-1.4,6.4-3.1,9.2c0,0.1-0.1,0.2-0.1,0.2c0,0.2,0.1,0.4,0.3,0.5c0.3,0.2,0.6,0.1,0.8-0.2c1.8-3,2.9-6.3,3.2-9.7
						c0.1-0.8,0.1-1.6,0.1-2.4c0-13-10.5-23.5-23.5-23.5c-6.3,0-12.2,2.4-16.6,6.9c-3.9,3.9-6.2,8.8-6.8,14.2
						c-0.1,0.8-0.1,1.6-0.1,2.4c0,6.3,2.4,12.2,6.9,16.6C179.6,122.3,184.5,124.7,189.9,125.2z"/>
				</g>
			</g>
			<g>
				<g class="st76">
					<path class="st74" d="M289,156.3c0.4,0,0.7-0.2,0.9-0.5c0.3-0.7,0.5-1.4,0.8-2.1c0.2-0.4-0.1-0.9-0.5-1.1
						c-0.5-0.2-0.9,0.1-1.1,0.5c-0.2,0.7-0.5,1.3-0.7,2c-0.2,0.4,0,0.9,0.5,1.1C288.9,156.3,288.9,156.3,289,156.3z"/>
					<path class="st74" d="M290.8,149.9c-0.5-0.1-0.8-0.6-0.7-1c0.2-1.2,0.4-2.4,0.5-3.6c0-0.3,0-0.5,0.1-0.8c0-0.5,0.5-0.8,0.9-0.8
						c0.4,0.1,0.8,0.5,0.8,0.9c0,0.3,0,0.5-0.1,0.8c-0.1,1.3-0.3,2.5-0.6,3.7C291.8,149.7,291.4,150,290.8,149.9
						C290.9,149.9,290.9,149.9,290.8,149.9z M290.9,140.2c-0.1-1.5-0.2-2.9-0.5-4.3c-0.1-0.5,0.2-0.9,0.7-1s0.9,0.2,1,0.7
						c0.2,1.5,0.4,3,0.5,4.6c0,0.5-0.3,0.9-0.8,0.9h-0.1C291.2,141,290.9,140.7,290.9,140.2z M289.4,131.6c-0.4-1.4-0.9-2.8-1.5-4.1
						c-0.2-0.4,0-0.9,0.4-1.1s0.9,0,1.1,0.4c0.6,1.4,1.1,2.8,1.6,4.3c0.1,0.5-0.1,0.9-0.6,1.1c-0.1,0-0.2,0-0.3,0
						C289.8,132.2,289.5,132,289.4,131.6z M285.9,123.6c-0.7-1.2-1.6-2.5-2.5-3.6c-0.3-0.4-0.2-0.9,0.2-1.2c0.4-0.3,0.9-0.2,1.2,0.2
						c0.9,1.2,1.8,2.5,2.6,3.8c0.2,0.4,0.1,0.9-0.3,1.2c-0.2,0.1-0.3,0.1-0.5,0.1C286.3,124,286.1,123.9,285.9,123.6z M280.6,116.7
						c-1-1-2.1-2-3.3-2.9c-0.4-0.3-0.4-0.8-0.1-1.2c0.3-0.4,0.8-0.4,1.2-0.1c1.2,0.9,2.3,2,3.4,3c0.3,0.3,0.3,0.9,0,1.2
						c-0.2,0.2-0.4,0.3-0.7,0.2C280.9,117,280.7,116.9,280.6,116.7z M273.7,111.4c-1.2-0.7-2.5-1.4-3.9-2c-0.4-0.2-0.6-0.7-0.4-1.1
						s0.7-0.6,1.1-0.4c1.4,0.6,2.8,1.3,4.1,2.1c0.4,0.2,0.5,0.8,0.3,1.2c-0.2,0.3-0.5,0.4-0.8,0.4
						C274,111.5,273.8,111.4,273.7,111.4z M265.8,107.8c-1.4-0.4-2.8-0.8-4.3-1c-0.5-0.1-0.8-0.5-0.7-1c0.1-0.5,0.5-0.8,1-0.7
						c1.5,0.3,3,0.6,4.5,1.1c0.5,0.1,0.7,0.6,0.6,1.1c-0.1,0.4-0.5,0.6-0.9,0.6C265.9,107.8,265.8,107.8,265.8,107.8z M251.9,105.6
						c0-0.5,0.3-0.9,0.8-0.9c1.3-0.1,2.7-0.1,4-0.1c0.2,0,0.4,0,0.6,0c0.5,0,0.8,0.4,0.8,0.9s-0.4,0.8-0.9,0.8c-0.2,0-0.4,0-0.6,0
						c-1.3,0-2.5,0-3.8,0.1c-0.1,0-0.1,0-0.2,0C252.2,106.4,251.9,106,251.9,105.6z"/>
				</g>
				<g class="st76">
					<path class="st74" d="M251.2,178.7c-1.5-0.2-3-0.4-4.4-0.8c-0.5-0.1-0.7-0.6-0.6-1c0.1-0.5,0.6-0.7,1-0.6
						c1.4,0.3,2.8,0.6,4.2,0.7c0.5,0.1,0.8,0.5,0.8,1C252.1,178.4,251.7,178.7,251.2,178.7L251.2,178.7z M254.8,178.1
						c0-0.5,0.4-0.9,0.9-0.9c1.4,0,2.9-0.1,4.3-0.3c0.5-0.1,0.9,0.3,1,0.7c0.1,0.5-0.3,0.9-0.7,1c-1.5,0.2-3,0.3-4.5,0.3h-0.1
						C255.2,178.9,254.8,178.5,254.8,178.1z M242.5,176.6c-1.4-0.5-2.8-1.1-4.1-1.8c-0.4-0.2-0.6-0.7-0.4-1.2
						c0.2-0.4,0.7-0.6,1.2-0.4c1.3,0.7,2.6,1.2,3.9,1.7c0.4,0.2,0.7,0.7,0.5,1.1c-0.1,0.4-0.5,0.6-0.9,0.6
						C242.6,176.6,242.5,176.6,242.5,176.6z M263.6,177.1c-0.1-0.5,0.2-0.9,0.6-1c1.4-0.4,2.8-0.8,4.1-1.3c0.4-0.2,0.9,0,1.1,0.5
						c0.2,0.4,0,0.9-0.5,1.1c-1.4,0.5-2.8,1-4.3,1.4c-0.1,0-0.2,0-0.3,0C264,177.8,263.7,177.5,263.6,177.1z M234.5,172.4
						c-1.2-0.8-2.4-1.8-3.6-2.8c-0.4-0.3-0.4-0.9-0.1-1.2c0.3-0.4,0.9-0.4,1.2-0.1c1.1,0.9,2.2,1.8,3.4,2.6c0.4,0.3,0.5,0.8,0.2,1.2
						c-0.2,0.3-0.5,0.4-0.8,0.4C234.7,172.6,234.6,172.5,234.5,172.4z M227.7,166.5c-1-1.1-1.9-2.3-2.8-3.5
						c-0.3-0.4-0.2-0.9,0.2-1.2s0.9-0.2,1.2,0.2c0.8,1.2,1.7,2.3,2.7,3.4c0.3,0.4,0.3,0.9-0.1,1.2c-0.2,0.2-0.4,0.2-0.7,0.2
						C228.1,166.7,227.9,166.6,227.7,166.5z M222.6,159.1c-0.7-1.3-1.3-2.7-1.9-4.1c-0.2-0.4,0.1-0.9,0.5-1.1
						c0.4-0.2,0.9,0.1,1.1,0.5c0.5,1.3,1.1,2.7,1.8,3.9c0.2,0.4,0.1,0.9-0.4,1.2c-0.2,0.1-0.3,0.1-0.5,0.1
						C223,159.5,222.7,159.4,222.6,159.1z"/>
					<path class="st74" d="M272.6,174.6c0.2,0,0.3,0,0.5-0.1c0.6-0.3,1.3-0.7,1.9-1.1c0.4-0.2,0.5-0.8,0.3-1.2
						c-0.3-0.4-0.8-0.5-1.2-0.3c-0.6,0.4-1.2,0.7-1.8,1c-0.4,0.2-0.6,0.7-0.3,1.2C272,174.4,272.3,174.6,272.6,174.6z"/>
				</g>
				<g>
					<path class="st3" d="M277.5,159c0.1-0.1,0.2-0.3,0.1-0.5l-2.3-4.8c1.3-2.1,2.3-4.4,2.9-6.9l5-1.7c0.2-0.1,0.3-0.2,0.3-0.4v-6.4
						c0-0.2-0.1-0.4-0.3-0.4l-5-1.7c-0.6-2.5-1.6-4.8-2.9-6.9l2.3-4.8c0.1-0.2,0-0.4-0.1-0.5l-4.5-4.5c-0.1-0.1-0.3-0.2-0.5-0.1
						l-4.8,2.3c-2.1-1.3-4.4-2.3-6.9-2.9l-1.7-5c-0.1-0.2-0.2-0.3-0.4-0.3h-6.4c-0.2,0-0.4,0.1-0.4,0.3l-1.7,5
						c-2.5,0.6-4.8,1.6-6.9,2.9l-4.8-2.3c-0.2-0.1-0.4,0-0.5,0.1l-4.5,4.5c-0.1,0.1-0.2,0.3-0.1,0.5l2.3,4.8
						c-1.3,2.1-2.3,4.4-2.9,6.9l-5,1.7c-0.2,0.1-0.3,0.2-0.3,0.4v6.4c0,0.2,0.1,0.4,0.3,0.4l5,1.7c0.6,2.5,1.6,4.8,2.9,6.9l-2.3,4.8
						c-0.1,0.2,0,0.4,0.1,0.5l4.5,4.5c0.1,0.1,0.3,0.2,0.5,0.1l4.8-2.3c2.1,1.3,4.4,2.3,6.9,2.9l1.7,5c0.1,0.2,0.2,0.3,0.4,0.3h6.4
						c0.2,0,0.4-0.1,0.4-0.3l1.7-5c2.5-0.6,4.8-1.6,6.9-2.9l4.8,2.3c0.2,0.1,0.4,0,0.5-0.1L277.5,159z"/>
					
						<linearGradient id="SVGID_00000005261381607363211820000012387057035492338312_" gradientUnits="userSpaceOnUse" x1="248.9525" y1="360.3846" x2="261.9745" y2="360.3846" gradientTransform="matrix(1 0 0 -1 0 501.8898)">
						<stop  offset="0" style="stop-color:#DAE3FE"/>
						<stop  offset="1" style="stop-color:#E9EFFD"/>
					</linearGradient>
					<path style="fill:url(#SVGID_00000005261381607363211820000012387057035492338312_);" d="M253.9,147.8c-1.7-0.4-3.1-1.5-4-3
						s-1.1-3.2-0.7-4.9c0.9-3.5,4.4-5.6,7.9-4.7c3.5,0.9,5.6,4.4,4.7,7.9c-0.4,1.7-1.5,3.1-3,4c-1.2,0.7-2.6,1-4,0.9
						C254.5,147.9,254.2,147.8,253.9,147.8z M250.8,140.3c-0.3,1.2-0.1,2.5,0.5,3.6c0.7,1.1,1.7,1.9,2.9,2.2l0,0
						c1.2,0.3,2.5,0.1,3.6-0.5c1.1-0.7,1.9-1.7,2.2-2.9c0.6-2.6-0.9-5.2-3.5-5.8c-0.2-0.1-0.5-0.1-0.7-0.1
						C253.6,136.5,251.4,138,250.8,140.3z"/>
					
						<linearGradient id="SVGID_00000059310934506873028080000007709263484938545578_" gradientUnits="userSpaceOnUse" x1="239.1663" y1="360.4919" x2="271.588" y2="360.4919" gradientTransform="matrix(1 0 0 -1 0 501.8898)">
						<stop  offset="0" style="stop-color:#DAE3FE"/>
						<stop  offset="1" style="stop-color:#E9EFFD"/>
					</linearGradient>
					<path style="fill:url(#SVGID_00000059310934506873028080000007709263484938545578_);" d="M253.7,157.5c0.5,0.1,1.1,0.1,1.6,0.1
						c1.1,0,2.2-0.1,3.3-0.3h0.1c0.4-0.1,0.6-0.4,0.7-0.8c0-0.1,0-0.2,0-0.3c-0.1-0.5-0.6-0.8-1-0.7c-1,0.2-2,0.3-3.1,0.3l0,0
						c-0.1,0-0.1,0-0.2,0c-2.4,0-4.8-0.7-6.9-1.8c-1.1-0.6-2.2-1.4-3.1-2.3l0,0c0,0,0,0-0.1-0.1c-2.7-2.7-4.2-6.4-4.2-10.2
						c0-0.5,0-1,0.1-1.5c0.3-3.3,1.8-6.4,4.2-8.8c2.7-2.7,6.4-4.2,10.2-4.2c3.9,0,7.5,1.5,10.2,4.2s4.2,6.4,4.2,10.2
						c0,0.5,0,1-0.1,1.5c-0.2,2.1-0.9,4.1-2,6c-0.1,0.1-0.1,0.2-0.1,0.4c0,0.3,0.1,0.6,0.4,0.8c0.4,0.2,0.9,0.1,1.2-0.3
						c1.2-2,2-4.3,2.2-6.7c0.1-0.5,0.1-1.1,0.1-1.6c0-4.3-1.7-8.4-4.7-11.5c-3.1-3.1-7.1-4.8-11.5-4.7c-4.3,0-8.4,1.7-11.5,4.7
						c-2.7,2.7-4.3,6.1-4.7,9.8c-0.1,0.5-0.1,1.1-0.1,1.7C239.2,149.7,245.6,156.7,253.7,157.5z"/>
				</g>
			</g>
		</g>
	</g>
</g>
</svg>
