<?xml version="1.0" encoding="UTF-8"?><svg id="Layer_1" xmlns="http://www.w3.org/2000/svg" xmlns:xlink="http://www.w3.org/1999/xlink" viewBox="0 0 910.19 1232.78"><defs><style>.cls-1{fill:url(#linear-gradient-12);}.cls-1,.cls-2,.cls-3,.cls-4,.cls-5,.cls-6,.cls-7,.cls-8,.cls-9,.cls-10,.cls-11,.cls-12,.cls-13,.cls-14,.cls-15,.cls-16,.cls-17,.cls-18,.cls-19,.cls-20,.cls-21,.cls-22,.cls-23,.cls-24,.cls-25,.cls-26,.cls-27,.cls-28,.cls-29,.cls-30,.cls-31,.cls-32,.cls-33,.cls-34,.cls-35,.cls-36,.cls-37,.cls-38,.cls-39,.cls-40,.cls-41{stroke-width:0px;}.cls-2{fill:url(#linear-gradient-9);}.cls-2,.cls-4,.cls-5,.cls-8,.cls-15,.cls-20,.cls-27,.cls-38{opacity:.3;}.cls-3{fill:url(#linear-gradient-17);filter:url(#drop-shadow-40);}.cls-4{fill:url(#linear-gradient-10);}.cls-5{fill:url(#linear-gradient-3);}.cls-6{fill:url(#linear-gradient-21);filter:url(#drop-shadow-42);}.cls-7{fill:url(#linear-gradient-13);filter:url(#drop-shadow-38);}.cls-8{fill:url(#linear-gradient-6);}.cls-9{fill:url(#linear-gradient-25);filter:url(#drop-shadow-44);}.cls-10{fill:url(#linear-gradient-29);filter:url(#drop-shadow-49);}.cls-11{filter:url(#drop-shadow-46);}.cls-11,.cls-13,.cls-14,.cls-31,.cls-33{fill:#46863f;}.cls-12{fill:#206a37;}.cls-13{filter:url(#drop-shadow-47);}.cls-14{filter:url(#drop-shadow-36);}.cls-15{fill:url(#linear-gradient-4);}.cls-16{fill:url(#linear-gradient);filter:url(#drop-shadow-34);}.cls-17{fill:url(#linear-gradient-11);filter:url(#drop-shadow-37);}.cls-18,.cls-42{fill:none;}.cls-19{fill:url(#linear-gradient-23);filter:url(#drop-shadow-43);}.cls-20{fill:url(#linear-gradient-5);}.cls-21{fill:#204295;}.cls-22{fill:url(#linear-gradient-15);filter:url(#drop-shadow-39);}.cls-23{fill:url(#linear-gradient-16);}.cls-24{fill:url(#linear-gradient-22);}.cls-25{fill:url(#linear-gradient-2);filter:url(#drop-shadow-35);}.cls-26{fill:#fff;}.cls-27{fill:url(#linear-gradient-8);}.cls-28{fill:url(#linear-gradient-20);}.cls-29{fill:url(#linear-gradient-14);}.cls-30{fill:url(#linear-gradient-19);filter:url(#drop-shadow-41);}.cls-31{filter:url(#drop-shadow-33);}.cls-32{fill:#231f20;}.cls-42{stroke:#fff;stroke-miterlimit:10;stroke-width:6px;}.cls-33{filter:url(#drop-shadow-48);}.cls-34{fill:url(#linear-gradient-24);}.cls-35{fill:url(#linear-gradient-26);}.cls-36{fill:url(#linear-gradient-18);}.cls-37{fill:url(#linear-gradient-30);}.cls-38{fill:url(#linear-gradient-7);}.cls-39{fill:url(#linear-gradient-27);filter:url(#drop-shadow-45);}.cls-40{fill:url(#linear-gradient-28);}.cls-41{fill:#006838;}</style><filter id="drop-shadow-33" filterUnits="userSpaceOnUse"><feOffset dx="-9" dy="0"/><feGaussianBlur result="blur" stdDeviation="13"/><feFlood flood-color="#231f20" flood-opacity=".36"/><feComposite in2="blur" operator="in"/><feComposite in="SourceGraphic"/></filter><linearGradient id="linear-gradient" x1="634.03" y1="-5.58" x2="634.03" y2="1186.85" gradientUnits="userSpaceOnUse"><stop offset=".04" stop-color="#fff"/><stop offset="1" stop-color="#f0efef"/></linearGradient><filter id="drop-shadow-34" filterUnits="userSpaceOnUse"><feOffset dx="-4" dy="2"/><feGaussianBlur result="blur-2" stdDeviation="9"/><feFlood flood-color="#010101" flood-opacity=".3"/><feComposite in2="blur-2" operator="in"/><feComposite in="SourceGraphic"/></filter><linearGradient id="linear-gradient-2" x1="366.03" y1="230.73" x2="910.19" y2="230.73" gradientUnits="userSpaceOnUse"><stop offset="0" stop-color="#4766b0"/><stop offset="1" stop-color="#204295"/></linearGradient><filter id="drop-shadow-35" filterUnits="userSpaceOnUse"><feOffset dx="0" dy="1"/><feGaussianBlur result="blur-3" stdDeviation="3"/><feFlood flood-color="#010101" flood-opacity=".3"/><feComposite in2="blur-3" operator="in"/><feComposite in="SourceGraphic"/></filter><linearGradient id="linear-gradient-3" x1="590.98" y1="203.24" x2="779.58" y2="-10.5" gradientUnits="userSpaceOnUse"><stop offset="0" stop-color="#fff" stop-opacity=".3"/><stop offset="1" stop-color="#fff" stop-opacity="0"/></linearGradient><linearGradient id="linear-gradient-4" x1="743.89" y1="212.58" x2="893.16" y2="212.58" xlink:href="#linear-gradient-3"/><linearGradient id="linear-gradient-5" x1="442.91" y1="232.89" x2="614.02" y2="232.89" xlink:href="#linear-gradient-3"/><linearGradient id="linear-gradient-6" x1="693.24" y1="209.07" x2="852.06" y2="209.07" xlink:href="#linear-gradient-3"/><filter id="drop-shadow-36" filterUnits="userSpaceOnUse"><feOffset dx="0" dy="1"/><feGaussianBlur result="blur-4" stdDeviation="3"/><feFlood flood-color="#010101" flood-opacity=".3"/><feComposite in2="blur-4" operator="in"/><feComposite in="SourceGraphic"/></filter><linearGradient id="linear-gradient-7" x1="588.5" y1="201.59" x2="777.1" y2="-12.16" xlink:href="#linear-gradient-3"/><linearGradient id="linear-gradient-8" x1="741.41" y1="210.92" x2="890.68" y2="210.92" xlink:href="#linear-gradient-3"/><linearGradient id="linear-gradient-9" x1="440.43" y1="231.24" x2="611.54" y2="231.24" xlink:href="#linear-gradient-3"/><linearGradient id="linear-gradient-10" x1="690.76" y1="207.42" x2="849.58" y2="207.42" xlink:href="#linear-gradient-3"/><linearGradient id="linear-gradient-11" x1="448.02" y1="564.14" x2="416.19" y2="587.33" xlink:href="#linear-gradient"/><filter id="drop-shadow-37" filterUnits="userSpaceOnUse"><feOffset dx="0" dy="0"/><feGaussianBlur result="blur-5" stdDeviation=".88"/><feFlood flood-color="#010101" flood-opacity=".2"/><feComposite in2="blur-5" operator="in"/><feComposite in="SourceGraphic"/></filter><linearGradient id="linear-gradient-12" x1="437.59" y1="571.74" x2="401.81" y2="597.8" xlink:href="#linear-gradient-2"/><linearGradient id="linear-gradient-13" x1="448.03" y1="621.75" x2="416.19" y2="644.94" xlink:href="#linear-gradient"/><filter id="drop-shadow-38" filterUnits="userSpaceOnUse"><feOffset dx="0" dy="0"/><feGaussianBlur result="blur-6" stdDeviation=".88"/><feFlood flood-color="#010101" flood-opacity=".2"/><feComposite in2="blur-6" operator="in"/><feComposite in="SourceGraphic"/></filter><linearGradient id="linear-gradient-14" x1="420.11" y1="637.02" x2="434.02" y2="637.02" gradientUnits="userSpaceOnUse"><stop offset="0" stop-color="#2db24a"/><stop offset="1" stop-color="#226834"/></linearGradient><linearGradient id="linear-gradient-15" x1="448.02" y1="679.36" x2="416.19" y2="702.54" xlink:href="#linear-gradient"/><filter id="drop-shadow-39" filterUnits="userSpaceOnUse"><feOffset dx="0" dy="0"/><feGaussianBlur result="blur-7" stdDeviation=".88"/><feFlood flood-color="#010101" flood-opacity=".2"/><feComposite in2="blur-7" operator="in"/><feComposite in="SourceGraphic"/></filter><linearGradient id="linear-gradient-16" x1="437.59" y1="686.96" x2="408.05" y2="708.47" xlink:href="#linear-gradient-2"/><linearGradient id="linear-gradient-17" x1="448.03" y1="736.97" x2="416.19" y2="760.15" xlink:href="#linear-gradient"/><filter id="drop-shadow-40" filterUnits="userSpaceOnUse"><feOffset dx="0" dy="0"/><feGaussianBlur result="blur-8" stdDeviation=".88"/><feFlood flood-color="#010101" flood-opacity=".2"/><feComposite in2="blur-8" operator="in"/><feComposite in="SourceGraphic"/></filter><linearGradient id="linear-gradient-18" y1="752.24" y2="752.24" xlink:href="#linear-gradient-14"/><linearGradient id="linear-gradient-19" x1="448.02" y1="794.58" x2="416.19" y2="817.76" xlink:href="#linear-gradient"/><filter id="drop-shadow-41" filterUnits="userSpaceOnUse"><feOffset dx="0" dy="0"/><feGaussianBlur result="blur-9" stdDeviation=".88"/><feFlood flood-color="#010101" flood-opacity=".2"/><feComposite in2="blur-9" operator="in"/><feComposite in="SourceGraphic"/></filter><linearGradient id="linear-gradient-20" x1="420.11" y1="809.84" x2="434.02" y2="809.84" xlink:href="#linear-gradient-2"/><linearGradient id="linear-gradient-21" x1="448.03" y1="849.22" x2="416.19" y2="872.4" xlink:href="#linear-gradient"/><filter id="drop-shadow-42" filterUnits="userSpaceOnUse"><feOffset dx="0" dy="0"/><feGaussianBlur result="blur-10" stdDeviation=".88"/><feFlood flood-color="#010101" flood-opacity=".2"/><feComposite in2="blur-10" operator="in"/><feComposite in="SourceGraphic"/></filter><linearGradient id="linear-gradient-22" y1="864.49" y2="864.49" xlink:href="#linear-gradient-14"/><linearGradient id="linear-gradient-23" x1="448.02" y1="935.83" x2="416.19" y2="959.01" xlink:href="#linear-gradient"/><filter id="drop-shadow-43" filterUnits="userSpaceOnUse"><feOffset dx="0" dy="0"/><feGaussianBlur result="blur-11" stdDeviation=".88"/><feFlood flood-color="#010101" flood-opacity=".2"/><feComposite in2="blur-11" operator="in"/><feComposite in="SourceGraphic"/></filter><linearGradient id="linear-gradient-24" x1="437.59" y1="943.42" x2="408.05" y2="964.94" xlink:href="#linear-gradient-2"/><linearGradient id="linear-gradient-25" x1="448.03" y1="993.44" x2="416.19" y2="1016.62" xlink:href="#linear-gradient"/><filter id="drop-shadow-44" filterUnits="userSpaceOnUse"><feOffset dx="0" dy="0"/><feGaussianBlur result="blur-12" stdDeviation=".88"/><feFlood flood-color="#010101" flood-opacity=".2"/><feComposite in2="blur-12" operator="in"/><feComposite in="SourceGraphic"/></filter><linearGradient id="linear-gradient-26" y1="1008.7" y2="1008.7" xlink:href="#linear-gradient-14"/><linearGradient id="linear-gradient-27" x1="448.02" y1="1051.05" x2="416.19" y2="1074.23" xlink:href="#linear-gradient"/><filter id="drop-shadow-45" filterUnits="userSpaceOnUse"><feOffset dx="0" dy="0"/><feGaussianBlur result="blur-13" stdDeviation=".88"/><feFlood flood-color="#010101" flood-opacity=".2"/><feComposite in2="blur-13" operator="in"/><feComposite in="SourceGraphic"/></filter><linearGradient id="linear-gradient-28" x1="420.11" y1="1066.31" x2="434.02" y2="1066.31" xlink:href="#linear-gradient-2"/><filter id="drop-shadow-46" filterUnits="userSpaceOnUse"><feOffset dx="0" dy="2"/><feGaussianBlur result="blur-14" stdDeviation="2"/><feFlood flood-color="#010101" flood-opacity=".3"/><feComposite in2="blur-14" operator="in"/><feComposite in="SourceGraphic"/></filter><filter id="drop-shadow-47" filterUnits="userSpaceOnUse"><feOffset dx="0" dy="2"/><feGaussianBlur result="blur-15" stdDeviation="2"/><feFlood flood-color="#010101" flood-opacity=".3"/><feComposite in2="blur-15" operator="in"/><feComposite in="SourceGraphic"/></filter><filter id="drop-shadow-48" filterUnits="userSpaceOnUse"><feOffset dx="0" dy="2"/><feGaussianBlur result="blur-16" stdDeviation="2"/><feFlood flood-color="#010101" flood-opacity=".3"/><feComposite in2="blur-16" operator="in"/><feComposite in="SourceGraphic"/></filter><linearGradient id="linear-gradient-29" x1="449.27" y1="1108.65" x2="417.44" y2="1131.83" xlink:href="#linear-gradient"/><filter id="drop-shadow-49" filterUnits="userSpaceOnUse"><feOffset dx="0" dy="0"/><feGaussianBlur result="blur-17" stdDeviation=".88"/><feFlood flood-color="#010101" flood-opacity=".2"/><feComposite in2="blur-17" operator="in"/><feComposite in="SourceGraphic"/></filter><linearGradient id="linear-gradient-30" x1="421.35" y1="1123.92" x2="435.26" y2="1123.92" xlink:href="#linear-gradient-14"/></defs><polygon class="cls-31" points="372.67 165.03 106.78 268.28 106.78 921.97 377.68 1028.59 372.67 165.03"/><path class="cls-26" d="m181.72,820.95l29.07-5.56-29.07-15.63v-8.45l37.99,6.58v6.42l-12.86-2.22-15.84-3.37,28.7,15.66v4.64l-29.56,5.82,17.38,2.38,12.19,2.11v6.42l-37.99-6.6v-8.19Z"/><path class="cls-26" d="m205.1,773.85v7.25l14.61,2.56v6.45l-37.99-6.6.03-11.98c0-4.12.99-7.28,2.98-9.47,1.99-2.19,4.75-3.14,8.28-2.84,2.46.19,4.58,1.01,6.38,2.45,1.8,1.44,3.22,3.47,4.24,6.08l15.69-5.61.39.03v6.84l-14.61,4.85Zm-5.32,6.37l.05-6.24c0-2.24-.59-4.12-1.76-5.62-1.17-1.5-2.77-2.39-4.79-2.65-1.97-.26-3.47.09-4.53,1.04-1.05.96-1.61,2.41-1.68,4.36l-.03,6.89,12.73,2.22Z"/><path class="cls-26" d="m207.32,727.35c3.97.64,7.13,2.43,9.49,5.35s3.5,6.48,3.43,10.67c-.05,2.42-.63,4.54-1.72,6.35s-2.69,3.24-4.79,4.27c-2.1,1.03-4.47,1.6-7.11,1.72-1.98.1-4.68-.14-8.1-.73s-6.48-1.73-9.2-3.41-4.76-3.74-6.13-6.18c-1.37-2.44-2.04-5.16-1.98-8.15.07-3.77,1.26-6.76,3.56-8.96,2.3-2.2,5.48-3.37,9.54-3.51v6.39c-2.71.09-4.67.66-5.88,1.71-1.21,1.05-1.84,2.61-1.89,4.68-.09,2.84.93,5.21,3.05,7.12,2.12,1.91,5.21,3.2,9.25,3.86l3.47.52,2.66.24c1.79.14,3.47.01,5.04-.38,1.57-.39,2.77-1.08,3.6-2.07.83-.99,1.26-2.25,1.32-3.78.19-4.85-2.32-7.97-7.54-9.34l-.05-6.37Z"/><path class="cls-26" d="m194.51,706.29c-1.06,0-1.93-.33-2.6-1-.67-.67-1.02-1.53-1.06-2.57-.04-1.03.27-1.88.93-2.57.65-.69,1.49-1.03,2.52-1.03s1.85.33,2.52.99c.67.66,1.02,1.52,1.06,2.58.04,1.03-.27,1.88-.91,2.57-.64.69-1.46,1.03-2.45,1.03Zm22.15,3.81c-1.06,0-1.93-.33-2.6-1s-1.02-1.53-1.06-2.57c-.04-1.03.27-1.88.93-2.57.65-.69,1.49-1.03,2.52-1.03s1.85.33,2.52.99c.67.66,1.02,1.52,1.06,2.58.03,1.03-.27,1.88-.91,2.57-.64.69-1.46,1.03-2.45,1.03Z"/><path class="cls-26" d="m163,626.77v9.49c2.55-.8,5.18-1.14,7.89-1.02l-.04-9.31,8.11,3.56v6.28c4.99,1.63,8.75,4.21,11.29,7.73,2.54,3.52,4.11,8.37,4.7,14.55l24.1-15.95h.67v12.21l-26.91,17.78-6.33-1.07.09-10.38c0-6.03-2.57-10.54-7.71-13.54l.09,23.66-8.11-3.61v-20.85c-4.42.42-6.71,3.5-6.86,9.27l-.04,12.61-9.09-3.97v-41.12l8.15,3.7Z"/><path class="cls-26" d="m182.33,586.72l.04-5.75c0-3.48-.94-6.37-2.81-8.69-1.87-2.32-4.37-3.64-7.48-3.97-2.94-.33-5.25.21-6.93,1.6s-2.55,3.47-2.61,6.24c-.06,2.79.76,5.21,2.45,7.26s3.92,3.28,6.68,3.7l.04,10.56c-3.48-.27-6.58-1.41-9.31-3.43-2.73-2.02-4.83-4.66-6.3-7.91-1.47-3.25-2.19-6.76-2.16-10.54.12-5.79,1.8-10.36,5.06-13.7,3.25-3.34,7.61-4.82,13.08-4.43,2.97.21,5.7,1.31,8.18,3.3,2.48,1.99,4.61,4.87,6.39,8.64,2.38-5.14,6.5-7.87,12.39-8.2h2.14c5.82.39,10.54,2.77,14.17,7.15,3.62,4.38,5.38,9.75,5.26,16.11-.03,3.65-.81,6.94-2.34,9.85-1.53,2.91-3.68,5.15-6.46,6.71-2.78,1.56-5.95,2.28-9.51,2.16l.04-10.51c2.85.12,5.15-.59,6.88-2.12,1.74-1.53,2.65-3.76,2.74-6.71.12-3.24-.83-5.99-2.85-8.26-2.02-2.27-4.66-3.59-7.93-3.94-3.3-.36-5.81.32-7.53,2.03-1.72,1.71-2.63,4.17-2.72,7.37l-.04,6.82-8.55-1.34Z"/><path class="cls-26" d="m182.33,535.97l.04-5.75c0-3.48-.94-6.37-2.81-8.69-1.87-2.32-4.37-3.64-7.48-3.97-2.94-.33-5.25.21-6.93,1.6s-2.55,3.47-2.61,6.24c-.06,2.79.76,5.21,2.45,7.26s3.92,3.28,6.68,3.7l.04,10.56c-3.48-.27-6.58-1.41-9.31-3.43-2.73-2.02-4.83-4.66-6.3-7.91-1.47-3.25-2.19-6.76-2.16-10.54.12-5.79,1.8-10.36,5.06-13.7,3.25-3.34,7.61-4.82,13.08-4.43,2.97.21,5.7,1.31,8.18,3.3,2.48,1.99,4.61,4.87,6.39,8.64,2.38-5.14,6.5-7.87,12.39-8.2h2.14c5.82.39,10.54,2.77,14.17,7.15,3.62,4.38,5.38,9.75,5.26,16.11-.03,3.65-.81,6.94-2.34,9.85-1.53,2.91-3.68,5.15-6.46,6.71-2.78,1.56-5.95,2.28-9.51,2.16l.04-10.51c2.85.12,5.15-.59,6.88-2.12,1.74-1.53,2.65-3.76,2.74-6.71.12-3.24-.83-5.99-2.85-8.26-2.02-2.27-4.66-3.59-7.93-3.94-3.3-.36-5.81.32-7.53,2.03-1.72,1.71-2.63,4.17-2.72,7.37l-.04,6.82-8.55-1.34Z"/><path class="cls-26" d="m234.33,503.4l-3.56,5.66c-4.69-3.5-8.81-5.66-12.34-6.46l-9.18-1.65v-9.49l7.17,1.16c7.34,1.19,13.31,4.78,17.91,10.78Z"/><path class="cls-26" d="m220.6,462.5c-.12,5.61-2.06,9.86-5.81,12.74-3.76,2.88-9.02,4.28-15.79,4.19-2.2-.03-4.4-.18-6.59-.45l-11.58-1.74c-9.09-1.46-15.88-4.26-20.36-8.42-4.48-4.16-6.65-9.53-6.5-16.13.12-5.58,2.02-9.82,5.7-12.72,3.68-2.9,8.91-4.3,15.68-4.21,2.23.03,4.43.18,6.59.45l11.27,1.74c9.3,1.51,16.22,4.33,20.78,8.44,4.56,4.11,6.76,9.48,6.62,16.11Zm-40.41-15.99c-3.39-.39-5.79-.58-7.22-.58-6.71.15-10.17,2.6-10.38,7.35-.15,3.62,1.17,6.54,3.97,8.73,2.79,2.2,7.23,3.74,13.32,4.63l14.12,2.05c3.06.36,5.48.52,7.26.49,6.95,0,10.53-2.43,10.74-7.31.39-6.71-4.86-11.03-15.73-12.96l-16.08-2.41Z"/><path class="cls-26" d="m220.6,411.76c-.12,5.61-2.06,9.86-5.81,12.74-3.76,2.88-9.02,4.28-15.79,4.19-2.2-.03-4.4-.18-6.59-.45l-11.58-1.74c-9.09-1.46-15.88-4.26-20.36-8.42-4.48-4.16-6.65-9.53-6.5-16.13.12-5.58,2.02-9.82,5.7-12.72,3.68-2.9,8.91-4.3,15.68-4.21,2.23.03,4.43.18,6.59.45l11.27,1.74c9.3,1.51,16.22,4.33,20.78,8.44,4.56,4.11,6.76,9.48,6.62,16.11Zm-40.41-15.99c-3.39-.39-5.79-.58-7.22-.58-6.71.15-10.17,2.6-10.38,7.35-.15,3.62,1.17,6.54,3.97,8.73,2.79,2.2,7.23,3.74,13.32,4.63l14.12,2.05c3.06.36,5.48.52,7.26.49,6.95,0,10.53-2.43,10.74-7.31.39-6.71-4.86-11.03-15.73-12.96l-16.08-2.41Z"/><path class="cls-26" d="m220.6,361.01c-.12,5.61-2.06,9.86-5.81,12.74-3.76,2.88-9.02,4.28-15.79,4.19-2.2-.03-4.4-.18-6.59-.45l-11.58-1.74c-9.09-1.46-15.88-4.26-20.36-8.42-4.48-4.16-6.65-9.53-6.5-16.13.12-5.58,2.02-9.82,5.7-12.72,3.68-2.9,8.91-4.3,15.68-4.21,2.23.03,4.43.18,6.59.45l11.27,1.74c9.3,1.51,16.22,4.33,20.78,8.44,4.56,4.11,6.76,9.48,6.62,16.11Zm-40.41-15.99c-3.39-.39-5.79-.58-7.22-.58-6.71.15-10.17,2.6-10.38,7.35-.15,3.62,1.17,6.54,3.97,8.73,2.79,2.2,7.23,3.74,13.32,4.63l14.12,2.05c3.06.36,5.48.52,7.26.49,6.95,0,10.53-2.43,10.74-7.31.39-6.71-4.86-11.03-15.73-12.96l-16.08-2.41Z"/><path class="cls-26" d="m274.79,489.56v7.18c1.93-.61,3.92-.86,5.96-.77l-.03-7.04,6.13,2.7v4.75c3.77,1.24,6.62,3.18,8.54,5.85,1.92,2.66,3.11,6.33,3.55,11l18.23-12.06h.51v9.23l-20.35,13.44-4.78-.81.07-7.85c0-4.56-1.94-7.97-5.83-10.24l.07,17.89-6.13-2.73v-15.77c-3.35.31-5.08,2.65-5.19,7.01l-.03,9.53-6.87-3v-31.1l6.17,2.8Z"/><path class="cls-26" d="m289.41,459.27l.03-4.35c0-2.63-.71-4.82-2.12-6.57-1.42-1.75-3.3-2.75-5.66-3-2.22-.25-3.97.16-5.24,1.21s-1.93,2.63-1.97,4.72c-.04,2.11.57,3.94,1.85,5.49s2.96,2.48,5.05,2.8l.03,7.99c-2.63-.2-4.98-1.07-7.04-2.59-2.07-1.53-3.66-3.52-4.77-5.98-1.11-2.46-1.66-5.12-1.63-7.97.09-4.38,1.36-7.83,3.82-10.36,2.46-2.53,5.76-3.64,9.89-3.35,2.25.16,4.31.99,6.18,2.49,1.88,1.5,3.49,3.68,4.83,6.54,1.8-3.89,4.92-5.95,9.37-6.2h1.62c4.4.29,7.97,2.09,10.71,5.41,2.74,3.31,4.07,7.37,3.98,12.18-.02,2.76-.61,5.25-1.77,7.45-1.16,2.2-2.79,3.89-4.89,5.07-2.1,1.18-4.5,1.72-7.19,1.63l.03-7.95c2.16.09,3.89-.44,5.21-1.6,1.31-1.16,2-2.85,2.07-5.07.09-2.45-.63-4.53-2.16-6.25-1.53-1.72-3.53-2.71-6-2.98-2.49-.27-4.39.24-5.69,1.53s-1.99,3.15-2.06,5.58l-.03,5.16-6.47-1.01Z"/><path class="cls-26" d="m311.14,426.59c.04-4.76-1.11-8.64-3.45-11.62s-5.87-5.22-10.56-6.71c2.96,3.06,4.42,6.29,4.38,9.7-.04,2.54-.74,4.74-2.07,6.6-1.34,1.87-3.26,3.26-5.78,4.18-2.52.92-5.3,1.25-8.36.98-3.26-.29-6.24-1.24-8.96-2.85-2.72-1.61-4.82-3.69-6.3-6.25s-2.18-5.36-2.09-8.39c.07-2.63.74-4.91,2-6.86s3.08-3.45,5.42-4.53c2.35-1.08,4.97-1.7,7.87-1.85,2.4-.11,5.4.15,9,.77,8.31,1.44,14.67,4.52,19.07,9.23s6.6,10.71,6.6,17.99v.74l-6.81-.64.03-.51Zm-16-10.61c.04-1.66-.41-3.23-1.37-4.72-.95-1.48-2.27-2.76-3.96-3.84l-3.27-.44-2.36-.13c-2.92-.07-5.24.39-6.96,1.38-1.72.99-2.62,2.47-2.71,4.45-.09,2.81,1.26,5.11,4.04,6.91,2.79,1.8,6.06,2.53,9.84,2.19,2-.16,3.6-.74,4.82-1.75s1.85-2.36,1.92-4.04Z"/><path class="cls-26" d="m328.73,396.27l-2.7,4.28c-3.55-2.65-6.66-4.28-9.33-4.89l-6.94-1.25v-7.18l5.42.88c5.55.9,10.06,3.62,13.54,8.15Z"/><path class="cls-26" d="m268.35,348.73l6.81.67-.03.44c-.04,4.31,1.12,8.05,3.49,11.22,2.37,3.17,5.96,5.65,10.76,7.45-2.88-2.96-4.27-6.35-4.18-10.14.04-2.63.78-4.86,2.21-6.7s3.38-3.19,5.86-4.04,5.18-1.15,8.1-.88c3.19.27,6.12,1.2,8.78,2.8,2.66,1.59,4.72,3.68,6.17,6.25,1.45,2.57,2.14,5.38,2.07,8.44-.09,3.89-1.47,7.04-4.14,9.47s-6.19,3.81-10.55,4.14c-2.4.2-5.61-.06-9.63-.78-8.02-1.46-14.31-4.58-18.87-9.35s-6.84-10.84-6.84-18.21v-.78Zm23.42,11.96c-.04,1.8.43,3.48,1.43,5.05,1,1.57,2.42,2.9,4.26,3.98,2.27.25,3.89.36,4.85.34,2.88,0,5.15-.53,6.84-1.58,1.68-1.06,2.55-2.57,2.59-4.55.07-2.43-.84-4.49-2.73-6.18s-4.36-2.71-7.41-3.05c-2.85-.29-5.19.1-7.01,1.18-1.82,1.08-2.76,2.68-2.83,4.82Z"/><path class="cls-26" d="m318.35,326.96c-.09,4.25-1.55,7.46-4.4,9.64s-6.82,3.23-11.94,3.17c-1.66-.02-3.32-.13-4.99-.34l-8.76-1.31c-6.87-1.1-12.01-3.22-15.4-6.37s-5.03-7.21-4.92-12.2c.09-4.22,1.53-7.43,4.31-9.62,2.79-2.19,6.74-3.25,11.86-3.18,1.68.02,3.35.13,4.99.34l8.52,1.31c7.03,1.15,12.27,3.27,15.72,6.38s5.12,7.17,5,12.18Zm-30.56-12.09c-2.56-.29-4.38-.44-5.46-.44-5.08.11-7.69,1.97-7.85,5.56-.11,2.74.89,4.94,3,6.6s5.47,2.83,10.07,3.5l10.68,1.55c2.31.27,4.14.39,5.49.37,5.26,0,7.96-1.84,8.12-5.53.29-5.08-3.67-8.34-11.89-9.8l-12.16-1.82Z"/><path class="cls-26" d="m318.35,288.59c-.09,4.25-1.55,7.46-4.4,9.64s-6.82,3.23-11.94,3.17c-1.66-.02-3.32-.13-4.99-.34l-8.76-1.31c-6.87-1.1-12.01-3.22-15.4-6.37s-5.03-7.21-4.92-12.2c.09-4.22,1.53-7.43,4.31-9.62,2.79-2.19,6.74-3.25,11.86-3.18,1.68.02,3.35.13,4.99.34l8.52,1.31c7.03,1.15,12.27,3.27,15.72,6.38s5.12,7.17,5,12.18Zm-30.56-12.09c-2.56-.29-4.38-.44-5.46-.44-5.08.11-7.69,1.97-7.85,5.56-.11,2.74.89,4.94,3,6.6s5.47,2.83,10.07,3.5l10.68,1.55c2.31.27,4.14.39,5.49.37,5.26,0,7.96-1.84,8.12-5.53.29-5.08-3.67-8.34-11.89-9.8l-12.16-1.82Z"/><line class="cls-42" x1="293" y1="535.22" x2="293" y2="249.14"/><path class="cls-16" d="m820.42.56h-456.77v1108.49c0,43.85,37.6,79.4,83.98,79.4h456.77V79.96c0-43.85-37.6-79.4-83.98-79.4Z"/><path class="cls-25" d="m825.68,1.65h-459.65v390.11c136.15,186.45,275.38-86.05,544.16,64.54V86.27c0-46.74-37.84-84.62-84.51-84.62Z"/><path class="cls-5" d="m366.03,130.34c52.02,80.5,144.19,147.52,259.04,178.36,100.69,27.04,200.16,21.21,280.68-10V89.8c0-46.29-37.53-83.82-83.82-83.82h-455.91v124.35Z"/><path class="cls-15" d="m797.64,415.29l95.53-369.51c-10.46-16.88-26.68-29.81-45.99-35.9l-103.29,399.52c17.25.38,35.14,2.2,53.75,5.9Z"/><path class="cls-20" d="m558.75,5.98l-115.83,448.05c17.5,5.63,35.41,6.75,53.97,5.04L614.02,5.98h-55.27Z"/><path class="cls-8" d="m821.94,5.98h-23.69l-105.01,406.18c17.9-2.3,36.51-3.39,55.95-2.63L852.06,11.65c-9.36-3.61-19.49-5.67-30.12-5.67Z"/><path class="cls-14" d="m823.2,0h-459.65v390.11c136.15,186.45,275.38-86.05,544.16,64.54V84.62c0-46.74-37.84-84.62-84.51-84.62Z"/><path class="cls-38" d="m363.55,128.68c52.02,80.5,144.19,147.52,259.04,178.36,100.69,27.04,200.16,21.21,280.68-10V88.15c0-46.29-37.53-83.82-83.82-83.82h-455.91v124.35Z"/><path class="cls-27" d="m795.16,413.63l95.53-369.51c-10.46-16.88-26.68-29.81-45.99-35.9l-103.29,399.52c17.25.38,35.14,2.2,53.75,5.9Z"/><path class="cls-2" d="m556.27,4.33l-115.83,448.05c17.5,5.63,35.41,6.75,53.97,5.04L611.54,4.33h-55.27Z"/><path class="cls-4" d="m819.46,4.33h-23.69l-105.01,406.18c17.9-2.3,36.51-3.39,55.95-2.63L849.58,10c-9.36-3.61-19.49-5.67-30.12-5.67Z"/><path class="cls-17" d="m440.9,579.41c0,7.65-6.19,13.84-13.84,13.84h0c-7.65,0-13.84-6.19-13.84-13.84h0c0-7.65,6.19-13.84,13.84-13.84h0c7.65,0,13.84,6.19,13.84,13.84h0Z"/><path class="cls-1" d="m434.02,579.41c0,3.84-3.11,6.95-6.95,6.95h0c-3.84,0-6.95-3.11-6.95-6.95h0c0-3.84,3.11-6.95,6.95-6.95h0c3.84,0,6.95,3.11,6.95,6.95h0Z"/><path class="cls-7" d="m440.9,637.02c0,7.65-6.19,13.84-13.84,13.84h0c-7.65,0-13.84-6.19-13.84-13.84h0c0-7.65,6.19-13.84,13.84-13.84h0c7.65,0,13.84,6.2,13.84,13.84h0Z"/><path class="cls-29" d="m434.02,637.02c0,3.84-3.11,6.95-6.95,6.95h0c-3.84,0-6.95-3.11-6.95-6.95h0c0-3.84,3.11-6.95,6.95-6.95h0c3.84,0,6.95,3.11,6.95,6.95h0Z"/><path class="cls-22" d="m440.9,694.63c0,7.65-6.19,13.84-13.84,13.84h0c-7.65,0-13.84-6.19-13.84-13.84h0c0-7.65,6.19-13.84,13.84-13.84h0c7.65,0,13.84,6.19,13.84,13.84h0Z"/><path class="cls-23" d="m434.02,694.63c0,3.84-3.11,6.95-6.95,6.95h0c-3.84,0-6.95-3.11-6.95-6.95h0c0-3.84,3.11-6.95,6.95-6.95h0c3.84,0,6.95,3.11,6.95,6.95h0Z"/><path class="cls-3" d="m440.9,752.24c0,7.65-6.19,13.84-13.84,13.84h0c-7.65,0-13.84-6.19-13.84-13.84h0c0-7.65,6.19-13.84,13.84-13.84h0c7.65,0,13.84,6.2,13.84,13.84h0Z"/><path class="cls-36" d="m434.02,752.24c0,3.84-3.11,6.95-6.95,6.95h0c-3.84,0-6.95-3.11-6.95-6.95h0c0-3.84,3.11-6.95,6.95-6.95h0c3.84,0,6.95,3.11,6.95,6.95h0Z"/><path class="cls-30" d="m440.9,809.84c0,7.65-6.19,13.84-13.84,13.84h0c-7.65,0-13.84-6.19-13.84-13.84h0c0-7.65,6.19-13.84,13.84-13.84h0c7.65,0,13.84,6.19,13.84,13.84h0Z"/><path class="cls-28" d="m434.02,809.84c0,3.84-3.11,6.95-6.95,6.95h0c-3.84,0-6.95-3.11-6.95-6.95h0c0-3.84,3.11-6.95,6.95-6.95h0c3.84,0,6.95,3.11,6.95,6.95h0Z"/><path class="cls-6" d="m440.9,864.49c0,7.65-6.19,13.84-13.84,13.84h0c-7.65,0-13.84-6.19-13.84-13.84h0c0-7.65,6.19-13.84,13.84-13.84h0c7.65,0,13.84,6.2,13.84,13.84h0Z"/><path class="cls-24" d="m434.02,864.49c0,3.84-3.11,6.95-6.95,6.95h0c-3.84,0-6.95-3.11-6.95-6.95h0c0-3.84,3.11-6.95,6.95-6.95h0c3.84,0,6.95,3.11,6.95,6.95h0Z"/><path class="cls-19" d="m440.9,951.09c0,7.65-6.19,13.84-13.84,13.84h0c-7.65,0-13.84-6.19-13.84-13.84h0c0-7.65,6.19-13.84,13.84-13.84h0c7.65,0,13.84,6.19,13.84,13.84h0Z"/><path class="cls-34" d="m434.02,951.09c0,3.84-3.11,6.95-6.95,6.95h0c-3.84,0-6.95-3.11-6.95-6.95h0c0-3.84,3.11-6.95,6.95-6.95h0c3.84,0,6.95,3.11,6.95,6.95h0Z"/><path class="cls-9" d="m440.9,1008.7c0,7.65-6.19,13.84-13.84,13.84h0c-7.65,0-13.84-6.19-13.84-13.84h0c0-7.65,6.19-13.84,13.84-13.84h0c7.65,0,13.84,6.2,13.84,13.84h0Z"/><path class="cls-35" d="m434.02,1008.7c0,3.84-3.11,6.95-6.95,6.95h0c-3.84,0-6.95-3.11-6.95-6.95h0c0-3.84,3.11-6.95,6.95-6.95h0c3.84,0,6.95,3.11,6.95,6.95h0Z"/><path class="cls-39" d="m440.9,1066.31c0,7.65-6.19,13.84-13.84,13.84h0c-7.65,0-13.84-6.19-13.84-13.84h0c0-7.65,6.19-13.84,13.84-13.84h0c7.65,0,13.84,6.19,13.84,13.84h0Z"/><path class="cls-40" d="m434.02,1066.31c0,3.84-3.11,6.95-6.95,6.95h0c-3.84,0-6.95-3.11-6.95-6.95h0c0-3.84,3.11-6.95,6.95-6.95h0c3.84,0,6.95,3.11,6.95,6.95h0Z"/><path class="cls-11" d="m596.02,490.23c5.12,18.45,27.13,28.45,49.15,22.34,22.02-6.11,35.72-26.03,30.6-44.48-5.12-18.45-27.13-28.45-49.16-22.34-22.02,6.11-35.72,26.03-30.6,44.48Z"/><path class="cls-13" d="m695.68,446.07c.7,9.76,10.72,17,22.37,16.16,11.65-.84,20.53-9.44,19.83-19.2-.7-9.76-10.72-17-22.37-16.16-11.65.84-20.53,9.43-19.83,19.2Z"/><path class="cls-33" d="m549.71,475.76c.39,5.36,5.89,9.34,12.29,8.88,6.4-.46,11.28-5.18,10.89-10.55-.39-5.36-5.89-9.34-12.29-8.88-6.4.46-11.28,5.18-10.89,10.55Z"/><path class="cls-26" d="m473.48,216.35h-22.32l19.11-110.09-34.81,11.54,3.5-20.34,54.48-19.29h3.4l-23.36,138.18Z"/><path class="cls-18" d="m821.94,5.98h-455.91v1069.78c0,46.29,37.53,83.82,83.82,83.82h455.91V89.8c0-46.29-37.53-83.82-83.82-83.82Z"/><path class="cls-26" d="m365.43,276.88h327.99c24,0,43.48,19.48,43.48,43.48h0c0,24-19.48,43.48-43.48,43.48h-327.99v-86.96h0Z"/><path class="cls-41" d="m445.27,346.07l11.92-56.05h23.29c2.74,0,5.09.72,7.07,2.17,1.97,1.45,3.47,3.33,4.5,5.64,1.03,2.32,1.54,4.76,1.54,7.34,0,2.11-.36,4.18-1.07,6.24-.71,2.05-1.71,3.97-3,5.76-1.29,1.79-2.79,3.34-4.5,4.66-1.71,1.32-3.57,2.29-5.57,2.92l7.89,21.32h-10.03l-7.26-19.5h-11.76l-4.1,19.5h-8.92Zm28.97-27.32c1.32,0,2.58-.36,3.79-1.07,1.21-.71,2.3-1.67,3.28-2.88.97-1.21,1.74-2.57,2.29-4.07s.83-3.04.83-4.62-.26-2.99-.79-4.22c-.53-1.24-1.25-2.22-2.17-2.96-.92-.74-1.99-1.11-3.2-1.11h-13.82l-4.5,20.92h14.29Z"/><path class="cls-41" d="m509.46,346.86c-3.05,0-5.68-.76-7.89-2.27-2.21-1.51-3.9-3.54-5.05-6.1-1.16-2.55-1.74-5.4-1.74-8.53,0-3.34.6-6.53,1.82-9.58,1.21-3.05,2.88-5.76,5.01-8.13,2.13-2.37,4.57-4.26,7.3-5.67,2.74-1.41,5.6-2.11,8.6-2.11s5.53.81,7.58,2.42,3.47,3.62,4.26,6.02l1.66-7.82h8.76l-6.63,30.37c-.05.26-.09.48-.12.66-.03.18-.04.35-.04.5,0,1.03.6,1.58,1.82,1.63l-1.58,7.42c-.74.11-1.4.2-1.97.28s-1.1.12-1.58.12c-1.63,0-2.9-.33-3.79-1-.9-.67-1.34-1.62-1.34-2.86,0-.25.01-.54.04-.89s.08-.74.16-1.19.2-.94.36-1.49c-2.05,2.61-4.49,4.63-7.3,6.06-2.82,1.43-5.59,2.15-8.33,2.15Zm3.79-7.42c1.05,0,2.17-.21,3.35-.62,1.18-.41,2.34-.98,3.47-1.71,1.13-.72,2.17-1.58,3.12-2.56.95-.98,1.71-2.04,2.29-3.18l2.21-10.72c-.21-1.66-.76-3.14-1.66-4.46-.9-1.32-1.99-2.37-3.28-3.14-1.29-.78-2.67-1.16-4.14-1.16-2,0-3.88.48-5.64,1.44-1.76.96-3.32,2.24-4.66,3.85s-2.41,3.4-3.2,5.37c-.79,1.97-1.18,3.97-1.18,5.99s.38,3.92,1.14,5.53c.76,1.61,1.84,2.91,3.24,3.89,1.39.99,3.04,1.48,4.93,1.48Z"/><path class="cls-41" d="m559.74,346.86c-3.58,0-6.59-.78-9.04-2.35-2.45-1.56-4.3-3.65-5.57-6.26-1.26-2.61-1.89-5.5-1.89-8.68s.63-6.43,1.89-9.42c1.26-3,3.03-5.67,5.29-8.02,2.26-2.35,4.93-4.21,8.01-5.59s6.43-2.07,10.07-2.07c4.26,0,7.66.93,10.18,2.8,2.53,1.87,4.18,4.36,4.97,7.46l-9,2.68c-.58-1.79-1.51-3.16-2.8-4.11-1.29-.95-2.91-1.42-4.86-1.42s-3.72.43-5.49,1.28c-1.76.86-3.34,2.05-4.74,3.58-1.39,1.53-2.5,3.29-3.32,5.29-.82,2-1.22,4.16-1.22,6.5,0,2.13.37,3.99,1.11,5.6.74,1.61,1.78,2.89,3.12,3.85,1.34.96,2.88,1.44,4.62,1.44,1.32,0,2.64-.25,3.99-.75,1.34-.5,2.57-1.18,3.67-2.05,1.1-.87,1.95-1.83,2.53-2.88l7.97,2.53c-1.26,2.05-2.91,3.87-4.93,5.45-2.03,1.58-4.28,2.83-6.75,3.75-2.47.92-5.08,1.38-7.82,1.38Z"/><path class="cls-41" d="m596.3,288.44h8.68l-12.24,57.63h-8.68l12.24-57.63Zm6.71,38.36c4.74-1.04,8.34-2.65,10.82-4.84,2.47-2.19,3.71-4.45,3.71-6.79,0-1.25-.33-2.15-.99-2.69-.66-.55-1.54-.82-2.64-.82-2.16,0-4.4.78-6.71,2.34-2.32,1.56-4.46,3.65-6.43,6.25-1.97,2.6-3.46,5.44-4.46,8.51l1.74-11.28c1.63-2.45,3.42-4.66,5.37-6.62,1.95-1.96,4.05-3.51,6.32-4.66,2.26-1.15,4.68-1.72,7.26-1.72,2.84,0,4.96.78,6.35,2.35,1.39,1.57,2.09,3.63,2.09,6.19,0,3.39-1.08,6.52-3.24,9.36-2.16,2.85-5.29,5.18-9.39,7.01l8.45,16.69h-9.32l-8.92-19.27Z"/><path class="cls-21" d="m480.53,580h-4.3v8.53h-3.86v-22.19h7.8c2.56,0,4.54.57,5.93,1.72,1.39,1.15,2.09,2.81,2.09,4.99,0,1.49-.36,2.73-1.07,3.73-.72,1-1.71,1.77-2.99,2.31l4.98,9.24v.2h-4.13l-4.45-8.53Zm-4.3-3.11h3.96c1.3,0,2.32-.33,3.05-.98s1.1-1.55,1.1-2.69-.34-2.11-1.01-2.76c-.68-.65-1.68-.99-3.03-1.01h-4.07v7.44Z"/><path class="cls-21" d="m501.35,588.53c-.16-.31-.31-.83-.43-1.54-1.18,1.23-2.62,1.84-4.33,1.84s-3.01-.47-4.05-1.42c-1.05-.95-1.57-2.11-1.57-3.5,0-1.76.65-3.11,1.96-4.05,1.31-.94,3.17-1.41,5.6-1.41h2.27v-1.08c0-.85-.24-1.54-.72-2.05-.48-.51-1.2-.77-2.18-.77-.84,0-1.53.21-2.07.63-.54.42-.81.96-.81,1.61h-3.7c0-.9.3-1.75.9-2.54s1.41-1.4,2.45-1.85c1.03-.45,2.18-.67,3.45-.67,1.93,0,3.47.48,4.62,1.46,1.15.97,1.74,2.33,1.77,4.09v7.44c0,1.48.21,2.67.62,3.55v.26h-3.78Zm-4.07-2.67c.73,0,1.42-.18,2.07-.53.64-.36,1.13-.83,1.46-1.43v-3.11h-2c-1.37,0-2.4.24-3.09.72s-1.04,1.15-1.04,2.03c0,.71.24,1.28.71,1.7.47.42,1.1.63,1.9.63Z"/><path class="cls-21" d="m515.15,585.88c.92,0,1.69-.27,2.3-.81s.93-1.2.97-2h3.49c-.04,1.03-.36,1.98-.96,2.87-.6.89-1.41,1.59-2.44,2.11-1.03.52-2.13.78-3.32.78-2.31,0-4.13-.75-5.49-2.24-1.35-1.49-2.03-3.55-2.03-6.19v-.38c0-2.51.67-4.52,2.01-6.03,1.34-1.51,3.17-2.26,5.49-2.26,1.96,0,3.56.57,4.79,1.71s1.88,2.64,1.94,4.5h-3.49c-.04-.94-.36-1.72-.97-2.33-.6-.61-1.37-.92-2.31-.92-1.2,0-2.12.43-2.77,1.3-.65.87-.98,2.19-.99,3.96v.59c0,1.79.32,3.12.97,4,.65.88,1.58,1.32,2.8,1.32Z"/><path class="cls-21" d="m530.07,581.46l-1.65,1.69v5.38h-3.7v-23.41h3.7v13.5l1.16-1.45,4.56-5.13h4.45l-6.13,6.87,6.78,9.62h-4.28l-4.89-7.07Z"/><path class="cls-21" d="m560.73,582.82c0-.98-.34-1.73-1.03-2.26-.69-.53-1.92-1.06-3.71-1.6s-3.21-1.14-4.27-1.8c-2.02-1.27-3.03-2.93-3.03-4.97,0-1.79.73-3.26,2.19-4.42s3.35-1.74,5.68-1.74c1.54,0,2.92.28,4.13.85,1.21.57,2.16,1.38,2.85,2.43.69,1.05,1.04,2.22,1.04,3.5h-3.84c0-1.16-.36-2.06-1.09-2.72s-1.76-.98-3.12-.98c-1.26,0-2.24.27-2.93.81-.7.54-1.04,1.29-1.04,2.25,0,.81.38,1.49,1.13,2.03.75.54,1.99,1.07,3.72,1.58,1.73.51,3.11,1.1,4.16,1.75,1.05.66,1.81,1.41,2.3,2.26.49.85.73,1.84.73,2.98,0,1.85-.71,3.32-2.13,4.41s-3.34,1.64-5.77,1.64c-1.61,0-3.08-.3-4.43-.89-1.35-.59-2.39-1.41-3.14-2.46-.75-1.05-1.12-2.26-1.12-3.66h3.85c0,1.26.42,2.24,1.25,2.93.83.69,2.03,1.04,3.58,1.04,1.34,0,2.35-.27,3.02-.81.68-.54,1.01-1.26,1.01-2.16Z"/><path class="cls-21" d="m582.05,580.45c0,2.55-.58,4.58-1.74,6.1-1.16,1.52-2.71,2.28-4.66,2.28-1.81,0-3.26-.59-4.34-1.78v7.82h-3.7v-22.83h3.41l.15,1.68c1.09-1.32,2.57-1.98,4.43-1.98,2.01,0,3.59.75,4.73,2.25,1.14,1.5,1.71,3.58,1.71,6.24v.23Zm-3.69-.32c0-1.65-.33-2.95-.98-3.92-.66-.96-1.59-1.45-2.81-1.45-1.51,0-2.6.62-3.26,1.87v7.31c.67,1.28,1.77,1.92,3.29,1.92,1.18,0,2.1-.47,2.77-1.42s1-2.39,1-4.32Z"/><path class="cls-21" d="m595.03,588.53c-.16-.31-.31-.83-.43-1.54-1.18,1.23-2.62,1.84-4.33,1.84s-3.01-.47-4.05-1.42c-1.05-.95-1.57-2.11-1.57-3.5,0-1.76.65-3.11,1.96-4.05,1.31-.94,3.17-1.41,5.6-1.41h2.27v-1.08c0-.85-.24-1.54-.72-2.05-.48-.51-1.2-.77-2.18-.77-.84,0-1.53.21-2.07.63-.54.42-.81.96-.81,1.61h-3.7c0-.9.3-1.75.9-2.54s1.41-1.4,2.45-1.85c1.03-.45,2.18-.67,3.45-.67,1.93,0,3.47.48,4.62,1.46,1.15.97,1.74,2.33,1.77,4.09v7.44c0,1.48.21,2.67.62,3.55v.26h-3.78Zm-4.07-2.67c.73,0,1.42-.18,2.07-.53.64-.36,1.13-.83,1.46-1.43v-3.11h-2c-1.37,0-2.4.24-3.09.72s-1.04,1.15-1.04,2.03c0,.71.24,1.28.71,1.7.47.42,1.1.63,1.9.63Z"/><path class="cls-21" d="m608.84,585.88c.92,0,1.69-.27,2.3-.81s.93-1.2.97-2h3.49c-.04,1.03-.36,1.98-.96,2.87-.6.89-1.41,1.59-2.44,2.11-1.03.52-2.13.78-3.32.78-2.31,0-4.13-.75-5.49-2.24-1.35-1.49-2.03-3.55-2.03-6.19v-.38c0-2.51.67-4.52,2.01-6.03,1.34-1.51,3.17-2.26,5.49-2.26,1.96,0,3.56.57,4.79,1.71s1.88,2.64,1.94,4.5h-3.49c-.04-.94-.36-1.72-.97-2.33-.6-.61-1.37-.92-2.31-.92-1.2,0-2.12.43-2.77,1.3-.65.87-.98,2.19-.99,3.96v.59c0,1.79.32,3.12.97,4,.65.88,1.58,1.32,2.8,1.32Z"/><path class="cls-21" d="m625.66,588.83c-2.35,0-4.25-.74-5.71-2.22-1.46-1.48-2.19-3.45-2.19-5.91v-.46c0-1.65.32-3.12.95-4.41s1.53-2.3,2.67-3.03c1.15-.72,2.43-1.08,3.84-1.08,2.25,0,3.98.72,5.2,2.15,1.22,1.43,1.84,3.46,1.84,6.08v1.49h-10.77c.11,1.36.57,2.44,1.36,3.23.8.79,1.8,1.19,3.01,1.19,1.7,0,3.08-.69,4.15-2.06l2,1.91c-.66.99-1.54,1.75-2.64,2.29-1.1.54-2.34.82-3.71.82Zm-.44-14.13c-1.02,0-1.84.36-2.46,1.07-.62.71-1.02,1.7-1.2,2.97h7.06v-.27c-.08-1.24-.41-2.18-.99-2.81s-1.38-.95-2.41-.95Z"/><path class="cls-21" d="m645.15,571.69c.69,0,1.22.2,1.6.59.38.39.56.88.56,1.47s-.19,1.06-.56,1.44-.91.57-1.6.57-1.18-.19-1.57-.56c-.39-.38-.58-.86-.58-1.45s.19-1.08.56-1.47c.38-.39.9-.59,1.58-.59Zm0,12.94c.69,0,1.22.2,1.6.59.38.39.56.88.56,1.47s-.19,1.06-.56,1.44c-.38.38-.91.57-1.6.57s-1.18-.19-1.57-.56c-.39-.38-.58-.86-.58-1.45s.19-1.08.56-1.47c.38-.39.9-.59,1.58-.59Z"/><path class="cls-32" d="m671.18,580.62h2.76v2.97h-2.76v4.94h-3.7v-4.94h-9.58l-.11-2.25,9.57-14.99h3.82v14.28Zm-9.51,0h5.81v-9.26l-.27.49-5.53,8.78Z"/><path class="cls-32" d="m691.3,588.53h-14.92v-2.54l7.39-8.06c1.07-1.19,1.83-2.18,2.28-2.98.45-.8.68-1.6.68-2.4,0-1.06-.3-1.91-.89-2.56-.59-.65-1.39-.97-2.4-.97-1.2,0-2.13.37-2.79,1.1s-.99,1.73-.99,3h-3.7c0-1.35.31-2.57.92-3.65.61-1.08,1.49-1.92,2.64-2.52,1.14-.6,2.46-.9,3.96-.9,2.15,0,3.85.54,5.1,1.62,1.24,1.08,1.87,2.58,1.87,4.49,0,1.11-.31,2.27-.94,3.48-.62,1.21-1.65,2.59-3.07,4.14l-5.42,5.81h10.3v2.96Z"/><path class="cls-32" d="m710.95,566.34v14.83c0,2.36-.75,4.22-2.26,5.6-1.51,1.38-3.52,2.06-6.03,2.06s-4.56-.68-6.05-2.03-2.24-3.24-2.24-5.65v-14.81h3.84v14.84c0,1.48.38,2.62,1.13,3.4s1.86,1.17,3.32,1.17c2.97,0,4.45-1.56,4.45-4.69v-14.72h3.84Z"/><path class="cls-12" d="m480.53,637.6h-4.3v8.53h-3.86v-22.19h7.8c2.56,0,4.54.57,5.93,1.72,1.39,1.15,2.09,2.81,2.09,4.99,0,1.49-.36,2.73-1.07,3.73-.72,1-1.71,1.77-2.99,2.31l4.98,9.24v.2h-4.13l-4.45-8.53Zm-4.3-3.11h3.96c1.3,0,2.32-.33,3.05-.98s1.1-1.55,1.1-2.69-.34-2.11-1.01-2.76c-.68-.65-1.68-.99-3.03-1.01h-4.07v7.44Z"/><path class="cls-12" d="m501.35,646.14c-.16-.31-.31-.83-.43-1.54-1.18,1.23-2.62,1.84-4.33,1.84s-3.01-.47-4.05-1.42c-1.05-.95-1.57-2.11-1.57-3.5,0-1.76.65-3.11,1.96-4.05,1.31-.94,3.17-1.41,5.6-1.41h2.27v-1.08c0-.85-.24-1.54-.72-2.05-.48-.51-1.2-.77-2.18-.77-.84,0-1.53.21-2.07.63-.54.42-.81.96-.81,1.61h-3.7c0-.9.3-1.75.9-2.54s1.41-1.4,2.45-1.85c1.03-.45,2.18-.67,3.45-.67,1.93,0,3.47.48,4.62,1.46,1.15.97,1.74,2.33,1.77,4.09v7.44c0,1.48.21,2.67.62,3.55v.26h-3.78Zm-4.07-2.67c.73,0,1.42-.18,2.07-.53.64-.36,1.13-.83,1.46-1.43v-3.11h-2c-1.37,0-2.4.24-3.09.72s-1.04,1.15-1.04,2.03c0,.71.24,1.28.71,1.7.47.42,1.1.63,1.9.63Z"/><path class="cls-12" d="m513.02,625.64v4.01h2.91v2.74h-2.91v9.2c0,.63.12,1.08.37,1.36s.69.42,1.33.42c.43,0,.86-.05,1.29-.15v2.86c-.84.23-1.66.35-2.44.35-2.84,0-4.27-1.57-4.27-4.71v-9.34h-2.71v-2.74h2.71v-4.01h3.7Z"/><path class="cls-12" d="m526.02,646.44c-2.35,0-4.25-.74-5.71-2.22-1.46-1.48-2.19-3.45-2.19-5.91v-.46c0-1.65.32-3.12.95-4.41s1.53-2.3,2.67-3.03c1.15-.72,2.43-1.08,3.84-1.08,2.25,0,3.98.72,5.2,2.15,1.22,1.43,1.84,3.46,1.84,6.08v1.49h-10.77c.11,1.36.57,2.44,1.36,3.23.8.79,1.8,1.19,3.01,1.19,1.7,0,3.08-.69,4.15-2.06l2,1.91c-.66.99-1.54,1.75-2.64,2.29-1.1.54-2.34.82-3.71.82Zm-.44-14.13c-1.02,0-1.84.36-2.46,1.07-.62.71-1.02,1.7-1.2,2.97h7.06v-.27c-.08-1.24-.41-2.18-.99-2.81s-1.38-.95-2.41-.95Z"/><path class="cls-12" d="m534.81,637.77c0-2.54.59-4.58,1.77-6.12,1.18-1.54,2.76-2.31,4.74-2.31,1.75,0,3.16.61,4.24,1.83v-8.44h3.7v23.41h-3.35l-.18-1.71c-1.11,1.34-2.59,2.01-4.43,2.01s-3.49-.78-4.69-2.33c-1.19-1.55-1.79-3.67-1.79-6.34Zm3.7.32c0,1.68.32,2.98.97,3.92.65.94,1.56,1.41,2.75,1.41,1.51,0,2.62-.68,3.32-2.03v-7.04c-.68-1.32-1.78-1.98-3.29-1.98-1.2,0-2.12.47-2.77,1.42s-.98,2.38-.98,4.29Z"/><path class="cls-12" d="m565.1,637.91v8.23h-3.86v-22.19h8.49c2.48,0,4.45.65,5.9,1.94,1.46,1.29,2.19,3,2.19,5.12s-.71,3.87-2.14,5.08c-1.43,1.21-3.43,1.82-6,1.82h-4.59Zm0-3.11h4.63c1.37,0,2.42-.32,3.14-.97s1.08-1.58,1.08-2.8-.37-2.16-1.1-2.87c-.73-.72-1.74-1.08-3.02-1.1h-4.74v7.74Z"/><path class="cls-12" d="m579.95,637.74c0-1.62.32-3.07.96-4.37.64-1.3,1.54-2.29,2.7-2.99,1.16-.7,2.49-1.04,3.99-1.04,2.22,0,4.03.72,5.42,2.15s2.14,3.33,2.25,5.7v.87c.01,1.62-.3,3.08-.92,4.36-.62,1.28-1.52,2.27-2.68,2.97-1.16.7-2.51,1.05-4.03,1.05-2.33,0-4.19-.77-5.58-2.32-1.4-1.55-2.09-3.61-2.09-6.19v-.18Zm3.7.32c0,1.7.35,3.02,1.05,3.98s1.68,1.44,2.93,1.44,2.22-.49,2.92-1.46,1.04-2.4,1.04-4.28c0-1.67-.36-2.99-1.07-3.96-.72-.97-1.69-1.46-2.92-1.46s-2.17.48-2.88,1.44c-.71.96-1.07,2.39-1.07,4.3Z"/><path class="cls-12" d="m612.89,641.03l2.62-11.38h3.61l-4.5,16.49h-3.05l-3.54-11.32-3.47,11.32h-3.05l-4.51-16.49h3.61l2.67,11.26,3.38-11.26h2.79l3.43,11.38Z"/><path class="cls-12" d="m628.86,646.44c-2.35,0-4.25-.74-5.71-2.22-1.46-1.48-2.19-3.45-2.19-5.91v-.46c0-1.65.32-3.12.95-4.41s1.53-2.3,2.67-3.03c1.15-.72,2.43-1.08,3.84-1.08,2.25,0,3.98.72,5.2,2.15,1.22,1.43,1.84,3.46,1.84,6.08v1.49h-10.77c.11,1.36.57,2.44,1.36,3.23.8.79,1.8,1.19,3.01,1.19,1.7,0,3.08-.69,4.15-2.06l2,1.91c-.66.99-1.54,1.75-2.64,2.29-1.1.54-2.34.82-3.71.82Zm-.44-14.13c-1.02,0-1.84.36-2.46,1.07-.62.71-1.02,1.7-1.2,2.97h7.06v-.27c-.08-1.24-.41-2.18-.99-2.81s-1.38-.95-2.41-.95Z"/><path class="cls-12" d="m646.98,633.03c-.49-.08-.99-.12-1.51-.12-1.7,0-2.84.65-3.43,1.95v11.28h-3.7v-16.49h3.54l.09,1.84c.89-1.43,2.13-2.15,3.72-2.15.53,0,.96.07,1.31.21l-.02,3.47Z"/><path class="cls-12" d="m659.32,629.3c.69,0,1.22.2,1.6.59.38.39.56.88.56,1.47s-.19,1.06-.56,1.44-.91.57-1.6.57-1.18-.19-1.57-.56c-.39-.38-.58-.86-.58-1.45s.19-1.08.56-1.47c.38-.39.9-.59,1.58-.59Zm0,12.94c.69,0,1.22.2,1.6.59.38.39.56.88.56,1.47s-.19,1.06-.56,1.44c-.38.38-.91.57-1.6.57s-1.18-.19-1.57-.56c-.39-.38-.58-.86-.58-1.45s.19-1.08.56-1.47c.38-.39.9-.59,1.58-.59Z"/><path class="cls-32" d="m677.18,633.35h2.26c1.14,0,2.04-.3,2.71-.88.67-.58,1-1.42,1-2.51s-.28-1.88-.83-2.46-1.4-.88-2.54-.88c-1,0-1.81.29-2.45.86-.64.57-.96,1.32-.96,2.25h-3.7c0-1.14.3-2.17.91-3.11.6-.93,1.45-1.66,2.53-2.19,1.08-.52,2.29-.78,3.63-.78,2.21,0,3.96.56,5.22,1.67s1.9,2.66,1.9,4.64c0,1-.32,1.93-.95,2.81s-1.46,1.54-2.46,1.99c1.22.42,2.15,1.07,2.78,1.97.63.89.95,1.96.95,3.2,0,1.99-.68,3.58-2.05,4.75s-3.16,1.77-5.39,1.77-3.88-.57-5.24-1.71c-1.36-1.14-2.04-2.65-2.04-4.54h3.7c0,.97.33,1.77.98,2.38s1.54.91,2.64.91,2.05-.3,2.71-.91c.66-.61.99-1.49.99-2.65s-.35-2.07-1.04-2.7c-.69-.63-1.72-.95-3.08-.95h-2.18v-2.93Z"/><path class="cls-32" d="m705.37,636.55l-2.51,2.67v6.92h-3.86v-22.19h3.86v10.41l2.13-2.64,6.49-7.77h4.66l-8.24,9.83,8.72,12.36h-4.57l-6.67-9.58Z"/><path class="cls-32" d="m723.52,641.44l3.49-11.79h3.82l-5.71,16.49h-3.21l-5.76-16.49h3.84l3.54,11.79Z"/><path class="cls-32" d="m742.76,646.14c-.16-.31-.31-.83-.43-1.54-1.18,1.23-2.62,1.84-4.33,1.84s-3.01-.47-4.05-1.42c-1.05-.95-1.57-2.11-1.57-3.5,0-1.76.65-3.11,1.96-4.05,1.31-.94,3.17-1.41,5.6-1.41h2.27v-1.08c0-.85-.24-1.54-.72-2.05-.48-.51-1.2-.77-2.18-.77-.84,0-1.53.21-2.07.63-.54.42-.81.96-.81,1.61h-3.7c0-.9.3-1.75.9-2.54s1.41-1.4,2.45-1.85c1.03-.45,2.18-.67,3.45-.67,1.93,0,3.47.48,4.62,1.46,1.15.97,1.74,2.33,1.77,4.09v7.44c0,1.48.21,2.67.62,3.55v.26h-3.78Zm-4.07-2.67c.73,0,1.42-.18,2.07-.53.64-.36,1.13-.83,1.46-1.43v-3.11h-2c-1.37,0-2.4.24-3.09.72s-1.04,1.15-1.04,2.03c0,.71.24,1.28.71,1.7.47.42,1.1.63,1.9.63Z"/><path class="cls-21" d="m476.23,695.52v8.23h-3.86v-22.19h8.49c2.48,0,4.45.65,5.9,1.94,1.46,1.29,2.19,3,2.19,5.12s-.71,3.87-2.14,5.08c-1.43,1.21-3.43,1.82-6,1.82h-4.59Zm0-3.11h4.63c1.37,0,2.42-.32,3.14-.97s1.08-1.58,1.08-2.8-.37-2.16-1.1-2.87c-.73-.72-1.74-1.08-3.02-1.1h-4.74v7.74Z"/><path class="cls-21" d="m491.08,695.35c0-1.62.32-3.07.96-4.37.64-1.3,1.54-2.29,2.7-2.99,1.16-.7,2.49-1.04,3.99-1.04,2.22,0,4.03.72,5.42,2.15s2.14,3.33,2.25,5.7v.87c.01,1.62-.3,3.08-.92,4.36-.62,1.28-1.52,2.27-2.68,2.97-1.16.7-2.51,1.05-4.03,1.05-2.33,0-4.19-.77-5.58-2.32-1.4-1.55-2.09-3.61-2.09-6.19v-.18Zm3.7.32c0,1.7.35,3.02,1.05,3.98s1.68,1.44,2.93,1.44,2.22-.49,2.92-1.46,1.04-2.4,1.04-4.28c0-1.67-.36-2.99-1.07-3.96-.72-.97-1.69-1.46-2.92-1.46s-2.17.48-2.88,1.44c-.71.96-1.07,2.39-1.07,4.3Z"/><path class="cls-21" d="m524.02,698.64l2.62-11.38h3.61l-4.5,16.49h-3.05l-3.54-11.32-3.47,11.32h-3.05l-4.51-16.49h3.61l2.67,11.26,3.38-11.26h2.79l3.43,11.38Z"/><path class="cls-21" d="m539.99,704.05c-2.35,0-4.25-.74-5.71-2.22-1.46-1.48-2.19-3.45-2.19-5.91v-.46c0-1.65.32-3.12.95-4.41s1.53-2.3,2.67-3.03c1.15-.72,2.43-1.08,3.84-1.08,2.25,0,3.98.72,5.2,2.15,1.22,1.43,1.84,3.46,1.84,6.08v1.49h-10.77c.11,1.36.57,2.44,1.36,3.23.8.79,1.8,1.19,3.01,1.19,1.7,0,3.08-.69,4.15-2.06l2,1.91c-.66.99-1.54,1.75-2.64,2.29-1.1.54-2.34.82-3.71.82Zm-.44-14.13c-1.02,0-1.84.36-2.46,1.07-.62.71-1.02,1.7-1.2,2.97h7.06v-.27c-.08-1.24-.41-2.18-.99-2.81s-1.38-.95-2.41-.95Z"/><path class="cls-21" d="m558.11,690.64c-.49-.08-.99-.12-1.51-.12-1.7,0-2.84.65-3.43,1.95v11.28h-3.7v-16.49h3.54l.09,1.84c.89-1.43,2.13-2.15,3.72-2.15.53,0,.96.07,1.31.21l-.02,3.47Z"/><path class="cls-21" d="m568.58,703.75v-22.19h7.6c2.51,0,4.42.5,5.73,1.51,1.31,1,1.97,2.5,1.97,4.5,0,1.02-.27,1.93-.82,2.74-.55.81-1.35,1.44-2.41,1.89,1.2.33,2.12.94,2.78,1.84.66.9.98,1.98.98,3.24,0,2.08-.67,3.68-2,4.8-1.34,1.12-3.25,1.68-5.74,1.68h-8.09Zm3.86-12.85h3.78c1.2,0,2.14-.27,2.81-.82.67-.54,1.01-1.31,1.01-2.31,0-1.1-.31-1.89-.94-2.38s-1.6-.73-2.92-.73h-3.75v6.23Zm0,2.83v6.93h4.28c1.21,0,2.15-.3,2.83-.9.68-.6,1.02-1.43,1.02-2.5,0-2.31-1.18-3.48-3.54-3.54h-4.6Z"/><path class="cls-21" d="m587.91,682.98c0-.57.18-1.04.54-1.42.36-.38.88-.56,1.55-.56s1.19.19,1.55.56c.37.38.55.85.55,1.42s-.18,1.02-.55,1.39c-.37.37-.88.56-1.55.56s-1.19-.18-1.55-.56c-.36-.37-.54-.84-.54-1.39Zm3.93,20.77h-3.7v-16.49h3.7v16.49Z"/><path class="cls-21" d="m599.82,703.75h-3.7v-23.41h3.7v23.41Z"/><path class="cls-21" d="m607.78,703.75h-3.7v-23.41h3.7v23.41Z"/><path class="cls-21" d="m611.82,682.98c0-.57.18-1.04.54-1.42.36-.38.88-.56,1.55-.56s1.19.19,1.55.56c.37.38.55.85.55,1.42s-.18,1.02-.55,1.39c-.37.37-.88.56-1.55.56s-1.19-.18-1.55-.56c-.36-.37-.54-.84-.54-1.39Zm3.93,20.77h-3.7v-16.49h3.7v16.49Z"/><path class="cls-21" d="m623.22,687.26l.11,1.9c1.22-1.47,2.82-2.21,4.8-2.21,3.43,0,5.18,1.97,5.24,5.9v10.9h-3.7v-10.68c0-1.05-.23-1.82-.68-2.32s-1.19-.75-2.22-.75c-1.49,0-2.61.68-3.34,2.03v11.73h-3.7v-16.49h3.49Z"/><path class="cls-21" d="m636.49,695.38c0-2.56.6-4.6,1.81-6.13,1.2-1.53,2.8-2.29,4.79-2.29,1.88,0,3.36.66,4.43,1.97l.17-1.66h3.34v15.98c0,2.16-.67,3.87-2.02,5.12-1.35,1.25-3.16,1.87-5.45,1.87-1.21,0-2.39-.25-3.54-.75-1.15-.5-2.03-1.16-2.63-1.97l1.75-2.22c1.14,1.35,2.54,2.03,4.21,2.03,1.23,0,2.2-.33,2.91-1,.71-.67,1.07-1.64,1.07-2.93v-1.11c-1.07,1.19-2.49,1.78-4.27,1.78-1.93,0-3.51-.77-4.73-2.3-1.22-1.53-1.84-3.66-1.84-6.37Zm3.69.32c0,1.66.34,2.96,1.01,3.91.68.95,1.61,1.42,2.81,1.42,1.49,0,2.6-.64,3.32-1.92v-7.25c-.7-1.25-1.8-1.87-3.29-1.87-1.22,0-2.17.48-2.84,1.45-.68.97-1.01,2.39-1.01,4.27Z"/><path class="cls-21" d="m667.96,681.56l6.4,17.01,6.38-17.01h4.98v22.19h-3.84v-7.31l.38-9.78-6.55,17.1h-2.76l-6.54-17.08.38,9.77v7.31h-3.84v-22.19h5Z"/><path class="cls-21" d="m689.23,695.35c0-1.62.32-3.07.96-4.37.64-1.3,1.54-2.29,2.7-2.99,1.16-.7,2.49-1.04,3.99-1.04,2.22,0,4.03.72,5.42,2.15s2.14,3.33,2.25,5.7v.87c.01,1.62-.3,3.08-.92,4.36-.62,1.28-1.52,2.27-2.68,2.97-1.16.7-2.51,1.05-4.03,1.05-2.33,0-4.19-.77-5.58-2.32-1.4-1.55-2.09-3.61-2.09-6.19v-.18Zm3.7.32c0,1.7.35,3.02,1.05,3.98s1.68,1.44,2.93,1.44,2.22-.49,2.92-1.46,1.04-2.4,1.04-4.28c0-1.67-.36-2.99-1.07-3.96-.72-.97-1.69-1.46-2.92-1.46s-2.17.48-2.88,1.44c-.71.96-1.07,2.39-1.07,4.3Z"/><path class="cls-21" d="m707,695.38c0-2.54.59-4.58,1.77-6.12,1.18-1.54,2.76-2.31,4.74-2.31,1.75,0,3.16.61,4.24,1.83v-8.44h3.7v23.41h-3.35l-.18-1.71c-1.11,1.34-2.59,2.01-4.43,2.01s-3.49-.78-4.69-2.33c-1.19-1.55-1.79-3.67-1.79-6.34Zm3.7.32c0,1.68.32,2.98.97,3.92.65.94,1.56,1.41,2.75,1.41,1.51,0,2.62-.68,3.32-2.03v-7.04c-.68-1.32-1.78-1.98-3.29-1.98-1.2,0-2.12.47-2.77,1.42s-.98,2.38-.98,4.29Z"/><path class="cls-21" d="m732.57,704.05c-2.35,0-4.25-.74-5.71-2.22-1.46-1.48-2.19-3.45-2.19-5.91v-.46c0-1.65.32-3.12.95-4.41s1.53-2.3,2.67-3.03c1.15-.72,2.43-1.08,3.84-1.08,2.25,0,3.98.72,5.2,2.15,1.22,1.43,1.84,3.46,1.84,6.08v1.49h-10.77c.11,1.36.57,2.44,1.36,3.23.8.79,1.8,1.19,3.01,1.19,1.7,0,3.08-.69,4.15-2.06l2,1.91c-.66.99-1.54,1.75-2.64,2.29-1.1.54-2.34.82-3.71.82Zm-.44-14.13c-1.02,0-1.84.36-2.46,1.07-.62.71-1.02,1.7-1.2,2.97h7.06v-.27c-.08-1.24-.41-2.18-.99-2.81s-1.38-.95-2.41-.95Z"/><path class="cls-21" d="m752.06,686.91c.69,0,1.22.2,1.6.59.38.39.56.88.56,1.47s-.19,1.06-.56,1.44-.91.57-1.6.57-1.18-.19-1.57-.56c-.39-.38-.58-.86-.58-1.45s.19-1.08.56-1.47c.38-.39.9-.59,1.58-.59Zm0,12.94c.69,0,1.22.2,1.6.59.38.39.56.88.56,1.47s-.19,1.06-.56,1.44c-.38.38-.91.57-1.6.57s-1.18-.19-1.57-.56c-.39-.38-.58-.86-.58-1.45s.19-1.08.56-1.47c.38-.39.9-.59,1.58-.59Z"/><path class="cls-32" d="m766.23,703.75v-22.19h7.6c2.51,0,4.42.5,5.73,1.51,1.31,1,1.97,2.5,1.97,4.5,0,1.02-.27,1.93-.82,2.74-.55.81-1.35,1.44-2.41,1.89,1.2.33,2.12.94,2.78,1.84.66.9.98,1.98.98,3.24,0,2.08-.67,3.68-2,4.8-1.34,1.12-3.25,1.68-5.74,1.68h-8.09Zm3.86-12.85h3.78c1.2,0,2.14-.27,2.81-.82.67-.54,1.01-1.31,1.01-2.31,0-1.1-.31-1.89-.94-2.38s-1.6-.73-2.92-.73h-3.75v6.23Zm0,2.83v6.93h4.28c1.21,0,2.15-.3,2.83-.9.68-.6,1.02-1.43,1.02-2.5,0-2.31-1.18-3.48-3.54-3.54h-4.6Z"/><path class="cls-32" d="m795.55,702.13c-1.09,1.28-2.63,1.92-4.63,1.92-1.79,0-3.14-.52-4.06-1.57-.92-1.05-1.38-2.56-1.38-4.54v-10.68h3.7v10.64c0,2.09.87,3.14,2.61,3.14s3.01-.65,3.64-1.94v-11.84h3.7v16.49h-3.49l-.09-1.62Z"/><path class="cls-32" d="m806.34,687.26l.11,1.9c1.22-1.47,2.82-2.21,4.8-2.21,3.43,0,5.18,1.97,5.24,5.9v10.9h-3.7v-10.68c0-1.05-.23-1.82-.68-2.32s-1.19-.75-2.22-.75c-1.49,0-2.61.68-3.34,2.03v11.73h-3.7v-16.49h3.49Z"/><path class="cls-32" d="m819.56,695.38c0-2.54.59-4.58,1.77-6.12,1.18-1.54,2.76-2.31,4.74-2.31,1.75,0,3.16.61,4.24,1.83v-8.44h3.7v23.41h-3.35l-.18-1.71c-1.11,1.34-2.59,2.01-4.43,2.01s-3.49-.78-4.69-2.33c-1.19-1.55-1.79-3.67-1.79-6.34Zm3.7.32c0,1.68.32,2.98.97,3.92.65.94,1.56,1.41,2.75,1.41,1.51,0,2.62-.68,3.32-2.03v-7.04c-.68-1.32-1.78-1.98-3.29-1.98-1.2,0-2.12.47-2.77,1.42s-.98,2.38-.98,4.29Z"/><path class="cls-32" d="m841.81,703.75h-3.7v-23.41h3.7v23.41Z"/><path class="cls-32" d="m853.1,704.05c-2.35,0-4.25-.74-5.71-2.22-1.46-1.48-2.19-3.45-2.19-5.91v-.46c0-1.65.32-3.12.95-4.41s1.53-2.3,2.67-3.03c1.15-.72,2.43-1.08,3.84-1.08,2.25,0,3.98.72,5.2,2.15,1.22,1.43,1.84,3.46,1.84,6.08v1.49h-10.77c.11,1.36.57,2.44,1.36,3.23.8.79,1.8,1.19,3.01,1.19,1.7,0,3.08-.69,4.15-2.06l2,1.91c-.66.99-1.54,1.75-2.64,2.29-1.1.54-2.34.82-3.71.82Zm-.44-14.13c-1.02,0-1.84.36-2.46,1.07-.62.71-1.02,1.7-1.2,2.97h7.06v-.27c-.08-1.24-.41-2.18-.99-2.81s-1.38-.95-2.41-.95Z"/><path class="cls-32" d="m861.9,695.38c0-2.54.59-4.58,1.77-6.12,1.18-1.54,2.76-2.31,4.74-2.31,1.75,0,3.16.61,4.24,1.83v-8.44h3.7v23.41h-3.35l-.18-1.71c-1.11,1.34-2.59,2.01-4.43,2.01s-3.49-.78-4.69-2.33c-1.19-1.55-1.79-3.67-1.79-6.34Zm3.7.32c0,1.68.32,2.98.97,3.92.65.94,1.56,1.41,2.75,1.41,1.51,0,2.62-.68,3.32-2.03v-7.04c-.68-1.32-1.78-1.98-3.29-1.98-1.2,0-2.12.47-2.77,1.42s-.98,2.38-.98,4.29Z"/><path class="cls-12" d="m489.31,754.13c-.22,2.37-1.1,4.21-2.62,5.54-1.52,1.33-3.55,1.99-6.08,1.99-1.77,0-3.32-.42-4.67-1.26-1.35-.84-2.38-2.03-3.12-3.57s-1.11-3.34-1.14-5.38v-2.07c0-2.09.37-3.94,1.11-5.53.74-1.59,1.81-2.82,3.19-3.69s2.99-1.29,4.81-1.29c2.45,0,4.42.66,5.91,1.99,1.49,1.33,2.36,3.2,2.61,5.63h-3.84c-.18-1.59-.65-2.75-1.39-3.45-.75-.71-1.84-1.06-3.28-1.06-1.68,0-2.96.61-3.86,1.84s-1.36,3.02-1.38,5.39v1.97c0,2.4.43,4.23,1.29,5.49.86,1.26,2.12,1.89,3.77,1.89,1.51,0,2.65-.34,3.41-1.02.76-.68,1.24-1.81,1.45-3.4h3.84Z"/><path class="cls-12" d="m501.03,748.25c-.49-.08-.99-.12-1.51-.12-1.7,0-2.84.65-3.43,1.95v11.28h-3.7v-16.49h3.54l.09,1.84c.89-1.43,2.13-2.15,3.72-2.15.53,0,.96.07,1.31.21l-.02,3.47Z"/><path class="cls-12" d="m502.12,752.96c0-1.62.32-3.07.96-4.37.64-1.3,1.54-2.29,2.7-2.99,1.16-.7,2.49-1.04,3.99-1.04,2.22,0,4.03.72,5.42,2.15s2.14,3.33,2.25,5.7v.87c.01,1.62-.3,3.08-.92,4.36-.62,1.28-1.52,2.27-2.68,2.97-1.16.7-2.51,1.05-4.03,1.05-2.33,0-4.19-.77-5.58-2.32-1.4-1.55-2.09-3.61-2.09-6.19v-.18Zm3.7.32c0,1.7.35,3.02,1.05,3.98s1.68,1.44,2.93,1.44,2.22-.49,2.92-1.46,1.04-2.4,1.04-4.28c0-1.67-.36-2.99-1.07-3.96-.72-.97-1.69-1.46-2.92-1.46s-2.17.48-2.88,1.44c-.71.96-1.07,2.39-1.07,4.3Z"/><path class="cls-12" d="m529.83,756.88c0-.66-.27-1.16-.81-1.51-.54-.35-1.45-.65-2.71-.92-1.26-.26-2.31-.6-3.15-1-1.85-.89-2.77-2.19-2.77-3.89,0-1.42.6-2.61,1.8-3.57,1.2-.95,2.72-1.43,4.57-1.43,1.97,0,3.56.49,4.78,1.46,1.21.97,1.82,2.24,1.82,3.79h-3.7c0-.71-.26-1.3-.79-1.78s-1.23-.71-2.1-.71c-.81,0-1.48.19-1.99.56s-.77.88-.77,1.51c0,.57.24,1.01.72,1.33.48.32,1.44.63,2.89.95,1.45.32,2.59.7,3.42,1.14.83.44,1.44.97,1.84,1.59.4.62.6,1.37.6,2.26,0,1.48-.62,2.68-1.84,3.6-1.23.92-2.84,1.38-4.83,1.38-1.35,0-2.55-.24-3.61-.73s-1.88-1.16-2.47-2.01c-.59-.85-.88-1.77-.88-2.76h3.6c.05.87.38,1.55.99,2.02.61.47,1.42.71,2.42.71s1.72-.18,2.22-.56.76-.86.76-1.46Z"/><path class="cls-12" d="m545.93,756.88c0-.66-.27-1.16-.81-1.51-.54-.35-1.45-.65-2.71-.92-1.26-.26-2.31-.6-3.15-1-1.85-.89-2.77-2.19-2.77-3.89,0-1.42.6-2.61,1.8-3.57,1.2-.95,2.72-1.43,4.57-1.43,1.97,0,3.56.49,4.78,1.46,1.21.97,1.82,2.24,1.82,3.79h-3.7c0-.71-.26-1.3-.79-1.78s-1.23-.71-2.1-.71c-.81,0-1.48.19-1.99.56s-.77.88-.77,1.51c0,.57.24,1.01.72,1.33.48.32,1.44.63,2.89.95,1.45.32,2.59.7,3.42,1.14.83.44,1.44.97,1.84,1.59.4.62.6,1.37.6,2.26,0,1.48-.62,2.68-1.84,3.6-1.23.92-2.84,1.38-4.83,1.38-1.35,0-2.55-.24-3.61-.73s-1.88-1.16-2.47-2.01c-.59-.85-.88-1.77-.88-2.76h3.6c.05.87.38,1.55.99,2.02.61.47,1.42.71,2.42.71s1.72-.18,2.22-.56.76-.86.76-1.46Z"/><path class="cls-12" d="m577.86,754.13c-.22,2.37-1.1,4.21-2.62,5.54-1.52,1.33-3.55,1.99-6.08,1.99-1.77,0-3.32-.42-4.67-1.26-1.35-.84-2.38-2.03-3.12-3.57s-1.11-3.34-1.14-5.38v-2.07c0-2.09.37-3.94,1.11-5.53.74-1.59,1.81-2.82,3.19-3.69s2.99-1.29,4.81-1.29c2.45,0,4.42.66,5.91,1.99,1.49,1.33,2.36,3.2,2.61,5.63h-3.84c-.18-1.59-.65-2.75-1.39-3.45-.75-.71-1.84-1.06-3.28-1.06-1.68,0-2.96.61-3.86,1.84s-1.36,3.02-1.38,5.39v1.97c0,2.4.43,4.23,1.29,5.49.86,1.26,2.12,1.89,3.77,1.89,1.51,0,2.65-.34,3.41-1.02.76-.68,1.24-1.81,1.45-3.4h3.84Z"/><path class="cls-12" d="m580.25,752.96c0-1.62.32-3.07.96-4.37.64-1.3,1.54-2.29,2.7-2.99,1.16-.7,2.49-1.04,3.99-1.04,2.22,0,4.03.72,5.42,2.15s2.14,3.33,2.25,5.7v.87c.01,1.62-.3,3.08-.92,4.36-.62,1.28-1.52,2.27-2.68,2.97-1.16.7-2.51,1.05-4.03,1.05-2.33,0-4.19-.77-5.58-2.32-1.4-1.55-2.09-3.61-2.09-6.19v-.18Zm3.7.32c0,1.7.35,3.02,1.05,3.98s1.68,1.44,2.93,1.44,2.22-.49,2.92-1.46,1.04-2.4,1.04-4.28c0-1.67-.36-2.99-1.07-3.96-.72-.97-1.69-1.46-2.92-1.46s-2.17.48-2.88,1.44c-.71.96-1.07,2.39-1.07,4.3Z"/><path class="cls-12" d="m602.15,744.87l.11,1.9c1.22-1.47,2.82-2.21,4.8-2.21,3.43,0,5.18,1.97,5.24,5.9v10.9h-3.7v-10.68c0-1.05-.23-1.82-.68-2.32s-1.19-.75-2.22-.75c-1.49,0-2.61.68-3.34,2.03v11.73h-3.7v-16.49h3.49Z"/><path class="cls-12" d="m619.5,744.87l.11,1.9c1.22-1.47,2.82-2.21,4.8-2.21,3.43,0,5.18,1.97,5.24,5.9v10.9h-3.7v-10.68c0-1.05-.23-1.82-.68-2.32s-1.19-.75-2.22-.75c-1.49,0-2.61.68-3.34,2.03v11.73h-3.7v-16.49h3.49Z"/><path class="cls-12" d="m640.68,761.66c-2.35,0-4.25-.74-5.71-2.22-1.46-1.48-2.19-3.45-2.19-5.91v-.46c0-1.65.32-3.12.95-4.41s1.53-2.3,2.67-3.03c1.15-.72,2.43-1.08,3.84-1.08,2.25,0,3.98.72,5.2,2.15,1.22,1.43,1.84,3.46,1.84,6.08v1.49h-10.77c.11,1.36.57,2.44,1.36,3.23.8.79,1.8,1.19,3.01,1.19,1.7,0,3.08-.69,4.15-2.06l2,1.91c-.66.99-1.54,1.75-2.64,2.29-1.1.54-2.34.82-3.71.82Zm-.44-14.13c-1.02,0-1.84.36-2.46,1.07-.62.71-1.02,1.7-1.2,2.97h7.06v-.27c-.08-1.24-.41-2.18-.99-2.81s-1.38-.95-2.41-.95Z"/><path class="cls-12" d="m656.94,758.7c.92,0,1.69-.27,2.3-.81s.93-1.2.97-2h3.49c-.04,1.03-.36,1.98-.96,2.87-.6.89-1.41,1.59-2.44,2.11-1.03.52-2.13.78-3.32.78-2.31,0-4.13-.75-5.49-2.24-1.35-1.49-2.03-3.55-2.03-6.19v-.38c0-2.51.67-4.52,2.01-6.03,1.34-1.51,3.17-2.26,5.49-2.26,1.96,0,3.56.57,4.79,1.71s1.88,2.64,1.94,4.5h-3.49c-.04-.94-.36-1.72-.97-2.33-.6-.61-1.37-.92-2.31-.92-1.2,0-2.12.43-2.77,1.3-.65.87-.98,2.19-.99,3.96v.59c0,1.79.32,3.12.97,4,.65.88,1.58,1.32,2.8,1.32Z"/><path class="cls-12" d="m671.14,740.86v4.01h2.91v2.74h-2.91v9.2c0,.63.12,1.08.37,1.36s.69.42,1.33.42c.43,0,.86-.05,1.29-.15v2.86c-.84.23-1.66.35-2.44.35-2.84,0-4.27-1.57-4.27-4.71v-9.34h-2.71v-2.74h2.71v-4.01h3.7Z"/><path class="cls-12" d="m686.12,756.88c0-.66-.27-1.16-.81-1.51-.54-.35-1.45-.65-2.71-.92-1.26-.26-2.31-.6-3.15-1-1.85-.89-2.77-2.19-2.77-3.89,0-1.42.6-2.61,1.8-3.57,1.2-.95,2.72-1.43,4.57-1.43,1.97,0,3.56.49,4.78,1.46,1.21.97,1.82,2.24,1.82,3.79h-3.7c0-.71-.26-1.3-.79-1.78s-1.23-.71-2.1-.71c-.81,0-1.48.19-1.99.56s-.77.88-.77,1.51c0,.57.24,1.01.72,1.33.48.32,1.44.63,2.89.95,1.45.32,2.59.7,3.42,1.14.83.44,1.44.97,1.84,1.59.4.62.6,1.37.6,2.26,0,1.48-.62,2.68-1.84,3.6-1.23.92-2.84,1.38-4.83,1.38-1.35,0-2.55-.24-3.61-.73s-1.88-1.16-2.47-2.01c-.59-.85-.88-1.77-.88-2.76h3.6c.05.87.38,1.55.99,2.02.61.47,1.42.71,2.42.71s1.72-.18,2.22-.56.76-.86.76-1.46Z"/><path class="cls-12" d="m702.99,744.52c.69,0,1.22.2,1.6.59.38.39.56.88.56,1.47s-.19,1.06-.56,1.44-.91.57-1.6.57-1.18-.19-1.57-.56c-.39-.38-.58-.86-.58-1.45s.19-1.08.56-1.47c.38-.39.9-.59,1.58-.59Zm0,12.94c.69,0,1.22.2,1.6.59.38.39.56.88.56,1.47s-.19,1.06-.56,1.44c-.38.38-.91.57-1.6.57s-1.18-.19-1.57-.56c-.39-.38-.58-.86-.58-1.45s.19-1.08.56-1.47c.38-.39.9-.59,1.58-.59Z"/><path class="cls-32" d="m726.6,761.36h-3.69v-17.82l-5.44,1.85v-3.11l8.66-3.18h.47v22.26Z"/><path class="cls-21" d="m476.45,818.96h-3.84v-22.19h3.84v22.19Z"/><path class="cls-21" d="m485.04,810.74v8.23h-3.86v-22.19h8.49c2.48,0,4.45.65,5.9,1.94,1.46,1.29,2.19,3,2.19,5.12s-.71,3.87-2.14,5.08c-1.43,1.21-3.43,1.82-6,1.82h-4.59Zm0-3.11h4.63c1.37,0,2.42-.32,3.14-.97s1.08-1.58,1.08-2.8-.37-2.16-1.1-2.87c-.73-.72-1.74-1.08-3.02-1.1h-4.74v7.74Z"/><path class="cls-21" d="m512.76,810.74v8.23h-3.86v-22.19h8.49c2.48,0,4.45.65,5.9,1.94,1.46,1.29,2.19,3,2.19,5.12s-.71,3.87-2.14,5.08c-1.43,1.21-3.43,1.82-6,1.82h-4.59Zm0-3.11h4.63c1.37,0,2.42-.32,3.14-.97s1.08-1.58,1.08-2.8-.37-2.16-1.1-2.87c-.73-.72-1.74-1.08-3.02-1.1h-4.74v7.74Z"/><path class="cls-21" d="m527.6,810.57c0-1.62.32-3.07.96-4.37.64-1.3,1.54-2.29,2.7-2.99,1.16-.7,2.49-1.04,3.99-1.04,2.22,0,4.03.72,5.42,2.15s2.14,3.33,2.25,5.7v.87c.01,1.62-.3,3.08-.92,4.36-.62,1.28-1.52,2.27-2.68,2.97-1.16.7-2.51,1.05-4.03,1.05-2.33,0-4.19-.77-5.58-2.32-1.4-1.55-2.09-3.61-2.09-6.19v-.18Zm3.7.32c0,1.7.35,3.02,1.05,3.98s1.68,1.44,2.93,1.44,2.22-.49,2.92-1.46,1.04-2.4,1.04-4.28c0-1.67-.36-2.99-1.07-3.96-.72-.97-1.69-1.46-2.92-1.46s-2.17.48-2.88,1.44c-.71.96-1.07,2.39-1.07,4.3Z"/><path class="cls-21" d="m545.37,810.57c0-1.62.32-3.07.96-4.37.64-1.3,1.54-2.29,2.7-2.99,1.16-.7,2.49-1.04,3.99-1.04,2.22,0,4.03.72,5.42,2.15s2.14,3.33,2.25,5.7v.87c.01,1.62-.3,3.08-.92,4.36-.62,1.28-1.52,2.27-2.68,2.97-1.16.7-2.51,1.05-4.03,1.05-2.33,0-4.19-.77-5.58-2.32-1.4-1.55-2.09-3.61-2.09-6.19v-.18Zm3.7.32c0,1.7.35,3.02,1.05,3.98s1.68,1.44,2.93,1.44,2.22-.49,2.92-1.46,1.04-2.4,1.04-4.28c0-1.67-.36-2.99-1.07-3.96-.72-.97-1.69-1.46-2.92-1.46s-2.17.48-2.88,1.44c-.71.96-1.07,2.39-1.07,4.3Z"/><path class="cls-21" d="m567.77,818.96h-3.7v-23.41h3.7v23.41Z"/><path class="cls-21" d="m581.8,802.13c.69,0,1.22.2,1.6.59.38.39.56.88.56,1.47s-.19,1.06-.56,1.44-.91.57-1.6.57-1.18-.19-1.57-.56c-.39-.38-.58-.86-.58-1.45s.19-1.08.56-1.47c.38-.39.9-.59,1.58-.59Zm0,12.94c.69,0,1.22.2,1.6.59.38.39.56.88.56,1.47s-.19,1.06-.56,1.44c-.38.38-.91.57-1.6.57s-1.18-.19-1.57-.56c-.39-.38-.58-.86-.58-1.45s.19-1.08.56-1.47c.38-.39.9-.59,1.58-.59Z"/><path class="cls-32" d="m596.66,820.87h-2.91l8.73-24.09h2.91l-8.73,24.09Z"/><path class="cls-32" d="m622.64,818.96h-14.92v-2.54l7.39-8.06c1.07-1.19,1.83-2.18,2.28-2.98.45-.8.68-1.6.68-2.4,0-1.06-.3-1.91-.89-2.56-.59-.65-1.39-.97-2.4-.97-1.2,0-2.13.37-2.79,1.1s-.99,1.73-.99,3h-3.7c0-1.35.31-2.57.92-3.65.61-1.08,1.49-1.92,2.64-2.52,1.14-.6,2.46-.9,3.96-.9,2.15,0,3.85.54,5.1,1.62,1.24,1.08,1.87,2.58,1.87,4.49,0,1.11-.31,2.27-.94,3.48-.62,1.21-1.65,2.59-3.07,4.14l-5.42,5.81h10.3v2.96Z"/><path class="cls-32" d="m635.96,809.68c-1.24,1.31-2.69,1.97-4.34,1.97-1.95,0-3.5-.68-4.66-2.05-1.16-1.37-1.74-3.16-1.74-5.39,0-1.46.29-2.79.88-3.98s1.43-2.11,2.51-2.77,2.35-.99,3.78-.99c2.23,0,4.01.83,5.32,2.5s1.97,3.9,1.97,6.69v1.04c0,4-.9,7.06-2.71,9.16-1.81,2.1-4.51,3.17-8.09,3.2h-.44v-3.06h.53c2.18-.03,3.86-.56,5.03-1.58,1.17-1.02,1.82-2.6,1.97-4.73Zm-3.57-.93c.74,0,1.44-.21,2.09-.64s1.15-1.02,1.51-1.77v-1.45c0-1.64-.33-2.95-1.01-3.95-.67-1-1.54-1.49-2.61-1.49s-1.92.44-2.55,1.32-.95,1.99-.95,3.33.32,2.51.96,3.37,1.49,1.28,2.56,1.28Z"/><path class="cls-12" d="m472.38,876.57v-22.19h6.55c1.96,0,3.7.44,5.22,1.31s2.69,2.11,3.53,3.72c.83,1.61,1.25,3.44,1.25,5.52v1.11c0,2.1-.42,3.95-1.26,5.55s-2.03,2.82-3.58,3.69c-1.55.86-3.32,1.29-5.33,1.29h-6.38Zm3.86-19.08v16h2.51c2.02,0,3.57-.63,4.66-1.9s1.63-3.08,1.65-5.45v-1.23c0-2.41-.52-4.25-1.57-5.52-1.05-1.27-2.57-1.91-4.56-1.91h-2.7Z"/><path class="cls-12" d="m499.67,876.88c-2.35,0-4.25-.74-5.71-2.22-1.46-1.48-2.19-3.45-2.19-5.91v-.46c0-1.65.32-3.12.95-4.41s1.53-2.3,2.67-3.03c1.15-.72,2.43-1.08,3.84-1.08,2.25,0,3.98.72,5.2,2.15,1.22,1.43,1.84,3.46,1.84,6.08v1.49h-10.77c.11,1.36.57,2.44,1.36,3.23.8.79,1.8,1.19,3.01,1.19,1.7,0,3.08-.69,4.15-2.06l2,1.91c-.66.99-1.54,1.75-2.64,2.29-1.1.54-2.34.82-3.71.82Zm-.44-14.13c-1.02,0-1.84.36-2.46,1.07-.62.71-1.02,1.7-1.2,2.97h7.06v-.27c-.08-1.24-.41-2.18-.99-2.81s-1.38-.95-2.41-.95Z"/><path class="cls-12" d="m508.46,868.21c0-2.54.59-4.58,1.77-6.12,1.18-1.54,2.76-2.31,4.74-2.31,1.75,0,3.16.61,4.24,1.83v-8.44h3.7v23.41h-3.35l-.18-1.71c-1.11,1.34-2.59,2.01-4.43,2.01s-3.49-.78-4.69-2.33c-1.19-1.55-1.79-3.67-1.79-6.34Zm3.7.32c0,1.68.32,2.98.97,3.92.65.94,1.56,1.41,2.75,1.41,1.51,0,2.62-.68,3.32-2.03v-7.04c-.68-1.32-1.78-1.98-3.29-1.98-1.2,0-2.12.47-2.77,1.42s-.98,2.38-.98,4.29Z"/><path class="cls-12" d="m526.78,855.8c0-.57.18-1.04.54-1.42.36-.38.88-.56,1.55-.56s1.19.19,1.55.56c.37.38.55.85.55,1.42s-.18,1.02-.55,1.39c-.37.37-.88.56-1.55.56s-1.19-.18-1.55-.56c-.36-.37-.54-.84-.54-1.39Zm3.93,20.77h-3.7v-16.49h3.7v16.49Z"/><path class="cls-12" d="m541.51,873.92c.92,0,1.69-.27,2.3-.81s.93-1.2.97-2h3.49c-.04,1.03-.36,1.98-.96,2.87-.6.89-1.41,1.59-2.44,2.11-1.03.52-2.13.78-3.32.78-2.31,0-4.13-.75-5.49-2.24-1.35-1.49-2.03-3.55-2.03-6.19v-.38c0-2.51.67-4.52,2.01-6.03,1.34-1.51,3.17-2.26,5.49-2.26,1.96,0,3.56.57,4.79,1.71s1.88,2.64,1.94,4.5h-3.49c-.04-.94-.36-1.72-.97-2.33-.6-.61-1.37-.92-2.31-.92-1.2,0-2.12.43-2.77,1.3-.65.87-.98,2.19-.99,3.96v.59c0,1.79.32,3.12.97,4,.65.88,1.58,1.32,2.8,1.32Z"/><path class="cls-12" d="m560.93,876.57c-.16-.31-.31-.83-.43-1.54-1.18,1.23-2.62,1.84-4.33,1.84s-3.01-.47-4.05-1.42c-1.05-.95-1.57-2.11-1.57-3.5,0-1.76.65-3.11,1.96-4.05,1.31-.94,3.17-1.41,5.6-1.41h2.27v-1.08c0-.85-.24-1.54-.72-2.05-.48-.51-1.2-.77-2.18-.77-.84,0-1.53.21-2.07.63-.54.42-.81.96-.81,1.61h-3.7c0-.9.3-1.75.9-2.54s1.41-1.4,2.45-1.85c1.03-.45,2.18-.67,3.45-.67,1.93,0,3.47.48,4.62,1.46,1.15.97,1.74,2.33,1.77,4.09v7.44c0,1.48.21,2.67.62,3.55v.26h-3.78Zm-4.07-2.67c.73,0,1.42-.18,2.07-.53.64-.36,1.13-.83,1.46-1.43v-3.11h-2c-1.37,0-2.4.24-3.09.72s-1.04,1.15-1.04,2.03c0,.71.24,1.28.71,1.7.47.42,1.1.63,1.9.63Z"/><path class="cls-12" d="m572.6,856.08v4.01h2.91v2.74h-2.91v9.2c0,.63.12,1.08.37,1.36s.69.42,1.33.42c.43,0,.86-.05,1.29-.15v2.86c-.84.23-1.66.35-2.44.35-2.84,0-4.27-1.57-4.27-4.71v-9.34h-2.71v-2.74h2.71v-4.01h3.7Z"/><path class="cls-12" d="m585.6,876.88c-2.35,0-4.25-.74-5.71-2.22-1.46-1.48-2.19-3.45-2.19-5.91v-.46c0-1.65.32-3.12.95-4.41s1.53-2.3,2.67-3.03c1.15-.72,2.43-1.08,3.84-1.08,2.25,0,3.98.72,5.2,2.15,1.22,1.43,1.84,3.46,1.84,6.08v1.49h-10.77c.11,1.36.57,2.44,1.36,3.23.8.79,1.8,1.19,3.01,1.19,1.7,0,3.08-.69,4.15-2.06l2,1.91c-.66.99-1.54,1.75-2.64,2.29-1.1.54-2.34.82-3.71.82Zm-.44-14.13c-1.02,0-1.84.36-2.46,1.07-.62.71-1.02,1.7-1.2,2.97h7.06v-.27c-.08-1.24-.41-2.18-.99-2.81s-1.38-.95-2.41-.95Z"/><path class="cls-12" d="m594.39,868.21c0-2.54.59-4.58,1.77-6.12,1.18-1.54,2.76-2.31,4.74-2.31,1.75,0,3.16.61,4.24,1.83v-8.44h3.7v23.41h-3.35l-.18-1.71c-1.11,1.34-2.59,2.01-4.43,2.01s-3.49-.78-4.69-2.33c-1.19-1.55-1.79-3.67-1.79-6.34Zm3.7.32c0,1.68.32,2.98.97,3.92.65.94,1.56,1.41,2.75,1.41,1.51,0,2.62-.68,3.32-2.03v-7.04c-.68-1.32-1.78-1.98-3.29-1.98-1.2,0-2.12.47-2.77,1.42s-.98,2.38-.98,4.29Z"/><path class="cls-12" d="m624.9,876.57h-3.84v-22.19h3.84v22.19Z"/><path class="cls-12" d="m632.71,860.09l.11,1.9c1.22-1.47,2.82-2.21,4.8-2.21,3.43,0,5.18,1.97,5.24,5.9v10.9h-3.7v-10.68c0-1.05-.23-1.82-.68-2.32s-1.19-.75-2.22-.75c-1.49,0-2.61.68-3.34,2.03v11.73h-3.7v-16.49h3.49Z"/><path class="cls-12" d="m651.27,856.08v4.01h2.91v2.74h-2.91v9.2c0,.63.12,1.08.37,1.36s.69.42,1.33.42c.43,0,.86-.05,1.29-.15v2.86c-.84.23-1.66.35-2.44.35-2.84,0-4.27-1.57-4.27-4.71v-9.34h-2.71v-2.74h2.71v-4.01h3.7Z"/><path class="cls-12" d="m664.27,876.88c-2.35,0-4.25-.74-5.71-2.22-1.46-1.48-2.19-3.45-2.19-5.91v-.46c0-1.65.32-3.12.95-4.41s1.53-2.3,2.67-3.03c1.15-.72,2.43-1.08,3.84-1.08,2.25,0,3.98.72,5.2,2.15,1.22,1.43,1.84,3.46,1.84,6.08v1.49h-10.77c.11,1.36.57,2.44,1.36,3.23.8.79,1.8,1.19,3.01,1.19,1.7,0,3.08-.69,4.15-2.06l2,1.91c-.66.99-1.54,1.75-2.64,2.29-1.1.54-2.34.82-3.71.82Zm-.44-14.13c-1.02,0-1.84.36-2.46,1.07-.62.71-1.02,1.7-1.2,2.97h7.06v-.27c-.08-1.24-.41-2.18-.99-2.81s-1.38-.95-2.41-.95Z"/><path class="cls-12" d="m682.39,863.47c-.49-.08-.99-.12-1.51-.12-1.7,0-2.84.65-3.43,1.95v11.28h-3.7v-16.49h3.54l.09,1.84c.89-1.43,2.13-2.15,3.72-2.15.53,0,.96.07,1.31.21l-.02,3.47Z"/><path class="cls-12" d="m688.17,860.09l.11,1.9c1.22-1.47,2.82-2.21,4.8-2.21,3.43,0,5.18,1.97,5.24,5.9v10.9h-3.7v-10.68c0-1.05-.23-1.82-.68-2.32s-1.19-.75-2.22-.75c-1.49,0-2.61.68-3.34,2.03v11.73h-3.7v-16.49h3.49Z"/><path class="cls-12" d="m709.35,876.88c-2.35,0-4.25-.74-5.71-2.22-1.46-1.48-2.19-3.45-2.19-5.91v-.46c0-1.65.32-3.12.95-4.41s1.53-2.3,2.67-3.03c1.15-.72,2.43-1.08,3.84-1.08,2.25,0,3.98.72,5.2,2.15,1.22,1.43,1.84,3.46,1.84,6.08v1.49h-10.77c.11,1.36.57,2.44,1.36,3.23.8.79,1.8,1.19,3.01,1.19,1.7,0,3.08-.69,4.15-2.06l2,1.91c-.66.99-1.54,1.75-2.64,2.29-1.1.54-2.34.82-3.71.82Zm-.44-14.13c-1.02,0-1.84.36-2.46,1.07-.62.71-1.02,1.7-1.2,2.97h7.06v-.27c-.08-1.24-.41-2.18-.99-2.81s-1.38-.95-2.41-.95Z"/><path class="cls-12" d="m723.47,856.08v4.01h2.91v2.74h-2.91v9.2c0,.63.12,1.08.37,1.36s.69.42,1.33.42c.43,0,.86-.05,1.29-.15v2.86c-.84.23-1.66.35-2.44.35-2.84,0-4.27-1.57-4.27-4.71v-9.34h-2.71v-2.74h2.71v-4.01h3.7Z"/><path class="cls-12" d="m472.38,914.02v-22.19h7.6c2.51,0,4.42.5,5.73,1.51,1.31,1,1.97,2.5,1.97,4.5,0,1.02-.27,1.93-.82,2.74-.55.81-1.35,1.44-2.41,1.89,1.2.33,2.12.94,2.78,1.84.66.9.98,1.98.98,3.24,0,2.08-.67,3.68-2,4.8-1.34,1.12-3.25,1.68-5.74,1.68h-8.09Zm3.86-12.85h3.78c1.2,0,2.14-.27,2.81-.82.67-.54,1.01-1.31,1.01-2.31,0-1.1-.31-1.89-.94-2.38s-1.6-.73-2.92-.73h-3.75v6.23Zm0,2.83v6.93h4.28c1.21,0,2.15-.3,2.83-.9.68-.6,1.02-1.43,1.02-2.5,0-2.31-1.18-3.48-3.54-3.54h-4.6Z"/><path class="cls-12" d="m501.56,914.02c-.16-.31-.31-.83-.43-1.54-1.18,1.23-2.62,1.84-4.33,1.84s-3.01-.47-4.05-1.42c-1.05-.95-1.57-2.11-1.57-3.5,0-1.76.65-3.11,1.96-4.05,1.31-.94,3.17-1.41,5.6-1.41h2.27v-1.08c0-.85-.24-1.54-.72-2.05-.48-.51-1.2-.77-2.18-.77-.84,0-1.53.21-2.07.63-.54.42-.81.96-.81,1.61h-3.7c0-.9.3-1.75.9-2.54s1.41-1.4,2.45-1.85c1.03-.45,2.18-.67,3.45-.67,1.93,0,3.47.48,4.62,1.46,1.15.97,1.74,2.33,1.77,4.09v7.44c0,1.48.21,2.67.62,3.55v.26h-3.78Zm-4.07-2.67c.73,0,1.42-.18,2.07-.53.64-.36,1.13-.83,1.46-1.43v-3.11h-2c-1.37,0-2.4.24-3.09.72s-1.04,1.15-1.04,2.03c0,.71.24,1.28.71,1.7.47.42,1.1.63,1.9.63Z"/><path class="cls-12" d="m512.03,897.53l.11,1.9c1.22-1.47,2.82-2.21,4.8-2.21,3.43,0,5.18,1.97,5.24,5.9v10.9h-3.7v-10.68c0-1.05-.23-1.82-.68-2.32s-1.19-.75-2.22-.75c-1.49,0-2.61.68-3.34,2.03v11.73h-3.7v-16.49h3.49Z"/><path class="cls-12" d="m525.26,905.66c0-2.54.59-4.58,1.77-6.12,1.18-1.54,2.76-2.31,4.74-2.31,1.75,0,3.16.61,4.24,1.83v-8.44h3.7v23.41h-3.35l-.18-1.71c-1.11,1.34-2.59,2.01-4.43,2.01s-3.49-.78-4.69-2.33c-1.19-1.55-1.79-3.67-1.79-6.34Zm3.7.32c0,1.68.32,2.98.97,3.92.65.94,1.56,1.41,2.75,1.41,1.51,0,2.62-.68,3.32-2.03v-7.04c-.68-1.32-1.78-1.98-3.29-1.98-1.2,0-2.12.47-2.77,1.42s-.98,2.38-.98,4.29Z"/><path class="cls-12" d="m558.05,908.92l2.62-11.38h3.61l-4.5,16.49h-3.05l-3.54-11.32-3.47,11.32h-3.05l-4.51-16.49h3.61l2.67,11.26,3.38-11.26h2.79l3.43,11.38Z"/><path class="cls-12" d="m566.76,893.25c0-.57.18-1.04.54-1.42.36-.38.88-.56,1.55-.56s1.19.19,1.55.56c.37.38.55.85.55,1.42s-.18,1.02-.55,1.39c-.37.37-.88.56-1.55.56s-1.19-.18-1.55-.56c-.36-.37-.54-.84-.54-1.39Zm3.93,20.77h-3.7v-16.49h3.7v16.49Z"/><path class="cls-12" d="m574.03,905.66c0-2.54.59-4.58,1.77-6.12,1.18-1.54,2.76-2.31,4.74-2.31,1.75,0,3.16.61,4.24,1.83v-8.44h3.7v23.41h-3.35l-.18-1.71c-1.11,1.34-2.59,2.01-4.43,2.01s-3.49-.78-4.69-2.33c-1.19-1.55-1.79-3.67-1.79-6.34Zm3.7.32c0,1.68.32,2.98.97,3.92.65.94,1.56,1.41,2.75,1.41,1.51,0,2.62-.68,3.32-2.03v-7.04c-.68-1.32-1.78-1.98-3.29-1.98-1.2,0-2.12.47-2.77,1.42s-.98,2.38-.98,4.29Z"/><path class="cls-12" d="m596.98,893.53v4.01h2.91v2.74h-2.91v9.2c0,.63.12,1.08.37,1.36s.69.42,1.33.42c.43,0,.86-.05,1.29-.15v2.86c-.84.23-1.66.35-2.44.35-2.84,0-4.27-1.57-4.27-4.71v-9.34h-2.71v-2.74h2.71v-4.01h3.7Z"/><path class="cls-12" d="m606.37,899.33c1.21-1.4,2.74-2.1,4.59-2.1,3.51,0,5.3,2.01,5.35,6.02v10.77h-3.7v-10.64c0-1.14-.25-1.94-.74-2.42-.49-.47-1.22-.71-2.17-.71-1.48,0-2.59.66-3.32,1.98v11.78h-3.7v-23.41h3.7v8.72Z"/><path class="cls-12" d="m630.05,897.18c.69,0,1.22.2,1.6.59.38.39.56.88.56,1.47s-.19,1.06-.56,1.44-.91.57-1.6.57-1.18-.19-1.57-.56c-.39-.38-.58-.86-.58-1.45s.19-1.08.56-1.47c.38-.39.9-.59,1.58-.59Zm0,12.94c.69,0,1.22.2,1.6.59.38.39.56.88.56,1.47s-.19,1.06-.56,1.44c-.38.38-.91.57-1.6.57s-1.18-.19-1.57-.56c-.39-.38-.58-.86-.58-1.45s.19-1.08.56-1.47c.38-.39.9-.59,1.58-.59Z"/><path class="cls-32" d="m653.58,914.02h-3.69v-17.82l-5.44,1.85v-3.11l8.66-3.18h.47v22.26Z"/><path class="cls-32" d="m675.75,904.68c0,3.19-.6,5.59-1.79,7.21-1.19,1.62-3.01,2.43-5.45,2.43s-4.2-.79-5.42-2.37c-1.21-1.58-1.84-3.92-1.87-7.02v-3.84c0-3.19.6-5.58,1.79-7.18,1.19-1.59,3.01-2.39,5.46-2.39s4.24.78,5.43,2.33c1.19,1.55,1.81,3.88,1.84,6.98v3.84Zm-3.7-4.14c0-2.08-.28-3.61-.85-4.58-.57-.97-1.47-1.46-2.71-1.46s-2.1.46-2.67,1.38c-.57.92-.87,2.35-.9,4.3v5.03c0,2.07.29,3.62.87,4.63.58,1.02,1.49,1.52,2.73,1.52s2.07-.47,2.64-1.41c.57-.94.87-2.41.9-4.41v-5.01Z"/><path class="cls-32" d="m692.39,891.84l6.4,17.01,6.38-17.01h4.98v22.19h-3.84v-7.31l.38-9.78-6.55,17.1h-2.76l-6.54-17.08.38,9.77v7.31h-3.84v-22.19h5Z"/><path class="cls-32" d="m728.82,905.95c0,2.56-.57,4.6-1.71,6.11s-2.71,2.27-4.72,2.27-3.43-.7-4.51-2.09l-.18,1.78h-3.35v-23.41h3.7v8.5c1.07-1.26,2.5-1.89,4.31-1.89,2.01,0,3.59.75,4.74,2.24,1.15,1.49,1.72,3.58,1.72,6.26v.21Zm-3.7-.32c0-1.79-.32-3.13-.95-4.02s-1.54-1.34-2.74-1.34c-1.61,0-2.73.7-3.38,2.1v6.8c.66,1.43,1.8,2.15,3.41,2.15,1.16,0,2.05-.43,2.68-1.3s.96-2.17.98-3.92v-.47Z"/><path class="cls-32" d="m746.36,905.95c0,2.55-.58,4.58-1.74,6.1-1.16,1.52-2.71,2.28-4.66,2.28-1.81,0-3.26-.59-4.34-1.78v7.82h-3.7v-22.83h3.41l.15,1.68c1.09-1.32,2.57-1.98,4.43-1.98,2.01,0,3.59.75,4.73,2.25,1.14,1.5,1.71,3.58,1.71,6.24v.23Zm-3.69-.32c0-1.65-.33-2.95-.98-3.92-.66-.96-1.59-1.45-2.81-1.45-1.51,0-2.6.62-3.26,1.87v7.31c.67,1.28,1.77,1.92,3.29,1.92,1.18,0,2.1-.47,2.77-1.42s1-2.39,1-4.32Z"/><path class="cls-32" d="m758.73,909.54c0-.66-.27-1.16-.81-1.51-.54-.35-1.45-.65-2.71-.92-1.26-.26-2.31-.6-3.15-1-1.85-.89-2.77-2.19-2.77-3.89,0-1.42.6-2.61,1.8-3.57,1.2-.95,2.72-1.43,4.57-1.43,1.97,0,3.56.49,4.78,1.46,1.21.97,1.82,2.24,1.82,3.79h-3.7c0-.71-.26-1.3-.79-1.78s-1.23-.71-2.1-.71c-.81,0-1.48.19-1.99.56s-.77.88-.77,1.51c0,.57.24,1.01.72,1.33.48.32,1.44.63,2.89.95,1.45.32,2.59.7,3.42,1.14.83.44,1.44.97,1.84,1.59.4.62.6,1.37.6,2.26,0,1.48-.62,2.68-1.84,3.6-1.23.92-2.84,1.38-4.83,1.38-1.35,0-2.55-.24-3.61-.73s-1.88-1.16-2.47-2.01c-.59-.85-.88-1.77-.88-2.76h3.6c.05.87.38,1.55.99,2.02.61.47,1.42.71,2.42.71s1.72-.18,2.22-.56.76-.86.76-1.46Z"/><path class="cls-21" d="m480.53,954.65h-4.3v8.53h-3.86v-22.19h7.8c2.56,0,4.54.57,5.93,1.72,1.39,1.15,2.09,2.81,2.09,4.99,0,1.49-.36,2.73-1.07,3.73-.72,1-1.71,1.77-2.99,2.31l4.98,9.24v.2h-4.13l-4.45-8.53Zm-4.3-3.11h3.96c1.3,0,2.32-.33,3.05-.98s1.1-1.55,1.1-2.69-.34-2.11-1.01-2.76c-.68-.65-1.68-.99-3.03-1.01h-4.07v7.44Z"/><path class="cls-21" d="m509.47,963.18h-3.84v-9.84h-9.92v9.84h-3.86v-22.19h3.86v9.23h9.92v-9.23h3.84v22.19Z"/><path class="cls-21" d="m526.99,953.28h-9.11v6.83h10.65v3.08h-14.51v-22.19h14.4v3.11h-10.54v6.13h9.11v3.05Z"/><path class="cls-21" d="m543.27,957.47c0-.98-.34-1.73-1.03-2.26-.69-.53-1.92-1.06-3.71-1.6s-3.21-1.14-4.27-1.8c-2.02-1.27-3.03-2.93-3.03-4.97,0-1.79.73-3.26,2.19-4.42s3.35-1.74,5.68-1.74c1.54,0,2.92.28,4.13.85,1.21.57,2.16,1.38,2.85,2.43.69,1.05,1.04,2.22,1.04,3.5h-3.84c0-1.16-.36-2.06-1.09-2.72s-1.76-.98-3.12-.98c-1.26,0-2.24.27-2.93.81-.7.54-1.04,1.29-1.04,2.25,0,.81.38,1.49,1.13,2.03.75.54,1.99,1.07,3.72,1.58,1.73.51,3.11,1.1,4.16,1.75,1.05.66,1.81,1.41,2.3,2.26.49.85.73,1.84.73,2.98,0,1.85-.71,3.32-2.13,4.41s-3.34,1.64-5.77,1.64c-1.61,0-3.08-.3-4.43-.89-1.35-.59-2.39-1.41-3.14-2.46-.75-1.05-1.12-2.26-1.12-3.66h3.85c0,1.26.42,2.24,1.25,2.93.83.69,2.03,1.04,3.58,1.04,1.34,0,2.35-.27,3.02-.81.68-.54,1.01-1.26,1.01-2.16Z"/><path class="cls-21" d="m560.15,946.34c.69,0,1.22.2,1.6.59.38.39.56.88.56,1.47s-.19,1.06-.56,1.44-.91.57-1.6.57-1.18-.19-1.57-.56c-.39-.38-.58-.86-.58-1.45s.19-1.08.56-1.47c.38-.39.9-.59,1.58-.59Zm0,12.94c.69,0,1.22.2,1.6.59.38.39.56.88.56,1.47s-.19,1.06-.56,1.44c-.38.38-.91.57-1.6.57s-1.18-.19-1.57-.56c-.39-.38-.58-.86-.58-1.45s.19-1.08.56-1.47c.38-.39.9-.59,1.58-.59Z"/><path class="cls-32" d="m585.17,940.89v3.06h-.46c-2.07.03-3.73.6-4.97,1.71s-1.98,2.68-2.21,4.71c1.19-1.25,2.71-1.87,4.56-1.87,1.96,0,3.51.69,4.64,2.07,1.13,1.38,1.7,3.17,1.7,5.35s-.66,4.08-1.99,5.48c-1.33,1.4-3.07,2.09-5.22,2.09s-4.01-.82-5.39-2.45c-1.38-1.64-2.06-3.78-2.06-6.43v-1.26c0-3.89.95-6.94,2.84-9.14,1.89-2.21,4.62-3.31,8.17-3.31h.38Zm-3.98,10.59c-.81,0-1.56.23-2.23.69-.68.46-1.17,1.07-1.49,1.83v1.13c0,1.65.35,2.95,1.04,3.92.69.97,1.58,1.46,2.68,1.46s1.97-.41,2.61-1.23c.64-.82.96-1.91.96-3.25s-.33-2.43-.98-3.28c-.65-.84-1.51-1.26-2.59-1.26Z"/><path class="cls-32" d="m617.37,963.18h-3.84v-9.84h-9.92v9.84h-3.86v-22.19h3.86v9.23h9.92v-9.23h3.84v22.19Z"/><path class="cls-32" d="m620.88,954.78c0-1.62.32-3.07.96-4.37.64-1.3,1.54-2.29,2.7-2.99,1.16-.7,2.49-1.04,3.99-1.04,2.22,0,4.03.72,5.42,2.15s2.14,3.33,2.25,5.7v.87c.01,1.62-.3,3.08-.92,4.36-.62,1.28-1.52,2.27-2.68,2.97-1.16.7-2.51,1.05-4.03,1.05-2.33,0-4.19-.77-5.58-2.32-1.4-1.55-2.09-3.61-2.09-6.19v-.18Zm3.7.32c0,1.7.35,3.02,1.05,3.98s1.68,1.44,2.93,1.44,2.22-.49,2.92-1.46,1.04-2.4,1.04-4.28c0-1.67-.36-2.99-1.07-3.96-.72-.97-1.69-1.46-2.92-1.46s-2.17.48-2.88,1.44c-.71.96-1.07,2.39-1.07,4.3Z"/><path class="cls-32" d="m649.32,961.57c-1.09,1.28-2.63,1.92-4.63,1.92-1.79,0-3.14-.52-4.06-1.57-.92-1.05-1.38-2.56-1.38-4.54v-10.68h3.7v10.64c0,2.09.87,3.14,2.61,3.14s3.01-.65,3.64-1.94v-11.84h3.7v16.49h-3.49l-.09-1.62Z"/><path class="cls-32" d="m665.31,950.08c-.49-.08-.99-.12-1.51-.12-1.7,0-2.84.65-3.43,1.95v11.28h-3.7v-16.49h3.54l.09,1.84c.89-1.43,2.13-2.15,3.72-2.15.53,0,.96.07,1.31.21l-.02,3.47Z"/><path class="cls-32" d="m676.89,958.7c0-.66-.27-1.16-.81-1.51-.54-.35-1.45-.65-2.71-.92-1.26-.26-2.31-.6-3.15-1-1.85-.89-2.77-2.19-2.77-3.89,0-1.42.6-2.61,1.8-3.57,1.2-.95,2.72-1.43,4.57-1.43,1.97,0,3.56.49,4.78,1.46,1.21.97,1.82,2.24,1.82,3.79h-3.7c0-.71-.26-1.3-.79-1.78s-1.23-.71-2.1-.71c-.81,0-1.48.19-1.99.56s-.77.88-.77,1.51c0,.57.24,1.01.72,1.33.48.32,1.44.63,2.89.95,1.45.32,2.59.7,3.42,1.14.83.44,1.44.97,1.84,1.59.4.62.6,1.37.6,2.26,0,1.48-.62,2.68-1.84,3.6-1.23.92-2.84,1.38-4.83,1.38-1.35,0-2.55-.24-3.61-.73s-1.88-1.16-2.47-2.01c-.59-.85-.88-1.77-.88-2.76h3.6c.05.87.38,1.55.99,2.02.61.47,1.42.71,2.42.71s1.72-.18,2.22-.56.76-.86.76-1.46Z"/><path class="cls-32" d="m684.8,965.09h-2.91l8.73-24.09h2.91l-8.73,24.09Z"/><path class="cls-32" d="m709.22,940.99l6.4,17.01,6.38-17.01h4.98v22.19h-3.84v-7.31l.38-9.78-6.55,17.1h-2.76l-6.54-17.08.38,9.77v7.31h-3.84v-22.19h5Z"/><path class="cls-32" d="m730.5,954.78c0-1.62.32-3.07.96-4.37.64-1.3,1.54-2.29,2.7-2.99,1.16-.7,2.49-1.04,3.99-1.04,2.22,0,4.03.72,5.42,2.15s2.14,3.33,2.25,5.7v.87c.01,1.62-.3,3.08-.92,4.36-.62,1.28-1.52,2.27-2.68,2.97-1.16.7-2.51,1.05-4.03,1.05-2.33,0-4.19-.77-5.58-2.32-1.4-1.55-2.09-3.61-2.09-6.19v-.18Zm3.7.32c0,1.7.35,3.02,1.05,3.98s1.68,1.44,2.93,1.44,2.22-.49,2.92-1.46,1.04-2.4,1.04-4.28c0-1.67-.36-2.99-1.07-3.96-.72-.97-1.69-1.46-2.92-1.46s-2.17.48-2.88,1.44c-.71.96-1.07,2.39-1.07,4.3Z"/><path class="cls-32" d="m752.39,946.69l.11,1.9c1.22-1.47,2.82-2.21,4.8-2.21,3.43,0,5.18,1.97,5.24,5.9v10.9h-3.7v-10.68c0-1.05-.23-1.82-.68-2.32s-1.19-.75-2.22-.75c-1.49,0-2.61.68-3.34,2.03v11.73h-3.7v-16.49h3.49Z"/><path class="cls-32" d="m770.95,942.69v4.01h2.91v2.74h-2.91v9.2c0,.63.12,1.08.37,1.36s.69.42,1.33.42c.43,0,.86-.05,1.29-.15v2.86c-.84.23-1.66.35-2.44.35-2.84,0-4.27-1.57-4.27-4.71v-9.34h-2.71v-2.74h2.71v-4.01h3.7Z"/><path class="cls-32" d="m780.34,948.49c1.21-1.4,2.74-2.1,4.59-2.1,3.51,0,5.3,2.01,5.35,6.02v10.77h-3.7v-10.64c0-1.14-.25-1.94-.74-2.42-.49-.47-1.22-.71-2.17-.71-1.48,0-2.59.66-3.32,1.98v11.78h-3.7v-23.41h3.7v8.72Z"/><path class="cls-12" d="m490.09,1010.28c0,2.17-.38,4.08-1.13,5.72s-1.83,2.9-3.22,3.78c-1.4.88-3,1.32-4.82,1.32s-3.4-.44-4.81-1.32c-1.41-.88-2.49-2.13-3.26-3.76-.77-1.62-1.16-3.5-1.17-5.62v-1.25c0-2.16.38-4.07,1.15-5.73.77-1.66,1.85-2.92,3.25-3.8,1.4-.88,3-1.32,4.81-1.32s3.41.43,4.81,1.3,2.48,2.12,3.24,3.75c.76,1.63,1.15,3.53,1.16,5.69v1.23Zm-3.86-1.16c0-2.46-.46-4.34-1.39-5.65-.93-1.31-2.25-1.96-3.95-1.96s-2.97.65-3.91,1.96c-.94,1.3-1.42,3.15-1.44,5.54v1.28c0,2.44.48,4.32,1.42,5.65.95,1.33,2.27,2,3.95,2s3.02-.65,3.94-1.95c.92-1.3,1.38-3.2,1.38-5.7v-1.16Z"/><path class="cls-12" d="m508.66,1001.71h-6.92v19.08h-3.82v-19.08h-6.86v-3.11h17.6v3.11Z"/><path class="cls-12" d="m528.07,1013.57c-.22,2.37-1.1,4.21-2.62,5.54-1.52,1.33-3.55,1.99-6.08,1.99-1.77,0-3.32-.42-4.67-1.26-1.35-.84-2.38-2.03-3.12-3.57s-1.11-3.34-1.14-5.38v-2.07c0-2.09.37-3.94,1.11-5.53.74-1.59,1.81-2.82,3.19-3.69s2.99-1.29,4.81-1.29c2.45,0,4.42.66,5.91,1.99,1.49,1.33,2.36,3.2,2.61,5.63h-3.84c-.18-1.59-.65-2.75-1.39-3.45-.75-.71-1.84-1.06-3.28-1.06-1.68,0-2.96.61-3.86,1.84s-1.36,3.02-1.38,5.39v1.97c0,2.4.43,4.23,1.29,5.49.86,1.26,2.12,1.89,3.77,1.89,1.51,0,2.65-.34,3.41-1.02.76-.68,1.24-1.81,1.45-3.4h3.84Z"/><path class="cls-12" d="m541.16,1003.95c.69,0,1.22.2,1.6.59.38.39.56.88.56,1.47s-.19,1.06-.56,1.44-.91.57-1.6.57-1.18-.19-1.57-.56c-.39-.38-.58-.86-.58-1.45s.19-1.08.56-1.47c.38-.39.9-.59,1.58-.59Zm0,12.94c.69,0,1.22.2,1.6.59.38.39.56.88.56,1.47s-.19,1.06-.56,1.44c-.38.38-.91.57-1.6.57s-1.18-.19-1.57-.56c-.39-.38-.58-.86-.58-1.45s.19-1.08.56-1.47c.38-.39.9-.59,1.58-.59Z"/><path class="cls-32" d="m568.01,1001.39h-3.32c.52.76.85,1.66,1.01,2.68h3.08l-.76,2.77h-2.3c-.22,1.68-.89,2.96-2.01,3.85-1.12.89-2.7,1.42-4.74,1.59l7.1,8.3v.2h-4.37l-7.76-9.04-.02-2.33h3.86c1.14,0,2.04-.24,2.71-.71.67-.47,1.11-1.09,1.33-1.87h-8.2l.78-2.77h7.36c-.5-1.58-1.84-2.36-4.04-2.36h-4.1l.82-3.11h14.35l-.78,2.79Z"/><path class="cls-32" d="m591.36,1012.88h2.76v2.97h-2.76v4.94h-3.7v-4.94h-9.58l-.11-2.25,9.57-14.99h3.82v14.28Zm-9.51,0h5.81v-9.26l-.27.49-5.53,8.78Z"/><path class="cls-32" d="m611.03,1011.45c0,3.19-.6,5.59-1.79,7.21-1.19,1.62-3.01,2.43-5.45,2.43s-4.2-.79-5.42-2.37c-1.21-1.58-1.84-3.92-1.87-7.02v-3.84c0-3.19.6-5.58,1.79-7.18,1.19-1.59,3.01-2.39,5.46-2.39s4.24.78,5.43,2.33c1.19,1.55,1.81,3.88,1.84,6.98v3.84Zm-3.7-4.14c0-2.08-.28-3.61-.85-4.58-.57-.97-1.47-1.46-2.71-1.46s-2.1.46-2.67,1.38c-.57.92-.87,2.35-.9,4.3v5.03c0,2.07.29,3.62.87,4.63.58,1.02,1.49,1.52,2.73,1.52s2.07-.47,2.64-1.41c.57-.94.87-2.41.9-4.41v-5.01Z"/><path class="cls-32" d="m615.07,1025.79l-2-1.19c.59-.92.99-1.73,1.21-2.42.22-.69.33-1.38.34-2.1v-2.88h3.34l-.02,2.67c0,1.08-.28,2.16-.82,3.24-.53,1.08-1.22,1.97-2.06,2.67Z"/><path class="cls-32" d="m635.63,1011.45c0,3.19-.6,5.59-1.79,7.21-1.19,1.62-3.01,2.43-5.45,2.43s-4.2-.79-5.42-2.37c-1.21-1.58-1.84-3.92-1.87-7.02v-3.84c0-3.19.6-5.58,1.79-7.18,1.19-1.59,3.01-2.39,5.46-2.39s4.24.78,5.43,2.33c1.19,1.55,1.81,3.88,1.84,6.98v3.84Zm-3.7-4.14c0-2.08-.28-3.61-.85-4.58-.57-.97-1.47-1.46-2.71-1.46s-2.1.46-2.67,1.38c-.57.92-.87,2.35-.9,4.3v5.03c0,2.07.29,3.62.87,4.63.58,1.02,1.49,1.52,2.73,1.52s2.07-.47,2.64-1.41c.57-.94.87-2.41.9-4.41v-5.01Z"/><path class="cls-32" d="m653.36,1011.45c0,3.19-.6,5.59-1.79,7.21-1.19,1.62-3.01,2.43-5.45,2.43s-4.2-.79-5.42-2.37c-1.21-1.58-1.84-3.92-1.87-7.02v-3.84c0-3.19.6-5.58,1.79-7.18,1.19-1.59,3.01-2.39,5.46-2.39s4.24.78,5.43,2.33c1.19,1.55,1.81,3.88,1.84,6.98v3.84Zm-3.7-4.14c0-2.08-.28-3.61-.85-4.58-.57-.97-1.47-1.46-2.71-1.46s-2.1.46-2.67,1.38c-.57.92-.87,2.35-.9,4.3v5.03c0,2.07.29,3.62.87,4.63.58,1.02,1.49,1.52,2.73,1.52s2.07-.47,2.64-1.41c.57-.94.87-2.41.9-4.41v-5.01Z"/><path class="cls-32" d="m671.1,1011.45c0,3.19-.6,5.59-1.79,7.21-1.19,1.62-3.01,2.43-5.45,2.43s-4.2-.79-5.42-2.37c-1.21-1.58-1.84-3.92-1.87-7.02v-3.84c0-3.19.6-5.58,1.79-7.18,1.19-1.59,3.01-2.39,5.46-2.39s4.24.78,5.43,2.33c1.19,1.55,1.81,3.88,1.84,6.98v3.84Zm-3.7-4.14c0-2.08-.28-3.61-.85-4.58-.57-.97-1.47-1.46-2.71-1.46s-2.1.46-2.67,1.38c-.57.92-.87,2.35-.9,4.3v5.03c0,2.07.29,3.62.87,4.63.58,1.02,1.49,1.52,2.73,1.52s2.07-.47,2.64-1.41c.57-.94.87-2.41.9-4.41v-5.01Z"/><path class="cls-12" d="m491.33,1125.99c0,2.17-.38,4.08-1.13,5.72s-1.83,2.9-3.22,3.78c-1.4.88-3,1.32-4.82,1.32s-3.4-.44-4.81-1.32c-1.41-.88-2.49-2.13-3.26-3.76-.77-1.62-1.16-3.5-1.17-5.62v-1.25c0-2.16.38-4.07,1.15-5.73.77-1.66,1.85-2.92,3.25-3.8,1.4-.88,3-1.32,4.81-1.32s3.41.43,4.81,1.3,2.48,2.12,3.24,3.75c.76,1.63,1.15,3.53,1.16,5.69v1.23Zm-3.86-1.16c0-2.46-.46-4.34-1.39-5.65-.93-1.31-2.25-1.96-3.95-1.96s-2.97.65-3.91,1.96c-.94,1.3-1.42,3.15-1.44,5.54v1.28c0,2.44.48,4.32,1.42,5.65.95,1.33,2.27,2,3.95,2s3.02-.65,3.94-1.95c.92-1.3,1.38-3.2,1.38-5.7v-1.16Z"/><path class="cls-12" d="m496.11,1136.51v-13.75h-2.51v-2.74h2.51v-1.51c0-1.83.51-3.24,1.52-4.24,1.02-1,2.44-1.49,4.27-1.49.65,0,1.34.09,2.07.27l-.09,2.89c-.41-.08-.88-.12-1.42-.12-1.77,0-2.65.91-2.65,2.73v1.46h3.35v2.74h-3.35v13.75h-3.7Z"/><path class="cls-12" d="m507.17,1136.51v-13.75h-2.51v-2.74h2.51v-1.51c0-1.83.51-3.24,1.52-4.24,1.02-1,2.44-1.49,4.27-1.49.65,0,1.34.09,2.07.27l-.09,2.89c-.41-.08-.88-.12-1.42-.12-1.77,0-2.65.91-2.65,2.73v1.46h3.35v2.74h-3.35v13.75h-3.7Z"/><path class="cls-12" d="m523.83,1136.81c-2.35,0-4.25-.74-5.71-2.22-1.46-1.48-2.19-3.45-2.19-5.91v-.46c0-1.65.32-3.12.95-4.41s1.53-2.3,2.67-3.03c1.15-.72,2.43-1.08,3.84-1.08,2.25,0,3.98.72,5.2,2.15,1.22,1.43,1.84,3.46,1.84,6.08v1.49h-10.77c.11,1.36.57,2.44,1.36,3.23.8.79,1.8,1.19,3.01,1.19,1.7,0,3.08-.69,4.15-2.06l2,1.91c-.66.99-1.54,1.75-2.64,2.29-1.1.54-2.34.82-3.71.82Zm-.44-14.13c-1.02,0-1.84.36-2.46,1.07-.62.71-1.02,1.7-1.2,2.97h7.06v-.27c-.08-1.24-.41-2.18-.99-2.81s-1.38-.95-2.41-.95Z"/><path class="cls-12" d="m541.95,1123.4c-.49-.08-.99-.12-1.51-.12-1.7,0-2.84.65-3.43,1.95v11.28h-3.7v-16.49h3.54l.09,1.84c.89-1.43,2.13-2.15,3.72-2.15.53,0,.96.07,1.31.21l-.02,3.47Z"/><path class="cls-12" d="m554.29,1119.67c.69,0,1.22.2,1.6.59.38.39.56.88.56,1.47s-.19,1.06-.56,1.44-.91.57-1.6.57-1.18-.19-1.57-.56c-.39-.38-.58-.86-.58-1.45s.19-1.08.56-1.47c.38-.39.9-.59,1.58-.59Zm0,12.94c.69,0,1.22.2,1.6.59.38.39.56.88.56,1.47s-.19,1.06-.56,1.44c-.38.38-.91.57-1.6.57s-1.18-.19-1.57-.56c-.39-.38-.58-.86-.58-1.45s.19-1.08.56-1.47c.38-.39.9-.59,1.58-.59Z"/><path class="cls-32" d="m583.04,1136.51h-3.27l-8.38-13.34v13.34h-3.27v-18.81h3.27l8.41,13.39v-13.39h3.24v18.81Z"/><path class="cls-32" d="m586.01,1129.39c0-1.37.27-2.6.81-3.7.54-1.1,1.3-1.94,2.29-2.53.98-.59,2.11-.88,3.38-.88,1.89,0,3.42.61,4.59,1.82,1.17,1.21,1.81,2.82,1.91,4.83v.74c.01,1.38-.25,2.61-.78,3.69-.53,1.08-1.29,1.92-2.27,2.52-.99.59-2.12.89-3.42.89-1.97,0-3.55-.66-4.73-1.97-1.18-1.31-1.78-3.06-1.78-5.25v-.16Zm3.14.27c0,1.44.3,2.56.89,3.38.59.81,1.42,1.22,2.48,1.22s1.88-.41,2.47-1.24c.59-.83.88-2.04.88-3.63,0-1.41-.3-2.53-.91-3.36-.61-.83-1.43-1.24-2.47-1.24s-1.84.41-2.44,1.22c-.6.81-.9,2.03-.9,3.65Z"/><path class="cls-32" d="m622.3,1117.7v12.57c0,2-.64,3.58-1.92,4.75-1.28,1.17-2.98,1.75-5.11,1.75s-3.86-.58-5.13-1.72c-1.27-1.15-1.9-2.75-1.9-4.79v-12.55h3.25v12.58c0,1.26.32,2.22.96,2.88.64.66,1.58,1,2.82,1,2.51,0,3.77-1.33,3.77-3.98v-12.48h3.25Z"/><path class="cls-32" d="m637.72,1129.66c0,2.16-.49,3.89-1.47,5.17s-2.3,1.93-3.95,1.93c-1.53,0-2.76-.5-3.68-1.51v6.63h-3.14v-19.35h2.89l.13,1.42c.92-1.12,2.17-1.68,3.76-1.68,1.71,0,3.04.64,4.01,1.91.97,1.27,1.45,3.03,1.45,5.29v.19Zm-3.13-.27c0-1.39-.28-2.5-.83-3.32s-1.35-1.23-2.38-1.23c-1.28,0-2.21.53-2.76,1.59v6.2c.57,1.08,1.5,1.63,2.79,1.63,1,0,1.78-.4,2.34-1.21.56-.81.85-2.03.85-3.66Z"/><path class="cls-32" d="m641.48,1136.51v-11.65h-2.13v-2.32h2.13v-1.28c0-1.55.43-2.75,1.29-3.59s2.07-1.27,3.62-1.27c.55,0,1.14.08,1.76.23l-.08,2.45c-.34-.07-.75-.1-1.2-.1-1.5,0-2.25.77-2.25,2.31v1.24h2.84v2.32h-2.84v11.65h-3.14Z"/><path class="cls-32" d="m657.07,1125.4c-.41-.07-.84-.1-1.28-.1-1.44,0-2.41.55-2.91,1.65v9.56h-3.14v-13.98h3l.08,1.56c.76-1.21,1.81-1.82,3.15-1.82.45,0,.82.06,1.11.18v2.95Z"/><path class="cls-32" d="m658,1129.39c0-1.37.27-2.6.81-3.7.54-1.1,1.3-1.94,2.29-2.53.98-.59,2.11-.88,3.38-.88,1.89,0,3.42.61,4.59,1.82,1.17,1.21,1.81,2.82,1.91,4.83v.74c.01,1.38-.25,2.61-.78,3.69-.53,1.08-1.29,1.92-2.27,2.52-.99.59-2.12.89-3.42.89-1.97,0-3.55-.66-4.73-1.97-1.18-1.31-1.78-3.06-1.78-5.25v-.16Zm3.14.27c0,1.44.3,2.56.89,3.38.59.81,1.42,1.22,2.48,1.22s1.88-.41,2.47-1.24c.59-.83.88-2.04.88-3.63,0-1.41-.3-2.53-.91-3.36-.61-.83-1.43-1.24-2.47-1.24s-1.84.41-2.44,1.22c-.6.81-.9,2.03-.9,3.65Z"/><path class="cls-32" d="m676.57,1122.53l.09,1.61c1.03-1.25,2.39-1.87,4.07-1.87,2.91,0,4.39,1.67,4.44,5v9.24h-3.14v-9.05c0-.89-.19-1.54-.57-1.97-.38-.43-1.01-.64-1.88-.64-1.27,0-2.21.57-2.83,1.72v9.95h-3.14v-13.98h2.96Z"/><path class="cls-32" d="m692.3,1119.13v3.4h2.47v2.32h-2.47v7.8c0,.53.11.92.32,1.16.21.24.59.36,1.13.36.36,0,.73-.04,1.1-.13v2.43c-.71.2-1.4.3-2.07.3-2.41,0-3.62-1.33-3.62-3.99v-7.92h-2.3v-2.32h2.3v-3.4h3.14Z"/><path class="cls-32" d="m707.5,1136.51h-3.25v-18.81h3.25v18.81Z"/><path class="cls-32" d="m714.13,1122.53l.09,1.61c1.03-1.25,2.39-1.87,4.07-1.87,2.91,0,4.39,1.67,4.44,5v9.24h-3.14v-9.05c0-.89-.19-1.54-.57-1.97-.38-.43-1.01-.64-1.88-.64-1.27,0-2.21.57-2.83,1.72v9.95h-3.14v-13.98h2.96Z"/><path class="cls-32" d="m730.85,1132.53l2.96-10h3.24l-4.84,13.98h-2.73l-4.88-13.98h3.25l3,10Z"/><path class="cls-32" d="m745,1136.77c-1.99,0-3.6-.63-4.84-1.88-1.24-1.25-1.85-2.92-1.85-5v-.39c0-1.4.27-2.64.81-3.74.54-1.1,1.29-1.95,2.27-2.56.97-.61,2.06-.92,3.25-.92,1.9,0,3.37.61,4.41,1.82,1.04,1.21,1.56,2.93,1.56,5.15v1.27h-9.13c.09,1.15.48,2.07,1.16,2.74s1.53,1.01,2.55,1.01c1.44,0,2.61-.58,3.51-1.74l1.69,1.61c-.56.84-1.31,1.48-2.24,1.94s-1.98.69-3.15.69Zm-.37-11.97c-.86,0-1.56.3-2.09.9-.53.6-.87,1.44-1.01,2.52h5.98v-.23c-.07-1.05-.35-1.84-.84-2.38-.49-.54-1.17-.81-2.04-.81Z"/><path class="cls-32" d="m760.87,1132.71c0-.56-.23-.99-.69-1.28s-1.22-.55-2.29-.78c-1.07-.22-1.96-.51-2.67-.85-1.57-.76-2.35-1.86-2.35-3.29,0-1.21.51-2.21,1.52-3.02,1.02-.81,2.31-1.21,3.88-1.21,1.67,0,3.02.41,4.05,1.24,1.03.83,1.54,1.9,1.54,3.22h-3.14c0-.6-.22-1.1-.67-1.5-.45-.4-1.04-.6-1.78-.6-.69,0-1.25.16-1.69.48-.44.32-.65.75-.65,1.28,0,.48.2.86.61,1.12.4.27,1.22.54,2.45.81,1.23.27,2.2.59,2.9.97.7.37,1.22.82,1.56,1.35.34.53.51,1.16.51,1.91,0,1.26-.52,2.28-1.56,3.06s-2.41,1.17-4.09,1.17c-1.15,0-2.17-.21-3.06-.62-.9-.41-1.59-.98-2.09-1.71-.5-.72-.75-1.5-.75-2.34h3.05c.04.74.32,1.31.84,1.71s1.2.6,2.05.6,1.46-.16,1.89-.47c.43-.31.65-.72.65-1.23Z"/><path class="cls-32" d="m770.63,1119.13v3.4h2.47v2.32h-2.47v7.8c0,.53.11.92.32,1.16.21.24.59.36,1.13.36.36,0,.73-.04,1.1-.13v2.43c-.71.2-1.4.3-2.07.3-2.41,0-3.62-1.33-3.62-3.99v-7.92h-2.3v-2.32h2.3v-3.4h3.14Z"/><path class="cls-32" d="m778.44,1122.53l.09,1.46c.98-1.14,2.32-1.72,4.03-1.72,1.87,0,3.15.71,3.84,2.14,1.02-1.43,2.45-2.14,4.29-2.14,1.54,0,2.69.43,3.44,1.28.75.85,1.14,2.11,1.16,3.77v9.18h-3.14v-9.09c0-.89-.19-1.54-.58-1.95-.39-.41-1.03-.62-1.92-.62-.71,0-1.3.19-1.75.58s-.77.88-.95,1.5v9.58s-3.13,0-3.13,0v-9.2c-.04-1.65-.88-2.47-2.52-2.47-1.26,0-2.15.51-2.67,1.54v10.13h-3.14v-13.98h2.96Z"/><path class="cls-32" d="m804.66,1136.77c-1.99,0-3.6-.63-4.84-1.88-1.24-1.25-1.85-2.92-1.85-5v-.39c0-1.4.27-2.64.81-3.74.54-1.1,1.29-1.95,2.27-2.56.97-.61,2.06-.92,3.25-.92,1.9,0,3.37.61,4.41,1.82,1.04,1.21,1.56,2.93,1.56,5.15v1.27h-9.13c.09,1.15.48,2.07,1.16,2.74s1.53,1.01,2.55,1.01c1.44,0,2.61-.58,3.51-1.74l1.69,1.61c-.56.84-1.31,1.48-2.24,1.94s-1.98.69-3.15.69Zm-.37-11.97c-.86,0-1.56.3-2.09.9-.53.6-.87,1.44-1.01,2.52h5.98v-.23c-.07-1.05-.35-1.84-.84-2.38-.49-.54-1.17-.81-2.04-.81Z"/><path class="cls-32" d="m815.61,1122.53l.09,1.61c1.03-1.25,2.39-1.87,4.07-1.87,2.91,0,4.39,1.67,4.44,5v9.24h-3.14v-9.05c0-.89-.19-1.54-.57-1.97-.38-.43-1.01-.64-1.88-.64-1.27,0-2.21.57-2.83,1.72v9.95h-3.14v-13.98h2.96Z"/><path class="cls-32" d="m831.35,1119.13v3.4h2.47v2.32h-2.47v7.8c0,.53.11.92.32,1.16.21.24.59.36,1.13.36.36,0,.73-.04,1.1-.13v2.43c-.71.2-1.4.3-2.07.3-2.41,0-3.62-1.33-3.62-3.99v-7.92h-2.3v-2.32h2.3v-3.4h3.14Z"/><path class="cls-10" d="m442.15,1123.92c0,7.65-6.19,13.84-13.84,13.84h0c-7.65,0-13.84-6.19-13.84-13.84h0c0-7.65,6.19-13.84,13.84-13.84h0c7.65,0,13.84,6.19,13.84,13.84h0Z"/><path class="cls-37" d="m435.26,1123.92c0,3.84-3.11,6.95-6.95,6.95h0c-3.84,0-6.95-3.11-6.95-6.95h0c0-3.84,3.11-6.95,6.95-6.95h0c3.84,0,6.95,3.11,6.95,6.95h0Z"/><path class="cls-21" d="m490.55,1068.26c-.22,2.37-1.1,4.21-2.62,5.54-1.52,1.33-3.55,1.99-6.08,1.99-1.77,0-3.32-.42-4.67-1.26-1.35-.84-2.38-2.03-3.12-3.57s-1.11-3.34-1.14-5.38v-2.07c0-2.09.37-3.94,1.11-5.53.74-1.59,1.81-2.82,3.19-3.69s2.99-1.29,4.81-1.29c2.45,0,4.42.66,5.91,1.99,1.49,1.33,2.36,3.2,2.61,5.63h-3.84c-.18-1.59-.65-2.75-1.39-3.45-.75-.71-1.84-1.06-3.28-1.06-1.68,0-2.96.61-3.86,1.84s-1.36,3.02-1.38,5.39v1.97c0,2.4.43,4.23,1.29,5.49.86,1.26,2.12,1.89,3.77,1.89,1.51,0,2.65-.34,3.41-1.02.76-.68,1.24-1.81,1.45-3.4h3.84Z"/><path class="cls-21" d="m492.94,1067.09c0-1.62.32-3.07.96-4.37.64-1.3,1.54-2.29,2.7-2.99,1.16-.7,2.49-1.04,3.99-1.04,2.22,0,4.03.72,5.42,2.15s2.14,3.33,2.25,5.7v.87c.01,1.62-.3,3.08-.92,4.36-.62,1.28-1.52,2.27-2.68,2.97-1.16.7-2.51,1.05-4.03,1.05-2.33,0-4.19-.77-5.58-2.32-1.4-1.55-2.09-3.61-2.09-6.19v-.18Zm3.7.32c0,1.7.35,3.02,1.05,3.98s1.68,1.44,2.93,1.44,2.22-.49,2.92-1.46,1.04-2.4,1.04-4.28c0-1.67-.36-2.99-1.07-3.96-.72-.97-1.69-1.46-2.92-1.46s-2.17.48-2.88,1.44c-.71.96-1.07,2.39-1.07,4.3Z"/><path class="cls-21" d="m514.84,1059l.11,1.9c1.22-1.47,2.82-2.21,4.8-2.21,3.43,0,5.18,1.97,5.24,5.9v10.9h-3.7v-10.68c0-1.05-.23-1.82-.68-2.32s-1.19-.75-2.22-.75c-1.49,0-2.61.68-3.34,2.03v11.73h-3.7v-16.49h3.49Z"/><path class="cls-21" d="m533.4,1054.99v4.01h2.91v2.74h-2.91v9.2c0,.63.12,1.08.37,1.36s.69.42,1.33.42c.43,0,.86-.05,1.29-.15v2.86c-.84.23-1.66.35-2.44.35-2.84,0-4.27-1.57-4.27-4.71v-9.34h-2.71v-2.74h2.71v-4.01h3.7Z"/><path class="cls-21" d="m547.77,1062.38c-.49-.08-.99-.12-1.51-.12-1.7,0-2.84.65-3.43,1.95v11.28h-3.7v-16.49h3.54l.09,1.84c.89-1.43,2.13-2.15,3.72-2.15.53,0,.96.07,1.31.21l-.02,3.47Z"/><path class="cls-21" d="m559.5,1075.48c-.16-.31-.31-.83-.43-1.54-1.18,1.23-2.62,1.84-4.33,1.84s-3.01-.47-4.05-1.42c-1.05-.95-1.57-2.11-1.57-3.5,0-1.76.65-3.11,1.96-4.05,1.31-.94,3.17-1.41,5.6-1.41h2.27v-1.08c0-.85-.24-1.54-.72-2.05-.48-.51-1.2-.77-2.18-.77-.84,0-1.53.21-2.07.63-.54.42-.81.96-.81,1.61h-3.7c0-.9.3-1.75.9-2.54s1.41-1.4,2.45-1.85c1.03-.45,2.18-.67,3.45-.67,1.93,0,3.47.48,4.62,1.46,1.15.97,1.74,2.33,1.77,4.09v7.44c0,1.48.21,2.67.62,3.55v.26h-3.78Zm-4.07-2.67c.73,0,1.42-.18,2.07-.53.64-.36,1.13-.83,1.46-1.43v-3.11h-2c-1.37,0-2.4.24-3.09.72s-1.04,1.15-1.04,2.03c0,.71.24,1.28.71,1.7.47.42,1.1.63,1.9.63Z"/><path class="cls-21" d="m573.31,1072.83c.92,0,1.69-.27,2.3-.81s.93-1.2.97-2h3.49c-.04,1.03-.36,1.98-.96,2.87-.6.89-1.41,1.59-2.44,2.11-1.03.52-2.13.78-3.32.78-2.31,0-4.13-.75-5.49-2.24-1.35-1.49-2.03-3.55-2.03-6.19v-.38c0-2.51.67-4.52,2.01-6.03,1.34-1.51,3.17-2.26,5.49-2.26,1.96,0,3.56.57,4.79,1.71s1.88,2.64,1.94,4.5h-3.49c-.04-.94-.36-1.72-.97-2.33-.6-.61-1.37-.92-2.31-.92-1.2,0-2.12.43-2.77,1.3-.65.87-.98,2.19-.99,3.96v.59c0,1.79.32,3.12.97,4,.65.88,1.58,1.32,2.8,1.32Z"/><path class="cls-21" d="m587.51,1054.99v4.01h2.91v2.74h-2.91v9.2c0,.63.12,1.08.37,1.36s.69.42,1.33.42c.43,0,.86-.05,1.29-.15v2.86c-.84.23-1.66.35-2.44.35-2.84,0-4.27-1.57-4.27-4.71v-9.34h-2.71v-2.74h2.71v-4.01h3.7Z"/><path class="cls-21" d="m605.23,1067.26v8.23h-3.86v-22.19h8.49c2.48,0,4.45.65,5.9,1.94,1.46,1.29,2.19,3,2.19,5.12s-.71,3.87-2.14,5.08c-1.43,1.21-3.43,1.82-6,1.82h-4.59Zm0-3.11h4.63c1.37,0,2.42-.32,3.14-.97s1.08-1.58,1.08-2.8-.37-2.16-1.1-2.87c-.73-.72-1.74-1.08-3.02-1.1h-4.74v7.74Z"/><path class="cls-21" d="m628.03,1075.79c-2.35,0-4.25-.74-5.71-2.22-1.46-1.48-2.19-3.45-2.19-5.91v-.46c0-1.65.32-3.12.95-4.41s1.53-2.3,2.67-3.03c1.15-.72,2.43-1.08,3.84-1.08,2.25,0,3.98.72,5.2,2.15,1.22,1.43,1.84,3.46,1.84,6.08v1.49h-10.77c.11,1.36.57,2.44,1.36,3.23.8.79,1.8,1.19,3.01,1.19,1.7,0,3.08-.69,4.15-2.06l2,1.91c-.66.99-1.54,1.75-2.64,2.29-1.1.54-2.34.82-3.71.82Zm-.44-14.13c-1.02,0-1.84.36-2.46,1.07-.62.71-1.02,1.7-1.2,2.97h7.06v-.27c-.08-1.24-.41-2.18-.99-2.81s-1.38-.95-2.41-.95Z"/><path class="cls-21" d="m646.14,1062.38c-.49-.08-.99-.12-1.51-.12-1.7,0-2.84.65-3.43,1.95v11.28h-3.7v-16.49h3.54l.09,1.84c.89-1.43,2.13-2.15,3.72-2.15.53,0,.96.07,1.31.21l-.02,3.47Z"/><path class="cls-21" d="m648.49,1054.71c0-.57.18-1.04.54-1.42.36-.38.88-.56,1.55-.56s1.19.19,1.55.56c.37.38.55.85.55,1.42s-.18,1.02-.55,1.39c-.37.37-.88.56-1.55.56s-1.19-.18-1.55-.56c-.36-.37-.54-.84-.54-1.39Zm3.93,20.77h-3.7v-16.49h3.7v16.49Z"/><path class="cls-21" d="m655.76,1067.09c0-1.62.32-3.07.96-4.37.64-1.3,1.54-2.29,2.7-2.99,1.16-.7,2.49-1.04,3.99-1.04,2.22,0,4.03.72,5.42,2.15s2.14,3.33,2.25,5.7v.87c.01,1.62-.3,3.08-.92,4.36-.62,1.28-1.52,2.27-2.68,2.97-1.16.7-2.51,1.05-4.03,1.05-2.33,0-4.19-.77-5.58-2.32-1.4-1.55-2.09-3.61-2.09-6.19v-.18Zm3.7.32c0,1.7.35,3.02,1.05,3.98s1.68,1.44,2.93,1.44,2.22-.49,2.92-1.46,1.04-2.4,1.04-4.28c0-1.67-.36-2.99-1.07-3.96-.72-.97-1.69-1.46-2.92-1.46s-2.17.48-2.88,1.44c-.71.96-1.07,2.39-1.07,4.3Z"/><path class="cls-21" d="m673.53,1067.12c0-2.54.59-4.58,1.77-6.12,1.18-1.54,2.76-2.31,4.74-2.31,1.75,0,3.16.61,4.24,1.83v-8.44h3.7v23.41h-3.35l-.18-1.71c-1.11,1.34-2.59,2.01-4.43,2.01s-3.49-.78-4.69-2.33c-1.19-1.55-1.79-3.67-1.79-6.34Zm3.7.32c0,1.68.32,2.98.97,3.92.65.94,1.56,1.41,2.75,1.41,1.51,0,2.62-.68,3.32-2.03v-7.04c-.68-1.32-1.78-1.98-3.29-1.98-1.2,0-2.12.47-2.77,1.42s-.98,2.38-.98,4.29Z"/><path class="cls-21" d="m701.84,1058.65c.69,0,1.22.2,1.6.59.38.39.56.88.56,1.47s-.19,1.06-.56,1.44-.91.57-1.6.57-1.18-.19-1.57-.56c-.39-.38-.58-.86-.58-1.45s.19-1.08.56-1.47c.38-.39.9-.59,1.58-.59Zm0,12.94c.69,0,1.22.2,1.6.59.38.39.56.88.56,1.47s-.19,1.06-.56,1.44c-.38.38-.91.57-1.6.57s-1.18-.19-1.57-.56c-.39-.38-.58-.86-.58-1.45s.19-1.08.56-1.47c.38-.39.9-.59,1.58-.59Z"/><path class="cls-32" d="m719.62,1062.7h2.26c1.14,0,2.04-.3,2.71-.88.67-.58,1-1.42,1-2.51s-.28-1.88-.83-2.46-1.4-.88-2.54-.88c-1,0-1.81.29-2.45.86-.64.57-.96,1.32-.96,2.25h-3.7c0-1.14.3-2.17.91-3.11.6-.93,1.45-1.66,2.53-2.19,1.08-.52,2.29-.78,3.63-.78,2.21,0,3.96.56,5.22,1.67s1.9,2.66,1.9,4.64c0,1-.32,1.93-.95,2.81s-1.46,1.54-2.46,1.99c1.22.42,2.15,1.07,2.78,1.97.63.89.95,1.96.95,3.2,0,1.99-.68,3.58-2.05,4.75s-3.16,1.77-5.39,1.77-3.88-.57-5.24-1.71c-1.36-1.14-2.04-2.65-2.04-4.54h3.7c0,.97.33,1.77.98,2.38s1.54.91,2.64.91,2.05-.3,2.71-.91c.66-.61.99-1.49.99-2.65s-.35-2.07-1.04-2.7c-.69-.63-1.72-.95-3.08-.95h-2.18v-2.93Z"/><path class="cls-32" d="m748.68,1063.81l5.1-10.51h4.27l-7.44,14.02v8.17h-3.87v-8.17l-7.45-14.02h4.28l5.1,10.51Z"/><path class="cls-32" d="m766.37,1075.79c-2.35,0-4.25-.74-5.71-2.22-1.46-1.48-2.19-3.45-2.19-5.91v-.46c0-1.65.32-3.12.95-4.41s1.53-2.3,2.67-3.03c1.15-.72,2.43-1.08,3.84-1.08,2.25,0,3.98.72,5.2,2.15,1.22,1.43,1.84,3.46,1.84,6.08v1.49h-10.77c.11,1.36.57,2.44,1.36,3.23.8.79,1.8,1.19,3.01,1.19,1.7,0,3.08-.69,4.15-2.06l2,1.91c-.66.99-1.54,1.75-2.64,2.29-1.1.54-2.34.82-3.71.82Zm-.44-14.13c-1.02,0-1.84.36-2.46,1.07-.62.71-1.02,1.7-1.2,2.97h7.06v-.27c-.08-1.24-.41-2.18-.99-2.81s-1.38-.95-2.41-.95Z"/><path class="cls-32" d="m785.71,1075.48c-.16-.31-.31-.83-.43-1.54-1.18,1.23-2.62,1.84-4.33,1.84s-3.01-.47-4.05-1.42c-1.05-.95-1.57-2.11-1.57-3.5,0-1.76.65-3.11,1.96-4.05,1.31-.94,3.17-1.41,5.6-1.41h2.27v-1.08c0-.85-.24-1.54-.72-2.05-.48-.51-1.2-.77-2.18-.77-.84,0-1.53.21-2.07.63-.54.42-.81.96-.81,1.61h-3.7c0-.9.3-1.75.9-2.54s1.41-1.4,2.45-1.85c1.03-.45,2.18-.67,3.45-.67,1.93,0,3.47.48,4.62,1.46,1.15.97,1.74,2.33,1.77,4.09v7.44c0,1.48.21,2.67.62,3.55v.26h-3.78Zm-4.07-2.67c.73,0,1.42-.18,2.07-.53.64-.36,1.13-.83,1.46-1.43v-3.11h-2c-1.37,0-2.4.24-3.09.72s-1.04,1.15-1.04,2.03c0,.71.24,1.28.71,1.7.47.42,1.1.63,1.9.63Z"/><path class="cls-32" d="m801.37,1062.38c-.49-.08-.99-.12-1.51-.12-1.7,0-2.84.65-3.43,1.95v11.28h-3.7v-16.49h3.54l.09,1.84c.89-1.43,2.13-2.15,3.72-2.15.53,0,.96.07,1.31.21l-.02,3.47Z"/><path class="cls-32" d="m812.96,1071c0-.66-.27-1.16-.81-1.51-.54-.35-1.45-.65-2.71-.92-1.26-.26-2.31-.6-3.15-1-1.85-.89-2.77-2.19-2.77-3.89,0-1.42.6-2.61,1.8-3.57,1.2-.95,2.72-1.43,4.57-1.43,1.97,0,3.56.49,4.78,1.46,1.21.97,1.82,2.24,1.82,3.79h-3.7c0-.71-.26-1.3-.79-1.78s-1.23-.71-2.1-.71c-.81,0-1.48.19-1.99.56s-.77.88-.77,1.51c0,.57.24,1.01.72,1.33.48.32,1.44.63,2.89.95,1.45.32,2.59.7,3.42,1.14.83.44,1.44.97,1.84,1.59.4.62.6,1.37.6,2.26,0,1.48-.62,2.68-1.84,3.6-1.23.92-2.84,1.38-4.83,1.38-1.35,0-2.55-.24-3.61-.73s-1.88-1.16-2.47-2.01c-.59-.85-.88-1.77-.88-2.76h3.6c.05.87.38,1.55.99,2.02.61.47,1.42.71,2.42.71s1.72-.18,2.22-.56.76-.86.76-1.46Z"/></svg>