<?xml version="1.0" encoding="utf-8"?>
<!-- Generator: Adobe Illustrator 28.1.0, SVG Export Plug-In . SVG Version: 6.00 Build 0)  -->
<svg version="1.1" id="Layer_1" xmlns="http://www.w3.org/2000/svg" xmlns:xlink="http://www.w3.org/1999/xlink" x="0px" y="0px"
	 viewBox="0 0 501 501" style="enable-background:new 0 0 501 501;" xml:space="preserve">
<style type="text/css">
	.st0{fill:#F4F7FA;}
	.st1{fill:#76B543;}
	.st2{clip-path:url(#SVGID_00000129900118376384317590000013709117227831490230_);}
	.st3{opacity:0.7;fill:#FFFFFF;enable-background:new    ;}
	.st4{opacity:0.3;clip-path:url(#SVGID_00000095298524397146144260000000934258843809243567_);}
	.st5{fill:#FCFDFE;}
	.st6{fill:url(#SVGID_00000144317488804490001880000003104112463675485105_);}
	.st7{fill:url(#SVGID_00000165952932780876071640000000614762317463139221_);}
	.st8{fill:url(#SVGID_00000055699168489789450950000007738144309968358822_);}
	.st9{fill:#FFFFFF;}
	.st10{fill:url(#SVGID_00000008848700918383610700000001517492565459355548_);}
	.st11{opacity:0.3;fill:url(#SVGID_00000055703646215506023420000006985030509206460838_);enable-background:new    ;}
	.st12{fill:url(#SVGID_00000035510061741267350960000015993383178750837930_);}
	.st13{fill:url(#SVGID_00000037685264294282513330000004650871653361170318_);}
	.st14{fill:url(#SVGID_00000090296970328410136810000002623965781183172240_);}
	.st15{fill:url(#SVGID_00000054983110126872713480000015461326538087563140_);}
	.st16{fill:#655E9D;}
	.st17{opacity:0.48;fill:#FFFFFF;enable-background:new    ;}
	.st18{fill:#7683B7;}
	.st19{fill:url(#SVGID_00000108267464788489623030000005661611644696747433_);}
	.st20{fill:url(#SVGID_00000096743318726991047100000012016700040114225037_);}
	.st21{fill:url(#SVGID_00000073709138742646838690000005047032466268745140_);}
	.st22{fill:url(#SVGID_00000113348898692689504960000007186690613877016992_);}
	.st23{fill:url(#SVGID_00000038405177778433010550000017711256237377346189_);}
	.st24{fill:url(#SVGID_00000018946959290407352200000001537508788885744008_);}
	.st25{fill:url(#SVGID_00000144303798626139382970000002835830797176087693_);}
	.st26{opacity:0.48;}
	.st27{enable-background:new    ;}
	.st28{fill:#568C22;}
	.st29{fill:#252C74;}
	.st30{fill:#F8F8F8;}
	.st31{fill:url(#SVGID_00000065767400462776316350000008931145152393007009_);}
	.st32{opacity:0.5;}
</style>
<g id="Background">
</g>
<g id="Illustration">
	<g id="Virtualization_technology">
		<path class="st0" d="M405.3,396.4c-10.6,10.9-20.1,17.4-27.4,22.2c-70.9,47.4-152,33.7-177.1,29c-40.4-7.5-74.6-12.8-103.9-39.3
			c-66.6-60.2-63.4-185.8-12.5-263.6c6-9.2,56.9-84.6,138.1-95.2c2-0.3,3.5-0.4,4.8-0.5c12.6-1.3,90.5-8.4,154,44.9
			c9.1,7.6,23.7,21.4,37.3,42.3C468.3,212.7,468.4,331.4,405.3,396.4z"/>
		<g>
			<g>
				<g>
					<g>
						<path id="SVGID_1_" class="st1" d="M118.3,330.9c-12.9-9.9-14.2-34.6-10.3-50.9c4.6-19.1,14.5-19.2,17-34.3
							c4.5-28.1-28.2-39.3-25.9-68.1c1.9-23.5,24.4-24.9,25.3-51c0.6-18.8-10.8-27.2-4.8-43.4c0.5-1.4,6.2-16.3,19.2-19.3
							c13.2-3,26.1,7.8,32.3,16.4c11.6,15.8,2.1,26.2,8.9,50c9.3,32.4,32.3,32.3,34.2,57.6c1.6,20.9-13.8,25.8-11.6,48.9
							c2,21.5,16,25,16,39.6C218.6,309.9,144.5,351.1,118.3,330.9z"/>
					</g>
					<g>
						<defs>
							<path id="SVGID_00000179621158975279168820000004090774606201883783_" d="M118.3,330.9c-12.9-9.9-14.2-34.6-10.3-50.9
								c4.6-19.1,14.5-19.2,17-34.3c4.5-28.1-28.2-39.3-25.9-68.1c1.9-23.5,24.4-24.9,25.3-51c0.6-18.8-10.8-27.2-4.8-43.4
								c0.5-1.4,6.2-16.3,19.2-19.3c13.2-3,26.1,7.8,32.3,16.4c11.6,15.8,2.1,26.2,8.9,50c9.3,32.4,32.3,32.3,34.2,57.6
								c1.6,20.9-13.8,25.8-11.6,48.9c2,21.5,16,25,16,39.6C218.6,309.9,144.5,351.1,118.3,330.9z"/>
						</defs>
						<clipPath id="SVGID_00000041987110629418814150000008430300946032335531_">
							<use xlink:href="#SVGID_00000179621158975279168820000004090774606201883783_"  style="overflow:visible;"/>
						</clipPath>
						<g style="clip-path:url(#SVGID_00000041987110629418814150000008430300946032335531_);">
							<path class="st3" d="M136.8,347.2c-0.1,0-0.2-0.1-0.2-0.1c-0.1-0.1,0-0.3,0.1-0.4c12.7-6.8,23.4-15.9,31.8-27.1
								c8-10.6,16.2-21.6,16.2-35.6c0-10.6-4.8-16.5-10.8-24c-5.8-7.3-13.1-16.4-17.8-32.9c-2.7-9.4-6-21.1-2.5-34.9
								c2.1-8,5.4-12.5,8.4-16.4c3.1-4.1,5.5-7.3,5.3-13.2c-0.3-9.7-5.3-16.1-11-23.6c-3.5-4.6-7.2-9.4-10.3-15.5
								c-8.8-17.3-8.2-40,2-67.5c0.1-0.1,0.2-0.2,0.4-0.2c0.1,0.1,0.2,0.2,0.2,0.4c-10.1,27.4-10.8,49.9-2,67.1
								c3.1,6.1,6.8,10.8,10.3,15.4c5.8,7.5,10.8,14,11.1,23.9c0.2,6.1-2.4,9.6-5.4,13.6c-2.9,3.9-6.2,8.3-8.3,16.2
								c-3.5,13.6-0.2,25.3,2.5,34.6c4.6,16.4,11.9,25.4,17.7,32.7c6.1,7.6,10.9,13.6,10.9,24.4c0,14.2-8.3,25.3-16.3,36
								c-8.5,11.3-19.2,20.4-32,27.2C136.9,347.2,136.8,347.2,136.8,347.2z"/>
							<path class="st3" d="M152.7,199.1c-0.1,0-0.1,0-0.2-0.1c-20.5-19.9-29.7-37.9-33.9-49.5c-4.5-12.6-4.2-20.7-4.2-20.8
								c0-0.2,0.1-0.3,0.3-0.3c0.2,0,0.3,0.1,0.3,0.3c0,0.1-0.3,8,4.1,20.6c4.1,11.6,13.3,29.5,33.7,49.3c0.1,0.1,0.1,0.3,0,0.4
								C152.8,199.1,152.7,199.1,152.7,199.1z"/>
							<path class="st3" d="M161.1,240.3c-0.1,0-0.2,0-0.2-0.1c-0.1-0.1-0.1-0.3,0.1-0.4c27.4-20.5,35.3-44.4,37.1-60.8
								c2-17.8-2.6-30.8-2.6-31c-0.1-0.1,0-0.3,0.2-0.4c0.1-0.1,0.3,0,0.4,0.2c0,0.1,4.6,13.3,2.6,31.2
								c-1.8,16.5-9.8,40.5-37.4,61.2C161.2,240.3,161.2,240.3,161.1,240.3z"/>
							<path class="st3" d="M177.6,308.5L177.6,308.5c-31.1-10.5-46.7-27.9-54.4-40.7c-8.3-13.8-9.4-25.3-9.4-25.5s0.1-0.3,0.3-0.3
								c0.2,0,0.3,0.1,0.3,0.3c0,0.1,1,11.5,9.3,25.2c7.6,12.7,23.2,30,54,40.4c0.1,0,0.2,0.2,0.2,0.4
								C177.9,308.4,177.7,308.5,177.6,308.5z"/>
							<path class="st3" d="M145.2,120.4c-0.1,0-0.1,0-0.2-0.1c-0.1-0.1-0.1-0.3,0-0.4c18.4-18.4,21.4-38.2,20.6-51.6
								c-0.8-14.5-6-24.8-6.1-24.9c-0.1-0.1,0-0.3,0.1-0.4c0.1-0.1,0.3,0,0.4,0.1c0.1,0.1,5.3,10.5,6.2,25.2
								c0.8,13.5-2.2,33.5-20.8,52C145.4,120.4,145.3,120.4,145.2,120.4z"/>
						</g>
					</g>
				</g>
			</g>
			<g>
				<g>
					<g>
						<g>
							<path id="SVGID_00000072969996052669864440000010393638586956402878_" class="st1" d="M199.2,367.1c2.8-0.5,8.3-4,9.4-5.5
								c7.2-10.1,21.9-28,20.5-41c-0.2-2.2-10.3-3.8-11.8-5.8c-6.2-2.6-8.5-3.1-13.1-8.4c-13.7-15.7,14.4-47.8-20.5-56.9
								c-25.6-6.7-46.5,2.9-45.6-36.3c0.9-39.3-33.4-109.1-73.5-79.9c-23,16.8,2.6,48.9-8.4,74c-10.5,23.9,0.3,42.6,25.7,55.5
								c25.4,12.8,12.7,24.2,6.5,46.7c-7.4,27,33.8,29.8,52.9,29.5C156.8,338.7,196.2,348.4,199.2,367.1z"/>
						</g>
						<g>
							<defs>
								<path id="SVGID_00000013179656047000085550000007738214758269140912_" d="M199.2,367.1c2.8-0.5,8.3-4,9.4-5.5
									c7.2-10.1,21.9-28,20.5-41c-0.2-2.2-10.3-3.8-11.8-5.8c-6.2-2.6-8.5-3.1-13.1-8.4c-13.7-15.7,14.4-47.8-20.5-56.9
									c-25.6-6.7-46.5,2.9-45.6-36.3c0.9-39.3-33.4-109.1-73.5-79.9c-23,16.8,2.6,48.9-8.4,74c-10.5,23.9,0.3,42.6,25.7,55.5
									c25.4,12.8,12.7,24.2,6.5,46.7c-7.4,27,33.8,29.8,52.9,29.5C156.8,338.7,196.2,348.4,199.2,367.1z"/>
							</defs>
							<clipPath id="SVGID_00000124161770383414824690000015118162988864321716_">
								<use xlink:href="#SVGID_00000013179656047000085550000007738214758269140912_"  style="overflow:visible;"/>
							</clipPath>
							<g style="opacity:0.3;clip-path:url(#SVGID_00000124161770383414824690000015118162988864321716_);">
								<g>
									<path class="st5" d="M218.6,342.2l0.2-0.5c-84.5-36.4-138.1-119-143.6-220.9h-0.6c2.6,48.3,16.6,94,40.5,132.1
										C140.3,293,176.1,323.9,218.6,342.2z"/>
									<path class="st5" d="M84.2,320.3c23.5-8.9,63.4-11,89-4.6l0.1-0.6c-25.7-6.4-65.7-4.4-89.4,4.6L84.2,320.3z"/>
									<path class="st5" d="M202.1,334.9l0.4-0.5c-10.6-8.7-16.4-22.4-17.2-40.8c-0.6-13.5,1.4-29,6.1-46.3l-0.6-0.2
										c-4.6,17.3-6.7,33-6.1,46.5C185.6,312.2,191.4,326.1,202.1,334.9z"/>
									<path class="st5" d="M112,247.4l0.4-0.4c-19.1-17.4-46-21.1-65.3-21.1v0.6C66.2,226.5,93,230.1,112,247.4z"/>
									<path class="st5" d="M87.7,193.4l0.6-0.1c-3.4-28.9,12.1-55.3,21.6-68.4l-0.5-0.4C99.8,137.8,84.2,164.3,87.7,193.4z"/>
								</g>
							</g>
						</g>
					</g>
				</g>
			</g>
		</g>
		<g>
			
				<linearGradient id="SVGID_00000124151428561972267110000017374992088490720696_" gradientUnits="userSpaceOnUse" x1="156.8454" y1="63.8591" x2="141.1452" y2="57.2651" gradientTransform="matrix(1 0 0 -1 0 501.8898)">
				<stop  offset="0" style="stop-color:#393F7E"/>
				<stop  offset="0.9964" style="stop-color:#282F6B"/>
			</linearGradient>
			<path style="fill:url(#SVGID_00000124151428561972267110000017374992088490720696_);" d="M285.9,429.4l-223.5-1.9v5.8
				c0,1.6,1,2.9,2.3,3.1l63.2,11.3c0.8,0.1,1.5,0.2,2.3,0.1l153.3-12.9c1.4-0.1,2.4-1.4,2.4-3.1V429.4z"/>
			
				<linearGradient id="SVGID_00000017479392044143018340000016753654519231165833_" gradientUnits="userSpaceOnUse" x1="135.8563" y1="133.1136" x2="118.8176" y2="125.9573" gradientTransform="matrix(1 0 0 -1 0 501.8898)">
				<stop  offset="0" style="stop-color:#393F7E"/>
				<stop  offset="0.9964" style="stop-color:#282F6B"/>
			</linearGradient>
			<path style="fill:url(#SVGID_00000017479392044143018340000016753654519231165833_);" d="M214,420L64.9,430.6
				c-2.7,0.2-4.8-1.8-4.8-4.5V319.5c0-2.7,2.2-4.8,4.8-4.8H214c2.2,0,4,1.9,4,4.4v96.3C217.9,417.8,216.2,419.9,214,420z"/>
			
				<linearGradient id="SVGID_00000152962294154668998930000003409642297851433864_" gradientUnits="userSpaceOnUse" x1="62.4" y1="129.2329" x2="220.3" y2="129.2329" gradientTransform="matrix(1 0 0 -1 0 501.8898)">
				<stop  offset="0" style="stop-color:#393F7E"/>
				<stop  offset="0.9964" style="stop-color:#282F6B"/>
			</linearGradient>
			<path style="fill:url(#SVGID_00000152962294154668998930000003409642297851433864_);" d="M216.3,420L67.2,430.6
				c-2.7,0.2-4.8-1.8-4.8-4.5V319.5c0-2.7,2.2-4.8,4.8-4.8h149.1c2.2,0,4,1.9,4,4.4v96.3C220.3,417.8,218.5,419.9,216.3,420z"/>
			<path class="st9" d="M211.7,413.2l-138.9,9.2c-2.2,0.1-3.9-1.5-3.9-3.7v-93.3c0-2.2,1.8-3.9,3.9-3.9l138.9-0.6
				c1.8,0,3.3,1.6,3.3,3.6v85C215,411.4,213.5,413.1,211.7,413.2z"/>
			<path class="st9" d="M147.1,317.6c0,1-0.8,1.8-1.7,1.8s-1.7-0.8-1.7-1.8s0.8-1.8,1.7-1.8C146.3,315.8,147.1,316.6,147.1,317.6z"
				/>
			
				<linearGradient id="SVGID_00000074422834315595471340000017171779631812579462_" gradientUnits="userSpaceOnUse" x1="62.4" y1="70.852" x2="285.9" y2="70.852" gradientTransform="matrix(1 0 0 -1 0 501.8898)">
				<stop  offset="0" style="stop-color:#393F7E"/>
				<stop  offset="0.9964" style="stop-color:#282F6B"/>
			</linearGradient>
			<path style="fill:url(#SVGID_00000074422834315595471340000017171779631812579462_);" d="M212.6,419.6l-150.2,11l65.5,11.8
				c0.8,0.1,1.5,0.2,2.3,0.1l155.7-13.1l-70.9-9.7C214.2,419.5,213.4,419.5,212.6,419.6z"/>
			
				<linearGradient id="SVGID_00000162316046396338956110000015251049978087822004_" gradientUnits="userSpaceOnUse" x1="84.3" y1="72.7398" x2="248.1" y2="72.7398" gradientTransform="matrix(1 0 0 -1 0 501.8898)">
				<stop  offset="0" style="stop-color:#393F7E"/>
				<stop  offset="0.9964" style="stop-color:#282F6B"/>
			</linearGradient>
			
				<polygon style="opacity:0.3;fill:url(#SVGID_00000162316046396338956110000015251049978087822004_);enable-background:new    ;" points="
				84.3,430.9 209.4,421.5 248.1,426.8 124.1,436.8 			"/>
			<g>
				
					<linearGradient id="SVGID_00000013187866039290650430000013449184520041731755_" gradientUnits="userSpaceOnUse" x1="123.6757" y1="141.9514" x2="178.7177" y2="228.7353" gradientTransform="matrix(1 0 0 -1 0 501.8898)">
					<stop  offset="0" style="stop-color:#FFD1CB"/>
					<stop  offset="1" style="stop-color:#7B87FB"/>
				</linearGradient>
				<path style="fill:url(#SVGID_00000013187866039290650430000013449184520041731755_);" d="M215,338.9l-146.1,1.8v-16.5
					c0-1.9,1.5-3.4,3.4-3.4h139.4c1.9,0,3.4,1.5,3.4,3.4L215,338.9L215,338.9z"/>
				<g>
					
						<linearGradient id="SVGID_00000144328349941016620180000011853458692618578315_" gradientUnits="userSpaceOnUse" x1="111.1084" y1="153.079" x2="157.0201" y2="53.5623" gradientTransform="matrix(1 0 0 -1 0 501.8898)">
						<stop  offset="3.597120e-03" style="stop-color:#777EE3"/>
						<stop  offset="1" style="stop-color:#5859F6"/>
					</linearGradient>
					<polygon style="fill:url(#SVGID_00000144328349941016620180000011853458692618578315_);" points="160.5,383.1 77.9,386.6 
						77.9,347.5 160.5,346.1 					"/>
					
						<linearGradient id="SVGID_00000080920851149718225750000017007407479458103222_" gradientUnits="userSpaceOnUse" x1="167.3757" y1="179.0848" x2="211.2831" y2="83.9125" gradientTransform="matrix(1 0 0 -1 0 501.8898)">
						<stop  offset="3.597120e-03" style="stop-color:#777EE3"/>
						<stop  offset="1" style="stop-color:#5859F6"/>
					</linearGradient>
					<polygon style="fill:url(#SVGID_00000080920851149718225750000017007407479458103222_);" points="207.5,381.2 165.4,382.9 
						165.4,346.1 207.5,345.4 					"/>
					
						<linearGradient id="SVGID_00000159466850093375459710000012151034981805706372_" gradientUnits="userSpaceOnUse" x1="119.4532" y1="151.5788" x2="161.4648" y2="60.5159" gradientTransform="matrix(1 0 0 -1 0 501.8898)">
						<stop  offset="3.597120e-03" style="stop-color:#777EE3"/>
						<stop  offset="1" style="stop-color:#5859F6"/>
					</linearGradient>
					<polygon style="fill:url(#SVGID_00000159466850093375459710000012151034981805706372_);" points="207.5,407.8 77.9,415.5 
						77.9,391.6 207.5,385.9 					"/>
				</g>
				<path class="st16" d="M79.4,330.1c0,1-0.9,1.9-2,1.9s-2-0.8-2-1.8s0.9-1.9,2-1.9C78.4,328.3,79.4,329.1,79.4,330.1z"/>
				<path class="st16" d="M86.7,330.1c0,1-0.9,1.8-2,1.9c-1.1,0-2-0.8-2-1.8s0.9-1.8,2-1.9C85.8,328.2,86.7,329,86.7,330.1z"/>
				<path class="st16" d="M93.9,330c0,1-0.9,1.8-2,1.8s-2-0.8-2-1.8s0.9-1.8,2-1.8S93.9,329,93.9,330z"/>
			</g>
			<path class="st17" d="M180.4,390.8c-11.5-6.2-20.5,1.7-29.3-6.1c-5.3-4.7-2.7-8.2-9.2-15.2c-7.2-7.8-11.9-5.2-19.1-12.1
				c-9.2-8.8-4.6-15.7-12.5-22c-9.6-7.7-19.9-0.6-29-7.9c-3.9-3.2-6.1-7.8-7.2-12.7h-8.9c-1.6,0-2.8,1.3-2.8,2.8V428
				c0,1.6,1.3,2.7,2.8,2.6l151.9-10.8c0.7-0.1,1.4-0.5,1.8-1.1c-11.1-0.4-18-4.1-22.3-8C188.1,403.2,189.6,395.8,180.4,390.8z"/>
		</g>
		<g>
			<path class="st18" d="M376.7,427.2c-3.5-1.1-6-4.1-6.8-7.7l-5-24.9l-43,1.5l-5.3,25.9c-0.7,3.6,2.2,7.3,5.6,8.6l18,7
				c3.3,1.3,6.9,1.8,10.5,1.5l38-3.3c1.1-0.1,2-1,2.1-2.1s0.9-2.4-0.2-2.7L376.7,427.2z"/>
			
				<linearGradient id="SVGID_00000041266124898624164970000009848898623729038213_" gradientUnits="userSpaceOnUse" x1="354.004" y1="98.3791" x2="354.6581" y2="73.8511" gradientTransform="matrix(1 0 0 -1 0 501.8898)">
				<stop  offset="0" style="stop-color:#30408C"/>
				<stop  offset="0.9964" style="stop-color:#1B1D4F"/>
			</linearGradient>
			<path style="fill:url(#SVGID_00000041266124898624164970000009848898623729038213_);" d="M377.2,425.7c-3.5-1.1-6-4-6.8-7.6
				l-5-24.6l-42,1.5l-5.3,25.6c-0.7,3.6,1.2,7.2,4.6,8.5l18,7c3.3,1.3,6.9,1.8,10.5,1.5l38-3.2c1.1-0.1,2-1,2.1-2.1
				s-0.5-2.2-1.6-2.5L377.2,425.7z"/>
			
				<linearGradient id="SVGID_00000124158392164570553710000010463169022632463504_" gradientUnits="userSpaceOnUse" x1="359.3922" y1="128.8792" x2="287.3156" y2="381.9243" gradientTransform="matrix(1 0 0 -1 0 501.8898)">
				<stop  offset="0" style="stop-color:#30408C"/>
				<stop  offset="0.9964" style="stop-color:#1B1D4F"/>
			</linearGradient>
			<path style="fill:url(#SVGID_00000124158392164570553710000010463169022632463504_);" d="M445.9,377.3V265.7
				c0-2.3-1.9-4.2-4.2-4.3l-191.8-7.7c-2.9-0.1-5.3,1.9-5.3,4.5v123.4L445.9,377.3z"/>
			<g>
				<path class="st9" d="M250.5,275.3v96.4c0,2.4,2.2,4.3,4.9,4.2l182-5.2c2.2-0.1,3.9-1.9,3.9-4v-86L250.5,275.3z"/>
				
					<linearGradient id="SVGID_00000168809791428448605870000010314352113924425122_" gradientUnits="userSpaceOnUse" x1="287.3018" y1="292.5285" x2="418.6579" y2="151.4991" gradientTransform="matrix(1 0 0 -1 0 501.8898)">
					<stop  offset="0" style="stop-color:#FFD1CB"/>
					<stop  offset="1" style="stop-color:#7B87FB"/>
				</linearGradient>
				<path style="fill:url(#SVGID_00000168809791428448605870000010314352113924425122_);" d="M441.4,280.8v-9.9c0-2.1-1.7-3.9-3.9-4
					l-182.2-6.8c-2.7-0.1-4.8,1.7-4.8,4.1v11.1L441.4,280.8z"/>
				<g>
					<path class="st16" d="M263.8,267.8c0,0.8-0.8,1.5-1.7,1.4c-0.9,0-1.7-0.7-1.7-1.6c0-0.8,0.8-1.5,1.7-1.4
						C263.1,266.3,263.8,267,263.8,267.8z"/>
					<path class="st16" d="M271.1,268.1c0,0.8-0.7,1.5-1.7,1.4c-0.9,0-1.7-0.7-1.7-1.5s0.7-1.5,1.7-1.4
						C270.3,266.5,271.1,267.2,271.1,268.1z"/>
					<path class="st16" d="M278.3,268.3c0,0.8-0.7,1.5-1.6,1.4c-0.9,0-1.7-0.7-1.7-1.5s0.7-1.5,1.7-1.4
						C277.5,266.8,278.3,267.5,278.3,268.3z"/>
				</g>
			</g>
			
				<linearGradient id="SVGID_00000077307919538090097910000010977103730310853022_" gradientUnits="userSpaceOnUse" x1="244.6" y1="108.288" x2="445.9" y2="108.288" gradientTransform="matrix(1 0 0 -1 0 501.8898)">
				<stop  offset="0" style="stop-color:#30408C"/>
				<stop  offset="0.9964" style="stop-color:#1B1D4F"/>
			</linearGradient>
			<path style="fill:url(#SVGID_00000077307919538090097910000010977103730310853022_);" d="M244.6,381.5v24.6
				c0,2.6,2.4,4.6,5.3,4.5l191.8-8.1c2.3-0.1,4.2-2.1,4.2-4.3v-21.6L244.6,381.5z"/>
			<g>
				<g>
					
						<linearGradient id="SVGID_00000177456003346276989990000013536450694589744029_" gradientUnits="userSpaceOnUse" x1="307.2208" y1="215.0455" x2="364.7507" y2="90.3457" gradientTransform="matrix(1 0 0 -1 0 501.8898)">
						<stop  offset="3.597120e-03" style="stop-color:#777EE3"/>
						<stop  offset="1" style="stop-color:#5859F6"/>
					</linearGradient>
					<polygon style="fill:url(#SVGID_00000177456003346276989990000013536450694589744029_);" points="370.2,329.3 264.5,329.9 
						264.5,285.7 370.2,287.7 					"/>
					
						<linearGradient id="SVGID_00000066482616027210903390000016116833047442355079_" gradientUnits="userSpaceOnUse" x1="380.1151" y1="242.7693" x2="433.1489" y2="127.8152" gradientTransform="matrix(1 0 0 -1 0 501.8898)">
						<stop  offset="3.597120e-03" style="stop-color:#777EE3"/>
						<stop  offset="1" style="stop-color:#5859F6"/>
					</linearGradient>
					<polygon style="fill:url(#SVGID_00000066482616027210903390000016116833047442355079_);" points="429.9,329 376.4,329.3 
						376.4,287.8 429.9,288.8 					"/>
					
						<linearGradient id="SVGID_00000038398533642811076230000005411097028133762214_" gradientUnits="userSpaceOnUse" x1="316.7565" y1="219.3781" x2="371.8268" y2="100.0097" gradientTransform="matrix(1 0 0 -1 0 501.8898)">
						<stop  offset="3.597120e-03" style="stop-color:#777EE3"/>
						<stop  offset="1" style="stop-color:#5859F6"/>
					</linearGradient>
					<polygon style="fill:url(#SVGID_00000038398533642811076230000005411097028133762214_);" points="429.9,358.9 264.5,362.7 
						264.5,335.7 429.9,334.3 					"/>
				</g>
			</g>
			<g class="st26">
				<path class="st9" d="M425.1,362.9c-15.8-5.3-28.8,5.5-40.1-3c-12.8-9.6-2.4-28.1-14.3-39c-16.4-15.1-49.2,8.3-63.4-5.9
					c-9.8-9.8,1.8-25.5-6.5-42.1c-4.2-8.4-12.1-14.1-21.7-18l-29.2-1.2c-2.9-0.1-5.3,1.9-5.3,4.5v123.4v24.6c0,2.6,2.4,4.6,5.3,4.5
					l191.8-8.1c2.3-0.1,4.2-2.1,4.2-4.3v-15.9C439.1,370.3,431.7,365.1,425.1,362.9z"/>
			</g>
		</g>
		<g>
			<g class="st27">
				<g>
					<path class="st28" d="M284.9,70.7c29.3,1.5,54,27.7,55.3,58.5c0.1,2.9,0,5.8-0.3,8.6c5.1-2,10.7-2.9,16.7-2.6
						c24.2,1.3,44.6,22.9,45.6,48.3c1,24.2-15.9,43-38.3,43.8c-1.2,0-2.4,0-3.6,0L160,216c-11.3-2.8-20.2-13.5-20.7-25.9
						c-0.6-14,9.7-24.7,23-24c2.8,0.1,5.5,0.8,8.1,1.9c-1.2-4.4-1.9-8.9-2.1-13.5c-1.3-31.8,22.2-56.4,52.5-54.8
						c5.6,0.3,11.1,1.5,16.3,3.4C244.1,83,262.6,69.5,284.9,70.7z"/>
				</g>
				<g>
					<path class="st1" d="M292.9,66c29.3,1.5,54,27.7,55.3,58.5c0.1,2.9,0,5.8-0.3,8.6c5.1-2,10.7-2.9,16.7-2.6
						c24.2,1.3,44.6,22.9,45.6,48.3c1,24.2-15.9,43-38.3,43.8c-1.2,0-2.4,0-3.6,0L168,211.3c-11.3-2.8-20.2-13.5-20.7-25.9
						c-0.6-14,9.7-24.7,23-24c2.8,0.1,5.5,0.8,8.1,1.9c-1.2-4.4-1.9-8.9-2.1-13.5C175,118,198.5,93.4,228.8,95
						c5.6,0.3,11.1,1.5,16.3,3.4C252.2,78.2,270.6,64.8,292.9,66z"/>
				</g>
			</g>
		</g>
		<g>
			<g class="st27">
				<g>
					<path class="st29" d="M160.4,229.3c10.9,0.6,20.2,10.4,20.6,21.9c0,1.1,0,2.2-0.1,3.2c1.9-0.7,4-1.1,6.2-1
						c9,0.5,16.7,8.5,17,18c0.4,9-5.9,16.1-14.3,16.3c-0.4,0-0.9,0-1.3,0l-74.8-4.2c-4.2-1-7.5-5-7.7-9.7c-0.2-5.2,3.6-9.2,8.6-9
						c1,0.1,2.1,0.3,3,0.7c-0.4-1.6-0.7-3.3-0.8-5.1c-0.5-11.9,8.3-21,19.6-20.5c2.1,0.1,4.1,0.6,6.1,1.3
						C145.2,233.9,152.1,228.9,160.4,229.3z"/>
				</g>
				<g>
					<path class="st30" d="M165.4,225.5c10.9,0.6,20.2,10.4,20.6,21.9c0,1.1,0,2.2-0.1,3.2c1.9-0.7,4-1.1,6.2-1
						c9,0.5,16.7,8.5,17,18c0.4,9-5.9,16.1-14.3,16.3c-0.4,0-0.9,0-1.3,0l-74.8-4.2c-4.2-1-7.5-5-7.7-9.7c-0.2-5.2,3.6-9.2,8.6-9
						c1,0.1,2.1,0.3,3,0.7c-0.4-1.6-0.7-3.3-0.8-5.1c-0.5-11.9,8.3-21,19.6-20.5c2.1,0.1,4.1,0.6,6.1,1.3
						C150.2,230.1,157.1,225.1,165.4,225.5z"/>
				</g>
			</g>
		</g>
		<g>
			<g class="st27">
				<g>
					<path class="st29" d="M389,179.5c10.9,0.6,20.2,10.4,20.6,21.9c0,1.1,0,2.2-0.1,3.2c1.9-0.7,4-1.1,6.2-1c9,0.5,16.7,8.5,17,18
						c0.4,9-5.9,16.1-14.3,16.3c-0.4,0-0.9,0-1.3,0l-74.8-4.2c-4.2-1-7.5-5-7.7-9.7c-0.2-5.2,3.6-9.2,8.6-9c1.1,0.1,2.1,0.3,3,0.7
						c-0.4-1.6-0.7-3.3-0.8-5.1c-0.5-11.9,8.3-21,19.6-20.5c2.1,0.1,4.1,0.6,6.1,1.3C373.8,184,380.7,179,389,179.5z"/>
				</g>
				<g>
					
						<linearGradient id="SVGID_00000033330993503079763220000001759974949051713191_" gradientUnits="userSpaceOnUse" x1="339.3925" y1="297.1067" x2="437.518" y2="297.1067" gradientTransform="matrix(1 0 0 -1 0 501.8898)">
						<stop  offset="3.597120e-03" style="stop-color:#777EE3"/>
						<stop  offset="1" style="stop-color:#5859F6"/>
					</linearGradient>
					<path style="fill:url(#SVGID_00000033330993503079763220000001759974949051713191_);" d="M393.8,175.6
						c10.9,0.6,20.2,10.4,20.6,21.9c0,1.1,0,2.2-0.1,3.2c1.9-0.7,4-1.1,6.2-1c9,0.5,16.7,8.5,17,18c0.4,9-5.9,16.1-14.3,16.3
						c-0.4,0-0.9,0-1.3,0l-74.8-4.2c-4.2-1-7.5-5-7.7-9.7c-0.2-5.2,3.6-9.2,8.6-9c1.1,0.1,2.1,0.3,3,0.7c-0.4-1.6-0.7-3.3-0.8-5.1
						c-0.5-11.9,8.3-21,19.6-20.5c2.1,0.1,4.1,0.6,6.1,1.3C378.5,180.2,385.4,175.1,393.8,175.6z"/>
				</g>
			</g>
		</g>
		<g>
			<g>
				<path class="st29" d="M228.3,213.3c-1.1,0-2-0.9-2-2V205c0-1.1,0.9-2,2-2s2,0.9,2,2v6.2C230.3,212.4,229.4,213.3,228.3,213.3z"
					/>
				<path class="st29" d="M228.3,342c-1.1,0-2-0.9-2-2v-12.9c0-1.1,0.9-2,2-2s2,0.9,2,2V340C230.3,341.1,229.4,342,228.3,342z
					 M228.3,316.2c-1.1,0-2-0.9-2-2v-12.9c0-1.1,0.9-2,2-2s2,0.9,2,2v12.9C230.3,315.3,229.4,316.2,228.3,316.2z M228.3,290.5
					c-1.1,0-2-0.9-2-2v-12.9c0-1.1,0.9-2,2-2s2,0.9,2,2v12.9C230.3,289.6,229.4,290.5,228.3,290.5z M228.3,264.8c-1.1,0-2-0.9-2-2
					v-12.9c0-1.1,0.9-2,2-2s2,0.9,2,2v12.9C230.3,263.9,229.4,264.8,228.3,264.8z M228.3,239c-1.1,0-2-0.9-2-2v-12.9
					c0-1.1,0.9-2,2-2s2,0.9,2,2V237C230.3,238.1,229.4,239,228.3,239z"/>
				<path class="st29" d="M230.3,361.1l-12.4-0.2c-1.1,0-2-0.9-2-2s0.9-2,2-2l0,0l8.3,0.2v-4.2c0-1.1,0.9-2,2-2s2,0.9,2,2
					L230.3,361.1L230.3,361.1z"/>
			</g>
			<g>
				<path class="st29" d="M319.9,219.3c-1.1,0-2-0.9-2-2V211c0-1.1,0.9-2,2-2s2,0.9,2,2v6.2C321.9,218.4,321,219.3,319.9,219.3z"/>
				<path class="st29" d="M319.9,242.8c-1.1,0-2-0.9-2-2V229c0-1.1,0.9-2,2-2s2,0.9,2,2v11.8C321.9,241.9,321,242.8,319.9,242.8z"/>
				<path class="st29" d="M319.9,260.8c-1.1,0-2-0.9-2-2v-6.2c0-1.1,0.9-2,2-2s2,0.9,2,2v6.2C321.9,259.9,321,260.8,319.9,260.8z"/>
			</g>
			<g>
				<path class="st29" d="M376.4,227.2c-1.1,0-2-0.9-2-2V219c0-1.1,0.9-2,2-2s2,0.9,2,2v6.2C378.4,226.4,377.5,227.2,376.4,227.2z"
					/>
				<path class="st29" d="M376.4,246.4c-1.1,0-2-0.9-2-2v-9.6c0-1.1,0.9-2,2-2s2,0.9,2,2v9.6C378.4,245.5,377.5,246.4,376.4,246.4z"
					/>
				<path class="st29" d="M376.4,262.3c-1.1,0-2-0.9-2-2V254c0-1.1,0.9-2,2-2s2,0.9,2,2v6.2C378.4,261.4,377.5,262.3,376.4,262.3z"
					/>
			</g>
			<g>
				<path class="st29" d="M165.4,279.1c-1.1,0-2-0.9-2-2v-6.2c0-1.1,0.9-2,2-2s2,0.9,2,2v6.2C167.3,278.2,166.5,279.1,165.4,279.1z"
					/>
				<path class="st29" d="M165.4,298.3c-1.1,0-2-0.9-2-2v-9.6c0-1.1,0.9-2,2-2s2,0.9,2,2v9.6C167.3,297.4,166.5,298.3,165.4,298.3z"
					/>
				<path class="st29" d="M165.4,314.1c-1.1,0-2-0.9-2-2v-6.2c0-1.1,0.9-2,2-2s2,0.9,2,2v6.2C167.3,313.2,166.5,314.1,165.4,314.1z"
					/>
			</g>
		</g>
		<g class="st32">
			<path class="st9" d="M305.7,100.2l-36-2.9c-3.3-0.3-6,2.5-6.1,6.1l-0.2,11.2c-0.1,3.6,2.5,6.8,5.8,7.1l36,2.8
				c3.2,0.3,5.9-2.5,6-6.1l0.2-11.1C311.5,103.6,308.9,100.4,305.7,100.2z"/>
			<g>
				<path class="st9" d="M299.5,140.8l-25.2-1.9c-1.7-0.1-3.1,1.3-3.2,3.2l-0.3,12.6c0,1.9,1.3,3.5,3,3.6l25.2,1.9
					c1.7,0.1,3.1-1.3,3.1-3.2l0.3-12.6C302.6,142.5,301.2,140.9,299.5,140.8z"/>
				<path class="st9" d="M335.6,143.5l-25-1.9c-1.7-0.1-3.1,1.3-3.1,3.2l-0.3,12.6c0,1.9,1.3,3.5,3,3.6l25,1.8
					c1.7,0.1,3.1-1.3,3.1-3.2l0.3-12.5C338.6,145.3,337.3,143.6,335.6,143.5z"/>
				<path class="st9" d="M227.6,135.5l-25.2-1.9c-1.7-0.1-3.1,1.3-3.2,3.2l-0.3,12.6c0,1.9,1.3,3.5,3,3.6l25.2,1.9
					c1.7,0.1,3.1-1.3,3.1-3.2l0.3-12.6C230.7,137.3,229.3,135.6,227.6,135.5z"/>
				<path class="st9" d="M263.7,138.3l-25-1.9c-1.7-0.1-3.1,1.3-3.1,3.2l-0.3,12.6c0,1.9,1.3,3.5,3,3.6l25,1.8
					c1.7,0.1,3.1-1.3,3.1-3.2l0.3-12.5C266.7,140,265.4,138.4,263.7,138.3z"/>
				<path class="st9" d="M371.3,146.2l-24.8-1.9c-1.7-0.1-3.1,1.3-3.1,3.2l-0.3,12.5c0,1.9,1.3,3.5,3,3.6l24.8,1.8
					c1.7,0.1,3-1.3,3.1-3.2l0.3-12.5C374.3,148,373,146.4,371.3,146.2z"/>
			</g>
			<g>
				<polygon class="st9" points="287.5,138 286.3,137.9 286.6,124.5 287.8,124.6 				"/>
				<path class="st9" d="M251.3,135.2l-1.1-0.1l0.1-3.4c0-1.8,1.4-3.2,3.1-3.1l24.9,1.9c1,0.1,1.9-0.8,1.9-1.9l0.1-4.6l1.1,0.1
					l-0.1,4.6c0,1.8-1.4,3.2-3.1,3.1l-24.9-1.9c-1-0.1-1.9,0.8-1.9,1.9L251.3,135.2z"/>
				<path class="st9" d="M323.3,140.8l-1.1-0.1l0.1-3.4c0-1.1-0.8-2.1-1.8-2.2l-24.7-1.9c-1.6-0.1-2.9-1.7-2.9-3.5l0.1-4.6l1.1,0.1
					l-0.1,4.6c0,1.1,0.8,2.1,1.8,2.2l24.7,1.9c1.6,0.1,2.9,1.7,2.9,3.5L323.3,140.8z"/>
			</g>
			<g>
				<path class="st9" d="M245.8,172.2l-1.1-0.1l0.1-3.4c0-1.1-0.8-2.1-1.8-2.2l-24.7-1.9c-1.6-0.1-2.9-1.7-2.9-3.5l0.1-4.6l1.1,0.1
					l-0.1,4.6c0,1.1,0.8,2.1,1.8,2.2l24.7,1.9c1.6,0.1,2.9,1.7,2.9,3.5L245.8,172.2z"/>
			</g>
			<g>
				<path class="st9" d="M262.5,174.9l-25.2-1.8c-1.7-0.1-3.1,1.3-3.2,3.2l-0.3,12.6c0,1.9,1.3,3.5,3,3.6l25.2,1.7
					c1.7,0.1,3.1-1.3,3.1-3.2l0.3-12.6C265.5,176.7,264.2,175.1,262.5,174.9z"/>
				<path class="st9" d="M298.5,177.5l-25-1.8c-1.7-0.1-3.1,1.3-3.1,3.2l-0.3,12.6c0,1.9,1.3,3.5,3,3.6l25,1.7
					c1.7,0.1,3.1-1.3,3.1-3.2l0.3-12.5C301.5,179.3,300.2,177.6,298.5,177.5z"/>
				<path class="st9" d="M334.3,180.1l-24.8-1.8c-1.7-0.1-3.1,1.3-3.1,3.2l-0.3,12.5c0,1.9,1.3,3.5,3,3.6l24.8,1.7
					c1.7,0.1,3-1.3,3.1-3.2l0.3-12.5C337.2,181.8,335.9,180.2,334.3,180.1z"/>
			</g>
			<g>
				<polygon class="st9" points="286.7,174.8 285.5,174.8 285.8,161.3 287,161.4 				"/>
				<path class="st9" d="M250.5,172.2l-1.1-0.1l0.1-3.4c0-1.8,1.4-3.2,3.1-3.1l24.9,1.8c1,0.1,1.9-0.8,1.9-1.9l0.1-4.6l1.1,0.1
					l-0.1,4.6c0,1.8-1.4,3.2-3.1,3.1l-24.9-1.8c-1-0.1-1.9,0.8-1.9,1.9L250.5,172.2z"/>
				<path class="st9" d="M322.5,177.4l-1.1-0.1l0.1-3.4c0-1.1-0.8-2.1-1.8-2.2L295,170c-1.6-0.1-2.9-1.7-2.9-3.5l0.1-4.6l1.1,0.1
					l-0.1,4.6c0,1.1,0.8,2.1,1.8,2.2l24.7,1.8c1.6,0.1,2.9,1.7,2.9,3.5L322.5,177.4z"/>
				<path class="st9" d="M327.1,177.8l1.1,0.1l0.4-3.4c0.1-1.1,1.1-2,2.1-1.9l24.7,1.6c1.6,0.1,3.1-1.3,3.4-3.1l0.5-4.6l-1.1-0.1
					l-0.5,4.6c-0.1,1.1-1.1,2-2.1,1.9l-24.7-1.6c-1.6-0.1-3.1,1.3-3.3,3.1L327.1,177.8z"/>
			</g>
		</g>
	</g>
</g>
</svg>
