<?xml version="1.0"?>
<svg xmlns="http://www.w3.org/2000/svg" xmlns:xlink="http://www.w3.org/1999/xlink" xmlns:svgjs="http://svgjs.com/svgjs" version="1.1" width="512" height="512" x="0" y="0" viewBox="0 0 496 495" style="enable-background:new 0 0 512 512" xml:space="preserve" class=""><g><path xmlns="http://www.w3.org/2000/svg" d="m232 288.5h-80v-24c0-6.753906-2.863281-13.226562-7.863281-17.769531-5.058594-4.601563-11.632813-6.710938-18.519531-6.128907-12.121094 1.160157-21.617188 12.265626-21.617188 25.273438v22.625h-80c-13.230469 0-24-10.769531-24-24v-72h24c6.742188 0 13.222656-2.867188 17.769531-7.867188 4.605469-5.0625 6.773438-11.628906 6.117188-18.511718-1.160157-12.117188-12.253907-21.621094-25.261719-21.621094h-22.625v-72c0-13.234375 10.769531-24 24-24h64v-8c0-11.242188 4.777344-22.042969 13.097656-29.601562 8.316406-7.566407 19.542969-11.3125 30.804688-10.207032 20.242187 1.925782 36.097656 20.015625 36.097656 41.183594v6.625h64c13.230469 0 24 10.765625 24 24v72h-22.625c-13.007812 0-24.101562 9.503906-25.261719 21.613281-.65625 6.878907 1.511719 13.457031 6.117188 18.511719 4.546875 5.007812 11.027343 7.875 17.769531 7.875h24v44.351562h-16v-28.351562h-8c-11.246094 0-22.03125-4.777344-29.609375-13.105469-7.558594-8.320312-11.285156-19.542969-10.207031-30.800781 1.9375-20.238281 20.023437-36.09375 41.191406-36.09375h6.625v-56c0-4.417969-3.59375-8-8-8h-80v-22.625c0-13.007812-9.496094-24.113281-21.617188-25.265625-6.902343-.605469-13.460937 1.519531-18.519531 6.128906-5 4.535157-7.863281 11.007813-7.863281 17.761719v24h-80c-4.40625 0-8 3.582031-8 8v56h6.625c21.167969 0 39.253906 15.855469 41.191406 36.101562 1.070313 11.25-2.648437 22.480469-10.207031 30.800782-7.578125 8.320312-18.363281 13.097656-29.609375 13.097656h-8v56c0 4.414062 3.59375 8 8 8h64v-6.625c0-21.167969 15.855469-39.257812 36.097656-41.183594 11.230469-1.128906 22.488282 2.640625 30.804688 10.207032 8.320312 7.558593 13.097656 18.359374 13.097656 29.601562v8h64c.710938 0 1.535156-.160156 2.503906-.480469l5.0625 15.167969c-2.628906.886719-5.101562 1.3125-7.566406 1.3125zm0 0" fill="#ffffff" data-original="#000000" style="" class=""/><path xmlns="http://www.w3.org/2000/svg" d="m496 374.707031v-60.425781l-29.832031-7.640625c-2.335938-7.558594-5.359375-14.863281-9.007813-21.789063l15.6875-26.480468-42.726562-42.730469-26.480469 15.691406c-6.921875-3.648437-14.226563-6.675781-21.792969-9.011719l-7.640625-29.820312h-60.421875l-7.640625 29.832031c-7.558593 2.335938-14.863281 5.359375-21.792969 9.007813l-26.480468-15.691406-42.726563 42.730468 15.6875 26.480469c-3.648437 6.917969-6.671875 14.222656-9.007812 21.789063l-29.824219 7.640624v60.425782l29.832031 7.640625c2.335938 7.558593 5.359375 14.863281 9.007813 21.789062l-15.6875 26.480469 42.726562 42.730469 26.480469-15.6875c6.921875 3.644531 14.226563 6.671875 21.792969 9.007812l7.640625 29.824219h60.421875l7.640625-29.832031c7.558593-2.335938 14.863281-5.363281 21.792969-9.011719l26.480468 15.691406 42.726563-42.730468-15.6875-26.480469c3.648437-6.917969 6.671875-14.222657 9.007812-21.789063zm-152 17.792969c-26.511719 0-48-21.488281-48-48 0-26.515625 21.488281-48 48-48s48 21.484375 48 48c0 26.511719-21.488281 48-48 48zm0 0" fill="#223f97" data-original="#f0bc5e" style="" class=""/><path xmlns="http://www.w3.org/2000/svg" d="m344 408.5c-35.289062 0-64-28.714844-64-64 0-35.289062 28.710938-64 64-64s64 28.710938 64 64c0 13.917969-4.457031 27.191406-12.871094 38.398438l-12.792968-9.609376c6.328124-8.414062 9.664062-18.367187 9.664062-28.789062 0-26.472656-21.527344-48-48-48s-48 21.527344-48 48c0 26.46875 21.527344 48 48 48 10.425781 0 20.375-3.347656 28.785156-9.664062l9.613282 12.78125c-11.199219 8.425781-24.476563 12.882812-38.398438 12.882812zm0 0" fill="#ffffff" data-original="#000000" style="" class=""/><path xmlns="http://www.w3.org/2000/svg" d="m344 440.5c-52.9375 0-96-43.066406-96-96 0-52.9375 43.0625-96 96-96s96 43.0625 96 96c0 52.933594-43.0625 96-96 96zm0-176c-44.113281 0-80 35.886719-80 80 0 44.109375 35.886719 80 80 80s80-35.890625 80-80c0-44.113281-35.886719-80-80-80zm0 0" fill="#ffffff" data-original="#000000" style="" class=""/><path xmlns="http://www.w3.org/2000/svg" d="m408 48.5h16v16h-16zm0 0" fill="#ffffff" data-original="#000000" style="" class=""/><path xmlns="http://www.w3.org/2000/svg" d="m408 80.5h16v16h-16zm0 0" fill="#ffffff" data-original="#000000" style="" class=""/><path xmlns="http://www.w3.org/2000/svg" d="m424 64.5h16v16h-16zm0 0" fill="#ffffff" data-original="#000000" style="" class=""/><path xmlns="http://www.w3.org/2000/svg" d="m392 64.5h16v16h-16zm0 0" fill="#ffffff" data-original="#000000" style="" class=""/><path xmlns="http://www.w3.org/2000/svg" d="m328 112.5h16v16h-16zm0 0" fill="#ffffff" data-original="#000000" style="" class=""/><path xmlns="http://www.w3.org/2000/svg" d="m328 144.5h16v16h-16zm0 0" fill="#ffffff" data-original="#000000" style="" class=""/><path xmlns="http://www.w3.org/2000/svg" d="m344 128.5h16v16h-16zm0 0" fill="#ffffff" data-original="#000000" style="" class=""/><path xmlns="http://www.w3.org/2000/svg" d="m312 128.5h16v16h-16zm0 0" fill="#ffffff" data-original="#000000" style="" class=""/><path xmlns="http://www.w3.org/2000/svg" d="m440 144.5h16v16h-16zm0 0" fill="#ffffff" data-original="#000000" style="" class=""/><path xmlns="http://www.w3.org/2000/svg" d="m440 176.5h16v16h-16zm0 0" fill="#ffffff" data-original="#000000" style="" class=""/><path xmlns="http://www.w3.org/2000/svg" d="m456 160.5h16v16h-16zm0 0" fill="#ffffff" data-original="#000000" style="" class=""/><path xmlns="http://www.w3.org/2000/svg" d="m424 160.5h16v16h-16zm0 0" fill="#ffffff" data-original="#000000" style="" class=""/><path xmlns="http://www.w3.org/2000/svg" d="m288 16.5h16v16h-16zm0 0" fill="#ffffff" data-original="#000000" style="" class=""/><path xmlns="http://www.w3.org/2000/svg" d="m288 48.5h16v16h-16zm0 0" fill="#ffffff" data-original="#000000" style="" class=""/><path xmlns="http://www.w3.org/2000/svg" d="m304 32.5h16v16h-16zm0 0" fill="#ffffff" data-original="#000000" style="" class=""/><path xmlns="http://www.w3.org/2000/svg" d="m272 32.5h16v16h-16zm0 0" fill="#ffffff" data-original="#000000" style="" class=""/><path xmlns="http://www.w3.org/2000/svg" d="m136 368.5h16v16h-16zm0 0" fill="#ffffff" data-original="#000000" style="" class=""/><path xmlns="http://www.w3.org/2000/svg" d="m136 400.5h16v16h-16zm0 0" fill="#ffffff" data-original="#000000" style="" class=""/><path xmlns="http://www.w3.org/2000/svg" d="m152 384.5h16v16h-16zm0 0" fill="#ffffff" data-original="#000000" style="" class=""/><path xmlns="http://www.w3.org/2000/svg" d="m120 384.5h16v16h-16zm0 0" fill="#ffffff" data-original="#000000" style="" class=""/><path xmlns="http://www.w3.org/2000/svg" d="m56 320.5h16v16h-16zm0 0" fill="#ffffff" data-original="#000000" style="" class=""/><path xmlns="http://www.w3.org/2000/svg" d="m56 352.5h16v16h-16zm0 0" fill="#ffffff" data-original="#000000" style="" class=""/><path xmlns="http://www.w3.org/2000/svg" d="m72 336.5h16v16h-16zm0 0" fill="#ffffff" data-original="#000000" style="" class=""/><path xmlns="http://www.w3.org/2000/svg" d="m40 336.5h16v16h-16zm0 0" fill="#ffffff" data-original="#000000" style="" class=""/></g></svg>
