<?xml version="1.0"?>
<svg xmlns="http://www.w3.org/2000/svg" xmlns:xlink="http://www.w3.org/1999/xlink" xmlns:svgjs="http://svgjs.com/svgjs" version="1.1" width="512" height="512" x="0" y="0" viewBox="0 0 64 64" style="enable-background:new 0 0 512 512" xml:space="preserve" class=""><g><g xmlns="http://www.w3.org/2000/svg" fill="#f0bc5e"><path d="m27 54c-2.757 0-5-2.243-5-5s2.243-5 5-5 5 2.243 5 5-2.243 5-5 5z" fill="#223f97" data-original="#f0bc5e" style=""/><path d="m13 54c-2.757 0-5-2.243-5-5s2.243-5 5-5 5 2.243 5 5-2.243 5-5 5z" fill="#223f97" data-original="#f0bc5e" style=""/><path d="m41 54c-2.757 0-5-2.243-5-5s2.243-5 5-5 5 2.243 5 5-2.243 5-5 5z" fill="#223f97" data-original="#f0bc5e" style=""/></g><path xmlns="http://www.w3.org/2000/svg" d="m54.196 53.041-.283-1.979 1.979-.283.283 1.979zm-.566-3.96-.283-1.979 1.979-.283.283 1.979zm-.566-3.96-.283-1.979 1.979-.283.283 1.979z" fill="#ffffff" data-original="#000000" style="" class=""/><path xmlns="http://www.w3.org/2000/svg" d="m60.867 55-2.506-17.542-1.979.283 2.465 17.259h-17.847c3.309 0 6-2.691 6-6 0-2.348-1.358-4.379-3.328-5.364l1.046-4.882-1.956-.42-1.011 4.718c-.246-.031-.496-.052-.751-.052h-40v10 2 8h38 2 22v-8zm-57.867-10h38c2.206 0 4 1.794 4 4s-1.794 4-4 4h-38zm0 16v-6h36v6zm58 0h-20v-4h20z" fill="#ffffff" data-original="#000000" style="" class=""/><path xmlns="http://www.w3.org/2000/svg" d="m21 9h-12v-7h12z" fill="#223f97" data-original="#f0bc5e" style=""/><path xmlns="http://www.w3.org/2000/svg" d="m15 25h-10v-5h10z" fill="#223f97" data-original="#f0bc5e" style=""/><path xmlns="http://www.w3.org/2000/svg" d="m44.414 8h-11.414v2h-4v-6c0-1.654-1.346-3-3-3h-22c-1.654 0-3 1.346-3 3v22c0 1.654 1.346 3 3 3h22c1.654 0 3-1.346 3-3v-10h4v2h5.613l2.348 2.135 1.346-1.48-2.92-2.655h-4.387v-6h8.586l6.707 6.707 1.414-1.414zm-17.414 18c0 .552-.449 1-1 1h-22c-.551 0-1-.448-1-1v-22c0-.552.449-1 1-1h22c.551 0 1 .448 1 1v6h-3c-1.654 0-3 1.346-3 3s1.346 3 3 3h3zm-3-12c-.551 0-1-.448-1-1s.449-1 1-1h9v2z" fill="#ffffff" data-original="#000000" style="" class=""/><path xmlns="http://www.w3.org/2000/svg" d="m63 24.219-2.416-.603 1.281-2.136-5.347-5.346-2.134 1.281-.603-2.415h-7.562l-.603 2.416-2.134-1.281-5.347 5.346 1.281 2.136-2.416.602v7.562l2.416.603-1.281 2.136 5.347 5.346 2.134-1.281.603 2.415h7.562l.603-2.416 2.134 1.281 5.347-5.346-1.281-2.136 2.416-.602zm-13 9.781c-3.314 0-6-2.686-6-6s2.686-6 6-6 6 2.686 6 6-2.686 6-6 6z" fill="#223f97" data-original="#f0bc5e" style=""/><path xmlns="http://www.w3.org/2000/svg" d="m50 35c-3.86 0-7-3.141-7-7s3.14-7 7-7 7 3.141 7 7-3.14 7-7 7zm0-12c-2.757 0-5 2.243-5 5s2.243 5 5 5 5-2.243 5-5-2.243-5-5-5z" fill="#ffffff" data-original="#000000" style="" class=""/><path xmlns="http://www.w3.org/2000/svg" d="m15 25h-2v-2h2zm-4 0h-2v-2h2zm-4 0h-2v-2h2z" fill="#ffffff" data-original="#000000" style="" class=""/><path xmlns="http://www.w3.org/2000/svg" d="m5 19h10v2h-10z" fill="#ffffff" data-original="#000000" style="" class=""/><path xmlns="http://www.w3.org/2000/svg" d="m15 59h-2v-2h2zm-4 0h-2v-2h2zm-4 0h-2v-2h2z" fill="#ffffff" data-original="#000000" style="" class=""/><path xmlns="http://www.w3.org/2000/svg" d="m40 48h2v2h-2z" fill="#ffffff" data-original="#000000" style="" class=""/><path xmlns="http://www.w3.org/2000/svg" d="m26 48h2v2h-2z" fill="#ffffff" data-original="#000000" style="" class=""/><path xmlns="http://www.w3.org/2000/svg" d="m12 48h2v2h-2z" fill="#ffffff" data-original="#000000" style="" class=""/></g></svg>
