<?xml version="1.0"?>
<svg xmlns="http://www.w3.org/2000/svg" xmlns:xlink="http://www.w3.org/1999/xlink" xmlns:svgjs="http://svgjs.com/svgjs" version="1.1" width="512" height="512" x="0" y="0" viewBox="0 0 600 600" style="enable-background:new 0 0 512 512" xml:space="preserve"><g><path xmlns="http://www.w3.org/2000/svg" d="m450 100h20v20h-20zm0 0" fill="#322fac" data-original="#000000" style=""/><path xmlns="http://www.w3.org/2000/svg" d="m410 100h20v20h-20zm0 0" fill="#322fac" data-original="#000000" style=""/><path xmlns="http://www.w3.org/2000/svg" d="m370 100h20v20h-20zm0 0" fill="#322fac" data-original="#000000" style=""/><path xmlns="http://www.w3.org/2000/svg" d="m130 100h20v20h-20zm0 0" fill="#322fac" data-original="#000000" style=""/><path xmlns="http://www.w3.org/2000/svg" d="m320 550h-40c-5.523438 0-10 4.476562-10 10s4.476562 10 10 10h40c5.523438 0 10-4.476562 10-10s-4.476562-10-10-10zm0 0" fill="#322fac" data-original="#000000" style=""/><path xmlns="http://www.w3.org/2000/svg" d="m570 300h-10v-70c-.035156-27.601562-22.398438-49.964844-50-50v-120c0-35.320312-20.5625-60-50-60h-320c-27.601562.0351562-49.964844 22.398438-50 50v170h20v-140h380v100h-20c-18.808594.0625-35.976562 10.699219-44.410156 27.507812-8.699219-3.78125-17.941406-6.160156-27.390625-7.046874-20.539063-40.734376-64.082031-64.5625-109.457031-59.90625-45.382813 4.664062-83.175782 36.847656-95 80.90625-36.960938 6.742187-65.84375 35.730468-72.449219 72.714843-6.601563 36.980469 10.460937 74.175781 42.792969 93.292969 32.339843 19.125 73.15625 16.144531 102.375-7.46875h113.539062v110c0 5.523438 4.476562 10 10 10h100v20h-380v-140h-20v170c.035156 27.601562 22.398438 49.964844 50 50h320c26.917969 0 50-22 50-40v-60h80c5.523438 0 10-4.476562 10-10v-160c0-16.566406-13.433594-30-30-30zm-460-240v-10c0-16.566406 13.433594-30 30-30h320c18.21875 0 30 15.699219 30 40zm350 520h-320c-16.566406 0-30-13.433594-30-30v-10h380v20c0 6-12.671875 20-30 20zm10-380h40c16.566406 0 30 13.433594 30 30v70h-10v-70c0-11.046875-8.953125-20-20-20h-40c-11.046875 0-20 8.953125-20 20v70h-10v-70c0-16.566406 13.433594-30 30-30zm40 100h-40v-70h40zm-247.203125 60c-2.425781 0-4.773437.882812-6.59375 2.492188-22.707031 20.027343-55.71875 23.191406-81.8125 7.839843-26.09375-15.355469-39.359375-45.753906-32.875-75.328125 6.484375-29.574218 31.25-51.625 61.375-54.652344 4.378906-.433593 7.960937-3.6875 8.820313-8.003906 7.683593-38.601562 39.5625-67.738281 78.703124-71.917968 39.136719-4.183594 76.457032 17.546874 92.125 53.664062 1.558594 3.566406 5.046876 5.90625 8.941407 5.992188 9.996093.242187 19.816406 2.628906 28.808593 7.003906-.058593 1-.289062 1.890625-.289062 2.878906v70h-10c-16.566406 0-30 13.433594-30 30v30zm317.203125 120h-180v-150c0-5.523438 4.476562-10 10-10h160c5.523438 0 10 4.476562 10 10zm0 0" fill="#322fac" data-original="#000000" style=""/><path xmlns="http://www.w3.org/2000/svg" d="m520 370c.046875-14.875-10.8125-27.539062-25.515625-29.761719-14.710937-2.226562-28.824219 6.667969-33.175781 20.890625-4.347656 14.226563 2.382812 29.492188 15.820312 35.871094l-16.613281 49.851562c-1.007813 3.046876-.496094 6.390626 1.382813 9 1.875 2.601563 4.894531 4.144532 8.101562 4.148438h40c3.210938 0 6.230469-1.546875 8.105469-4.15625 1.878906-2.605469 2.386719-5.957031 1.378906-9.003906l-16.613281-49.839844c10.429687-4.953125 17.089844-15.453125 17.128906-27zm-30-10c5.523438 0 10 4.476562 10 10s-4.476562 10-10 10-10-4.476562-10-10 4.476562-10 10-10zm-6.117188 80 6.117188-18.378906 6.117188 18.378906zm0 0" fill="#322fac" data-original="#000000" style=""/><path xmlns="http://www.w3.org/2000/svg" d="m40 330h70v20h-70zm0 0" fill="#322fac" data-original="#000000" style=""/><path xmlns="http://www.w3.org/2000/svg" d="m20 290h70v20h-70zm0 0" fill="#322fac" data-original="#000000" style=""/><path xmlns="http://www.w3.org/2000/svg" d="m0 250h70v20h-70zm0 0" fill="#322fac" data-original="#000000" style=""/></g></svg>
