<?xml version="1.0"?>
<svg xmlns="http://www.w3.org/2000/svg" xmlns:xlink="http://www.w3.org/1999/xlink" xmlns:svgjs="http://svgjs.com/svgjs" version="1.1" width="512" height="512" x="0" y="0" viewBox="0 0 480 480" style="enable-background:new 0 0 512 512" xml:space="preserve"><g><path xmlns="http://www.w3.org/2000/svg" d="m383.769531 399.199219c-.003906-2.121094-.84375-4.15625-2.34375-5.65625l-25.546875-25.542969h36.121094c4.417969 0 8-3.582031 8-8v-80c0-4.417969-3.582031-8-8-8h-36.121094l25.546875-25.535156c3.121094-3.125 3.121094-8.1875 0-11.3125l-21.425781-21.425782v-173.726562c-.027344-22.082031-17.917969-39.9726562-40-40h-160c-22.082031.0273438-39.972656 17.917969-40 40v173.726562l-21.425781 21.425782c-3.121094 3.125-3.121094 8.1875 0 11.3125l25.546875 25.535156h-36.121094c-4.417969 0-8 3.582031-8 8v80c0 4.417969 3.582031 8 8 8h36.121094l-25.546875 25.535156c-3.121094 3.125-3.121094 8.1875 0 11.3125l56.578125 56.578125c3.171875 3 8.136718 3 11.3125 0l25.535156-25.546875v36.121094c0 4.417969 3.582031 8 8 8h80c4.417969 0 8-3.582031 8-8v-36.121094l25.535156 25.546875c3.125 3.121094 8.1875 3.121094 11.3125 0l56.578125-56.578125c1.496094-1.496094 2.339844-3.527344 2.34375-5.648437zm-247.769531-359.199219c0-13.253906 10.746094-24 24-24h160c13.253906 0 24 10.746094 24 24v157.726562l-16-16v-125.726562c0-13.253906-10.746094-24-24-24h-128c-13.253906 0-24 10.746094-24 24v125.726562l-16 16zm144 120h-80c-4.417969 0-8 3.582031-8 8v36.121094l-24-24v-124.121094c0-4.417969 3.582031-8 8-8h128c4.417969 0 8 3.582031 8 8v124.121094l-24 24v-36.121094c0-4.417969-3.582031-8-8-8zm39.199219 284.457031-27.886719-27.90625c-2.347656-2.347656-5.898438-3.003906-8.929688-1.648437-1.71875.800781-3.480468 1.464844-5.238281 2.144531-3.09375 1.1875-5.132812 4.152344-5.136719 7.464844v39.488281h-64.007812v-39.488281c-.003906-3.3125-2.042969-6.277344-5.136719-7.464844-1.757812-.679687-3.519531-1.375-5.238281-2.144531-3.03125-1.339844-6.578125-.6875-8.929688 1.648437l-27.894531 27.90625-45.257812-45.257812 27.90625-27.886719c2.347656-2.347656 3.003906-5.898438 1.648437-8.929688-.800781-1.71875-1.464844-3.480468-2.144531-5.238281-1.183594-3.09375-4.152344-5.140625-7.464844-5.144531h-39.488281v-64h39.488281c3.3125-.003906 6.277344-2.042969 7.464844-5.136719.679687-1.757812 1.375-3.519531 2.144531-5.238281 1.355469-3.03125.699219-6.582031-1.648437-8.929688l-27.90625-27.894531 45.257812-45.257812 27.886719 27.90625c2.347656 2.347656 5.898438 3.003906 8.929688 1.648437 1.71875-.800781 3.480468-1.464844 5.238281-2.144531 3.09375-1.183594 5.140625-4.152344 5.144531-7.464844v-39.488281h64v39.488281c.003906 3.3125 2.042969 6.277344 5.136719 7.464844 1.757812.679687 3.519531 1.375 5.238281 2.144531 3.03125 1.355469 6.582031.699219 8.929688-1.648437l27.894531-27.90625 45.257812 45.257812-27.90625 27.886719c-2.347656 2.347656-3.003906 5.898438-1.648437 8.929688.800781 1.71875 1.464844 3.480468 2.144531 5.238281 1.1875 3.09375 4.152344 5.132812 7.464844 5.136719h39.488281v64h-39.488281c-3.3125.003906-6.277344 2.042968-7.464844 5.136718-.679687 1.757813-1.375 3.519532-2.144531 5.238282-1.355469 3.03125-.699219 6.582031 1.648437 8.929687l27.90625 27.902344zm0 0" fill="#322fac" data-original="#000000" style=""/><path xmlns="http://www.w3.org/2000/svg" d="m24 464h-16c-4.417969 0-8 3.582031-8 8s3.582031 8 8 8h16c4.417969 0 8-3.582031 8-8s-3.582031-8-8-8zm0 0" fill="#322fac" data-original="#000000" style=""/><path xmlns="http://www.w3.org/2000/svg" d="m112 464h-64c-4.417969 0-8 3.582031-8 8s3.582031 8 8 8h64c4.417969 0 8-3.582031 8-8s-3.582031-8-8-8zm0 0" fill="#322fac" data-original="#000000" style=""/><path xmlns="http://www.w3.org/2000/svg" d="m24 432h-16c-4.417969 0-8 3.582031-8 8s3.582031 8 8 8h16c4.417969 0 8-3.582031 8-8s-3.582031-8-8-8zm0 0" fill="#322fac" data-original="#000000" style=""/><path xmlns="http://www.w3.org/2000/svg" d="m48 448h48c4.417969 0 8-3.582031 8-8s-3.582031-8-8-8h-48c-4.417969 0-8 3.582031-8 8s3.582031 8 8 8zm0 0" fill="#322fac" data-original="#000000" style=""/><path xmlns="http://www.w3.org/2000/svg" d="m472 464h-16c-4.417969 0-8 3.582031-8 8s3.582031 8 8 8h16c4.417969 0 8-3.582031 8-8s-3.582031-8-8-8zm0 0" fill="#322fac" data-original="#000000" style=""/><path xmlns="http://www.w3.org/2000/svg" d="m432 464h-64c-4.417969 0-8 3.582031-8 8s3.582031 8 8 8h64c4.417969 0 8-3.582031 8-8s-3.582031-8-8-8zm0 0" fill="#322fac" data-original="#000000" style=""/><path xmlns="http://www.w3.org/2000/svg" d="m456 448h16c4.417969 0 8-3.582031 8-8s-3.582031-8-8-8h-16c-4.417969 0-8 3.582031-8 8s3.582031 8 8 8zm0 0" fill="#322fac" data-original="#000000" style=""/><path xmlns="http://www.w3.org/2000/svg" d="m432 432h-48c-4.417969 0-8 3.582031-8 8s3.582031 8 8 8h48c4.417969 0 8-3.582031 8-8s-3.582031-8-8-8zm0 0" fill="#322fac" data-original="#000000" style=""/><path xmlns="http://www.w3.org/2000/svg" d="m263.304688 304.433594c14.121093-10.125 20.09375-28.207032 14.777343-44.75-5.316406-16.542969-20.707031-27.761719-38.082031-27.761719s-32.765625 11.21875-38.082031 27.761719c-5.316407 16.542968.65625 34.625 14.777343 44.75l-24.382812 85.367187c-.691406 2.414063-.207031 5.011719 1.300781 7.015625 1.511719 2.003906 3.875 3.183594 6.386719 3.183594h80c2.511719 0 4.875-1.179688 6.386719-3.183594 1.507812-2.003906 1.992187-4.601562 1.300781-7.015625zm-52.695313 79.566406 23.160156-81.078125c1.070313-3.757813-.726562-7.738281-4.25-9.417969-10.058593-4.882812-15.414062-16.070312-12.910156-26.96875 2.507813-10.898437 12.207031-18.621094 23.390625-18.621094s20.882812 7.722657 23.390625 18.621094c2.503906 10.898438-2.851563 22.085938-12.910156 26.96875-3.523438 1.679688-5.320313 5.660156-4.25 9.417969l23.160156 81.078125zm0 0" fill="#322fac" data-original="#000000" style=""/></g></svg>
