<svg id="Layer_1" height="512" viewBox="0 0 512 512" width="512" xmlns="http://www.w3.org/2000/svg" data-name="Layer 1"><path d="m212.047 206.139c-.707-2.669-3.442-4.261-6.113-3.553-2.669.707-4.26 3.444-3.553 6.113 2.687 10.145 13.239 14.928 23.62 16.27v6.291c0 2.761 2.239 5 5 5s5-2.239 5-5v-6.022c9.684-.715 20.041-4.349 22.906-12.979 1.408-4.239 1.111-8.374-.858-11.957-2.996-5.452-9.486-9.362-19.843-11.955-.717-.179-1.458-.35-2.204-.518v-19.818c1.654.222 3.282.55 4.83 1.009 4.971 1.473 8.246 3.96 8.986 6.825.69 2.673 3.417 4.285 6.091 3.59 2.673-.69 4.281-3.417 3.59-6.091-1.663-6.44-7.285-11.381-15.828-13.912-2.348-.695-4.954-1.185-7.67-1.466v-6.16c0-2.761-2.239-5-5-5s-5 2.239-5 5v6.163c-6.545.698-12.841 2.809-17.151 6.761-3.926 3.6-5.901 8.195-5.562 12.938.353 4.936 3.221 9.48 8.074 12.795 4.083 2.789 9.306 4.26 14.639 5.448v18.927c-6.528-1.11-12.699-3.965-13.954-8.702zm37.237-1.02c.423.769.82 1.918.132 3.99-.892 2.685-6.049 5.416-13.416 6.103v-17.104c6.968 1.773 11.806 4.322 13.284 7.011zm-32.283-22.911c-2.281-1.558-3.609-3.422-3.74-5.251-.117-1.636.716-3.36 2.346-4.854 2.249-2.062 6.058-3.451 10.394-4.063v17.609c-3.54-.872-6.774-1.921-9-3.441zm7.266-58.59c1.74 1.935 4.131 3 6.733 3s4.995-1.066 6.733-3l31.682-35.211c2.426-2.696 3.017-6.43 1.541-9.743-1.476-3.314-4.646-5.373-8.274-5.373h-8.463v-57.733c0-5.27-4.288-9.558-9.557-9.558h-27.324c-5.27 0-9.557 4.288-9.557 9.558v57.734h-8.462c-3.628 0-6.799 2.059-8.274 5.373-1.476 3.314-.885 7.047 1.541 9.743zm-11.485-40.326c2.761 0 5-2.239 5-5v-62.292h26.438v62.292c0 2.761 2.239 5 5 5h11.347l-29.566 32.859-29.566-32.859zm178.624 133.837c1.74 1.934 4.131 3 6.733 3s4.993-1.065 6.733-3l31.682-35.211c2.426-2.696 3.017-6.429 1.541-9.745-1.477-3.313-4.647-5.371-8.274-5.371h-8.462v-57.734c0-5.27-4.288-9.558-9.558-9.558h-27.324c-5.27 0-9.557 4.288-9.557 9.557v57.735h-8.463c-3.627 0-6.798 2.059-8.273 5.372-1.477 3.313-.886 7.047 1.54 9.744zm-11.486-40.327c2.761 0 5-2.239 5-5v-62.292h26.438v62.292c0 2.761 2.239 5 5 5h11.347l-29.566 32.86-29.566-32.86zm-284.375-10h-8.463v-57.734c0-5.27-4.288-9.558-9.558-9.558h-27.323c-5.27 0-9.558 4.288-9.558 9.557v57.735h-8.462c-3.627 0-6.797 2.058-8.274 5.373-1.475 3.314-.884 7.047 1.542 9.743l31.682 35.211c1.74 1.934 4.131 3 6.733 3s4.994-1.066 6.733-3l31.683-35.211c2.426-2.697 3.016-6.431 1.54-9.743-1.476-3.313-4.646-5.372-8.273-5.372zm-31.682 42.859-29.566-32.859h11.347c2.761 0 5-2.239 5-5v-62.292h26.438v62.292c0 2.761 2.239 5 5 5h11.347zm387.507 99.275c-23.05-11.194-53.504-17.359-85.754-17.359-3.807 0-7.587.093-11.335.263v-100.306c0-17.32-13.327-33.331-37.526-45.083-23.05-11.194-53.505-17.359-85.754-17.359s-62.704 6.165-85.754 17.359c-24.199 11.752-37.526 27.763-37.526 45.083v223.847c0 35.014 54.151 62.442 123.28 62.442 9.771 0 19.475-.576 28.887-1.697 21.382 18.042 60.324 29.874 105.728 29.874 69.129 0 123.28-27.428 123.28-62.442v-89.539c0-17.32-13.327-33.331-37.526-45.083zm27.526 45.083c0 28.427-51.876 52.442-113.28 52.442s-113.28-24.016-113.28-52.442 51.876-52.442 113.28-52.442 113.28 24.016 113.28 52.442zm-247.896-214.927c61.404 0 113.28 24.016 113.28 52.442s-51.875 52.442-113.28 52.442-113.28-24.016-113.28-52.442 51.875-52.442 113.28-52.442zm-113.28 77.433c6.35 7.494 15.619 14.31 27.526 20.093 23.05 11.194 53.505 17.359 85.754 17.359s62.704-6.165 85.754-17.359c11.907-5.783 21.176-12.598 27.526-20.092v19.778c0 28.427-51.875 52.442-113.28 52.442s-113.28-24.015-113.28-52.442zm0 44.847c18.719 22.191 61.851 37.374 113.28 37.374s94.561-15.183 113.28-37.374v19.701c0 3.934-1.013 7.861-2.992 11.704-23.032 2.294-44.28 7.832-61.427 16.159-13.872 6.737-24.164 14.875-30.428 23.856-6.065.47-12.249.722-18.433.722-61.404 0-113.28-24.016-113.28-52.442v-19.701zm0 44.769c18.719 22.191 61.851 37.374 113.28 37.374 4.389 0 8.777-.129 13.131-.358-1.186 3.543-1.797 7.173-1.797 10.863v23.993c-3.761.177-7.556.271-11.334.271-61.404 0-113.28-24.016-113.28-52.442zm0 44.769c18.719 22.191 61.851 37.375 113.28 37.375 3.778 0 7.57-.093 11.334-.263v34.761c-3.758.177-7.552.271-11.334.271-61.404 0-113.28-24.015-113.28-52.442zm0 64.471v-19.702c18.719 22.191 61.851 37.374 113.28 37.374 3.781 0 7.574-.093 11.334-.263v10.768c0 8.326 3.067 16.221 8.665 23.423-6.578.555-13.269.842-19.999.842-61.404 0-113.28-24.016-113.28-52.442zm361.175 28.177c0 28.426-51.876 52.442-113.28 52.442s-113.28-24.016-113.28-52.442v-19.702c18.719 22.191 61.851 37.375 113.28 37.375s94.561-15.183 113.28-37.375zm0-44.77c0 28.427-51.876 52.442-113.28 52.442s-113.28-24.016-113.28-52.442v-19.778c6.35 7.494 15.619 14.309 27.526 20.092 23.05 11.194 53.505 17.359 85.754 17.359s62.704-6.165 85.754-17.359c11.907-5.783 21.176-12.598 27.526-20.092zm-132.233-30.165c-.707-2.669-3.443-4.26-6.113-3.553-2.669.707-4.26 3.444-3.553 6.113 2.687 10.145 13.239 14.928 23.619 16.27v6.291c0 2.761 2.239 5 5 5s5-2.239 5-5v-6.022c9.684-.714 20.042-4.349 22.906-12.98 1.407-4.239 1.11-8.374-.859-11.957-2.996-5.452-9.486-9.361-19.843-11.954-.717-.179-1.458-.35-2.205-.518v-19.818c1.654.222 3.282.551 4.83 1.009 4.971 1.473 8.247 3.96 8.987 6.825.69 2.674 3.415 4.282 6.091 3.59 2.674-.69 4.281-3.418 3.59-6.091-1.664-6.441-7.285-11.382-15.829-13.912-2.347-.695-4.954-1.186-7.669-1.466v-6.159c0-2.761-2.239-5-5-5s-5 2.239-5 5v6.162c-6.545.698-12.841 2.809-17.151 6.761-3.926 3.6-5.901 8.194-5.562 12.938.354 4.936 3.221 9.48 8.074 12.795 4.083 2.789 9.306 4.26 14.639 5.448v18.927c-6.527-1.11-12.698-3.965-13.953-8.702zm37.237-1.021c.422.769.819 1.918.132 3.99-.892 2.686-6.047 5.413-13.416 6.102v-17.103c6.968 1.773 11.806 4.322 13.284 7.011zm-32.284-22.911c-2.28-1.558-3.608-3.423-3.739-5.251-.117-1.636.716-3.36 2.345-4.854 2.248-2.062 6.058-3.451 10.394-4.063v17.61c-3.54-.872-6.774-1.921-9-3.441z"/></svg>