<svg id="Layer_1" data-name="Layer 1" xmlns="http://www.w3.org/2000/svg" viewBox="0 0 64 64"><title>rev</title><path d="M32,11A21,21,0,1,0,53,32,21.024,21.024,0,0,0,32,11ZM48.727,41H41.962a37.8,37.8,0,0,0,1.012-8h7.975A18.867,18.867,0,0,1,48.727,41ZM13.051,33h7.975a37.8,37.8,0,0,0,1.012,8H15.273A18.867,18.867,0,0,1,13.051,33Zm2.222-10h6.765a37.8,37.8,0,0,0-1.012,8H13.051A18.867,18.867,0,0,1,15.273,23ZM33,21V13.132c2.551.627,4.811,3.616,6.274,7.868Zm6.887,2a35.519,35.519,0,0,1,1.088,8H33V23ZM31,13.132V21H24.726C26.189,16.748,28.449,13.759,31,13.132ZM31,23v8H23.025a35.519,35.519,0,0,1,1.088-8ZM23.025,33H31v8H24.113A35.519,35.519,0,0,1,23.025,33ZM31,43v7.868c-2.551-.627-4.811-3.616-6.274-7.868Zm2,7.868V43h6.274C37.811,47.252,35.551,50.241,33,50.868ZM33,41V33h7.975a35.519,35.519,0,0,1-1.088,8Zm9.974-10a37.8,37.8,0,0,0-1.012-8h6.765a18.867,18.867,0,0,1,2.222,8Zm4.489-10H41.4a19.453,19.453,0,0,0-3.823-7.161A19.062,19.062,0,0,1,47.463,21ZM26.419,13.839A19.453,19.453,0,0,0,22.6,21H16.537A19.062,19.062,0,0,1,26.419,13.839ZM16.537,43H22.6a19.453,19.453,0,0,0,3.823,7.161A19.062,19.062,0,0,1,16.537,43Zm21.044,7.161A19.453,19.453,0,0,0,41.4,43h6.059A19.062,19.062,0,0,1,37.581,50.161Z" fill="#216733"/><path d="M32,3a2.993,2.993,0,0,0-2.866,2.162,27,27,0,0,0-3.363,53.116,1.032,1.032,0,0,0,1.2-.744,1,1,0,0,0-.745-1.2A25,25,0,0,1,29.235,7.162,3,3,0,1,0,32,3Zm0,4a1,1,0,1,1,1-1A1,1,0,0,1,32,7Z" fill="#216733"/><path d="M59,32A26.891,26.891,0,0,0,38.229,5.722a1,1,0,1,0-.458,1.947,25,25,0,0,1-3.006,49.169,3.019,3.019,0,1,0,.1,2A27.031,27.031,0,0,0,59,32ZM32,59a1,1,0,1,1,1-1A1,1,0,0,1,32,59Z" fill="#216733"/></svg>