<svg id="Layer_1" enable-background="new 0 0 66 66" height="512" viewBox="0 0 66 66" width="512" xmlns="http://www.w3.org/2000/svg"><g><g><g><g><path d="m60.9 54.5h-7.5c-.6 0-1-.4-1-1v-.2c0-4.6-1.6-9-4.5-12.3-.8-1-1.7-1.9-2.7-2.7-1.3-1-2.5-1.9-3.7-2.5-2.8-1.4-5.7-2.1-8.8-2.1-10.8 0-19.6 8.8-19.6 19.6v.2c0 .6-.4 1-1 1h-7.2c-.6 0-1-.4-1-1v-.2c0-7 2.5-13.8 7-19 5.5-6.4 13.5-10.1 22.1-10.1 5.1 0 10.1 1.4 14.5 3.9.8.5 1.7 1 2.5 1.7 7.4 5.3 11.9 14.1 11.9 23.5v.2c0 .6-.4 1-1 1zm-6.5-2h5.5c-.2-8.4-4.3-16.3-11.1-21.1-.8-.6-1.5-1.1-2.3-1.6-4.1-2.4-8.7-3.6-13.5-3.6-7.9 0-15.4 3.4-20.5 9.4-4.1 4.6-6.4 10.6-6.6 16.9h5.3c.4-11.5 9.9-20.8 21.6-20.8 3.3 0 6.6.8 9.6 2.3 1.4.7 2.7 1.6 4.1 2.7 1 .8 2.1 1.9 2.9 2.9 3.1 3.6 4.8 8.1 5 12.9z" fill="#76b543"/></g></g><g><path d="m32.9 33.6c-.6 0-1-.4-1-1v-7.4c0-.6.4-1 1-1s1 .4 1 1v7.4c0 .6-.4 1-1 1z" fill="#76b543"/></g><g><path d="m16.9 41.3c-.3 0-.5-.1-.7-.3l-5.3-5.3c-.4-.4-.4-1 0-1.4s1-.4 1.4 0l5.3 5.3c.4.4.4 1 0 1.4-.2.2-.4.3-.7.3z" fill="#76b543"/></g><g><path d="m48.8 41.3c-.3 0-.5-.1-.7-.3-.4-.4-.4-1 0-1.4l5.2-5.3c.4-.4 1-.4 1.4 0s.4 1 0 1.4l-5.2 5.3c-.2.2-.4.3-.7.3z" fill="#76b543"/></g></g><g><g><g><path d="m31 60.9c-1.1 0-2.2-.3-3.2-.9-2.6-1.9-3.3-5.4-1.5-7.9.4-.5.7-.9 1.2-1.2l11.5-8.7c.3-.3.8-.3 1.2 0 .4.2.5.7.4 1.1l-4.2 13.7c-.2.6-.4 1.2-.8 1.6-1 1.4-2.8 2.3-4.6 2.3zm6.8-15.3-9 6.8c-.3.2-.6.5-.8.8-1.1 1.6-.7 3.9 1 5.1 1.6 1.1 3.9.7 5.1-1 .2-.3.4-.6.4-1 0 0 0 0 0-.1z" fill="#76b543"/></g></g><g><path d="m31 57.9c-1.6 0-2.9-1.3-2.9-2.9s1.3-2.9 2.9-2.9 2.9 1.3 2.9 2.9-1.3 2.9-2.9 2.9zm0-3.8c-.5 0-.9.4-.9.9s.4.9.9.9.9-.4.9-.9-.4-.9-.9-.9z" fill="#76b543"/></g></g><g><path d="m49.9 54.5c-.6 0-1-.4-1-1 0-8.8-7.1-15.9-15.9-15.9-.6 0-1-.4-1-1s.4-1 1-1c9.9 0 17.9 8 17.9 17.9 0 .6-.4 1-1 1z" fill="#76b543"/></g><g><path d="m30 16.3c-.2 0-.4-.1-.6-.2-.3-.2-.5-.6-.4-1l.5-2.8-2-1.9c-.3-.3-.4-.7-.3-1 .1-.4.4-.6.8-.7l2.8-.4 1.3-2.5c.3-.7 1.4-.7 1.8 0l1.3 2.5 2.8.4c.4.1.7.3.8.7s0 .8-.3 1l-2 1.9.5 2.8c.1.4-.1.8-.4 1s-.7.3-1.1.1l-2.5-1.4-2.5 1.3c-.2.2-.3.2-.5.2zm3-3.6c.2 0 .3 0 .5.1l1.2.6-.2-1.3c-.1-.3 0-.7.3-.9l.9-.9-1.3-.2c-.3 0-.6-.3-.7-.5l-.7-1.2-.6 1.2c-.1.3-.4.5-.7.5l-1.3.2.9.9c.2.2.4.6.3.9l-.2 1.3 1.2-.6c.1-.1.2-.1.4-.1z" fill="#76b543"/></g><g><path d="m22.9 21.9c-.2 0-.3 0-.5-.1l-2.5-1.3-2.5 1.3c-.3.2-.8.2-1.1-.1-.3-.2-.5-.6-.4-1l.5-2.8-2-2c-.3-.3-.4-.7-.2-1s.4-.6.8-.7l2.8-.3 1.3-2.6c.3-.7 1.5-.7 1.8 0l1.3 2.6 2.8.3c.4 0 .7.3.8.7s0 .8-.2 1l-2 2 .5 2.8c.1.4-.1.8-.4 1-.4.1-.6.2-.8.2zm-3-3.6c.2 0 .3 0 .5.1l1.2.6-.2-1.3c-.1-.3 0-.7.3-.9l.9-.9-1.3-.2c-.3 0-.6-.3-.8-.6l-.6-1.1-.6 1.2c-.1.3-.4.5-.8.6l-1.3.2.9.9c.2.2.3.6.3.9l-.1 1.2 1.2-.6c.1-.1.2-.1.4-.1z" fill="#76b543"/></g><g><path d="m3.8 29.3c-.2 0-.4-.1-.6-.2-.3-.2-.5-.6-.4-1l.5-2.8-2-1.9c-.3-.3-.4-.7-.3-1 .1-.4.4-.6.8-.7l2.8-.4 1.3-2.5c.3-.7 1.5-.7 1.8 0l1.3 2.5 2.9.4c.4.1.7.3.8.7s0 .8-.3 1l-2.1 1.9.5 2.8c.1.4-.1.8-.4 1s-.7.3-1 .1l-2.6-1.3-2.6 1.3c-.1.1-.2.1-.4.1zm3-3.5c.2 0 .3 0 .4.1l1.2.6-.2-1.3c-.1-.3.1-.7.3-.9l1-.9-1.3-.2c-.3 0-.6-.2-.7-.5l-.6-1.2-.6 1.2c-.1.3-.4.5-.7.5l-1.3.2.9.9c.2.2.4.6.3.9l-.2 1.3 1.2-.6c0-.1.1-.1.3-.1z" fill="#76b543"/></g><g><path d="m49.1 21.9c-.2 0-.3 0-.5-.1l-2.5-1.3-2.5 1.3c-.3.2-.8.2-1.1-.1s-.5-.6-.4-1l.5-2.8-2-2c-.3-.3-.4-.7-.2-1s.4-.6.8-.7l2.8-.3 1.3-2.6c.3-.7 1.5-.7 1.8 0l1.3 2.6 2.8.3c.4 0 .7.3.8.7s0 .8-.2 1l-2 2 .5 2.8c.1.4-.1.8-.4 1-.4.1-.6.2-.8.2zm-3-3.6c.2 0 .3 0 .5.1l1.2.6-.2-1.3c-.1-.3 0-.7.3-.9l.9-.9-1.3-.2c-.3 0-.6-.3-.8-.6l-.6-1.1-.6 1.2c-.1.3-.4.5-.8.6l-1.3.2.9.9c.2.2.3.6.3.9l-.1 1.2 1.2-.6c.1-.1.2-.1.4-.1z" fill="#76b543"/></g><g><path d="m56.2 29.3c-.2 0-.4-.1-.6-.2-.3-.2-.5-.6-.4-1l.5-2.8-2.1-1.9c-.3-.3-.4-.7-.3-1 .1-.4.4-.6.8-.7l2.9-.4 1.3-2.5c.3-.7 1.4-.7 1.8 0l1.3 2.5 2.8.4c.4.1.7.3.8.7s0 .8-.3 1l-2 1.9.5 2.8c.1.4-.1.8-.4 1s-.7.3-1 .1l-2.6-1.3-2.6 1.3c-.1.1-.2.1-.4.1zm.3-5.9 1 .9c.3.2.4.6.3.9l-.2 1.3 1.2-.6c.3-.1.6-.1.9 0l1.2.6-.2-1.3c-.1-.3 0-.7.3-.9l.9-.9-1.3-.2c-.3 0-.6-.3-.7-.5l-.6-1.2-.6 1.2c-.1.3-.4.5-.7.5z" fill="#76b543"/></g></g></svg>