<svg id="Layer_1" viewBox="0 0 200 200" xmlns="http://www.w3.org/2000/svg" data-name="Layer 1"><g fill="#216733"><path d="m193.63 133.9-15.01-30.18c-2.28-4.59-3.37-9.7-3.15-14.77.06-1.28.08-2.55.08-3.8 0-23.12-9.11-44.75-25.66-60.91-16.54-16.16-38.38-24.76-61.55-24.22-45.96 1.08-83.24 39.38-83.1 85.39.06 19.98 7.18 39.37 20.04 54.62 4.55 5.4 7.06 12.11 7.06 18.91v39.06c0 1.1.9 2 2 2s2-.9 2-2v-39.06c0-7.74-2.84-15.37-8-21.49-12.26-14.53-19.04-33.02-19.1-52.06-.13-43.84 35.4-80.34 79.2-81.37 22.06-.53 42.9 7.68 58.66 23.08 15.77 15.4 24.45 36.02 24.45 58.05 0 1.19-.03 2.41-.08 3.62-.26 5.75.98 11.53 3.56 16.73l15.02 30.18c.97 1.96.96 4.2-.05 6.14-1 1.94-2.81 3.25-4.97 3.59l-9.71 1.55c-4.62.74-7.97 4.66-7.97 9.34v21.51c0 10.03-8.16 18.2-18.2 18.2h-38.57c-10.03 0-18.2-8.16-18.2-18.2v-13.63c0-1.1-.9-2-2-2s-2 .9-2 2v13.63c0 12.24 9.96 22.2 22.2 22.2h38.57c12.24 0 22.2-9.96 22.2-22.2v-21.51c0-2.7 1.93-4.96 4.6-5.39l9.71-1.55c3.43-.54 6.31-2.62 7.9-5.71s1.62-6.65.07-9.76z"/><path d="m49.07 50.77c1.1 0 2-.9 2-2s-.9-2-2-2c-7.68 0-13.94 6.25-13.94 13.94 0 7 5.2 12.8 11.94 13.78v19.14c0 1.1.9 2 2 2h39.31v55.12c0 1.1.9 2 2 2s2-.9 2-2v-23.97h43.25c.98 6.74 6.77 11.94 13.78 11.94 7.68 0 13.94-6.25 13.94-13.94 0-1.1-.9-2-2-2s-2 .9-2 2c0 5.48-4.46 9.94-9.94 9.94s-9.94-4.46-9.94-9.94 4.46-9.94 9.94-9.94c1.1 0 2-.9 2-2s-.9-2-2-2c-7 0-12.8 5.2-13.78 11.94h-43.25v-27.16h39.31c1.1 0 2-.9 2-2v-19.14c6.74-.98 11.94-6.77 11.94-13.78 0-1.1-.9-2-2-2s-2 .9-2 2c0 5.48-4.46 9.94-9.94 9.94s-9.94-4.46-9.94-9.94 4.46-9.94 9.94-9.94c1.1 0 2-.9 2-2s-.9-2-2-2c-7.68 0-13.94 6.25-13.94 13.94 0 7 5.2 12.8 11.94 13.78v17.14h-37.31v-41.01c6.74-.98 11.94-6.77 11.94-13.78 0-1.1-.9-2-2-2s-2 .9-2 2c0 5.48-4.46 9.94-9.94 9.94s-9.94-4.46-9.94-9.94 4.46-9.94 9.94-9.94c1.1 0 2-.9 2-2s-.9-2-2-2c-7.68 0-13.94 6.25-13.94 13.94 0 7 5.2 12.8 11.94 13.78v41.01h-37.31v-17.14c6.74-.98 11.94-6.77 11.94-13.78 0-1.1-.9-2-2-2s-2 .9-2 2c0 5.48-4.46 9.94-9.94 9.94s-9.94-4.46-9.94-9.94 4.46-9.94 9.94-9.94z"/><path d="m70.85 122.78c-1.1 0-2 .9-2 2 0 5.48-4.46 9.94-9.94 9.94s-9.94-4.46-9.94-9.94 4.46-9.94 9.94-9.94c1.1 0 2-.9 2-2s-.9-2-2-2c-7.68 0-13.94 6.25-13.94 13.94s6.25 13.94 13.94 13.94 13.94-6.25 13.94-13.94c0-1.1-.9-2-2-2z"/></g></svg>