<svg id="Layer_1" height="512" viewBox="0 0 64 64" width="512" xmlns="http://www.w3.org/2000/svg" data-name="Layer 1"><path d="m63.52 31.85a17.69 17.69 0 0 0 -.54-2l-1.9.65a13.43 13.43 0 0 1 .47 1.76z" fill="#223f97"/><path d="m52.33 21.74.64-1.9a18.87 18.87 0 0 0 -2-.54l-.4 2a12.28 12.28 0 0 1 1.76.44z" fill="#223f97"/><path d="m55.6 23.36 1.11-1.67a17.24 17.24 0 0 0 -1.81-1l-.9 1.75a15.81 15.81 0 0 1 1.6.92z" fill="#223f97"/><path d="m58.35 25.76 1.5-1.32a14.77 14.77 0 0 0 -1.49-1.44l-1.36 1.47a13.31 13.31 0 0 1 1.35 1.29z" fill="#223f97"/><path d="m62.17 27.9a14.15 14.15 0 0 0 -1.06-1.8l-1.65 1.11a16.66 16.66 0 0 1 .92 1.58z" fill="#223f97"/><path d="m61.79 34.06v.94a8.83 8.83 0 0 1 0 .89l2 .12c0-.33 0-.67 0-1s0-.72 0-1.08z" fill="#223f97"/><path d="m46.92 21h.87 1l.14-2h-1.05c-.35 0-.71 0-1 0z" fill="#223f97"/><path d="m59.48 42.74 1.67 1.11a16.37 16.37 0 0 0 1.05-1.85l-1.8-.88a11.4 11.4 0 0 1 -.92 1.62z" fill="#223f97"/><path d="m61.1 39.47 1.89.64a14.34 14.34 0 0 0 .54-2l-2-.39a15.37 15.37 0 0 1 -.43 1.75z" fill="#223f97"/><path d="m40.07 23.35a13.76 13.76 0 0 1 1.58-.91l-.88-1.8a14.72 14.72 0 0 0 -1.77 1.05z" fill="#223f97"/><path d="m43.34 21.74a12 12 0 0 1 1.76-.47l-.38-2a16.65 16.65 0 0 0 -2 .54z" fill="#223f97"/><path d="m47.83 39a4 4 0 1 0 -4-4 4 4 0 0 0 4 4zm0-6a2 2 0 1 1 -2 2 2 2 0 0 1 2-2z" fill="#223f97"/><path d="m59.42 45.45a1 1 0 0 0 -.27-.55l-5-5a8 8 0 0 0 -11.21-11.2l-5-5-.09-.11-.5-.57h-28.82a3 3 0 0 0 -3 2.52l-3.7 23.05v-40.59a1 1 0 0 1 1-1h23a1 1 0 0 1 1 1v3a3 3 0 0 0 3 3h24a1 1 0 0 1 1 1v4h2v-4a3 3 0 0 0 -3-3h-24a1 1 0 0 1 -1-1v-3a3 3 0 0 0 -3-3h-23a3 3 0 0 0 -3 3v51a3 3 0 0 0 3 3h58a1 1 0 0 0 .76-.35 1 1 0 0 0 .23-.8l-2.34-14.92zm-11.59-16.45a6 6 0 1 1 -6 6 6 6 0 0 1 6-6zm-44.66 31a1 1 0 0 1 -1-1 .51.51 0 0 1 0-.17l5.34-33a1 1 0 0 1 1-.83h26.84a15.83 15.83 0 0 0 -3.52 10v.64l-4.31 5.16a3 3 0 0 0 -.69 1.92v.28a3 3 0 0 0 3 3h2v3 2a3 3 0 0 0 3 3h5v6zm56.49 0h-17.83v-7a1 1 0 0 0 -1-1h-6a1 1 0 0 1 -1-1v-1h5v-2h-5v-2h2v-2h-6a1 1 0 0 1 -1-1v-.28a1 1 0 0 1 .23-.64l4.53-5.44a1 1 0 0 0 .24-.64v-1a13.81 13.81 0 0 1 3.42-9.16l4.26 4.26a8 8 0 0 0 11.21 11.21l4.76 4.77z" fill="#223f97"/></svg>