<svg id="Your_Icon" enable-background="new 0 0 100 100" height="100" viewBox="0 0 100 100" width="100" xmlns="http://www.w3.org/2000/svg"><g><g><g/></g><g/></g><g><g><g><g><path d="m50.002 83.031c-11.998 0-21.756-9.757-21.756-21.755 0-11.993 9.758-21.752 21.756-21.752 11.994 0 21.753 9.759 21.753 21.752.001 11.998-9.759 21.755-21.753 21.755z" style="fill:none;stroke:#000;stroke-linecap:round;stroke-linejoin:round;stroke-miterlimit:10;stroke-width:3"/></g><path d="m76.211 34.683c-2.492 0-4.799.729-6.795 1.926 0-.055.012-.104.012-.156 0-10.727-8.699-19.424-19.429-19.424-10.728 0-19.42 8.697-19.42 19.424 0 .053.006.104.006.156-1.992-1.195-4.299-1.926-6.793-1.926-7.342 0-13.297 5.953-13.297 13.296 0 7.344 5.955 13.297 13.297 13.297h4.455c0-11.993 9.758-21.753 21.756-21.753 11.994 0 21.753 9.76 21.753 21.753h4.455c7.342 0 13.295-5.953 13.295-13.297 0-7.343-5.953-13.296-13.295-13.296z" style="fill:none;stroke:#000;stroke-linecap:round;stroke-linejoin:round;stroke-miterlimit:10;stroke-width:3"/></g></g><g><g style="fill:none;stroke:#000;stroke-linecap:round;stroke-linejoin:round;stroke-miterlimit:10;stroke-width:3"><ellipse cx="50.002" cy="61.278" rx="10.847" ry="21.69"/><circle cx="50" cy="61.278" r="21.689"/><path d="m50.003 39.588v43.381"/><path d="m50.003 50.436c11.977 0 21.687 4.856 21.687 10.843 0 5.985-9.71 10.847-21.687 10.847-11.979 0-21.691-4.861-21.691-10.847 0-5.987 9.712-10.843 21.691-10.843z"/><circle cx="50.003" cy="61.278" r="21.69"/><path d="m28.312 61.278h43.377"/></g></g></g></svg>