<svg id="Layer_5" enable-background="new 0 0 64 64" height="512" viewBox="0 0 64 64" width="512" xmlns="http://www.w3.org/2000/svg"><g><path d="m55.834 43.215-.24-.961c1.164-.713 2.024-1.874 2.305-3.254h.101c2.206 0 4-1.794 4-4 0-.631-.16-1.22-.421-1.751.274-.804.421-1.64.421-2.495 0-1.548-.461-2.988-1.245-4.199 1.435-1.485 2.245-3.462 2.245-5.555 0-4.411-3.589-8-8-8-.548 0-1.095.058-1.636.173-1.626-4.86-6.161-8.173-11.364-8.173-2.713 0-5.21.915-7.222 2.439-2.564-3.998-6.972-6.439-11.778-6.439-6.253 0-11.656 4.076-13.409 10.009-4.774.215-8.591 4.166-8.591 8.991 0 1.584.418 3.142 1.208 4.506l1.73-1.003c-.614-1.059-.938-2.271-.938-3.503 0-3.86 3.141-7 7-7 .054 0 .106.004.159.008l.981.046.19-.807c1.281-5.445 6.079-9.247 11.67-9.247 4.229 0 8.098 2.204 10.269 5.794-2.021 2.148-3.269 5.031-3.269 8.206h2c0-5.514 4.486-10 10-10 4.624 0 8.616 3.141 9.707 7.638l.261 1.074 1.043-.367c.652-.229 1.321-.345 1.989-.345 3.309 0 6 2.691 6 6 0 1.503-.562 2.922-1.555 4.018-1.377-1.249-3.197-2.018-5.199-2.018h-4.492c-2.896 0-5.423 1.599-6.754 3.958-1.331-2.359-3.858-3.958-6.754-3.958h-4.492c-2.914 0-5.455 1.617-6.78 4h-2.873v2h2.106c-.131.565-.207 1.15-.207 1.754 0 .855.147 1.691.421 2.495-.261.531-.421 1.12-.421 1.751 0 2.206 1.794 4 4 4h.101c.281 1.38 1.141 2.541 2.305 3.254l-.24.961c-1.475.51-2.817 1.347-3.933 2.429-1.797-5.029-6.595-8.644-12.233-8.644-7.168 0-13 5.832-13 13s5.832 13 13 13h49v-9.733c0-4.532-2.918-8.584-7.166-10.052zm-1.834.909v.876c0 1.103-.897 2-2 2s-2-.897-2-2v-.876l.299-1.195c.231.033.461.071.701.071h2c.24 0 .47-.038.701-.071zm-11 2.955c-1.279-1.781-3.078-3.144-5.166-3.865l-.24-.961c1.164-.713 2.024-1.874 2.305-3.254h.101c1.201 0 2.266-.542 3-1.382.734.841 1.799 1.383 3 1.383h.101c.281 1.38 1.141 2.541 2.305 3.254l-.24.961c-2.119.732-3.906 2.107-5.166 3.864zm-5.635-1.899c.039.014.079.025.118.04l-.987 4.44-1.246-1.66zm2.635-12.18c1.103 0 2 .897 2 2s-.897 2-2 2zm6 4c-1.103 0-2-.897-2-2s.897-2 2-2zm10 1c0 1.654-1.346 3-3 3h-2c-1.654 0-3-1.346-3-3v-5.043c1.466-.153 2.844-.712 4-1.622 1.156.91 2.534 1.468 4 1.622zm2-1v-4c1.103 0 2 .897 2 2s-.897 2-2 2zm-8.246-12h4.492c3.173 0 5.754 2.581 5.754 5.754 0 .258-.04.509-.074.762-.574-.319-1.224-.516-1.926-.516h-1-.172c-1.557 0-3.021-.606-4.121-1.707l-.707-.708-.707.708c-1.101 1.101-2.564 1.707-4.121 1.707h-.172-1c-.702 0-1.352.197-1.926.516-.034-.253-.074-.504-.074-.762 0-3.173 2.581-5.754 5.754-5.754zm-23.754 10c0-1.103.897-2 2-2v4c-1.103 0-2-.897-2-2zm3.172-4h-.172-1c-.702 0-1.352.197-1.926.516-.034-.253-.074-.504-.074-.762 0-3.173 2.581-5.754 5.754-5.754h4.492c3.173 0 5.754 2.581 5.754 5.754 0 .258-.04.509-.074.762-.574-.319-1.224-.516-1.926-.516h-1-.172c-1.557 0-3.021-.606-4.121-1.707l-.707-.708-.707.708c-1.101 1.101-2.564 1.707-4.121 1.707zm.828 1.957c1.466-.153 2.844-.712 4-1.622 1.156.91 2.534 1.468 4 1.622v5.043c0 1.654-1.346 3-3 3h-2c-1.654 0-3-1.346-3-3zm3 10.043h2c.24 0 .47-.038.701-.071l.213.852-1.914 2.552-1.914-2.552.213-.852c.231.033.461.071.701.071zm-2.369 2.175 2.119 2.825-1.245 1.661-.988-4.442c.038-.015.076-.03.114-.044zm-1.946 1.021 1.81 8.143 3.505-4.672 3.505 4.673 1.809-8.138c1.054.739 1.934 1.71 2.573 2.848-.57 1.306-.887 2.734-.887 4.217v7.733h-11v-8h-2v8h-3v-4.104c1.26-2.002 2-4.362 2-6.896 0-.692-.07-1.367-.175-2.03.532-.682 1.157-1.282 1.86-1.774zm-25.634 4.804h4.971c.046 1.419.184 2.763.409 4h-4.217c-.626-1.221-1.034-2.57-1.163-4zm10.949-12c1.075 0 2.22 1.527 3.009 4h-6.019c.79-2.473 1.935-4 3.01-4zm3.519 6c.244 1.209.408 2.553.46 4h-7.958c.052-1.447.217-2.791.46-4zm7.43 4h-4.971c-.046-1.419-.184-2.763-.409-4h4.216c.627 1.221 1.035 2.57 1.164 4zm-16.927 0h-4.971c.13-1.43.537-2.779 1.164-4h4.216c-.225 1.237-.364 2.581-.409 4zm1.999 2h7.958c-.052 1.447-.217 2.791-.46 4h-7.038c-.244-1.209-.408-2.553-.46-4zm9.957 0h4.971c-.13 1.43-.537 2.779-1.164 4h-4.216c.225-1.237.364-2.581.409-4zm2.501 6c-1.246 1.507-2.891 2.665-4.764 3.341.553-.919 1.023-2.046 1.391-3.341zm0-14h-3.373c-.368-1.295-.837-2.422-1.391-3.341 1.873.676 3.517 1.834 4.764 3.341zm-12.193-3.341c-.554.919-1.023 2.046-1.391 3.341h-3.374c1.247-1.507 2.891-2.665 4.765-3.341zm-4.765 17.341h3.373c.368 1.295.837 2.422 1.391 3.341-1.873-.676-3.517-1.834-4.764-3.341zm5.47 0h6.019c-.789 2.473-1.935 4-3.009 4s-2.221-1.527-3.01-4zm12.009 2.359v1.641h-2.104c.757-.476 1.463-1.024 2.104-1.641zm38 1.641h-3v-8h-2v8h-8v-8h-2v8h-3v-7.733c0-3.396 2.02-6.457 5.043-7.846.213 2.005 1.895 3.579 3.957 3.579s3.744-1.574 3.957-3.579c3.023 1.389 5.043 4.45 5.043 7.846z"/><path d="m11 32c0 1.654 1.346 3 3 3s3-1.346 3-3-1.346-3-3-3-3 1.346-3 3zm4 0c0 .551-.448 1-1 1s-1-.449-1-1 .448-1 1-1 1 .449 1 1z"/><path d="m18.949 27.05c-1.322-1.322-3.079-2.05-4.949-2.05s-3.627.728-4.949 2.05l1.414 1.414c.944-.944 2.2-1.464 3.535-1.464s2.591.52 3.535 1.464z"/><path d="m7.636 25.636c3.51-3.509 9.219-3.509 12.729 0l1.414-1.414c-4.289-4.289-11.268-4.289-15.557 0z"/><path d="m23 7v-2c-4.702 0-8.713 3.199-9.753 7.778l1.951.443c.831-3.662 4.04-6.221 7.802-6.221z"/><path d="m48 17h2c0-4.411-3.589-8-8-8v2c3.309 0 6 2.691 6 6z"/></g></svg>