<?xml version="1.0"?>
<svg xmlns="http://www.w3.org/2000/svg" xmlns:xlink="http://www.w3.org/1999/xlink" xmlns:svgjs="http://svgjs.com/svgjs" version="1.1" width="512" height="512" x="0" y="0" viewBox="0 0 496 496" style="enable-background:new 0 0 512 512" xml:space="preserve" class=""><g><path xmlns="http://www.w3.org/2000/svg" d="m279.992188 184c0 53.019531-42.980469 96-96 96-53.019532 0-96-42.980469-96-96s42.980468-96 96-96c53.019531 0 96 42.980469 96 96zm0 0" fill="#6a6adc" data-original="#f0bc5e" style=""/><path xmlns="http://www.w3.org/2000/svg" d="m168.875 48.832031-1.761719-15.902343c5.550781-.617188 11.230469-.929688 16.878907-.929688v16c-5.054688 0-10.144532.28125-15.117188.832031zm0 0" fill="#ffffff" data-original="#000000" style="" class=""/><path xmlns="http://www.w3.org/2000/svg" d="m47.992188 184h-16c0-71.480469 48.617187-132.441406 118.234374-148.230469l3.535157 15.597657c-62.273438 14.136718-105.769531 68.671874-105.769531 132.632812zm0 0" fill="#ffffff" data-original="#000000" style="" class=""/><path xmlns="http://www.w3.org/2000/svg" d="m214.226562 51.367188c-4.96875-1.121094-10.050781-1.976563-15.121093-2.535157l1.769531-15.902343c5.65625.628906 11.335938 1.582031 16.878906 2.839843zm0 0" fill="#ffffff" data-original="#000000" style="" class=""/><path xmlns="http://www.w3.org/2000/svg" d="m367.992188 184c0-1.832031-.0625-3.648438-.132813-5.457031l-.042969-1.214844-15.992187.550781.050781 1.257813c.054688 1.617187.117188 3.230469.117188 4.863281 0 46.816406-18.804688 90.273438-52.949219 122.375-8.671875 8.136719-15.464844 18.34375-20.128907 29.625h-46.921874v-112h24c22.058593 0 40-17.945312 40-40s-17.941407-40-40-40c-22.054688 0-40 17.945312-40 40v23.535156c-9.941407-1.40625-19.117188-5.96875-26.34375-13.191406l-5.65625-5.65625-5.65625 5.65625c-7.222657 7.222656-16.398438 11.785156-26.34375 13.191406v-23.535156c0-22.054688-17.941407-40-40-40-22.054688 0-40 17.945312-40 40s17.945312 40 40 40h24v112h-47.046876c-4.769531-11.367188-11.734374-21.777344-20.65625-30.238281-37.945312-36.050781-56.679687-86.769531-51.414062-139.167969 7.839844-78.042969 70.0625-140.929688 147.957031-149.53125 55.28125-6.117188 108.089844 14.105469 144.816407 55.472656l11.960937-10.625c-40.222656-45.292968-98.015625-67.390625-158.535156-60.75-85.351563 9.425782-153.535157 78.328125-162.121094 163.832032-5.757813 57.351562 14.769531 112.886718 56.328125 152.359374 6.0625 5.761719 11.054688 12.609376 14.832031 20.089844-9.359375 3.277344-16.121093 12.101563-16.121093 22.558594 0 6.167969 2.410156 11.742188 6.242187 16-3.832031 4.257812-6.242187 9.832031-6.242187 16 0 13.230469 10.769531 24 24 24h.410156c4.054687 44.785156 41.765625 80 87.589844 80h32c45.824218 0 83.539062-35.214844 87.59375-80h.40625c13.234374 0 24-10.769531 24-24 0-6.167969-2.40625-11.742188-6.238282-16 3.839844-4.257812 6.238282-9.832031 6.238282-16 0-10.503906-6.832032-19.359375-16.246094-22.601562 3.648437-7.300782 8.449218-13.910157 14.246094-19.367188 37.402343-35.160156 58-82.757812 58-134.03125zm-136 0c0-13.230469 10.769531-24 24-24 13.234374 0 24 10.769531 24 24s-10.765626 24-24 24h-24zm-120 24c-13.230469 0-24-10.769531-24-24s10.769531-24 24-24c13.234374 0 24 10.769531 24 24v24zm40 15.65625c11.730468-1.222656 22.746093-5.695312 32-12.976562 9.257812 7.28125 20.273437 11.753906 32 12.976562v112.34375h-64zm48 256.34375h-32c-36.992188 0-67.535157-28.054688-71.527344-64h175.058594c-3.992188 35.945312-34.539063 64-71.53125 64zm88-80h-208c-4.40625 0-8-3.585938-8-8s3.59375-8 8-8h208c4.410156 0 8 3.585938 8 8s-3.589844 8-8 8zm0-32h-208c-4.40625 0-8-3.585938-8-8s3.59375-8 8-8h208c4.410156 0 8 3.585938 8 8s-3.589844 8-8 8zm0 0" fill="#ffffff" data-original="#000000" style="" class=""/><path xmlns="http://www.w3.org/2000/svg" d="m391.992188 152c-26.503907 0-48-21.496094-48-48s21.496093-48 48-48c26.503906 0 48 21.488281 48 48s-21.496094 48-48 48zm104-78.246094-19.328126-4.824218 10.25-17.074219-42.777343-42.777344-17.070313 10.25-4.824218-19.328125h-60.496094l-4.824219 19.320312-17.074219-10.25-42.773437 42.777344 10.246093 17.074219-19.328124 4.832031v60.492188l19.328124 4.824218-10.246093 17.082032 42.773437 42.777344 17.074219-10.25 4.824219 19.320312h60.496094l4.824218-19.328125 17.070313 10.25 42.777343-42.777344-10.25-17.082031 19.328126-4.816406zm0 0" fill="#6a6adc" data-original="#f0bc5e" style=""/><path xmlns="http://www.w3.org/2000/svg" d="m391.992188 64c-22.054688 0-40 17.945312-40 40s17.945312 40 40 40c22.058593 0 40-17.945312 40-40s-17.941407-40-40-40zm0 96c-30.878907 0-56-25.121094-56-56s25.121093-56 56-56c30.882812 0 56 25.121094 56 56s-25.117188 56-56 56zm0 0" fill="#ffffff" data-original="#000000" style="" class=""/></g></svg>
