<?xml version="1.0"?>
<svg xmlns="http://www.w3.org/2000/svg" xmlns:xlink="http://www.w3.org/1999/xlink" xmlns:svgjs="http://svgjs.com/svgjs" version="1.1" width="512" height="512" x="0" y="0" viewBox="0 0 64 64" style="enable-background:new 0 0 512 512" xml:space="preserve" class=""><g><g xmlns="http://www.w3.org/2000/svg"><g><path d="m63 21.729v-7.459l-2.734-.876c-.248-.772-.556-1.519-.919-2.229l1.312-2.549-5.274-5.274-2.549 1.312c-.71-.363-1.457-.671-2.229-.919l-.878-2.735h-7.459l-.876 2.734c-.772.248-1.519.556-2.229.919l-2.549-1.312-5.274 5.274 1.312 2.549c-.363.71-.671 1.457-.919 2.229l-2.735.878v7.459l2.734.876c.249.773.556 1.52.919 2.229l-1.312 2.548 5.274 5.274 2.549-1.312c.71.363 1.457.671 2.229.919l.878 2.736h7.459l.876-2.734c.772-.248 1.519-.556 2.229-.919l2.549 1.312 5.274-5.274-1.312-2.548c.363-.709.67-1.456.919-2.229zm-17 6.271c-5.523 0-10-4.477-10-10s4.477-10 10-10 10 4.477 10 10-4.477 10-10 10z" fill="#6a6adc" data-original="#f0bc5e" style=""/></g><g><path d="m13 28h12v9h-12z" fill="#6a6adc" data-original="#f0bc5e" style=""/></g><g><path d="m9 44h12v8h-12z" fill="#6a6adc" data-original="#f0bc5e" style=""/></g><g><path d="m46 29c6.065 0 11-4.935 11-11s-4.935-11-11-11-11 4.935-11 11 4.935 11 11 11zm0-20c4.962 0 9 4.038 9 9s-4.038 9-9 9-9-4.038-9-9 4.038-9 9-9z" fill="#ffffff" data-original="#000000" style="" class=""/><path d="m49.8 22.6 3.45-4.6-3.45-4.6-1.6 1.2 2.55 3.4-2.55 3.4z" fill="#ffffff" data-original="#000000" style="" class=""/><path d="m43.8 21.4-2.55-3.4 2.55-3.4-1.6-1.2-3.45 4.6 3.45 4.6z" fill="#ffffff" data-original="#000000" style="" class=""/><path d="m38.929 17h14.142v2h-14.142z" transform="matrix(.142 -.99 .99 .142 21.667 60.987)" fill="#ffffff" data-original="#000000" style="" class=""/><path d="m7 15c-1.103 0-2 .897-2 2v2c0 1.103.897 2 2 2h10c1.103 0 2-.897 2-2v-2c0-1.103-.897-2-2-2zm6 2v2h-2v-2zm-6 0h2v2h-2zm8 2v-2h2l.001 2z" fill="#ffffff" data-original="#000000" style="" class=""/><path d="m46 53c-1.654 0-3 1.346-3 3s1.346 3 3 3 3-1.346 3-3-1.346-3-3-3zm0 4c-.551 0-1-.449-1-1s.449-1 1-1 1 .449 1 1-.449 1-1 1z" fill="#ffffff" data-original="#000000" style="" class=""/><path d="m47 49.08v-12.08h-2v12.08c-3.387.488-6 3.401-6 6.92 0 .34.033.672.08 1h-35.08c-.551 0-1-.449-1-1v-31h29.569l.085-.165c-.3-.587-.552-1.204-.775-1.835h-28.879v-9c0-.551.449-1 1-1h27.879c.222-.631.475-1.248.775-1.835l-.086-.165h-28.568c-1.654 0-3 1.346-3 3v42c0 1.654 1.346 3 3 3h35.685c1.126 2.361 3.53 4 6.315 4 3.86 0 7-3.14 7-7 0-3.519-2.613-6.432-6-6.92zm-1 11.92c-2.757 0-5-2.243-5-5s2.243-5 5-5 5 2.243 5 5-2.243 5-5 5z" fill="#ffffff" data-original="#000000" style="" class=""/><path d="m59 49.184v-3.598l-4-4v-7.586h-2v8.414l4 4v2.77c-1.161.414-2 1.514-2 2.816 0 1.654 1.346 3 3 3s3-1.346 3-3c0-1.302-.839-2.402-2-2.816zm-1 3.816c-.551 0-1-.449-1-1s.449-1 1-1 1 .449 1 1-.449 1-1 1z" fill="#ffffff" data-original="#000000" style="" class=""/><path d="m31 52c0 1.654 1.346 3 3 3s3-1.346 3-3c0-1.302-.839-2.402-2-2.816v-2.77l4-4v-8.414h-2v7.586l-4 4v3.598c-1.161.414-2 1.514-2 2.816zm3 1c-.551 0-1-.449-1-1s.449-1 1-1 1 .449 1 1-.449 1-1 1z" fill="#ffffff" data-original="#000000" style="" class=""/><path d="m10 29h1v-2h-1c-1.654 0-3 1.346-3 3 0 .551-.449 1-1 1h-1v2h1c.551 0 1 .449 1 1 0 1.654 1.346 3 3 3h1v-2h-1c-.551 0-1-.449-1-1 0-.771-.301-1.468-.78-2 .479-.532.78-1.229.78-2 0-.551.449-1 1-1z" fill="#ffffff" data-original="#000000" style="" class=""/><path d="m13 27h12v2h-12z" fill="#ffffff" data-original="#000000" style="" class=""/><path d="m13 31h12v2h-12z" fill="#ffffff" data-original="#000000" style="" class=""/><path d="m23 35h2v2h-2z" fill="#ffffff" data-original="#000000" style="" class=""/><path d="m13 35h8v2h-8z" fill="#ffffff" data-original="#000000" style="" class=""/><path d="m27 50c0-.551.449-1 1-1h1v-2h-1c-.551 0-1-.449-1-1 0-1.654-1.346-3-3-3h-1v2h1c.551 0 1 .449 1 1 0 .771.301 1.468.78 2-.48.532-.78 1.229-.78 2 0 .551-.449 1-1 1h-1v2h1c1.654 0 3-1.346 3-3z" fill="#ffffff" data-original="#000000" style="" class=""/><path d="m9 51h12v2h-12z" fill="#ffffff" data-original="#000000" style="" class=""/><path d="m13 47h8v2h-8z" fill="#ffffff" data-original="#000000" style="" class=""/><path d="m9 47h2v2h-2z" fill="#ffffff" data-original="#000000" style="" class=""/><path d="m9 43h12v2h-12z" fill="#ffffff" data-original="#000000" style="" class=""/><path d="m5 39h20v2h-20z" fill="#ffffff" data-original="#000000" style="" class=""/></g></g></g></svg>
