<?xml version="1.0"?>
<svg xmlns="http://www.w3.org/2000/svg" xmlns:xlink="http://www.w3.org/1999/xlink" xmlns:svgjs="http://svgjs.com/svgjs" version="1.1" width="512" height="512" x="0" y="0" viewBox="0 0 64 64" style="enable-background:new 0 0 512 512" xml:space="preserve" class=""><g><g xmlns="http://www.w3.org/2000/svg" id="file_network-data-computer-network-currency" data-name="file network-data-computer-network-currency"><path d="m13 2h-10a1 1 0 0 0 -1 1v6a1 1 0 0 0 1 1h4v2h-3v2h8v-2h-3v-2h4a1 1 0 0 0 1-1v-6a1 1 0 0 0 -1-1zm-1 6h-8v-4h8z" fill="#322fac" data-original="#000000" style="" class=""/><path d="m61 2h-10a1 1 0 0 0 -1 1v6a1 1 0 0 0 1 1h4v2h-3v2h8v-2h-3v-2h4a1 1 0 0 0 1-1v-6a1 1 0 0 0 -1-1zm-1 6h-8v-4h8z" fill="#322fac" data-original="#000000" style="" class=""/><path d="m13 50h-10a1 1 0 0 0 -1 1v6a1 1 0 0 0 1 1h4v2h-3v2h8v-2h-3v-2h4a1 1 0 0 0 1-1v-6a1 1 0 0 0 -1-1zm-1 6h-8v-4h8z" fill="#322fac" data-original="#000000" style="" class=""/><path d="m61 50h-10a1 1 0 0 0 -1 1v6a1 1 0 0 0 1 1h4v2h-3v2h8v-2h-3v-2h4a1 1 0 0 0 1-1v-6a1 1 0 0 0 -1-1zm-1 6h-8v-4h8z" fill="#322fac" data-original="#000000" style="" class=""/><path d="m47 24h-5v-1a3.009 3.009 0 0 0 -3-3h-13v-1a1 1 0 0 0 -1-1h-8a1 1 0 0 0 -1 1v26a1 1 0 0 0 1 1h30a1 1 0 0 0 1-1v-20a1 1 0 0 0 -1-1zm-8-2a1 1 0 0 1 1 1v1h-5v-1a3 3 0 0 0 -.18-1zm-13 0h6a1 1 0 0 1 1 1v1h-7zm20 22h-28v-24h6v5a1 1 0 0 0 1 1h21z" fill="#322fac" data-original="#000000" style="" class=""/><path d="m24 30h20v2h-20z" fill="#322fac" data-original="#000000" style="" class=""/><path d="m24 34h20v2h-20z" fill="#322fac" data-original="#000000" style="" class=""/><path d="m24 38h20v2h-20z" fill="#322fac" data-original="#000000" style="" class=""/><path d="m20 30h2v2h-2z" fill="#322fac" data-original="#000000" style="" class=""/><path d="m20 34h2v2h-2z" fill="#322fac" data-original="#000000" style="" class=""/><path d="m20 38h2v2h-2z" fill="#322fac" data-original="#000000" style="" class=""/><path d="m6.976 15.447a30.02 30.02 0 0 0 0 33.106l1.668-1.106a28.012 28.012 0 0 1 0-30.894z" fill="#322fac" data-original="#000000" style="" class=""/><path d="m32 60a27.863 27.863 0 0 1 -15.447-4.644l-1.106 1.668a30.02 30.02 0 0 0 33.106 0l-1.106-1.668a27.863 27.863 0 0 1 -15.447 4.644z" fill="#322fac" data-original="#000000" style="" class=""/><path d="m55.356 16.553a28.012 28.012 0 0 1 0 30.894l1.668 1.106a30.02 30.02 0 0 0 0-33.106z" fill="#322fac" data-original="#000000" style="" class=""/><path d="m15.447 6.976 1.106 1.668a28.012 28.012 0 0 1 30.894 0l1.106-1.668a30.02 30.02 0 0 0 -33.106 0z" fill="#322fac" data-original="#000000" style="" class=""/></g></g></svg>
