<svg xmlns="http://www.w3.org/2000/svg" width="33.359" height="33.281" viewBox="0 0 33.359 33.281">
  <path id="Path_8050" data-name="Path 8050" d="M-8.32-16.641H8.32v3.281H-8.32ZM-11.8-26.758A16.073,16.073,0,0,1,0-31.641a16.073,16.073,0,0,1,11.8,4.883A16.027,16.027,0,0,1,16.68-15,16.027,16.027,0,0,1,11.8-3.242,16.073,16.073,0,0,1,0,1.641,16.073,16.073,0,0,1-11.8-3.242,16.027,16.027,0,0,1-16.68-15,16.027,16.027,0,0,1-11.8-26.758ZM-9.414-5.547A12.831,12.831,0,0,0,0-1.641,12.831,12.831,0,0,0,9.414-5.547,12.876,12.876,0,0,0,13.32-15a12.876,12.876,0,0,0-3.906-9.453A12.831,12.831,0,0,0,0-28.359a12.831,12.831,0,0,0-9.414,3.906A12.876,12.876,0,0,0-13.32-15,12.876,12.876,0,0,0-9.414-5.547Z" transform="translate(16.68 31.641)" fill="#012e6a"/>
</svg>
