<svg xmlns="http://www.w3.org/2000/svg" width="33.359" height="33.281" viewBox="0 0 33.359 33.281">
  <path id="Path_8052" data-name="Path 8052" d="M18.359-23.359v6.719H25v3.281H18.359v6.719H15v-6.719H8.359v-3.281H15v-6.719Zm-13.477-3.4a16.027,16.027,0,0,1,11.758-4.883,16.157,16.157,0,0,1,11.8,4.883A15.964,15.964,0,0,1,33.359-15,15.964,15.964,0,0,1,28.438-3.242a16.156,16.156,0,0,1-11.8,4.883A16.027,16.027,0,0,1,4.883-3.242,16.027,16.027,0,0,1,0-15,16.027,16.027,0,0,1,4.883-26.758ZM7.266-5.547A12.831,12.831,0,0,0,16.68-1.641a12.831,12.831,0,0,0,9.414-3.906A12.876,12.876,0,0,0,30-15a12.876,12.876,0,0,0-3.906-9.453,12.831,12.831,0,0,0-9.414-3.906,12.831,12.831,0,0,0-9.414,3.906A12.876,12.876,0,0,0,3.359-15,12.876,12.876,0,0,0,7.266-5.547Z" transform="translate(0 31.641)" fill="#012e6a"/>
</svg>
