<?xml version="1.0" encoding="UTF-8"?><svg xmlns="http://www.w3.org/2000/svg" xmlns:xlink="http://www.w3.org/1999/xlink" viewBox="0 0 501 501"><defs><style>.cls-1{fill:url(#linear-gradient-38);}.cls-1,.cls-2,.cls-3,.cls-4,.cls-5,.cls-6,.cls-7,.cls-8,.cls-9,.cls-10,.cls-11,.cls-12,.cls-13,.cls-14,.cls-15,.cls-16,.cls-17,.cls-18,.cls-19,.cls-20,.cls-21,.cls-22,.cls-23,.cls-24,.cls-25,.cls-26,.cls-27,.cls-28,.cls-29,.cls-30,.cls-31,.cls-32,.cls-33,.cls-34,.cls-35,.cls-36,.cls-37,.cls-38,.cls-39,.cls-40,.cls-41,.cls-42,.cls-43,.cls-44,.cls-45,.cls-46,.cls-47,.cls-48,.cls-49,.cls-50,.cls-51,.cls-52,.cls-53,.cls-54,.cls-55,.cls-56,.cls-57{stroke-width:0px;}.cls-58,.cls-35{fill:url(#linear-gradient-2);}.cls-2{fill:url(#linear-gradient-12);}.cls-3{fill:url(#linear-gradient-17);}.cls-4{fill:url(#linear-gradient-19);}.cls-5{fill:url(#linear-gradient-33);}.cls-6,.cls-59{fill:url(#linear-gradient);}.cls-7{opacity:.5;}.cls-7,.cls-18,.cls-19,.cls-21,.cls-51,.cls-55{mix-blend-mode:multiply;}.cls-7,.cls-57{fill:#97a6b7;}.cls-8{fill:url(#linear-gradient-21);}.cls-9{fill:url(#linear-gradient-6);}.cls-10{fill:#d8dee8;}.cls-11{fill:#f4f7fa;}.cls-60{clip-path:url(#clippath-2);}.cls-61{isolation:isolate;}.cls-12{fill:url(#linear-gradient-42);}.cls-13{fill:url(#linear-gradient-15);}.cls-14{fill:#bfc8d6;}.cls-15{fill:url(#linear-gradient-11);}.cls-16{fill:#22662c;}.cls-17{fill:url(#linear-gradient-5);}.cls-18{fill:url(#linear-gradient-35);}.cls-18,.cls-19{opacity:.3;}.cls-19{fill:url(#linear-gradient-10);}.cls-20{fill:url(#linear-gradient-31);}.cls-21,.cls-42{fill:#abc;}.cls-21,.cls-51,.cls-55{opacity:.2;}.cls-22{fill:#357530;}.cls-23,.cls-62{fill:#7ab63f;}.cls-24{fill:url(#linear-gradient-34);}.cls-63{clip-path:url(#clippath-1);}.cls-25{fill:url(#linear-gradient-41);}.cls-26{fill:url(#linear-gradient-40);}.cls-27{fill:url(#linear-gradient-13);}.cls-28{fill:url(#linear-gradient-23);}.cls-29{fill:url(#linear-gradient-25);}.cls-30{fill:url(#linear-gradient-16);}.cls-31{fill:url(#linear-gradient-22);}.cls-32{fill:#fff;}.cls-33{fill:url(#linear-gradient-32);}.cls-34{fill:url(#linear-gradient-14);}.cls-64{mix-blend-mode:soft-light;opacity:.8;}.cls-36{fill:url(#linear-gradient-7);}.cls-37{fill:url(#linear-gradient-39);}.cls-38{fill:url(#linear-gradient-3);}.cls-39,.cls-65{fill:#7fba40;}.cls-66{clip-path:url(#clippath);}.cls-40{fill:url(#linear-gradient-9);}.cls-41{fill:url(#linear-gradient-27);}.cls-67{clip-path:url(#clippath-3);}.cls-43{fill:url(#linear-gradient-36);}.cls-44{fill:url(#linear-gradient-8);}.cls-45{fill:url(#linear-gradient-24);}.cls-46{fill:url(#linear-gradient-26);}.cls-47{fill:url(#linear-gradient-18);}.cls-48{fill:url(#linear-gradient-30);}.cls-49{fill:url(#linear-gradient-29);}.cls-50{fill:url(#linear-gradient-28);}.cls-51{fill:url(#linear-gradient-20);}.cls-52{fill:url(#linear-gradient-4);}.cls-53{fill:#243b98;}.cls-54{fill:#4d8b35;}.cls-55{fill:url(#linear-gradient-43);}.cls-56{fill:url(#linear-gradient-37);}</style><linearGradient id="linear-gradient" x1="443.18" y1="171.91" x2="366.22" y2="767.67" gradientUnits="userSpaceOnUse"><stop offset="0" stop-color="#8bc643"/><stop offset="1" stop-color="#3c7b31"/></linearGradient><clipPath id="clippath"><path class="cls-6" d="m459.84,293.53c-.93.08-1.82.18-2.64.26-2.52.25-8.06,1.78-9.97-.74-3.15-4.15,4.85-11.18,6.86-14.34,2.49-3.91,5.57-8.26,6.07-13.01.76-7.22-4.19-16.99-10.29-20.76-8.42-5.2-20.18-1.66-27.75,3.44-10.96,7.4-18.66,19.6-21.78,32.34-3.37,13.74,1.28,27.96-.05,41.88-2.09,21.88-33.11-6-27.05,51.55,1.34,12.7,3.52,26.6,10.66,37.49,2.96,4.52,8.88,10.79,14.77,10.43,8.36-.51,7.99-12.34,10.58-17.8,3.03-6.38,8.32-11.43,14.2-15.2,7.48-4.8,16.15-9.09,19.12-18.15,1.93-5.88-.97-11.94-4.69-16.52-2.05-2.52-6.41-5.41-5.76-9.12.54-3.08,4.87-5.35,7.13-6.97,6.95-5,13.7-10.38,19.88-16.31,5.54-5.32,14.92-13.39,14.16-22.04-.61-6.96-7.8-6.93-13.46-6.42Z"/></clipPath><clipPath id="clippath-1"><path class="cls-23" d="m488.87,337.02c-2.93-10.54-12.19-18.53-22.79-21.29-6.45-1.68-14.33-2.25-20.91-1.1-9.26,1.61-16.9,7.65-22.85,14.65-7,8.22-7.65,18.41-10.15,28.54-.49,1.98-3.73,12.91-6.18,6.51-3.42-8.93-11.03-7.36-11.04-7.36-5.96,1.23-10.54,5.61-12.75,11.12-5.89,14.71-4.07,33.82-2.82,49.24.59,7.25,1.49,14.47,2.56,21.66.27,1.78,1.54,3.24,3.27,3.73,1.73.5,3.59-.06,4.76-1.43,1.22-1.42,2.49-2.72,3.67-3.87,11.34-11.04,29.1-12.67,44.08-13.33,8.75-.39,15.96-.94,23.58-5.64,3.17-1.95,6.61-4.35,8.08-7.92,1.33-3.23,1.59-8.75-.41-11.75-2.49-3.74-8.02-3.5-11.32-6.25-5.32-4.45,8.6-7.54,11.4-8.44,4.47-1.44,7.43-5,10.78-8.09,2.56-2.36,4.96-4.93,6.82-7.89,5.67-9.03,4.97-21.16,2.22-31.09Z"/></clipPath><clipPath id="clippath-2"><path class="cls-39" d="m206.8,139.83c.93.08,1.82.18,2.64.26,2.52.25,8.06,1.78,9.97-.74,3.15-4.15-4.85-11.18-6.86-14.34-2.49-3.91-5.57-8.26-6.07-13.01-.76-7.22,4.19-16.99,10.29-20.76,8.42-5.2,20.18-1.66,27.75,3.44,10.96,7.4,18.66,19.6,21.78,32.34,3.37,13.74-1.28,27.96.05,41.88,2.09,21.88,33.11-6,27.05,51.55-1.34,12.7-3.52,26.6-10.66,37.49-2.96,4.52-8.88,10.79-14.77,10.43-8.36-.51-7.99-12.34-10.58-17.8-3.03-6.38-8.32-11.43-14.2-15.2-7.48-4.8-16.15-9.09-19.12-18.15-1.93-5.88.97-11.94,4.69-16.52,2.05-2.52,6.41-5.41,5.76-9.12-.54-3.08-4.87-5.35-7.13-6.97-6.95-5-13.7-10.38-19.88-16.31-5.54-5.32-14.92-13.39-14.16-22.04.61-6.96,7.8-6.93,13.46-6.42Z"/></clipPath><linearGradient id="linear-gradient-2" x1="245.99" y1="118.02" x2="195.86" y2="506.12" gradientUnits="userSpaceOnUse"><stop offset="0" stop-color="#ffc444"/><stop offset="1" stop-color="#f36f56"/></linearGradient><clipPath id="clippath-3"><path class="cls-35" d="m177.77,183.32c2.93-10.54,12.19-18.53,22.79-21.29,6.45-1.68,14.33-2.25,20.91-1.1,9.26,1.61,16.9,7.65,22.85,14.65,7,8.22,7.65,18.41,10.15,28.54.49,1.98,3.73,12.91,6.18,6.51,3.42-8.93,11.03-7.36,11.04-7.36,5.96,1.23,10.54,5.61,12.75,11.12,5.89,14.71,4.07,33.82,2.82,49.24-.59,7.25-1.49,14.47-2.56,21.66-.27,1.78-1.54,3.24-3.27,3.73-1.73.5-3.59-.06-4.76-1.43-1.22-1.42-2.49-2.72-3.67-3.87-11.34-11.04-29.1-12.67-44.08-13.33-8.75-.39-15.96-.94-23.58-5.64-3.17-1.95-6.61-4.35-8.08-7.92-1.33-3.23-1.59-8.75.41-11.75,2.49-3.74,8.02-3.5,11.32-6.25,5.32-4.45-8.6-7.54-11.4-8.44-4.47-1.44-7.43-5-10.78-8.09-2.56-2.36-4.96-4.93-6.82-7.89-5.67-9.03-4.97-21.16-2.22-31.09Z"/></clipPath><linearGradient id="linear-gradient-3" x1="-708.34" y1="313.07" x2="-696.94" y2="313.07" gradientTransform="translate(1121.29 -24.71) rotate(3.28)" gradientUnits="userSpaceOnUse"><stop offset="0" stop-color="#311944"/><stop offset="1" stop-color="#6b3976"/></linearGradient><linearGradient id="linear-gradient-4" x1="-700.48" y1="312.42" x2="-691.04" y2="284.1" gradientTransform="translate(1121.29 -24.71) rotate(3.28)" xlink:href="#linear-gradient-2"/><linearGradient id="linear-gradient-5" x1="-822.2" y1="247.89" x2="-810.79" y2="247.89" gradientTransform="translate(1180.27)" xlink:href="#linear-gradient-3"/><linearGradient id="linear-gradient-6" x1="-813.73" y1="247.68" x2="-803.33" y2="216.48" gradientTransform="translate(1180.27)" xlink:href="#linear-gradient-2"/><linearGradient id="linear-gradient-7" x1="-2094.01" y1="139.44" x2="-2104.78" y2="176.23" gradientTransform="translate(-1799.44) rotate(-180) scale(1 -1)" xlink:href="#linear-gradient-2"/><linearGradient id="linear-gradient-8" x1="-2166.29" y1="165.66" x2="-2104.05" y2="107.54" gradientTransform="translate(-1799.44) rotate(-180) scale(1 -1)" gradientUnits="userSpaceOnUse"><stop offset="0" stop-color="#5371d3"/><stop offset="1" stop-color="#243b98"/></linearGradient><linearGradient id="linear-gradient-9" x1="-2194.58" y1="135.37" x2="-2132.35" y2="77.24" xlink:href="#linear-gradient-8"/><linearGradient id="linear-gradient-10" x1="-2194.58" y1="135.37" x2="-2132.35" y2="77.24" gradientTransform="translate(-1799.44) rotate(-180) scale(1 -1)" gradientUnits="userSpaceOnUse"><stop offset="0" stop-color="#aa80f9"/><stop offset="1" stop-color="#6165d7"/></linearGradient><linearGradient id="linear-gradient-11" x1="-1206.01" y1="26.1" x2="-1204.99" y2="-1.12" gradientTransform="translate(-487.44 949.86) rotate(133.37) scale(1 -1)" xlink:href="#linear-gradient-2"/><linearGradient id="linear-gradient-12" x1="517.08" y1="82.27" x2="510.56" y2="65.69" gradientTransform="translate(-126.75 293.17) rotate(-32.45)" xlink:href="#linear-gradient-3"/><linearGradient id="linear-gradient-13" x1="-2312.74" y1="-20.68" x2="-2313.03" y2="2.84" gradientTransform="translate(-1671.28 1215.29) rotate(151.06) scale(1 -1)" xlink:href="#linear-gradient-2"/><linearGradient id="linear-gradient-14" x1="341.09" y1="75.46" x2="362.27" y2="92.27" xlink:href="#linear-gradient-2"/><linearGradient id="linear-gradient-15" x1="338.13" y1="83.17" x2="338.9" y2="79.03" xlink:href="#linear-gradient-2"/><linearGradient id="linear-gradient-16" x1="335.2" y1="70.7" x2="346.04" y2="83.57" xlink:href="#linear-gradient-2"/><linearGradient id="linear-gradient-17" x1="334.75" y1="110.97" x2="343.34" y2="110.97" gradientUnits="userSpaceOnUse"><stop offset="0" stop-color="#d8dee8"/><stop offset="1" stop-color="#fff"/></linearGradient><linearGradient id="linear-gradient-18" x1="-2173.15" y1="116.29" x2="-2183.91" y2="153.08" gradientTransform="translate(-1799.44) rotate(-180) scale(1 -1)" xlink:href="#linear-gradient-2"/><linearGradient id="linear-gradient-19" x1="-2207.27" y1="121.78" x2="-2145.04" y2="63.65" xlink:href="#linear-gradient-8"/><linearGradient id="linear-gradient-20" x1="338.77" y1="137.11" x2="384.3" y2="137.11" xlink:href="#linear-gradient-17"/><linearGradient id="linear-gradient-21" x1="-466.42" y1="301.07" x2="-344.95" y2="301.07" gradientTransform="translate(689.27)" gradientUnits="userSpaceOnUse"><stop offset=".49" stop-color="#ebeff2"/><stop offset="1" stop-color="#fff"/></linearGradient><linearGradient id="linear-gradient-22" x1="173.78" y1="186.24" x2="37.96" y2="-86.86" xlink:href="#linear-gradient"/><linearGradient id="linear-gradient-23" x1="158.51" y1="233.66" x2="120.65" y2="27.3" xlink:href="#linear-gradient"/><linearGradient id="linear-gradient-24" x1="2898.43" y1="323.94" x2="2944.63" y2="323.94" gradientTransform="translate(3062.27) rotate(-180) scale(1 -1)" xlink:href="#linear-gradient-8"/><linearGradient id="linear-gradient-25" x1="2726.2" y1="886.93" x2="2732.12" y2="892.19" gradientTransform="translate(2956.15 -33.49) rotate(-171.95) scale(1 -1)" gradientUnits="userSpaceOnUse"><stop offset="0" stop-color="#444b8c"/><stop offset="1" stop-color="#26264f"/></linearGradient><linearGradient id="linear-gradient-26" x1="1806.64" y1="892.18" x2="1806.64" y2="881.87" gradientTransform="translate(2039.94 -163.01) rotate(-171.95) scale(1 -1)" gradientUnits="userSpaceOnUse"><stop offset="0" stop-color="#ab316d"/><stop offset="1" stop-color="#792d3d"/></linearGradient><linearGradient id="linear-gradient-27" x1="2726.8" y1="886.26" x2="2732.72" y2="891.52" xlink:href="#linear-gradient-25"/><linearGradient id="linear-gradient-28" x1="2887.9" y1="466.35" x2="2893.82" y2="471.61" gradientTransform="translate(3062.27) rotate(-180) scale(1 -1)" xlink:href="#linear-gradient-25"/><linearGradient id="linear-gradient-29" x1="1968.29" y1="471.63" x2="1968.29" y2="461.32" gradientTransform="translate(2136.96) rotate(-180) scale(1 -1)" xlink:href="#linear-gradient-26"/><linearGradient id="linear-gradient-30" x1="2883.58" y1="354.46" x2="2928.23" y2="303.9" gradientTransform="translate(3062.27) rotate(-180) scale(1 -1)" xlink:href="#linear-gradient-8"/><linearGradient id="linear-gradient-31" x1="2888.49" y1="465.68" x2="2894.41" y2="470.95" gradientTransform="translate(3062.27) rotate(-180) scale(1 -1)" xlink:href="#linear-gradient-25"/><linearGradient id="linear-gradient-32" x1="2893.72" y1="278.58" x2="2925.77" y2="318.9" gradientTransform="translate(3062.27) rotate(-180) scale(1 -1)" xlink:href="#linear-gradient-26"/><linearGradient id="linear-gradient-33" x1="2905.99" y1="278.39" x2="2914.66" y2="308.53" gradientTransform="translate(3062.27) rotate(-180) scale(1 -1)" gradientUnits="userSpaceOnUse"><stop offset="0" stop-color="#311944"/><stop offset="1" stop-color="#893976"/></linearGradient><linearGradient id="linear-gradient-34" x1="2895.07" y1="277.51" x2="2927.12" y2="317.83" gradientTransform="translate(3062.27) rotate(-180) scale(1 -1)" xlink:href="#linear-gradient-26"/><linearGradient id="linear-gradient-35" x1="2885.31" y1="355.98" x2="2929.96" y2="305.43" gradientTransform="translate(3062.27) rotate(-180) scale(1 -1)" xlink:href="#linear-gradient-10"/><linearGradient id="linear-gradient-36" x1="-5821.45" y1="384.86" x2="-5844.31" y2="421.83" gradientTransform="translate(6036.34 7.13) rotate(.79)" xlink:href="#linear-gradient-25"/><linearGradient id="linear-gradient-37" x1="-5823.79" y1="382.49" x2="-5818.35" y2="371.21" gradientTransform="translate(6036.34 7.13) rotate(.79)" xlink:href="#linear-gradient-10"/><linearGradient id="linear-gradient-38" x1="-5816.62" y1="399.47" x2="-5822.1" y2="408.34" gradientTransform="translate(6036.34 7.13) rotate(.79)" xlink:href="#linear-gradient-26"/><linearGradient id="linear-gradient-39" x1="2864.3" y1="337.43" x2="2908.96" y2="286.87" gradientTransform="translate(3062.27) rotate(-180) scale(1 -1)" xlink:href="#linear-gradient-8"/><linearGradient id="linear-gradient-40" x1="2900.15" y1="270.81" x2="2921.49" y2="297.66" gradientTransform="translate(3062.27) rotate(-180) scale(1 -1)" xlink:href="#linear-gradient-2"/><linearGradient id="linear-gradient-41" x1="2907.25" y1="261.83" x2="2909.5" y2="286.89" gradientTransform="translate(3062.27) rotate(-180) scale(1 -1)" xlink:href="#linear-gradient-2"/><linearGradient id="linear-gradient-42" x1="2904.83" y1="267.39" x2="2906.79" y2="289.22" gradientTransform="translate(3062.27) rotate(-180) scale(1 -1)" xlink:href="#linear-gradient-2"/><linearGradient id="linear-gradient-43" x1="2905.84" y1="262.49" x2="2908.01" y2="286.74" gradientTransform="translate(3062.27) rotate(-180) scale(1 -1)" xlink:href="#linear-gradient-2"/></defs><g class="cls-61"><g id="Layer_1"><path class="cls-11" d="m459.96,215.95c-12.42-81.29-63.34-181.16-163.94-191.62,0,0-76.38-9.29-151.67,4.79-44.69,8.36-83.87,33.23-108.66,68.99C10.9,133.86,2.61,177.46,12.66,219.02c6.53,27,10.94,54.94,9.73,82.68-2.11,48.28-.89,93.34,45.96,122.14,41.83,25.71,94.48,48.38,144.71,52.35,34.13,2.7,72.41-1.67,105.31-10.56,167.66-45.29,154-168.39,141.58-249.68Z"/><path class="cls-59" d="m459.84,293.53c-.93.08-1.82.18-2.64.26-2.52.25-8.06,1.78-9.97-.74-3.15-4.15,4.85-11.18,6.86-14.34,2.49-3.91,5.57-8.26,6.07-13.01.76-7.22-4.19-16.99-10.29-20.76-8.42-5.2-20.18-1.66-27.75,3.44-10.96,7.4-18.66,19.6-21.78,32.34-3.37,13.74,1.28,27.96-.05,41.88-2.09,21.88-33.11-6-27.05,51.55,1.34,12.7,3.52,26.6,10.66,37.49,2.96,4.52,8.88,10.79,14.77,10.43,8.36-.51,7.99-12.34,10.58-17.8,3.03-6.38,8.32-11.43,14.2-15.2,7.48-4.8,16.15-9.09,19.12-18.15,1.93-5.88-.97-11.94-4.69-16.52-2.05-2.52-6.41-5.41-5.76-9.12.54-3.08,4.87-5.35,7.13-6.97,6.95-5,13.7-10.38,19.88-16.31,5.54-5.32,14.92-13.39,14.16-22.04-.61-6.96-7.8-6.93-13.46-6.42Z"/><g class="cls-66"><g class="cls-64"><path class="cls-32" d="m415.27,437.11c-.09,0-.17-.03-.25-.08-14.27-10.2-20.99-25.76-20.54-47.59.4-19.03,5.97-39.68,11.37-59.64,4.25-15.72,8.26-30.58,8.99-42.5.59-9.56,3.31-18.23,8.11-25.77,3.84-6.03,9-11.35,15.33-15.82,10.78-7.6,21.4-10.12,21.5-10.14.23-.05.46.09.51.32.05.23-.09.46-.32.51-.1.02-10.59,2.52-21.23,10.03-9.8,6.91-21.76,19.63-23.06,40.93-.74,12.02-4.76,26.91-9.02,42.67-10.61,39.29-22.65,83.83,8.84,106.32.19.14.23.4.1.59-.08.12-.21.18-.35.18Z"/><path class="cls-32" d="m415.61,284.06s-.09,0-.13-.02c-.11-.04-2.83-.94-5.8-4.48-2.71-3.22-6.16-9.36-7.19-20.28-.02-.23.15-.44.38-.46.23-.02.44.15.46.38,1.01,10.66,4.34,16.63,6.95,19.76,2.82,3.38,5.44,4.26,5.46,4.27.22.07.34.31.27.53-.06.18-.22.29-.4.29Z"/><path class="cls-32" d="m411.37,310.73c-.21,0-.4-.16-.42-.38-.02-.23.15-.44.38-.47.07,0,7.35-.79,16.89-5,8.8-3.88,21.37-11.56,31.33-26.08.13-.19.4-.24.59-.11.19.13.24.4.11.59-10.08,14.7-22.81,22.46-31.72,26.39-9.66,4.26-17.05,5.05-17.12,5.05-.01,0-.03,0-.04,0Z"/><path class="cls-32" d="m396.05,375.81s-.09,0-.14-.02c-.3-.1-7.3-2.63-13.1-9.72-3.4-4.16-5.65-9.03-6.69-14.48-1.3-6.78-.7-14.48,1.77-22.87.07-.22.3-.35.53-.29.22.07.35.3.29.53-5.49,18.65-.45,30.16,4.74,36.54,5.64,6.91,12.68,9.46,12.75,9.49.22.08.34.32.26.54-.06.17-.23.28-.4.28Z"/><path class="cls-32" d="m398.52,361.49c-.21,0-.39-.16-.42-.37-.03-.23.13-.45.37-.48.34-.04,34.03-4.62,42.28-17.37.13-.2.39-.25.59-.13.2.13.25.39.13.59-3.57,5.51-11.88,10.17-24.7,13.85-9.51,2.73-18.1,3.88-18.18,3.89-.02,0-.04,0-.06,0Z"/></g></g><path class="cls-62" d="m488.87,337.02c-2.93-10.54-12.19-18.53-22.79-21.29-6.45-1.68-14.33-2.25-20.91-1.1-9.26,1.61-16.9,7.65-22.85,14.65-7,8.22-7.65,18.41-10.15,28.54-.49,1.98-3.73,12.91-6.18,6.51-3.42-8.93-11.03-7.36-11.04-7.36-5.96,1.23-10.54,5.61-12.75,11.12-5.89,14.71-4.07,33.82-2.82,49.24.59,7.25,1.49,14.47,2.56,21.66.27,1.78,1.54,3.24,3.27,3.73,1.73.5,3.59-.06,4.76-1.43,1.22-1.42,2.49-2.72,3.67-3.87,11.34-11.04,29.1-12.67,44.08-13.33,8.75-.39,15.96-.94,23.58-5.64,3.17-1.95,6.61-4.35,8.08-7.92,1.33-3.23,1.59-8.75-.41-11.75-2.49-3.74-8.02-3.5-11.32-6.25-5.32-4.45,8.6-7.54,11.4-8.44,4.47-1.44,7.43-5,10.78-8.09,2.56-2.36,4.96-4.93,6.82-7.89,5.67-9.03,4.97-21.16,2.22-31.09Z"/><g class="cls-63"><g class="cls-64"><path class="cls-32" d="m380.19,446.51c-.06,0-.12-.01-.18-.04-.21-.1-.3-.35-.2-.56.14-.3,14.18-29.97,33.56-60.38,11.39-17.87,22.37-32.5,32.63-43.48,12.87-13.77,24.66-21.82,35.04-23.93.23-.05.45.1.5.33.05.23-.1.45-.33.5-10.21,2.08-21.85,10.05-34.59,23.68-10.23,10.94-21.17,25.53-32.53,43.35-19.35,30.37-33.37,59.99-33.51,60.28-.07.15-.23.24-.38.24Z"/><path class="cls-32" d="m430.66,361.6s-.04,0-.07,0c-.23-.04-.39-.25-.35-.49.06-.4,6.32-40.09.11-46.79-.16-.17-.15-.44.02-.6.17-.16.44-.15.6.02,6.49,7,.37,45.85.11,47.5-.03.21-.21.36-.42.36Z"/><path class="cls-32" d="m504.86,341.05c-.08,0-.15-.02-.22-.06-16.65-10.4-51.27-4.97-51.62-4.91-.23.04-.45-.12-.49-.35-.04-.23.12-.45.35-.49.09-.01,8.89-1.41,19.66-1.5,9.96-.08,23.7,1,32.55,6.53.2.12.26.39.13.58-.08.13-.22.2-.36.2Z"/><path class="cls-32" d="m394.16,419.41s-.06,0-.1-.01c-.23-.05-.37-.28-.32-.51,4.54-19.63-12.49-48.26-12.66-48.54-.12-.2-.06-.46.14-.58.2-.12.46-.06.58.14.04.07,4.4,7.35,8.13,16.98,3.45,8.92,7.06,21.74,4.64,32.19-.05.2-.22.33-.41.33Z"/><path class="cls-32" d="m408.24,394.99c-.18,0-.34-.11-.4-.29-.07-.22.05-.46.27-.54.15-.05,15.43-5.06,33.94-8.69,17.11-3.36,40.57-6.19,55.13-.6.22.08.33.33.24.55-.08.22-.33.33-.55.24-14.37-5.52-37.66-2.7-54.66.64-18.46,3.62-33.69,8.62-33.84,8.67-.04.01-.09.02-.13.02Z"/></g></g><path class="cls-65" d="m206.8,139.83c.93.08,1.82.18,2.64.26,2.52.25,8.06,1.78,9.97-.74,3.15-4.15-4.85-11.18-6.86-14.34-2.49-3.91-5.57-8.26-6.07-13.01-.76-7.22,4.19-16.99,10.29-20.76,8.42-5.2,20.18-1.66,27.75,3.44,10.96,7.4,18.66,19.6,21.78,32.34,3.37,13.74-1.28,27.96.05,41.88,2.09,21.88,33.11-6,27.05,51.55-1.34,12.7-3.52,26.6-10.66,37.49-2.96,4.52-8.88,10.79-14.77,10.43-8.36-.51-7.99-12.34-10.58-17.8-3.03-6.38-8.32-11.43-14.2-15.2-7.48-4.8-16.15-9.09-19.12-18.15-1.93-5.88.97-11.94,4.69-16.52,2.05-2.52,6.41-5.41,5.76-9.12-.54-3.08-4.87-5.35-7.13-6.97-6.95-5-13.7-10.38-19.88-16.31-5.54-5.32-14.92-13.39-14.16-22.04.61-6.96,7.8-6.93,13.46-6.42Z"/><g class="cls-60"><g class="cls-64"><path class="cls-32" d="m251.36,283.4c.09,0,.17-.03.25-.08,14.27-10.2,20.99-25.76,20.54-47.59-.4-19.03-5.97-39.68-11.37-59.64-4.25-15.72-8.26-30.58-8.99-42.5-.59-9.56-3.31-18.23-8.11-25.77-3.84-6.03-9-11.35-15.33-15.82-10.78-7.6-21.4-10.12-21.5-10.14-.23-.05-.46.09-.51.32-.05.23.09.46.32.51.1.02,10.59,2.52,21.23,10.03,9.8,6.91,21.76,19.63,23.06,40.93.74,12.02,4.76,26.91,9.02,42.67,10.61,39.29,22.65,83.83-8.84,106.32-.19.14-.23.4-.1.59.08.12.21.18.35.18Z"/><path class="cls-32" d="m251.03,130.36s.09,0,.13-.02c.11-.04,2.83-.94,5.8-4.48,2.71-3.22,6.16-9.36,7.19-20.28.02-.23-.15-.44-.38-.46-.23-.02-.44.15-.46.38-1.01,10.66-4.34,16.63-6.95,19.76-2.82,3.38-5.44,4.26-5.46,4.27-.22.07-.34.31-.27.53.06.18.22.29.4.29Z"/><path class="cls-32" d="m255.27,157.03c.21,0,.4-.16.42-.38.02-.23-.15-.44-.38-.47-.07,0-7.35-.79-16.89-5-8.8-3.88-21.37-11.56-31.33-26.08-.13-.19-.4-.24-.59-.11-.19.13-.24.4-.11.59,10.08,14.7,22.81,22.46,31.72,26.39,9.66,4.26,17.05,5.05,17.12,5.05.01,0,.03,0,.04,0Z"/><path class="cls-32" d="m270.59,222.1s.09,0,.14-.02c.3-.1,7.3-2.63,13.1-9.72,3.4-4.16,5.65-9.03,6.69-14.48,1.3-6.78.7-14.48-1.77-22.87-.07-.22-.3-.35-.53-.29-.22.07-.35.3-.29.53,5.49,18.65.45,30.16-4.74,36.54-5.64,6.91-12.68,9.46-12.75,9.49-.22.08-.34.32-.26.54.06.17.23.28.4.28Z"/><path class="cls-32" d="m268.12,207.78c.21,0,.39-.16.42-.37.03-.23-.13-.45-.37-.48-.34-.04-34.03-4.62-42.28-17.37-.13-.2-.39-.25-.59-.13-.2.13-.25.39-.13.59,3.57,5.51,11.88,10.17,24.7,13.85,9.51,2.73,18.1,3.88,18.18,3.89.02,0,.04,0,.06,0Z"/></g></g><path class="cls-58" d="m177.77,183.32c2.93-10.54,12.19-18.53,22.79-21.29,6.45-1.68,14.33-2.25,20.91-1.1,9.26,1.61,16.9,7.65,22.85,14.65,7,8.22,7.65,18.41,10.15,28.54.49,1.98,3.73,12.91,6.18,6.51,3.42-8.93,11.03-7.36,11.04-7.36,5.96,1.23,10.54,5.61,12.75,11.12,5.89,14.71,4.07,33.82,2.82,49.24-.59,7.25-1.49,14.47-2.56,21.66-.27,1.78-1.54,3.24-3.27,3.73-1.73.5-3.59-.06-4.76-1.43-1.22-1.42-2.49-2.72-3.67-3.87-11.34-11.04-29.1-12.67-44.08-13.33-8.75-.39-15.96-.94-23.58-5.64-3.17-1.95-6.61-4.35-8.08-7.92-1.33-3.23-1.59-8.75.41-11.75,2.49-3.74,8.02-3.5,11.32-6.25,5.32-4.45-8.6-7.54-11.4-8.44-4.47-1.44-7.43-5-10.78-8.09-2.56-2.36-4.96-4.93-6.82-7.89-5.67-9.03-4.97-21.16-2.22-31.09Z"/><g class="cls-67"><g class="cls-64"><path class="cls-32" d="m286.45,292.81c.06,0,.12-.01.18-.04.21-.1.3-.35.2-.56-.14-.3-14.18-29.97-33.56-60.38-11.39-17.87-22.37-32.5-32.63-43.48-12.87-13.77-24.66-21.82-35.04-23.93-.23-.05-.45.1-.5.33-.05.23.1.45.33.5,10.21,2.08,21.85,10.05,34.59,23.68,10.23,10.94,21.17,25.53,32.53,43.35,19.35,30.37,33.37,59.99,33.51,60.28.07.15.23.24.38.24Z"/><path class="cls-32" d="m235.98,207.9s.04,0,.07,0c.23-.04.39-.25.35-.49-.06-.4-6.32-40.09-.11-46.79.16-.17.15-.44-.02-.6-.17-.16-.44-.15-.6.02-6.49,7-.37,45.85-.11,47.5.03.21.21.36.42.36Z"/><path class="cls-32" d="m161.78,187.35c.08,0,.15-.02.22-.06,16.65-10.4,51.27-4.97,51.62-4.91.23.04.45-.12.49-.35.04-.23-.12-.45-.35-.49-.09-.01-8.89-1.41-19.66-1.5-9.96-.08-23.7,1-32.55,6.53-.2.12-.26.39-.13.58.08.13.22.2.36.2Z"/><path class="cls-32" d="m272.48,265.71s.06,0,.1-.01c.23-.05.37-.28.32-.51-4.54-19.63,12.49-48.26,12.66-48.54.12-.2.06-.46-.14-.58-.2-.12-.46-.06-.58.14-.04.07-4.4,7.35-8.13,16.98-3.45,8.92-7.06,21.74-4.64,32.19.05.2.22.33.41.33Z"/><path class="cls-32" d="m258.39,241.28c.18,0,.34-.11.4-.29.07-.22-.05-.46-.27-.54-.15-.05-15.43-5.06-33.94-8.69-17.11-3.36-40.57-6.19-55.13-.6-.22.08-.33.33-.24.55.08.22.33.33.55.24,14.37-5.52,37.66-2.7,54.66.64,18.46,3.62,33.69,8.62,33.84,8.67.04.01.09.02.13.02Z"/></g></g><polygon class="cls-57" points="290.35 50.07 290.35 450.36 254.13 438.23 254.13 88.08 287.07 53.51 289.93 50.5 290.35 50.07"/><rect class="cls-10" x="290.35" y="50.07" width="100.67" height="400.69"/><rect class="cls-57" x="309.53" y="94.32" width="12.78" height="330.12"/><rect class="cls-57" x="336.16" y="94.32" width="13.32" height="330.12"/><rect class="cls-57" x="362.79" y="94.32" width="13.32" height="330.12"/><rect class="cls-7" x="318.05" y="94.32" width="4.26" height="330.12"/><rect class="cls-7" x="345.21" y="94.32" width="4.26" height="330.12"/><rect class="cls-7" x="372.38" y="94.32" width="4.26" height="330.12"/><path class="cls-21" d="m391.79,450.73v.02h-100.67l-36.22-12.13v-40.73c16.78-45.36,11.26-64.22,14.88-97.86,3.54-32.84-3.93-205.91,18.06-246.13.79-1.47,1.62-2.75,2.5-3.84.12.28.25.55.37.83.14.31.28.62.42.93,11.44,25.7,16.68,37.98,19.18,51.03,2.43,12.71,2.25,26.16,2.64,53.49.49,33.61.39,62.85,5.88,82.99,1.15,4.25,2.55,8.07,4.26,11.46,3.32,6.59,7.79,11.48,13.85,14.34.67.32,1.36.62,2.07.88,2.36.89,4.69,2.27,6.99,4.1,1.44,1.14,2.86,2.45,4.26,3.95,4.7,4.96,9.19,11.78,13.32,20.07,3.48,7,6.71,15.04,9.59,23.87,1.32,4.04,2.56,8.25,3.73,12.62.18.67.36,1.34.53,2.02,6.52,25.17,10.39,55.01,10.05,85.39-.15,13.23,1.51,23.87,4.34,32.7Z"/><path class="cls-38" d="m398.47,247.41l5.89-3.1,2.57.15s.69,3.31.58,3.47c-1.25,1.81-6.67,2.93-10.01,2.86-.55-.01-1.33-.05-1.5-.47-.3-.7,1.29-2.03,2.46-2.91Z"/><path class="cls-52" d="m404.68,240.58c-.11,2-.27,3.4-.81,3.99-.38.42,2.95,1.59,3.06-.11.08-1.12.36-3.03.57-3.58-.94-.1-1.89-.2-2.83-.29Z"/><path class="cls-17" d="m360.41,247.89l5.71-3.43h2.58s.88,3.27.78,3.43c-1.15,1.88-6.49,3.31-9.83,3.43-.55.02-1.33.02-1.53-.38-.34-.68,1.17-2.11,2.29-3.05Z"/><path class="cls-9" d="m367.85,240.74c-.83,1.59-1.71,3.38-2.21,4-.35.44,2.46,1.31,3.05-.29.48-1.3,1.82-3.02,2-3.59-.95-.04-1.9-.09-2.84-.13Z"/><path class="cls-53" d="m369.03,147.17c2.21,14.69,3.65,32.95,2.35,53.82-.96,15.41-3.23,29.09-5.87,40.71,1.76.46,3.52.91,5.28,1.37,2.19-.51,5.3-1.61,7.44-4.31,2.81-3.55,1.53-6.82,3.52-12.72,1.9-5.63,4.18-5.93,6.46-10.76,2.97-6.3,1.16-10.16,1.37-18.59.36-14.26,5.86-15.37,7.63-33.07.93-9.27,1.39-14.59-1.96-18-4.68-4.78-14.97-3.93-26.22,1.57Z"/><path class="cls-53" d="m381.16,143.36c6.03,14.04,12.3,32.02,16.44,53.43,3.31,17.11,4.51,32.56,4.7,45.6h5.87c1.7-2.47,3.93-6.3,5.28-11.35,1.35-5.03.5-6.33,1.37-14.29,1.18-10.84,2.74-11.34,2.54-17.81-.22-7.43-2.48-7.4-3.33-14.87-1.25-11.05,3.31-14.46,3.13-24.66-.08-4.58-1.13-11.48-6.26-19.96-9.92,1.3-19.83,2.61-29.75,3.91Z"/><path class="cls-36" d="m304.05,146.43l-2.3,2.04s-5.05-.2-6.87.26c-1.82.46-4.96,2.04-4.96,2.04,0,0,.78,1.16,1.9.72,1.11-.44,2.83-1.03,3.16-.87.33.16,1.11,2.26,3.76,2.61,2.65.35,3.88-2.77,3.88-2.77l2.51-2.13-1.08-1.9Z"/><path class="cls-44" d="m330.43,92.71c-.93.11-2.76.68-6.9,8.37-5.36,9.95-6.76,17.3-8.81,23.34-1.91,5.65-5.51,13.45-12.92,22.02,1.22,1.27,2.45,2.54,3.67,3.82,10.49-.26,15.69-3.61,18.49-6.6,4.09-4.38,2.83-7.73,7.78-14.38,5.79-7.78,10.18-6.76,12.18-11.89,3.76-9.62-6.87-25.47-13.5-24.66Z"/><path class="cls-40" d="m382.97,79.06c-6-1.92-10.7-1.39-19.08-.44-12.23,1.39-20.07,5.44-26.86,8.95-6.68,3.45-8.45,5.4-9.39,7.63-2.21,5.2.48,10.89,2.2,14.38,4.39,8.93,8.46,8.62,17.76,19.37,8.18,9.46,12.27,14.19,14.97,21.14,1.19,3.07,2.36,7.05,6.16,9.39,3.69,2.27,7.89,1.78,10.27,1.47,10.04-1.31,10.93-7.79,17.47-7.34,5.21.36,6.34,4.59,15.26,6.02,3.99.64,5.15.01,5.72-.44,2.17-1.72,1.92-5.85-.15-14.24-3.18-12.9-6.01-17.08-8.66-27.3-2.76-10.61-.63-9.68-2.94-15.71-.77-2.03-7.11-17.89-22.75-22.9Z"/><path class="cls-19" d="m381.06,155.68c2.09-2.55.96-5.61,3.82-8.22,4.65-4.25,13.07-1.11,13.5-2.64.52-1.84-12.08-4.5-13.5-11.74-.64-3.28,1.73-3.84,1.47-8.22-.25-4.11-2.81-7.49-7.93-14.09-4.04-5.21-5.13-5.64-5.28-7.63-.45-6,7.13-10.18,10.27-12.33,3.85-2.63,7.87-3.99,11.62-4.61,7,6.45,10.16,14.38,10.69,15.77,2.3,6.03.18,5.09,2.94,15.71,2.65,10.22,5.48,14.4,8.66,27.3,2.07,8.39,2.32,12.51.15,14.24-.57.45-1.74,1.08-5.72.44-8.92-1.43-10.05-5.66-15.26-6.02-6.54-.45-7.43,6.03-17.47,7.34-2.39.31-6.58.81-10.27-1.47-.83-.51-1.53-1.1-2.14-1.75,8.87,1.63,12.72.07,14.47-2.07Z"/><path class="cls-15" d="m345.43,75.66c.95,2.29,4.53,8.08,12.25,5.24,2.07-.76,2.42-.49,2.54-.33.58.78-3.56,5.94-9.41,7.52-3.57.96-7.39.48-7.6-.52-.2-1,2.35-.91,2.64-3,.2-1.45-2.74-3.2-4.25-4.18.25-1.9,3.58-2.83,3.83-4.74Z"/><path class="cls-2" d="m339.01,80.19c-1.32-.43-2.4-1.93-2.2-3.4.17-1.27,1.24-2.07,1.87-2.55,1.85-1.4,4.87-2.17,6.86-1.05,1.18.66,1.42,3.36,1.49,3.83.08.53-.19.89-.31,1.4-.17.71-.44,1.83-.85,3.68-.32-.28-.74-.62-1.27-.94-.2-.12-1.01-.6-1.91-.86-1.8-.51-2.43.31-3.68-.1Z"/><path class="cls-27" d="m346.91,80.11s-.02,2.71-2.73,4.11c-2.43,1.25-5.92-3.22-5.1-5.11.27-.63,1.18-1.36,2.12-1.64.56-.17.84-.09,1.75-.37.84-.27,1-.46,1.33-.43.41.04.96.43,1.42,2.07.17-.67.61-1.15,1.09-1.21.08-.01.3,0,.5.08.69.34.6,1.35-.38,2.49Z"/><path class="cls-34" d="m335.54,79.19s7.06-3.25,10.8-4.25c.66-.18,1.02-.89.76-1.53-.79-1.92-2.83-5.16-7.34-3.63-5.69,1.93-5.63,6.21-4.23,9.41Z"/><path class="cls-13" d="m335.54,78.41s-2.24,1.61-1.73,2.12c.51.51,10.66-5.01,10.66-5.01l-8.93,2.89Z"/><path class="cls-30" d="m339.77,71.93c-.27-.79.12-1.61.75-2.37-.24.06-.49.13-.75.21-5.04,1.71-5.57,5.26-4.65,8.28,1.22-.54,2.58-1.14,3.34-1.42,1.61-.59,2.12-2.37,1.3-4.7Z"/><path class="cls-3" d="m334.75,108.52s1.36-4.46,2.88-6.08c.31,6.35,5.71,17.06,5.71,17.06,0,0-7.87-4.63-8.59-10.98Z"/><path class="cls-32" d="m384.3,152.29c-6.95,4.92-21.92.48-24.02-1.73-2.26-2.39-14.9-17.33-21.63-30.85-1.7-3.42-3.29-6.75-3.85-9.76h0c0-.49-.09-.96-.17-1.42.99,2.69,3.11,3.96,5.71,4.32,9.17,1.25,25.13-8.91,25.13-8.91l22.03,37.6c.99,5.48-.49,8.85-3.21,10.76Z"/><path class="cls-47" d="m382.63,125.07l-4.53-1.98s-1.73-2.47-3.13-2.88c-1.4-.41-6.42.16-6.42.16,0,0,.49,1.98,1.48,2.31.99.33,4.04.58,4.53,1.56.49.99,2.31,1.73,2.96,1.4.66-.33,4.86,1.07,4.86,1.07l.25-1.65Z"/><path class="cls-4" d="m363.6,81.12c3.97-6.7,22.64-4.25,35.23,3.08,4.1,2.39,16.59,9.67,17.47,22.31.1,1.37.34,6.96-2.94,12.18-5.51,8.79-18.53,12.66-32.29,9.25.15-1.47.29-2.94.44-4.4,1.17.04,5.84.07,9.98-3.38.83-.69,5.76-4.79,4.99-8.51-1.3-6.25-16.9-2.84-27.01-13.36-4.53-4.71-8.48-12.77-5.87-17.17Z"/><path class="cls-51" d="m384.3,152.29c-6.95,4.92-21.92.48-24.02-1.73-2.26-2.39-14.78-17.33-21.51-30.85,2.69,2.76,6.54,5.44,11.78,6.29,12.12,1.98,12.12,6.13,16.8,14.41,3.58,6.34,8.7,12.67,16.95,11.89Z"/><polygon class="cls-42" points="355 248.34 355 450.76 326.52 444.62 326.52 267.56 352.42 250.09 354.68 248.56 355 248.34"/><rect class="cls-11" x="355" y="248.14" width="79.16" height="202.61"/><rect class="cls-14" x="370.08" y="270.52" width="10.05" height="166.93"/><rect class="cls-14" x="391.02" y="270.52" width="10.47" height="166.93"/><rect class="cls-14" x="411.97" y="270.52" width="10.47" height="166.93"/><rect class="cls-7" x="376.78" y="270.52" width="3.35" height="166.93"/><rect class="cls-7" x="398.14" y="270.52" width="3.35" height="166.93"/><rect class="cls-7" x="419.51" y="270.52" width="3.35" height="166.93"/><path class="cls-21" d="m434.17,450.75h0s-79.16.01-79.16.01l-28.48-6.13v-20.59c13.19-22.93,8.85-32.47,11.7-49.49,2.78-16.61-3.09-104.12,14.2-124.46.62-.74,1.28-1.39,1.96-1.94.1.14.19.28.29.42.11.16.22.31.33.47,9,13,13.12,19.2,15.08,25.8,1.91,6.43,1.77,13.23,2.08,27.05.39,17,.31,31.78,4.62,41.96.9,2.15,2.01,4.08,3.35,5.79,2.61,3.33,6.13,5.81,10.89,7.25.53.16,1.07.31,1.63.45,1.86.45,3.69,1.15,5.5,2.07,1.13.57,2.25,1.24,3.35,2,3.7,2.51,7.23,5.96,10.47,10.15,2.74,3.54,5.27,7.6,7.54,12.07,1.03,2.04,2.01,4.17,2.93,6.38.14.34.28.68.42,1.02,5.13,12.73,8.17,27.82,7.9,43.18-.12,6.69,1.19,12.07,3.41,16.54Z"/><rect class="cls-8" x="222.85" y="151.37" width="121.47" height="299.38"/><rect class="cls-14" x="232.07" y="179.8" width="103.04" height="18.75"/><rect class="cls-14" x="232.07" y="213.06" width="103.04" height="18.75"/><rect class="cls-14" x="232.07" y="246.33" width="103.04" height="18.75"/><rect class="cls-14" x="232.07" y="279.59" width="103.04" height="18.75"/><rect class="cls-14" x="232.07" y="312.86" width="103.04" height="18.75"/><rect class="cls-14" x="232.07" y="346.12" width="103.04" height="18.75"/><rect class="cls-14" x="232.07" y="379.39" width="103.04" height="18.75"/><polygon class="cls-42" points="222.85 151.37 222.85 450.76 190.18 450.76 190.18 179.8 221.91 152.2 222.72 151.49 222.85 151.37"/><rect class="cls-7" x="232.07" y="179.8" width="103.04" height="3.63"/><rect class="cls-7" x="232.07" y="213.06" width="103.04" height="3.63"/><rect class="cls-7" x="232.07" y="246.33" width="103.04" height="3.63"/><rect class="cls-7" x="232.07" y="279.59" width="103.04" height="3.63"/><rect class="cls-7" x="232.07" y="312.86" width="103.04" height="3.63"/><rect class="cls-7" x="232.07" y="346.12" width="103.04" height="3.63"/><rect class="cls-7" x="232.07" y="379.39" width="103.04" height="3.63"/><path class="cls-21" d="m340.29,450.76h-117.44l-32.67-9.07v-58c1.29-3.62,2.66-7.05,4.14-10.22,13.77-29.56,9.29-41.58,12.17-63.22,2.84-21.36-3.36-135.91,15.42-158.06.25-.29.49-.56.75-.82.02.04.04.08.06.11.05.08.09.16.13.24,7.41,13.45,11.59,21.21,13.99,28.07.43,1.23.8,2.43,1.12,3.63,1.23,4.55,1.76,9.09,2.03,15.12.18,4.02.25,8.71.34,14.52.02,1.16.04,2.37.06,3.63.01.73.03,1.47.04,2.23.08,4.43.14,8.73.22,12.89.1,5.07.24,9.93.49,14.52.07,1.23.14,2.44.23,3.63.39,5.5.98,10.57,1.94,15.12,1.19,5.72,2.93,10.61,5.52,14.52.88,1.33,1.86,2.54,2.95,3.63,2.45,2.45,5.45,4.28,9.14,5.4,4.66,1.42,9.2,4.8,13.43,9.72,3.38,3.93,6.56,8.84,9.45,14.52.59,1.17,1.18,2.39,1.75,3.63,2.14,4.64,4.08,9.71,5.78,15.12,1.46,4.61,2.74,9.48,3.82,14.52.26,1.2.5,2.41.74,3.63.94,4.9,1.69,9.97,2.22,15.12.49,4.77.8,9.62.9,14.52.03,1.2.04,2.41.04,3.63,0,.74,0,1.49-.02,2.24-.07,4.8.33,9.07,1.1,12.88,6.07,30.28,35.3,32.65,40.16,52.62Z"/><polygon class="cls-42" points="104.31 196.13 104.31 450.76 71.64 443.04 71.64 220.3 104.31 196.13"/><rect class="cls-32" x="104.31" y="196.73" width="102.2" height="254.02"/><rect class="cls-14" x="122.74" y="226.98" width="20.11" height="39.92"/><rect class="cls-14" x="150.39" y="226.98" width="20.52" height="39.92"/><rect class="cls-14" x="178.45" y="226.98" width="20.11" height="39.92"/><rect class="cls-14" x="122.74" y="279.59" width="20.11" height="39.92"/><rect class="cls-14" x="150.39" y="279.59" width="20.52" height="39.92"/><rect class="cls-14" x="178.45" y="279.59" width="20.11" height="39.92"/><rect class="cls-14" x="122.74" y="332.21" width="20.11" height="39.92"/><rect class="cls-14" x="150.39" y="332.21" width="20.52" height="39.92"/><rect class="cls-14" x="178.45" y="332.21" width="20.11" height="39.92"/><rect class="cls-14" x="122.74" y="384.83" width="20.11" height="39.92"/><rect class="cls-14" x="150.39" y="384.83" width="20.52" height="39.92"/><rect class="cls-14" x="178.45" y="384.83" width="20.11" height="39.92"/><rect class="cls-7" x="122.74" y="226.98" width="20.11" height="4.23"/><rect class="cls-7" x="122.74" y="279.59" width="20.11" height="4.23"/><rect class="cls-7" x="122.74" y="332.21" width="20.11" height="4.23"/><rect class="cls-7" x="122.74" y="384.83" width="20.11" height="4.23"/><rect class="cls-7" x="150.6" y="226.98" width="20.11" height="4.23"/><rect class="cls-7" x="150.6" y="279.59" width="20.11" height="4.23"/><rect class="cls-7" x="150.6" y="332.21" width="20.11" height="4.23"/><rect class="cls-7" x="150.6" y="384.83" width="20.11" height="4.23"/><rect class="cls-7" x="178.45" y="226.98" width="20.11" height="4.23"/><rect class="cls-7" x="178.45" y="279.59" width="20.11" height="4.23"/><rect class="cls-7" x="178.45" y="332.21" width="20.11" height="4.23"/><rect class="cls-7" x="178.45" y="384.83" width="20.11" height="4.23"/><path class="cls-21" d="m206.52,446.54v4.22h-102.2l-32.67-7.72v-37.69c2.19-8.04,4.83-15.86,7.96-22.33,12.01-24.8,8.1-34.88,10.61-53.02,2.51-18.14-3.07-116.52,14.1-133.26,16.06,28.02,14.94,26.81,15.5,56.65.3,15.96.28,30.08,2.93,40.56,2.3,9.11,6.63,15.47,14.94,17.9,1.75.51,3.47,1.33,5.16,2.43,5.4,3.48,10.48,9.76,14.79,17.94,5.66,10.74,10.01,24.73,12.03,39.92.56,4.16.94,8.41,1.12,12.7.06,1.43.1,2.87.12,4.31.02,1.25.02,2.5,0,3.76,0,.44,0,.88,0,1.31.08,10.85,3.18,18.33,7.54,24.07,1.85,2.43,3.92,4.55,6.09,6.48,8.67,7.71,18.83,12.36,21.97,21.79Z"/><path class="cls-16" d="m133.16,240.84c-4.34.13-8.57-.97-12.24-3.17-11.17-6.7-27.68-17.76-42.53-32.23-18.84-18.37-29.67-37.04-32.04-55.38l-.04-.29-.46-78.24c0-15.46,10.09-28.01,29.02-36.26,15.64-6.81,36.38-10.19,58.29-9.56,21.65.63,41.68,5.09,56.51,12.54,17.63,8.85,26.88,21.28,26.88,36.03l-.42,74.76-.03.27c-2.16,17.56-12.13,35.71-29.73,54.06-14.12,14.72-30.08,26.39-41.04,33.62-3.63,2.39-7.83,3.72-12.16,3.85Z"/><path class="cls-22" d="m137.46,240.84c-4.28.13-8.46-.97-12.08-3.17-11.02-6.7-27.31-17.76-41.97-32.23-18.6-18.37-29.28-37.04-31.62-55.38l-.04-.29-.45-78.24c0-15.46,9.95-28.01,28.64-36.26,15.44-6.81,35.9-10.19,57.52-9.56,21.36.63,41.13,5.09,55.77,12.54,17.39,8.85,26.52,21.28,26.52,36.03l-.41,74.76-.03.27c-2.14,17.56-11.97,35.71-29.34,54.06-13.94,14.72-29.68,26.39-40.5,33.62-3.58,2.39-7.73,3.72-12,3.85Z"/><path class="cls-31" d="m56.47,71.59l.46,77.85c5.12,39.72,51.8,71.88,72.13,84.09,5.82,3.5,13.27,3.29,19.05-.51,19.91-13.1,64.03-46.07,68.74-84.26l.42-74.55c0-55.31-160.8-60.37-160.8-2.61Z"/><path class="cls-54" d="m138.61,221.53c-.37,0-.94-.05-1.51-.4-8.37-5.07-24.6-15.69-38.71-29.55-15.25-14.98-24.04-29.54-26.06-43.22l-.45-76.56c.02-7.35,5.83-13.63,17.23-18.66,12.72-5.62,30.79-8.56,49.5-8.12,18.51.44,36.06,4.17,48.21,10.2,10.75,5.33,16.19,11.62,16.2,18.71l-.42,73.91c-1.88,13.23-10.14,27.5-24.63,42.5-13.63,14.1-29.54,25.28-37.86,30.72-.57.37-1.13.46-1.51.47Z"/><path class="cls-28" d="m136.7,216.3c-8.45-5.21-23.49-15.26-36.6-28.17-14.33-14.1-22.62-27.64-24.57-40.16l-.44-76.11c.01-5.25,4.84-10.07,14.31-14.26,12.05-5.34,29.32-8.15,47.3-7.75,17.81.4,34.59,3.92,46.13,9.62,8.96,4.43,13.5,9.27,13.51,14.39l-.42,73.63c-1.83,12.15-9.65,25.44-23.33,39.57-12.7,13.12-27.48,23.67-35.89,29.23Z"/><path class="cls-32" d="m131.57,159.12c-2.69,0-5.14-1.29-6.49-3.39l-21.01-32.68c-1.82-2.83-.84-6.95,2.22-9.27,3.13-2.37,7.3-2.02,9.27.87l15.46,22.69,23.07-43.42c2.24-4.22,7.74-6.87,12.38-5.85,4.76,1.04,6.69,5.52,4.22,9.92l-32.06,57.16c-1.33,2.37-3.94,3.88-6.77,3.98-.09,0-.18,0-.27,0Z"/><path class="cls-45" d="m136.45,297.81c-.95.36-15.39,6.1-18.35,21.17-.24,1.22-2.56,14.16,6.22,23.31,9.85,10.26,28.8,10,36.33,1.43,1.75-2,2.68-4.22,3.2-6.08h0l-1.98-5.27c-2.42-2.92-5.71-3.61-7.47-4.05-4.34-1.07-7.61.86-10.1-1.23-1.37-1.16-1.65-2.82-1.89-4.31-.83-5.07,2.03-8.19,2.24-11.31.16-2.34.97-7.45-2.08-10.79-1.93-2.11-4.6-2.69-6.12-2.87Z"/><path class="cls-29" d="m130.82,465.76c-.17-.93-3.16-1.77-4.65-.52-.74.62-1.24,1.87-.82,2.43.16.21-.48.57.13.57,2.02.02,5.5-1.56,5.34-2.48Z"/><path class="cls-46" d="m127.68,466.09l-3.08-.44c1.43-1.72,1.16-7.19,1.16-7.19l3.28.73s-.37,1.5-1.01,3.72c-.22.76-.31,1.95-.35,3.18Z"/><path class="cls-41" d="m127.96,465.71s-3.71-.85-4.11-.12c-.4.74-.71,2.71,1.64,2.64,2.35-.06,2.68-1.9,2.47-2.52Z"/><path class="cls-50" d="m173.1,469.23c-.3-.89-3.38-1.31-4.68.13-.64.71-.97,2.02-.47,2.52.18.18-.4.63.21.55,2-.26,5.23-2.32,4.94-3.2Z"/><path class="cls-49" d="m170.04,470.01h-3.11c1.17-1.9.15-7.28.15-7.28l3.35.27s-.16,1.54-.48,3.82c-.11.78-.04,1.97.1,3.2Z"/><path class="cls-53" d="m178.1,352.33c1.44,4.76,3.5,12.44,4.83,22.08,3.78,27.49-4.25,28.37-2.75,58.84.48,9.73-8.43,32.15-9.21,32.65-.38.04-.79.06-1.23.05-.77-.02-1.87-.14-3.14-.52-1.41-.24-6.5-14.02-5.32-22.21.83-5.8.59-12.02.11-24.46-.08-2.02-5.24-39.22-5.24-39.22h0c-1.57,13.77-3.37,25.47-4.94,34.54-5.03,29.15-21.37,46.79-22.22,47.07-.17.07-1.7.62-2.96-.2-.56-.37-.75-.84-.75-.84-.44-.34.13-29.1,5.11-50.74,7.23-31.41,4.08-38.76,6.38-52.8,1.98-12.14,41.32-4.24,41.32-4.24Z"/><path class="cls-48" d="m148.88,295.36c4.8-.14,15.33-1.29,23.64,2.53.13.06-2.85,1.87-2.24,2.59.57.67,2.52,3,4.29,6.16,1.28,2.29,2.44,4.95,3.61,8.93,2.06,7.01,2.65,12.97,2.85,15.57,1.11,14.62,0,21.36-.99,25.95-4.34,2.23-15.53,6.22-28.87,4.24-6.09-.91-10.96-2.93-14.39-4.74,3.46-10.48.75-16.08-.54-21.25-1.83-7.37-1.86-6.81-3.36-12.66-2.48-9.66-2.89-19.52-1.18-21.54,4.6-5.44,12.88-5.64,17.18-5.77Z"/><path class="cls-20" d="m170.26,469.59s-3.79-.33-4.09.46c-.29.78-.33,2.78,1.99,2.39,2.32-.39,2.39-2.26,2.09-2.84Z"/><path class="cls-33" d="m162.4,289.85c1.49-2.52.82-5.39.68-6.01-.63-2.6-.86-2.99-1.34-3.54l-.68-.72s-.04-.03-.09-.06c-.47-.33-2.25-.86-2.63-.88-1.22-.06-3.71,4.32-5.13,11.07-.12.24-.23.48-.34.73-.52,1.13-.98,2.24-1.4,3.33-.27.71-.92,1.22-1.68,1.29-7.13.69-8.16,1.58-8.2,2.11-.08,1.18,4.63,2.54,8.16,3.06,7.72,1.13,15.65-.91,15.61-2.34-.01-.56-1.24-1.27-6.14-2.02-1.08-.17-1.82-1.17-1.67-2.25.06-.42.12-.85.18-1.27.53-.12,3.57-.63,4.67-2.49Z"/><path class="cls-5" d="m162.52,278.97c-.56,2.06-.68,3.36-1.27,3.58-.08.03-.51.22-.96.62-.06.05-.12.12-.18.21-.8,1.18.86,3.26.31,3.74-.4.35-1.66-.59-1.92-.27-.25.3.73,1.32.44,1.69-.22.27-.86-.2-1.44.15-.29.18-.27.38-.7,1.04-.24.37-.55.77-.77.98-1.04,1.02-3.17.93-3.43.34-.07-.16.05-.25.06-.74,0,0,0-.45-.15-1.01-.23-.81-1.11-1.57-1.93-2.57-1.52-1.86-1.73-3.15-1.78-3.58-.02-.15-.02-.27-.03-.35-.08-1.65.51-3.88,1.56-5.08,1.76-2,4.05-.21,6.77-1.93,3.14-1.98-.03,1.67,1.4,1.63,1.58-.05,5.06-2.25,4.03,1.56Z"/><path class="cls-24" d="m159.8,286.43c-.32-.83-1.38-.41-1.63.48-.24.9.38,2.06,1.27,2.11.89.05.79-1.48.36-2.6Z"/><path class="cls-18" d="m150.85,348.47c4.79-1.3,7.75,4.47,11.87,3.62,5.68-1.17,7.7-13.7,8.25-17.1,1.98-12.26-1.71-16.8,1.61-22.13.73-1.17,1.79-2.37,3.39-3.45.76,1.69,1.48,3.66,2.21,6.15,2.06,7.01,2.65,12.97,2.85,15.57,1.11,14.62,0,21.36-.99,25.95-4.34,2.23-15.53,6.22-28.87,4.24-5.51-.82-10.01-2.55-13.36-4.22,3.55-.58,5.85-1.91,7.41-3.4,2.19-2.1,2.86-4.48,5.63-5.23Z"/><path class="cls-43" d="m183.72,336.04l13.9-31.03c.17-.38.57-.61.99-.56l24.31,3.07c.65.08,1.03.78.74,1.37l-16.39,33.53c-.2.4-.65.61-1.09.51l-21.64-5.35-.82-1.53Z"/><path class="cls-32" d="m187.55,332.28l11.26-25.13c.14-.31.46-.49.8-.45l19.68,2.48c.53.07.83.63.6,1.11l-13.27,27.15c-.16.33-.53.5-.88.41l-17.53-4.33-.66-1.24Z"/><path class="cls-56" d="m202.89,307l.89-2.01c.12-.28.42-.45.72-.41l10.12,1.19c.47.06.75.55.55.98l-1,2.19c-.13.28-.42.44-.73.4l-10.01-1.37c-.46-.06-.73-.55-.54-.97Z"/><path class="cls-14" d="m216.68,313.8s-.03,0-.05,0l-17.83-2.29c-.22-.03-.38-.23-.35-.45.03-.22.24-.37.45-.35l17.83,2.29c.22.03.38.23.35.45-.03.21-.2.35-.4.35Z"/><path class="cls-14" d="m215.77,315.6s-.03,0-.05,0l-17.74-2.46c-.22-.03-.37-.23-.34-.45.03-.22.23-.37.45-.34l17.74,2.46c.22.03.37.23.34.45-.03.2-.2.35-.4.35Z"/><path class="cls-14" d="m206.84,318.43s-.04,0-.06,0l-9.67-1.61c-.22-.04-.37-.24-.33-.46.04-.22.25-.37.46-.33l9.67,1.61c.22.04.37.24.33.46-.03.2-.21.34-.4.34Z"/><path class="cls-1" d="m211.28,334.2s3.96-2.69,4.42-4.59c.46-1.9.35-5.47.35-5.47l-2.31,5.03s-1.12-.32-1.6-1.98c-.48-1.66-1.29-.14-.97,1.11.33,1.25.1,5.9.1,5.9Z"/><path class="cls-37" d="m172.52,297.89c4.15.63,12.06,4.11,16.3,9.71,7.84,10.35,4.84,21.21,11.4,25.08,1.88,1.11,5.17,2.01,11.12-.1l2.28,1.21s2.78,14.16-14.41,14.69c-17.2.53-25.77-20.85-25.77-20.85l-8.07-26.17,7.15-3.58Z"/><path class="cls-26" d="m147.87,277.18c.19-.35.4-.69.66-1.01.98-1.23,2.2-1.98,3.6-2.67,2.33-1.16,4.86-1.46,7.22-.15,1.67.92,2.98,2.69,3.88,4.33.41.76.43,1.68.04,2.45-1.45,2.88-5.53,9.83-10.7,8.92-1.96-.34-3.79-1.57-4.57-3.41-1.09-2.58-1.47-5.91-.12-8.47Z"/><path class="cls-25" d="m149.27,282.78c.84,4.03,1.68,4.69,3.33,4.51.21-.02.39-.08.53-.18,0,0,.01,0,.01,0,.14-.09.24-.23.32-.4,0-.01.01-.02.01-.02.44-1.02-.05-3.39-.51-7.68-.63-5.82,5.53-6.05,5.53-6.05,0-.04-.25-.59-.3-.64-.07-.08-.15-.15-.23-.2-.11-.08-.24-.13-.38-.17-1.75-.53-4.01.19-5.5,1.11-3.16,1.96-3.48,6.56-2.82,9.72Z"/><path class="cls-12" d="m162.44,276.38s1.93.39,1.6,2.6c-.27,1.78-4.01,10.38-10.56,10.41-6.55.03-5.3-3.41-5.3-3.41,0,0,1.82,3.01,5.48,2.17,3.66-.84,5.63-2.72,7.96-6.84,0,0,1.83-3.64.82-4.93Z"/><path class="cls-55" d="m152.11,279.15c.04,1.81.82,7.97,1.02,7.97,0,0,.01,0,.01,0,.08-.08.2-.24.32-.4,0-.01.01-.02.01-.02.44-1.02-.05-3.39-.51-7.68-.63-5.82,5.53-6.05,5.53-6.05,0-.04-.25-.59-.3-.64-.07-.08-.15-.15-.23-.2-1.19.19-4.07.82-4.91,2.44-1.07,2.06-.99,2.75-.94,4.59Z"/></g></g></svg>