<?xml version="1.0" encoding="UTF-8"?><svg id="Layer_1" xmlns="http://www.w3.org/2000/svg" xmlns:xlink="http://www.w3.org/1999/xlink" viewBox="0 0 501 501"><defs><style>.cls-1{fill:url(#linear-gradient-12);}.cls-1,.cls-2,.cls-3,.cls-4,.cls-5,.cls-6,.cls-7,.cls-8,.cls-9,.cls-10,.cls-11,.cls-12,.cls-13,.cls-14,.cls-15,.cls-16,.cls-17,.cls-18,.cls-19,.cls-20,.cls-21,.cls-22,.cls-23,.cls-24,.cls-25,.cls-26,.cls-27,.cls-28,.cls-29,.cls-30,.cls-31,.cls-32,.cls-33,.cls-34,.cls-35,.cls-36,.cls-37,.cls-38,.cls-39,.cls-40,.cls-41,.cls-42,.cls-43,.cls-44{stroke-width:0px;}.cls-2{fill:#f84558;}.cls-3{fill:url(#linear-gradient-17);}.cls-4{fill:#473632;}.cls-5{fill:url(#linear-gradient-19);}.cls-6{fill:url(#linear-gradient);}.cls-7{fill:url(#linear-gradient-21);}.cls-8{fill:url(#linear-gradient-6);}.cls-9{fill:#375a64;}.cls-10{fill:#f4f7fa;}.cls-11{fill:url(#linear-gradient-15);}.cls-12{fill:url(#linear-gradient-11);}.cls-13{fill:#eae2d3;}.cls-14{fill:url(#linear-gradient-5);}.cls-15{fill:#ffca7a;}.cls-16{fill:#db9c49;}.cls-17{fill:url(#linear-gradient-13);}.cls-18{fill:url(#linear-gradient-23);}.cls-19{fill:url(#linear-gradient-25);}.cls-20{fill:url(#linear-gradient-16);}.cls-21{fill:url(#linear-gradient-22);}.cls-22{fill:#fff;}.cls-23{fill:url(#linear-gradient-20);}.cls-24{fill:url(#linear-gradient-14);}.cls-25{fill:url(#linear-gradient-2);}.cls-26{fill:#5d9dc1;}.cls-27{fill:#e28c52;}.cls-28{fill:url(#linear-gradient-7);}.cls-29{fill:url(#linear-gradient-3);}.cls-30{fill:url(#linear-gradient-9);}.cls-31{fill:url(#linear-gradient-27);}.cls-32{fill:#00ac64;}.cls-33{fill:url(#linear-gradient-8);}.cls-34{fill:url(#linear-gradient-24);}.cls-35{fill:url(#linear-gradient-26);}.cls-36{fill:url(#linear-gradient-18);}.cls-37{fill:url(#linear-gradient-30);}.cls-38{fill:url(#linear-gradient-29);}.cls-39{fill:url(#linear-gradient-28);}.cls-40{fill:url(#linear-gradient-10);}.cls-41{fill:#f4ab7a;}.cls-42{fill:#a39686;}.cls-43{fill:url(#linear-gradient-4);}.cls-44{fill:#2b1f1d;}</style><linearGradient id="linear-gradient" x1="197.92" y1="165.42" x2="209.35" y2="165.42" gradientUnits="userSpaceOnUse"><stop offset="0" stop-color="#8bc643"/><stop offset="1" stop-color="#3c7b31"/></linearGradient><linearGradient id="linear-gradient-2" x1="214.77" x2="226.19" xlink:href="#linear-gradient"/><linearGradient id="linear-gradient-3" x1="230.69" x2="242.12" xlink:href="#linear-gradient"/><linearGradient id="linear-gradient-4" x1="170.63" y1="103.73" x2="427.58" y2="103.73" gradientUnits="userSpaceOnUse"><stop offset="0" stop-color="#5371d3"/><stop offset="1" stop-color="#243b98"/></linearGradient><linearGradient id="linear-gradient-5" x1="311.39" y1="168.14" x2="329.58" y2="168.14" xlink:href="#linear-gradient-4"/><linearGradient id="linear-gradient-6" x1="306.29" y1="55.02" x2="332.44" y2="55.02" xlink:href="#linear-gradient"/><linearGradient id="linear-gradient-7" x1="177.19" y1="318.59" x2="294.61" y2="318.59" xlink:href="#linear-gradient-4"/><linearGradient id="linear-gradient-8" x1="190.68" y1="213.42" x2="195.28" y2="213.42" xlink:href="#linear-gradient"/><linearGradient id="linear-gradient-9" x1="198.16" y1="213.42" x2="202.76" y2="213.42" xlink:href="#linear-gradient"/><linearGradient id="linear-gradient-10" x1="190.68" y1="265.12" x2="195.28" y2="265.12" xlink:href="#linear-gradient"/><linearGradient id="linear-gradient-11" x1="198.16" y1="265.12" x2="202.76" y2="265.12" xlink:href="#linear-gradient"/><linearGradient id="linear-gradient-12" x1="190.68" y1="316.83" x2="195.28" y2="316.83" xlink:href="#linear-gradient"/><linearGradient id="linear-gradient-13" x1="198.16" y1="316.83" x2="202.76" y2="316.83" xlink:href="#linear-gradient"/><linearGradient id="linear-gradient-14" x1="190.68" y1="369.71" x2="195.28" y2="369.71" xlink:href="#linear-gradient"/><linearGradient id="linear-gradient-15" x1="198.16" y1="369.71" x2="202.76" y2="369.71" xlink:href="#linear-gradient"/><linearGradient id="linear-gradient-16" x1="190.68" y1="423.77" x2="195.28" y2="423.77" xlink:href="#linear-gradient"/><linearGradient id="linear-gradient-17" x1="198.16" y1="423.77" x2="202.76" y2="423.77" xlink:href="#linear-gradient"/><linearGradient id="linear-gradient-18" x1="95.5" y1="242.2" x2="146.47" y2="242.2" xlink:href="#linear-gradient-4"/><linearGradient id="linear-gradient-19" x1="123.37" y1="215.88" x2="152.44" y2="215.88" xlink:href="#linear-gradient-4"/><linearGradient id="linear-gradient-20" x1="316.06" y1="229.14" x2="428.97" y2="229.14" xlink:href="#linear-gradient-4"/><linearGradient id="linear-gradient-21" x1="325.76" y1="283.51" x2="419.27" y2="283.51" xlink:href="#linear-gradient"/><linearGradient id="linear-gradient-22" x1="77.13" y1="111.09" x2="140.56" y2="111.09" xlink:href="#linear-gradient"/><linearGradient id="linear-gradient-23" x1="354.9" y1="185.82" x2="398.93" y2="185.82" xlink:href="#linear-gradient"/><linearGradient id="linear-gradient-24" x1="45.98" y1="299.83" x2="82.13" y2="299.83" xlink:href="#linear-gradient"/><linearGradient id="linear-gradient-25" x1="134.08" y1="421.03" x2="162.99" y2="421.03" xlink:href="#linear-gradient"/><linearGradient id="linear-gradient-26" x1="134.08" y1="421.03" x2="162.99" y2="421.03" xlink:href="#linear-gradient"/><linearGradient id="linear-gradient-27" x1="392.43" y1="103.75" x2="421.34" y2="103.75" xlink:href="#linear-gradient"/><linearGradient id="linear-gradient-28" x1="392.43" y1="103.75" x2="421.34" y2="103.75" xlink:href="#linear-gradient"/><linearGradient id="linear-gradient-29" x1="153.32" y1="107.04" x2="173.28" y2="107.04" xlink:href="#linear-gradient"/><linearGradient id="linear-gradient-30" x1="153.32" y1="107.04" x2="173.28" y2="107.04" xlink:href="#linear-gradient"/></defs><path class="cls-10" d="m473.25,286.99c10.45,109.32-100.54,161.4-210.36,161.4s-214.28-7.3-214.28-117.12S-74.31,19.09,267.08,84.33c107.86,20.61,186.61-2.04,206.17,202.65Z"/><path class="cls-42" d="m320.01,447.13s-.02,0-.03,0c-2.18-.12-4.44-.47-6.73-1.03-.3-.07-.48-.38-.41-.68.08-.3.38-.48.68-.41,2.22.55,4.41.89,6.52,1,.31.02.54.28.53.59-.02.3-.26.53-.56.53Zm6.67-.49c-.25,0-.48-.17-.54-.43-.07-.3.12-.6.42-.67,2.32-.54,4.24-1.49,5.69-2.82.23-.21.58-.19.79.03.21.23.19.58-.03.79-1.6,1.47-3.68,2.5-6.19,3.09-.04,0-.08.01-.13.01Zm-19.7-2.54c-.06,0-.13-.01-.19-.03-2.11-.75-4.22-1.59-6.27-2.48-.28-.12-.41-.45-.29-.74.12-.28.45-.41.74-.29,2.03.88,4.12,1.71,6.2,2.46.29.1.44.42.34.71-.08.23-.3.37-.53.37Zm-12.3-5.36c-.09,0-.18-.02-.26-.06-2-1.04-3.97-2.15-5.88-3.31-.26-.16-.35-.5-.19-.77.16-.26.5-.35.77-.19,1.88,1.15,3.84,2.25,5.81,3.27.27.14.38.48.24.75-.1.19-.29.3-.5.3Zm41.13-.83s-.07,0-.11-.01c-.3-.06-.5-.36-.44-.66.17-.85.25-1.77.25-2.73,0-1.15-.12-2.37-.35-3.74-.05-.3.15-.59.45-.65.31-.05.59.15.65.45.25,1.43.37,2.71.37,3.93,0,1.04-.09,2.03-.28,2.95-.05.27-.29.45-.55.45Zm-14.98-5.56c-.7,0-1.4-.09-2.06-.28-.3-.08-.47-.39-.39-.69s.39-.47.69-.39c1.9.53,4.06.15,6-1.02.27-.16.61-.08.77.19.16.26.08.61-.19.77-1.53.93-3.2,1.42-4.81,1.42Zm-37.61-.58c-.11,0-.22-.03-.32-.1-1.84-1.3-3.65-2.67-5.38-4.08-.24-.19-.28-.55-.08-.79.2-.24.55-.28.79-.08,1.71,1.39,3.5,2.75,5.32,4.03.25.18.31.53.13.78-.11.15-.28.24-.46.24Zm30.9-4.04c-.22,0-.42-.13-.52-.34-.52-1.24-.8-2.64-.8-4.06,0-.99.13-1.96.39-2.89.08-.3.39-.47.69-.39.3.08.47.39.39.69-.23.83-.35,1.7-.35,2.59,0,1.27.25,2.52.71,3.62.12.29-.01.61-.3.73-.07.03-.14.04-.22.04Zm15.51-1.74c-.07,0-.14-.01-.2-.04-.29-.11-.43-.44-.32-.72.34-.87.51-1.75.51-2.61s-.17-1.69-.51-2.47c-.13-.3-.28-.6-.45-.88-.16-.27-.06-.61.2-.76.17-.1.38-.1.54-.01.02-.03.05-.06.08-.09.22-.21.58-.21.79.02,1.51,1.57,2.86,3.52,3.9,5.64.14.28.02.61-.25.75s-.61.02-.75-.25c-.79-1.61-1.77-3.12-2.86-4.43.29.8.44,1.63.44,2.49,0,1-.2,2.01-.58,3.01-.09.22-.3.36-.52.36Zm-56.81-2.69c-.14,0-.27-.05-.38-.15-1.24-1.16-2.46-2.37-3.64-3.59-.21-.22-.21-.58.02-.79s.58-.21.79.02c1.16,1.21,2.37,2.4,3.59,3.55.23.21.24.56.03.79-.11.12-.26.18-.41.18Zm44.97-7.24c-.21,0-.41-.12-.5-.32-.13-.28-.01-.61.26-.75.17-.08.34-.15.52-.22,1.95-.76,4-.86,6.03-.3l-.96-.8c-1.37-1.15-2.7-2.38-3.96-3.65-.22-.22-.21-.57,0-.79.22-.22.58-.21.79,0,1.23,1.25,2.54,2.46,3.88,3.58l1.06.88c.24.2.27.55.07.79-.09.1-.2.17-.32.19.19.14.28.39.2.62-.09.29-.41.46-.7.36-1.91-.62-3.84-.56-5.68.15-.15.06-.3.12-.44.19-.08.04-.16.05-.24.05Zm-2.63-10.92c-.17,0-.33-.08-.44-.22-1.4-1.8-2.68-3.69-3.81-5.61-.16-.27-.07-.61.2-.77.27-.16.61-.07.77.2,1.1,1.88,2.36,3.73,3.73,5.49.19.25.14.6-.1.79-.1.08-.22.12-.34.12Zm-6.77-11.55c-.22,0-.43-.13-.52-.35-.89-2.14-1.59-4.31-2.1-6.46-.07-.3.12-.6.42-.67.3-.08.6.12.67.42.49,2.09,1.18,4.2,2.04,6.29.12.29-.02.61-.3.73-.07.03-.14.04-.21.04Zm-3.01-13.01c-.3,0-.54-.23-.56-.53-.02-.5-.04-1.01-.04-1.51,0-1.79.15-3.57.44-5.29.05-.31.35-.5.64-.46.3.05.51.34.46.64-.28,1.67-.42,3.38-.42,5.11,0,.49.01.97.03,1.46.01.31-.22.57-.53.58,0,0-.02,0-.03,0Zm2.22-13.13c-.07,0-.14-.01-.21-.04-.29-.12-.42-.44-.31-.73.85-2.09,1.92-4.11,3.2-6.01.17-.26.52-.33.78-.15.26.17.32.52.15.78-1.23,1.83-2.27,3.79-3.09,5.8-.09.22-.3.35-.52.35Zm7.4-11.08c-.14,0-.28-.05-.39-.16-.22-.22-.22-.57,0-.79,1.54-1.55,3.27-3.04,5.15-4.42.25-.18.6-.13.78.12.18.25.13.6-.12.78-1.83,1.35-3.52,2.8-5.02,4.31-.11.11-.25.17-.4.17Zm10.73-8c-.2,0-.39-.1-.49-.29-.15-.27-.06-.61.21-.76,1.87-1.05,3.91-2.07,6.05-3.02.28-.12.61,0,.74.29.12.28,0,.61-.29.74-2.11.93-4.11,1.93-5.96,2.97-.09.05-.18.07-.27.07Zm12.24-5.47c-.23,0-.45-.14-.53-.37-.1-.29.05-.61.34-.71,2.04-.72,4.2-1.41,6.43-2.06.3-.09.61.09.69.38.09.3-.08.61-.38.69-2.21.64-4.35,1.32-6.36,2.04-.06.02-.12.03-.19.03Zm12.89-3.75c-.25,0-.48-.17-.54-.43-.07-.3.11-.6.42-.67,2.07-.49,4.27-.96,6.51-1.41.3-.05.63.13.69.43.06.3-.1.59-.4.65,0,0-.09.02-.1.02-2.21.44-4.39.91-6.45,1.39-.04.01-.09.02-.13.02Zm13.16-2.68c-.26,0-.5-.19-.55-.46-.06-.3.14-.6.45-.65l6.6-1.23c.31-.06.6.14.65.45s-.14.6-.45.65l-6.6,1.23s-.07,0-.1,0Zm13.19-2.47c-.26,0-.5-.19-.55-.45-.06-.3.14-.6.44-.65,2.2-.42,4.39-.86,6.57-1.31.3-.06.6.13.66.43.06.3-.13.6-.43.66-2.19.46-4.39.89-6.59,1.31-.04,0-.07.01-.11.01Zm13.14-2.75c-.25,0-.48-.17-.54-.43-.07-.3.12-.6.42-.67,2.24-.52,4.43-1.06,6.5-1.6.3-.08.6.1.68.4.08.3-.1.6-.4.68-2.08.55-4.28,1.09-6.53,1.61-.04,0-.08.01-.13.01Zm12.97-3.44c-.24,0-.46-.16-.54-.4-.09-.29.08-.61.37-.7,2.19-.67,4.33-1.37,6.35-2.1.29-.1.61.05.71.34.1.29-.05.61-.34.71-2.04.73-4.19,1.44-6.4,2.11-.05.02-.11.02-.16.02Zm12.63-4.54c-.22,0-.42-.13-.51-.34-.12-.28.01-.61.3-.73,2.07-.88,4.11-1.81,6.06-2.79.27-.14.61-.03.75.25.14.28.03.61-.25.75-1.98.99-4.04,1.94-6.13,2.82-.07.03-.14.04-.22.04Zm12-6.01c-.19,0-.38-.1-.48-.28-.16-.27-.07-.61.2-.77,1.94-1.15,3.83-2.36,5.61-3.6.25-.18.6-.11.78.14.18.25.12.6-.14.78-1.8,1.26-3.71,2.49-5.68,3.65-.09.05-.19.08-.28.08Zm10.98-7.7c-.16,0-.32-.07-.43-.2-.2-.24-.17-.59.07-.79,1.72-1.44,3.37-2.95,4.9-4.5.22-.22.57-.22.79,0s.22.57,0,.79c-1.55,1.58-3.23,3.12-4.98,4.58-.1.09-.23.13-.36.13Zm9.39-9.56c-.12,0-.25-.04-.35-.12-.24-.19-.28-.54-.09-.79,1.39-1.75,2.67-3.57,3.82-5.43.16-.26.51-.34.77-.18.26.16.34.51.18.77-1.17,1.89-2.48,3.75-3.9,5.54-.11.14-.27.21-.44.21Zm7.05-11.38c-.08,0-.16-.02-.24-.05-.28-.13-.4-.46-.27-.74.93-1.98,1.76-4.05,2.48-6.17.1-.29.42-.45.71-.35.29.1.45.42.35.71-.73,2.15-1.58,4.26-2.53,6.28-.1.2-.3.32-.51.32Zm-322.54-5c-.08,0-.16-.02-.24-.05-2.01-.95-4.04-1.96-6.03-3-.27-.14-.38-.48-.24-.75.14-.27.48-.38.75-.24,1.98,1.03,4,2.03,5.99,2.98.28.13.4.47.26.75-.1.2-.3.32-.51.32Zm-11.91-6.18c-.09,0-.19-.02-.27-.07-1.95-1.1-3.9-2.24-5.81-3.4-.26-.16-.35-.5-.19-.77s.5-.35.77-.19c1.9,1.16,3.84,2.29,5.77,3.38.27.15.36.49.21.76-.1.18-.29.29-.49.29Zm338.79-1.49s-.08,0-.13-.01c-.3-.07-.49-.37-.42-.67.49-2.11.89-4.32,1.2-6.55.04-.31.33-.52.63-.48.31.04.52.32.48.63-.31,2.27-.72,4.5-1.22,6.65-.06.26-.29.43-.54.43Zm-350.25-5.49c-.11,0-.21-.03-.31-.09-1.88-1.24-3.75-2.51-5.56-3.8-.25-.18-.31-.53-.13-.78.18-.25.53-.31.78-.13,1.8,1.28,3.66,2.55,5.53,3.78.26.17.33.52.16.77-.11.16-.29.25-.47.25Zm-10.95-7.76c-.12,0-.24-.04-.34-.11-1.79-1.36-3.56-2.76-5.28-4.17-.24-.2-.27-.55-.08-.79.2-.24.55-.27.79-.08,1.71,1.4,3.48,2.79,5.25,4.15.25.19.29.54.11.78-.11.14-.28.22-.45.22Zm363.06-.02s-.02,0-.03,0c-.31-.02-.54-.28-.53-.59.1-1.76.15-3.58.15-5.41,0-.42,0-.84,0-1.26,0-.31.24-.56.55-.57h0c.31,0,.56.25.56.55,0,.42,0,.85,0,1.27,0,1.85-.05,3.69-.15,5.48-.02.3-.26.53-.56.53Zm-373.44-8.47c-.13,0-.26-.05-.37-.14-1.68-1.47-3.36-3-4.98-4.52-.22-.21-.24-.57-.02-.79.21-.23.57-.23.79-.02,1.62,1.52,3.28,3.03,4.95,4.5.23.2.26.56.05.79-.11.13-.27.19-.42.19Zm373.3-4.94c-.29,0-.54-.22-.56-.52-.16-2.16-.38-4.4-.67-6.65-.04-.31.18-.59.48-.62.3-.04.59.18.62.48.29,2.27.51,4.52.67,6.71.02.31-.21.58-.52.6-.01,0-.03,0-.04,0Zm-383.07-4.25c-.14,0-.29-.06-.4-.17-1.57-1.59-3.14-3.22-4.66-4.86-.21-.23-.2-.58.03-.79.23-.21.58-.2.79.03,1.51,1.63,3.06,3.26,4.63,4.83.22.22.22.57,0,.79-.11.11-.25.16-.39.16Zm381.4-9.06c-.27,0-.5-.19-.55-.46-.37-2.13-.8-4.34-1.28-6.56-.07-.3.13-.6.43-.67.3-.06.6.13.67.43.48,2.24.92,4.47,1.29,6.61.05.3-.15.59-.46.65-.03,0-.06,0-.1,0Zm-390.51-.79c-.16,0-.31-.07-.42-.19-1.39-1.61-2.77-3.27-4.1-4.93l-.17-.21c-.19-.24-.17-.61.07-.81.24-.19.58-.18.77.07l.2.25c1.33,1.65,2.7,3.3,4.08,4.9.2.23.18.59-.06.79-.11.09-.24.14-.36.14Zm-8.37-10.49c-.17,0-.34-.08-.45-.23-1.36-1.85-2.65-3.72-3.84-5.54-.17-.26-.1-.6.16-.77.26-.17.6-.1.77.16,1.18,1.81,2.47,3.65,3.81,5.49.18.25.13.6-.12.78-.1.07-.21.11-.33.11Zm396.05-1.84c-.25,0-.48-.17-.54-.42-.57-2.23-1.18-4.4-1.81-6.44-.09-.29.07-.61.37-.7.29-.09.61.07.7.37.63,2.05,1.25,4.24,1.83,6.49.08.3-.1.6-.4.68-.05.01-.09.02-.14.02Zm-403.4-9.39c-.19,0-.38-.1-.49-.28-1.14-1.99-2.21-4-3.16-5.97-.13-.28-.02-.61.26-.75.28-.13.61-.02.75.26.94,1.94,1.99,3.93,3.12,5.9.15.27.06.61-.21.76-.09.05-.18.07-.28.07Zm399.4-3.42c-.23,0-.44-.14-.52-.36-.81-2.14-1.68-4.21-2.59-6.15-.13-.28-.01-.61.27-.74.27-.13.61-.01.74.27.92,1.96,1.8,4.05,2.62,6.22.11.29-.04.61-.33.72-.07.02-.13.04-.2.04Zm-405.22-8.66c-.22,0-.44-.14-.52-.36-.83-2.14-1.55-4.29-2.15-6.41-.08-.3.09-.61.39-.69.3-.09.61.09.69.39.59,2.08,1.3,4.21,2.12,6.31.11.29-.03.61-.32.72-.07.03-.13.04-.2.04Zm399.49-3.46c-.19,0-.38-.1-.48-.28-1.16-1.96-2.4-3.82-3.69-5.52-.19-.25-.14-.6.11-.78.25-.19.6-.14.78.11,1.32,1.74,2.58,3.63,3.76,5.63.16.27.07.61-.2.77-.09.05-.19.08-.28.08Zm-34.35-.15c-2.04,0-4.11-.59-5.83-1.66-.26-.16-.34-.51-.18-.77.16-.26.51-.34.77-.18,1.78,1.11,3.99,1.64,6.07,1.45.3-.04.58.2.61.5.03.31-.2.58-.5.61-.31.03-.62.04-.94.04Zm6.37-3.4c-.09,0-.18-.02-.27-.07-.27-.15-.37-.49-.22-.76.58-1.13.84-2.31.84-3.69,0-.77-.08-1.59-.25-2.49-.06-.3.14-.6.45-.65.3-.06.59.14.65.45.18.97.27,1.85.27,2.69,0,1.54-.31,2.93-.92,4.12l-.06.11c-.1.19-.29.29-.49.29Zm-15.61-3.51c-.26,0-.5-.19-.55-.46-.1-.56-.15-1.15-.15-1.73,0-1.72.44-3.45,1.31-5.13.14-.27.48-.38.75-.24.27.14.38.48.24.75-.78,1.52-1.18,3.07-1.18,4.61,0,.51.04,1.03.14,1.53.05.3-.15.59-.45.65-.03,0-.07,0-.1,0Zm-341.1-1.74c-1.91,0-3.84-.3-5.73-.9-.29-.09-.46-.41-.37-.7.09-.29.4-.46.7-.37,2.13.67,4.3.94,6.42.81.32-.02.57.21.59.52.02.31-.21.57-.52.59-.36.02-.73.03-1.09.03Zm-18.43-.64c-.27,0-.5-.19-.55-.46-.39-2.24-.65-4.51-.77-6.73-.02-.31.22-.57.53-.59.31-.02.57.22.59.53.12,2.18.38,4.4.76,6.6.05.3-.15.59-.46.65-.03,0-.06,0-.1,0Zm395-1.2c-.14,0-.29-.05-.4-.16-1.58-1.58-3.26-3.04-5.01-4.33-.25-.18-.3-.53-.12-.78.19-.25.54-.3.78-.12,1.79,1.32,3.52,2.82,5.13,4.44.22.22.22.57,0,.79-.11.11-.25.16-.39.16Zm-369.15-.11c-.19,0-.37-.09-.48-.27-.16-.26-.08-.61.18-.77,1-.61,1.88-1.37,2.62-2.26.61-.72,1.14-1.55,1.58-2.45.14-.28.47-.39.75-.25.28.14.39.47.25.75-.48.98-1.07,1.88-1.73,2.68-.82.98-1.79,1.81-2.89,2.49-.09.06-.19.08-.29.08Zm-18.9-2c-.12,0-.24-.04-.35-.12-.34-.27-.67-.55-.99-.85-1.33-1.23-2.55-2.66-3.61-4.24-.17-.26-.1-.6.15-.78.26-.17.6-.1.78.15,1.01,1.51,2.17,2.87,3.44,4.04.3.27.61.54.93.79.24.19.28.54.09.79-.11.14-.27.21-.44.21Zm366.86-3.74c-.22,0-.43-.13-.52-.35-.56-1.39-1.2-2.78-1.92-4.13-.03,0-.05.01-.08.02-.58.08-1.17.2-1.73.35-1.48.38-2.9,1.05-4.22,1.98-.25.18-.6.12-.78-.14-.18-.25-.12-.6.13-.78,1.43-1.01,2.97-1.73,4.58-2.15.5-.13,1.01-.24,1.53-.32-.14-.26-.29-.51-.44-.77-.16-.27-.07-.61.2-.77.27-.16.61-.07.77.2,1.15,1.97,2.16,4.02,2.99,6.09.12.29-.02.61-.31.73-.07.03-.14.04-.21.04Zm10.41-2.02c-.08,0-.17-.02-.24-.06-2.08-1.01-4.16-1.73-6.2-2.14-.3-.06-.5-.36-.44-.66.06-.3.36-.5.66-.44,2.12.43,4.3,1.19,6.46,2.23.28.13.39.47.26.75-.1.2-.3.32-.5.32Zm-352.22-3.61s-.04,0-.06,0c-.31-.03-.53-.31-.49-.62.09-.8.15-1.63.19-2.53.02-.45.03-.9.03-1.35,0-.92-.04-1.83-.11-2.7-.03-.31.2-.58.51-.61.31-.02.58.2.61.51.08.9.12,1.85.12,2.8,0,.47,0,.94-.03,1.4-.04.93-.1,1.79-.19,2.61-.03.29-.27.5-.56.5Zm-32.65-.67s-.04,0-.06,0c-.31-.03-.53-.3-.5-.61.02-.22.05-.44.07-.66-.76-1.96-1.39-4.07-1.92-6.45-.07-.3.12-.6.42-.67.3-.07.6.12.67.42.35,1.56.74,2.99,1.18,4.34.23-1.28.54-2.5.9-3.67.09-.29.4-.46.7-.37.29.09.46.41.37.7-.62,1.99-1.05,4.16-1.28,6.46-.03.29-.27.5-.56.5Zm367.74-5.26c-.17,0-.33-.07-.44-.22-1.33-1.71-2.8-3.39-4.39-4.99-.22-.22-.21-.57,0-.79.22-.22.57-.21.79,0,1.61,1.63,3.12,3.35,4.47,5.09.19.24.15.59-.1.78-.1.08-.22.12-.34.12Zm-336.48-7.29c-.22,0-.43-.13-.52-.35-.87-2.13-2.11-3.88-3.67-5.21-.24-.2-.27-.55-.07-.79.2-.24.55-.27.79-.07,1.71,1.44,3.05,3.34,3.99,5.64.12.29-.02.61-.31.73-.07.03-.14.04-.21.04Zm-27.14-.08c-.11,0-.21-.03-.31-.09-.26-.17-.33-.52-.16-.77.64-.98,1.36-1.9,2.14-2.74.76-.82,1.62-1.59,2.57-2.27.25-.18.6-.12.78.13.18.25.12.6-.13.78-.89.64-1.69,1.35-2.4,2.12-.74.8-1.42,1.67-2.02,2.6-.11.16-.29.25-.47.25Zm-7.15-1.26c-.28,0-.52-.2-.55-.48-.3-2.22-.54-4.48-.7-6.71-.02-.31.21-.58.52-.6.31-.02.58.21.6.52.16,2.21.4,4.44.69,6.64.04.31-.17.59-.48.63-.03,0-.05,0-.08,0Zm361.37-.91c-.12,0-.25-.04-.35-.13-1.68-1.38-3.48-2.72-5.34-3.98-.26-.17-.32-.52-.15-.78.17-.26.52-.32.78-.15,1.89,1.28,3.72,2.64,5.42,4.04.24.2.27.55.08.79-.11.13-.27.2-.43.2Zm-343.61-5.52c-.25,0-.48-.17-.54-.42-.08-.3.1-.6.4-.68,2.32-.61,4.7-.74,6.88-.38.3.05.51.34.46.64-.05.3-.34.51-.64.46-2.03-.33-4.25-.21-6.42.36-.05.01-.09.02-.14.02Zm332.51-2.01c-.09,0-.19-.02-.27-.07-1.91-1.07-3.91-2.09-5.94-3.02-.28-.13-.4-.46-.27-.74.13-.28.46-.4.74-.27,2.06.95,4.09,1.98,6.02,3.06.27.15.37.49.21.76-.1.18-.29.29-.49.29Zm-351.26-4.94c-.31,0-.56-.25-.56-.55,0-.52-.01-1.04-.01-1.57,0-1.73.04-3.47.12-5.18.01-.31.28-.55.58-.53.31.01.55.28.53.58-.08,1.69-.12,3.42-.12,5.12,0,.52,0,1.03.01,1.55,0,.31-.24.56-.55.57h0Zm339.09-.69c-.07,0-.13-.01-.2-.04-.54-.2-1.08-.4-1.62-.59-1.07-.38-2.15-.74-3.23-1.1l-1.47-.5c-.29-.1-.45-.42-.35-.71.1-.29.42-.45.71-.35l1.47.5c1.09.37,2.17.73,3.25,1.11.55.19,1.09.39,1.64.6.29.11.44.43.33.72-.08.22-.3.36-.52.36Zm-12.62-4.57c-.08,0-.15-.02-.22-.05-2.03-.89-3.76-1.83-5.3-2.86-.22-.15-.44-.3-.65-.45-.25-.18-.31-.53-.13-.78.18-.25.53-.31.78-.13.21.15.42.29.63.44,1.48,1,3.16,1.9,5.12,2.77.28.12.41.45.29.74-.09.21-.3.33-.51.33Zm-10.85-7.72c-.15,0-.3-.06-.41-.18-1.33-1.44-2.7-3.1-4.3-5.23-.19-.25-.14-.6.11-.78.25-.19.6-.14.78.11,1.57,2.1,2.92,3.73,4.22,5.14.21.23.2.58-.03.79-.11.1-.24.15-.38.15Zm-315-.43s-.04,0-.06,0c-.31-.03-.53-.31-.5-.62.24-2.24.56-4.49.94-6.68.05-.3.34-.51.65-.46.3.05.51.34.46.65-.38,2.17-.69,4.39-.93,6.61-.03.29-.27.5-.56.5Zm306.79-10.18c-.17,0-.34-.08-.45-.23-.73-1-1.47-1.99-2.22-2.95-.61-.78-1.24-1.55-1.88-2.31-.2-.24-.17-.59.07-.79.23-.2.59-.17.79.07.65.77,1.28,1.54,1.91,2.34.76.98,1.51,1.98,2.25,2.98.18.25.13.6-.12.78-.1.07-.21.11-.33.11Zm-304.49-3.04s-.09,0-.13-.02c-.3-.07-.48-.37-.41-.67.53-2.19,1.14-4.38,1.81-6.5.09-.29.41-.46.7-.37.29.09.46.41.37.7-.66,2.1-1.26,4.26-1.79,6.43-.06.26-.29.43-.54.43Zm295.81-7.18c-.14,0-.29-.05-.39-.16-1.55-1.55-3.21-3.06-4.91-4.49-.24-.2-.27-.55-.07-.79.2-.24.55-.27.79-.07,1.73,1.46,3.41,2.99,4.98,4.56.22.22.22.57,0,.79-.11.11-.25.16-.4.16Zm-291.77-5.61c-.07,0-.14-.01-.21-.04-.29-.11-.43-.44-.31-.73.83-2.1,1.74-4.18,2.71-6.18.13-.28.47-.39.75-.26.28.13.39.47.26.75-.96,1.98-1.86,4.03-2.68,6.11-.09.22-.3.35-.52.35Zm281.52-3.03c-.11,0-.23-.03-.32-.1-1.78-1.27-3.65-2.51-5.56-3.68-.26-.16-.35-.5-.19-.77.16-.26.5-.35.77-.19,1.93,1.18,3.83,2.43,5.63,3.72.25.18.31.53.13.78-.11.15-.28.23-.46.23Zm-11.44-6.99c-.09,0-.18-.02-.26-.06-1.94-1.01-3.96-1.98-6.02-2.88-.28-.12-.41-.45-.29-.74.12-.28.45-.41.74-.29,2.08.92,4.12,1.9,6.08,2.91.27.14.38.48.24.75-.1.19-.29.3-.5.3Zm-264.23-2.05c-.1,0-.19-.02-.28-.08-.27-.16-.36-.5-.2-.77,1.14-1.95,2.36-3.86,3.64-5.69.18-.25.53-.31.78-.14.25.18.31.53.14.78-1.26,1.8-2.47,3.69-3.59,5.61-.1.18-.29.28-.48.28Zm251.96-3.37c-.06,0-.13-.01-.2-.04-2.05-.76-4.18-1.49-6.32-2.15-.29-.09-.46-.41-.37-.7.09-.29.4-.46.7-.37,2.17.67,4.31,1.41,6.38,2.17.29.11.44.43.33.72-.08.23-.3.36-.52.36Zm-12.81-3.99s-.09,0-.14-.02c-2.12-.54-4.31-1.05-6.51-1.5-.3-.06-.5-.36-.43-.66.06-.3.36-.5.66-.43,2.22.46,4.43.97,6.56,1.52.3.08.48.38.4.68-.07.25-.29.42-.54.42Zm-105.87-.98h-.02c-2.17-.07-4.44-.43-6.74-1.06-.3-.08-.47-.39-.39-.69.08-.3.39-.48.69-.39,2.22.61,4.41.95,6.49,1.02.31.01.55.27.54.58-.01.3-.26.54-.56.54Zm6.64-.75c-.25,0-.47-.16-.54-.41-.08-.3.09-.61.39-.69.35-.1.71-.21,1.06-.32,1.63-.55,3.27-1.35,4.87-2.37.26-.17.61-.09.77.17.17.26.09.61-.17.77-1.68,1.08-3.41,1.91-5.12,2.49-.37.12-.74.24-1.12.34-.05.01-.1.02-.15.02Zm86.09-1s-.06,0-.09,0c-2.16-.35-4.39-.66-6.62-.93-.31-.04-.53-.31-.49-.62.04-.31.32-.53.62-.49,2.25.27,4.49.58,6.67.93.31.05.51.34.46.64-.04.27-.28.47-.55.47Zm-218.32-.9c-.13,0-.25-.04-.36-.13-.24-.2-.27-.55-.07-.79,1.44-1.73,2.97-3.41,4.54-5,.22-.22.57-.22.79,0s.22.57,0,.79c-1.55,1.57-3.06,3.22-4.48,4.93-.11.13-.27.2-.43.2Zm164.76-.56h0c-2.44-.04-4.64-.16-6.75-.36-.31-.03-.53-.3-.5-.61.03-.31.3-.53.61-.5,2.07.2,4.25.32,6.65.36.31,0,.56.26.55.57,0,.31-.25.55-.56.55Zm6.71-.08c-.3,0-.55-.24-.56-.54,0-.31.23-.57.54-.58,2.16-.07,4.31-.17,6.47-.27h.23c.31-.03.57.21.58.52.01.31-.22.57-.53.58h-.23c-2.16.11-4.32.22-6.48.28h-.02Zm33.53-.06s-.03,0-.04,0c-2.19-.17-4.44-.31-6.68-.41-.31-.01-.55-.27-.54-.58.01-.31.27-.55.58-.54,2.25.09,4.51.23,6.72.41.31.02.54.29.51.6-.02.29-.27.51-.56.51Zm-92.3-.05c-.08,0-.16-.02-.24-.05-1.49-.7-2.98-1.51-4.44-2.4-.49-.3-.99-.61-1.47-.93-.26-.17-.33-.51-.17-.77.17-.26.52-.33.77-.17.48.31.96.61,1.45.91,1.42.87,2.88,1.66,4.33,2.34.28.13.4.47.27.74-.1.2-.3.32-.51.32Zm72.18-.44c-.3,0-.55-.24-.56-.54,0-.31.23-.57.54-.58,1.83-.05,3.69-.08,5.52-.08h1.2c.31,0,.56.26.56.57,0,.31-.25.56-.56.56h-1.2c-1.82,0-3.67.02-5.49.07h-.02Zm-33.45-.75s-.08,0-.12-.01c-.98-.22-1.96-.46-2.9-.73-1.21-.35-2.43-.76-3.61-1.24-.29-.12-.43-.44-.31-.73.12-.29.44-.42.73-.31,1.15.46,2.32.87,3.5,1.2.92.26,1.87.5,2.83.71.3.07.49.36.43.67-.06.26-.29.44-.55.44Zm-7.86-3.1c-.15,0-.3-.06-.41-.18-.21-.22-.2-.58.02-.79.8-.75,1.62-1.57,2.51-2.51.76-.8,1.44-1.55,2.09-2.3.2-.23.56-.26.79-.06.23.2.26.56.06.79-.66.76-1.36,1.53-2.13,2.34-.9.95-1.74,1.79-2.55,2.55-.11.1-.25.15-.38.15Zm-4.52-1.9c-.1,0-.21-.03-.3-.09-1.97-1.25-3.77-2.68-5.35-4.22-.22-.22-.23-.57,0-.79.21-.22.57-.23.79,0,1.53,1.49,3.27,2.87,5.17,4.08.26.17.34.51.17.77-.11.17-.29.26-.47.26Zm-37.68-.96c-.12,0-.23-.04-.33-.11-1.17-.88-2.33-1.77-3.49-2.66l-1.84-1.42c-.25-.19-.29-.54-.1-.78.19-.25.54-.29.78-.1l1.85,1.42c1.16.89,2.31,1.78,3.48,2.65.25.19.3.54.11.78-.11.15-.28.22-.45.22Zm-91.91-1.59c-.16,0-.32-.07-.43-.2-.2-.24-.16-.59.07-.79,1.72-1.42,3.54-2.79,5.41-4.06.26-.17.6-.11.78.15.17.26.11.6-.15.78-1.84,1.25-3.63,2.59-5.32,4-.1.09-.23.13-.36.13Zm142.81-5.74c-.1,0-.21-.03-.3-.09-.26-.17-.33-.51-.17-.77,1.27-1.97,2.27-3.94,2.97-5.86.11-.29.43-.44.72-.33.29.11.44.43.33.72-.73,2-1.77,4.05-3.08,6.09-.11.17-.29.26-.47.26Zm-61.64-.72c-.11,0-.22-.03-.32-.1-1.26-.86-2.43-1.62-3.57-2.31-.69-.41-1.38-.81-2.08-1.19-.27-.15-.37-.49-.23-.76.15-.27.49-.37.76-.23.72.39,1.43.79,2.13,1.21,1.17.7,2.35,1.47,3.63,2.34.25.18.32.52.14.78-.11.16-.28.24-.46.24Zm38.98-.37c-.19,0-.37-.1-.48-.27-1.23-2.03-2.11-4.16-2.63-6.33-.07-.3.12-.6.42-.67.3-.07.6.12.67.42.48,2.06,1.32,4.08,2.49,6.01.16.26.08.61-.19.77-.09.06-.19.08-.29.08Zm-109.06-.72c-.2,0-.39-.1-.49-.29-.15-.27-.05-.61.22-.76,1.96-1.09,4-2.1,6.05-3.01.28-.12.61,0,.74.29.12.28,0,.61-.29.74-2.03.9-4.03,1.89-5.96,2.96-.09.05-.18.07-.27.07Zm58.29-5.26c-.07,0-.14-.01-.2-.04-2.04-.8-4.16-1.49-6.31-2.06-.3-.08-.48-.38-.4-.68.08-.3.38-.47.68-.4,2.2.58,4.36,1.29,6.44,2.1.29.11.43.44.32.73-.09.22-.3.35-.52.35Zm-46.03-.16c-.23,0-.45-.15-.53-.38-.1-.29.06-.61.35-.71,2.13-.73,4.32-1.36,6.49-1.89.3-.07.6.11.68.41.07.3-.11.6-.41.68-2.14.52-4.29,1.15-6.39,1.87-.06.02-.12.03-.18.03Zm13.02-3.18c-.27,0-.51-.2-.55-.48-.05-.31.17-.59.47-.64,2.24-.34,4.5-.57,6.73-.69.3-.03.57.22.59.53.02.31-.22.57-.53.59-2.19.12-4.42.35-6.62.68-.03,0-.06,0-.08,0Zm20.06-.09s-.06,0-.08,0c-2.16-.32-4.39-.53-6.62-.63-.31-.01-.55-.27-.53-.58.01-.31.27-.55.58-.53,2.27.1,4.53.31,6.74.64.31.05.52.33.47.64-.04.28-.28.48-.55.48Zm90.73-2.03h-.02c-.31,0-.55-.27-.54-.58,0-.18,0-.37,0-.55,0-2.04-.32-4.01-.96-5.85-.1-.29.05-.61.35-.71.29-.1.61.05.71.35.68,1.96,1.02,4.06,1.02,6.22,0,.19,0,.39,0,.58,0,.3-.26.54-.56.54Zm-29.87-1.39s-.06,0-.1,0c-.3-.05-.51-.34-.45-.65.39-2.21,1.26-4.35,2.6-6.38.17-.26.52-.33.77-.16.26.17.33.52.16.77-1.25,1.9-2.06,3.91-2.43,5.96-.05.27-.28.46-.55.46Zm25.42-10.9c-.14,0-.29-.06-.4-.17-.65-.66-1.38-1.24-2.15-1.73-1.03-.66-2.15-1.14-3.33-1.43-.3-.07-.48-.38-.41-.68.07-.3.38-.48.68-.41,1.29.32,2.52.85,3.66,1.57.84.54,1.63,1.17,2.34,1.89.22.22.22.57,0,.79-.11.11-.25.16-.39.16Zm-18.34-.15c-.17,0-.34-.08-.45-.22-.19-.25-.14-.6.11-.78,1.9-1.43,4.03-2.5,6.15-3.08.3-.08.61.09.69.39.08.3-.09.61-.39.69-1.99.55-3.99,1.55-5.77,2.9-.1.08-.22.11-.34.11Z"/><circle class="cls-6" cx="203.64" cy="165.42" r="5.71"/><circle class="cls-25" cx="220.48" cy="165.42" r="5.71"/><circle class="cls-29" cx="236.4" cy="165.42" r="5.71"/><path class="cls-43" d="m170.71,151.72c-.04-.79-.07-1.59-.07-2.39,0-23.54,19.08-42.62,42.62-42.62,2.29,0,4.53.19,6.72.53.47-28.52,23.72-51.49,52.35-51.49,18.97,0,35.59,10.09,44.78,25.2,5.8-2.21,12.08-3.43,18.66-3.43,28.29,0,51.32,22.43,52.32,50.48,2.37-.53,4.83-.83,7.36-.83,15.37,0,28.29,10.4,32.14,24.55H170.71Z"/><rect class="cls-22" x="268.63" y="116.35" width="18.19" height="35.37"/><polygon class="cls-22" points="296.92 119.4 277.73 100.21 258.54 119.4 296.92 119.4"/><rect class="cls-14" x="311.39" y="150.45" width="18.19" height="35.37"/><polygon class="cls-26" points="339.67 182.78 320.48 201.96 301.3 182.78 339.67 182.78"/><path class="cls-8" d="m328.09,67.95l-21.8-15.98,26.16-9.88-4.35,25.86Zm-17.26-15.36l15.69,11.5,3.13-18.61-18.82,7.11Z"/><path class="cls-2" d="m337.52,214.5l3.11-19.79,15.4,13.86-18.5,5.93Zm4.24-16.59l-2.23,14.24,13.32-4.27-11.08-9.97Z"/><path class="cls-32" d="m152.44,146.01c-5.08,0-9.22-4.13-9.22-9.22s4.13-9.22,9.22-9.22,9.22,4.13,9.22,9.22-4.13,9.22-9.22,9.22Zm0-16.25c-3.88,0-7.03,3.15-7.03,7.03s3.15,7.03,7.03,7.03,7.03-3.15,7.03-7.03-3.15-7.03-7.03-7.03Z"/><path class="cls-32" d="m60.81,343.04c-5.08,0-9.22-4.13-9.22-9.22s4.13-9.22,9.22-9.22,9.22,4.13,9.22,9.22-4.13,9.22-9.22,9.22Zm0-16.25c-3.88,0-7.03,3.15-7.03,7.03s3.15,7.03,7.03,7.03,7.03-3.15,7.03-7.03-3.15-7.03-7.03-7.03Z"/><rect class="cls-26" x="116.87" y="178.23" width="117.78" height="280.72"/><rect class="cls-28" x="177.19" y="178.23" width="117.42" height="280.72"/><rect class="cls-22" x="183.66" y="191.55" width="105.1" height="43.73"/><rect class="cls-33" x="190.68" y="195.77" width="4.6" height="35.29"/><rect class="cls-30" x="198.16" y="195.77" width="4.6" height="35.29"/><path class="cls-4" d="m233.31,202.87h-26.58v-6.79h26.58v6.79Zm-25.89-.68h25.21v-5.43h-25.21v5.43Z"/><path class="cls-4" d="m233.31,212.16h-26.58v-6.79h26.58v6.79Zm-25.89-.68h25.21v-5.43h-25.21v5.43Z"/><path class="cls-4" d="m233.31,221.46h-26.58v-6.79h26.58v6.79Zm-25.89-.68h25.21v-5.43h-25.21v5.43Z"/><path class="cls-4" d="m233.31,230.75h-26.58v-6.79h26.58v6.79Zm-25.89-.68h25.21v-5.43h-25.21v5.43Z"/><rect class="cls-13" x="252.4" y="196.42" width="29.34" height="33.99"/><rect class="cls-4" x="254.92" y="200.23" width="24.31" height="5.48" rx="2.74" ry="2.74"/><path class="cls-13" d="m276.52,203.52h-18.89c-.3,0-.55-.25-.55-.55s.25-.55.55-.55h18.89c.3,0,.55.25.55.55s-.25.55-.55.55Z"/><rect class="cls-4" x="254.92" y="210.67" width="24.31" height="5.48" rx="2.74" ry="2.74"/><path class="cls-13" d="m276.52,213.97h-18.89c-.3,0-.55-.25-.55-.55s.25-.55.55-.55h18.89c.3,0,.55.25.55.55s-.25.55-.55.55Z"/><rect class="cls-4" x="254.92" y="221.12" width="24.31" height="5.48" rx="2.74" ry="2.74"/><path class="cls-13" d="m276.52,224.41h-18.89c-.3,0-.55-.25-.55-.55s.25-.55.55-.55h18.89c.3,0,.55.25.55.55s-.25.55-.55.55Z"/><circle class="cls-32" cx="238.55" cy="210.56" r="1.33"/><circle class="cls-2" cx="242.86" cy="210.56" r="1.33"/><circle class="cls-15" cx="247.18" cy="210.56" r="1.33"/><circle class="cls-15" cx="238.55" cy="214.59" r="1.33"/><circle class="cls-32" cx="242.86" cy="214.59" r="1.33"/><circle class="cls-2" cx="247.18" cy="214.59" r="1.33"/><circle class="cls-32" cx="238.55" cy="197.29" r="1.33"/><circle class="cls-2" cx="242.86" cy="197.29" r="1.33"/><circle class="cls-15" cx="247.18" cy="197.29" r="1.33"/><circle class="cls-15" cx="238.55" cy="201.32" r="1.33"/><circle class="cls-15" cx="242.86" cy="201.32" r="1.33"/><circle class="cls-32" cx="247.18" cy="201.32" r="1.33"/><circle class="cls-15" cx="238.55" cy="223.83" r="1.33"/><circle class="cls-32" cx="242.86" cy="223.83" r="1.33"/><circle class="cls-15" cx="247.18" cy="223.83" r="1.33"/><circle class="cls-32" cx="238.55" cy="227.86" r="1.33"/><circle class="cls-2" cx="242.86" cy="227.86" r="1.33"/><circle class="cls-15" cx="247.18" cy="227.86" r="1.33"/><rect class="cls-22" x="183.66" y="243.26" width="105.1" height="43.73"/><rect class="cls-40" x="190.68" y="247.48" width="4.6" height="35.29"/><rect class="cls-12" x="198.16" y="247.48" width="4.6" height="35.29"/><path class="cls-4" d="m233.31,254.58h-26.58v-6.79h26.58v6.79Zm-25.89-.68h25.21v-5.43h-25.21v5.43Z"/><path class="cls-4" d="m233.31,263.87h-26.58v-6.79h26.58v6.79Zm-25.89-.68h25.21v-5.43h-25.21v5.43Z"/><path class="cls-4" d="m233.31,273.17h-26.58v-6.79h26.58v6.79Zm-25.89-.68h25.21v-5.43h-25.21v5.43Z"/><path class="cls-4" d="m233.31,282.46h-26.58v-6.79h26.58v6.79Zm-25.89-.68h25.21v-5.43h-25.21v5.43Z"/><rect class="cls-13" x="252.4" y="248.13" width="29.34" height="33.99"/><rect class="cls-4" x="254.92" y="251.94" width="24.31" height="5.48" rx="2.74" ry="2.74"/><path class="cls-13" d="m276.52,255.23h-18.89c-.3,0-.55-.25-.55-.55s.25-.55.55-.55h18.89c.3,0,.55.25.55.55s-.25.55-.55.55Z"/><rect class="cls-4" x="254.92" y="262.38" width="24.31" height="5.48" rx="2.74" ry="2.74"/><path class="cls-13" d="m276.52,265.67h-18.89c-.3,0-.55-.25-.55-.55s.25-.55.55-.55h18.89c.3,0,.55.25.55.55s-.25.55-.55.55Z"/><rect class="cls-4" x="254.92" y="272.83" width="24.31" height="5.48" rx="2.74" ry="2.74"/><path class="cls-13" d="m276.52,276.12h-18.89c-.3,0-.55-.25-.55-.55s.25-.55.55-.55h18.89c.3,0,.55.25.55.55s-.25.55-.55.55Z"/><circle class="cls-32" cx="238.55" cy="262.27" r="1.33"/><circle class="cls-2" cx="242.86" cy="262.27" r="1.33"/><circle class="cls-15" cx="247.18" cy="262.27" r="1.33"/><circle class="cls-15" cx="238.55" cy="266.3" r="1.33"/><circle class="cls-32" cx="242.86" cy="266.3" r="1.33"/><circle class="cls-2" cx="247.18" cy="266.3" r="1.33"/><circle class="cls-32" cx="238.55" cy="249" r="1.33"/><circle class="cls-2" cx="242.86" cy="249" r="1.33"/><circle class="cls-15" cx="247.18" cy="249" r="1.33"/><circle class="cls-15" cx="238.55" cy="253.03" r="1.33"/><circle class="cls-15" cx="242.86" cy="253.03" r="1.33"/><circle class="cls-32" cx="247.18" cy="253.03" r="1.33"/><circle class="cls-15" cx="238.55" cy="275.54" r="1.33"/><circle class="cls-32" cx="242.86" cy="275.54" r="1.33"/><circle class="cls-15" cx="247.18" cy="275.54" r="1.33"/><circle class="cls-32" cx="238.55" cy="279.57" r="1.33"/><circle class="cls-2" cx="242.86" cy="279.57" r="1.33"/><circle class="cls-15" cx="247.18" cy="279.57" r="1.33"/><rect class="cls-22" x="183.66" y="294.97" width="105.1" height="43.73"/><rect class="cls-1" x="190.68" y="299.19" width="4.6" height="35.29"/><rect class="cls-17" x="198.16" y="299.19" width="4.6" height="35.29"/><path class="cls-4" d="m233.31,306.28h-26.58v-6.79h26.58v6.79Zm-25.89-.68h25.21v-5.43h-25.21v5.43Z"/><path class="cls-4" d="m233.31,315.58h-26.58v-6.79h26.58v6.79Zm-25.89-.68h25.21v-5.43h-25.21v5.43Z"/><path class="cls-4" d="m233.31,324.87h-26.58v-6.79h26.58v6.79Zm-25.89-.68h25.21v-5.43h-25.21v5.43Z"/><path class="cls-4" d="m233.31,334.17h-26.58v-6.79h26.58v6.79Zm-25.89-.68h25.21v-5.43h-25.21v5.43Z"/><rect class="cls-13" x="252.4" y="299.83" width="29.34" height="33.99"/><rect class="cls-4" x="254.92" y="303.64" width="24.31" height="5.48" rx="2.74" ry="2.74"/><path class="cls-13" d="m276.52,306.94h-18.89c-.3,0-.55-.25-.55-.55s.25-.55.55-.55h18.89c.3,0,.55.25.55.55s-.25.55-.55.55Z"/><rect class="cls-4" x="254.92" y="314.09" width="24.31" height="5.48" rx="2.74" ry="2.74"/><path class="cls-13" d="m276.52,317.38h-18.89c-.3,0-.55-.25-.55-.55s.25-.55.55-.55h18.89c.3,0,.55.25.55.55s-.25.55-.55.55Z"/><rect class="cls-4" x="254.92" y="324.53" width="24.31" height="5.48" rx="2.74" ry="2.74"/><path class="cls-13" d="m276.52,327.83h-18.89c-.3,0-.55-.25-.55-.55s.25-.55.55-.55h18.89c.3,0,.55.25.55.55s-.25.55-.55.55Z"/><circle class="cls-32" cx="238.55" cy="313.98" r="1.33"/><circle class="cls-2" cx="242.86" cy="313.98" r="1.33"/><circle class="cls-15" cx="247.18" cy="313.98" r="1.33"/><circle class="cls-15" cx="238.55" cy="318.01" r="1.33"/><circle class="cls-32" cx="242.86" cy="318.01" r="1.33"/><circle class="cls-2" cx="247.18" cy="318.01" r="1.33"/><circle class="cls-32" cx="238.55" cy="300.71" r="1.33"/><circle class="cls-2" cx="242.86" cy="300.71" r="1.33"/><circle class="cls-15" cx="247.18" cy="300.71" r="1.33"/><circle class="cls-15" cx="238.55" cy="304.74" r="1.33"/><circle class="cls-15" cx="242.86" cy="304.74" r="1.33"/><circle class="cls-32" cx="247.18" cy="304.74" r="1.33"/><circle class="cls-15" cx="238.55" cy="327.25" r="1.33"/><circle class="cls-32" cx="242.86" cy="327.25" r="1.33"/><circle class="cls-15" cx="247.18" cy="327.25" r="1.33"/><circle class="cls-32" cx="238.55" cy="331.28" r="1.33"/><circle class="cls-2" cx="242.86" cy="331.28" r="1.33"/><circle class="cls-15" cx="247.18" cy="331.28" r="1.33"/><rect class="cls-22" x="183.66" y="347.85" width="105.1" height="43.73"/><rect class="cls-24" x="190.68" y="352.07" width="4.6" height="35.29"/><rect class="cls-11" x="198.16" y="352.07" width="4.6" height="35.29"/><path class="cls-4" d="m233.31,359.17h-26.58v-6.79h26.58v6.79Zm-25.89-.68h25.21v-5.43h-25.21v5.43Z"/><path class="cls-4" d="m233.31,368.46h-26.58v-6.79h26.58v6.79Zm-25.89-.68h25.21v-5.43h-25.21v5.43Z"/><path class="cls-4" d="m233.31,377.76h-26.58v-6.79h26.58v6.79Zm-25.89-.68h25.21v-5.43h-25.21v5.43Z"/><path class="cls-4" d="m233.31,387.05h-26.58v-6.79h26.58v6.79Zm-25.89-.68h25.21v-5.43h-25.21v5.43Z"/><rect class="cls-13" x="252.4" y="352.72" width="29.34" height="33.99"/><rect class="cls-4" x="254.92" y="356.53" width="24.31" height="5.48" rx="2.74" ry="2.74"/><path class="cls-13" d="m276.52,359.82h-18.89c-.3,0-.55-.25-.55-.55s.25-.55.55-.55h18.89c.3,0,.55.25.55.55s-.25.55-.55.55Z"/><rect class="cls-4" x="254.92" y="366.97" width="24.31" height="5.48" rx="2.74" ry="2.74"/><path class="cls-13" d="m276.52,370.26h-18.89c-.3,0-.55-.25-.55-.55s.25-.55.55-.55h18.89c.3,0,.55.25.55.55s-.25.55-.55.55Z"/><rect class="cls-4" x="254.92" y="377.42" width="24.31" height="5.48" rx="2.74" ry="2.74"/><path class="cls-13" d="m276.52,380.71h-18.89c-.3,0-.55-.25-.55-.55s.25-.55.55-.55h18.89c.3,0,.55.25.55.55s-.25.55-.55.55Z"/><circle class="cls-32" cx="238.55" cy="366.86" r="1.33"/><circle class="cls-2" cx="242.86" cy="366.86" r="1.33"/><circle class="cls-15" cx="247.18" cy="366.86" r="1.33"/><circle class="cls-15" cx="238.55" cy="370.89" r="1.33"/><circle class="cls-32" cx="242.86" cy="370.89" r="1.33"/><circle class="cls-2" cx="247.18" cy="370.89" r="1.33"/><circle class="cls-32" cx="238.55" cy="353.59" r="1.33"/><circle class="cls-2" cx="242.86" cy="353.59" r="1.33"/><circle class="cls-15" cx="247.18" cy="353.59" r="1.33"/><circle class="cls-15" cx="238.55" cy="357.62" r="1.33"/><circle class="cls-15" cx="242.86" cy="357.62" r="1.33"/><circle class="cls-32" cx="247.18" cy="357.62" r="1.33"/><circle class="cls-15" cx="238.55" cy="380.13" r="1.33"/><circle class="cls-32" cx="242.86" cy="380.13" r="1.33"/><circle class="cls-15" cx="247.18" cy="380.13" r="1.33"/><circle class="cls-32" cx="238.55" cy="384.16" r="1.33"/><circle class="cls-2" cx="242.86" cy="384.16" r="1.33"/><circle class="cls-15" cx="247.18" cy="384.16" r="1.33"/><rect class="cls-22" x="183.66" y="401.91" width="105.1" height="43.73"/><rect class="cls-20" x="190.68" y="406.13" width="4.6" height="35.29"/><rect class="cls-3" x="198.16" y="406.13" width="4.6" height="35.29"/><path class="cls-4" d="m233.31,413.22h-26.58v-6.79h26.58v6.79Zm-25.89-.68h25.21v-5.43h-25.21v5.43Z"/><path class="cls-4" d="m233.31,422.52h-26.58v-6.79h26.58v6.79Zm-25.89-.68h25.21v-5.43h-25.21v5.43Z"/><path class="cls-4" d="m233.31,431.82h-26.58v-6.79h26.58v6.79Zm-25.89-.68h25.21v-5.43h-25.21v5.43Z"/><path class="cls-4" d="m233.31,441.11h-26.58v-6.79h26.58v6.79Zm-25.89-.68h25.21v-5.43h-25.21v5.43Z"/><rect class="cls-13" x="252.4" y="406.77" width="29.34" height="33.99"/><rect class="cls-4" x="254.92" y="410.59" width="24.31" height="5.48" rx="2.74" ry="2.74"/><path class="cls-13" d="m276.52,413.88h-18.89c-.3,0-.55-.25-.55-.55s.25-.55.55-.55h18.89c.3,0,.55.25.55.55s-.25.55-.55.55Z"/><rect class="cls-4" x="254.92" y="421.03" width="24.31" height="5.48" rx="2.74" ry="2.74"/><path class="cls-13" d="m276.52,424.32h-18.89c-.3,0-.55-.25-.55-.55s.25-.55.55-.55h18.89c.3,0,.55.25.55.55s-.25.55-.55.55Z"/><rect class="cls-4" x="254.92" y="431.47" width="24.31" height="5.48" rx="2.74" ry="2.74"/><path class="cls-13" d="m276.52,434.77h-18.89c-.3,0-.55-.25-.55-.55s.25-.55.55-.55h18.89c.3,0,.55.25.55.55s-.25.55-.55.55Z"/><circle class="cls-32" cx="238.55" cy="420.92" r="1.33"/><circle class="cls-2" cx="242.86" cy="420.92" r="1.33"/><circle class="cls-15" cx="247.18" cy="420.92" r="1.33"/><circle class="cls-15" cx="238.55" cy="424.95" r="1.33"/><circle class="cls-32" cx="242.86" cy="424.95" r="1.33"/><circle class="cls-2" cx="247.18" cy="424.95" r="1.33"/><circle class="cls-32" cx="238.55" cy="407.65" r="1.33"/><circle class="cls-2" cx="242.86" cy="407.65" r="1.33"/><circle class="cls-15" cx="247.18" cy="407.65" r="1.33"/><circle class="cls-15" cx="238.55" cy="411.68" r="1.33"/><circle class="cls-15" cx="242.86" cy="411.68" r="1.33"/><circle class="cls-32" cx="247.18" cy="411.68" r="1.33"/><circle class="cls-15" cx="238.55" cy="434.19" r="1.33"/><circle class="cls-32" cx="242.86" cy="434.19" r="1.33"/><circle class="cls-15" cx="247.18" cy="434.19" r="1.33"/><circle class="cls-32" cx="238.55" cy="438.22" r="1.33"/><circle class="cls-2" cx="242.86" cy="438.22" r="1.33"/><circle class="cls-15" cx="247.18" cy="438.22" r="1.33"/><path class="cls-4" d="m74.66,458.08c-1.02.3-2.1.31-3.16.32-5.67.03-11.34.05-17.01.08-.46,0-.97-.02-1.29-.35-.65-.69.19-1.76,1.01-2.25,4.08-2.41,9.2-2.67,13.11-5.34,1.66-1.13,3.06-2.68,4.9-3.45,2.48-1.04,5.46-.25,7.37,1.56.76.72,1.94,1.93,1.21,2.93-.41.55-.85.86-1.19,1.52s-.7,1.34-1.13,1.96c-.94,1.37-2.2,2.55-3.82,3.03Z"/><path class="cls-9" d="m104.41,279.16c-7.79,15.61-15.58,31.23-23.07,46.98-3.78,7.95-7.52,16.05-9.1,24.71-1.02,5.6-1.12,11.33-1.21,17.02-.42,26.63-.85,53.27-1.27,79.9,2.95-.59,6.38-.54,9.38-.35,5.7-16.72,10.6-34.77,13.05-52.27,1.65-11.8,2.43-24.38-2.78-35.09,2.37-1.14,3.21-4.62,1.61-6.72,7.9-9.62,15.73-19.97,21.36-31.08s8.83-23.85,6.56-36.09c-.74-4.01-2.98-8.67-7.06-8.82-2.39-.09-6.4-.35-7.47,1.79Z"/><path class="cls-9" d="m141.79,269.74c5.59,20.87-1.13,42.84-7.79,63.4-13.59,41.94-27.41,84.39-51.05,121.59-3.59-2.06-8.83-4.43-12.42-6.49,19.43-53.68,39.74-110.61,38.7-167.69,8.4-7.47,21.33-10.36,32.57-10.81Z"/><path class="cls-41" d="m105.3,272.86l-28.51-3.05s-11.21,5.83-15.98-3.63l43.17-2.09,1.32,8.78Z"/><path class="cls-4" d="m121.94,153.51c12.3-5.2,28.63,6.27,27.19,19.78-.68,6.63-5.93,14.38-1.21,20.52,2.56,3.13,7.13,3.67,10.4,6.06,10.64,8.55.63,24.59-11.89,22.04-16.96-4.05-16.79-19.32-14.7-33.38-3.1-11.27-26.48-24.03-9.78-35.02Z"/><path class="cls-15" d="m121.13,160.55c9.44,2.75,13.5,15.18,6.99,22.75-4.27-6.31-8.53-12.63-12.8-18.94-3.14-3.48,3.29-5.08,5.8-3.81Z"/><path class="cls-4" d="m99.35,182.48c-7.99-.08-13.94-11.23-6.06-15.8,8.51-.91,20.6-10.02,27.27-1.26,10.07,0,10.19,12.28,7.21,19.37-.91,3.07-2.23,6.59-5.29,7.52-6.85,1.42-12.6-9.7-23.13-9.84Z"/><path class="cls-41" d="m98.27,184.67c4.96,17.45,24.59,14.32,22.5-4.44-2.38-17.9-26.61-13.58-22.5,4.44Z"/><path class="cls-41" d="m119.96,182.62c-2.18,7.72,4.67,5.73,6.27.89.35-2.44-.77-4.62-2.5-4.86s-3.42,1.53-3.76,3.97Z"/><path class="cls-27" d="m120.56,182.87c-1.39,4.53,2.88,3.59,3.83.55.53-3.5-3.37-4.06-3.83-.55Z"/><path class="cls-41" d="m120.25,187.51l2.67,13.42c-10.91,9.4-8.32-.71-9.52-8.91l6.85-4.51Z"/><path class="cls-27" d="m113.73,195.87s5.46-2.75,6.24-7.74c0,0,1.15,5.71-5.9,11.62l-.34-3.88Z"/><path class="cls-36" d="m119.63,200.16c-8.82,1.38-14.33,10.05-18.44,17.97-2.4,4.63-4.76,9.41-5.46,14.58-.66,4.87.19,9.8,1.03,14.63,1.99,11.36.64,25.27,2.62,36.63,13.98,1.33,33.37-.28,45.29-7.71,1.96-14.81,2.68-34.88.28-49.62-1.05-6.48-2.97-12.99-6.94-18.22-3.97-5.23-11.9-9.27-18.39-8.25Z"/><path class="cls-41" d="m106.07,257.92c12.52-2.14,25.03-4.39,37.51-6.74,2.6-.49,5.68-1.4,6.4-3.94.61-2.15-.83-4.29-2.2-6.06-7.02-9.11-14.04-18.22-21.06-27.33,3.69-2.87,9.3-5.61,13.93-6.32,8.71,10.29,15.9,22.52,19.83,35.42,1.17,3.82,2.35,8.58-.33,11.54-8.91,9.86-46.76,9.51-54.45,7.4.31-2.14,1.15-1.94.36-3.95Z"/><path class="cls-5" d="m130.25,202.19s14.11,3.91,22.19,15.91c0,0-3.84,6.84-17.35,11.48l-7.71-7.4s-10.72-10.04,2.86-19.99Z"/><path class="cls-16" d="m126.29,211.86s2.93,11.49,7.46,17.72c0,0,1.88-.05,4.27-1.1l8.23,10.68.23,9.56s-20.11-16.18-20.18-36.86Z"/><polygon class="cls-44" points="57.76 266.18 111.48 266.18 102.33 223.06 48.61 223.06 57.76 266.18"/><polygon class="cls-4" points="55.13 266.18 108.84 266.18 99.7 223.06 45.98 223.06 55.13 266.18"/><path class="cls-4" d="m55.13,266.18h72.23c.28-2.45-1.48-4.76-4.03-4.74,0,0-68.2,0-68.2,0v4.74Z"/><path class="cls-44" d="m73.77,244.99c.53,2.82,3.53,2.23,2.94-.58-.53-2.82-3.53-2.23-2.94.58Z"/><path class="cls-13" d="m322.81,221.26h99.4c3.73,0,6.75,3.03,6.75,6.75v131.61h-112.91v-131.61c0-3.73,3.03-6.75,6.75-6.75Z"/><path class="cls-23" d="m322.81,221.26h99.4c3.73,0,6.75,3.03,6.75,6.75v9.01h-112.91v-9.01c0-3.73,3.03-6.75,6.75-6.75Z"/><circle class="cls-22" cx="329.44" cy="229.68" r="2.83"/><circle class="cls-2" cx="337.73" cy="229.68" r="2.83"/><circle class="cls-15" cx="346.02" cy="229.68" r="2.83"/><rect class="cls-22" x="325.76" y="246.17" width="93.52" height="56.96"/><path class="cls-7" d="m325.76,303.13s32.54-32.45,52.53-19.43c19.98,13.02,15.5-24.79,40.99-19.25v38.68h-93.52Z"/><circle class="cls-15" cx="345.88" cy="265.52" r="9.01"/><path class="cls-22" d="m394.43,311.08h-43.83c-.58,0-1.04-.47-1.04-1.04s.47-1.04,1.04-1.04h43.83c.58,0,1.04.47,1.04,1.04s-.47,1.04-1.04,1.04Z"/><path class="cls-22" d="m419.27,320.15h-93.52c-.58,0-1.04-.47-1.04-1.04s.47-1.04,1.04-1.04h93.52c.58,0,1.04.47,1.04,1.04s-.47,1.04-1.04,1.04Z"/><path class="cls-22" d="m419.27,327.32h-93.52c-.58,0-1.04-.47-1.04-1.04s.47-1.04,1.04-1.04h93.52c.58,0,1.04.47,1.04,1.04s-.47,1.04-1.04,1.04Z"/><path class="cls-22" d="m419.27,334.5h-93.52c-.58,0-1.04-.47-1.04-1.04s.47-1.04,1.04-1.04h93.52c.58,0,1.04.47,1.04,1.04s-.47,1.04-1.04,1.04Z"/><path class="cls-22" d="m419.27,341.67h-93.52c-.58,0-1.04-.47-1.04-1.04s.47-1.04,1.04-1.04h93.52c.58,0,1.04.47,1.04,1.04s-.47,1.04-1.04,1.04Z"/><path class="cls-22" d="m419.27,348.85h-93.52c-.58,0-1.04-.47-1.04-1.04s.47-1.04,1.04-1.04h93.52c.58,0,1.04.47,1.04,1.04s-.47,1.04-1.04,1.04Z"/><path class="cls-21" d="m137.51,104.71h-6.2c-.46-1.79-1.13-3.5-1.97-5.09l4.29-4.29c1.19-1.19,1.19-3.12,0-4.31l-4.71-4.71c-1.19-1.19-3.12-1.19-4.31,0l-4.09,4.09c-1.65-.97-3.42-1.74-5.29-2.28v-5.7c0-1.68-1.36-3.05-3.05-3.05h-6.66c-1.68,0-3.05,1.36-3.05,3.05v5.65c-1.89.53-3.69,1.3-5.35,2.26l-4.03-4.03c-1.19-1.19-3.12-1.19-4.31,0l-4.71,4.71c-1.19,1.19-1.19,3.12,0,4.31l4.18,4.18c-.87,1.63-1.56,3.37-2.03,5.2h-6.03c-1.68,0-3.05,1.36-3.05,3.05v6.66c0,1.68,1.36,3.05,3.05,3.05h6.38c.53,1.68,1.25,3.27,2.12,4.76l-4.62,4.62c-1.19,1.19-1.19,3.12,0,4.31l4.71,4.71c1.19,1.19,3.12,1.19,4.31,0l4.81-4.81c1.44.76,2.97,1.38,4.57,1.83v6.87c0,1.68,1.36,3.05,3.05,3.05h6.66c1.68,0,3.05-1.36,3.05-3.05v-6.92c1.58-.46,3.09-1.07,4.51-1.84l4.87,4.87c1.19,1.19,3.12,1.19,4.31,0l4.71-4.71c1.19-1.19,1.19-3.12,0-4.31l-4.72-4.72c.85-1.46,1.55-3.02,2.06-4.66h6.55c1.68,0,3.05-1.36,3.05-3.05v-6.66c0-1.68-1.36-3.05-3.05-3.05Zm-28.67,21.09c-8.12,0-14.71-6.58-14.71-14.71s6.58-14.71,14.71-14.71,14.71,6.58,14.71,14.71-6.58,14.71-14.71,14.71Z"/><path class="cls-22" d="m365.64,110.07h-4.7c-.35-1.36-.86-2.65-1.5-3.87l3.25-3.25c.9-.9.9-2.37,0-3.27l-3.58-3.58c-.9-.9-2.37-.9-3.27,0l-3.1,3.1c-1.25-.73-2.6-1.32-4.02-1.73v-4.33c0-1.28-1.04-2.31-2.31-2.31h-5.06c-1.28,0-2.31,1.04-2.31,2.31v4.29c-1.44.4-2.8.98-4.06,1.72l-3.06-3.06c-.9-.9-2.37-.9-3.27,0l-3.58,3.58c-.9.9-.9,2.37,0,3.27l3.17,3.17c-.66,1.24-1.19,2.56-1.54,3.95h-4.58c-1.28,0-2.31,1.04-2.31,2.31v5.06c0,1.28,1.04,2.31,2.31,2.31h4.84c.4,1.27.95,2.48,1.61,3.62l-3.5,3.5c-.9.9-.9,2.37,0,3.27l3.58,3.58c.9.9,2.37.9,3.27,0l3.65-3.65c1.09.58,2.25,1.05,3.47,1.39v5.21c0,1.28,1.04,2.31,2.31,2.31h5.06c1.28,0,2.31-1.04,2.31-2.31v-5.25c1.2-.35,2.35-.81,3.42-1.39l3.7,3.7c.9.9,2.37.9,3.27,0l3.58-3.58c.9-.9.9-2.37,0-3.27l-3.58-3.58c.64-1.11,1.17-2.29,1.57-3.54h4.97c1.28,0,2.31-1.04,2.31-2.31v-5.06c0-1.28-1.04-2.31-2.31-2.31Zm-21.76,16.01c-6.17,0-11.16-5-11.16-11.16s5-11.16,11.16-11.16,11.16,5,11.16,11.16-5,11.16-11.16,11.16Z"/><path class="cls-18" d="m396.82,181.39h-4.3c-.32-1.24-.78-2.43-1.37-3.54l2.98-2.98c.83-.83.83-2.17,0-2.99l-3.27-3.27c-.83-.83-2.17-.83-2.99,0l-2.84,2.84c-1.14-.67-2.37-1.21-3.67-1.58v-3.96c0-1.17-.95-2.12-2.12-2.12h-4.63c-1.17,0-2.12.95-2.12,2.12v3.92c-1.31.37-2.56.9-3.71,1.57l-2.8-2.8c-.83-.83-2.17-.83-2.99,0l-3.27,3.27c-.83.83-.83,2.17,0,2.99l2.9,2.9c-.61,1.13-1.08,2.34-1.41,3.61h-4.19c-1.17,0-2.12.95-2.12,2.12v4.63c0,1.17.95,2.12,2.12,2.12h4.43c.37,1.17.87,2.27,1.47,3.31l-3.21,3.21c-.83.83-.83,2.17,0,2.99l3.27,3.27c.83.83,2.17.83,2.99,0l3.34-3.34c1,.53,2.06.96,3.17,1.27v4.77c0,1.17.95,2.12,2.12,2.12h4.63c1.17,0,2.12-.95,2.12-2.12v-4.8c1.1-.32,2.14-.74,3.13-1.27l3.38,3.38c.83.83,2.17.83,2.99,0l3.27-3.27c.83-.83.83-2.17,0-2.99l-3.28-3.28c.59-1.01,1.07-2.1,1.43-3.23h4.54c1.17,0,2.12-.95,2.12-2.12v-4.63c0-1.17-.95-2.12-2.12-2.12Zm-19.9,14.64c-5.64,0-10.21-4.57-10.21-10.21s4.57-10.21,10.21-10.21,10.21,4.57,10.21,10.21-4.57,10.21-10.21,10.21Z"/><path class="cls-34" d="m80.39,296.2h-3.53c-.26-1.02-.64-1.99-1.13-2.9l2.44-2.44c.68-.68.68-1.78,0-2.46l-2.69-2.69c-.68-.68-1.78-.68-2.46,0l-2.33,2.33c-.94-.55-1.95-.99-3.01-1.3v-3.25c0-.96-.78-1.74-1.74-1.74h-3.8c-.96,0-1.74.78-1.74,1.74v3.22c-1.08.3-2.1.74-3.05,1.29l-2.3-2.3c-.68-.68-1.78-.68-2.46,0l-2.69,2.69c-.68.68-.68,1.78,0,2.46l2.38,2.38c-.5.93-.89,1.92-1.16,2.97h-3.44c-.96,0-1.74.78-1.74,1.74v3.8c0,.96.78,1.74,1.74,1.74h3.63c.3.96.71,1.86,1.21,2.71l-2.63,2.63c-.68.68-.68,1.78,0,2.46l2.69,2.69c.68.68,1.78.68,2.46,0l2.74-2.74c.82.43,1.69.78,2.6,1.04v3.91c0,.96.78,1.74,1.74,1.74h3.8c.96,0,1.74-.78,1.74-1.74v-3.94c.9-.26,1.76-.61,2.57-1.05l2.77,2.77c.68.68,1.78.68,2.46,0l2.69-2.69c.68-.68.68-1.78,0-2.46l-2.69-2.69c.48-.83.88-1.72,1.18-2.65h3.73c.96,0,1.74-.78,1.74-1.74v-3.8c0-.96-.78-1.74-1.74-1.74Zm-16.34,12.02c-4.63,0-8.38-3.75-8.38-8.38s3.75-8.38,8.38-8.38,8.38,3.75,8.38,8.38-3.75,8.38-8.38,8.38Z"/><path class="cls-4" d="m435.97,460.07H29.97c-.61,0-1.11-.5-1.11-1.11s.5-1.11,1.11-1.11h406c.62,0,1.11.5,1.11,1.11s-.5,1.11-1.11,1.11Z"/><path class="cls-19" d="m159.16,435.48c-.98,0-1.96-.37-2.7-1.12l-21.26-21.26c-1.49-1.49-1.49-3.92,0-5.41,1.49-1.49,3.92-1.49,5.41,0l21.26,21.26c1.49,1.49,1.49,3.92,0,5.41-.75.75-1.73,1.12-2.7,1.12Z"/><path class="cls-35" d="m137.9,435.48c-.98,0-1.96-.37-2.7-1.12-1.49-1.49-1.49-3.92,0-5.41l21.26-21.26c1.49-1.49,3.92-1.49,5.41,0,1.49,1.49,1.49,3.92,0,5.41l-21.26,21.26c-.75.75-1.73,1.12-2.7,1.12Z"/><path class="cls-31" d="m417.51,118.2c-.98,0-1.96-.37-2.71-1.12l-21.26-21.26c-1.49-1.49-1.49-3.92,0-5.41,1.5-1.49,3.92-1.49,5.41,0l21.26,21.26c1.49,1.49,1.49,3.92,0,5.41-.75.75-1.73,1.12-2.71,1.12Z"/><path class="cls-39" d="m396.26,118.2c-.98,0-1.96-.37-2.71-1.12-1.49-1.49-1.49-3.92,0-5.41l21.26-21.26c1.49-1.49,3.92-1.49,5.41,0,1.49,1.49,1.49,3.92,0,5.41l-21.26,21.26c-.75.75-1.73,1.12-2.71,1.12Z"/><path class="cls-38" d="m170.63,117.02c-.68,0-1.35-.26-1.87-.77l-14.67-14.68c-1.03-1.03-1.03-2.7,0-3.73s2.7-1.03,3.73,0l14.67,14.68c1.03,1.03,1.03,2.7,0,3.73-.52.52-1.19.77-1.87.77Z"/><path class="cls-37" d="m155.96,117.02c-.68,0-1.35-.26-1.87-.77-1.03-1.03-1.03-2.7,0-3.73l14.67-14.68c1.03-1.03,2.7-1.03,3.73,0s1.03,2.7,0,3.73l-14.67,14.68c-.52.52-1.19.77-1.87.77Z"/></svg>