<?xml version="1.0" encoding="UTF-8"?><svg id="Layer_1" xmlns="http://www.w3.org/2000/svg" xmlns:xlink="http://www.w3.org/1999/xlink" viewBox="0 0 501 501"><defs><style>.cls-1{fill:url(#linear-gradient);}.cls-1,.cls-2,.cls-3,.cls-4,.cls-5,.cls-6,.cls-7,.cls-8,.cls-9,.cls-10,.cls-11,.cls-12,.cls-13,.cls-14,.cls-15,.cls-16,.cls-17,.cls-18,.cls-19,.cls-20,.cls-21,.cls-22,.cls-23{stroke-width:0px;}.cls-2{fill:#556977;}.cls-3{fill:#fca695;}.cls-4{fill:#f9d5bf;}.cls-5{fill:url(#linear-gradient-6);}.cls-6{fill:#dae6ef;}.cls-7{fill:#5a2402;}.cls-8{fill:#375a64;}.cls-9{fill:#bcccdd;}.cls-24{stroke:#4264a0;}.cls-24,.cls-25,.cls-26,.cls-27,.cls-28,.cls-29{fill:none;stroke-miterlimit:10;}.cls-24,.cls-25,.cls-28{stroke-linecap:round;}.cls-10{fill:url(#linear-gradient-5);}.cls-11{fill:#7ab63f;}.cls-12{fill:#fff;}.cls-13{fill:url(#linear-gradient-2);}.cls-14{fill:#f0f4f7;}.cls-15{fill:#cdd9e8;}.cls-16{fill:url(#linear-gradient-3);}.cls-25{stroke:#db7665;}.cls-17{fill:#425666;}.cls-26{stroke:#dae6ef;}.cls-18{fill:#351a16;}.cls-27{stroke:#b8d8bd;}.cls-28{stroke:#708699;}.cls-19{fill:#9fb7ce;}.cls-29{stroke:#351a16;}.cls-20{fill:url(#linear-gradient-4);}.cls-21{fill:#243b98;}.cls-22{fill:#210e0c;}.cls-23{fill:#e2eaf2;}</style><linearGradient id="linear-gradient" x1="130.99" y1="185.34" x2="156.48" y2="185.34" gradientUnits="userSpaceOnUse"><stop offset="0" stop-color="#5371d3"/><stop offset="1" stop-color="#243b98"/></linearGradient><linearGradient id="linear-gradient-2" x1="77.12" y1="208.17" x2="142.93" y2="208.17" xlink:href="#linear-gradient"/><linearGradient id="linear-gradient-3" x1="364.96" y1="165.33" x2="396.32" y2="165.33" gradientUnits="userSpaceOnUse"><stop offset="0" stop-color="#8bc643"/><stop offset="1" stop-color="#3c7b31"/></linearGradient><linearGradient id="linear-gradient-4" x1="369.33" y1="164.77" x2="391.96" y2="164.77" xlink:href="#linear-gradient-3"/><linearGradient id="linear-gradient-5" x1="380.64" y1="164.73" x2="391.95" y2="164.73" xlink:href="#linear-gradient-3"/><linearGradient id="linear-gradient-6" x1="100.26" y1="66.32" x2="127.68" y2="66.32" xlink:href="#linear-gradient-3"/></defs><circle class="cls-14" cx="191.48" cy="210.27" r="143.36"/><rect class="cls-15" x="213.17" y="381.78" width="151.79" height="29.78"/><rect class="cls-23" x="235.33" y="366.89" width="107.47" height="14.89"/><rect class="cls-23" x="19.41" y="411.56" width="462.19" height="77.7"/><rect class="cls-6" x="161.32" y="48.15" width="8.76" height="383.27"/><rect class="cls-6" x="285.24" y="48.15" width="8.76" height="383.27"/><rect class="cls-19" x="170.08" y="48.15" width="115.16" height="31.8"/><rect class="cls-6" x="174.82" y="52.58" width="106.79" height="22.95"/><rect class="cls-12" x="180.08" y="56.2" width="44.55" height="5.58"/><rect class="cls-12" x="180.08" y="66.32" width="44.55" height="5.58"/><rect class="cls-19" x="227.66" y="56.2" width="3.62" height="15.71"/><rect class="cls-19" x="233.52" y="56.2" width="3.62" height="15.71"/><rect class="cls-19" x="239.38" y="56.2" width="3.62" height="15.71"/><rect class="cls-19" x="245.24" y="56.2" width="3.62" height="15.71"/><rect class="cls-19" x="251.1" y="56.2" width="3.62" height="15.71"/><rect class="cls-19" x="256.96" y="56.2" width="3.62" height="15.71"/><path class="cls-12" d="m274.56,64.05c0,2.53-2.05,4.58-4.58,4.58s-4.58-2.05-4.58-4.58,2.05-4.58,4.58-4.58,4.58,2.05,4.58,4.58Z"/><rect class="cls-19" x="170.08" y="84.91" width="115.16" height="31.8"/><rect class="cls-6" x="174.82" y="89.34" width="106.79" height="22.95"/><rect class="cls-12" x="180.08" y="92.96" width="44.55" height="5.58"/><rect class="cls-12" x="180.08" y="103.09" width="44.55" height="5.58"/><rect class="cls-19" x="227.66" y="92.96" width="3.62" height="15.71"/><rect class="cls-19" x="233.52" y="92.96" width="3.62" height="15.71"/><rect class="cls-19" x="239.38" y="92.96" width="3.62" height="15.71"/><rect class="cls-19" x="245.24" y="92.96" width="3.62" height="15.71"/><rect class="cls-19" x="251.1" y="92.96" width="3.62" height="15.71"/><rect class="cls-19" x="256.96" y="92.96" width="3.62" height="15.71"/><path class="cls-12" d="m274.56,100.81c0,2.53-2.05,4.58-4.58,4.58s-4.58-2.05-4.58-4.58,2.05-4.58,4.58-4.58,4.58,2.05,4.58,4.58Z"/><rect class="cls-19" x="170.08" y="121.67" width="115.16" height="31.8"/><rect class="cls-6" x="174.82" y="126.1" width="106.79" height="22.95"/><rect class="cls-12" x="180.08" y="129.72" width="44.55" height="5.58"/><rect class="cls-12" x="180.08" y="139.85" width="44.55" height="5.58"/><rect class="cls-19" x="227.66" y="129.72" width="3.62" height="15.71"/><rect class="cls-19" x="233.52" y="129.72" width="3.62" height="15.71"/><rect class="cls-19" x="239.38" y="129.72" width="3.62" height="15.71"/><rect class="cls-19" x="245.24" y="129.72" width="3.62" height="15.71"/><rect class="cls-19" x="251.1" y="129.72" width="3.62" height="15.71"/><rect class="cls-19" x="256.96" y="129.72" width="3.62" height="15.71"/><path class="cls-12" d="m274.56,137.57c0,2.53-2.05,4.58-4.58,4.58s-4.58-2.05-4.58-4.58,2.05-4.58,4.58-4.58,4.58,2.05,4.58,4.58Z"/><rect class="cls-19" x="170.08" y="249.01" width="115.16" height="31.8"/><rect class="cls-6" x="174.82" y="253.44" width="106.79" height="22.95"/><rect class="cls-12" x="180.08" y="257.06" width="44.55" height="5.58"/><rect class="cls-12" x="180.08" y="267.19" width="44.55" height="5.58"/><rect class="cls-19" x="227.66" y="257.06" width="3.62" height="15.71"/><rect class="cls-19" x="233.52" y="257.06" width="3.62" height="15.71"/><rect class="cls-19" x="239.38" y="257.06" width="3.62" height="15.71"/><rect class="cls-19" x="245.24" y="257.06" width="3.62" height="15.71"/><rect class="cls-19" x="251.1" y="257.06" width="3.62" height="15.71"/><rect class="cls-19" x="256.96" y="257.06" width="3.62" height="15.71"/><path class="cls-12" d="m274.56,264.91c0,2.53-2.05,4.58-4.58,4.58s-4.58-2.05-4.58-4.58,2.05-4.58,4.58-4.58,4.58,2.05,4.58,4.58Z"/><rect class="cls-19" x="170.08" y="285.67" width="115.16" height="31.8"/><rect class="cls-6" x="174.82" y="290.1" width="106.79" height="22.95"/><rect class="cls-12" x="180.08" y="293.72" width="44.55" height="5.58"/><rect class="cls-12" x="180.08" y="303.84" width="44.55" height="5.58"/><rect class="cls-19" x="227.66" y="293.72" width="3.62" height="15.71"/><rect class="cls-19" x="233.52" y="293.72" width="3.62" height="15.71"/><rect class="cls-19" x="239.38" y="293.72" width="3.62" height="15.71"/><rect class="cls-19" x="245.24" y="293.72" width="3.62" height="15.71"/><rect class="cls-19" x="251.1" y="293.72" width="3.62" height="15.71"/><rect class="cls-19" x="256.96" y="293.72" width="3.62" height="15.71"/><path class="cls-12" d="m274.56,301.57c0,2.53-2.05,4.58-4.58,4.58s-4.58-2.05-4.58-4.58,2.05-4.58,4.58-4.58,4.58,2.05,4.58,4.58Z"/><rect class="cls-6" x="170.08" y="233.71" width="115.16" height="6.82"/><rect class="cls-19" x="173.63" y="157.08" width="107.98" height="68.28"/><rect class="cls-19" x="216.06" y="209.61" width="23.11" height="24.1"/><rect class="cls-17" x="176.59" y="160.48" width="101.34" height="61.18"/><polygon class="cls-2" points="244.61 160.48 176.59 218.09 176.59 196.71 213.89 160.48 244.61 160.48"/><path class="cls-2" d="m277.93,160.48v16.94c-20.44,13.74-47.08,31.62-66.01,44.24h-15.41c19.5-16.12,53.88-44.59,73.63-61.18h7.79Z"/><rect class="cls-28" x="285.24" y="48.15" width="8.76" height="383.27"/><rect class="cls-28" x="161.32" y="48.15" width="8.76" height="383.27"/><path class="cls-4" d="m153.93,204.17s6.8,15.58,8.5,17.84,37.1,26.34,37.1,26.34l-5.63,11.52s-44.22-15.77-48.18-21.44c-3.97-5.66-13.03-31.44-13.03-31.44l21.24-2.83Z"/><path class="cls-1" d="m130.99,157.44s4.53,1.13,10.76,9.06c6.23,7.93,14.73,34.27,14.73,34.27l-21.81,12.46-3.68-55.8Z"/><path class="cls-18" d="m183.48,431.35c-5.25,6.18-12,7.12-20.82,8.06-8.82.94-18-2.06-18-2.06l-.39-2.9-1.23-9.14-1-7.47,16.69-2.43s-.28-.05,1.6,5.2c7.61-1.08,18.48,1.39,22.3,8.62.35.65.64,1.36.85,2.12Z"/><path class="cls-12" d="m160.33,420.61s-4.26,6.66-17.29,4.71l-1-7.47,16.69-2.43s-.28-.05,1.6,5.2Z"/><path class="cls-22" d="m183.48,431.35c-5.25,6.18-12,7.12-20.82,8.06-8.82.94-18-2.06-18-2.06l-.39-2.9c7.14,2.04,23.79,4.96,38.36-5.23.35.65.64,1.36.85,2.12Z"/><path class="cls-22" d="m163.31,418.85s-2.99,4.89-2.45,6.66c.54,1.77,6.52,1.77,7.2.41.68-1.36,2.31-5.03,1.49-6.38s-6.25-.68-6.25-.68Z"/><path class="cls-18" d="m79.53,443.63c-7.94,1.68-13.85-1.7-21.4-6.35-7.55-4.65-12.98-12.64-12.98-12.64l1.46-2.53,4.61-7.98,3.78-6.52,14.69,8.28s-.19-.21-1.91,5.09c6.68,3.8,13.77,12.4,12.37,20.46-.12.73-.33,1.46-.62,2.2Z"/><path class="cls-12" d="m67.78,420.97s-7.44,2.66-16.56-6.85l3.78-6.52,14.69,8.28s-.19-.21-1.91,5.09Z"/><path class="cls-22" d="m79.53,443.63c-7.94,1.68-13.85-1.7-21.4-6.35-7.55-4.65-12.98-12.64-12.98-12.64l1.46-2.53c4.4,5.98,15.79,18.47,33.54,19.32-.12.73-.33,1.46-.62,2.2Z"/><path class="cls-22" d="m71.22,421.41s-5.36,2.04-6.01,3.77c-.65,1.73,4.08,5.39,5.45,4.73,1.37-.66,4.9-2.56,5.09-4.14.19-1.57-4.53-4.36-4.53-4.36Z"/><path class="cls-8" d="m82.52,255.33s-2.79,22.78-2.32,31.15c.46,8.37-7.44,56.72-7.9,63.69-.46,6.97-19.53,59.51-19.53,59.51,0,0,6.51,12.09,22.32,9.76,13.95-29.29,23.71-59.97,26.04-66.95,2.32-6.97,13.48-45.1,13.48-45.1,0,0,11.62,43.24,12.55,50.68.93,7.44,13.02,62.3,13.02,62.3,0,0,10.23,5.11,20.46-4.18-4.65-60.9-19.53-160.4-19.53-160.4l-58.58-.46Z"/><path class="cls-13" d="m142.09,260.18c-20.17,11.84-60.39.3-60.39.3,0,0-.26-39.79.39-69.16-6.72-12.93-7.4-28.76,2.78-33.98.72-.37,5.63-2.6,9.78-3.86,6.47-1.97,15.11-2.66,15.11-2.66,14.49.77,29.07,6.71,31.53,21.52,2.77,16.62,1.3,37.03.8,87.84Z"/><path class="cls-24" d="m140.9,170.47c1.99,23.25,1.05,79.59,1.05,79.59"/><path class="cls-7" d="m139.81,110.81s2.44,7.18,0,15.12c-5.5-7.18-7.48-17.1-7.48-17.1l7.48,1.98Z"/><path class="cls-4" d="m104.97,158.5c4.93,4.82,17.76,7.84,19.86,6.1,1.02-.85,1.17-4.25,1.06-7.52-.12-3.45-.54-6.76-.54-6.76,0,0-9.3-2.33-15.28-5.95-1.16-.7-5.76-6.32-6.58-7.11-1.92,13.93-2.44,17.42,1.48,21.25Z"/><path class="cls-3" d="m107.93,143.87s1.22,5.41,6.27,9.58c3.27,2.71,8.45,3.45,11.69,3.63-.12-3.45-.54-6.76-.54-6.76,0,0-9.3-2.33-15.28-5.95l-2.14-.5Z"/><path class="cls-4" d="m140.14,119.45c.5,5.27,1.28,25.67-4.16,30.52-8.01,7.14-27.47,1.4-32.74-11.67-4.47-11.08-3.99-29.98,8.27-33.51,14.9-4.3,27.24.07,28.64,14.66Z"/><path class="cls-25" d="m125.92,153.06c-7.46,1.12-18.56-6.48-21.89-13.07"/><path class="cls-25" d="m128.49,125.8s1.9,8.36,1.83,10.58c-.08,2.22-4.31,1.31-5.23.13"/><ellipse class="cls-7" cx="133.06" cy="126.71" rx="1.57" ry="2.09"/><path class="cls-7" d="m137.06,112.03s-6.57,2.75-14.2,2.14c-7.63-.61-13.44-1.98-13.44-1.98,0,0,6.11,10.23,2.6,11.91-3.51,1.68-.31,10.08-.31,10.08l-9.62-.46s-3.82-10.23-2.29-20c1.53-9.77,12.25-14.89,22.14-13.74,10.53,1.22,15.57,7.18,17.86,10.84-1.22.92-2.75,1.22-2.75,1.22Z"/><path class="cls-7" d="m117.51,127.24c0,1.15.7,2.09,1.57,2.09s1.57-.94,1.57-2.09-.7-2.09-1.57-2.09-1.57.94-1.57,2.09Z"/><path class="cls-4" d="m106.28,129.59s-2.22-4.18-5.62-2.74c-2.97,1.26-2.48,4.31-1.57,6.66.91,2.35,3.66,4.7,5.62,4.57,1.96-.13,3.92-2.61,1.57-8.49Z"/><path class="cls-3" d="m105.63,134.42s-3.27,1.44-4.05-3.14c-.52-2.48,1.57-2.48,1.57-2.48,0,0,2.61,1.96,2.48,5.62Z"/><path class="cls-7" d="m131.1,117.05c2.42-.54,4.53.26,4.88,1.31.35,1.04-.7,2-2,1.57s-2.61.78-3.66.35c-1.04-.44-1.57-2.7.78-3.22Z"/><path class="cls-7" d="m120.09,117.74c-2.42-.54-4.53.26-4.88,1.31-.35,1.04.7,2,2,1.57,1.31-.44,2.61.78,3.66.35,1.05-.44,1.57-2.7-.78-3.22Z"/><path class="cls-25" d="m105.1,135.34c1.26-1.18.27-5.32-1.96-6.53-2-1.09-2.87,1.7-2.87,1.7"/><path class="cls-25" d="m104.97,130.85s-2.26-.26-2.53,1.83"/><path class="cls-12" d="m127.43,139.8s-2.83.12-4.83-1.3c-2-1.41-2.06-.18-1.71.88.35,1.06,2.06,2.41,4,2.71,1.94.29,3.47-1.59,2.53-2.3Z"/><path class="cls-4" d="m125.29,197.58l12.62,10.97s37.85-18.15,40.16-19.31c2.32-1.16,8.11,9.66,8.11,9.66,0,0-36.69,33.21-51.36,30.51-14.68-2.7-24.3-14.31-24.3-14.31l9.14-8.68,5.64-8.83Z"/><path class="cls-25" d="m119.36,222.81c9.88,6.15,15.97,8.56,25.95,5.18,7.59-2.57,40.88-29.11,40.88-29.11,0,0,6.5-1.97,12.12-9.27"/><path class="cls-24" d="m101.44,161.83l26.11,32.01s-8.42,17.13-20.5,23.86c-13.2-11.51-23.86-25.27-23.86-25.27"/><path class="cls-4" d="m178.07,189.23s6.47-9.44,8.16-11.97c1.68-2.53,12.91-10.11,15.72-11.23s3.09.28,1.97,1.97c-1.12,1.68-7.02,7.02-7.02,7.02,0,0,5.62,4.21,7.02,7.3s1.4,5.62-.84,7.3c-2.25,1.68-4.77,0-4.77,0,0,0-5.71,8.99-12.12,9.27-6.97-3.65-8.11-9.66-8.11-9.66Z"/><path class="cls-29" d="m93.56,265.3s2.81,11.53-6.19,13.78"/><path class="cls-29" d="m87.09,262.77s-2.81,40.5-3.09,49.79-4.78,39.66-4.78,39.66l-19.97,59.35"/><path class="cls-29" d="m123.1,270.93s-.56,20.25-2.25,25.88-6.19,9.28-6.19,9.28c0,0,2.81-11.25,3.09-16.03s-.28-18-.28-18l5.63-1.13Z"/><path class="cls-4" d="m192.33,257.95s1.66,5.2,3.54,7.07c1.87,1.87,9.99,5.62,10.19,4.99.21-.62,7.7-15.6,7.07-15.6s-16.23-5.41-16.23-5.41l-4.58,8.95Z"/><path class="cls-29" d="m134.07,265.86s1.13,7.88,7.88,10.13"/><rect class="cls-17" x="204.68" y="238.35" width="40.57" height="60.54" rx="3.55" ry="3.55" transform="translate(139.55 -71.19) rotate(25.84)"/><rect class="cls-12" x="208.31" y="243.03" width="33.12" height="51.58" transform="translate(139.63 -71.13) rotate(25.84)"/><rect class="cls-26" x="224.41" y="242.79" width="23.51" height="5.41" transform="translate(130.59 -78.38) rotate(25.84)"/><rect class="cls-19" x="228.56" y="239.59" width="18.31" height="5.41" transform="translate(129.35 -79.38) rotate(25.84)"/><path class="cls-4" d="m198.36,248.59s8.53-4.79,11.86-4.37c3.33.42,8.53,3.12,10.4,4.16,1.87,1.04.62,4.58-3.54,3.54-4.16-1.04-5.41-1.66-5.41-1.66,0,0-3.12,5.41-6.87,5.62-3.74.21-11.24-.21-11.03-.83.21-.62,4.58-6.45,4.58-6.45Z"/><path class="cls-25" d="m137.91,208.54c-1.99,4.12-1.72,9.15-1.72,9.15"/><path class="cls-25" d="m211.68,250.26c-4.45,6.53-10.2,5.08-10.2,5.08"/><line class="cls-28" x1="380.64" y1="117.83" x2="380.64" y2="220.24"/><rect class="cls-6" x="335.41" y="212.79" width="94.52" height="80.93"/><circle class="cls-21" cx="341.54" cy="104.5" r="13.38" transform="translate(161.37 412.89) rotate(-76.72)"/><circle class="cls-21" cx="412.77" cy="101.29" r="16.59"/><circle class="cls-21" cx="379.06" cy="86.25" r="31.62" transform="translate(-1.27 166.72) rotate(-24.77)"/><rect class="cls-21" x="340.16" y="99.87" width="72.61" height="18.01"/><path class="cls-28" d="m412.77,84.7c-14.06.93-16.04,11.6-16.04,11.6"/><path class="cls-28" d="m347.73,90.5c1.85,13,12.27,19.6,12.27,19.6"/><line class="cls-28" x1="341.54" y1="117.88" x2="361.14" y2="117.88"/><path class="cls-16" d="m380.82,181.48c-.06.03-.11.07-.17.1-.06-.03-.11-.06-.17-.1-18.33-10.86-15.32-29.24-15.32-29.24l15.32-3.12.17-.03.17.03,15.32,3.12s3.01,18.38-15.32,29.24Z"/><path class="cls-20" d="m380.77,175.85s-.08.05-.12.07c-.04-.02-.08-.04-.12-.07-13.22-7.45-11.06-20.07-11.06-20.07l11.06-2.14.12-.02.12.02,11.06,2.14s2.17,12.62-11.06,20.07Z"/><path class="cls-10" d="m380.64,153.61l11.18,2.17s2.12,13.54-11.06,20.07"/><rect class="cls-9" x="361.82" y="223.22" width="57.17" height="5.5"/><rect class="cls-9" x="346.35" y="222.23" width="7.47" height="7.47" rx="3.61" ry="3.61"/><rect class="cls-9" x="361.82" y="236.86" width="57.17" height="5.5"/><rect class="cls-9" x="346.35" y="235.87" width="7.47" height="7.47" rx="3.61" ry="3.61"/><rect class="cls-9" x="361.82" y="250.51" width="57.17" height="5.5"/><rect class="cls-9" x="346.35" y="249.52" width="7.47" height="7.47" rx="3.61" ry="3.61"/><rect class="cls-9" x="361.82" y="264.15" width="57.17" height="5.5"/><rect class="cls-9" x="346.35" y="263.16" width="7.47" height="7.47" rx="3.61" ry="3.61"/><rect class="cls-9" x="361.82" y="277.79" width="57.17" height="5.5"/><rect class="cls-9" x="346.35" y="276.8" width="7.47" height="7.47" rx="3.61" ry="3.61"/><polyline class="cls-28" points="405.2 212.79 429.94 212.79 429.94 271.83"/><line class="cls-28" x1="353.83" y1="293.72" x2="384.71" y2="293.72"/><rect class="cls-17" x="375.47" y="209.93" width="10.34" height="2.86"/><rect class="cls-17" x="375.47" y="117.83" width="10.34" height="2.86"/><path class="cls-21" d="m89.65,99.42l-4.19-1.36c-.32-.1-.64-.11-.94-.06.01-.22.02-.45.02-.68s0-.45-.02-.68c.31.05.63.04.94-.06l4.19-1.36c1.03-.34,1.6-1.44,1.26-2.48l-1.36-4.19c-.34-1.03-1.44-1.6-2.48-1.26l-4.19,1.36c-.32.1-.58.28-.8.51-.25-.38-.52-.74-.8-1.1.28-.14.53-.33.73-.6l2.59-3.57c.64-.88.44-2.11-.43-2.74l-3.57-2.59c-.88-.64-2.11-.44-2.74.43l-2.59,3.57c-.19.27-.3.57-.35.87-.42-.16-.85-.3-1.29-.42.14-.27.23-.58.23-.91v-4.41c0-1.09-.88-1.96-1.97-1.96h-4.41c-1.09,0-1.96.88-1.96,1.96v4.41c0,.33.09.64.23.91-.44.12-.87.26-1.29.42-.04-.3-.15-.6-.35-.87l-2.59-3.57c-.64-.88-1.87-1.07-2.74-.43l-3.57,2.59c-.88.64-1.07,1.87-.43,2.74l2.59,3.57c.2.27.45.47.73.6-.28.35-.55.72-.8,1.1-.22-.22-.48-.4-.8-.51l-4.19-1.36c-1.03-.34-2.14.23-2.48,1.26l-1.36,4.19c-.34,1.03.23,2.14,1.26,2.48l4.19,1.36c.31.1.63.11.94.06-.02.45-.02.9,0,1.36-.31-.05-.63-.04-.94.06l-4.19,1.36c-1.03.34-1.6,1.44-1.26,2.48l1.36,4.19c.34,1.03,1.44,1.6,2.48,1.26l4.19-1.36c.32-.1.59-.29.81-.52.25.38.52.75.81,1.1-.29.14-.55.34-.75.61l-2.59,3.57c-.64.88-.44,2.11.43,2.74l3.57,2.59c.88.64,2.11.44,2.74-.43l2.59-3.57c.2-.27.3-.57.35-.88.42.16.85.3,1.29.42-.14.27-.23.58-.23.91v4.41c0,1.09.88,1.97,1.96,1.97h4.41c1.09,0,1.97-.88,1.97-1.97v-4.41c0-.33-.09-.63-.23-.91.44-.12.87-.26,1.29-.42.04.3.15.6.35.87l2.59,3.57c.64.88,1.87,1.07,2.74.43l3.57-2.59c.88-.64,1.07-1.87.43-2.74l-2.59-3.57c-.19-.27-.45-.46-.72-.6.28-.35.55-.72.8-1.1.22.22.48.4.8.51l4.19,1.36c1.03.34,2.14-.23,2.48-1.26l1.36-4.19c.34-1.03-.23-2.14-1.26-2.48Zm-19.72,4.43c-3.72.12-6.77-2.85-6.77-6.53s2.93-6.54,6.55-6.54,6.69,3.08,6.53,6.82c-.14,3.36-2.94,6.14-6.31,6.25Z"/><path class="cls-5" d="m126.81,67.68l-2.7-.88c-.2-.07-.41-.07-.61-.04,0-.14.01-.29.01-.44s0-.29-.01-.44c.2.03.4.03.61-.04l2.7-.88c.66-.22,1.03-.93.81-1.59l-.88-2.7c-.22-.66-.93-1.03-1.59-.81l-2.7.88c-.2.07-.37.18-.51.33-.16-.24-.33-.48-.51-.71.18-.09.34-.21.47-.39l1.67-2.29c.41-.56.29-1.36-.28-1.77l-2.29-1.67c-.56-.41-1.36-.29-1.77.28l-1.67,2.29c-.12.17-.19.36-.22.56-.27-.1-.55-.19-.83-.27.09-.18.15-.37.15-.58v-2.84c0-.7-.57-1.26-1.26-1.26h-2.84c-.7,0-1.26.57-1.26,1.26v2.84c0,.21.06.41.15.58-.28.08-.56.17-.83.27-.03-.2-.1-.39-.22-.56l-1.67-2.29c-.41-.56-1.2-.69-1.77-.28l-2.29,1.67c-.56.41-.69,1.2-.28,1.77l1.67,2.29c.13.17.29.3.47.39-.18.23-.35.46-.51.71-.14-.14-.31-.26-.51-.33l-2.7-.88c-.66-.22-1.38.15-1.59.81l-.88,2.7c-.22.66.15,1.38.81,1.59l2.7.88c.2.07.41.07.6.04-.01.29-.01.58,0,.87-.2-.03-.4-.03-.61.04l-2.7.88c-.66.22-1.03.93-.81,1.59l.88,2.7c.22.66.93,1.03,1.59.81l2.7-.88c.21-.07.38-.19.52-.33.16.24.33.48.52.71-.18.09-.35.22-.48.39l-1.67,2.29c-.41.56-.29,1.36.28,1.77l2.29,1.67c.56.41,1.36.29,1.77-.28l1.67-2.29c.13-.17.2-.37.22-.56.27.1.55.19.83.27-.09.18-.15.37-.15.59v2.84c0,.7.57,1.26,1.26,1.26h2.84c.7,0,1.26-.57,1.26-1.26v-2.84c0-.21-.06-.41-.15-.58.28-.08.56-.17.83-.27.03.2.1.39.22.56l1.67,2.29c.41.56,1.2.69,1.77.28l2.29-1.67c.56-.41.69-1.2.28-1.77l-1.67-2.29c-.13-.17-.29-.3-.47-.39.18-.23.35-.46.51-.71.14.14.31.26.51.32l2.7.88c.66.22,1.38-.15,1.59-.81l.88-2.7c.22-.66-.15-1.38-.81-1.59Zm-12.69,2.85c-2.39.08-4.36-1.83-4.36-4.2s1.88-4.2,4.21-4.2,4.3,1.98,4.2,4.39c-.09,2.16-1.89,3.95-4.06,4.02Z"/><path class="cls-11" d="m421.79,437.48c-.82-39.58,32.48-111.4,32.48-111.4,0,0,7.71,95.37-32.48,111.4Z"/><path class="cls-27" d="m453.27,328.62c-6.8,42.61-35.28,116.93-35.28,116.93"/><path class="cls-11" d="m424.33,422.82c-24.29-46.26.62-122.6.62-122.6,0,0,39.33,78.61-.62,122.6Z"/><path class="cls-27" d="m426.53,312.09c5.18,32.07-2.13,122.62-2.13,122.62"/><path class="cls-11" d="m414.56,437.37c-28.16-25.83-20.7-108.75-20.7-108.75,0,0,48.26,75.87,20.7,108.75Z"/><path class="cls-27" d="m398.36,343.82c9.47,19.44,18.12,101,18.12,101"/><rect class="cls-15" x="401.02" y="420.36" width="43.99" height="64.3"/><polyline class="cls-28" points="445.01 420.36 401.02 420.36 401.02 467.45"/></svg>