<svg id="Layer_1" enable-background="new 0 0 48 48" height="512" viewBox="0 0 48 48" width="512" xmlns="http://www.w3.org/2000/svg"><path id="XMLID_955_" d="m16.598.88 9.992 9.992c1.164 1.164 1.164 3.051 0 4.215-1.165 1.164-3.052 1.164-4.216 0l-3.037-3.037c-1.002 20.386 12.68 33.64 26.704 33.763.507.004.61.716.144.874-14.579 4.922-32.89-4.03-36.201-27.427-.295-2.266-.519-4.558-.681-6.868l-2.697 2.697c-1.164 1.164-3.052 1.164-4.215 0-1.164-1.164-1.165-3.051 0-4.215l9.992-9.992c1.163-1.166 3.05-1.166 4.215-.002z" fill="#88c057"/></svg>